<?xml version="1.0" encoding="utf-8"?>
<!-- Generator: Adobe Illustrator 21.1.0, SVG Export Plug-In . SVG Version: 6.00 Build 0)  -->
<svg version="1.1" id="Layer_1" xmlns="http://www.w3.org/2000/svg" xmlns:xlink="http://www.w3.org/1999/xlink" x="0px" y="0px"
	 viewBox="0 0 871.2 598.1" enable-background="new 0 0 871.2 598.1" xml:space="preserve">
<path fill="#FFFFFF" d="M320.4,204.6c-4-2.4-100-132.5-100-132.5l-19.2,82L320.4,204.6z"/>
<path fill="none" d="M259,269.2H-27.4c-7,0-12.8-5.8-12.8-12.8v-60.8c0-7,5.8-12.8,12.8-12.8H259c7,0,12.8,5.8,12.8,12.8v60.8
	C271.8,263.5,266,269.2,259,269.2z"/>
<path fill="none" d="M259-50.8H-27.4c-7,0-12.8-5.8-12.8-12.8v-60.8c0-7,5.8-12.8,12.8-12.8H259c7,0,12.8,5.8,12.8,12.8v60.8
	C271.8-56.5,266-50.8,259-50.8z"/>
<g>
	<path fill="#674C91" d="M0.2,493.5c40.7,2.5,114.4-9.2,182.5-104.2C283.4,248.5,447.3-72.1,702.5,43.1
		c196.1,88.5-42.2,340.7,144.1,340.7c12.7,0,24.8-0.7,24.8-0.7v215H0.2L0.2,493.5z"/>
	<g>
		<circle opacity="0.1" fill="#3C2813" cx="480.1" cy="157.5" r="89.5"/>
		<circle fill="#EEEBE7" cx="473.2" cy="150.7" r="89.5"/>
		<ellipse fill="#FFFFFF" cx="468.4" cy="138.7" rx="74.3" ry="77.4"/>
	</g>
	<g>
		<circle opacity="0.1" fill="#3C2813" cx="683.8" cy="160" r="89.5"/>
		<circle fill="#EEEBE7" cx="677" cy="153.2" r="89.5"/>
		<ellipse fill="#FFFFFF" cx="672.1" cy="141.2" rx="74.3" ry="77.4"/>
		<g>
			<g>
				<path fill="#3C2813" d="M706.7,129.5c-1,22-30,28-47,21c-5-3-7.5-4.2-13-11c-2.3-5-3-7-3-10c1-11,9-21,20-25c5-2,11-2,16-2
					c7,1,13,4,18,8c2.6,2.3,5.4,5.5,6.6,8.7C705.9,122.4,706.7,125.9,706.7,129.5z"/>
				<path fill="#EEEBE7" d="M674.3,116.4c0,3.5-4.1,6.6-9.2,7.3c-5.1,0.7-9.3-1.6-9.3-5.3c0-3.7,4.1-7.2,9.2-7.7
					C670.1,110.3,674.3,112.9,674.3,116.4z"/>
			</g>
			<ellipse fill="#EEEBE7" cx="673.9" cy="126.8" rx="4.5" ry="2.8"/>
			<ellipse fill="#EEEBE7" cx="679.9" cy="120.6" rx="4.5" ry="2.8"/>
		</g>
		<g>
			<g>
				<path fill="#3C2813" d="M496.7,129.5c-1,22-30,28-47,21c-5-3-7.5-4.2-13-11c-2.3-5-3-7-3-10c1-11,9-21,20-25c5-2,11-2,16-2
					c7,1,13,4,18,8c2.6,2.3,5.4,5.5,6.6,8.7C495.9,122.4,496.7,125.9,496.7,129.5z"/>
				<path fill="#EEEBE7" d="M464.3,116.4c0,3.5-4.1,6.6-9.2,7.3c-5.1,0.7-9.3-1.6-9.3-5.3c0-3.7,4.1-7.2,9.2-7.7
					C460.1,110.3,464.3,112.9,464.3,116.4z"/>
			</g>
			<ellipse fill="#EEEBE7" cx="463.9" cy="126.8" rx="4.5" ry="2.8"/>
			<ellipse fill="#EEEBE7" cx="469.9" cy="120.6" rx="4.5" ry="2.8"/>
		</g>
	</g>
	<path fill="#674C91" d="M508.3,414.1c0-27.9,27.8-50.4,62.2-50.4l25.8,17.5l25.8-17.5c34.3,0,62.2,22.6,62.2,50.4v26.4l-175.9,0
		V414.1z"/>
	<g>
		<path fill="#FFFFFF" d="M547.3,285.4c-0.9,0-1.8,0-2.6,0l19.9,0H547.3z"/>
		<path fill="#FFFFFF" d="M569.4,326c24.2,0,122.1,4.8,159.1,9.2c-20.3-30.2-52.6-49.8-89-49.8h-75l-19.9,0
			c-33.7,0.9-63.7,18.6-83.6,45.9c1.9,0.5,4,0.9,6.3,1.3C493.5,336.1,542.4,326,569.4,326z"/>
	</g>
	<path fill="#3C2813" d="M755.4,350.7c0,68.9-49.8,124.8-111.3,124.8h-92.3c-61.5,0-111.3-55.9-111.3-124.8v-65.3h314.8V350.7z"/>
	<g>
		<defs>
			<path id="SVGID_1_" d="M755.4,350.7c0,68.9-49.8,124.8-111.3,124.8h-92.3c-61.5,0-111.3-55.9-111.3-124.8v-65.3h314.8V350.7z"/>
		</defs>
		<use xlink:href="#SVGID_1_"  overflow="visible" fill="#3C2813"/>
		<clipPath id="SVGID_2_">
			<use xlink:href="#SVGID_1_"  overflow="visible"/>
		</clipPath>
		<path clip-path="url(#SVGID_2_)" fill="#F7EFDF" d="M523.3,300.9c0,22.2-10.7,32-24,32h-19.9c-13.2,0-24-9.8-24-32v-21h67.8V300.9
			z"/>
		<path clip-path="url(#SVGID_2_)" fill="#F7EFDF" d="M597.8,300.9c0,22.2-10.7,32-24,32H554c-13.2,0-24-9.8-24-32v-21h67.8V300.9z"
			/>
		<path clip-path="url(#SVGID_2_)" fill="#F7EFDF" d="M672.3,300.9c0,22.2-10.7,32-24,32h-19.9c-13.2,0-24-9.8-24-32v-21h67.8V300.9
			z"/>
		<path clip-path="url(#SVGID_2_)" fill="#F7EFDF" d="M636.9,483.9c0-22.2,10.7-32,24-32h19.9c13.2,0,24,9.8,24,32v21h-67.8V483.9z"
			/>
		<path clip-path="url(#SVGID_2_)" fill="#F7EFDF" d="M562.4,483.9c0-22.2,10.7-32,24-32h19.9c13.2,0,24,9.8,24,32v21h-67.8V483.9z"
			/>
		<path clip-path="url(#SVGID_2_)" fill="#F7EFDF" d="M487.9,483.9c0-22.2,10.7-32,24-32h19.9c13.2,0,24,9.8,24,32v21h-67.8V483.9z"
			/>
		<path clip-path="url(#SVGID_2_)" fill="#F7EFDF" d="M746.8,300.9c0,22.2-10.7,32-24,32H703c-13.2,0-24-9.8-24-32v-21h67.8V300.9z"
			/>
	</g>
	<path fill="#FFFFFF" d="M372.5,397.2H77c-4.4,0-8-3.6-8-8V23.6c0-4.4,3.6-8,8-8h295.5c4.4,0,8,3.6,8,8v365.6
		C380.5,393.6,376.9,397.2,372.5,397.2z"/>
	<path fill="#795ACC" d="M368.6,516.2H82.2c-7,0-12.8-5.8-12.8-12.8v-60.8c0-7,5.8-12.8,12.8-12.8h286.4c7,0,12.8,5.8,12.8,12.8
		v60.8C381.4,510.5,375.6,516.2,368.6,516.2z"/>
	<rect x="117.1" y="452.3" fill="none" width="219.8" height="62.1"/>
	<text transform="matrix(1 0 0 1 117.1269 490.269)" fill="#FFFFFF" font-family="'ElegantLux-Mager'" font-size="57.0579px">Continuar</text>
	<path fill="#FFFFFF" d="M430,341.6C426,339.1,330,209,330,209l-19.2,82L430,341.6z"/>
	<path fill="none" d="M368.6,406.2H82.2c-7,0-12.8-5.8-12.8-12.8v-60.8c0-7,5.8-12.8,12.8-12.8h286.4c7,0,12.8,5.8,12.8,12.8v60.8
		C381.4,400.5,375.6,406.2,368.6,406.2z"/>
	<path fill="none" d="M368.6,86.2H82.2c-7,0-12.8-5.8-12.8-12.8V12.6c0-7,5.8-12.8,12.8-12.8h286.4c7,0,12.8,5.8,12.8,12.8v60.8
		C381.4,80.5,375.6,86.2,368.6,86.2z"/>
	<g>
		<rect x="95.7" y="51.3" fill="none" width="271.5" height="355.8"/>
		<text transform="matrix(1 0 0 1 95.6682 77.9544)"><tspan x="0" y="0" fill="#601515" font-family="'Bungee-Regular'" font-size="37px">Respuesta, </tspan><tspan x="0" y="44.4" fill="#601515" font-family="'Bungee-Regular'" font-size="37px">enviada.</tspan><tspan x="0" y="88.8" fill="#601515" font-family="'Bungee-Regular'" font-size="37px">GRACIAS!</tspan><tspan x="0" y="158.4" fill="#601515" font-family="'ElegantLux-Mager'" font-size="29px">Estamos esperando</tspan><tspan x="0" y="193.2" fill="#601515" font-family="'ElegantLux-Mager'" font-size="29px">que tus compañeros </tspan><tspan x="0" y="228" fill="#601515" font-family="'ElegantLux-Mager'" font-size="29px">contesten para </tspan><tspan x="0" y="262.8" fill="#601515" font-family="'ElegantLux-Mager'" font-size="29px">CONTINUAR...</tspan></text>
	</g>
	<path fill="#674C91" d="M508.3,414.1c0-27.9,27.8-50.4,62.2-50.4l25.8,17.5l25.8-17.5c34.3,0,62.2,22.6,62.2,50.4v26.4l-175.9,0
		V414.1z"/>
</g>
</svg>
