<?xml version="1.0" encoding="utf-8"?>
<!-- Generator: Adobe Illustrator 21.1.0, SVG Export Plug-In . SVG Version: 6.00 Build 0)  -->
<svg version="1.1" id="Layer_1" xmlns="http://www.w3.org/2000/svg" xmlns:xlink="http://www.w3.org/1999/xlink" x="0px" y="0px"
	 viewBox="0 0 871.2 598.1" enable-background="new 0 0 871.2 598.1" xml:space="preserve">
<path fill="#674C91" d="M846.4,383.9c-186.4,0,30.4-339.3-184.8-339.3s-378.4,204-479.2,344.8C114.4,484.5,40.7,496.1,0,493.7
	l0,104.4h871.2v-10V383.2C871.2,383.2,859.2,383.9,846.4,383.9z"/>
<g>
	<g>
		<circle opacity="0.1" fill="#3C2813" cx="480.8" cy="157.5" r="89.5"/>
		<circle fill="#EEEBE7" cx="474" cy="150.7" r="89.5"/>
		<ellipse fill="#FFFFFF" cx="469.1" cy="138.6" rx="74.3" ry="77.4"/>
		<g>
			<circle fill="#3C2813" cx="528.9" cy="153.4" r="31.2"/>
			<ellipse fill="#EEEBE7" cx="518.4" cy="142.3" rx="9.2" ry="9.1"/>
			<ellipse fill="#EEEBE7" cx="524" cy="157.2" rx="4.6" ry="4.5"/>
			<ellipse fill="#EEEBE7" cx="532.7" cy="147.9" rx="4.6" ry="4.5"/>
		</g>
	</g>
	<g>
		<circle fill="#EEEBE7" cx="677.7" cy="153.2" r="89.5"/>
		<ellipse fill="#FFFFFF" cx="672.8" cy="141.1" rx="74.3" ry="77.4"/>
		<g>
			<circle fill="#3C2813" cx="623.6" cy="151.9" r="31.2"/>
			<ellipse fill="#EEEBE7" cx="613.2" cy="140.8" rx="9.2" ry="9.1"/>
			<ellipse fill="#EEEBE7" cx="618.7" cy="155.7" rx="4.6" ry="4.5"/>
			<ellipse fill="#EEEBE7" cx="627.4" cy="146.4" rx="4.6" ry="4.5"/>
		</g>
	</g>
	<path fill="#FFFFFF" d="M368.6,397.2H73.1c-4.4,0-8-3.6-8-8V23.6c0-4.4,3.6-8,8-8h295.5c4.4,0,8,3.6,8,8v365.6
		C376.6,393.6,373,397.2,368.6,397.2z"/>
	<path fill="#3C2813" d="M436.7,410.1c0-68.9,49.8-124.8,111.3-124.8h92.3c61.5,0,111.3,55.9,111.3,124.8l0,65.3l-314.8,0
		L436.7,410.1z"/>
	<path fill="#674C91" d="M509,414.1c0-27.9,27.8-50.4,62.2-50.4l25.8,17.5l25.8-17.5c34.3,0,62.2,22.6,62.2,50.4v26.4l-175.9,0
		V414.1z"/>
	<path fill="#795ACC" d="M364.7,516.2H78.3c-7,0-12.8-5.8-12.8-12.8v-60.8c0-7,5.8-12.8,12.8-12.8h286.4c7,0,12.8,5.8,12.8,12.8
		v60.8C377.5,510.5,371.7,516.2,364.7,516.2z"/>
	<rect x="113.3" y="452.3" fill="none" width="219.8" height="62.1"/>
	<text transform="matrix(1 0 0 1 157.2902 490.2489)" fill="#FFFFFF" font-family="'ElegantLux-Mager'" font-size="57.0579px">Volver</text>
	<path fill="#FFFFFF" d="M426.1,341.5c-4-2.4-100-132.5-100-132.5l-19.2,82L426.1,341.5z"/>
	<g>
		<rect x="91.8" y="51.3" fill="none" width="271.5" height="355.8"/>
		<text transform="matrix(1 0 0 1 91.7912 77.9348)"><tspan x="0" y="0" fill="#601515" font-family="'Bungee-Regular'" font-size="37px">ERROR!!!!</tspan><tspan x="0" y="69.6" fill="#601515" font-family="'ElegantLux-Mager'" font-size="29px">Algo anda mal vuelve </tspan><tspan x="0" y="104.4" fill="#601515" font-family="'ElegantLux-Mager'" font-size="29px">Vuelve a la pregunta y</tspan><tspan x="0" y="139.2" fill="#601515" font-family="'ElegantLux-Mager'" font-size="29px">Elige 2, 3, 4 o 5 </tspan><tspan x="0" y="174" fill="#601515" font-family="'ElegantLux-Mager'" font-size="29px">compañeros.</tspan></text>
	</g>
	<g>
		<path fill="#FFFFFF" d="M548,285.4c-0.9,0-1.8,0-2.6,0l19.9,0H548z"/>
		<path fill="#FFFFFF" d="M570.2,326c24.2,0,122.1,4.8,159.1,9.2c-20.3-30.2-52.6-49.8-89-49.8h-75l-19.9,0
			c-33.7,0.9-63.7,18.6-83.6,45.9c1.9,0.5,4,0.9,6.3,1.3C494.3,336.1,543.1,326,570.2,326z"/>
	</g>
	<path fill="#3C2813" d="M436.7,410.1c0-68.9,49.8-124.8,111.3-124.8h92.3c61.5,0,111.3,55.9,111.3,124.8l0,65.3l-314.8,0
		L436.7,410.1z"/>
	<path fill="#674C91" d="M509,414.1c0-27.9,27.8-50.4,62.2-50.4l25.8,17.5l25.8-17.5c34.3,0,62.2,22.6,62.2,50.4v26.4l-175.9,0
		V414.1z"/>
	<g>
		<defs>
			<path id="SVGID_1_" d="M436.7,410.1c0-68.9,49.8-124.8,111.3-124.8h92.3c61.5,0,111.3,55.9,111.3,124.8l0,65.3l-314.8,0
				L436.7,410.1z"/>
		</defs>
		<clipPath id="SVGID_2_">
			<use xlink:href="#SVGID_1_"  overflow="visible"/>
		</clipPath>
		<path clip-path="url(#SVGID_2_)" fill="#F7EFDF" d="M524,300.8c0,22.2-10.7,32-24,32h-19.9c-13.2,0-24-9.8-24-32v-21H524V300.8z"
			/>
		<path clip-path="url(#SVGID_2_)" fill="#F7EFDF" d="M598.5,300.8c0,22.2-10.7,32-24,32h-19.9c-13.2,0-24-9.8-24-32v-21h67.8V300.8
			z"/>
		<path clip-path="url(#SVGID_2_)" fill="#F7EFDF" d="M673,300.8c0,22.2-10.7,32-24,32h-19.9c-13.2,0-24-9.8-24-32v-21H673V300.8z"
			/>
		<path clip-path="url(#SVGID_2_)" fill="#F7EFDF" d="M637.6,483.9c0-22.2,10.7-32,24-32h19.9c13.2,0,24,9.8,24,32v21h-67.8V483.9z"
			/>
		<path clip-path="url(#SVGID_2_)" fill="#F7EFDF" d="M563.1,483.9c0-22.2,10.7-32,24-32H607c13.2,0,24,9.8,24,32v21h-67.8V483.9z"
			/>
		<path clip-path="url(#SVGID_2_)" fill="#F7EFDF" d="M488.6,483.9c0-22.2,10.7-32,24-32h19.9c13.2,0,24,9.8,24,32v21h-67.8V483.9z"
			/>
		<path clip-path="url(#SVGID_2_)" fill="#F7EFDF" d="M747.5,300.8c0,22.2-10.7,32-24,32h-19.9c-13.2,0-24-9.8-24-32v-21h67.8V300.8
			z"/>
	</g>
</g>
</svg>
