<?xml version="1.0" encoding="utf-8"?>
<!-- Generator: Adobe Illustrator 21.1.0, SVG Export Plug-In . SVG Version: 6.00 Build 0)  -->
<svg version="1.1" id="Layer_1" xmlns="http://www.w3.org/2000/svg" xmlns:xlink="http://www.w3.org/1999/xlink" x="0px" y="0px"
	 viewBox="0 0 871.2 598.1" enable-background="new 0 0 871.2 598.1" xml:space="preserve">
<path fill="#674C91" d="M846.4,383.9c-186.4,0,30.4-339.3-184.8-339.3s-378.4,204-479.2,344.8C114.4,484.5,40.7,496.1,0,493.7
	l0,104.4h871.2v-10V383.2C871.2,383.2,859.2,383.9,846.4,383.9z"/>
<g>
	<circle opacity="0.1" fill="#3C2813" cx="479.9" cy="157.7" r="89.5"/>
	<circle fill="#EEEBE7" cx="473.1" cy="150.9" r="89.5"/>
	<ellipse fill="#FFFFFF" cx="468.2" cy="138.8" rx="74.3" ry="77.4"/>
	<g>
		<circle fill="#3C2813" cx="434.3" cy="148.9" r="31.2"/>
		<ellipse fill="#EEEBE7" cx="423.8" cy="137.7" rx="9.2" ry="9.1"/>
		<ellipse fill="#EEEBE7" cx="429.4" cy="152.7" rx="4.6" ry="4.5"/>
		<ellipse fill="#EEEBE7" cx="438.1" cy="143.4" rx="4.6" ry="4.5"/>
	</g>
</g>
<g>
	<path opacity="0.1" fill="#3C2813" d="M765.4,195.2c-16.2,28-44.7,54.5-81.8,54.5c-49.4,0-89.5-40.1-89.5-89.5
		c0-49.4,40.1-89.5,89.5-89.5c33.8,0,58.9,18.7,75.8,45.5C766.9,128.1,766.6,193.1,765.4,195.2z"/>
	<circle fill="#EEEBE7" cx="676.8" cy="153.4" r="89.5"/>
	<ellipse fill="#FFFFFF" cx="672" cy="141.3" rx="74.3" ry="77.4"/>
	<g>
		<circle fill="#3C2813" cx="622.7" cy="152.1" r="31.2"/>
		<ellipse fill="#EEEBE7" cx="612.3" cy="140.9" rx="9.2" ry="9.1"/>
		<ellipse fill="#EEEBE7" cx="617.9" cy="155.9" rx="4.6" ry="4.5"/>
		<ellipse fill="#EEEBE7" cx="626.5" cy="146.6" rx="4.6" ry="4.5"/>
	</g>
</g>
<path fill="#3C2813" d="M435.8,410.3c0-68.9,49.8-124.8,111.3-124.8h92.3c61.5,0,111.3,55.9,111.3,124.8l0,65.3l-314.8,0
	L435.8,410.3z"/>
<path fill="#674C91" d="M508.1,414.3c0-27.9,27.8-50.4,62.2-50.4l25.8,17.5l25.8-17.5c34.3,0,62.2,22.6,62.2,50.4v26.4l-175.9,0
	V414.3z"/>
<path fill="#795ACC" d="M363.8,516.4H77.4c-7,0-12.8-5.8-12.8-12.8v-60.8c0-7,5.8-12.8,12.8-12.8h286.4c7,0,12.8,5.8,12.8,12.8v60.8
	C376.6,510.6,370.8,516.4,363.8,516.4z"/>
<path fill="#FFFFFF" d="M425.2,341.7c-4-2.4-100-132.5-100-132.5l-19.2,82L425.2,341.7z"/>
<path fill="none" d="M363.8,86.4H77.4c-7,0-12.8-5.8-12.8-12.8V12.8c0-7,5.8-12.8,12.8-12.8h286.4c7,0,12.8,5.8,12.8,12.8v60.8
	C376.6,80.6,370.8,86.4,363.8,86.4z"/>
<g>
	<path fill="#FFFFFF" d="M547.1,285.5c-0.9,0-1.8,0-2.6,0l19.9,0H547.1z"/>
	<path fill="#FFFFFF" d="M569.3,326.2c24.2,0,122.1,4.8,159.1,9.2c-20.3-30.2-52.6-49.8-89-49.8h-75l-19.9,0
		c-33.7,0.9-63.7,18.6-83.6,45.9c1.9,0.5,4,0.9,6.3,1.3C493.4,336.2,542.2,326.2,569.3,326.2z"/>
</g>
<path fill="#3C2813" d="M435.8,410.3c0-68.9,49.8-124.8,111.3-124.8h92.3c61.5,0,111.3,55.9,111.3,124.8l0,65.3l-314.8,0
	L435.8,410.3z"/>
<path fill="#674C91" d="M508.1,414.3c0-27.9,27.8-50.4,62.2-50.4l25.8,17.5l25.8-17.5c34.3,0,62.2,22.6,62.2,50.4v26.4l-175.9,0
	V414.3z"/>
<g>
	<defs>
		<path id="SVGID_1_" d="M435.8,410.3c0-68.9,49.8-124.8,111.3-124.8h92.3c61.5,0,111.3,55.9,111.3,124.8l0,65.3l-314.8,0
			L435.8,410.3z"/>
	</defs>
	<clipPath id="SVGID_2_">
		<use xlink:href="#SVGID_1_"  overflow="visible"/>
	</clipPath>
	<path clip-path="url(#SVGID_2_)" fill="#F7EFDF" d="M523.1,301c0,22.2-10.7,32-24,32h-19.9c-13.2,0-24-9.8-24-32v-21h67.8V301z"/>
	<path clip-path="url(#SVGID_2_)" fill="#F7EFDF" d="M597.6,301c0,22.2-10.7,32-24,32h-19.9c-13.2,0-24-9.8-24-32v-21h67.8V301z"/>
	<path clip-path="url(#SVGID_2_)" fill="#F7EFDF" d="M672.1,301c0,22.2-10.7,32-24,32h-19.9c-13.2,0-24-9.8-24-32v-21h67.8V301z"/>
	<path clip-path="url(#SVGID_2_)" fill="#F7EFDF" d="M636.8,484.1c0-22.2,10.7-32,24-32h19.9c13.2,0,24,9.8,24,32v21h-67.8V484.1z"
		/>
	<path clip-path="url(#SVGID_2_)" fill="#F7EFDF" d="M562.3,484.1c0-22.2,10.7-32,24-32h19.9c13.2,0,24,9.8,24,32v21h-67.8V484.1z"
		/>
	<path clip-path="url(#SVGID_2_)" fill="#F7EFDF" d="M487.8,484.1c0-22.2,10.7-32,24-32h19.9c13.2,0,24,9.8,24,32v21h-67.8V484.1z"
		/>
	<path clip-path="url(#SVGID_2_)" fill="#F7EFDF" d="M746.6,301c0,22.2-10.7,32-24,32h-19.9c-13.2,0-24-9.8-24-32v-21h67.8V301z"/>
</g>
<rect x="110.4" y="455.1" fill="none" width="219.8" height="62.1"/>
<text transform="matrix(1 0 0 1 110.4465 493.0168)" fill="#FFFFFF" font-family="'ElegantLux-Mager'" font-size="57.0579px">Continuar</text>
<path fill="#FFFFFF" d="M367.7,317.4H72.2c-4.4,0-8-3.6-8-8V23.8c0-4.4,3.6-8,8-8h295.5c4.4,0,8,3.6,8,8v285.6
	C375.7,313.8,372.1,317.4,367.7,317.4z"/>
<path fill="#F2C85F" d="M363.8,416.4H77.4c-7,0-12.8-5.8-12.8-12.8v-60.8c0-7,5.8-12.8,12.8-12.8h286.4c7,0,12.8,5.8,12.8,12.8v60.8
	C376.6,410.6,370.8,416.4,363.8,416.4z"/>
<rect x="110.4" y="352.5" fill="none" width="219.8" height="62.1"/>
<text transform="matrix(1 0 0 1 110.4465 390.4274)" fill="#FFFFFF" font-family="'ElegantLux-Mager'" font-size="57.0579px">Cambiar</text>
<path fill="#FFFFFF" d="M425.2,341.7c-4-2.4-100-132.5-100-132.5l-19.2,82L425.2,341.7z"/>
<path fill="none" d="M363.8,86.4H77.4c-7,0-12.8-5.8-12.8-12.8V12.8c0-7,5.8-12.8,12.8-12.8h286.4c7,0,12.8,5.8,12.8,12.8v60.8
	C376.6,80.6,370.8,86.4,363.8,86.4z"/>
<g>
	<rect x="90.9" y="51.5" fill="none" width="271.5" height="245.8"/>
	<text transform="matrix(1 0 0 1 90.9023 78.1119)"><tspan x="0" y="0" fill="#601515" font-family="'Bungee-Regular'" font-size="37px">CUIDADO! </tspan><tspan x="0" y="69.6" fill="#601515" font-family="'ElegantLux-Mager'" font-size="29px">te falta seleccionar </tspan><tspan x="0" y="104.4" fill="#601515" font-family="'ElegantLux-Mager'" font-size="29px">algunos compañeros. </tspan><tspan x="0" y="139.2" fill="#601515" font-family="'ElegantLux-Mager'" font-size="29px">¿Quieres cambiar o </tspan><tspan x="0" y="174" fill="#601515" font-family="'ElegantLux-Mager'" font-size="29px">seguir ? </tspan></text>
</g>
</svg>
