<?xml version="1.0" encoding="utf-8"?>
<!-- Generator: Adobe Illustrator 21.1.0, SVG Export Plug-In . SVG Version: 6.00 Build 0)  -->
<svg version="1.1" id="Layer_1" xmlns="http://www.w3.org/2000/svg" xmlns:xlink="http://www.w3.org/1999/xlink" x="0px" y="0px"
	 viewBox="0 0 88 87.4" style="enable-background:new 0 0 88 87.4;" xml:space="preserve">
<style type="text/css">
	.st0{fill:url(#SVGID_1_);}
	.st1{fill:#EFEA35;}
	.st2{fill:url(#SVGID_2_);}
	.st3{fill:url(#SVGID_3_);}
	.st4{fill:url(#SVGID_4_);}
	.st5{fill:url(#SVGID_5_);}
	.st6{fill:url(#SVGID_6_);}
</style>
<radialGradient id="SVGID_1_" cx="862.8267" cy="-3522.8467" r="17.02" gradientTransform="matrix(2.0403 0 0 -2.0355 -1716.4253 -7127.1479)" gradientUnits="userSpaceOnUse">
	<stop  offset="0" style="stop-color:#FFFFFF"/>
	<stop  offset="1" style="stop-color:#D8D7D7;stop-opacity:0"/>
</radialGradient>
<ellipse class="st0" cx="44" cy="43.7" rx="44" ry="43.7"/>
<g>
	<g>
		<circle class="st1" cx="44" cy="43.7" r="26.8"/>
		
			<linearGradient id="SVGID_2_" gradientUnits="userSpaceOnUse" x1="35.5982" y1="685.1627" x2="50.8066" y2="733.6064" gradientTransform="matrix(1 0 0 -1 0 768)">
			<stop  offset="0.1227" style="stop-color:#F1A100"/>
			<stop  offset="0.4163" style="stop-color:#DCA54D;stop-opacity:0.366"/>
			<stop  offset="1" style="stop-color:#E6BF80;stop-opacity:0.2"/>
		</linearGradient>
		<path class="st2" d="M44,70.4c14.8,0,26.8-12,26.8-26.8c0-2.1-0.2-4.1-0.7-6C54.9,47,31.1,42,20,55.5C24.4,64.4,33.5,70.4,44,70.4
			z"/>
		
			<linearGradient id="SVGID_3_" gradientUnits="userSpaceOnUse" x1="290.1975" y1="-42.1373" x2="320.3567" y2="-72.555" gradientTransform="matrix(1.1692 -9.563129e-06 0 -1.1692 -322.3477 -32.8394)">
			<stop  offset="0" style="stop-color:#FFFFFF"/>
			<stop  offset="1" style="stop-color:#D8D7D7;stop-opacity:0"/>
		</linearGradient>
		<circle class="st3" cx="43.4" cy="43.1" r="25"/>
		<g>
			
				<linearGradient id="SVGID_4_" gradientUnits="userSpaceOnUse" x1="291.8388" y1="-40.5099" x2="321.9981" y2="-70.9276" gradientTransform="matrix(1.1692 -9.563129e-06 0 -1.1692 -322.3477 -32.8394)">
				<stop  offset="0" style="stop-color:#FFFFFF"/>
				<stop  offset="1" style="stop-color:#D8D7D7;stop-opacity:0"/>
			</linearGradient>
			<path class="st4" d="M43.4,18c-1,0-1.9,0.1-2.9,0.2c12.5,1.4,22.2,12,22.2,24.9S53,66.5,40.5,68c0.9,0.1,1.9,0.2,2.9,0.2
				c13.8,0,25-11.2,25-25S57.2,18,43.4,18z"/>
		</g>
		
			<radialGradient id="SVGID_5_" cx="43.4" cy="735.2979" r="17.0193" gradientTransform="matrix(1 0 0 -0.4982 0 396.9254)" gradientUnits="userSpaceOnUse">
			<stop  offset="0" style="stop-color:#FFFFFF"/>
			<stop  offset="1" style="stop-color:#D8D7D7;stop-opacity:0"/>
		</radialGradient>
		<ellipse class="st5" cx="43.4" cy="30.6" rx="21.6" ry="10.7"/>
		
			<radialGradient id="SVGID_6_" cx="51.7234" cy="704.983" r="16.8908" gradientTransform="matrix(0.8737 -0.4864 -0.2423 -0.4353 178.4448 392.8898)" gradientUnits="userSpaceOnUse">
			<stop  offset="0" style="stop-color:#FFFFFF"/>
			<stop  offset="6.120825e-02" style="stop-color:#FAFAFA;stop-opacity:0.9388"/>
			<stop  offset="0.3689" style="stop-color:#E7E7E7;stop-opacity:0.6311"/>
			<stop  offset="0.6806" style="stop-color:#DCDBDB;stop-opacity:0.3194"/>
			<stop  offset="1" style="stop-color:#D8D7D7;stop-opacity:0"/>
		</radialGradient>
		<path class="st6" d="M67.2,52.5c0,5.9-10.6,16.8-22.5,16.8s-21.6-4.8-21.6-10.7s8.2-0.9,20.1-0.9S67.2,46.6,67.2,52.5z"/>
	</g>
</g>
</svg>
