<?xml version="1.0" encoding="utf-8"?>
<!-- Generator: Adobe Illustrator 21.1.0, SVG Export Plug-In . SVG Version: 6.00 Build 0)  -->
<svg version="1.1" id="Layer_1" xmlns="http://www.w3.org/2000/svg" xmlns:xlink="http://www.w3.org/1999/xlink" x="0px" y="0px"
	  xml:space="preserve">
<style type="text/css">
	.st0{fill:url(#SVGID_1_);}
	.st1{fill:url(#SVGID_2_);}
	.st2{fill:#EFEA35;}
	.st3{fill:url(#SVGID_3_);}
	.st4{fill:url(#SVGID_4_);}
	.st5{fill:url(#SVGID_5_);}
	.st6{fill:url(#SVGID_6_);}
	.st7{fill:url(#SVGID_7_);}
</style>
<radialGradient id="SVGID_1_" cx="43.8375" cy="42.4581" r="16.5016" gradientUnits="userSpaceOnUse">
	<stop  offset="0" style="stop-color:#000000"/>
	<stop  offset="0.8674" style="stop-color:#601515"/>
	<stop  offset="1" style="stop-color:#7F2700"/>
</radialGradient>
<circle class="st0" cx="43.8" cy="42.5" r="16.5"/>
<g>
	
		<radialGradient id="SVGID_2_" cx="862.827" cy="4290.8467" r="17.0199" gradientTransform="matrix(2.0403 0 0 2.0355 -1716.4253 -8690.4121)" gradientUnits="userSpaceOnUse">
		<stop  offset="0" style="stop-color:#FFFFFF"/>
		<stop  offset="1" style="stop-color:#D8D7D7;stop-opacity:0"/>
	</radialGradient>
	<ellipse class="st1" cx="44" cy="43.7" rx="44" ry="43.7"/>
	<g>
		<circle class="st2" cx="43.4" cy="41.6" r="26.8"/>
		<linearGradient id="SVGID_3_" gradientUnits="userSpaceOnUse" x1="34.9771" y1="80.7307" x2="50.1855" y2="32.287">
			<stop  offset="0.1227" style="stop-color:#F1A100"/>
			<stop  offset="0.4163" style="stop-color:#DCA54D;stop-opacity:0.366"/>
			<stop  offset="1" style="stop-color:#E6BF80;stop-opacity:0.2"/>
		</linearGradient>
		<path class="st3" d="M43.4,68.3c14.8,0,26.8-12,26.8-26.8c0-2.1-0.2-4.1-0.7-6c-15.2,9.4-39,4.4-50.1,17.9
			C23.8,62.3,32.9,68.3,43.4,68.3z"/>
		
			<linearGradient id="SVGID_4_" gradientUnits="userSpaceOnUse" x1="289.6956" y1="808.33" x2="319.8548" y2="838.7477" gradientTransform="matrix(1.1692 -9.563129e-06 0 1.1692 -322.3477 -930.785)">
			<stop  offset="0" style="stop-color:#FFFFFF"/>
			<stop  offset="1" style="stop-color:#D8D7D7;stop-opacity:0"/>
		</linearGradient>
		<circle class="st4" cx="42.8" cy="41" r="25"/>
		<g>
			
				<linearGradient id="SVGID_5_" gradientUnits="userSpaceOnUse" x1="291.3611" y1="806.6786" x2="321.5204" y2="837.0963" gradientTransform="matrix(1.1692 -9.563129e-06 0 1.1692 -322.3477 -930.785)">
				<stop  offset="0" style="stop-color:#FFFFFF"/>
				<stop  offset="1" style="stop-color:#D8D7D7;stop-opacity:0"/>
			</linearGradient>
			<path class="st5" d="M42.8,15.9c-1,0-1.9,0.1-2.9,0.2c12.5,1.4,22.2,12,22.2,24.9s-9.7,23.4-22.2,24.9c0.9,0.1,1.9,0.2,2.9,0.2
				c13.8,0,25-11.2,25-25S56.6,15.9,42.8,15.9z"/>
		</g>
		
			<radialGradient id="SVGID_6_" cx="42.8225" cy="28.511" r="17.0199" gradientTransform="matrix(1 0 0 0.4982 0 14.3078)" gradientUnits="userSpaceOnUse">
			<stop  offset="0" style="stop-color:#FFFFFF"/>
			<stop  offset="1" style="stop-color:#D8D7D7;stop-opacity:0"/>
		</radialGradient>
		<ellipse class="st6" cx="42.8" cy="28.5" rx="21.6" ry="10.7"/>
		
			<radialGradient id="SVGID_7_" cx="52.2205" cy="58.7482" r="16.8908" gradientTransform="matrix(0.8737 -0.4864 0.2423 0.4353 -7.6416 58.5794)" gradientUnits="userSpaceOnUse">
			<stop  offset="0" style="stop-color:#FFFFFF"/>
			<stop  offset="6.120825e-02" style="stop-color:#FAFAFA;stop-opacity:0.9388"/>
			<stop  offset="0.3689" style="stop-color:#E7E7E7;stop-opacity:0.6311"/>
			<stop  offset="0.6806" style="stop-color:#DCDBDB;stop-opacity:0.3194"/>
			<stop  offset="1" style="stop-color:#D8D7D7;stop-opacity:0"/>
		</radialGradient>
		<path class="st7" d="M66.6,50.4c0,5.9-10.6,16.8-22.5,16.8s-21.6-4.8-21.6-10.7s8.2-0.9,20.1-0.9S66.6,44.5,66.6,50.4z"/>
	</g>
</g>
</svg>
