<?xml version="1.0" encoding="utf-8"?>
<!-- Generator: Adobe Illustrator 21.1.0, SVG Export Plug-In . SVG Version: 6.00 Build 0)  -->
<svg version="1.1" xmlns="http://www.w3.org/2000/svg" xmlns:xlink="http://www.w3.org/1999/xlink" x="0px" y="0px"
	 viewBox="0 0 841.9 595.3" style="enable-background:new 0 0 841.9 595.3;" xml:space="preserve">
<style type="text/css">
	.st0{fill:#601515;}
	.st1{fill:#3FBA51;}
	.st2{fill:none;stroke:#601515;stroke-width:2;stroke-miterlimit:10;}
	.st3{fill:#F2C85F;}
	.st4{fill:#F2D3AD;}
	.st5{fill:#674C91;}
	.st6{fill:#DCFFC5;}
	.st7{fill:#8BAA77;}
	.st8{clip-path:url(#SVGID_2_);fill:#F1F3F7;}
	.st9{opacity:0.4;clip-path:url(#SVGID_2_);fill:#DCDDE0;}
	.st10{clip-path:url(#SVGID_2_);fill:#0076B7;}
	.st11{clip-path:url(#SVGID_2_);fill:#FFFFFF;}
	.st12{clip-path:url(#SVGID_2_);}
	.st13{fill:#FFFFFF;}
	.st14{fill:#F7CFA2;}
	.st15{fill:#ECB8FF;}
	.st16{fill:#393D47;}
	.st17{fill:#E86767;}
	.st18{opacity:0.1;fill:#3C2813;}
	.st19{fill:#EEEBE7;}
	.st20{fill:#3C2813;}
	.st21{fill:#795ACC;}
	.st22{fill:none;}
	.st23{clip-path:url(#SVGID_6_);fill:#F7EFDF;}
	.st24{fill:#3EBA50;}
	.st25{display:none;opacity:0.3;}
	.st26{fill:#F7EFDF;}
	.st27{fill:#4E9FA8;}
	.st28{fill:none;stroke:#231F20;stroke-width:2;stroke-miterlimit:10;}
	.st29{fill:#231F20;}
	.st30{fill:none;stroke:#674C91;stroke-miterlimit:10;}
	.st31{fill:#601515;stroke:#601515;stroke-miterlimit:10;}
	.st32{fill:none;stroke:#601515;stroke-miterlimit:10;}
	.st33{fill:none;stroke:#FFFFFF;stroke-miterlimit:10;}
	.st34{fill:url(#SVGID_9_);}
	.st35{fill:#601515;stroke:#8C8779;stroke-width:6;stroke-miterlimit:10;}
	.st36{fill:url(#SVGID_10_);}
	.st37{fill:none;stroke:#4E9FA8;stroke-width:12;stroke-miterlimit:10;}
	.st38{fill:#E0EA18;}
	.st39{clip-path:url(#SVGID_12_);fill:#F7EFDF;}
	.st40{fill:url(#SVGID_13_);}
	.st41{fill:url(#SVGID_14_);}
	.st42{fill:#EFEA35;}
	.st43{fill:url(#SVGID_15_);}
	.st44{fill:url(#SVGID_16_);}
	.st45{fill:url(#SVGID_17_);}
	.st46{fill:url(#SVGID_18_);}
	.st47{fill:url(#SVGID_19_);}
	.st48{fill:#C1C1B8;}
	.st49{fill:#9B9B97;}
	.st50{fill:#D8D8D2;}
	.st51{opacity:0.4;}
	.st52{opacity:0.6;}
	.st53{fill:#CEBABA;}
	.st54{fill:#EAEAE5;}
	.st55{fill:url(#SVGID_20_);}
	.st56{fill:url(#SVGID_21_);}
	.st57{fill:url(#SVGID_22_);}
	.st58{fill:url(#SVGID_23_);}
	.st59{fill:url(#SVGID_24_);}
	.st60{fill:url(#SVGID_25_);}
	.st61{fill:url(#SVGID_26_);}
	.st62{fill:url(#SVGID_27_);}
	.st63{fill:url(#SVGID_28_);}
	.st64{fill:#6BA8B2;}
	.st65{fill:#F1F3F7;}
	.st66{fill:#F0BA7A;}
	.st67{opacity:0.4;fill:#DCDDE0;}
	.st68{fill:#0076B7;}
	.st69{opacity:0.3;}
	.st70{fill:#DCDDE0;}
	.st71{fill:#004868;}
	.st72{opacity:0.1;fill:#601515;}
	.st73{fill:#F9F9F9;}
	.st74{fill:#24272D;}
	.st75{fill:#EA6D50;}
	.st76{clip-path:url(#SVGID_30_);fill:#F0BA7A;}
	.st77{clip-path:url(#SVGID_30_);fill:#F1F3F7;}
	.st78{opacity:0.4;clip-path:url(#SVGID_30_);fill:#DCDDE0;}
	.st79{clip-path:url(#SVGID_30_);fill:#0076B7;}
	.st80{clip-path:url(#SVGID_30_);fill:#FFFFFF;}
	.st81{clip-path:url(#SVGID_30_);}
	.st82{opacity:0.3;fill:#601515;}
	.st83{fill:#5B1010;}
	.st84{clip-path:url(#SVGID_32_);fill:#F1F3F7;}
	.st85{clip-path:url(#SVGID_32_);fill:#F0BA7A;}
	.st86{opacity:0.4;clip-path:url(#SVGID_32_);fill:#DCDDE0;}
	.st87{clip-path:url(#SVGID_32_);fill:#0076B7;}
	.st88{clip-path:url(#SVGID_32_);fill:#FFFFFF;}
	.st89{clip-path:url(#SVGID_32_);}
	.st90{fill:#1F74C9;}
	.st91{fill:#595959;}
	.st92{opacity:0.1;fill:#8BAA77;}
	.st93{opacity:0.3;fill:#8BAA77;}
	.st94{opacity:0.1;fill:#595959;}
	.st95{opacity:0.3;fill:#595959;}
	.st96{fill:#9E921E;}
	.st97{clip-path:url(#SVGID_34_);fill:#F0BA7A;}
	.st98{clip-path:url(#SVGID_34_);fill:#F1F3F7;}
	.st99{clip-path:url(#SVGID_34_);}
	.st100{clip-path:url(#SVGID_34_);fill:#393D47;}
	.st101{clip-path:url(#SVGID_34_);fill:#FFFFFF;}
	.st102{opacity:0.4;clip-path:url(#SVGID_34_);fill:#DCDDE0;}
	.st103{clip-path:url(#SVGID_34_);fill:#0076B7;}
	.st104{fill:#B72C34;}
	.st105{clip-path:url(#SVGID_36_);fill:#F1F3F7;}
	.st106{clip-path:url(#SVGID_36_);}
	.st107{font-family:'ElegantLux-Mager';}
	.st108{font-size:26px;}
	.st109{font-family:'Bungee-Regular';}
	.st110{font-size:22px;}
	.st111{clip-path:url(#SVGID_38_);fill:#F1F3F7;}
	.st112{opacity:0.4;clip-path:url(#SVGID_38_);fill:#DCDDE0;}
	.st113{clip-path:url(#SVGID_38_);fill:#0076B7;}
	.st114{clip-path:url(#SVGID_38_);fill:#FFFFFF;}
	.st115{clip-path:url(#SVGID_38_);}
	.st116{fill:url(#SVGID_39_);}
	.st117{fill:url(#SVGID_40_);}
	.st118{fill:url(#SVGID_41_);}
	.st119{fill:url(#SVGID_42_);}
	.st120{fill:#A52323;}
	.st121{clip-path:url(#SVGID_44_);fill:#F1F3F7;}
	.st122{opacity:0.4;clip-path:url(#SVGID_44_);fill:#DCDDE0;}
	.st123{clip-path:url(#SVGID_44_);fill:#0076B7;}
	.st124{clip-path:url(#SVGID_44_);fill:#FFFFFF;}
	.st125{clip-path:url(#SVGID_44_);}
	.st126{fill:#023142;}
	.st127{clip-path:url(#SVGID_46_);fill:#F7CFA2;}
	.st128{clip-path:url(#SVGID_46_);}
	.st129{opacity:0.3;fill:#E57257;}
	.st130{opacity:0.2;}
	.st131{fill:#656D60;}
	.st132{clip-path:url(#SVGID_48_);fill:#F0BA7A;}
	.st133{clip-path:url(#SVGID_48_);fill:#F1F3F7;}
	.st134{opacity:0.4;clip-path:url(#SVGID_48_);fill:#DCDDE0;}
	.st135{clip-path:url(#SVGID_48_);fill:#0076B7;}
	.st136{clip-path:url(#SVGID_48_);fill:#FFFFFF;}
	.st137{clip-path:url(#SVGID_48_);}
	.st138{clip-path:url(#SVGID_50_);fill:#F1F3F7;}
	.st139{opacity:0.4;clip-path:url(#SVGID_50_);fill:#DCDDE0;}
	.st140{clip-path:url(#SVGID_50_);fill:#0076B7;}
	.st141{clip-path:url(#SVGID_50_);fill:#FFFFFF;}
	.st142{clip-path:url(#SVGID_50_);}
	.st143{clip-path:url(#SVGID_52_);fill:#F1F3F7;}
	.st144{opacity:0.4;clip-path:url(#SVGID_52_);fill:#DCDDE0;}
	.st145{clip-path:url(#SVGID_52_);fill:#0076B7;}
	.st146{clip-path:url(#SVGID_52_);fill:#FFFFFF;}
	.st147{clip-path:url(#SVGID_52_);}
	.st148{fill:#9E9E9E;}
	.st149{fill:#878787;}
	.st150{fill:url(#SVGID_53_);}
	.st151{fill:#CE6117;}
	.st152{fill:url(#SVGID_54_);}
	.st153{fill:#EFE91B;}
	.st154{clip-path:url(#SVGID_56_);fill:#F0BA7A;}
	.st155{clip-path:url(#SVGID_56_);fill:#F1F3F7;}
	.st156{opacity:0.4;clip-path:url(#SVGID_56_);fill:#DCDDE0;}
	.st157{clip-path:url(#SVGID_56_);fill:#0076B7;}
	.st158{clip-path:url(#SVGID_56_);fill:#FFFFFF;}
	.st159{clip-path:url(#SVGID_56_);}
	.st160{fill:#B27E49;}
	.st161{clip-path:url(#SVGID_58_);fill:#F1F3F7;}
	.st162{opacity:0.4;clip-path:url(#SVGID_58_);fill:#DCDDE0;}
	.st163{clip-path:url(#SVGID_58_);fill:#0076B7;}
	.st164{clip-path:url(#SVGID_58_);fill:#FFFFFF;}
	.st165{clip-path:url(#SVGID_58_);}
	.st166{fill:#8454D1;}
	.st167{clip-path:url(#SVGID_60_);fill:#393D47;}
	.st168{clip-path:url(#SVGID_60_);fill:#F0BA7A;}
	.st169{clip-path:url(#SVGID_60_);fill:#F1F3F7;}
	.st170{clip-path:url(#SVGID_60_);fill:#0076B7;}
	.st171{clip-path:url(#SVGID_60_);fill:#004868;}
	.st172{opacity:0.4;clip-path:url(#SVGID_60_);fill:#DCDDE0;}
	.st173{clip-path:url(#SVGID_60_);fill:#FFFFFF;}
	.st174{clip-path:url(#SVGID_60_);}
	.st175{fill:none;stroke:#EA6D50;stroke-width:2;stroke-miterlimit:10;}
	.st176{fill:url(#SVGID_61_);}
	.st177{fill:#777777;}
	.st178{fill:#A85848;}
	.st179{fill:#E85646;}
	.st180{fill:#EA4E39;}
	.st181{clip-path:url(#SVGID_63_);fill:#F1F3F7;}
	.st182{clip-path:url(#SVGID_63_);}
	.st183{fill:#B23C18;}
	.st184{fill:#6B2A05;}
	.st185{fill:#B23C18;stroke:#6B2A05;stroke-miterlimit:10;}
	.st186{fill:#DDAA78;}
	.st187{fill:#211205;}
	.st188{fill:none;stroke:#6B2A05;stroke-width:0.729;stroke-miterlimit:10;}
	.st189{fill:#B23C18;stroke:#6B2A05;stroke-width:0.729;stroke-miterlimit:10;}
	.st190{fill:#BBE8F2;}
	.st191{opacity:0.3;fill:#F2F8F9;}
	.st192{opacity:0.2;fill:#601515;}
	.st193{fill:#FFFF00;}
	.st194{fill:#594EEA;}
	.st195{fill:#FF0B0B;}
	.st196{fill:none;stroke:#3FBA51;stroke-width:8;stroke-miterlimit:10;}
	.st197{fill:none;stroke:#3FBA51;stroke-width:7.2;stroke-miterlimit:10;}
	.st198{fill:none;stroke:#3FBA51;stroke-width:7.2;stroke-linecap:round;stroke-miterlimit:10;}
	.st199{fill:none;stroke:#3FBA51;stroke-width:8;stroke-linecap:round;stroke-miterlimit:10;}
	.st200{fill:none;stroke:#3FBA51;stroke-width:5.1175;stroke-miterlimit:10;}
	.st201{fill:#4F5565;}
	.st202{fill:#D64E3C;}
	.st203{fill:#F7A500;}
	.st204{fill:#FBD303;}
	.st205{fill:#FCFCFD;}
	.st206{fill:#F8B517;}
	.st207{fill:#F0582F;}
	.st208{fill:#BAE8F2;}
	.st209{fill:#F7EA72;}
	.st210{clip-path:url(#SVGID_65_);fill:#F7EFDF;}
	.st211{fill:none;stroke:#3FBA51;stroke-width:6.4304;stroke-miterlimit:10;}
	.st212{fill:url(#SVGID_66_);}
	.st213{fill:url(#SVGID_67_);}
	.st214{fill:url(#SVGID_68_);}
	.st215{fill:url(#SVGID_69_);}
	.st216{fill:url(#SVGID_70_);}
	.st217{fill:url(#SVGID_71_);}
	.st218{fill:url(#SVGID_72_);}
	.st219{fill:url(#SVGID_73_);}
	.st220{fill:url(#SVGID_74_);}
	.st221{fill:url(#SVGID_75_);}
	.st222{fill:url(#SVGID_76_);}
	.st223{fill:url(#SVGID_77_);}
	.st224{fill:url(#SVGID_78_);}
	.st225{fill:url(#SVGID_79_);}
	.st226{fill:url(#SVGID_80_);}
	.st227{fill:url(#SVGID_81_);}
	.st228{fill:url(#SVGID_82_);}
	.st229{fill:url(#SVGID_83_);}
	.st230{fill:url(#SVGID_84_);}
	.st231{fill:url(#SVGID_85_);}
	.st232{fill:url(#SVGID_86_);}
	.st233{fill:url(#SVGID_87_);}
	.st234{fill:url(#SVGID_88_);}
	.st235{fill:url(#SVGID_89_);}
	.st236{fill:url(#SVGID_90_);}
	.st237{fill:url(#SVGID_91_);}
	.st238{fill:url(#SVGID_92_);}
	.st239{fill:url(#SVGID_93_);}
	.st240{fill:url(#SVGID_94_);}
	.st241{fill:url(#SVGID_95_);}
	.st242{fill:url(#SVGID_96_);}
	.st243{fill:url(#SVGID_97_);}
	.st244{fill:url(#SVGID_98_);}
	.st245{fill:url(#SVGID_99_);}
	.st246{fill:url(#SVGID_100_);}
	.st247{fill:url(#SVGID_101_);}
	.st248{opacity:0.7;fill:#7BCDDB;}
	.st249{fill:none;stroke:#F0BA7A;stroke-width:3;stroke-miterlimit:10;}
	.st250{fill:url(#SVGID_102_);}
	.st251{fill:url(#SVGID_103_);}
	.st252{fill:url(#SVGID_104_);}
	.st253{fill:url(#SVGID_105_);}
	.st254{fill:url(#SVGID_106_);}
	.st255{fill:url(#SVGID_107_);}
	.st256{fill:url(#SVGID_108_);}
	.st257{opacity:0.5;fill:#302929;}
	.st258{fill:#EF3F50;}
	.st259{fill:url(#SVGID_109_);}
	.st260{fill:url(#SVGID_110_);}
	.st261{fill:url(#SVGID_111_);}
	.st262{fill:url(#SVGID_112_);}
	.st263{opacity:0.6;fill:#302929;}
	.st264{fill:url(#SVGID_113_);}
	.st265{fill:url(#SVGID_114_);}
	.st266{fill:url(#SVGID_115_);}
	.st267{fill:url(#SVGID_116_);}
	.st268{fill:url(#SVGID_117_);}
	.st269{fill:url(#SVGID_118_);}
	.st270{fill:url(#SVGID_119_);}
	.st271{fill:url(#SVGID_120_);}
	.st272{fill:url(#SVGID_121_);}
	.st273{fill:url(#SVGID_122_);}
	.st274{fill:url(#SVGID_123_);}
	.st275{fill:url(#SVGID_124_);}
	.st276{fill:url(#SVGID_125_);}
	.st277{fill:url(#SVGID_126_);}
	.st278{fill:url(#SVGID_127_);}
	.st279{fill:url(#SVGID_128_);}
	.st280{fill:url(#SVGID_129_);}
	.st281{fill:url(#SVGID_130_);}
	.st282{fill:url(#SVGID_131_);}
	.st283{fill:url(#SVGID_132_);}
	.st284{fill:url(#SVGID_133_);}
	.st285{fill:url(#SVGID_134_);}
	.st286{fill:url(#SVGID_135_);}
	.st287{fill:url(#SVGID_136_);}
	.st288{fill:url(#SVGID_137_);}
	.st289{fill:url(#SVGID_138_);}
	.st290{fill:url(#SVGID_139_);}
	.st291{fill:url(#SVGID_140_);}
	.st292{fill:url(#SVGID_141_);}
	.st293{fill:url(#SVGID_142_);}
	.st294{fill:url(#SVGID_143_);}
	.st295{fill:url(#SVGID_144_);}
	.st296{fill:url(#SVGID_145_);}
	.st297{fill:url(#SVGID_146_);}
	.st298{fill:url(#SVGID_147_);}
	.st299{fill:url(#SVGID_148_);}
	.st300{fill:url(#SVGID_149_);}
	.st301{fill:url(#SVGID_150_);}
	.st302{fill:url(#SVGID_151_);}
	.st303{fill:url(#SVGID_152_);}
	.st304{fill:url(#SVGID_153_);}
	.st305{fill:url(#SVGID_154_);}
	.st306{fill:url(#SVGID_155_);}
	.st307{fill:url(#SVGID_156_);}
	.st308{fill:url(#SVGID_157_);}
	.st309{fill:url(#SVGID_158_);}
	.st310{fill:url(#SVGID_159_);}
	.st311{fill:url(#SVGID_160_);}
	.st312{fill:url(#SVGID_161_);}
	.st313{fill:url(#SVGID_162_);}
	.st314{fill:url(#SVGID_163_);}
	.st315{fill:url(#SVGID_164_);}
	.st316{fill:url(#SVGID_165_);}
	.st317{fill:url(#SVGID_166_);}
	.st318{fill:url(#SVGID_167_);}
	.st319{fill:url(#SVGID_168_);}
	.st320{fill:url(#SVGID_169_);}
	.st321{fill:url(#SVGID_170_);}
	.st322{fill:url(#SVGID_171_);}
	.st323{fill:url(#SVGID_172_);}
	.st324{fill:url(#SVGID_173_);}
	.st325{fill:url(#SVGID_174_);}
	.st326{fill:url(#SVGID_175_);}
	.st327{fill:url(#SVGID_176_);}
	.st328{fill:url(#SVGID_177_);}
	.st329{fill:url(#SVGID_178_);}
	.st330{fill:url(#SVGID_179_);}
	.st331{fill:url(#SVGID_180_);}
	.st332{fill:url(#SVGID_181_);}
	.st333{fill:url(#SVGID_182_);}
	.st334{fill:url(#SVGID_183_);}
	.st335{fill:url(#SVGID_184_);}
	.st336{fill:url(#SVGID_185_);}
	.st337{fill:url(#SVGID_186_);}
	.st338{fill:url(#SVGID_187_);}
	.st339{fill:url(#SVGID_188_);}
	.st340{fill:url(#SVGID_189_);}
	.st341{fill:url(#SVGID_190_);}
	.st342{fill:url(#SVGID_191_);}
	.st343{fill:url(#SVGID_192_);}
	.st344{fill:url(#SVGID_193_);}
	.st345{fill:url(#SVGID_194_);}
	.st346{fill:url(#SVGID_195_);}
	.st347{fill:url(#SVGID_196_);}
	.st348{fill:url(#SVGID_197_);}
	.st349{fill:url(#SVGID_198_);}
	.st350{fill:url(#SVGID_199_);}
	.st351{fill:url(#SVGID_200_);}
	.st352{fill:url(#SVGID_201_);}
	.st353{fill:url(#SVGID_202_);}
	.st354{fill:url(#SVGID_203_);}
	.st355{fill:url(#SVGID_204_);}
	.st356{fill:url(#SVGID_205_);}
	.st357{fill:url(#SVGID_206_);}
	.st358{fill:url(#SVGID_207_);}
	.st359{fill:url(#SVGID_208_);}
	.st360{fill:url(#SVGID_209_);}
	.st361{fill:url(#SVGID_210_);}
	.st362{fill:url(#SVGID_211_);}
	.st363{fill:url(#SVGID_212_);}
	.st364{fill:url(#SVGID_213_);}
	.st365{fill:url(#SVGID_214_);}
	.st366{fill:url(#SVGID_215_);}
	.st367{fill:url(#SVGID_216_);}
	.st368{fill:url(#SVGID_217_);}
	.st369{fill:url(#SVGID_218_);}
	.st370{fill:url(#SVGID_219_);}
	.st371{fill:url(#SVGID_220_);}
	.st372{fill:url(#SVGID_221_);}
	.st373{fill:url(#SVGID_222_);}
	.st374{fill:url(#SVGID_223_);}
	.st375{fill:url(#SVGID_224_);}
	.st376{fill:url(#SVGID_225_);}
	.st377{fill:url(#SVGID_226_);}
	.st378{fill:url(#SVGID_227_);}
	.st379{fill:url(#SVGID_228_);}
	.st380{fill:url(#SVGID_229_);}
	.st381{fill:url(#SVGID_230_);}
	.st382{fill:url(#SVGID_231_);}
	.st383{fill:url(#SVGID_232_);}
	.st384{fill:url(#SVGID_233_);}
	.st385{fill:url(#SVGID_234_);}
	.st386{fill:url(#SVGID_235_);}
	.st387{fill:url(#SVGID_236_);}
	.st388{fill:url(#SVGID_237_);}
	.st389{fill:url(#SVGID_238_);}
	.st390{fill:url(#SVGID_239_);}
	.st391{fill:none;stroke:#9B9B97;stroke-miterlimit:10;}
	.st392{fill:url(#SVGID_240_);}
	.st393{fill:url(#SVGID_241_);}
	.st394{fill:url(#SVGID_242_);}
	.st395{fill:url(#SVGID_243_);}
	.st396{fill:url(#SVGID_244_);}
	.st397{fill:url(#SVGID_245_);}
	.st398{fill:url(#SVGID_246_);}
	.st399{fill:url(#SVGID_247_);}
	.st400{fill:url(#SVGID_248_);}
	.st401{fill:url(#SVGID_249_);}
	.st402{fill:url(#SVGID_250_);}
	.st403{fill:url(#SVGID_251_);}
	.st404{fill:url(#SVGID_252_);}
	.st405{fill:url(#SVGID_253_);}
	.st406{fill:url(#SVGID_254_);}
	.st407{fill:url(#SVGID_255_);}
	.st408{fill:url(#SVGID_256_);}
	.st409{fill:url(#SVGID_257_);}
	.st410{fill:url(#SVGID_258_);}
	.st411{fill:url(#SVGID_259_);}
	.st412{fill:url(#SVGID_260_);}
	.st413{fill:url(#SVGID_261_);}
	.st414{fill:url(#SVGID_262_);}
	.st415{fill:url(#SVGID_263_);}
	.st416{fill:url(#SVGID_264_);}
	.st417{fill:url(#SVGID_265_);}
	.st418{fill:url(#SVGID_266_);}
	.st419{fill:url(#SVGID_267_);}
	.st420{fill:url(#SVGID_268_);}
	.st421{fill:url(#SVGID_269_);}
	.st422{fill:url(#SVGID_270_);}
	.st423{fill:url(#SVGID_271_);}
	.st424{fill:url(#SVGID_272_);}
	.st425{fill:url(#SVGID_273_);}
	.st426{fill:url(#SVGID_274_);}
	.st427{fill:url(#SVGID_275_);}
	.st428{fill:url(#SVGID_276_);}
	.st429{fill:url(#SVGID_277_);}
	.st430{fill:url(#SVGID_278_);}
	.st431{fill:url(#SVGID_279_);}
	.st432{fill:url(#SVGID_280_);}
	.st433{fill:url(#SVGID_281_);}
	.st434{fill:url(#SVGID_282_);}
	.st435{fill:url(#SVGID_283_);}
	.st436{fill:url(#SVGID_284_);}
	.st437{fill:url(#SVGID_285_);}
	.st438{fill:url(#SVGID_286_);}
	.st439{fill:url(#SVGID_287_);}
	.st440{fill:url(#SVGID_288_);}
	.st441{fill:url(#SVGID_289_);}
	.st442{fill:url(#SVGID_290_);}
	.st443{fill:url(#SVGID_291_);}
	.st444{fill:url(#SVGID_292_);}
	.st445{fill:url(#SVGID_293_);}
	.st446{fill:url(#SVGID_294_);}
	.st447{fill:url(#SVGID_295_);}
	.st448{fill:url(#SVGID_296_);}
	.st449{fill:url(#SVGID_297_);}
	.st450{fill:url(#SVGID_298_);}
	.st451{fill:url(#SVGID_299_);}
	.st452{fill:url(#SVGID_300_);}
	.st453{fill:url(#SVGID_301_);}
	.st454{fill:url(#SVGID_302_);}
	.st455{fill:url(#SVGID_303_);}
	.st456{fill:url(#SVGID_304_);}
	.st457{fill:url(#SVGID_305_);}
	.st458{fill:url(#SVGID_306_);}
	.st459{fill:url(#SVGID_307_);}
	.st460{fill:url(#SVGID_308_);}
	.st461{fill:url(#SVGID_309_);}
	.st462{fill:url(#SVGID_310_);}
	.st463{fill:url(#SVGID_311_);}
	.st464{fill:url(#SVGID_312_);}
	.st465{fill:url(#SVGID_313_);}
	.st466{fill:url(#SVGID_314_);}
	.st467{fill:url(#SVGID_315_);}
	.st468{fill:url(#SVGID_316_);}
	.st469{fill:url(#SVGID_317_);}
	.st470{fill:url(#SVGID_318_);}
	.st471{fill:url(#SVGID_319_);}
	.st472{fill:url(#SVGID_320_);}
	.st473{fill:url(#SVGID_321_);}
	.st474{fill:url(#SVGID_322_);}
	.st475{fill:url(#SVGID_323_);}
	.st476{fill:url(#SVGID_324_);}
	.st477{fill:url(#SVGID_325_);}
	.st478{fill:url(#SVGID_326_);}
	.st479{fill:url(#SVGID_327_);}
	.st480{fill:url(#SVGID_328_);}
	.st481{fill:url(#SVGID_329_);}
	.st482{fill:url(#SVGID_330_);}
	.st483{fill:url(#SVGID_331_);}
	.st484{fill:url(#SVGID_332_);}
	.st485{fill:url(#SVGID_333_);}
	.st486{fill:url(#SVGID_334_);}
	.st487{fill:url(#SVGID_335_);}
	.st488{fill:url(#SVGID_336_);}
	.st489{fill:url(#SVGID_337_);}
	.st490{fill:url(#SVGID_338_);}
	.st491{fill:url(#SVGID_339_);}
	.st492{fill:url(#SVGID_340_);}
	.st493{fill:url(#SVGID_341_);}
	.st494{fill:url(#SVGID_342_);}
	.st495{fill:url(#SVGID_343_);}
	.st496{fill:url(#SVGID_344_);}
	.st497{fill:url(#SVGID_345_);}
	.st498{fill:url(#SVGID_346_);}
	.st499{fill:url(#SVGID_347_);}
	.st500{fill:url(#SVGID_348_);}
	.st501{fill:url(#SVGID_349_);}
	.st502{fill:url(#SVGID_350_);}
	.st503{fill:url(#SVGID_351_);}
	.st504{fill:url(#SVGID_352_);}
	.st505{fill:url(#SVGID_353_);}
	.st506{fill:url(#SVGID_354_);}
	.st507{fill:url(#SVGID_355_);}
	.st508{fill:url(#SVGID_356_);}
	.st509{fill:url(#SVGID_357_);}
	.st510{fill:url(#SVGID_358_);}
	.st511{fill:url(#SVGID_359_);}
	.st512{fill:url(#SVGID_360_);}
	.st513{fill:url(#SVGID_361_);}
	.st514{fill:url(#SVGID_362_);}
	.st515{fill:url(#SVGID_363_);}
	.st516{fill:url(#SVGID_364_);}
	.st517{fill:url(#SVGID_365_);}
	.st518{fill:url(#SVGID_366_);}
	.st519{fill:url(#SVGID_367_);}
	.st520{fill:url(#SVGID_368_);}
	.st521{fill:url(#SVGID_369_);}
	.st522{fill:url(#SVGID_370_);}
	.st523{fill:url(#SVGID_371_);}
	.st524{fill:url(#SVGID_372_);}
	.st525{fill:url(#SVGID_373_);}
	.st526{fill:url(#SVGID_374_);}
	.st527{fill:url(#SVGID_375_);}
	.st528{fill:url(#SVGID_376_);}
	.st529{fill:url(#SVGID_377_);}
	.st530{clip-path:url(#SVGID_379_);}
	.st531{clip-path:url(#SVGID_381_);}
	.st532{fill:#F4F0A6;}
	.st533{clip-path:url(#SVGID_383_);}
	.st534{opacity:0.6;fill:none;stroke:#F7CFA2;stroke-miterlimit:10;}
	.st535{fill:none;stroke:#F7CFA2;stroke-miterlimit:10;}
	.st536{fill:#EAA56C;}
	.st537{clip-path:url(#SVGID_385_);fill:#F7EFDF;}
</style>
<symbol  id="barras" viewBox="-216.8 -86.2 433.6 172.4">
	<g>
		<rect x="113.2" y="-86.2" class="st22" width="103.6" height="30.9"/>
		<text transform="matrix(1 0 0 -1 126.502 -65.4814)" class="st0 st107" style="font-size:15.36px;">Casi Siempre</text>
	</g>
	<rect x="-105.9" y="-35" class="st1" width="87" height="28.2"/>
	<rect x="-215.8" y="-35.3" class="st1" width="87" height="8.8"/>
	<rect x="7.8" y="-35" class="st1" width="87" height="61.7"/>
	<rect x="121.5" y="-35" class="st1" width="87" height="120.1"/>
	<g>
		<rect x="-101.5" y="-73.4" class="st22" width="78" height="18.1"/>
		<text transform="matrix(1 0 0 -1 -95.3037 -65.4814)" class="st0 st107" style="font-size:15.36px;">Casi nunca</text>
	</g>
	<rect x="-105.9" y="-35" class="st2" width="87" height="28.2"/>
	<g>
		<rect x="-192.1" y="-86.2" class="st22" width="39.6" height="30.9"/>
		<text transform="matrix(1 0 0 -1 -191.6748 -65.4814)" class="st0 st107" style="font-size:15.36px;">Nunca</text>
	</g>
	<rect x="-215.8" y="-35.3" class="st2" width="87" height="8.8"/>
	<g>
		<rect x="-3.7" y="-86.2" class="st22" width="110" height="30.9"/>
		<text transform="matrix(1 0 0 -1 9.9785 -65.4795)" class="st0 st107" style="font-size:15.36px;">Algunas veces</text>
	</g>
	<rect x="7.8" y="-35" class="st2" width="87" height="61.7"/>
	<rect x="121.5" y="-35" class="st2" width="87" height="120.1"/>
</symbol>
<g id="Layer_1">
	<path class="st13" d="M763.5,61.3c4.6-4.2,9.3-8.2,14.3-11.5c9-6.1,20.3-9.5,28.8-0.6c14.1,14.6-5.7,36-16.7,45.8
		c-10,8.8-52,41.4-60,14.2c-1.6-5.4,2.3-11.7,4.1-16.1c2.2-5.2,10.9-5.7,11.8-7C750.2,79.4,757.5,66.8,763.5,61.3z"/>
	<g>
		<path class="st14" d="M739.2,110.3c0.2,0,0.4-0.1,0.7-0.1C739.7,110.2,739.4,110.3,739.2,110.3z"/>
	</g>
	<path class="st21" d="M734.1,99.2H621.9c-3.2,0-5.8-2.6-5.8-5.8V65.6c0-3.2,2.6-5.8,5.8-5.8h112.3c3.2,0,5.8,2.6,5.8,5.8v27.7
		C740,96.5,737.3,99.2,734.1,99.2z"/>
	<rect x="637.8" y="70" class="st22" width="81.9" height="28.3"/>
	<text transform="matrix(1 0 0 1 656.7838 87.3295)" class="st13 st107 st108">Listo</text>
	<rect x="32.2" y="72.9" class="st22" width="391.9" height="48.3"/>
	<text transform="matrix(1 0 0 1 32.1862 90.2035)" class="st0 st107 st108">Instrucciones</text>
	<rect x="32.2" y="72.9" class="st22" width="391.9" height="48.3"/>
	<text transform="matrix(1 0 0 1 32.1862 90.2035)" class="st0 st107 st108">Instrucciones</text>
	<rect x="34.9" y="28.9" class="st22" width="391.9" height="48.3"/>
	<text transform="matrix(1 0 0 1 34.8917 47.6332)" class="st0 st109 st108">HOla, Kaira POlet ARAYA</text>
	<polyline class="st22" points="684.1,16.9 681.7,65.2 292.2,65.2 	"/>
	<rect x="31.4" y="116.4" class="st22" width="571.9" height="88.3"/>
	<text transform="matrix(1 0 0 1 31.4305 131.0448)" class="st0 st107 st110">He comenzado discusiones o conflictos</text>
	<circle class="st166" cx="686.2" cy="364.8" r="99.7"/>
	<g>
		<defs>
			<path id="SVGID_59_" d="M785.7,357.6c4.1,54.9-37.1,102.8-92,106.9c-51.4,3.9-96.6-31.9-105.6-81.5c-0.6-3.4-22.2-13.7-22.4-17.3
				c-2.7-36.3-17.8-102.4,11.8-140.8c15.1-19.7,64.7-22.5,109-22.9C741.6,201.4,781.6,302.7,785.7,357.6z"/>
		</defs>
		<clipPath id="SVGID_2_">
			<use xlink:href="#SVGID_59_"  style="overflow:visible;"/>
		</clipPath>
		<path style="clip-path:url(#SVGID_2_);fill:#393D47;" d="M631.2,236c17.6-1.3,34.2,4.1,47.2,14.1c1.4,1.1,2.8,2.3,4.1,3.7
			c2.1,2.5,4,5.2,5.6,8.2c1.5,3.3,2.9,6.8,4,10.5c6,13.8,4,29.8-0.1,43.6c-0.9,3.7-1.9,7.4-3,11.1c-4.4,14.8-10.3,29.4-16.4,43.7
			c-10.2-2.2-17.9-7.3-31.6,1.5c-14.9,9.6-34.7-3.4-49.1,7.1c-0.3-2.1-22.9-50.7-24.3-69.4C564.7,272,593.2,238.9,631.2,236z"/>
		<path style="clip-path:url(#SVGID_2_);fill:#F0BA7A;" d="M643.5,369.9l-6,1.2c-5,1-9.8-2.3-10.8-7.2l-2.8-14
			c-1-5,2.3-9.8,7.2-10.8l6-1.2c5-1,9.8,2.3,10.8,7.2l2.8,14C651.7,364,648.4,368.9,643.5,369.9z"/>
		<path class="st8" d="M619.7,368.8c1.5-0.6,3-1.1,4.5-1.5c1.2-0.5,2.5-1,3.7-1.5c1.3-0.7,2.6-1.2,3.9-1.5c1.6-0.2,3.3-0.3,5.1-0.4
			c13.3,0.3,29.3,3.3,35.3,16.3c4,11-5,21-9.7,30.4c-0.6,1.6-1.2,3.3-1.5,5c0.1,1.8,0.1,3.6,0.2,5.4s0.2,3.6,0.4,5.5
			c-9.6,4-19,8.6-27.5,14.4c-0.6-0.5-1.3-1.1-2-1.6c-1.1-1.2-2.1-2.5-3.1-3.7c-6.2-7.5-11.5-15.5-15.7-24.5c-0.7-1-1.4-2.1-2-3.3
			c-1.9-3.4-3.4-7.2-5-10.9c-0.7-1.5-1.3-3.1-1.8-4.7C600.3,380.8,609.4,372.8,619.7,368.8z"/>
		<path class="st10" d="M665.3,439.7l-6.5,13l-11.4-8.8c0,0-0.2-3.2-0.5-8.2c-0.1-1.7-0.2-3.5-0.3-5.5c-0.7-5.4-0.2-10.7,0.5-15.9
			c0.3-1.8,0.5-3.5,0.8-5.3c1.3-10.7,1.3-21.7-3.7-31.7c0-1,3.5-2.5,4.5-2.5c5.3,4.9,9.5,11.5,10.5,18.5c0,6,2,11,0.4,16.6
			c-0.1,1.4-0.1,2.8-0.1,4.2c0,4.2,0.6,8.4,2.3,12.7c0.5,1.9,1,3.6,1.4,5.2C664.5,436.6,665.3,439.7,665.3,439.7z"/>
		<path class="st10" d="M648.8,367.4c-1.6-1.2-3.6-3.2-5.6-3.2c-2.8,2.2-4.8,8.4-4.8,8.4s4.5,2.8,5.8,4.6c2-2,4.6-2.3,4.6-2.3
			L648.8,367.4z"/>
		<path style="clip-path:url(#SVGID_2_);fill:#004868;" d="M617.4,394.4c1.2-0.8,2.5-1.5,3.6-2.4c2.3-2,3.4-5,4-7.9
			c0.8-3.9,1.7-8.5,0.7-12.5c-0.2-1-0.6-2-0.4-3c0.3-1.9,8.2-3.8,8.3-3.5c0.6,2.1,1.4,4.2,2.4,6.2c0.5,1,1,2,1.6,2.9
			c2.6,3.9,5.6,8.9,11.9,10.3c1.4,0.3,2.8,0.5,4.2,0.5c1.4,0.1,2.9,0.1,4.4,0.1c0.9,1.7,11,8.6,11.1,10.5c0.5,29.5,1.5,55.5,5.5,85
			c-6.7,2-23.6-3.3-30.6-1.4c-1.4,0.4-2.8,0.7-4.3,1.1c-0.3-1.7-0.6-3.4-0.9-5c-0.7-2.1-0.7-4.1-0.7-4.1
			c-7.5-4.1-25.5,16.2-27.6,9.5c-0.4-1.4-0.8-2.7-1.1-4.2c0.1-6.4,7.9-43.5,5.6-49.3c-2.8-7-2.5-9.8-3.4-17.4
			c-0.7-5.4,0.1-11.2,4.7-14.7C616.7,394.8,617.1,394.6,617.4,394.4z"/>
		<path style="clip-path:url(#SVGID_2_);fill:#F0BA7A;" d="M741,380.7l-3.5-1.6c-5.1-2.4-7.3-8.6-4.9-13.7l10.3-21.7
			c2.4-5.1,8.6-7.3,13.7-4.9l3.5,1.6c5.1,2.4,7.3,8.6,4.9,13.7l-10.3,21.7C752.3,380.9,746.1,383.1,741,380.7z"/>
		<path class="st8" d="M777.1,385.1c3.8-17.3-18.3-23.3-32.7-19.3c-3.2,0.5-6.1,1-8.8,1.4c-3,0.4-6.9,1.3-10.5,2.5
			c-3.6,1.1-7,2.5-9,4c-4.9,3.6-4.4,8.2-4.6,14.7l-2.3,54c-0.2,3.6-0.7,26.3,0.5,29.4c21.5,2.4,46.8-16.2,73.3-14.3
			c1.3-2,2.4-4.3,3-6.6s1-4.8,1-7.4c0.4-18.7-7-36.5-9.4-53.9C777.3,386.8,777.1,385.1,777.1,385.1z"/>
		<path class="st8" d="M765.4,367.6l-2.8,0.8c-4.7,1.1-5.4,9.7-1.5,19.4l6.7,20.5l7.2,25.8c2.5,6.4,4,11.7,7.3,14.6
			c2.8,2.4,7.3,3.3,9.9,3.1l8.6-0.7c2.2-0.2,5.7-1.4,6.7-3.4c1.6-3.3-0.7-8.7-4.1-16.4c0,0-14.6-36-11.4-27.4
			c3.3,8.9-5.5-13.9-10.8-24.9C775.9,368.7,770.2,366.5,765.4,367.6z"/>
		<polygon class="st9" points="745.7,386.7 746,365.7 755.9,368.9 		"/>
		<polygon class="st9" points="745.7,386.7 746,365.7 736.3,370.8 		"/>
		<polygon class="st10" points="753.4,369.2 746.7,365.3 740,368.6 742.6,374.3 747.6,374.9 		"/>
		<polygon class="st10" points="759.9,422.5 752,432.5 741.3,425.2 742.9,375.7 747.8,374.8 		"/>
		<polygon class="st11" points="747,364.7 746.9,365 755.3,374.1 761.7,366.6 760.4,362.9 		"/>
		<polygon class="st11" points="747,364.6 746.9,365 734.4,371.4 731.7,363.1 734.5,360 		"/>
		<g class="st12">
			<polygon class="st13" points="763.7,398.9 771.7,398.3 775.8,392.2 773.1,384 760,387.3 			"/>
			<polygon class="st13" points="771.9,380.5 758.5,382.5 759.6,386 772.8,383.1 			"/>
		</g>
		<path class="st11" d="M643.5,363.5l0.1,0.5c0,0-4.6,13-11.9,10.5c-7.4-2.6-7.5-7.8-7.5-7.8l2-5.1L643.5,363.5z"/>
		<path style="clip-path:url(#SVGID_2_);fill:#004868;" d="M655.5,366.6c0,0,6.5,7.2,5,12.7s-3.8,7.2-3.8,7.2l-15.5,6.8l-0.2,26.5
			l28-13.2c0,0,1.2-8.7,0.2-20.3s-7-16.7-7-16.7L655.5,366.6z"/>
	</g>
	<path class="st13" d="M647.9,364.3c1,2.4,1.9,5.4,2.7,7.4c0.8,1,2.2,2.1,2.9,1.2c2-2.8,2.4-9.7-0.6-12.9c-0.7,0-2.1,0.9-2.5,2.2
		C649.1,363.3,647.9,364.3,647.9,364.3z"/>
	<path class="st14" d="M679.8,296.9c-1.7-22-21.7-38.5-44.7-36.7c-19.2,1.4-31.5,13.7-34.1,30.5c-0.3,1.7-0.4,3.4-0.4,5.2
		c1.8,5.8,2.3,12.1,2.7,18.5c0.1,1.6,0.2,3.2,0.3,4.8c-1,8.6,0.9,16,4.7,22.1c1,1.5,2,3,3.2,4.4c1.9,2.3,4,4.5,6.4,6.4
		c1.2,1,2.4,1.9,3.6,2.7c11.6,9.5,26.6,10.5,41.1,9.4c1.7,0,3.4-0.1,5.1-0.4c11.5-1.3,23.3-8.1,26.4-19.6c1-3,1-7,0-10
		c-2-7-7-13-10.3-19.4c-0.7-1.5-1.5-3-2.3-4.4c-0.4-1.4-0.7-2.9-0.9-4.4c-0.2-1.5-0.3-3-0.3-4.6C680,299.5,679.9,297.9,679.8,296.9z
		"/>
	<path class="st66" d="M688.3,325.6L688.3,325.6c-2.6,1.5-6.1,0.6-7.6-2c0,0-0.3-0.5-0.7-1.3c-0.4-0.9-0.8-1.8-1.3-2.7
		c-3.5-8.4-18.4-21.6-9-24c8.4-2.6,11.3,14.7,19.9,21.2c0.5,0.8,0.8,1.3,0.8,1.3C691.9,320.7,690.9,324.1,688.3,325.6z"/>
	<path class="st14" d="M685.7,323.3L685.7,323.3c-1.3,0.8-2.8,0.9-4.2,0.5s-2.6-1.3-3.4-2.6c-0.6-1.1-1.3-2.2-2-3.2
		c-4.8-7.1-17.3-23.7-8.1-25.1c9.2-1.3,9.7,16.6,19.6,22.8c0.9,1.3,1,2.8,0.7,4.2C687.9,321.3,687,322.6,685.7,323.3z"/>
	<path class="st16" d="M640.3,272.2c0.6-0.5,0.6-1.3,0.2-1.8c0,0,0,0,0,0c-12.2-13.6-33-14.7-46.6-2.5c-9.4,8.4-12.8,20.9-10,32.4
		c0.2,0.7,1,1.2,1.7,0.9C605,293.8,624.2,285,640.3,272.2z"/>
	<path class="st16" d="M673.2,268.9c0.7-0.1,1.2-0.9,1-1.6c0,0,0,0,0,0c-4.7-17.6-22.7-28.1-40.3-23.4
		c-12.2,3.2-20.9,12.8-23.6,24.2c-0.2,0.7,0.3,1.5,1.1,1.6C632,272,653.1,272.9,673.2,268.9z"/>
	<g>
		<path class="st72" d="M674.8,308.6c0.8,8.9-1.8,16.3-9,16.9c-7.2,0.5-12.4-6.3-13.2-15.2c-0.8-8.9,3.1-16.4,10.4-17
			C670.2,292.8,674.1,299.7,674.8,308.6z"/>
		<path class="st13" d="M675.2,309.3c0.7,7.7-3.9,14.4-10.1,14.8s-11.9-5.4-12.6-13.1c-0.7-7.7,3.9-14.4,10.1-14.8
			S674.5,301.6,675.2,309.3z"/>
		<path class="st0" d="M675.3,309.3c0.3,3.7-1.8,6.9-4.9,7.1c-3,0.2-5.7-2.6-6-6.3c-0.3-3.7,1.8-6.9,4.9-7.1S675,305.6,675.3,309.3z
			"/>
		<path d="M671.9,309.6c0.1,1.4-0.7,2.7-1.9,2.7c-1.2,0.1-2.2-1-2.3-2.4s0.7-2.7,1.9-2.7C670.8,307.1,671.8,308.1,671.9,309.6z"/>
		<path class="st73" d="M669.8,306.7c0.1,1.1-0.5,2-1.4,2s-1.6-0.7-1.7-1.8c-0.1-1.1,0.5-2,1.4-2S669.7,305.6,669.8,306.7z"/>
		<path class="st14" d="M674.6,306c-1.8-6-6.6-10.2-12-9.8c-5.3,0.4-9.4,5.3-10.1,11.5C659.8,307.1,667,306.1,674.6,306z"/>
	</g>
	<path class="st16" d="M630.9,264.6l1.5,19.9l37-2.8l0.3-15l3.4,14.7c0,0,5.6,0.5,9.7,0.1c3.5-0.3,12.1,5.5,12.1,5.5l-11.1-30.3
		l-40.6-5.5L630.9,264.6z"/>
	<g class="st52">
		<g>
			<path class="st14" d="M607.3,249.6c8.5-3.2,16.6-6,25.7-6.8c1.5-0.1,2.3-2,0.3-1.8c-9.8,0.8-18.1,3.8-27.3,7.2
				C604.2,248.9,605.9,250.1,607.3,249.6L607.3,249.6z"/>
		</g>
	</g>
	<path class="st16" d="M646.6,283.6c0,0-5.8,0.2-12.3,3.1c-5.7,2.5-6,5.1-9.7,13.5c-3.5,8.1-2.3,20.3,2.3,31.3
		c5.8,13.8,15,28.7,15,28.7l-37.5,11.5c0,0-11.8-83.3-12.3-86c-0.5-2.7,40.4-27.2,40.4-27.2l15.5,4.8L646.6,283.6z"/>
	<path class="st14" d="M628.8,295.3c6.3,0.5,11.3,5.4,12.6,11.8c-9.1,0-18.3-0.2-27.2-0.8C616.1,299.5,622.1,294.8,628.8,295.3z"/>
	<path class="st16" d="M669.1,300.1l-17.6-6c-2.6-0.9-4.1-3.8-3.2-6.5l0.2-0.5c0.9-2.6,3.8-4.1,6.5-3.2l17.6,6
		c2.6,0.9,4.1,3.8,3.2,6.5l-0.2,0.5C674.6,299.6,671.7,301,669.1,300.1z"/>
	<path class="st16" d="M584,346.2c6.2-18.2-2-66.9-2-67.3c8.5-2.1,46.5-2.2,51.8-0.4c-8.7,14.8-15.1,48.9-21.6,64.6
		C607.9,343.7,588.2,346,584,346.2z"/>
	<path class="st175" d="M664.7,348.3c6.8-1.7,11.5-3.7,18.5-4.4c3.9-0.4,7.6-1,11.4,0.3c1.2,0.4,0.2,0.4,0.2,0.3"/>
	<g>
		<path class="st0" d="M787.6,251.6c0,0-5.1,1-7.6,2c-3.5,1.3-10,0.1-10,0.1s6.1-5.3,9.4-5.5C782.8,248,787.6,251.6,787.6,251.6z"/>
		<g>
			<path class="st14" d="M740.3,262c-4.5,16.4-10,32-16.8,47.1c-1.3,2.4-2.6,4.9-3.8,7.3c-1.2,2.4-2.4,4.9-3.6,7.4
				c-0.4,2.4-0.5,4.7,0,7.1c0.5,2.4,1.4,4.7,3,7.1c10.3,18.8,30.5-6.2,48-5.3c2.5,0.6,4.9,1.6,7.1,3c2.5,0.6,5,0.7,7.5,0.6
				c12.5-0.7,24.9-9.7,30-22c5.2-13.3,10.8-25.3,10.7-39.7c0.5-4.4-3.4-9.4-6.5-13.1c-2.3-2.2-4.9-4.2-7.6-6.1
				c-2.8-1.8-5.7-3.4-8.6-4.7c-2.9-1.3-6-2.2-9-2.9c-2.5-0.3-5.2-0.7-7.9-1c-12.6-2.1-29.3-5.9-38.4,7.4
				C742.8,256.5,741.4,259.1,740.3,262z"/>
			<path class="st66" d="M720.8,308.3L720.8,308.3c3.4,2,7.9,0.9,9.9-2.5c0,0,0.4-0.6,1-1.7c0.5-1.2,1.1-2.4,1.7-3.5
				c4.7-10.8,24.4-27.8,12.2-31.1c-10.8-3.6-14.9,18.9-26.3,27.2c-0.6,1-1,1.7-1,1.7C716.3,301.8,717.4,306.2,720.8,308.3z"/>
			<path class="st14" d="M724.2,305.3L724.2,305.3c1.7,1,3.7,1.2,5.5,0.8c1.8-0.5,3.4-1.6,4.4-3.3c0.8-1.5,1.7-2.9,2.7-4.2
				c6.3-9.2,22.9-30.6,11-32.5s-13,21.4-25.9,29.3c-1.2,1.7-1.4,3.6-1,5.4S722.5,304.3,724.2,305.3z"/>
			<g>
				<path class="st14" d="M727.3,290.3c-0.2-0.1-0.3-0.2-0.5-0.3C727,290,727.2,290.2,727.3,290.3z"/>
			</g>
			<g>
				<path class="st14" d="M727.7,290.5c-0.1-0.1-0.3-0.2-0.4-0.3C727.5,290.4,727.6,290.4,727.7,290.5z"/>
			</g>
			<path class="st66" d="M752.3,323.7l6.2,2.7c6.1,2.7,13.3-0.1,16-6.2l8.3-18.8c2.7-6.1-0.1-13.3-6.2-16l-6.2-2.7
				c-6.1-2.7-13.3,0.1-16,6.2l-8.3,18.8C743.3,313.8,746.1,321,752.3,323.7z"/>
			<path class="st14" d="M774.1,250.6c2.6,1.4,5.3,2.8,8,4c25.2,11.1,38.3,36.9,29.2,57.5c-0.3,0.8-0.8,1.9-1.4,3.2
				c-0.6,1.3-1.3,2.9-2,4.6c-1.2,4.1-2.9,7.7-5,11c-1.1,1.6-2.2,3.2-3.5,4.6c-4.6,6.3-10.2,11-16.4,14.2c-1.6,0.8-3.2,1.5-4.8,2.1
				c-5.6,3.3-11.3,4.8-17.1,5.1c-1.5,0.1-2.9,0.1-4.4,0c-4-0.4-8-0.7-12-1.1c-1.3-0.1-2.7-0.3-4-0.4c-9.3-3.7-19.3-2.7-27.7-8.7
				c-1.6-1-3.1-2.1-4.4-3.4c-2.5-2.5-4-5.6-3.8-9.4c0.1-1.9,0.6-4,1.6-6.2c6-13,20-16,31-22c2-2,5-4,6.4-7.3
				c0.5-1.2,0.9-2.5,1.1-3.8c1.6-9.5-3.1-22.3,1.6-31C749.9,256.8,769.1,256.6,774.1,250.6z"/>
			
				<radialGradient id="SVGID_4_" cx="703.7946" cy="317.5521" r="9.5429" gradientTransform="matrix(-1.2327 -4.183053e-02 -3.902906e-02 1.2323 1676.3693 -40.6862)" gradientUnits="userSpaceOnUse">
				<stop  offset="0" style="stop-color:#F0BA7A"/>
				<stop  offset="0.9978" style="stop-color:#F0BA7A;stop-opacity:0"/>
			</radialGradient>
			<path style="fill:url(#SVGID_4_);" d="M805.2,328.7c-5.1,7.5-16.4,9.2-25.3,3.8c-1.3-0.8-2.4-1.7-3.5-2.7
				c9.1-6.7,17.8-13.8,25.8-21.6C808.1,314,809.5,322.3,805.2,328.7z"/>
			<path class="st0" d="M743.6,255.6c-5.9,0.8-12.2-1.9-15.8-6.7c-0.4-0.6-0.9-1.4-0.5-2c0.2-0.3,0.5-0.5,0.9-0.7
				c2.5-1.5,4.3-4,6-6.3c7.5-10.3,15.3-22.9,29.9-22.9c9,0,19.5,4.2,27.3,8.7c19.4,11.2,24.4,30.6,15.6,52.8
				c-1.4-1.3-2.8-2.4-4.2-3.4c-10.5-10.4-24.9-13.7-39.3-11.3c-6.8,1.1-13.5,2.9-20.4,2.9c-4.4,0-15.1-1.2-17.3-6.1
				c-0.5-1.1-0.5-3.7-0.5-3.7s5.1,0.9,7.1,0.7C736.1,257.1,740,256.9,743.6,255.6z"/>
			<path class="st0" d="M781.9,248.5c10.4-4.7,24-1.7,33,5.1c1.1,0.8,2.1,1.6,3.1,2.4c1.3,1.2,2.4,2.5,3.5,3.8
				c3.2,4.1,5.5,9,6.6,14.5c2.4,12.6-2.6,24.9-12,32.4c-0.6,0.5-1.5,0.3-1.9-0.3c-2.8-4.5-5.5-9.1-8.1-13.7
				c-0.9-1.5-1.7-3.1-2.7-4.5c-1-1.1-2-2.3-3-3.4c-1-1.2-2-2.4-2.9-3.7c-7-7.4-19.5-15.6-16.9-27C781,252.2,781.4,250.3,781.9,248.5
				z"/>
			<path class="st0" d="M827.4,260.3c0,0-9.3-1.7-14.2-1.8c-6.8-0.1-17.1-6.6-17.1-6.6s13.9-4.8,19.7-2.9
				C821.6,250.9,827.4,260.3,827.4,260.3z"/>
			<path class="st0" d="M809.8,234.9c0,0-0.7,5.1-1.5,7.7c-1.1,3.6,0.6,10,0.6,10s4.8-6.4,4.8-9.8
				C813.7,239.5,809.8,234.9,809.8,234.9z"/>
			<path class="st82" d="M820.6,297.4l-8.2,13.5l-17.3-11.5l-17.8,22.1l-2.2-4.9l7.4-24.4c0,0,0.8-17.5-5.3-23.8
				c-6.1-6.3-20.5-13.6-20.5-13.6l15-0.7L820.6,297.4z"/>
			<g class="st52">
				<g>
					<path class="st14" d="M789.6,233.3c-2.1-2.4-6-3.6-8.9-4.8c-3.8-1.6-7.9-1.5-12-2c-0.8-0.1-0.9,1.1-0.2,1.4
						c4.1,1.6,8.5,1.4,12.6,3.1c2.6,1.1,5.4,2.8,8.2,2.8C789.7,233.7,789.8,233.5,789.6,233.3L789.6,233.3z"/>
				</g>
			</g>
			<path class="st14" d="M803.4,322.9c-3.7,5.6-11.2,7.1-16.8,3.4c-0.8-0.5-1.5-1.2-2.1-1.8c6.3-5,12.3-10.4,17.9-16.2
				C805.9,312.3,806.5,318.3,803.4,322.9z"/>
			<path class="st66" d="M800,320.6c-2.4,3.7-7.4,4.7-11,2.2c-0.5-0.3-0.9-0.6-1.2-1c4.1-3.4,8-7,11.8-10.7
				C801.7,313.8,802,317.7,800,320.6z"/>
			<g>
				<g>
					<path class="st72" d="M766.3,296.3c-4,9.2-11.4,14.8-20.6,10.8c-9.2-4-11.6-14-7.6-23.2c4-9.2,13.1-14.1,22.3-10
						C769.5,277.9,770.3,287.1,766.3,296.3z"/>
					
						<ellipse transform="matrix(0.4037 -0.9149 0.9149 0.4037 182.2228 861.3992)" class="st13" cx="751.9" cy="290.9" rx="15.8" ry="15.8"/>
					<g>
						
							<ellipse transform="matrix(0.4037 -0.9149 0.9149 0.4037 183.2542 853.375)" class="st0" cx="746.3" cy="286.1" rx="7.5" ry="7.5"/>
						<ellipse transform="matrix(0.4037 -0.9149 0.9149 0.4037 183.2542 853.375)" cx="746.3" cy="286.1" rx="2.9" ry="2.9"/>
						
							<ellipse transform="matrix(0.4037 -0.9149 0.9149 0.4037 187.267 854.7)" class="st73" cx="749.3" cy="283.7" rx="2.2" ry="2.2"/>
					</g>
				</g>
				
					<ellipse transform="matrix(0.4037 -0.9149 0.9149 0.4037 163.8645 867.686)" class="st66" cx="747.5" cy="308.1" rx="0.9" ry="1.8"/>
				
					<ellipse transform="matrix(0.4037 -0.9149 0.9149 0.4037 166.023 876.8958)" class="st66" cx="755.7" cy="311.1" rx="0.9" ry="1.8"/>
				
					<ellipse transform="matrix(0.4037 -0.9149 0.9149 0.4037 161.5308 873.6664)" class="st66" cx="751" cy="312.9" rx="0.9" ry="1.8"/>
			</g>
			<g>
				<g>
					<path class="st75" d="M726.9,328c0.2-2.6-0.5-5-1.1-7.5c-0.6-2.1-1.1-4.4-2.6-6.1c-2-2.5-7.5-3.6-8,0.7c-0.1,0.7,0.5,1.2,1,1.4
						c0.9,0.4,2,0.4,2.8,1c1,0.9,1.5,2.6,2,3.8c1.1,2.7,2.1,5.3,4,7.5C725.7,329.6,726.9,328.9,726.9,328L726.9,328z"/>
				</g>
			</g>
		</g>
		<path class="st14" d="M758.3,276.5c4.6,2,7.8,6.1,8.9,10.6c-9.9-1.2-19.6-2.4-29.4-3.1C741.4,276.4,750.5,273.1,758.3,276.5z"/>
		<path class="st83" d="M763.5,278.4l-21.1,3.1c-3,0.4-5.7-1.6-6.2-4.6l0,0c-0.4-3,1.6-5.7,4.6-6.2l21.1-3.1c3-0.4,5.7,1.6,6.2,4.6
			l0,0C768.5,275.2,766.4,278,763.5,278.4z"/>
	</g>
	<path class="st14" d="M615.4,322c0.5,6.7,6.3,11.6,13,11.1c1-0.1,1.9-0.3,2.8-0.6c-3-7.5-5.7-15.1-7.7-22.9
		C618.4,311.5,615,316.4,615.4,322z"/>
	<path class="st66" d="M616.8,321.9c0.3,4.4,4.2,7.7,8.5,7.3c0.5,0,1.1-0.1,1.6-0.3c-1.9-5-3.6-10-5.1-15.1
		C618.6,315.1,616.5,318.3,616.8,321.9z"/>
</g>
<g id="Layer_2">
	<rect x="34.9" y="28.9" class="st22" width="391.9" height="48.3"/>
	<text transform="matrix(1 0 0 1 34.8917 47.6332)" class="st0 st109 st108">HOla, Kaira POlet ARAYA</text>
	<g>
		<path class="st14" d="M642.5,397.1c-2.5-0.5-5-0.9-7.5-1.4c-4-0.8-8.2-1.5-12.2-0.7s-7.9,3.7-8.6,7.7c-0.4,2.4,0.6,5.3,3,5.8
			c0.2,1.4,0,2.7,0.1,4.1c0.1,1.4,0.7,2.8,1.9,3.4s3.1-0.2,3-1.6c-0.8,1.6-0.3,3.7,1,4.9c1.3,1.2,3.5,1.4,5,0.4
			c1-0.6,1.8-1.7,2.7-2.5c2.9-2.3,7.1-1.2,10.6,0"/>
	</g>
	<g>
		<path class="st65" d="M669.5,378.8c17.6-0.2,21.8,16.4,13,27c-4.1,6.2-10.2,9.9-18.2,12.9c-1.5,0.5-3.1,0.9-4.7,1.3
			c-1.6,0.4-3.2,0.7-4.8,1.1c-3.7,0.3-17.5-3.9-17.5-7.7c-0.1-6.5,5.2-12,11.8-17.2c1.6-1.3,3.4-2.6,5.1-3.9
			c5.6-3.7,9.5-6.7,14.2-12C668.9,379.9,669.2,379.3,669.5,378.8z"/>
		<g>
			<path class="st65" d="M641.5,391.7c2-0.4,3.6-2.1,5.3-1.9c0.7-0.1,1.3-0.1,2-0.2c2.7-0.2,5.5-0.2,8.4-0.4c0.8,0,1.6,0,2.3-0.1
				c5.4-0.2,10.6-0.4,15.9,6.2c0.4,0.8,0.6,1.7,0.6,2.7c0.3,4-1.5,9.4-3.9,11.4c-3.8,2.4-8.5,4.9-13.2,7c-0.8,0.3-1.6,0.7-2.4,0.9
				c-4.5,1.9-12,3.2-15.3-5.1c-0.4-0.9-0.8-1.9-1.2-2.9c-1.9-5.1-2.9-11.1-0.7-15.3C640.2,392.7,640.3,392.4,641.5,391.7z"/>
			<path class="st13" d="M640.7,392.4c0.7-0.7,1.4-1.3,2.2-1.8c0.6-0.4,1.3-0.7,2-1c0.7-0.3,1.3-0.5,2-0.7c2.5,0,5,0.2,7.5,0.2
				c0.8,0,1.7,0,2.5,0c4.7-0.7,10.3-1.1,13.1-6.4c-1.6,7.1-7.2,8.1-11.9,8.6c-0.9,0-1.8,0-2.6,0c-2.7-0.1-5.4-0.4-7.8-0.5
				c-0.8,0.1-1.7,0.2-2.5,0.3c-0.8,0.1-1.6,0.3-2.4,0.6C641.6,392.3,640.9,392.5,640.7,392.4z"/>
			<path class="st13" d="M641.1,392.2c-1.9-0.3-8.8,1.5-9.3,1.9c2.8,4.9,6.8,13.9,6.6,21.3c2.1-0.6,7.8,0.1,8.4-0.5
				C646.3,407.3,644,399.1,641.1,392.2z"/>
		</g>
	</g>
	<g>
		<path class="st65" d="M624.5,374.3c-2-3.4-8.5-5.1-15.4-2c-1.1,0.5-2.1,1.1-3.1,1.8c-1,0.7-1.9,1.5-2.7,2.4
			c-0.6,0.6-1.1,1.2-1.6,1.8c-2,2.5-3.6,5-4.6,7.3c-4.2,10-0.4,17.5,3.4,24.9c1.8,2.5,12.8,8.7,15.7,6.3c7.5-6.2,6.4-18.7,6.5-30.1
			c0-0.5,0-1,0-1.5c-0.3-3,1.4-6.3,1.2-9C624.1,375.4,624.2,374.8,624.5,374.3z"/>
		<g>
			<path class="st65" d="M630.4,400c-0.8-1.6-0.4-3.7-1.5-4.6c-0.3-0.5-0.7-0.9-1-1.4c-1.4-1.9-3-3.7-4.4-5.7
				c-0.4-0.5-0.9-1-1.3-1.5c-2.9-3.6-5.7-7-13.7-6.1c-0.8,0.3-1.6,0.7-2.4,1.3c-3.2,2.4-6.3,7-6.5,9.8c0.3,4,1,8.6,2.1,12.9
				c0.2,0.7,0.4,1.4,0.6,2.1c1.1,4.1,4.3,9.7,12.5,6.5c0.9-0.3,1.9-0.7,2.9-1.1c5-2.1,10.1-5.3,12-9.4
				C630.4,401.5,630.5,401.2,630.4,400z"/>
			<path class="st13" d="M630.3,401c0.2-0.9,0.2-1.7,0.1-2.5c-0.1-0.7-0.2-1.3-0.3-1.9c-0.2-0.6-0.4-1.2-0.6-1.7
				c-1.4-1.6-3-3.1-4.4-4.7c-0.5-0.5-0.9-1.1-1.4-1.6c-2.1-3.4-5-7.2-2.5-12.5c-4.5,5.7-2.1,9.9,0.2,13.2c0.5,0.6,1,1.1,1.5,1.7
				c1.6,1.6,3.3,3.2,4.8,4.7c0.4,0.6,0.8,1.2,1.2,1.8s0.7,1.3,0.9,1.9C630,400.3,630.2,400.9,630.3,401z"/>
			<path class="st13" d="M630.3,400.6c1.3,1,3.8,6.6,3.8,7.2c-5.3,1.4-14.5,4.6-20,9.6c-0.7-1.8-4.5-4.9-4.4-5.7
				C615.8,407,623.3,403.2,630.3,400.6z"/>
		</g>
		<g>
			<path class="st14" d="M631.8,407c1.1,2.3,2.3,4.5,3.4,6.8c1.8,3.7,3.7,7.4,4,11.5s-1.4,8.6-5.1,10.4c-2.2,1.1-5.3,0.8-6.4-1.3
				c-1.3,0.2-2.6,0.8-4,1c-1.3,0.3-2.9,0.1-3.8-0.9c-0.9-1-0.6-3,0.7-3.3c-1.4,1.2-3.5,1.3-5,0.4s-2.3-3-1.8-4.7
				c0.3-1.2,1.2-2.2,1.6-3.3c1.4-3.4-0.8-7.2-2.9-10.2"/>
		</g>
	</g>
	<g>
		<path class="st14" d="M748.1,398.5c3.3-0.2,6.7-0.4,10-0.6c5.4-0.3,10.9-0.7,16,1.1c5.1,1.7,9.7,6.1,10,11.5
			c0.2,3.2-1.7,6.8-4.9,7.1c-0.5,1.7-0.4,3.6-0.8,5.3s-1.4,3.6-3.1,4.1c-1.7,0.6-4-0.8-3.7-2.6c0.7,2.2-0.2,4.9-2.1,6.3
			c-1.9,1.3-4.8,1.2-6.6-0.2c-1.3-1-2-2.5-3.2-3.7c-3.4-3.5-9.1-2.7-13.9-1.8"/>
	</g>
	<g>
		<path class="st65" d="M715.6,373.8c-23-3.1-31.2,18-21.4,33.2c4.3,8.8,11.8,14.6,21.7,19.8c1.9,0.9,3.9,1.7,5.9,2.5
			c2,0.8,4,1.5,6.1,2.2c4.7,1,23.5-2.3,24.2-7.2c1.2-8.5-4.9-16.5-12.6-24.4c-1.9-2-4-3.9-6-5.9c-6.7-5.7-11.3-10.3-16.7-18
			C716.3,375.2,715.9,374.5,715.6,373.8z"/>
		<g>
			<path class="st65" d="M750.2,395.1c-2.6-0.9-4.3-3.4-6.7-3.4c-0.9-0.2-1.7-0.4-2.6-0.5c-3.5-0.7-7.2-1.2-10.9-1.9
				c-1-0.1-2-0.3-3-0.5c-7-1.1-13.8-2.2-21.8,5.6c-0.6,0.9-1,2.1-1.3,3.4c-1.1,5.2,0.4,12.5,3.3,15.5c4.6,3.7,10.3,7.8,16.1,11.2
				c1,0.6,1.9,1.1,2.9,1.6c5.6,3.2,15.1,6.1,20.9-4.2c0.7-1.1,1.4-2.4,2.1-3.6c3.3-6.4,5.6-14.1,3.4-19.9
				C751.7,396.6,751.6,396.3,750.2,395.1z"/>
			<path class="st13" d="M751.1,396.2c-0.8-1.1-1.6-1.9-2.6-2.7c-0.8-0.6-1.6-1.2-2.4-1.6c-0.8-0.5-1.7-0.9-2.6-1.2
				c-3.2-0.4-6.6-0.5-9.9-0.9c-1.1-0.1-2.2-0.3-3.3-0.4c-6.1-1.6-13.2-3-16.1-10.5c1,9.6,8.2,11.8,14.2,13.2
				c1.1,0.2,2.3,0.3,3.5,0.4c3.5,0.3,7.1,0.3,10.3,0.6c1.1,0.2,2.2,0.5,3.2,0.8c1,0.3,2.1,0.7,3,1.2
				C750,395.8,750.9,396.2,751.1,396.2z"/>
			<path class="st13" d="M750.6,395.8c2.5-0.1,11.2,3.4,11.8,4c-4.5,6-11.2,17.1-12.1,26.8c-2.7-1.2-10.2-1.1-11-2
				C741.3,414.7,745.7,404.4,750.6,395.8z"/>
		</g>
	</g>
	<g>
		<path class="st65" d="M775.1,371.8c5.2-0.3,11.9,5.5,13.5,15.3c0.3,1.5,0.4,3.1,0.3,4.7c0,1.6-0.2,3.2-0.6,4.7
			c-0.2,1-0.5,2.1-0.8,3.1c-1.2,4-2.8,7.6-4.6,10.4c-7.8,12-18.8,13.3-29.8,14.6c-4.1-0.1-18.9-7.7-18.4-12.6
			c1.3-12.7,15.8-20.8,28.2-29.2c0.6-0.4,1.1-0.8,1.7-1.2c3.5-1.9,5.9-6.1,9-7.9C774.1,373.1,774.6,372.4,775.1,371.8z"/>
		<g>
			<path class="st65" d="M742.5,384.2c2.3-0.3,4.3-2.3,6.2-1.7c0.8,0,1.5,0,2.3,0.1c3.1,0.2,6.2,0.5,9.4,0.7
				c0.9,0.1,1.7,0.2,2.6,0.3c6.1,0.5,11.9,1.1,16.8,10.5c0.3,1.1,0.4,2.3,0.3,3.6c-0.3,5.3-3,12-6,14.3c-4.6,2.6-10.2,5.2-15.7,7.2
				c-0.9,0.3-1.8,0.6-2.8,0.9c-5.3,1.8-13.8,2.4-16.3-9c-0.3-1.3-0.7-2.6-0.9-4c-1.4-7-1.6-15,1.5-20.1
				C741,385.3,741.1,385,742.5,384.2z"/>
			<path class="st13" d="M741.5,385.1c0.9-0.8,1.8-1.5,2.7-2c0.8-0.4,1.5-0.8,2.3-1c0.8-0.3,1.6-0.4,2.4-0.6c2.8,0.4,5.6,1,8.3,1.4
				c0.9,0.1,1.9,0.3,2.8,0.3c5.3-0.2,11.6,0.1,15.5-6.4c-2.9,9.1-9.3,9.5-14.6,9.5c-1-0.1-2-0.2-2.9-0.4c-2.9-0.5-5.9-1.3-8.7-1.8
				c-0.9,0-1.9,0-2.8,0s-1.9,0.2-2.8,0.4C742.5,384.9,741.7,385.1,741.5,385.1z"/>
			<path class="st13" d="M742,384.7c-2.1-0.6-10,0.7-10.6,1.2c2.4,6.8,5.5,19.2,4.2,28.9c2.5-0.5,8.7,1.3,9.5,0.6
				C745.6,405.3,744.2,394.3,742,384.7z"/>
		</g>
		<g>
			<path class="st14" d="M733.8,387.8c-3.3,0.4-6.6,0.9-9.9,1.3c-5.3,0.7-10.8,1.4-15.5,4.1c-4.7,2.7-8.4,7.8-7.7,13.2
				c0.4,3.2,3,6.4,6.1,6.1c0.8,1.6,1.1,3.4,1.8,5.1c0.7,1.6,2,3.2,3.8,3.5c1.8,0.3,3.7-1.5,3.1-3.2c-0.3,2.3,1.1,4.8,3.3,5.8
				s4.9,0.3,6.4-1.5c1-1.2,1.5-2.9,2.4-4.2c2.7-4.1,8.4-4.4,13.3-4.4"/>
		</g>
	</g>
	
		<use xlink:href="#barras"  width="433.6" height="172.4" x="-216.8" y="-86.2" transform="matrix(1 0 0 -1 289.8234 368.5386)" style="overflow:visible;"/>
</g>
</svg>
