<?xml version="1.0" encoding="utf-8"?>
<!-- Generator: Adobe Illustrator 21.1.0, SVG Export Plug-In . SVG Version: 6.00 Build 0)  -->
<svg version="1.1" xmlns="http://www.w3.org/2000/svg" xmlns:xlink="http://www.w3.org/1999/xlink" x="0px" y="0px"
	 viewBox="0 0 841.9 595.3" style="enable-background:new 0 0 841.9 595.3;" xml:space="preserve">
<style type="text/css">
	.st0{fill:#F2C85F;}
	.st1{fill:#F2D3AD;}
	.st2{fill:#674C91;}
	.st3{fill:#DCFFC5;}
	.st4{fill:#8BAA77;}
	.st5{clip-path:url(#SVGID_2_);fill:#F1F3F7;}
	.st6{opacity:0.4;clip-path:url(#SVGID_2_);fill:#DCDDE0;}
	.st7{clip-path:url(#SVGID_2_);fill:#0076B7;}
	.st8{clip-path:url(#SVGID_2_);fill:#FFFFFF;}
	.st9{clip-path:url(#SVGID_2_);}
	.st10{fill:#FFFFFF;}
	.st11{fill:#F7CFA2;}
	.st12{fill:#ECB8FF;}
	.st13{fill:#393D47;}
	.st14{fill:#E86767;}
	.st15{opacity:0.1;fill:#3C2813;}
	.st16{fill:#EEEBE7;}
	.st17{fill:#3C2813;}
	.st18{fill:#795ACC;}
	.st19{fill:none;}
	.st20{fill:#601515;}
	.st21{clip-path:url(#SVGID_6_);fill:#F7EFDF;}
	.st22{fill:#3EBA50;}
	.st23{display:none;opacity:0.3;}
	.st24{fill:#F7EFDF;}
	.st25{fill:#4E9FA8;}
	.st26{fill:none;stroke:#231F20;stroke-width:2;stroke-miterlimit:10;}
	.st27{fill:#231F20;}
	.st28{fill:none;stroke:#674C91;stroke-miterlimit:10;}
	.st29{fill:#3FBA51;}
	.st30{fill:#601515;stroke:#601515;stroke-miterlimit:10;}
	.st31{fill:none;stroke:#601515;stroke-miterlimit:10;}
	.st32{fill:none;stroke:#FFFFFF;stroke-miterlimit:10;}
	.st33{fill:url(#SVGID_9_);}
	.st34{fill:#601515;stroke:#8C8779;stroke-width:6;stroke-miterlimit:10;}
	.st35{fill:url(#SVGID_10_);}
	.st36{fill:none;stroke:#4E9FA8;stroke-width:12;stroke-miterlimit:10;}
	.st37{fill:#E0EA18;}
	.st38{clip-path:url(#SVGID_12_);fill:#F7EFDF;}
	.st39{fill:url(#SVGID_13_);}
	.st40{fill:url(#SVGID_14_);}
	.st41{fill:#EFEA35;}
	.st42{fill:url(#SVGID_15_);}
	.st43{fill:url(#SVGID_16_);}
	.st44{fill:url(#SVGID_17_);}
	.st45{fill:url(#SVGID_18_);}
	.st46{fill:url(#SVGID_19_);}
	.st47{fill:#C1C1B8;}
	.st48{fill:#9B9B97;}
	.st49{fill:#D8D8D2;}
	.st50{opacity:0.4;}
	.st51{opacity:0.6;}
	.st52{fill:#CEBABA;}
	.st53{fill:#EAEAE5;}
	.st54{fill:url(#SVGID_20_);}
	.st55{fill:url(#SVGID_21_);}
	.st56{fill:url(#SVGID_22_);}
	.st57{fill:url(#SVGID_23_);}
	.st58{fill:url(#SVGID_24_);}
	.st59{fill:url(#SVGID_25_);}
	.st60{fill:url(#SVGID_26_);}
	.st61{fill:url(#SVGID_27_);}
	.st62{fill:url(#SVGID_28_);}
	.st63{fill:#6BA8B2;}
	.st64{fill:#F1F3F7;}
	.st65{fill:#F0BA7A;}
	.st66{opacity:0.4;fill:#DCDDE0;}
	.st67{fill:#0076B7;}
	.st68{opacity:0.3;}
	.st69{fill:#DCDDE0;}
	.st70{fill:#004868;}
	.st71{opacity:0.1;fill:#601515;}
	.st72{fill:#F9F9F9;}
	.st73{fill:#24272D;}
	.st74{fill:#EA6D50;}
	.st75{clip-path:url(#SVGID_30_);fill:#F0BA7A;}
	.st76{clip-path:url(#SVGID_30_);fill:#F1F3F7;}
	.st77{opacity:0.4;clip-path:url(#SVGID_30_);fill:#DCDDE0;}
	.st78{clip-path:url(#SVGID_30_);fill:#0076B7;}
	.st79{clip-path:url(#SVGID_30_);fill:#FFFFFF;}
	.st80{clip-path:url(#SVGID_30_);}
	.st81{opacity:0.3;fill:#601515;}
	.st82{fill:#5B1010;}
	.st83{clip-path:url(#SVGID_32_);fill:#F1F3F7;}
	.st84{clip-path:url(#SVGID_32_);fill:#F0BA7A;}
	.st85{opacity:0.4;clip-path:url(#SVGID_32_);fill:#DCDDE0;}
	.st86{clip-path:url(#SVGID_32_);fill:#0076B7;}
	.st87{clip-path:url(#SVGID_32_);fill:#FFFFFF;}
	.st88{clip-path:url(#SVGID_32_);}
	.st89{fill:#1F74C9;}
	.st90{fill:#595959;}
	.st91{opacity:0.1;fill:#8BAA77;}
	.st92{opacity:0.3;fill:#8BAA77;}
	.st93{opacity:0.1;fill:#595959;}
	.st94{opacity:0.3;fill:#595959;}
	.st95{fill:#9E921E;}
	.st96{clip-path:url(#SVGID_34_);fill:#F0BA7A;}
	.st97{clip-path:url(#SVGID_34_);fill:#F1F3F7;}
	.st98{clip-path:url(#SVGID_34_);}
	.st99{clip-path:url(#SVGID_34_);fill:#393D47;}
	.st100{clip-path:url(#SVGID_34_);fill:#FFFFFF;}
	.st101{opacity:0.4;clip-path:url(#SVGID_34_);fill:#DCDDE0;}
	.st102{clip-path:url(#SVGID_34_);fill:#0076B7;}
	.st103{fill:#B72C34;}
	.st104{clip-path:url(#SVGID_36_);fill:#F1F3F7;}
	.st105{clip-path:url(#SVGID_36_);}
	.st106{clip-path:url(#SVGID_38_);fill:#F1F3F7;}
	.st107{opacity:0.4;clip-path:url(#SVGID_38_);fill:#DCDDE0;}
	.st108{clip-path:url(#SVGID_38_);fill:#0076B7;}
	.st109{clip-path:url(#SVGID_38_);fill:#FFFFFF;}
	.st110{clip-path:url(#SVGID_38_);}
	.st111{fill:url(#SVGID_39_);}
	.st112{fill:url(#SVGID_40_);}
	.st113{fill:url(#SVGID_41_);}
	.st114{fill:url(#SVGID_42_);}
	.st115{fill:#A52323;}
	.st116{clip-path:url(#SVGID_44_);fill:#F1F3F7;}
	.st117{opacity:0.4;clip-path:url(#SVGID_44_);fill:#DCDDE0;}
	.st118{clip-path:url(#SVGID_44_);fill:#0076B7;}
	.st119{clip-path:url(#SVGID_44_);fill:#FFFFFF;}
	.st120{clip-path:url(#SVGID_44_);}
	.st121{fill:#023142;}
	.st122{clip-path:url(#SVGID_46_);fill:#F7CFA2;}
	.st123{clip-path:url(#SVGID_46_);}
	.st124{opacity:0.3;fill:#E57257;}
	.st125{opacity:0.2;}
	.st126{fill:#656D60;}
	.st127{clip-path:url(#SVGID_48_);fill:#F0BA7A;}
	.st128{clip-path:url(#SVGID_48_);fill:#F1F3F7;}
	.st129{opacity:0.4;clip-path:url(#SVGID_48_);fill:#DCDDE0;}
	.st130{clip-path:url(#SVGID_48_);fill:#0076B7;}
	.st131{clip-path:url(#SVGID_48_);fill:#FFFFFF;}
	.st132{clip-path:url(#SVGID_48_);}
	.st133{clip-path:url(#SVGID_50_);fill:#F1F3F7;}
	.st134{opacity:0.4;clip-path:url(#SVGID_50_);fill:#DCDDE0;}
	.st135{clip-path:url(#SVGID_50_);fill:#0076B7;}
	.st136{clip-path:url(#SVGID_50_);fill:#FFFFFF;}
	.st137{clip-path:url(#SVGID_50_);}
	.st138{clip-path:url(#SVGID_52_);fill:#F1F3F7;}
	.st139{opacity:0.4;clip-path:url(#SVGID_52_);fill:#DCDDE0;}
	.st140{clip-path:url(#SVGID_52_);fill:#0076B7;}
	.st141{clip-path:url(#SVGID_52_);fill:#FFFFFF;}
	.st142{clip-path:url(#SVGID_52_);}
	.st143{fill:#9E9E9E;}
	.st144{fill:#878787;}
	.st145{fill:url(#SVGID_53_);}
	.st146{fill:#CE6117;}
	.st147{fill:url(#SVGID_54_);}
	.st148{fill:#EFE91B;}
	.st149{clip-path:url(#SVGID_56_);fill:#F0BA7A;}
	.st150{clip-path:url(#SVGID_56_);fill:#F1F3F7;}
	.st151{opacity:0.4;clip-path:url(#SVGID_56_);fill:#DCDDE0;}
	.st152{clip-path:url(#SVGID_56_);fill:#0076B7;}
	.st153{clip-path:url(#SVGID_56_);fill:#FFFFFF;}
	.st154{clip-path:url(#SVGID_56_);}
	.st155{fill:#B27E49;}
	.st156{clip-path:url(#SVGID_58_);fill:#F1F3F7;}
	.st157{opacity:0.4;clip-path:url(#SVGID_58_);fill:#DCDDE0;}
	.st158{clip-path:url(#SVGID_58_);fill:#0076B7;}
	.st159{clip-path:url(#SVGID_58_);fill:#FFFFFF;}
	.st160{clip-path:url(#SVGID_58_);}
	.st161{fill:#8454D1;}
	.st162{clip-path:url(#SVGID_60_);fill:#393D47;}
	.st163{clip-path:url(#SVGID_60_);fill:#F0BA7A;}
	.st164{clip-path:url(#SVGID_60_);fill:#F1F3F7;}
	.st165{clip-path:url(#SVGID_60_);fill:#0076B7;}
	.st166{clip-path:url(#SVGID_60_);fill:#004868;}
	.st167{opacity:0.4;clip-path:url(#SVGID_60_);fill:#DCDDE0;}
	.st168{clip-path:url(#SVGID_60_);fill:#FFFFFF;}
	.st169{clip-path:url(#SVGID_60_);}
	.st170{fill:none;stroke:#EA6D50;stroke-width:2;stroke-miterlimit:10;}
	.st171{fill:url(#SVGID_61_);}
	.st172{fill:#777777;}
	.st173{fill:#A85848;}
	.st174{fill:#E85646;}
	.st175{fill:#EA4E39;}
	.st176{clip-path:url(#SVGID_63_);fill:#F1F3F7;}
	.st177{clip-path:url(#SVGID_63_);}
	.st178{fill:#B23C18;}
	.st179{fill:#6B2A05;}
	.st180{fill:#B23C18;stroke:#6B2A05;stroke-miterlimit:10;}
	.st181{fill:#DDAA78;}
	.st182{fill:#211205;}
	.st183{fill:none;stroke:#6B2A05;stroke-width:0.729;stroke-miterlimit:10;}
	.st184{fill:#B23C18;stroke:#6B2A05;stroke-width:0.729;stroke-miterlimit:10;}
	.st185{fill:#BBE8F2;}
	.st186{opacity:0.3;fill:#F2F8F9;}
	.st187{opacity:0.2;fill:#601515;}
	.st188{fill:#FFFF00;}
	.st189{fill:#594EEA;}
	.st190{fill:#FF0B0B;}
	.st191{fill:none;stroke:#3FBA51;stroke-width:8;stroke-miterlimit:10;}
	.st192{fill:none;stroke:#3FBA51;stroke-width:7.2;stroke-miterlimit:10;}
	.st193{fill:none;stroke:#3FBA51;stroke-width:7.2;stroke-linecap:round;stroke-miterlimit:10;}
	.st194{fill:none;stroke:#3FBA51;stroke-width:8;stroke-linecap:round;stroke-miterlimit:10;}
	.st195{fill:none;stroke:#3FBA51;stroke-width:5.1175;stroke-miterlimit:10;}
	.st196{fill:#4F5565;}
	.st197{fill:#D64E3C;}
	.st198{fill:#F7A500;}
	.st199{fill:#FBD303;}
	.st200{fill:#FCFCFD;}
	.st201{fill:#F8B517;}
	.st202{fill:#F0582F;}
	.st203{fill:#BAE8F2;}
	.st204{fill:#F7EA72;}
	.st205{clip-path:url(#SVGID_65_);fill:#F7EFDF;}
	.st206{fill:none;stroke:#3FBA51;stroke-width:6.4304;stroke-miterlimit:10;}
	.st207{fill:url(#SVGID_66_);}
	.st208{fill:url(#SVGID_67_);}
	.st209{fill:url(#SVGID_68_);}
	.st210{fill:url(#SVGID_69_);}
	.st211{fill:url(#SVGID_70_);}
	.st212{fill:url(#SVGID_71_);}
	.st213{fill:url(#SVGID_72_);}
	.st214{fill:url(#SVGID_73_);}
	.st215{fill:url(#SVGID_74_);}
	.st216{fill:url(#SVGID_75_);}
	.st217{fill:url(#SVGID_76_);}
	.st218{fill:url(#SVGID_77_);}
	.st219{fill:url(#SVGID_78_);}
	.st220{fill:url(#SVGID_79_);}
	.st221{fill:url(#SVGID_80_);}
	.st222{fill:url(#SVGID_81_);}
	.st223{fill:url(#SVGID_82_);}
	.st224{fill:url(#SVGID_83_);}
	.st225{fill:url(#SVGID_84_);}
	.st226{fill:url(#SVGID_85_);}
	.st227{fill:url(#SVGID_86_);}
	.st228{fill:url(#SVGID_87_);}
	.st229{fill:url(#SVGID_88_);}
	.st230{fill:url(#SVGID_89_);}
	.st231{fill:url(#SVGID_90_);}
	.st232{fill:url(#SVGID_91_);}
	.st233{fill:url(#SVGID_92_);}
	.st234{fill:url(#SVGID_93_);}
	.st235{fill:url(#SVGID_94_);}
	.st236{fill:url(#SVGID_95_);}
	.st237{fill:url(#SVGID_96_);}
	.st238{fill:url(#SVGID_97_);}
	.st239{fill:url(#SVGID_98_);}
	.st240{fill:url(#SVGID_99_);}
	.st241{fill:url(#SVGID_100_);}
	.st242{fill:url(#SVGID_101_);}
	.st243{opacity:0.7;fill:#7BCDDB;}
	.st244{fill:none;stroke:#F0BA7A;stroke-width:3;stroke-miterlimit:10;}
	.st245{fill:none;stroke:#601515;stroke-width:2;stroke-miterlimit:10;}
	.st246{fill:url(#SVGID_102_);}
	.st247{fill:url(#SVGID_103_);}
	.st248{fill:url(#SVGID_104_);}
	.st249{fill:url(#SVGID_105_);}
	.st250{fill:url(#SVGID_106_);}
	.st251{fill:url(#SVGID_107_);}
	.st252{fill:url(#SVGID_108_);}
	.st253{opacity:0.5;fill:#302929;}
	.st254{fill:#EF3F50;}
	.st255{fill:url(#SVGID_109_);}
	.st256{fill:url(#SVGID_110_);}
	.st257{fill:url(#SVGID_111_);}
	.st258{fill:url(#SVGID_112_);}
	.st259{opacity:0.6;fill:#302929;}
	.st260{fill:url(#SVGID_113_);}
	.st261{fill:url(#SVGID_114_);}
	.st262{fill:url(#SVGID_115_);}
	.st263{fill:url(#SVGID_116_);}
	.st264{fill:url(#SVGID_117_);}
	.st265{fill:url(#SVGID_118_);}
	.st266{fill:url(#SVGID_119_);}
	.st267{fill:url(#SVGID_120_);}
	.st268{fill:url(#SVGID_121_);}
	.st269{fill:url(#SVGID_122_);}
	.st270{fill:url(#SVGID_123_);}
	.st271{fill:url(#SVGID_124_);}
	.st272{fill:url(#SVGID_125_);}
	.st273{fill:url(#SVGID_126_);}
	.st274{fill:url(#SVGID_127_);}
	.st275{fill:url(#SVGID_128_);}
	.st276{fill:url(#SVGID_129_);}
	.st277{fill:url(#SVGID_130_);}
	.st278{fill:url(#SVGID_131_);}
	.st279{fill:url(#SVGID_132_);}
	.st280{fill:url(#SVGID_133_);}
	.st281{fill:url(#SVGID_134_);}
	.st282{fill:url(#SVGID_135_);}
	.st283{fill:url(#SVGID_136_);}
	.st284{fill:url(#SVGID_137_);}
	.st285{fill:url(#SVGID_138_);}
	.st286{fill:url(#SVGID_139_);}
	.st287{fill:url(#SVGID_140_);}
	.st288{fill:url(#SVGID_141_);}
	.st289{fill:url(#SVGID_142_);}
	.st290{fill:url(#SVGID_143_);}
	.st291{fill:url(#SVGID_144_);}
	.st292{fill:url(#SVGID_145_);}
	.st293{fill:url(#SVGID_146_);}
	.st294{fill:url(#SVGID_147_);}
	.st295{fill:url(#SVGID_148_);}
	.st296{fill:url(#SVGID_149_);}
	.st297{fill:url(#SVGID_150_);}
	.st298{fill:url(#SVGID_151_);}
	.st299{fill:url(#SVGID_152_);}
	.st300{fill:url(#SVGID_153_);}
	.st301{fill:url(#SVGID_154_);}
	.st302{fill:url(#SVGID_155_);}
	.st303{fill:url(#SVGID_156_);}
	.st304{fill:url(#SVGID_157_);}
	.st305{fill:url(#SVGID_158_);}
	.st306{fill:url(#SVGID_159_);}
	.st307{fill:url(#SVGID_160_);}
	.st308{fill:url(#SVGID_161_);}
	.st309{fill:url(#SVGID_162_);}
	.st310{fill:url(#SVGID_163_);}
	.st311{fill:url(#SVGID_164_);}
	.st312{fill:url(#SVGID_165_);}
	.st313{fill:url(#SVGID_166_);}
	.st314{fill:url(#SVGID_167_);}
	.st315{fill:url(#SVGID_168_);}
	.st316{fill:url(#SVGID_169_);}
	.st317{fill:url(#SVGID_170_);}
	.st318{fill:url(#SVGID_171_);}
	.st319{fill:url(#SVGID_172_);}
	.st320{fill:url(#SVGID_173_);}
	.st321{fill:url(#SVGID_174_);}
	.st322{fill:url(#SVGID_175_);}
	.st323{fill:url(#SVGID_176_);}
	.st324{fill:url(#SVGID_177_);}
	.st325{fill:url(#SVGID_178_);}
	.st326{fill:url(#SVGID_179_);}
	.st327{fill:url(#SVGID_180_);}
	.st328{fill:url(#SVGID_181_);}
	.st329{fill:url(#SVGID_182_);}
	.st330{fill:url(#SVGID_183_);}
	.st331{fill:url(#SVGID_184_);}
	.st332{fill:url(#SVGID_185_);}
	.st333{fill:url(#SVGID_186_);}
	.st334{fill:url(#SVGID_187_);}
	.st335{fill:url(#SVGID_188_);}
	.st336{fill:url(#SVGID_189_);}
	.st337{fill:url(#SVGID_190_);}
	.st338{fill:url(#SVGID_191_);}
	.st339{fill:url(#SVGID_192_);}
	.st340{fill:url(#SVGID_193_);}
	.st341{fill:url(#SVGID_194_);}
	.st342{fill:url(#SVGID_195_);}
	.st343{fill:url(#SVGID_196_);}
	.st344{fill:url(#SVGID_197_);}
	.st345{fill:url(#SVGID_198_);}
	.st346{fill:url(#SVGID_199_);}
	.st347{fill:url(#SVGID_200_);}
	.st348{fill:url(#SVGID_201_);}
	.st349{fill:url(#SVGID_202_);}
	.st350{fill:url(#SVGID_203_);}
	.st351{fill:url(#SVGID_204_);}
	.st352{fill:url(#SVGID_205_);}
	.st353{fill:url(#SVGID_206_);}
	.st354{fill:url(#SVGID_207_);}
	.st355{fill:url(#SVGID_208_);}
	.st356{fill:url(#SVGID_209_);}
	.st357{fill:url(#SVGID_210_);}
	.st358{fill:url(#SVGID_211_);}
	.st359{fill:url(#SVGID_212_);}
	.st360{fill:url(#SVGID_213_);}
	.st361{fill:url(#SVGID_214_);}
	.st362{fill:url(#SVGID_215_);}
	.st363{fill:url(#SVGID_216_);}
	.st364{fill:url(#SVGID_217_);}
	.st365{fill:url(#SVGID_218_);}
	.st366{fill:url(#SVGID_219_);}
	.st367{fill:url(#SVGID_220_);}
	.st368{fill:url(#SVGID_221_);}
	.st369{fill:url(#SVGID_222_);}
	.st370{fill:url(#SVGID_223_);}
	.st371{fill:url(#SVGID_224_);}
	.st372{fill:url(#SVGID_225_);}
	.st373{fill:url(#SVGID_226_);}
	.st374{fill:url(#SVGID_227_);}
	.st375{fill:url(#SVGID_228_);}
	.st376{fill:url(#SVGID_229_);}
	.st377{fill:url(#SVGID_230_);}
	.st378{fill:url(#SVGID_231_);}
	.st379{fill:url(#SVGID_232_);}
	.st380{fill:url(#SVGID_233_);}
	.st381{fill:url(#SVGID_234_);}
	.st382{fill:url(#SVGID_235_);}
	.st383{fill:url(#SVGID_236_);}
	.st384{fill:url(#SVGID_237_);}
	.st385{fill:url(#SVGID_238_);}
	.st386{fill:url(#SVGID_239_);}
	.st387{fill:none;stroke:#9B9B97;stroke-miterlimit:10;}
	.st388{fill:url(#SVGID_240_);}
	.st389{fill:url(#SVGID_241_);}
	.st390{fill:url(#SVGID_242_);}
	.st391{fill:url(#SVGID_243_);}
	.st392{fill:url(#SVGID_244_);}
	.st393{fill:url(#SVGID_245_);}
	.st394{fill:url(#SVGID_246_);}
	.st395{fill:url(#SVGID_247_);}
	.st396{fill:url(#SVGID_248_);}
	.st397{fill:url(#SVGID_249_);}
	.st398{fill:url(#SVGID_250_);}
	.st399{fill:url(#SVGID_251_);}
	.st400{fill:url(#SVGID_252_);}
	.st401{fill:url(#SVGID_253_);}
	.st402{fill:url(#SVGID_254_);}
	.st403{fill:url(#SVGID_255_);}
	.st404{fill:url(#SVGID_256_);}
	.st405{fill:url(#SVGID_257_);}
	.st406{fill:url(#SVGID_258_);}
	.st407{fill:url(#SVGID_259_);}
	.st408{fill:url(#SVGID_260_);}
	.st409{fill:url(#SVGID_261_);}
	.st410{fill:url(#SVGID_262_);}
	.st411{fill:url(#SVGID_263_);}
	.st412{fill:url(#SVGID_264_);}
	.st413{fill:url(#SVGID_265_);}
	.st414{fill:url(#SVGID_266_);}
	.st415{fill:url(#SVGID_267_);}
	.st416{fill:url(#SVGID_268_);}
	.st417{fill:url(#SVGID_269_);}
	.st418{fill:url(#SVGID_270_);}
	.st419{fill:url(#SVGID_271_);}
	.st420{fill:url(#SVGID_272_);}
	.st421{fill:url(#SVGID_273_);}
	.st422{fill:url(#SVGID_274_);}
	.st423{fill:url(#SVGID_275_);}
	.st424{fill:url(#SVGID_276_);}
	.st425{fill:url(#SVGID_277_);}
	.st426{fill:url(#SVGID_278_);}
	.st427{fill:url(#SVGID_279_);}
	.st428{fill:url(#SVGID_280_);}
	.st429{fill:url(#SVGID_281_);}
	.st430{fill:url(#SVGID_282_);}
	.st431{fill:url(#SVGID_283_);}
	.st432{fill:url(#SVGID_284_);}
	.st433{fill:url(#SVGID_285_);}
	.st434{fill:url(#SVGID_286_);}
	.st435{fill:url(#SVGID_287_);}
	.st436{fill:url(#SVGID_288_);}
	.st437{fill:url(#SVGID_289_);}
	.st438{fill:url(#SVGID_290_);}
	.st439{fill:url(#SVGID_291_);}
	.st440{fill:url(#SVGID_292_);}
	.st441{fill:url(#SVGID_293_);}
	.st442{fill:url(#SVGID_294_);}
	.st443{fill:url(#SVGID_295_);}
	.st444{fill:url(#SVGID_296_);}
	.st445{fill:url(#SVGID_297_);}
	.st446{fill:url(#SVGID_298_);}
	.st447{fill:url(#SVGID_299_);}
	.st448{fill:url(#SVGID_300_);}
	.st449{fill:url(#SVGID_301_);}
	.st450{fill:url(#SVGID_302_);}
	.st451{fill:url(#SVGID_303_);}
	.st452{fill:url(#SVGID_304_);}
	.st453{fill:url(#SVGID_305_);}
	.st454{fill:url(#SVGID_306_);}
	.st455{fill:url(#SVGID_307_);}
	.st456{fill:url(#SVGID_308_);}
	.st457{fill:url(#SVGID_309_);}
	.st458{fill:url(#SVGID_310_);}
	.st459{fill:url(#SVGID_311_);}
	.st460{fill:url(#SVGID_312_);}
	.st461{fill:url(#SVGID_313_);}
	.st462{fill:url(#SVGID_314_);}
	.st463{fill:url(#SVGID_315_);}
	.st464{fill:url(#SVGID_316_);}
	.st465{fill:url(#SVGID_317_);}
	.st466{fill:url(#SVGID_318_);}
	.st467{fill:url(#SVGID_319_);}
	.st468{fill:url(#SVGID_320_);}
	.st469{fill:url(#SVGID_321_);}
	.st470{fill:url(#SVGID_322_);}
	.st471{fill:url(#SVGID_323_);}
	.st472{fill:url(#SVGID_324_);}
	.st473{fill:url(#SVGID_325_);}
	.st474{fill:url(#SVGID_326_);}
	.st475{fill:url(#SVGID_327_);}
	.st476{fill:url(#SVGID_328_);}
	.st477{fill:url(#SVGID_329_);}
	.st478{fill:url(#SVGID_330_);}
	.st479{fill:url(#SVGID_331_);}
	.st480{fill:url(#SVGID_332_);}
	.st481{fill:url(#SVGID_333_);}
	.st482{fill:url(#SVGID_334_);}
	.st483{fill:url(#SVGID_335_);}
	.st484{fill:url(#SVGID_336_);}
	.st485{fill:url(#SVGID_337_);}
	.st486{fill:url(#SVGID_338_);}
	.st487{fill:url(#SVGID_339_);}
	.st488{fill:url(#SVGID_340_);}
	.st489{fill:url(#SVGID_341_);}
	.st490{fill:url(#SVGID_342_);}
	.st491{fill:url(#SVGID_343_);}
	.st492{fill:url(#SVGID_344_);}
	.st493{fill:url(#SVGID_345_);}
	.st494{fill:url(#SVGID_346_);}
	.st495{fill:url(#SVGID_347_);}
	.st496{fill:url(#SVGID_348_);}
	.st497{fill:url(#SVGID_349_);}
	.st498{fill:url(#SVGID_350_);}
	.st499{fill:url(#SVGID_351_);}
	.st500{fill:url(#SVGID_352_);}
	.st501{fill:url(#SVGID_353_);}
	.st502{fill:url(#SVGID_354_);}
	.st503{fill:url(#SVGID_355_);}
	.st504{fill:url(#SVGID_356_);}
	.st505{fill:url(#SVGID_357_);}
	.st506{fill:url(#SVGID_358_);}
	.st507{fill:url(#SVGID_359_);}
	.st508{fill:url(#SVGID_360_);}
	.st509{fill:url(#SVGID_361_);}
	.st510{fill:url(#SVGID_362_);}
	.st511{fill:url(#SVGID_363_);}
	.st512{fill:url(#SVGID_364_);}
	.st513{fill:url(#SVGID_365_);}
	.st514{fill:url(#SVGID_366_);}
	.st515{fill:url(#SVGID_367_);}
	.st516{fill:url(#SVGID_368_);}
	.st517{fill:url(#SVGID_369_);}
	.st518{fill:url(#SVGID_370_);}
	.st519{fill:url(#SVGID_371_);}
	.st520{fill:url(#SVGID_372_);}
	.st521{fill:url(#SVGID_373_);}
	.st522{fill:url(#SVGID_374_);}
	.st523{fill:url(#SVGID_375_);}
	.st524{fill:url(#SVGID_376_);}
	.st525{fill:url(#SVGID_377_);}
	.st526{clip-path:url(#SVGID_379_);}
	.st527{clip-path:url(#SVGID_381_);}
	.st528{fill:#F4F0A6;}
	.st529{clip-path:url(#SVGID_383_);}
	.st530{opacity:0.6;fill:none;stroke:#F7CFA2;stroke-miterlimit:10;}
	.st531{fill:none;stroke:#F7CFA2;stroke-miterlimit:10;}
	.st532{fill:#EAA56C;}
	.st533{clip-path:url(#SVGID_385_);fill:#F7EFDF;}
</style>
<g id="Layer_1">
	<rect x="1.3" y="1.1" class="st1" width="839.3" height="593"/>
	<g>
		<path class="st2" d="M841.6,364.3c0,0-219.3-204.5-357.1-288.2c-65-40-147-42-217-11c-19,9-37,17-53,31c-65,55-105,127-128,208
			c-10,40-19,78-21,118c-2.1,57.6-4.6,115.8-4.9,174.1l781.4-1L841.6,364.3z"/>
	</g>
	<g>
		<g>
			<path class="st17" d="M550,311.1c0,72.8-60,116.5-125.7,129c-36.8,7.2-66.4,8.2-103.2,0c-62.6-14.1-124.1-58.5-123.1-129
				c0-21.7,0-43.4,0-65.1c55.9-31.7,113.3-48.2,178-47.4c26,0.3,50.3,7.2,75.1,14.4c33.6,9.8,63.7,29.4,98.9,33
				C550,267.7,550,289.4,550,311.1z"/>
			<path class="st2" d="M272.1,349.5c-0.7-40.3,32-69,71.4-59.5c9.6,8.9,19.1,18,29.7,25.7c10.5-6.2,19.4-15,28-23.6
				c39.1-9.2,68,26.1,67.9,62.8c-0.1,11.5-0.2,23-0.3,34.5c-35.2-7.6-65,8.2-99.6,6.9c-34.2-1.3-62-14.9-97.1-9.6
				C272,374.3,272,361.9,272.1,349.5z"/>
			<path class="st24" d="M266.4,244.7c0.9,15.5-5.1,31.8-19.4,39.1c-6.8,3.2-10.1,4.8-16.7,7.7c-14.6,6.7-20.3-9.5-20.3-21.2
				c-0.1-7.6-0.2-11.5-0.3-19.1c18.2-9.7,36.3-18.8,55.8-25.9C265.9,233,266,236.9,266.4,244.7z"/>
			<path class="st24" d="M334.2,233.6c0.5,14-4.1,32.3-21.1,31.9c-7.1-0.2-10.7-0.1-17.8,0.9c-15.3,2.3-22.3-9.9-22.7-23.8
				c-0.3-7.8-0.4-11.6-0.7-19.2c20.6-5.3,40.8-8.7,61.9-10.6C334,220.7,334.1,224.9,334.2,233.6z"/>
			<path class="st24" d="M398.5,234.3c-0.6,13-1.6,36.3-19.2,38c-6.8,0.2-10.2-0.1-17.2-0.9c-16.6-2.2-22.2-23.8-21.8-37.7
				c-0.1-8.9-0.2-13.3-0.3-21.3c19.6-1.1,38.6-1.7,58.1-0.1C398.3,220.4,398.3,225,398.5,234.3z"/>
			<path class="st24" d="M461.5,246.7c1.7,13.7-6.6,25.7-20.9,23.1c-6.8-1.2-10.1-1.4-16.6-1.3c-16.5,0.6-20.4-21.8-20.1-34.1
				c-0.2-9.1-0.3-13.5-0.4-21.6c19.8,2.5,38.9,8.4,57.8,14.6C461.2,234.9,461.3,238.8,461.5,246.7z"/>
			<path class="st24" d="M524.9,271.7c1.1,12.6-6.7,27.3-21,22.8c-6.9-2.3-10.3-3.6-17-6.3c-14.5-6.2-20.2-24.8-19.9-39.3
				c-0.1-8-0.2-11.9-0.2-19.6c19.5,7.8,38.3,16.9,58.2,23.7C525,260.5,524.9,264.2,524.9,271.7z"/>
			<path class="st24" d="M402.9,378.1c1.4-14.9,3.3-40.7,22-44.9c6.7-1.1,10.1-1.4,16.9-0.9c17.8,2.9,20.7,28.6,20.3,42.5
				c-0.2,9.9-0.3,15-0.4,24.5c-20.2-3.7-40.4,1.7-60.1,6.1C402.1,394.8,402.4,389.1,402.9,378.1z"/>
			<path class="st24" d="M339,376.6c1.2-12.2,3-40.3,22.6-36.1c6.9,1.2,10.4,1.5,17.2,1.3c19.1-0.5,18.2,24.7,18.2,37.5
				c-0.6,11.1-0.9,16.7-1.4,27.3c-19.7,4.2-38.4,2.8-57.8-2.3C338.3,393.6,338.6,387.8,339,376.6z"/>
			<path class="st24" d="M275.1,372.8c-0.2-14.2,2.4-40.9,20.6-44.1c7.1-0.7,10.7-0.5,17.7,0.5c19.7,3.9,19.7,30.8,19.8,45.9
				c-0.4,11.3-0.6,17.1-1,27.9c-19.8-4.6-36.8-6.4-57.2-4.3C275.2,388.6,275.2,383.3,275.1,372.8z"/>
		</g>
	</g>
	<path class="st17" d="M321.2,124.4c-19.5-12.2-40.8-20.6-64.1-23.8c-30.6-4.7-60.9-2.6-89.7,7.3c-0.5,11-0.4,22-0.3,33
		c56.8-12.1,115.3-11.8,169.2,19.1c6.8,4,17.7,8.8,23.5,1.7C359,154.9,344.4,140.3,321.2,124.4z"/>
	<path class="st17" d="M306.5,138.7c-17.7-0.8-35.3,1.6-52.2,8.3c-22.4,8.5-41.9,21.4-57.6,39c3.8,7.6,8.1,15,12.3,22.3
		c33.6-29.8,73.1-51.8,121.1-51.4c6.1,0.1,15.3-0.8,16.4-7.8C343.5,144.9,328.1,140.6,306.5,138.7z"/>
	<path class="st17" d="M439.7,125c15.6-9.7,32.6-16.5,51.3-19.1c24.5-3.7,48.7-2.1,71.7,5.9c0.4,8.8,0.3,17.6,0.3,26.4
		c-45.5-9.7-92.3-9.4-135.3,15.3c-5.5,3.2-14.1,7.1-18.8,1.3C409.6,149.3,421.2,137.6,439.7,125z"/>
	<path class="st17" d="M451.5,136.4c14.2-0.6,28.2,1.3,41.7,6.7c17.9,6.8,33.6,17.1,46,31.2c-3,6.1-6.5,12-9.9,17.9
		c-26.9-23.8-58.5-41.4-96.9-41.2c-4.9,0.1-12.2-0.6-13.1-6.2C421.9,141.3,434.2,137.9,451.5,136.4z"/>
</g>
<g id="Layer_2">
</g>
</svg>
