<?xml version="1.0" encoding="utf-8"?>
<!-- Generator: Adobe Illustrator 21.1.0, SVG Export Plug-In . SVG Version: 6.00 Build 0)  -->
<svg version="1.1" xmlns="http://www.w3.org/2000/svg" xmlns:xlink="http://www.w3.org/1999/xlink" x="0px" y="0px"
	 viewBox="0 0 841.9 595.3" style="enable-background:new 0 0 841.9 595.3;" xml:space="preserve">
<style type="text/css">
	.st0{fill:#601515;}
	.st1{fill:#3FBA51;}
	.st2{fill:none;stroke:#601515;stroke-width:2;stroke-miterlimit:10;}
	.st3{fill:#F2C85F;}
	.st4{fill:#F2D3AD;}
	.st5{fill:#674C91;}
	.st6{fill:#DCFFC5;}
	.st7{fill:#8BAA77;}
	.st8{clip-path:url(#SVGID_2_);fill:#F1F3F7;}
	.st9{opacity:0.4;clip-path:url(#SVGID_2_);fill:#DCDDE0;}
	.st10{clip-path:url(#SVGID_2_);fill:#0076B7;}
	.st11{clip-path:url(#SVGID_2_);fill:#FFFFFF;}
	.st12{clip-path:url(#SVGID_2_);}
	.st13{fill:#FFFFFF;}
	.st14{fill:#F7CFA2;}
	.st15{fill:#ECB8FF;}
	.st16{fill:#393D47;}
	.st17{fill:#E86767;}
	.st18{opacity:0.1;fill:#3C2813;}
	.st19{fill:#EEEBE7;}
	.st20{fill:#3C2813;}
	.st21{fill:#795ACC;}
	.st22{fill:none;}
	.st23{clip-path:url(#SVGID_6_);fill:#F7EFDF;}
	.st24{fill:#3EBA50;}
	.st25{display:none;opacity:0.3;}
	.st26{fill:#F7EFDF;}
	.st27{fill:#4E9FA8;}
	.st28{fill:none;stroke:#231F20;stroke-width:2;stroke-miterlimit:10;}
	.st29{fill:#231F20;}
	.st30{fill:none;stroke:#674C91;stroke-miterlimit:10;}
	.st31{fill:#601515;stroke:#601515;stroke-miterlimit:10;}
	.st32{fill:none;stroke:#601515;stroke-miterlimit:10;}
	.st33{fill:none;stroke:#FFFFFF;stroke-miterlimit:10;}
	.st34{fill:url(#SVGID_9_);}
	.st35{fill:#601515;stroke:#8C8779;stroke-width:6;stroke-miterlimit:10;}
	.st36{fill:url(#SVGID_10_);}
	.st37{fill:none;stroke:#4E9FA8;stroke-width:12;stroke-miterlimit:10;}
	.st38{fill:#E0EA18;}
	.st39{clip-path:url(#SVGID_12_);fill:#F7EFDF;}
	.st40{fill:url(#SVGID_13_);}
	.st41{fill:url(#SVGID_14_);}
	.st42{fill:#EFEA35;}
	.st43{fill:url(#SVGID_15_);}
	.st44{fill:url(#SVGID_16_);}
	.st45{fill:url(#SVGID_17_);}
	.st46{fill:url(#SVGID_18_);}
	.st47{fill:url(#SVGID_19_);}
	.st48{fill:#C1C1B8;}
	.st49{fill:#9B9B97;}
	.st50{fill:#D8D8D2;}
	.st51{opacity:0.4;}
	.st52{opacity:0.6;}
	.st53{fill:#CEBABA;}
	.st54{fill:#EAEAE5;}
	.st55{fill:url(#SVGID_20_);}
	.st56{fill:url(#SVGID_21_);}
	.st57{fill:url(#SVGID_22_);}
	.st58{fill:url(#SVGID_23_);}
	.st59{fill:url(#SVGID_24_);}
	.st60{fill:url(#SVGID_25_);}
	.st61{fill:url(#SVGID_26_);}
	.st62{fill:url(#SVGID_27_);}
	.st63{fill:url(#SVGID_28_);}
	.st64{fill:#6BA8B2;}
	.st65{fill:#F1F3F7;}
	.st66{fill:#F0BA7A;}
	.st67{opacity:0.4;fill:#DCDDE0;}
	.st68{fill:#0076B7;}
	.st69{opacity:0.3;}
	.st70{fill:#DCDDE0;}
	.st71{fill:#004868;}
	.st72{opacity:0.1;fill:#601515;}
	.st73{fill:#F9F9F9;}
	.st74{fill:#24272D;}
	.st75{fill:#EA6D50;}
	.st76{clip-path:url(#SVGID_30_);fill:#F0BA7A;}
	.st77{clip-path:url(#SVGID_30_);fill:#F1F3F7;}
	.st78{opacity:0.4;clip-path:url(#SVGID_30_);fill:#DCDDE0;}
	.st79{clip-path:url(#SVGID_30_);fill:#0076B7;}
	.st80{clip-path:url(#SVGID_30_);fill:#FFFFFF;}
	.st81{clip-path:url(#SVGID_30_);}
	.st82{opacity:0.3;fill:#601515;}
	.st83{fill:#5B1010;}
	.st84{clip-path:url(#SVGID_32_);fill:#F1F3F7;}
	.st85{clip-path:url(#SVGID_32_);fill:#F0BA7A;}
	.st86{opacity:0.4;clip-path:url(#SVGID_32_);fill:#DCDDE0;}
	.st87{clip-path:url(#SVGID_32_);fill:#0076B7;}
	.st88{clip-path:url(#SVGID_32_);fill:#FFFFFF;}
	.st89{clip-path:url(#SVGID_32_);}
	.st90{fill:#1F74C9;}
	.st91{fill:#595959;}
	.st92{opacity:0.1;fill:#8BAA77;}
	.st93{opacity:0.3;fill:#8BAA77;}
	.st94{opacity:0.1;fill:#595959;}
	.st95{opacity:0.3;fill:#595959;}
	.st96{fill:#9E921E;}
	.st97{clip-path:url(#SVGID_34_);fill:#F0BA7A;}
	.st98{clip-path:url(#SVGID_34_);fill:#F1F3F7;}
	.st99{clip-path:url(#SVGID_34_);}
	.st100{clip-path:url(#SVGID_34_);fill:#393D47;}
	.st101{clip-path:url(#SVGID_34_);fill:#FFFFFF;}
	.st102{opacity:0.4;clip-path:url(#SVGID_34_);fill:#DCDDE0;}
	.st103{clip-path:url(#SVGID_34_);fill:#0076B7;}
	.st104{fill:#B72C34;}
	.st105{clip-path:url(#SVGID_36_);fill:#F1F3F7;}
	.st106{clip-path:url(#SVGID_36_);}
	.st107{clip-path:url(#SVGID_38_);fill:#F1F3F7;}
	.st108{opacity:0.4;clip-path:url(#SVGID_38_);fill:#DCDDE0;}
	.st109{clip-path:url(#SVGID_38_);fill:#0076B7;}
	.st110{clip-path:url(#SVGID_38_);fill:#FFFFFF;}
	.st111{clip-path:url(#SVGID_38_);}
	.st112{fill:url(#SVGID_39_);}
	.st113{fill:url(#SVGID_40_);}
	.st114{fill:url(#SVGID_41_);}
	.st115{fill:url(#SVGID_42_);}
	.st116{fill:#A52323;}
	.st117{clip-path:url(#SVGID_44_);fill:#F1F3F7;}
	.st118{opacity:0.4;clip-path:url(#SVGID_44_);fill:#DCDDE0;}
	.st119{clip-path:url(#SVGID_44_);fill:#0076B7;}
	.st120{clip-path:url(#SVGID_44_);fill:#FFFFFF;}
	.st121{clip-path:url(#SVGID_44_);}
	.st122{fill:#023142;}
	.st123{clip-path:url(#SVGID_46_);fill:#F7CFA2;}
	.st124{clip-path:url(#SVGID_46_);}
	.st125{opacity:0.3;fill:#E57257;}
	.st126{opacity:0.2;}
	.st127{fill:#656D60;}
	.st128{clip-path:url(#SVGID_48_);fill:#F0BA7A;}
	.st129{clip-path:url(#SVGID_48_);fill:#F1F3F7;}
	.st130{opacity:0.4;clip-path:url(#SVGID_48_);fill:#DCDDE0;}
	.st131{clip-path:url(#SVGID_48_);fill:#0076B7;}
	.st132{clip-path:url(#SVGID_48_);fill:#FFFFFF;}
	.st133{clip-path:url(#SVGID_48_);}
	.st134{font-family:'ElegantLux-Mager';}
	.st135{font-size:26px;}
	.st136{font-family:'Bungee-Regular';}
	.st137{font-size:22px;}
	.st138{clip-path:url(#SVGID_50_);fill:#F1F3F7;}
	.st139{opacity:0.4;clip-path:url(#SVGID_50_);fill:#DCDDE0;}
	.st140{clip-path:url(#SVGID_50_);fill:#0076B7;}
	.st141{clip-path:url(#SVGID_50_);fill:#FFFFFF;}
	.st142{clip-path:url(#SVGID_50_);}
	.st143{clip-path:url(#SVGID_52_);fill:#F1F3F7;}
	.st144{opacity:0.4;clip-path:url(#SVGID_52_);fill:#DCDDE0;}
	.st145{clip-path:url(#SVGID_52_);fill:#0076B7;}
	.st146{clip-path:url(#SVGID_52_);fill:#FFFFFF;}
	.st147{clip-path:url(#SVGID_52_);}
	.st148{fill:#9E9E9E;}
	.st149{fill:#878787;}
	.st150{fill:url(#SVGID_53_);}
	.st151{fill:#CE6117;}
	.st152{fill:url(#SVGID_54_);}
	.st153{fill:#EFE91B;}
	.st154{clip-path:url(#SVGID_56_);fill:#F0BA7A;}
	.st155{clip-path:url(#SVGID_56_);fill:#F1F3F7;}
	.st156{opacity:0.4;clip-path:url(#SVGID_56_);fill:#DCDDE0;}
	.st157{clip-path:url(#SVGID_56_);fill:#0076B7;}
	.st158{clip-path:url(#SVGID_56_);fill:#FFFFFF;}
	.st159{clip-path:url(#SVGID_56_);}
	.st160{fill:#B27E49;}
	.st161{clip-path:url(#SVGID_58_);fill:#F1F3F7;}
	.st162{opacity:0.4;clip-path:url(#SVGID_58_);fill:#DCDDE0;}
	.st163{clip-path:url(#SVGID_58_);fill:#0076B7;}
	.st164{clip-path:url(#SVGID_58_);fill:#FFFFFF;}
	.st165{clip-path:url(#SVGID_58_);}
	.st166{fill:#8454D1;}
	.st167{clip-path:url(#SVGID_60_);fill:#393D47;}
	.st168{clip-path:url(#SVGID_60_);fill:#F0BA7A;}
	.st169{clip-path:url(#SVGID_60_);fill:#F1F3F7;}
	.st170{clip-path:url(#SVGID_60_);fill:#0076B7;}
	.st171{clip-path:url(#SVGID_60_);fill:#004868;}
	.st172{opacity:0.4;clip-path:url(#SVGID_60_);fill:#DCDDE0;}
	.st173{clip-path:url(#SVGID_60_);fill:#FFFFFF;}
	.st174{clip-path:url(#SVGID_60_);}
	.st175{fill:none;stroke:#EA6D50;stroke-width:2;stroke-miterlimit:10;}
	.st176{fill:url(#SVGID_61_);}
	.st177{fill:#777777;}
	.st178{fill:#A85848;}
	.st179{fill:#E85646;}
	.st180{fill:#EA4E39;}
	.st181{clip-path:url(#SVGID_63_);fill:#F1F3F7;}
	.st182{clip-path:url(#SVGID_63_);}
	.st183{fill:#B23C18;}
	.st184{fill:#6B2A05;}
	.st185{fill:#B23C18;stroke:#6B2A05;stroke-miterlimit:10;}
	.st186{fill:#DDAA78;}
	.st187{fill:#211205;}
	.st188{fill:none;stroke:#6B2A05;stroke-width:0.729;stroke-miterlimit:10;}
	.st189{fill:#B23C18;stroke:#6B2A05;stroke-width:0.729;stroke-miterlimit:10;}
	.st190{fill:#BBE8F2;}
	.st191{opacity:0.3;fill:#F2F8F9;}
	.st192{opacity:0.2;fill:#601515;}
	.st193{fill:#FFFF00;}
	.st194{fill:#594EEA;}
	.st195{fill:#FF0B0B;}
	.st196{fill:none;stroke:#3FBA51;stroke-width:8;stroke-miterlimit:10;}
	.st197{fill:none;stroke:#3FBA51;stroke-width:7.2;stroke-miterlimit:10;}
	.st198{fill:none;stroke:#3FBA51;stroke-width:7.2;stroke-linecap:round;stroke-miterlimit:10;}
	.st199{fill:none;stroke:#3FBA51;stroke-width:8;stroke-linecap:round;stroke-miterlimit:10;}
	.st200{fill:none;stroke:#3FBA51;stroke-width:5.1175;stroke-miterlimit:10;}
	.st201{fill:#4F5565;}
	.st202{fill:#D64E3C;}
	.st203{fill:#F7A500;}
	.st204{fill:#FBD303;}
	.st205{fill:#FCFCFD;}
	.st206{fill:#F8B517;}
	.st207{fill:#F0582F;}
	.st208{fill:#BAE8F2;}
	.st209{fill:#F7EA72;}
	.st210{clip-path:url(#SVGID_65_);fill:#F7EFDF;}
	.st211{fill:none;stroke:#3FBA51;stroke-width:6.4304;stroke-miterlimit:10;}
	.st212{fill:url(#SVGID_66_);}
	.st213{fill:url(#SVGID_67_);}
	.st214{fill:url(#SVGID_68_);}
	.st215{fill:url(#SVGID_69_);}
	.st216{fill:url(#SVGID_70_);}
	.st217{fill:url(#SVGID_71_);}
	.st218{fill:url(#SVGID_72_);}
	.st219{fill:url(#SVGID_73_);}
	.st220{fill:url(#SVGID_74_);}
	.st221{fill:url(#SVGID_75_);}
	.st222{fill:url(#SVGID_76_);}
	.st223{fill:url(#SVGID_77_);}
	.st224{fill:url(#SVGID_78_);}
	.st225{fill:url(#SVGID_79_);}
	.st226{fill:url(#SVGID_80_);}
	.st227{fill:url(#SVGID_81_);}
	.st228{fill:url(#SVGID_82_);}
	.st229{fill:url(#SVGID_83_);}
	.st230{fill:url(#SVGID_84_);}
	.st231{fill:url(#SVGID_85_);}
	.st232{fill:url(#SVGID_86_);}
	.st233{fill:url(#SVGID_87_);}
	.st234{fill:url(#SVGID_88_);}
	.st235{fill:url(#SVGID_89_);}
	.st236{fill:url(#SVGID_90_);}
	.st237{fill:url(#SVGID_91_);}
	.st238{fill:url(#SVGID_92_);}
	.st239{fill:url(#SVGID_93_);}
	.st240{fill:url(#SVGID_94_);}
	.st241{fill:url(#SVGID_95_);}
	.st242{fill:url(#SVGID_96_);}
	.st243{fill:url(#SVGID_97_);}
	.st244{fill:url(#SVGID_98_);}
	.st245{fill:url(#SVGID_99_);}
	.st246{fill:url(#SVGID_100_);}
	.st247{fill:url(#SVGID_101_);}
	.st248{opacity:0.7;fill:#7BCDDB;}
	.st249{fill:none;stroke:#F0BA7A;stroke-width:3;stroke-miterlimit:10;}
	.st250{fill:url(#SVGID_102_);}
	.st251{fill:url(#SVGID_103_);}
	.st252{fill:url(#SVGID_104_);}
	.st253{fill:url(#SVGID_105_);}
	.st254{fill:url(#SVGID_106_);}
	.st255{fill:url(#SVGID_107_);}
	.st256{fill:url(#SVGID_108_);}
	.st257{opacity:0.5;fill:#302929;}
	.st258{fill:#EF3F50;}
	.st259{fill:url(#SVGID_109_);}
	.st260{fill:url(#SVGID_110_);}
	.st261{fill:url(#SVGID_111_);}
	.st262{fill:url(#SVGID_112_);}
	.st263{opacity:0.6;fill:#302929;}
	.st264{fill:url(#SVGID_113_);}
	.st265{fill:url(#SVGID_114_);}
	.st266{fill:url(#SVGID_115_);}
	.st267{fill:url(#SVGID_116_);}
	.st268{fill:url(#SVGID_117_);}
	.st269{fill:url(#SVGID_118_);}
	.st270{fill:url(#SVGID_119_);}
	.st271{fill:url(#SVGID_120_);}
	.st272{fill:url(#SVGID_121_);}
	.st273{fill:url(#SVGID_122_);}
	.st274{fill:url(#SVGID_123_);}
	.st275{fill:url(#SVGID_124_);}
	.st276{fill:url(#SVGID_125_);}
	.st277{fill:url(#SVGID_126_);}
	.st278{fill:url(#SVGID_127_);}
	.st279{fill:url(#SVGID_128_);}
	.st280{fill:url(#SVGID_129_);}
	.st281{fill:url(#SVGID_130_);}
	.st282{fill:url(#SVGID_131_);}
	.st283{fill:url(#SVGID_132_);}
	.st284{fill:url(#SVGID_133_);}
	.st285{fill:url(#SVGID_134_);}
	.st286{fill:url(#SVGID_135_);}
	.st287{fill:url(#SVGID_136_);}
	.st288{fill:url(#SVGID_137_);}
	.st289{fill:url(#SVGID_138_);}
	.st290{fill:url(#SVGID_139_);}
	.st291{fill:url(#SVGID_140_);}
	.st292{fill:url(#SVGID_141_);}
	.st293{fill:url(#SVGID_142_);}
	.st294{fill:url(#SVGID_143_);}
	.st295{fill:url(#SVGID_144_);}
	.st296{fill:url(#SVGID_145_);}
	.st297{fill:url(#SVGID_146_);}
	.st298{fill:url(#SVGID_147_);}
	.st299{fill:url(#SVGID_148_);}
	.st300{fill:url(#SVGID_149_);}
	.st301{fill:url(#SVGID_150_);}
	.st302{fill:url(#SVGID_151_);}
	.st303{fill:url(#SVGID_152_);}
	.st304{fill:url(#SVGID_153_);}
	.st305{fill:url(#SVGID_154_);}
	.st306{fill:url(#SVGID_155_);}
	.st307{fill:url(#SVGID_156_);}
	.st308{fill:url(#SVGID_157_);}
	.st309{fill:url(#SVGID_158_);}
	.st310{fill:url(#SVGID_159_);}
	.st311{fill:url(#SVGID_160_);}
	.st312{fill:url(#SVGID_161_);}
	.st313{fill:url(#SVGID_162_);}
	.st314{fill:url(#SVGID_163_);}
	.st315{fill:url(#SVGID_164_);}
	.st316{fill:url(#SVGID_165_);}
	.st317{fill:url(#SVGID_166_);}
	.st318{fill:url(#SVGID_167_);}
	.st319{fill:url(#SVGID_168_);}
	.st320{fill:url(#SVGID_169_);}
	.st321{fill:url(#SVGID_170_);}
	.st322{fill:url(#SVGID_171_);}
	.st323{fill:url(#SVGID_172_);}
	.st324{fill:url(#SVGID_173_);}
	.st325{fill:url(#SVGID_174_);}
	.st326{fill:url(#SVGID_175_);}
	.st327{fill:url(#SVGID_176_);}
	.st328{fill:url(#SVGID_177_);}
	.st329{fill:url(#SVGID_178_);}
	.st330{fill:url(#SVGID_179_);}
	.st331{fill:url(#SVGID_180_);}
	.st332{fill:url(#SVGID_181_);}
	.st333{fill:url(#SVGID_182_);}
	.st334{fill:url(#SVGID_183_);}
	.st335{fill:url(#SVGID_184_);}
	.st336{fill:url(#SVGID_185_);}
	.st337{fill:url(#SVGID_186_);}
	.st338{fill:url(#SVGID_187_);}
	.st339{fill:url(#SVGID_188_);}
	.st340{fill:url(#SVGID_189_);}
	.st341{fill:url(#SVGID_190_);}
	.st342{fill:url(#SVGID_191_);}
	.st343{fill:url(#SVGID_192_);}
	.st344{fill:url(#SVGID_193_);}
	.st345{fill:url(#SVGID_194_);}
	.st346{fill:url(#SVGID_195_);}
	.st347{fill:url(#SVGID_196_);}
	.st348{fill:url(#SVGID_197_);}
	.st349{fill:url(#SVGID_198_);}
	.st350{fill:url(#SVGID_199_);}
	.st351{fill:url(#SVGID_200_);}
	.st352{fill:url(#SVGID_201_);}
	.st353{fill:url(#SVGID_202_);}
	.st354{fill:url(#SVGID_203_);}
	.st355{fill:url(#SVGID_204_);}
	.st356{fill:url(#SVGID_205_);}
	.st357{fill:url(#SVGID_206_);}
	.st358{fill:url(#SVGID_207_);}
	.st359{fill:url(#SVGID_208_);}
	.st360{fill:url(#SVGID_209_);}
	.st361{fill:url(#SVGID_210_);}
	.st362{fill:url(#SVGID_211_);}
	.st363{fill:url(#SVGID_212_);}
	.st364{fill:url(#SVGID_213_);}
	.st365{fill:url(#SVGID_214_);}
	.st366{fill:url(#SVGID_215_);}
	.st367{fill:url(#SVGID_216_);}
	.st368{fill:url(#SVGID_217_);}
	.st369{fill:url(#SVGID_218_);}
	.st370{fill:url(#SVGID_219_);}
	.st371{fill:url(#SVGID_220_);}
	.st372{fill:url(#SVGID_221_);}
	.st373{fill:url(#SVGID_222_);}
	.st374{fill:url(#SVGID_223_);}
	.st375{fill:url(#SVGID_224_);}
	.st376{fill:url(#SVGID_225_);}
	.st377{fill:url(#SVGID_226_);}
	.st378{fill:url(#SVGID_227_);}
	.st379{fill:url(#SVGID_228_);}
	.st380{fill:url(#SVGID_229_);}
	.st381{fill:url(#SVGID_230_);}
	.st382{fill:url(#SVGID_231_);}
	.st383{fill:url(#SVGID_232_);}
	.st384{fill:url(#SVGID_233_);}
	.st385{fill:url(#SVGID_234_);}
	.st386{fill:url(#SVGID_235_);}
	.st387{fill:url(#SVGID_236_);}
	.st388{fill:url(#SVGID_237_);}
	.st389{fill:url(#SVGID_238_);}
	.st390{fill:url(#SVGID_239_);}
	.st391{fill:none;stroke:#9B9B97;stroke-miterlimit:10;}
	.st392{fill:url(#SVGID_240_);}
	.st393{fill:url(#SVGID_241_);}
	.st394{fill:url(#SVGID_242_);}
	.st395{fill:url(#SVGID_243_);}
	.st396{fill:url(#SVGID_244_);}
	.st397{fill:url(#SVGID_245_);}
	.st398{fill:url(#SVGID_246_);}
	.st399{fill:url(#SVGID_247_);}
	.st400{fill:url(#SVGID_248_);}
	.st401{fill:url(#SVGID_249_);}
	.st402{fill:url(#SVGID_250_);}
	.st403{fill:url(#SVGID_251_);}
	.st404{fill:url(#SVGID_252_);}
	.st405{fill:url(#SVGID_253_);}
	.st406{fill:url(#SVGID_254_);}
	.st407{fill:url(#SVGID_255_);}
	.st408{fill:url(#SVGID_256_);}
	.st409{fill:url(#SVGID_257_);}
	.st410{fill:url(#SVGID_258_);}
	.st411{fill:url(#SVGID_259_);}
	.st412{fill:url(#SVGID_260_);}
	.st413{fill:url(#SVGID_261_);}
	.st414{fill:url(#SVGID_262_);}
	.st415{fill:url(#SVGID_263_);}
	.st416{fill:url(#SVGID_264_);}
	.st417{fill:url(#SVGID_265_);}
	.st418{fill:url(#SVGID_266_);}
	.st419{fill:url(#SVGID_267_);}
	.st420{fill:url(#SVGID_268_);}
	.st421{fill:url(#SVGID_269_);}
	.st422{fill:url(#SVGID_270_);}
	.st423{fill:url(#SVGID_271_);}
	.st424{fill:url(#SVGID_272_);}
	.st425{fill:url(#SVGID_273_);}
	.st426{fill:url(#SVGID_274_);}
	.st427{fill:url(#SVGID_275_);}
	.st428{fill:url(#SVGID_276_);}
	.st429{fill:url(#SVGID_277_);}
	.st430{fill:url(#SVGID_278_);}
	.st431{fill:url(#SVGID_279_);}
	.st432{fill:url(#SVGID_280_);}
	.st433{fill:url(#SVGID_281_);}
	.st434{fill:url(#SVGID_282_);}
	.st435{fill:url(#SVGID_283_);}
	.st436{fill:url(#SVGID_284_);}
	.st437{fill:url(#SVGID_285_);}
	.st438{fill:url(#SVGID_286_);}
	.st439{fill:url(#SVGID_287_);}
	.st440{fill:url(#SVGID_288_);}
	.st441{fill:url(#SVGID_289_);}
	.st442{fill:url(#SVGID_290_);}
	.st443{fill:url(#SVGID_291_);}
	.st444{fill:url(#SVGID_292_);}
	.st445{fill:url(#SVGID_293_);}
	.st446{fill:url(#SVGID_294_);}
	.st447{fill:url(#SVGID_295_);}
	.st448{fill:url(#SVGID_296_);}
	.st449{fill:url(#SVGID_297_);}
	.st450{fill:url(#SVGID_298_);}
	.st451{fill:url(#SVGID_299_);}
	.st452{fill:url(#SVGID_300_);}
	.st453{fill:url(#SVGID_301_);}
	.st454{fill:url(#SVGID_302_);}
	.st455{fill:url(#SVGID_303_);}
	.st456{fill:url(#SVGID_304_);}
	.st457{fill:url(#SVGID_305_);}
	.st458{fill:url(#SVGID_306_);}
	.st459{fill:url(#SVGID_307_);}
	.st460{fill:url(#SVGID_308_);}
	.st461{fill:url(#SVGID_309_);}
	.st462{fill:url(#SVGID_310_);}
	.st463{fill:url(#SVGID_311_);}
	.st464{fill:url(#SVGID_312_);}
	.st465{fill:url(#SVGID_313_);}
	.st466{fill:url(#SVGID_314_);}
	.st467{fill:url(#SVGID_315_);}
	.st468{fill:url(#SVGID_316_);}
	.st469{fill:url(#SVGID_317_);}
	.st470{fill:url(#SVGID_318_);}
	.st471{fill:url(#SVGID_319_);}
	.st472{fill:url(#SVGID_320_);}
	.st473{fill:url(#SVGID_321_);}
	.st474{fill:url(#SVGID_322_);}
	.st475{fill:url(#SVGID_323_);}
	.st476{fill:url(#SVGID_324_);}
	.st477{fill:url(#SVGID_325_);}
	.st478{fill:url(#SVGID_326_);}
	.st479{fill:url(#SVGID_327_);}
	.st480{fill:url(#SVGID_328_);}
	.st481{fill:url(#SVGID_329_);}
	.st482{fill:url(#SVGID_330_);}
	.st483{fill:url(#SVGID_331_);}
	.st484{fill:url(#SVGID_332_);}
	.st485{fill:url(#SVGID_333_);}
	.st486{fill:url(#SVGID_334_);}
	.st487{fill:url(#SVGID_335_);}
	.st488{fill:url(#SVGID_336_);}
	.st489{fill:url(#SVGID_337_);}
	.st490{fill:url(#SVGID_338_);}
	.st491{fill:url(#SVGID_339_);}
	.st492{fill:url(#SVGID_340_);}
	.st493{fill:url(#SVGID_341_);}
	.st494{fill:url(#SVGID_342_);}
	.st495{fill:url(#SVGID_343_);}
	.st496{fill:url(#SVGID_344_);}
	.st497{fill:url(#SVGID_345_);}
	.st498{fill:url(#SVGID_346_);}
	.st499{fill:url(#SVGID_347_);}
	.st500{fill:url(#SVGID_348_);}
	.st501{fill:url(#SVGID_349_);}
	.st502{fill:url(#SVGID_350_);}
	.st503{fill:url(#SVGID_351_);}
	.st504{fill:url(#SVGID_352_);}
	.st505{fill:url(#SVGID_353_);}
	.st506{fill:url(#SVGID_354_);}
	.st507{fill:url(#SVGID_355_);}
	.st508{fill:url(#SVGID_356_);}
	.st509{fill:url(#SVGID_357_);}
	.st510{fill:url(#SVGID_358_);}
	.st511{fill:url(#SVGID_359_);}
	.st512{fill:url(#SVGID_360_);}
	.st513{fill:url(#SVGID_361_);}
	.st514{fill:url(#SVGID_362_);}
	.st515{fill:url(#SVGID_363_);}
	.st516{fill:url(#SVGID_364_);}
	.st517{fill:url(#SVGID_365_);}
	.st518{fill:url(#SVGID_366_);}
	.st519{fill:url(#SVGID_367_);}
	.st520{fill:url(#SVGID_368_);}
	.st521{fill:url(#SVGID_369_);}
	.st522{fill:url(#SVGID_370_);}
	.st523{fill:url(#SVGID_371_);}
	.st524{fill:url(#SVGID_372_);}
	.st525{fill:url(#SVGID_373_);}
	.st526{fill:url(#SVGID_374_);}
	.st527{fill:url(#SVGID_375_);}
	.st528{fill:url(#SVGID_376_);}
	.st529{fill:url(#SVGID_377_);}
	.st530{clip-path:url(#SVGID_379_);}
	.st531{clip-path:url(#SVGID_381_);}
	.st532{fill:#F4F0A6;}
	.st533{clip-path:url(#SVGID_383_);}
	.st534{opacity:0.6;fill:none;stroke:#F7CFA2;stroke-miterlimit:10;}
	.st535{fill:none;stroke:#F7CFA2;stroke-miterlimit:10;}
	.st536{fill:#EAA56C;}
	.st537{clip-path:url(#SVGID_385_);fill:#F7EFDF;}
</style>
<symbol  id="barras" viewBox="-216.8 -86.2 433.6 172.4">
	<g>
		<rect x="113.2" y="-86.2" class="st22" width="103.6" height="30.9"/>
		<text transform="matrix(1 0 0 -1 126.502 -65.4814)" class="st0 st134" style="font-size:15.36px;">Casi Siempre</text>
	</g>
	<rect x="-105.9" y="-35" class="st1" width="87" height="28.2"/>
	<rect x="-215.8" y="-35.3" class="st1" width="87" height="8.8"/>
	<rect x="7.8" y="-35" class="st1" width="87" height="61.7"/>
	<rect x="121.5" y="-35" class="st1" width="87" height="120.1"/>
	<g>
		<rect x="-101.5" y="-73.4" class="st22" width="78" height="18.1"/>
		<text transform="matrix(1 0 0 -1 -95.3037 -65.4814)" class="st0 st134" style="font-size:15.36px;">Casi nunca</text>
	</g>
	<rect x="-105.9" y="-35" class="st2" width="87" height="28.2"/>
	<g>
		<rect x="-192.1" y="-86.2" class="st22" width="39.6" height="30.9"/>
		<text transform="matrix(1 0 0 -1 -191.6748 -65.4814)" class="st0 st134" style="font-size:15.36px;">Nunca</text>
	</g>
	<rect x="-215.8" y="-35.3" class="st2" width="87" height="8.8"/>
	<g>
		<rect x="-3.7" y="-86.2" class="st22" width="110" height="30.9"/>
		<text transform="matrix(1 0 0 -1 9.9785 -65.4795)" class="st0 st134" style="font-size:15.36px;">Algunas veces</text>
	</g>
	<rect x="7.8" y="-35" class="st2" width="87" height="61.7"/>
	<rect x="121.5" y="-35" class="st2" width="87" height="120.1"/>
</symbol>
<g id="Layer_1">
	<path class="st13" d="M763.5,61.3c4.6-4.2,9.3-8.2,14.3-11.5c9-6.1,20.3-9.5,28.8-0.6c14.1,14.6-5.7,36-16.7,45.8
		c-10,8.8-52,41.4-60,14.2c-1.6-5.4,2.3-11.7,4.1-16.1c2.2-5.2,10.9-5.7,11.8-7C750.2,79.4,757.5,66.8,763.5,61.3z"/>
	<g>
		<path class="st14" d="M739.2,110.3c0.2,0,0.4-0.1,0.7-0.1C739.7,110.2,739.4,110.3,739.2,110.3z"/>
	</g>
	<path class="st21" d="M734.1,99.2H621.9c-3.2,0-5.8-2.6-5.8-5.8V65.6c0-3.2,2.6-5.8,5.8-5.8h112.3c3.2,0,5.8,2.6,5.8,5.8v27.7
		C740,96.5,737.3,99.2,734.1,99.2z"/>
	<rect x="637.8" y="70" class="st22" width="81.9" height="28.3"/>
	<text transform="matrix(1 0 0 1 656.7847 87.3295)" class="st13 st134 st135">Listo</text>
	<rect x="32.2" y="72.9" class="st22" width="391.9" height="48.3"/>
	<text transform="matrix(1 0 0 1 32.1871 90.2035)" class="st0 st134 st135">Instrucciones</text>
	<rect x="32.2" y="72.9" class="st22" width="391.9" height="48.3"/>
	<text transform="matrix(1 0 0 1 32.1871 90.2035)" class="st0 st134 st135">Instrucciones</text>
	<rect x="34.9" y="28.9" class="st22" width="391.9" height="48.3"/>
	<text transform="matrix(1 0 0 1 34.8927 47.6332)" class="st0 st136 st135">HOla, Kaira POlet ARAYA</text>
	<polyline class="st22" points="684.1,16.9 681.7,65.2 292.2,65.2 	"/>
	<rect x="31.4" y="116.4" class="st22" width="571.9" height="88.3"/>
	<text transform="matrix(1 0 0 1 31.4317 131.0448)" class="st0 st134 st137">Otros compañeros-as me han molestado y fastidiado</text>
	<path class="st13" d="M797.5,268.2c-7,6-12,16-21,22v-1c-2,5-8,5-11,8c-2,3,7,3,3,7c18.8-6.7,32.2-21.6,40.5-39.1
		c-0.8-2.1-2-4-3.8-5.9c-1.9-2-4-5.1-6.1-7C800.2,258.5,800.5,264.5,797.5,268.2z"/>
	<circle class="st6" cx="687.4" cy="363.9" r="99.7"/>
	<g>
		<defs>
			<path id="SVGID_49_" d="M787.1,363.9c0,55.1-44.7,99.7-99.7,99.7s-99.7-44.7-99.7-99.7c0-55.1-18.2-171.1,112.2-162.6
				C754.8,204.9,787.1,308.8,787.1,363.9z"/>
		</defs>
		<clipPath id="SVGID_2_">
			<use xlink:href="#SVGID_49_"  style="overflow:visible;"/>
		</clipPath>
		<path class="st8" d="M744.7,414.2c0-13.2-0.3-22.2-10.9-26.7c-6.3-2.7-20.5-4.8-28.7-4.4l-32.1,1.5c-9.8,0.5-25.5,3.3-32.4,8
			c-8.4,5.6-7.1,14-7.1,25.5v90.6c0,5.7,1.3,11,3.6,15.8c33.9,0.9,68.2-1.1,102.3-1.6c3.3-5.8,5.3-12.3,5.3-19.2V414.2z"/>
		<path class="st8" d="M648.1,393.8l3.8,1.3c6.4,1.8,6.3,15.6-0.3,30.8l-11.1,30.4l-11.5,35.6c-3.6,8.3-5.8,15.1-9.9,18.2
			c-3.4,2.6-8.7,2.9-11.6,2.1l-9.4-2.6c-2.4-0.7-6.1-2.9-7-5.5c-1.5-4.4,1.2-11,5.3-20.5c0,0,19.1-48.2,14.7-36
			c-4.4,12.2,7.6-19.7,15.2-35.9C633.9,395.4,641.7,392,648.1,393.8z"/>
		<path class="st8" d="M727.7,387.3l-3.8,1.3c-6.4,1.8-6.3,15.6,0.3,30.8l11.1,30.4l11.5,35.6c3.6,8.3,5.8,15.1,9.9,18.2
			c3.4,2.6,8.7,2.9,11.6,2.1l9.4-2.6c2.4-0.7,6.1-2.9,7-5.5c1.5-4.4-1.2-11-5.3-20.5c0,0-19.1-48.2-14.7-36
			c4.4,12.2-7.6-19.7-15.2-35.9C741.8,389,734.1,385.6,727.7,387.3z"/>
		<polygon class="st9" points="689.2,418.7 689.2,383.8 704.3,390.8 		"/>
		<polygon class="st9" points="689.2,418.7 689.2,383.8 674.2,390.8 		"/>
		<polygon class="st10" points="700.2,389.4 688.9,384 679.9,390.9 685.8,399.9 693.4,400.1 		"/>
		<polygon class="st10" points="703.7,477.2 691.1,491.2 676.5,478.8 685.8,399.9 693.4,400.1 		"/>
		<polygon class="st11" points="689.2,383.8 689.2,384.5 703.7,397 710,384 707.1,378.4 		"/>
		<polygon class="st11" points="689.2,383.8 689.2,384.5 674.7,397 668.5,384 671.4,378.4 		"/>
		<g class="st12">
			<polygon class="st13" points="703.7,444.5 716.4,451 729.4,444.5 729.4,425.5 703.7,425.5 			"/>
			<rect x="703.7" y="417.4" class="st13" width="25.6" height="6"/>
		</g>
		<g class="st12">
			<path class="st14" d="M594.4,352.8c0,0.3,0,0.5,0,0.8C594.4,353.4,594.4,353.1,594.4,352.8z"/>
		</g>
	</g>
	<g>
		<path class="st14" d="M594.4,352.1c0,0.2,0,0.5,0,0.7C594.4,352.6,594.4,352.3,594.4,352.1z"/>
	</g>
	<g>
		<g>
			<path class="st14" d="M725.7,295.1c0.2-0.1,0.5-0.2,0.7-0.4C726.2,294.9,726,295,725.7,295.1z"/>
		</g>
		<g>
			<path class="st14" d="M725.1,295.4c0.2-0.1,0.4-0.2,0.6-0.3C725.5,295.2,725.3,295.3,725.1,295.4z"/>
		</g>
		<g>
			<path class="st14" d="M723.4,297.5c-0.1,0.9-0.3,2.6,0.4,3.3l2.7-6.1c-0.2,0.1-0.5,0.3-0.7,0.4c-0.2,0.1-0.4,0.2-0.6,0.3
				C724.3,295.9,723.6,296.4,723.4,297.5z"/>
		</g>
		
			<ellipse transform="matrix(0.952 -0.306 0.306 0.952 -51.7584 240.5608)" class="st14" cx="741.4" cy="285.4" rx="16.8" ry="16.8"/>
		
			<ellipse transform="matrix(0.952 -0.306 0.306 0.952 -51.7584 240.5608)" class="st66" cx="741.4" cy="285.4" rx="11.1" ry="11.1"/>
		<path class="st75" d="M716.9,346.4c0,0-8.3,12.2-22,16.6s-27.6-0.7-27.6-0.7s12.8-1.5,26.6-5.9
			C707.5,352.1,716.9,346.4,716.9,346.4z"/>
		<ellipse transform="matrix(0.952 -0.306 0.306 0.952 -62.7998 236.0081)" class="st66" cx="721.4" cy="318.3" rx="2.5" ry="1.3"/>
		<ellipse transform="matrix(0.952 -0.306 0.306 0.952 -61.4138 238.7607)" class="st66" cx="730.9" cy="315.3" rx="2.5" ry="1.3"/>
		<ellipse transform="matrix(0.952 -0.306 0.306 0.952 -63.4831 238.0774)" class="st66" cx="727.7" cy="321.5" rx="2.5" ry="1.3"/>
		<g class="st52">
			<g>
				<path class="st14" d="M648.2,207.9c4.9,0,9.5-2.5,14.2-3.7c5.1-1.2,10.4-0.4,15.5-1.6c0.8-0.2,0.6-1.4-0.2-1.4
					c-4.9,0.2-10-0.4-14.9,0.7c-4.7,1.1-10.8,2.7-14.7,5.5C647.8,207.6,647.9,207.9,648.2,207.9L648.2,207.9z"/>
			</g>
		</g>
	</g>
	<path class="st13" d="M653.7,447.3c-4.9,3.8-10,7.3-15.3,10.1c-9.6,5.2-21.1,7.5-28.7-2.1c-12.6-15.9,9-35.3,20.9-44
		c10.8-7.9,55.7-36.3,61-8.5c1.1,5.5-3.3,11.4-5.6,15.7c-2.7,5-11.4,4.6-12.4,5.9C668.6,430.5,660.2,442.3,653.7,447.3z"/>
	<path class="st65" d="M642,458.1c10.2-4.2,12-1.4,19.7-11.4c0.9-1-2.3-9.4-1.5-10.4c2-4.2,4.8-7.2,8.1-9.7c-2-3.9-3.3-8.4-4.8-12.5
		c2.9,4.6,8.8,6.2,14.6,5.7c1.3-0.9,2.6-1.9,3.9-3c3.6-3.7,7.6-5.2,7.8-10.1c0.1-2.4-0.1-4.9-0.7-7.1c-9.5-23.1-37.1,0.9-53,6.3
		c-1.7,1.2-3.4,2.4-5.1,3.6c-5,3.6-9.9,7.4-14.5,11.6c-1.3,1.5-2.5,3-3.6,4.6c-5.3,7.9-7.6,16.8-1.3,24.7c2.6,3.2,5.1,8.6,8.3,9.5
		c1.6,0.4,10.6,1.9,12.3,1.9C634.1,461.7,640.5,458.5,642,458.1z"/>
	<g>
		<path class="st248" d="M643.7,381.2c0,4.9,3.9,8.8,8.8,8.8s8.8-3.9,8.8-8.8s-8.8-21.1-8.8-21.1S643.7,376.3,643.7,381.2z"/>
	</g>
</g>
<g id="Layer_2">
	<rect x="34.9" y="28.9" class="st22" width="391.9" height="48.3"/>
	<text transform="matrix(1 0 0 1 34.8927 47.6332)" class="st0 st136 st135">HOla, Kaira POlet ARAYA</text>
	<path class="st16" d="M746.9,382.8c-0.2-0.8,25.2-86.9,25-87.7c-0.5-2.3-0.1-4.9-0.1-7.4c0-3.8-0.2-7.5-0.6-11.2
		c-5.5-47.7-46-84.7-95.2-84.7c-52.9,0-95.8,42.9-95.8,95.8c0,26,26.3,95.7,26.4,98.7c21.1-13.1,47.2,7,68.7-4.8
		C705.9,365.2,713.6,392.7,746.9,382.8z"/>
	<g>
		<defs>
			<path id="SVGID_382_" d="M785.6,367.2c0,55.1-44.7,99.7-99.7,99.7s-99.7-44.7-99.7-99.7c0-55.1,44.7-165.7,99.7-165.7
				S785.6,312.1,785.6,367.2z"/>
		</defs>
		<clipPath id="SVGID_4_">
			<use xlink:href="#SVGID_382_"  style="overflow:visible;"/>
		</clipPath>
		<g style="clip-path:url(#SVGID_4_);">
			<path class="st65" d="M721.5,423c0-15.4,6.5-27.6-3.3-32.8c-5.9-3.1-16.7-4.5-24.2-4.5l-30,1.7c-9.2,0.5-23.8,3.9-30.3,9.4
				c-7.8,6.6,1.2,17.3,1.2,30.8l13.8,82.7c0,6.7-0.2,33.1,2,38.7c31.6,1,25.2-3.3,57.1-3.9c3.1-6.7,1.3-14.2,1.3-22.3L721.5,423z"/>
			<path class="st65" d="M640.5,394.8l3.9,5c6,2,5.8,18.3-0.3,36l-10.3,35.6L623,513c-3.3,9.7-5.4,17.7-9.3,21.3
				c-3.2,3-8.1,3.4-10.8,2.4l-8.8-3c-2.2-0.8-5.7-3.4-6.6-6.5c-1.4-5.2,1.1-12.9,4.9-24c0,0,17.9-56.4,13.7-42.1
				c-4.1,14.2,7.1-23.1,14.2-42C627.6,400.2,634.5,392.7,640.5,394.8z"/>
			<path class="st65" d="M715.1,390.7l-3.6,1.5c-6,2-5.8,18.3,0.3,36l10.3,35.6l10.7,41.6c3.3,9.7,5.4,17.7,9.3,21.3
				c3.2,3,8.1,3.4,10.8,2.4l8.8-3c2.2-0.8,5.7-3.4,6.6-6.5c1.4-5.2-1.1-12.9-4.9-24c0,0-17.9-56.4-13.7-42.1
				c4.1,14.2-7.1-23.1-14.2-42C728.3,392.7,721,388.7,715.1,390.7z"/>
			<path class="st66" d="M682.5,391.8h-6.9c-6.8,0-12.3-5.5-12.3-12.3v-20.8c0-6.8,5.5-12.3,12.3-12.3h6.9c6.8,0,12.3,5.5,12.3,12.3
				v20.8C694.9,386.3,689.3,391.8,682.5,391.8z"/>
			<polygon class="st67" points="679.2,427.4 679.2,387.1 693.2,395.2 			"/>
			<polygon class="st67" points="679.2,427.4 679.2,386.6 665.1,394.8 			"/>
			<polygon class="st68" points="689.4,393.2 679.3,387.3 670.5,394.9 676,405.4 683.1,405.6 			"/>
			<polygon class="st68" points="692.7,495.8 681,512.2 667.3,497.7 676,405.4 683.1,405.6 			"/>
			<path class="st13" d="M679.2,386.6v0.7c0,0-6.5,16.9-13.3,11.8c-6.8-5.1-6.1-12.3-6.1-12.3l2.7-6.6L679.2,386.6z"/>
			<path class="st13" d="M679.5,386.6v0.7c0,0,6.5,16.9,13.3,11.8c6.8-5.1,6.1-12.3,6.1-12.3l-2.7-6.6L679.5,386.6z"/>
			<g class="st69">
				<polygon class="st70" points="692.7,457.6 704.5,465.1 716.7,457.6 716.7,435.3 692.7,435.3 				"/>
				<rect x="692.7" y="425.9" class="st70" width="23.9" height="7"/>
			</g>
			<path class="st71" d="M720.7,448.1c1.4-7,2.4-13.8,3.6-20.5c-1.3-1.1-2.5-2.3-3.6-3.6c-8.5-10-10.4-23.4-8.9-36.3
				c-3.5-0.8-7.3-1.5-10.8-1.8c0,6-0.5,12-1.2,18c0,3.5-2.2,6.6-3.9,10.1c-1.7,3.1-5.2,5.2-8.7,6.1c-20.6,5.1-31.3-13.1-33.5-31.2
				c-5.6,1.2-7.2,1.1-11.6,3.5c2,9.9-0.9,25.2-8.2,35.6c8.7,41.3,15.4,81.7,4.6,123.2c25.7,0.4,51.7-1.1,77.5-1.9
				C712.2,515.7,713.4,482.5,720.7,448.1z"/>
		</g>
	</g>
	<g>
		<path class="st153" d="M720.2,423.9h-4.1c-0.3,0-0.6-0.1-0.7-0.2c-0.1-0.1-0.2-0.4-0.2-0.7v-12.5h-3.7c-0.3,0-0.6-0.1-0.7-0.2
			c-0.1-0.1-0.2-0.4-0.2-0.7v-3.1c0-0.3,0.1-0.6,0.2-0.7c0.1-0.1,0.4-0.2,0.7-0.2h13.4c0.3,0,0.6,0.1,0.7,0.2
			c0.1,0.1,0.2,0.4,0.2,0.7v3.1c0,0.3-0.1,0.6-0.2,0.7c-0.1,0.1-0.4,0.2-0.7,0.2h-3.7V423c0,0.3-0.1,0.6-0.2,0.7
			C720.8,423.8,720.5,423.9,720.2,423.9z"/>
		<path class="st153" d="M743.6,419.1c0,0.8-0.1,1.5-0.3,2.1c-0.2,0.6-0.6,1.2-1.2,1.6c-0.6,0.4-1.4,0.8-2.4,1.1
			c-1,0.3-2.3,0.4-3.9,0.4s-2.9-0.1-3.9-0.4s-1.8-0.6-2.4-1.1c-0.6-0.4-1-1-1.2-1.6c-0.2-0.6-0.3-1.3-0.3-2.1v-8.6
			c0-0.8,0.1-1.5,0.3-2.1c0.2-0.6,0.6-1.2,1.2-1.6c0.6-0.5,1.4-0.8,2.4-1.1c1-0.3,2.3-0.4,3.9-0.4s2.9,0.1,3.9,0.4
			c1,0.3,1.8,0.6,2.4,1.1c0.6,0.5,1,1,1.2,1.6c0.2,0.6,0.3,1.3,0.3,2.1V419.1z M733.6,418.2c0,0.3,0.1,0.6,0.4,0.9
			c0.3,0.2,0.8,0.3,1.7,0.3c0.9,0,1.5-0.1,1.7-0.3c0.3-0.2,0.4-0.5,0.4-0.9v-6.8c0-0.3-0.1-0.6-0.4-0.8c-0.3-0.2-0.8-0.3-1.7-0.3
			c-0.9,0-1.5,0.1-1.7,0.3c-0.3,0.2-0.4,0.5-0.4,0.8V418.2z"/>
		<path class="st153" d="M751.5,423.9h-3.8c-0.3,0-0.6-0.1-0.7-0.2c-0.1-0.1-0.2-0.4-0.2-0.7v-16.4c0-0.3,0.1-0.6,0.2-0.7
			c0.1-0.1,0.4-0.2,0.7-0.2h2.6c0.3,0,0.6,0.1,0.8,0.2c0.2,0.1,0.5,0.3,0.7,0.5l4.9,5.6v-5.4c0-0.3,0.1-0.6,0.2-0.7
			c0.1-0.1,0.4-0.2,0.7-0.2h3.8c0.3,0,0.6,0.1,0.7,0.2c0.1,0.1,0.2,0.4,0.2,0.7V423c0,0.3-0.1,0.6-0.2,0.7c-0.1,0.1-0.4,0.2-0.7,0.2
			h-3.8c-0.3,0-0.6-0.1-0.7-0.2c-0.1-0.1-0.2-0.4-0.2-0.7v-3.1l-4.3-5.2v8.4c0,0.3-0.1,0.6-0.2,0.7
			C752.1,423.8,751.8,423.9,751.5,423.9z"/>
		<path class="st153" d="M774.5,423.9l-4.1,0c-0.3,0-0.6-0.1-0.7-0.2c-0.1-0.1-0.2-0.4-0.2-0.7v-12.5h-3.7c-0.3,0-0.6-0.1-0.7-0.2
			c-0.1-0.1-0.2-0.4-0.2-0.7v-3.1c0-0.3,0.1-0.6,0.2-0.7c0.1-0.1,0.4-0.2,0.7-0.2h13.4c0.3,0,0.6,0.1,0.7,0.2
			c0.1,0.1,0.2,0.4,0.2,0.7v3.1c0,0.3-0.1,0.6-0.2,0.7c-0.1,0.1-0.4,0.2-0.7,0.2h-3.7V423c0,0.3-0.1,0.6-0.2,0.7
			C775.1,423.8,774.8,423.9,774.5,423.9z"/>
		<path class="st153" d="M786.7,423c0,0.3-0.1,0.6-0.2,0.7c-0.1,0.1-0.4,0.2-0.7,0.2H782c-0.3,0-0.6-0.1-0.7-0.2
			c-0.1-0.1-0.2-0.4-0.2-0.7v-6.7c0-0.5,0.1-1.1,0.2-1.7c0.2-0.7,0.4-1.4,0.7-2.3l2.2-5.8c0.1-0.3,0.3-0.5,0.5-0.6
			c0.2-0.1,0.5-0.2,0.8-0.2h6.8c0.3,0,0.6,0.1,0.8,0.2c0.2,0.1,0.4,0.3,0.5,0.6l2.2,5.8c0.3,0.9,0.6,1.6,0.7,2.3
			c0.2,0.7,0.2,1.2,0.2,1.7v6.7c0,0.3-0.1,0.6-0.2,0.7c-0.1,0.1-0.4,0.2-0.7,0.2h-3.8c-0.3,0-0.6-0.1-0.7-0.2
			c-0.2-0.1-0.2-0.4-0.2-0.7v-3.5h-4.5V423z M788.1,411l-1.2,3.9h4l-1.2-3.9c-0.1-0.2-0.1-0.3-0.2-0.3c-0.1-0.1-0.2-0.1-0.3-0.1
			h-0.6c-0.1,0-0.2,0-0.3,0.1C788.3,410.7,788.2,410.8,788.1,411z"/>
		<path class="st153" d="M802.9,426.4h-2c-0.3,0-0.6-0.1-0.7-0.2c-0.1-0.1-0.2-0.4-0.2-0.7v-1c0-0.3,0.1-0.6,0.2-0.7
			c0.1-0.1,0.4-0.2,0.7-0.2h1.7c0.2,0,0.4-0.1,0.5-0.2c0.1-0.1,0.2-0.3,0.2-0.5v-0.4h-2.8c-0.3,0-0.6-0.1-0.7-0.2
			c-0.1-0.1-0.2-0.4-0.2-0.7v-3.8c0-0.3,0.1-0.6,0.2-0.7c0.1-0.1,0.4-0.2,0.7-0.2h5.1c0.3,0,0.6,0.1,0.7,0.2
			c0.1,0.1,0.2,0.4,0.2,0.7v4.8c0,1.3-0.3,2.2-1,2.9C804.9,426.1,804,426.4,802.9,426.4z"/>
		<path class="st153" d="M757.3,455.7h-3.9c-0.3,0-0.6-0.1-0.7-0.2c-0.1-0.1-0.2-0.4-0.2-0.7v-16.4c0-0.3,0.1-0.6,0.2-0.7
			c0.1-0.1,0.4-0.2,0.7-0.2h11.3c0.3,0,0.6,0.1,0.7,0.2c0.1,0.1,0.2,0.4,0.2,0.7v3c0,0.3-0.1,0.6-0.2,0.7c-0.1,0.1-0.4,0.2-0.7,0.2
			h-6.5v2.6h4.4c0.3,0,0.6,0.1,0.7,0.2c0.1,0.1,0.2,0.4,0.2,0.7v3c0,0.3-0.1,0.6-0.2,0.7c-0.1,0.1-0.4,0.2-0.7,0.2h-4.4v5
			c0,0.3-0.1,0.6-0.2,0.7C757.9,455.6,757.6,455.7,757.3,455.7z"/>
		<path class="st153" d="M780.8,455.7H769c-0.3,0-0.6-0.1-0.7-0.2c-0.1-0.1-0.2-0.4-0.2-0.7v-16.4c0-0.3,0.1-0.6,0.2-0.7
			c0.1-0.1,0.4-0.2,0.7-0.2h11.8c0.3,0,0.6,0.1,0.7,0.2c0.1,0.1,0.2,0.4,0.2,0.7v3c0,0.3-0.1,0.6-0.2,0.7c-0.1,0.1-0.4,0.2-0.7,0.2
			h-7v2l4.9,0c0.3,0,0.6,0.1,0.7,0.2c0.1,0.1,0.2,0.4,0.2,0.7v2.7c0,0.3-0.1,0.6-0.2,0.7c-0.1,0.1-0.4,0.2-0.7,0.2l-4.9,0v2.2l7,0
			c0.3,0,0.6,0.1,0.7,0.2c0.1,0.1,0.2,0.4,0.2,0.7v3c0,0.3-0.1,0.6-0.2,0.7C781.4,455.6,781.1,455.7,780.8,455.7z"/>
		<path class="st153" d="M789.9,454.8c0,0.3-0.1,0.6-0.2,0.7c-0.1,0.1-0.4,0.2-0.7,0.2l-3.7,0c-0.3,0-0.6-0.1-0.7-0.2
			c-0.1-0.1-0.2-0.4-0.2-0.7v-6.7c0-0.5,0.1-1.1,0.2-1.7c0.2-0.7,0.4-1.4,0.7-2.3l2.2-5.8c0.1-0.3,0.3-0.5,0.5-0.6
			c0.2-0.1,0.5-0.2,0.8-0.2h6.8c0.3,0,0.6,0.1,0.8,0.2c0.2,0.1,0.4,0.3,0.5,0.6l2.2,5.8c0.3,0.9,0.6,1.6,0.7,2.3
			c0.2,0.7,0.2,1.2,0.2,1.7v6.7c0,0.3-0.1,0.6-0.2,0.7c-0.1,0.1-0.4,0.2-0.7,0.2h-3.8c-0.3,0-0.6-0.1-0.7-0.2
			c-0.2-0.1-0.2-0.4-0.2-0.7v-3.5h-4.5V454.8z M791.3,442.8l-1.2,3.9h4l-1.2-3.9c-0.1-0.2-0.1-0.3-0.2-0.3c-0.1-0.1-0.2-0.1-0.3-0.1
			h-0.6c-0.1,0-0.2,0-0.3,0.1C791.5,442.5,791.4,442.6,791.3,442.8z"/>
		<path class="st153" d="M808.8,449.1h-3.9c-0.3,0-0.6-0.1-0.7-0.2c-0.1-0.1-0.2-0.4-0.2-0.7l-0.4-9.8c0-0.3,0-0.6,0.2-0.7
			c0.1-0.1,0.4-0.2,0.7-0.2h4.8c0.3,0,0.5,0.1,0.7,0.2c0.1,0.1,0.2,0.4,0.2,0.7l-0.4,9.8c0,0.3-0.1,0.6-0.3,0.7
			C809.4,449,809.1,449.1,808.8,449.1z M809.2,455.7h-4.7c-0.3,0-0.6-0.1-0.7-0.2c-0.1-0.1-0.2-0.4-0.2-0.7l0-3.3
			c0-0.3,0.1-0.6,0.2-0.7c0.1-0.1,0.4-0.2,0.7-0.2h4.7c0.3,0,0.6,0.1,0.7,0.2c0.1,0.1,0.2,0.4,0.2,0.7v3.3c0,0.3-0.1,0.6-0.2,0.7
			C809.8,455.6,809.5,455.7,809.2,455.7z"/>
		<path class="st153" d="M819.6,449.1h-3.9c-0.3,0-0.6-0.1-0.7-0.2c-0.1-0.1-0.2-0.4-0.2-0.7l-0.4-9.8c0-0.3,0-0.6,0.2-0.7
			c0.1-0.1,0.4-0.2,0.7-0.2l4.8,0c0.3,0,0.5,0.1,0.7,0.2c0.1,0.1,0.2,0.4,0.2,0.7l-0.4,9.8c0,0.3-0.1,0.6-0.3,0.7
			C820.1,449,819.9,449.1,819.6,449.1z M820,455.7h-4.7c-0.3,0-0.6-0.1-0.7-0.2c-0.1-0.1-0.2-0.4-0.2-0.7v-3.3
			c0-0.3,0.1-0.6,0.2-0.7c0.1-0.1,0.4-0.2,0.7-0.2h4.7c0.3,0,0.6,0.1,0.7,0.2c0.1,0.1,0.2,0.4,0.2,0.7v3.3c0,0.3-0.1,0.6-0.2,0.7
			C820.5,455.6,820.3,455.7,820,455.7z"/>
	</g>
	<path class="st66" d="M629.6,471.9l-3.7,1c-5.5,1.5-11.1-1.7-12.7-7.2l-6.4-23.1c-1.5-5.4,1.7-11.1,7.2-12.7l3.7-1
		c5.5-1.5,11.1,1.7,12.7,7.2l6.4,23.1C638.3,464.7,635,470.4,629.6,471.9z"/>
	<path class="st66" d="M671.3,476.2l-3.7,1c-5.5,1.5-11.1-1.7-12.7-7.2l-6.4-23.1c-1.5-5.4,1.7-11.1,7.2-12.7l3.7-1
		c5.5-1.5,11.1,1.7,12.7,7.2l6.4,23.1C680,469,676.8,474.7,671.3,476.2z"/>
	<path class="st66" d="M651.6,474.4l-3.7,1c-5.5,1.5-11.1-1.7-12.7-7.2l-6.4-23.1c-1.5-5.4,1.7-11.1,7.2-12.7l3.7-1
		c5.5-1.5,11.1,1.7,12.7,7.2l6.4,23.1C660.3,467.1,657,472.8,651.6,474.4z"/>
	<circle class="st14" cx="607.7" cy="293.1" r="16.4"/>
	<circle class="st72" cx="607.7" cy="293.1" r="10.8"/>
	<circle class="st14" cx="741.4" cy="293.1" r="16.4"/>
	<circle class="st72" cx="741.4" cy="293.1" r="10.8"/>
	<path class="st14" d="M742.3,278.6c0-30.7-30.4-55.5-67.9-55.5c-37.5,0-67.9,24.9-67.9,55.5c0,6.9,0,32.1,0,39
		c0,30.7,44.7,55.5,67.9,55.5c20.4,0,67.9-24.9,67.9-55.5C742.3,310.7,742.3,285.5,742.3,278.6z"/>
	<path class="st16" d="M665.9,220.2c0.6-0.8,0.5-2-0.4-2.5c0,0,0,0,0,0c-20.9-14.3-49.4-9-63.7,11.9c-9.9,14.4-10.4,32.4-2.9,46.9
		c0.5,0.9,1.7,1.2,2.6,0.6C625.3,260.8,648.4,242.7,665.9,220.2z"/>
	<path class="st16" d="M736.2,239.2c1-0.1,1.7-1.1,1.5-2.1c0,0,0,0,0,0c-4.6-24.9-28.5-41.3-53.4-36.7
		c-17.2,3.2-30.3,15.6-35.3,31.1c-0.3,1,0.3,2.1,1.4,2.3C678.7,239.2,707.9,242.7,736.2,239.2z"/>
	<path class="st16" d="M745.1,281.3c0.5,0.4,1.5,0.1,2-0.7c0,0,0,0,0,0c14.2-21,0-50.3-13.2-64.2c-8.1-8.6-36-23.7-48.4-14.7
		c-0.8,0.6,24.3,30,24.6,30.7C719.4,251.2,730.2,269.1,745.1,281.3z"/>
	<g>
		<path class="st72" d="M730.5,294c0,13.6-6,24.7-19.7,24.7c-13.6,0-22.2-11.1-22.2-24.7c0-13.6,8.6-24.7,22.2-24.7
			C724.4,269.3,730.5,280.4,730.5,294z"/>
		<path class="st13" d="M731.1,295.2c0,11.8-10.8,12.5-22.6,12.5c-11.8,0-20.3-0.6-20.3-12.5c0-11.8,8.1-11.8,19.9-11.8
			C720,283.4,731.1,283.3,731.1,295.2z"/>
		<path class="st16" d="M724,277h-29c-4.1,0-7.4-3.3-7.4-7.4v0c0-4.1,3.3-7.4,7.4-7.4h29c4.1,0,7.4,3.3,7.4,7.4v0
			C731.3,273.7,728,277,724,277z"/>
		<circle class="st0" cx="709.6" cy="295.2" r="10.3"/>
		<circle cx="709.6" cy="295.2" r="4"/>
		<circle class="st73" cx="707.1" cy="290.5" r="2.9"/>
	</g>
	<g>
		<path class="st72" d="M618.3,294c0,13.6,6,24.7,19.7,24.7c13.6,0,22.2-11.1,22.2-24.7c0-13.6-8.6-24.7-22.2-24.7
			C624.3,269.3,618.3,280.4,618.3,294z"/>
		<ellipse class="st13" cx="639.1" cy="294.1" rx="21.4" ry="12.4"/>
		<path class="st16" d="M624.8,277h29c4.1,0,7.4-3.3,7.4-7.4v0c0-4.1-3.3-7.4-7.4-7.4h-29c-4.1,0-7.4,3.3-7.4,7.4v0
			C617.4,273.7,620.7,277,624.8,277z"/>
		<circle class="st0" cx="639.1" cy="295.2" r="10.3"/>
		<circle cx="639.1" cy="295.2" r="4"/>
		<circle class="st73" cx="636.7" cy="290.5" r="2.9"/>
	</g>
	<path class="st75" d="M706.8,336.6c-22.1-9.3-44.1,4.7-65.1,9.7c20-5,39-29,59.6-12.7C704.8,335.8,706.8,336.6,706.8,336.6z"/>
	<path class="st72" d="M674.1,321.2L674.1,321.2c-3.4,0-6.2-2.8-6.2-6.2v-22.4c0-3.4,2.8-6.2,6.2-6.2l0,0c3.4,0,6.2,2.8,6.2,6.2V315
		C680.3,318.4,677.5,321.2,674.1,321.2z"/>
	<path class="st14" d="M673.1,316.3L673.1,316.3c-3.4,0-6.2-2.8-6.2-6.2v-22.4c0-3.4,2.8-6.2,6.2-6.2l0,0c3.4,0,6.2,2.8,6.2,6.2
		v22.4C679.3,313.5,676.5,316.3,673.1,316.3z"/>
	<path class="st16" d="M613.8,231v33.8h76.7l3-25.3l4.6,25.3c0,0,11.5,1.5,20,1.4c7.1-0.1,24.1,10.8,24.1,10.8l-3.9-51.9l-97-15.2
		L613.8,231z"/>
	<g class="st52">
		<g>
			<path class="st14" d="M673.2,200.6c3.1,0.2,6.1,1.1,9.1,1.2c4,0.2,7.8,0,11.7,0.8c2.8,0.6,5.6,1.4,8.4,2.1
				c2.7,0.7,5.1,2.1,7.8,2.8c1.1,0.3,3.4-1.3,1.7-1.7c-2.7-0.7-5-2.2-7.8-2.8c-3.4-0.8-6.7-1.8-10.1-2.4c-3.3-0.6-6.4-0.5-9.7-0.6
				c-3.4-0.1-6.7-1-10.1-1.3C673.1,198.7,671.3,200.5,673.2,200.6L673.2,200.6z"/>
		</g>
	</g>
	<g>
		<path class="st153" d="M759.4,366.4c0,1.3-0.2,2.5-0.6,3.6c-0.4,1.1-1,2-2,2.8c-0.9,0.8-2.2,1.4-3.9,1.8c-1.6,0.4-3.7,0.6-6.2,0.6
			c-2.5,0-4.6-0.2-6.2-0.6c-1.6-0.4-2.9-1-3.8-1.8c-0.9-0.8-1.6-1.7-1.9-2.8c-0.4-1.1-0.5-2.3-0.5-3.6v-7c0-0.5,0.1-0.9,0.4-1.2
			c0.2-0.2,0.6-0.4,1.2-0.4h6.2c0.5,0,0.9,0.1,1.2,0.4c0.2,0.2,0.4,0.6,0.4,1.2v5.3c0,0.6,0.2,1.1,0.5,1.4c0.4,0.4,1.2,0.6,2.5,0.6
			c1.2,0,2-0.2,2.3-0.6c0.3-0.4,0.5-0.9,0.5-1.4v-19.6c0-0.5,0.1-0.9,0.4-1.2c0.2-0.2,0.6-0.4,1.2-0.4h6.8c0.5,0,0.9,0.1,1.2,0.4
			c0.2,0.2,0.4,0.6,0.4,1.2V366.4z"/>
		<path class="st153" d="M773.9,373c0,0.5-0.1,0.9-0.4,1.2c-0.2,0.2-0.6,0.4-1.2,0.4H766c-0.5,0-0.9-0.1-1.2-0.4
			c-0.2-0.2-0.4-0.6-0.4-1.2v-11.4c0-0.9,0.1-1.9,0.4-3c0.3-1.1,0.7-2.4,1.3-3.9l3.7-9.8c0.2-0.5,0.4-0.8,0.8-1.1
			c0.4-0.2,0.8-0.3,1.4-0.3h11.6c0.5,0,1,0.1,1.4,0.3c0.4,0.2,0.6,0.6,0.8,1.1l3.7,9.8c0.6,1.5,1,2.8,1.3,3.9c0.3,1.1,0.4,2.1,0.4,3
			V373c0,0.5-0.1,0.9-0.4,1.2c-0.2,0.2-0.6,0.4-1.2,0.4h-6.5c-0.6,0-1-0.1-1.3-0.4c-0.3-0.2-0.4-0.6-0.4-1.2v-6h-7.6V373z
			 M776.4,352.6l-2,6.6h6.8l-2-6.6c-0.1-0.3-0.2-0.4-0.4-0.6c-0.1-0.1-0.3-0.2-0.5-0.2h-1.1c-0.2,0-0.3,0.1-0.5,0.2
			C776.6,352.2,776.5,352.4,776.4,352.6z"/>
	</g>
	
		<use xlink:href="#barras"  width="433.6" height="172.4" x="-216.8" y="-86.2" transform="matrix(1 0 0 -1 289.8234 368.5386)" style="overflow:visible;"/>
</g>
</svg>
