<?xml version="1.0" encoding="utf-8"?>
<!-- Generator: Adobe Illustrator 21.1.0, SVG Export Plug-In . SVG Version: 6.00 Build 0)  -->
<svg version="1.1" xmlns="http://www.w3.org/2000/svg" xmlns:xlink="http://www.w3.org/1999/xlink" x="0px" y="0px"
	 viewBox="0 0 841.9 595.3" style="enable-background:new 0 0 841.9 595.3;" xml:space="preserve">
<style type="text/css">
	.st0{fill:#601515;}
	.st1{fill:#3FBA51;}
	.st2{fill:none;stroke:#601515;stroke-width:2;stroke-miterlimit:10;}
	.st3{fill:#F2C85F;}
	.st4{fill:#F2D3AD;}
	.st5{fill:#674C91;}
	.st6{fill:#DCFFC5;}
	.st7{fill:#8BAA77;}
	.st8{clip-path:url(#SVGID_2_);fill:#F1F3F7;}
	.st9{opacity:0.4;clip-path:url(#SVGID_2_);fill:#DCDDE0;}
	.st10{clip-path:url(#SVGID_2_);fill:#0076B7;}
	.st11{clip-path:url(#SVGID_2_);fill:#FFFFFF;}
	.st12{clip-path:url(#SVGID_2_);}
	.st13{fill:#FFFFFF;}
	.st14{fill:#F7CFA2;}
	.st15{fill:#ECB8FF;}
	.st16{fill:#393D47;}
	.st17{fill:#E86767;}
	.st18{opacity:0.1;fill:#3C2813;}
	.st19{fill:#EEEBE7;}
	.st20{fill:#3C2813;}
	.st21{fill:#795ACC;}
	.st22{fill:none;}
	.st23{clip-path:url(#SVGID_6_);fill:#F7EFDF;}
	.st24{fill:#3EBA50;}
	.st25{display:none;opacity:0.3;}
	.st26{fill:#F7EFDF;}
	.st27{fill:#4E9FA8;}
	.st28{fill:none;stroke:#231F20;stroke-width:2;stroke-miterlimit:10;}
	.st29{fill:#231F20;}
	.st30{fill:none;stroke:#674C91;stroke-miterlimit:10;}
	.st31{fill:#601515;stroke:#601515;stroke-miterlimit:10;}
	.st32{fill:none;stroke:#601515;stroke-miterlimit:10;}
	.st33{fill:none;stroke:#FFFFFF;stroke-miterlimit:10;}
	.st34{fill:url(#SVGID_9_);}
	.st35{fill:#601515;stroke:#8C8779;stroke-width:6;stroke-miterlimit:10;}
	.st36{fill:url(#SVGID_10_);}
	.st37{fill:none;stroke:#4E9FA8;stroke-width:12;stroke-miterlimit:10;}
	.st38{fill:#E0EA18;}
	.st39{clip-path:url(#SVGID_12_);fill:#F7EFDF;}
	.st40{fill:url(#SVGID_13_);}
	.st41{fill:url(#SVGID_14_);}
	.st42{fill:#EFEA35;}
	.st43{fill:url(#SVGID_15_);}
	.st44{fill:url(#SVGID_16_);}
	.st45{fill:url(#SVGID_17_);}
	.st46{fill:url(#SVGID_18_);}
	.st47{fill:url(#SVGID_19_);}
	.st48{fill:#C1C1B8;}
	.st49{fill:#9B9B97;}
	.st50{fill:#D8D8D2;}
	.st51{opacity:0.4;}
	.st52{opacity:0.6;}
	.st53{fill:#CEBABA;}
	.st54{fill:#EAEAE5;}
	.st55{fill:url(#SVGID_20_);}
	.st56{fill:url(#SVGID_21_);}
	.st57{fill:url(#SVGID_22_);}
	.st58{fill:url(#SVGID_23_);}
	.st59{fill:url(#SVGID_24_);}
	.st60{fill:url(#SVGID_25_);}
	.st61{fill:url(#SVGID_26_);}
	.st62{fill:url(#SVGID_27_);}
	.st63{fill:url(#SVGID_28_);}
	.st64{fill:#6BA8B2;}
	.st65{fill:#F1F3F7;}
	.st66{fill:#F0BA7A;}
	.st67{opacity:0.4;fill:#DCDDE0;}
	.st68{fill:#0076B7;}
	.st69{opacity:0.3;}
	.st70{fill:#DCDDE0;}
	.st71{fill:#004868;}
	.st72{opacity:0.1;fill:#601515;}
	.st73{fill:#F9F9F9;}
	.st74{fill:#24272D;}
	.st75{fill:#EA6D50;}
	.st76{clip-path:url(#SVGID_30_);fill:#F0BA7A;}
	.st77{clip-path:url(#SVGID_30_);fill:#F1F3F7;}
	.st78{opacity:0.4;clip-path:url(#SVGID_30_);fill:#DCDDE0;}
	.st79{clip-path:url(#SVGID_30_);fill:#0076B7;}
	.st80{clip-path:url(#SVGID_30_);fill:#FFFFFF;}
	.st81{clip-path:url(#SVGID_30_);}
	.st82{opacity:0.3;fill:#601515;}
	.st83{fill:#5B1010;}
	.st84{clip-path:url(#SVGID_32_);fill:#F1F3F7;}
	.st85{clip-path:url(#SVGID_32_);fill:#F0BA7A;}
	.st86{opacity:0.4;clip-path:url(#SVGID_32_);fill:#DCDDE0;}
	.st87{clip-path:url(#SVGID_32_);fill:#0076B7;}
	.st88{clip-path:url(#SVGID_32_);fill:#FFFFFF;}
	.st89{clip-path:url(#SVGID_32_);}
	.st90{fill:#1F74C9;}
	.st91{fill:#595959;}
	.st92{opacity:0.1;fill:#8BAA77;}
	.st93{opacity:0.3;fill:#8BAA77;}
	.st94{opacity:0.1;fill:#595959;}
	.st95{opacity:0.3;fill:#595959;}
	.st96{fill:#9E921E;}
	.st97{clip-path:url(#SVGID_34_);fill:#F0BA7A;}
	.st98{clip-path:url(#SVGID_34_);fill:#F1F3F7;}
	.st99{clip-path:url(#SVGID_34_);}
	.st100{clip-path:url(#SVGID_34_);fill:#393D47;}
	.st101{clip-path:url(#SVGID_34_);fill:#FFFFFF;}
	.st102{opacity:0.4;clip-path:url(#SVGID_34_);fill:#DCDDE0;}
	.st103{clip-path:url(#SVGID_34_);fill:#0076B7;}
	.st104{fill:#B72C34;}
	.st105{clip-path:url(#SVGID_36_);fill:#F1F3F7;}
	.st106{clip-path:url(#SVGID_36_);}
	.st107{clip-path:url(#SVGID_38_);fill:#F1F3F7;}
	.st108{opacity:0.4;clip-path:url(#SVGID_38_);fill:#DCDDE0;}
	.st109{clip-path:url(#SVGID_38_);fill:#0076B7;}
	.st110{clip-path:url(#SVGID_38_);fill:#FFFFFF;}
	.st111{clip-path:url(#SVGID_38_);}
	.st112{fill:url(#SVGID_39_);}
	.st113{fill:url(#SVGID_40_);}
	.st114{fill:url(#SVGID_41_);}
	.st115{fill:url(#SVGID_42_);}
	.st116{fill:#A52323;}
	.st117{clip-path:url(#SVGID_44_);fill:#F1F3F7;}
	.st118{opacity:0.4;clip-path:url(#SVGID_44_);fill:#DCDDE0;}
	.st119{clip-path:url(#SVGID_44_);fill:#0076B7;}
	.st120{clip-path:url(#SVGID_44_);fill:#FFFFFF;}
	.st121{clip-path:url(#SVGID_44_);}
	.st122{fill:#023142;}
	.st123{clip-path:url(#SVGID_46_);fill:#F7CFA2;}
	.st124{clip-path:url(#SVGID_46_);}
	.st125{opacity:0.3;fill:#E57257;}
	.st126{opacity:0.2;}
	.st127{fill:#656D60;}
	.st128{clip-path:url(#SVGID_48_);fill:#F0BA7A;}
	.st129{clip-path:url(#SVGID_48_);fill:#F1F3F7;}
	.st130{opacity:0.4;clip-path:url(#SVGID_48_);fill:#DCDDE0;}
	.st131{clip-path:url(#SVGID_48_);fill:#0076B7;}
	.st132{clip-path:url(#SVGID_48_);fill:#FFFFFF;}
	.st133{clip-path:url(#SVGID_48_);}
	.st134{clip-path:url(#SVGID_50_);fill:#F1F3F7;}
	.st135{opacity:0.4;clip-path:url(#SVGID_50_);fill:#DCDDE0;}
	.st136{clip-path:url(#SVGID_50_);fill:#0076B7;}
	.st137{clip-path:url(#SVGID_50_);fill:#FFFFFF;}
	.st138{clip-path:url(#SVGID_50_);}
	.st139{clip-path:url(#SVGID_52_);fill:#F1F3F7;}
	.st140{opacity:0.4;clip-path:url(#SVGID_52_);fill:#DCDDE0;}
	.st141{clip-path:url(#SVGID_52_);fill:#0076B7;}
	.st142{clip-path:url(#SVGID_52_);fill:#FFFFFF;}
	.st143{clip-path:url(#SVGID_52_);}
	.st144{fill:#9E9E9E;}
	.st145{fill:#878787;}
	.st146{font-family:'ElegantLux-Mager';}
	.st147{font-size:26px;}
	.st148{font-family:'Bungee-Regular';}
	.st149{font-size:22px;}
	.st150{fill:url(#SVGID_53_);}
	.st151{fill:#CE6117;}
	.st152{fill:url(#SVGID_54_);}
	.st153{fill:#EFE91B;}
	.st154{clip-path:url(#SVGID_56_);fill:#F0BA7A;}
	.st155{clip-path:url(#SVGID_56_);fill:#F1F3F7;}
	.st156{opacity:0.4;clip-path:url(#SVGID_56_);fill:#DCDDE0;}
	.st157{clip-path:url(#SVGID_56_);fill:#0076B7;}
	.st158{clip-path:url(#SVGID_56_);fill:#FFFFFF;}
	.st159{clip-path:url(#SVGID_56_);}
	.st160{fill:#B27E49;}
	.st161{clip-path:url(#SVGID_58_);fill:#F1F3F7;}
	.st162{opacity:0.4;clip-path:url(#SVGID_58_);fill:#DCDDE0;}
	.st163{clip-path:url(#SVGID_58_);fill:#0076B7;}
	.st164{clip-path:url(#SVGID_58_);fill:#FFFFFF;}
	.st165{clip-path:url(#SVGID_58_);}
	.st166{fill:#8454D1;}
	.st167{clip-path:url(#SVGID_60_);fill:#393D47;}
	.st168{clip-path:url(#SVGID_60_);fill:#F0BA7A;}
	.st169{clip-path:url(#SVGID_60_);fill:#F1F3F7;}
	.st170{clip-path:url(#SVGID_60_);fill:#0076B7;}
	.st171{clip-path:url(#SVGID_60_);fill:#004868;}
	.st172{opacity:0.4;clip-path:url(#SVGID_60_);fill:#DCDDE0;}
	.st173{clip-path:url(#SVGID_60_);fill:#FFFFFF;}
	.st174{clip-path:url(#SVGID_60_);}
	.st175{fill:none;stroke:#EA6D50;stroke-width:2;stroke-miterlimit:10;}
	.st176{fill:url(#SVGID_61_);}
	.st177{fill:#777777;}
	.st178{fill:#A85848;}
	.st179{fill:#E85646;}
	.st180{fill:#EA4E39;}
	.st181{clip-path:url(#SVGID_63_);fill:#F1F3F7;}
	.st182{clip-path:url(#SVGID_63_);}
	.st183{fill:#B23C18;}
	.st184{fill:#6B2A05;}
	.st185{fill:#B23C18;stroke:#6B2A05;stroke-miterlimit:10;}
	.st186{fill:#DDAA78;}
	.st187{fill:#211205;}
	.st188{fill:none;stroke:#6B2A05;stroke-width:0.729;stroke-miterlimit:10;}
	.st189{fill:#B23C18;stroke:#6B2A05;stroke-width:0.729;stroke-miterlimit:10;}
	.st190{fill:#BBE8F2;}
	.st191{opacity:0.3;fill:#F2F8F9;}
	.st192{opacity:0.2;fill:#601515;}
	.st193{fill:#FFFF00;}
	.st194{fill:#594EEA;}
	.st195{fill:#FF0B0B;}
	.st196{fill:none;stroke:#3FBA51;stroke-width:8;stroke-miterlimit:10;}
	.st197{fill:none;stroke:#3FBA51;stroke-width:7.2;stroke-miterlimit:10;}
	.st198{fill:none;stroke:#3FBA51;stroke-width:7.2;stroke-linecap:round;stroke-miterlimit:10;}
	.st199{fill:none;stroke:#3FBA51;stroke-width:8;stroke-linecap:round;stroke-miterlimit:10;}
	.st200{fill:none;stroke:#3FBA51;stroke-width:5.1175;stroke-miterlimit:10;}
	.st201{fill:#4F5565;}
	.st202{fill:#D64E3C;}
	.st203{fill:#F7A500;}
	.st204{fill:#FBD303;}
	.st205{fill:#FCFCFD;}
	.st206{fill:#F8B517;}
	.st207{fill:#F0582F;}
	.st208{fill:#BAE8F2;}
	.st209{fill:#F7EA72;}
	.st210{clip-path:url(#SVGID_65_);fill:#F7EFDF;}
	.st211{fill:none;stroke:#3FBA51;stroke-width:6.4304;stroke-miterlimit:10;}
	.st212{fill:url(#SVGID_66_);}
	.st213{fill:url(#SVGID_67_);}
	.st214{fill:url(#SVGID_68_);}
	.st215{fill:url(#SVGID_69_);}
	.st216{fill:url(#SVGID_70_);}
	.st217{fill:url(#SVGID_71_);}
	.st218{fill:url(#SVGID_72_);}
	.st219{fill:url(#SVGID_73_);}
	.st220{fill:url(#SVGID_74_);}
	.st221{fill:url(#SVGID_75_);}
	.st222{fill:url(#SVGID_76_);}
	.st223{fill:url(#SVGID_77_);}
	.st224{fill:url(#SVGID_78_);}
	.st225{fill:url(#SVGID_79_);}
	.st226{fill:url(#SVGID_80_);}
	.st227{fill:url(#SVGID_81_);}
	.st228{fill:url(#SVGID_82_);}
	.st229{fill:url(#SVGID_83_);}
	.st230{fill:url(#SVGID_84_);}
	.st231{fill:url(#SVGID_85_);}
	.st232{fill:url(#SVGID_86_);}
	.st233{fill:url(#SVGID_87_);}
	.st234{fill:url(#SVGID_88_);}
	.st235{fill:url(#SVGID_89_);}
	.st236{fill:url(#SVGID_90_);}
	.st237{fill:url(#SVGID_91_);}
	.st238{fill:url(#SVGID_92_);}
	.st239{fill:url(#SVGID_93_);}
	.st240{fill:url(#SVGID_94_);}
	.st241{fill:url(#SVGID_95_);}
	.st242{fill:url(#SVGID_96_);}
	.st243{fill:url(#SVGID_97_);}
	.st244{fill:url(#SVGID_98_);}
	.st245{fill:url(#SVGID_99_);}
	.st246{fill:url(#SVGID_100_);}
	.st247{fill:url(#SVGID_101_);}
	.st248{opacity:0.7;fill:#7BCDDB;}
	.st249{fill:none;stroke:#F0BA7A;stroke-width:3;stroke-miterlimit:10;}
	.st250{fill:url(#SVGID_102_);}
	.st251{fill:url(#SVGID_103_);}
	.st252{fill:url(#SVGID_104_);}
	.st253{fill:url(#SVGID_105_);}
	.st254{fill:url(#SVGID_106_);}
	.st255{fill:url(#SVGID_107_);}
	.st256{fill:url(#SVGID_108_);}
	.st257{opacity:0.5;fill:#302929;}
	.st258{fill:#EF3F50;}
	.st259{fill:url(#SVGID_109_);}
	.st260{fill:url(#SVGID_110_);}
	.st261{fill:url(#SVGID_111_);}
	.st262{fill:url(#SVGID_112_);}
	.st263{opacity:0.6;fill:#302929;}
	.st264{fill:url(#SVGID_113_);}
	.st265{fill:url(#SVGID_114_);}
	.st266{fill:url(#SVGID_115_);}
	.st267{fill:url(#SVGID_116_);}
	.st268{fill:url(#SVGID_117_);}
	.st269{fill:url(#SVGID_118_);}
	.st270{fill:url(#SVGID_119_);}
	.st271{fill:url(#SVGID_120_);}
	.st272{fill:url(#SVGID_121_);}
	.st273{fill:url(#SVGID_122_);}
	.st274{fill:url(#SVGID_123_);}
	.st275{fill:url(#SVGID_124_);}
	.st276{fill:url(#SVGID_125_);}
	.st277{fill:url(#SVGID_126_);}
	.st278{fill:url(#SVGID_127_);}
	.st279{fill:url(#SVGID_128_);}
	.st280{fill:url(#SVGID_129_);}
	.st281{fill:url(#SVGID_130_);}
	.st282{fill:url(#SVGID_131_);}
	.st283{fill:url(#SVGID_132_);}
	.st284{fill:url(#SVGID_133_);}
	.st285{fill:url(#SVGID_134_);}
	.st286{fill:url(#SVGID_135_);}
	.st287{fill:url(#SVGID_136_);}
	.st288{fill:url(#SVGID_137_);}
	.st289{fill:url(#SVGID_138_);}
	.st290{fill:url(#SVGID_139_);}
	.st291{fill:url(#SVGID_140_);}
	.st292{fill:url(#SVGID_141_);}
	.st293{fill:url(#SVGID_142_);}
	.st294{fill:url(#SVGID_143_);}
	.st295{fill:url(#SVGID_144_);}
	.st296{fill:url(#SVGID_145_);}
	.st297{fill:url(#SVGID_146_);}
	.st298{fill:url(#SVGID_147_);}
	.st299{fill:url(#SVGID_148_);}
	.st300{fill:url(#SVGID_149_);}
	.st301{fill:url(#SVGID_150_);}
	.st302{fill:url(#SVGID_151_);}
	.st303{fill:url(#SVGID_152_);}
	.st304{fill:url(#SVGID_153_);}
	.st305{fill:url(#SVGID_154_);}
	.st306{fill:url(#SVGID_155_);}
	.st307{fill:url(#SVGID_156_);}
	.st308{fill:url(#SVGID_157_);}
	.st309{fill:url(#SVGID_158_);}
	.st310{fill:url(#SVGID_159_);}
	.st311{fill:url(#SVGID_160_);}
	.st312{fill:url(#SVGID_161_);}
	.st313{fill:url(#SVGID_162_);}
	.st314{fill:url(#SVGID_163_);}
	.st315{fill:url(#SVGID_164_);}
	.st316{fill:url(#SVGID_165_);}
	.st317{fill:url(#SVGID_166_);}
	.st318{fill:url(#SVGID_167_);}
	.st319{fill:url(#SVGID_168_);}
	.st320{fill:url(#SVGID_169_);}
	.st321{fill:url(#SVGID_170_);}
	.st322{fill:url(#SVGID_171_);}
	.st323{fill:url(#SVGID_172_);}
	.st324{fill:url(#SVGID_173_);}
	.st325{fill:url(#SVGID_174_);}
	.st326{fill:url(#SVGID_175_);}
	.st327{fill:url(#SVGID_176_);}
	.st328{fill:url(#SVGID_177_);}
	.st329{fill:url(#SVGID_178_);}
	.st330{fill:url(#SVGID_179_);}
	.st331{fill:url(#SVGID_180_);}
	.st332{fill:url(#SVGID_181_);}
	.st333{fill:url(#SVGID_182_);}
	.st334{fill:url(#SVGID_183_);}
	.st335{fill:url(#SVGID_184_);}
	.st336{fill:url(#SVGID_185_);}
	.st337{fill:url(#SVGID_186_);}
	.st338{fill:url(#SVGID_187_);}
	.st339{fill:url(#SVGID_188_);}
	.st340{fill:url(#SVGID_189_);}
	.st341{fill:url(#SVGID_190_);}
	.st342{fill:url(#SVGID_191_);}
	.st343{fill:url(#SVGID_192_);}
	.st344{fill:url(#SVGID_193_);}
	.st345{fill:url(#SVGID_194_);}
	.st346{fill:url(#SVGID_195_);}
	.st347{fill:url(#SVGID_196_);}
	.st348{fill:url(#SVGID_197_);}
	.st349{fill:url(#SVGID_198_);}
	.st350{fill:url(#SVGID_199_);}
	.st351{fill:url(#SVGID_200_);}
	.st352{fill:url(#SVGID_201_);}
	.st353{fill:url(#SVGID_202_);}
	.st354{fill:url(#SVGID_203_);}
	.st355{fill:url(#SVGID_204_);}
	.st356{fill:url(#SVGID_205_);}
	.st357{fill:url(#SVGID_206_);}
	.st358{fill:url(#SVGID_207_);}
	.st359{fill:url(#SVGID_208_);}
	.st360{fill:url(#SVGID_209_);}
	.st361{fill:url(#SVGID_210_);}
	.st362{fill:url(#SVGID_211_);}
	.st363{fill:url(#SVGID_212_);}
	.st364{fill:url(#SVGID_213_);}
	.st365{fill:url(#SVGID_214_);}
	.st366{fill:url(#SVGID_215_);}
	.st367{fill:url(#SVGID_216_);}
	.st368{fill:url(#SVGID_217_);}
	.st369{fill:url(#SVGID_218_);}
	.st370{fill:url(#SVGID_219_);}
	.st371{fill:url(#SVGID_220_);}
	.st372{fill:url(#SVGID_221_);}
	.st373{fill:url(#SVGID_222_);}
	.st374{fill:url(#SVGID_223_);}
	.st375{fill:url(#SVGID_224_);}
	.st376{fill:url(#SVGID_225_);}
	.st377{fill:url(#SVGID_226_);}
	.st378{fill:url(#SVGID_227_);}
	.st379{fill:url(#SVGID_228_);}
	.st380{fill:url(#SVGID_229_);}
	.st381{fill:url(#SVGID_230_);}
	.st382{fill:url(#SVGID_231_);}
	.st383{fill:url(#SVGID_232_);}
	.st384{fill:url(#SVGID_233_);}
	.st385{fill:url(#SVGID_234_);}
	.st386{fill:url(#SVGID_235_);}
	.st387{fill:url(#SVGID_236_);}
	.st388{fill:url(#SVGID_237_);}
	.st389{fill:url(#SVGID_238_);}
	.st390{fill:url(#SVGID_239_);}
	.st391{fill:none;stroke:#9B9B97;stroke-miterlimit:10;}
	.st392{fill:url(#SVGID_240_);}
	.st393{fill:url(#SVGID_241_);}
	.st394{fill:url(#SVGID_242_);}
	.st395{fill:url(#SVGID_243_);}
	.st396{fill:url(#SVGID_244_);}
	.st397{fill:url(#SVGID_245_);}
	.st398{fill:url(#SVGID_246_);}
	.st399{fill:url(#SVGID_247_);}
	.st400{fill:url(#SVGID_248_);}
	.st401{fill:url(#SVGID_249_);}
	.st402{fill:url(#SVGID_250_);}
	.st403{fill:url(#SVGID_251_);}
	.st404{fill:url(#SVGID_252_);}
	.st405{fill:url(#SVGID_253_);}
	.st406{fill:url(#SVGID_254_);}
	.st407{fill:url(#SVGID_255_);}
	.st408{fill:url(#SVGID_256_);}
	.st409{fill:url(#SVGID_257_);}
	.st410{fill:url(#SVGID_258_);}
	.st411{fill:url(#SVGID_259_);}
	.st412{fill:url(#SVGID_260_);}
	.st413{fill:url(#SVGID_261_);}
	.st414{fill:url(#SVGID_262_);}
	.st415{fill:url(#SVGID_263_);}
	.st416{fill:url(#SVGID_264_);}
	.st417{fill:url(#SVGID_265_);}
	.st418{fill:url(#SVGID_266_);}
	.st419{fill:url(#SVGID_267_);}
	.st420{fill:url(#SVGID_268_);}
	.st421{fill:url(#SVGID_269_);}
	.st422{fill:url(#SVGID_270_);}
	.st423{fill:url(#SVGID_271_);}
	.st424{fill:url(#SVGID_272_);}
	.st425{fill:url(#SVGID_273_);}
	.st426{fill:url(#SVGID_274_);}
	.st427{fill:url(#SVGID_275_);}
	.st428{fill:url(#SVGID_276_);}
	.st429{fill:url(#SVGID_277_);}
	.st430{fill:url(#SVGID_278_);}
	.st431{fill:url(#SVGID_279_);}
	.st432{fill:url(#SVGID_280_);}
	.st433{fill:url(#SVGID_281_);}
	.st434{fill:url(#SVGID_282_);}
	.st435{fill:url(#SVGID_283_);}
	.st436{fill:url(#SVGID_284_);}
	.st437{fill:url(#SVGID_285_);}
	.st438{fill:url(#SVGID_286_);}
	.st439{fill:url(#SVGID_287_);}
	.st440{fill:url(#SVGID_288_);}
	.st441{fill:url(#SVGID_289_);}
	.st442{fill:url(#SVGID_290_);}
	.st443{fill:url(#SVGID_291_);}
	.st444{fill:url(#SVGID_292_);}
	.st445{fill:url(#SVGID_293_);}
	.st446{fill:url(#SVGID_294_);}
	.st447{fill:url(#SVGID_295_);}
	.st448{fill:url(#SVGID_296_);}
	.st449{fill:url(#SVGID_297_);}
	.st450{fill:url(#SVGID_298_);}
	.st451{fill:url(#SVGID_299_);}
	.st452{fill:url(#SVGID_300_);}
	.st453{fill:url(#SVGID_301_);}
	.st454{fill:url(#SVGID_302_);}
	.st455{fill:url(#SVGID_303_);}
	.st456{fill:url(#SVGID_304_);}
	.st457{fill:url(#SVGID_305_);}
	.st458{fill:url(#SVGID_306_);}
	.st459{fill:url(#SVGID_307_);}
	.st460{fill:url(#SVGID_308_);}
	.st461{fill:url(#SVGID_309_);}
	.st462{fill:url(#SVGID_310_);}
	.st463{fill:url(#SVGID_311_);}
	.st464{fill:url(#SVGID_312_);}
	.st465{fill:url(#SVGID_313_);}
	.st466{fill:url(#SVGID_314_);}
	.st467{fill:url(#SVGID_315_);}
	.st468{fill:url(#SVGID_316_);}
	.st469{fill:url(#SVGID_317_);}
	.st470{fill:url(#SVGID_318_);}
	.st471{fill:url(#SVGID_319_);}
	.st472{fill:url(#SVGID_320_);}
	.st473{fill:url(#SVGID_321_);}
	.st474{fill:url(#SVGID_322_);}
	.st475{fill:url(#SVGID_323_);}
	.st476{fill:url(#SVGID_324_);}
	.st477{fill:url(#SVGID_325_);}
	.st478{fill:url(#SVGID_326_);}
	.st479{fill:url(#SVGID_327_);}
	.st480{fill:url(#SVGID_328_);}
	.st481{fill:url(#SVGID_329_);}
	.st482{fill:url(#SVGID_330_);}
	.st483{fill:url(#SVGID_331_);}
	.st484{fill:url(#SVGID_332_);}
	.st485{fill:url(#SVGID_333_);}
	.st486{fill:url(#SVGID_334_);}
	.st487{fill:url(#SVGID_335_);}
	.st488{fill:url(#SVGID_336_);}
	.st489{fill:url(#SVGID_337_);}
	.st490{fill:url(#SVGID_338_);}
	.st491{fill:url(#SVGID_339_);}
	.st492{fill:url(#SVGID_340_);}
	.st493{fill:url(#SVGID_341_);}
	.st494{fill:url(#SVGID_342_);}
	.st495{fill:url(#SVGID_343_);}
	.st496{fill:url(#SVGID_344_);}
	.st497{fill:url(#SVGID_345_);}
	.st498{fill:url(#SVGID_346_);}
	.st499{fill:url(#SVGID_347_);}
	.st500{fill:url(#SVGID_348_);}
	.st501{fill:url(#SVGID_349_);}
	.st502{fill:url(#SVGID_350_);}
	.st503{fill:url(#SVGID_351_);}
	.st504{fill:url(#SVGID_352_);}
	.st505{fill:url(#SVGID_353_);}
	.st506{fill:url(#SVGID_354_);}
	.st507{fill:url(#SVGID_355_);}
	.st508{fill:url(#SVGID_356_);}
	.st509{fill:url(#SVGID_357_);}
	.st510{fill:url(#SVGID_358_);}
	.st511{fill:url(#SVGID_359_);}
	.st512{fill:url(#SVGID_360_);}
	.st513{fill:url(#SVGID_361_);}
	.st514{fill:url(#SVGID_362_);}
	.st515{fill:url(#SVGID_363_);}
	.st516{fill:url(#SVGID_364_);}
	.st517{fill:url(#SVGID_365_);}
	.st518{fill:url(#SVGID_366_);}
	.st519{fill:url(#SVGID_367_);}
	.st520{fill:url(#SVGID_368_);}
	.st521{fill:url(#SVGID_369_);}
	.st522{fill:url(#SVGID_370_);}
	.st523{fill:url(#SVGID_371_);}
	.st524{fill:url(#SVGID_372_);}
	.st525{fill:url(#SVGID_373_);}
	.st526{fill:url(#SVGID_374_);}
	.st527{fill:url(#SVGID_375_);}
	.st528{fill:url(#SVGID_376_);}
	.st529{fill:url(#SVGID_377_);}
	.st530{clip-path:url(#SVGID_379_);}
	.st531{clip-path:url(#SVGID_381_);}
	.st532{fill:#F4F0A6;}
	.st533{clip-path:url(#SVGID_383_);}
	.st534{opacity:0.6;fill:none;stroke:#F7CFA2;stroke-miterlimit:10;}
	.st535{fill:none;stroke:#F7CFA2;stroke-miterlimit:10;}
	.st536{fill:#EAA56C;}
	.st537{clip-path:url(#SVGID_385_);fill:#F7EFDF;}
</style>
<symbol  id="barras" viewBox="-216.8 -86.2 433.6 172.4">
	<g>
		<rect x="113.2" y="-86.2" class="st22" width="103.6" height="30.9"/>
		<text transform="matrix(1 0 0 -1 126.502 -65.4814)" class="st0 st146" style="font-size:15.36px;">Casi Siempre</text>
	</g>
	<rect x="-105.9" y="-35" class="st1" width="87" height="28.2"/>
	<rect x="-215.8" y="-35.3" class="st1" width="87" height="8.8"/>
	<rect x="7.8" y="-35" class="st1" width="87" height="61.7"/>
	<rect x="121.5" y="-35" class="st1" width="87" height="120.1"/>
	<g>
		<rect x="-101.5" y="-73.4" class="st22" width="78" height="18.1"/>
		<text transform="matrix(1 0 0 -1 -95.3037 -65.4814)" class="st0 st146" style="font-size:15.36px;">Casi nunca</text>
	</g>
	<rect x="-105.9" y="-35" class="st2" width="87" height="28.2"/>
	<g>
		<rect x="-192.1" y="-86.2" class="st22" width="39.6" height="30.9"/>
		<text transform="matrix(1 0 0 -1 -191.6748 -65.4814)" class="st0 st146" style="font-size:15.36px;">Nunca</text>
	</g>
	<rect x="-215.8" y="-35.3" class="st2" width="87" height="8.8"/>
	<g>
		<rect x="-3.7" y="-86.2" class="st22" width="110" height="30.9"/>
		<text transform="matrix(1 0 0 -1 9.9785 -65.4795)" class="st0 st146" style="font-size:15.36px;">Algunas veces</text>
	</g>
	<rect x="7.8" y="-35" class="st2" width="87" height="61.7"/>
	<rect x="121.5" y="-35" class="st2" width="87" height="120.1"/>
</symbol>
<g id="Layer_1">
	<circle class="st6" cx="687.4" cy="362.8" r="99.7"/>
	<path class="st7" d="M714.7,345.9c-2-8.1-8.3-16.2-13.6-21.5c-7.1-7.3-17-10.7-26.3-5.1c-10,6-16,13-21,23c-2,4,0,8-1.6,10.8
		c-0.2,2.4-0.2,4.9,0,7.3c0.4,5.5,1.6,10.9,3.5,16c0.6,1.7,1.4,3.3,2.1,4.9c0,10,0,19,0.2,28.7c0,1.6,0,3.2,0,4.8
		c-0.4,2.8-0.7,5.7-0.8,8.4c-0.1,2.7,0,5.4,0.2,8c-0.6,20.1,17.4,34.1,37.4,30.1c4-1,8-2,11-4c5-4,6-9,7-14c1-10,0-19-1.5-28.9
		c-1.2-7.9,1.5-17,1.1-25.2c-0.4-9.4-1.3-19,1-28.3c0.7-2.9,1.7-5.8,1.9-8.7C715.4,350.1,715.2,348,714.7,345.9z"/>
	<g>
		<defs>
			<path id="SVGID_1_" d="M787.1,363.9c0,55.1-44.7,99.7-99.7,99.7s-99.7-44.7-99.7-99.7c0-55.1-18.2-171.1,112.2-162.6
				C754.8,204.9,787.1,308.8,787.1,363.9z"/>
		</defs>
		<clipPath id="SVGID_2_">
			<use xlink:href="#SVGID_1_"  style="overflow:visible;"/>
		</clipPath>
		<path class="st8" d="M718,422.4c0-6.7-0.2-11.4-5.6-13.7c-3.2-1.4-10.5-2.5-14.7-2.3l-16.5,0.8c-5,0.2-13.1,1.7-16.6,4.1
			c-4.3,2.9-3.6,7.2-3.6,13.1v46.4c0,2.9,0.7,5.7,1.9,8.1c17.4,0.4,34.9-0.6,52.4-0.8c1.7-2.9,2.7-6.3,2.7-9.8V422.4z"/>
		<path class="st8" d="M668.5,411.9l2,0.7c3.3,0.9,3.2,8-0.1,15.8l-5.7,15.6l-5.9,18.2c-1.8,4.3-3,7.7-5.1,9.3
			c-1.7,1.3-4.4,1.5-5.9,1.1l-4.8-1.3c-1.2-0.3-3.1-1.5-3.6-2.8c-0.8-2.3,0.6-5.6,2.7-10.5c0,0,9.8-24.7,7.5-18.4s3.9-10.1,7.8-18.4
			C661.3,412.8,665.2,411,668.5,411.9z"/>
		<path class="st8" d="M709.3,408.7l-2,0.7c-3.3,0.9-3.2,8,0.1,15.8l5.7,15.6l5.9,18.2c1.8,4.3,3,7.7,5.1,9.3
			c1.7,1.3,4.4,1.5,5.9,1.1l4.8-1.3c1.2-0.3,3.1-1.5,3.6-2.8c0.8-2.3-0.6-5.6-2.7-10.5c0,0-9.8-24.7-7.5-18.4s-3.9-10.1-7.8-18.4
			C716.5,409.5,712.5,407.8,709.3,408.7z"/>
		<polygon class="st9" points="689.6,424.7 689.6,406.9 697.3,410.4 		"/>
		<polygon class="st9" points="689.6,424.7 689.6,406.9 681.9,410.4 		"/>
		<polygon class="st10" points="695.2,409.7 689.4,407 684.8,410.5 687.8,415.1 691.7,415.2 		"/>
		<polygon class="st10" points="697,454.7 690.5,461.9 683,455.5 687.8,415.1 691.7,415.2 		"/>
		<polygon class="st11" points="689.6,406.9 689.6,407.2 697,413.6 700.2,406.9 698.7,404.1 		"/>
		<polygon class="st11" points="689.6,406.9 689.6,407.2 682.2,413.6 678.9,406.9 680.4,404.1 		"/>
		<g class="st12">
			<polygon class="st13" points="697,437.9 703.5,441.2 710.1,437.9 710.1,428.2 697,428.2 			"/>
			<rect x="697" y="424" class="st13" width="13.1" height="3"/>
		</g>
		<g class="st12">
			<path class="st14" d="M594.4,352.8c0,0.3,0,0.5,0,0.8C594.4,353.4,594.4,353.1,594.4,352.8z"/>
		</g>
	</g>
	<g>
		<defs>
			<path id="SVGID_3_" d="M786.8,363.9c0,55.1-44.7,99.7-99.7,99.7s-99.7-44.7-99.7-99.7c0-55.1,44.7-165.7,99.7-165.7
				S786.8,308.8,786.8,363.9z"/>
		</defs>
		<clipPath id="SVGID_4_">
			<use xlink:href="#SVGID_3_"  style="overflow:visible;"/>
		</clipPath>
	</g>
	<path class="st13" d="M763.5,61.3c4.6-4.2,9.3-8.2,14.3-11.5c9-6.1,20.3-9.5,28.8-0.6c14.1,14.6-5.7,36-16.7,45.8
		c-10,8.8-52,41.4-60,14.2c-1.6-5.4,2.3-11.7,4.1-16.1c2.2-5.2,10.9-5.7,11.8-7C750.2,79.4,757.5,66.8,763.5,61.3z"/>
	<g>
		<path class="st14" d="M739.2,110.3c0.2,0,0.4-0.1,0.7-0.1C739.7,110.2,739.4,110.3,739.2,110.3z"/>
	</g>
	<path class="st21" d="M734.1,99.2H621.9c-3.2,0-5.8-2.6-5.8-5.8V65.6c0-3.2,2.6-5.8,5.8-5.8h112.3c3.2,0,5.8,2.6,5.8,5.8v27.7
		C740,96.5,737.3,99.2,734.1,99.2z"/>
	<rect x="637.8" y="70" class="st22" width="81.9" height="28.3"/>
	<text transform="matrix(1 0 0 1 656.7847 87.3295)" class="st13 st146 st147">Listo</text>
	<rect x="32.2" y="72.9" class="st22" width="391.9" height="48.3"/>
	<text transform="matrix(1 0 0 1 32.1871 90.2035)" class="st0 st146 st147">Instrucciones</text>
	<rect x="32.2" y="72.9" class="st22" width="391.9" height="48.3"/>
	<text transform="matrix(1 0 0 1 32.1871 90.2035)" class="st0 st146 st147">Instrucciones</text>
	<rect x="34.9" y="28.9" class="st22" width="391.9" height="48.3"/>
	<text transform="matrix(1 0 0 1 34.8927 47.6332)" class="st0 st148 st147">HOla, Kaira POlet ARAYA</text>
	<polyline class="st22" points="684.1,16.9 681.7,65.2 292.2,65.2 	"/>
	<rect x="31.4" y="116.4" class="st22" width="571.9" height="88.3"/>
	<text transform="matrix(1 0 0 1 31.4317 131.0448)" class="st0 st146 st149">He sido golpeado o empujado por otros compañeros-as</text>
	<g>
		<path class="st14" d="M594.4,352.1c0,0.2,0,0.5,0,0.7C594.4,352.6,594.4,352.3,594.4,352.1z"/>
	</g>
	<path class="st7" d="M646.1,354c-0.6,5.9,3.9,6.8,7.1,9.9c1.2,0.9,2.5,1.7,3.8,2.6c2.6,1.7,5.1,3.5,7,5.8c1.6,1.6,2.9,3.2,3.7,4.7
		c1.7,3.1,1.5,6.2-1.9,8.7c-5,4.4-10.7,2.7-15.8-0.3c-1.7-1-3.3-2.1-4.8-3.2c-6.5-5.3-15.1-8.6-21.4-13.5c-1.6-1.2-3-2.5-4.3-4
		c-3.3-6.6-2.6-12.3,0.5-17.4c1-1.7,2.3-3.3,3.8-4.8c11.6-7.8,26.9-22.2,40.4-15.9c0.9,0.9,1.8,3.6,1.8,5.4
		c-0.9,9.9-10.8,12.6-17.1,18C647.9,351.3,646.9,352.6,646.1,354z"/>
	<path class="st91" d="M634.7,377.1c-1-10.8-2-20.8-7-30.6c-0.8-1.5-1.7-2.9-2.7-4.1c-3-3.6-6.9-5.8-12.4-5.4
		c-1.8,0.1-3.8,0.5-6,1.3c-27,11-22.5,40.5-11.9,61.8c0.9,2.3,3,6.8,4.1,9c5,10.8,13.9,22.1,21.7,27.8c2.7,2,12.6,10.3,12.9,9.5
		c0.6-1.7,0.9-20.3,0.7-22.2c-0.4-3.3,0.6-15.8-0.1-25.1c-0.2-2.3-0.3-4.7-0.3-7.1c0-2.4,0.2-4.8,0.7-7.1
		C634.7,382.2,634.8,379.5,634.7,377.1z"/>
	<path class="st91" d="M582.1,366.7c0.6,1.8,1.5,3.3,2.6,4.6c1.1,1.4,2.4,2.6,3.8,3.7c7.3,5.2,22.3,14.2,14.3,20.2
		c-5.2,4.5-11.3,0.7-15.8-2.7c-2.6-1.9-5.1-4.1-7.9-5.9c-3-1.9-6.2-3.4-9.2-5.2c-3.7-2.3-7.2-5.6-8.2-9.9c-1-4.6,1.1-9.4,4.3-12.8
		c4.6-4.8,38.5-24.4,38.5-7.5c0,3.1-2.8,5.6-5.2,7.2c-2.1,1.3-4.4,2.1-6.7,2.8c-2,0.6-5.3,0.8-7,2
		C583.9,364.3,582.8,365.5,582.1,366.7z"/>
	<path class="st91" d="M639,367.5c-0.5,1.4-1.2,2.6-2.1,3.7c-0.9,1.1-1.9,2-3,2.9c-5.8,4.2-17.8,11.4-11.4,16.2
		c6.4,5.6,13.6-4,20.4-7.6c1.2-0.8,2.5-1.5,3.8-2.2c3-1.7,5.9-3,7.6-6.2c1.5-2.8,1.8-6.3,0.5-9.3c-1.2-2.8-3.6-5-6.2-6.8
		c-4.2-2.9-27.3-15.7-27.3-3.1c0,1.4,0.6,2.5,1.6,3.5c2.9,3.7,8.5,4.5,13.6,6.1C637.5,365.6,638.4,366.5,639,367.5z"/>
	<g>
		<g>
			<path class="st7" d="M710.5,295.8c0.1,0,0.2,0,0.3-0.1C710.7,295.8,710.6,295.8,710.5,295.8z"/>
		</g>
		<g>
			<path class="st7" d="M710.2,295.9c0.1,0,0.2,0,0.3-0.1C710.4,295.8,710.3,295.9,710.2,295.9z"/>
		</g>
		<g>
			<path class="st7" d="M709.2,296.5c-0.2,0.3-0.4,1-0.2,1.4l1.8-2.1c-0.1,0-0.2,0-0.3,0.1c-0.1,0-0.2,0-0.3,0.1
				C709.8,296,709.5,296.1,709.2,296.5z"/>
		</g>
		<path class="st7" d="M690.1,308l-3.9,0.1c-3.8,0.1-7-3-7.1-6.8l-0.3-11.7c-0.1-3.8,3-7,6.8-7.1l3.9-0.1c3.8-0.1,7,3,7.1,6.8
			l0.3,11.7C696.9,304.7,693.9,307.9,690.1,308z"/>
		
			<ellipse transform="matrix(0.9997 -2.296130e-02 2.296130e-02 0.9997 -6.6017 15.276)" class="st7" cx="661.9" cy="295.1" rx="6.9" ry="6.9"/>
		
			<ellipse transform="matrix(0.9997 -2.296130e-02 2.296130e-02 0.9997 -6.6017 15.276)" class="st7" cx="661.9" cy="295.1" rx="4.5" ry="4.5"/>
		
			<ellipse transform="matrix(0.9997 -2.296130e-02 2.296130e-02 0.9997 -6.5575 16.5582)" class="st7" cx="717.8" cy="293.8" rx="6.9" ry="6.9"/>
		
			<ellipse transform="matrix(0.9997 -2.296130e-02 2.296130e-02 0.9997 -6.5575 16.5582)" class="st7" cx="717.8" cy="293.8" rx="4.5" ry="4.5"/>
		<path class="st7" d="M718,287.8c3.3-31.4-13.2-22.9-28.9-22.6c-15.7,0.4-28.1,11-27.8,23.9c0.1,2.9,0.3,13.4,0.4,16.3
			c0.3,12.8,19.2,22.8,28.9,22.6c8.5-0.2,28.1-11,27.8-23.9C718.3,301.2,717.7,290.6,718,287.8z"/>
		<path class="st7" d="M703.3,296.5c14.4-3.3,23.4-16.3,18-31.7c-0.5-1.4-1.2-2.7-2-3.9c-0.8-1.3-1.7-2.5-2.7-3.7c-7-8-19-10-29-9
			c-3,0-5,3-8,4c-1.5,1-2.5,2.2-3.4,3.5s-1.6,2.5-2.6,3.5c-2,4-1,9-3,13c13,1,14,17,22,25c1,1,3,0,5.2,0.1
			C699.7,297.3,701.4,297.1,703.3,296.5z"/>
		<path class="st7" d="M687.6,261c0.3-0.3,0.2-0.8-0.2-1.1c0,0,0,0,0,0c-8.9-5.8-20.7-3.3-26.5,5.6c-4,6.1-4,13.7-0.8,19.7
			c0.2,0.4,0.7,0.5,1.1,0.2C671,278.4,680.5,270.6,687.6,261z"/>
		<g>
			<path class="st92" d="M713.2,293.8c0.1,5.7-2.3,10.4-8,10.5c-5.7,0.1-9.4-4.4-9.5-10.1c-0.1-5.7,3.3-10.4,9-10.5
				C710.4,283.6,713.1,288.1,713.2,293.8z"/>
			
				<ellipse transform="matrix(0.9997 -2.296130e-02 2.296130e-02 0.9997 -6.5764 16.2535)" class="st7" cx="704.5" cy="294.5" rx="9" ry="9"/>
			<g>
				
					<ellipse transform="matrix(0.9997 -2.296130e-02 2.296130e-02 0.9997 -6.6842 16.2567)" class="st7" cx="704.6" cy="299.2" rx="4.3" ry="4.3"/>
				
					<ellipse transform="matrix(0.9997 -2.296130e-02 2.296130e-02 0.9997 -6.6842 16.2567)" class="st7" cx="704.6" cy="299.2" rx="1.7" ry="1.7"/>
				
					<ellipse transform="matrix(0.9997 -2.296130e-02 2.296130e-02 0.9997 -6.6403 16.2305)" class="st7" cx="703.4" cy="297.3" rx="1.2" ry="1.2"/>
			</g>
		</g>
		<g>
			<path class="st92" d="M666.3,294.9c0.1,5.7,2.8,10.3,8.5,10.1c5.7-0.1,9.2-4.8,9-10.5c-0.1-5.7-3.8-10.2-9.5-10.1
				C668.6,284.5,666.2,289.2,666.3,294.9z"/>
			
				<ellipse transform="matrix(0.9997 -2.296052e-02 2.296052e-02 0.9997 -6.5995 15.5775)" class="st7" cx="675.1" cy="295.2" rx="9" ry="9"/>
			
				<ellipse transform="matrix(0.9997 -2.296052e-02 2.296052e-02 0.9997 -6.7092 15.579)" class="st7" cx="675.1" cy="300" rx="4.3" ry="4.3"/>
			
				<ellipse transform="matrix(0.9997 -2.296052e-02 2.296052e-02 0.9997 -6.7092 15.579)" class="st7" cx="675.1" cy="300" rx="1.7" ry="1.7"/>
			
				<ellipse transform="matrix(0.9997 -2.296052e-02 2.296052e-02 0.9997 -6.6652 15.5541)" class="st7" cx="674" cy="298" rx="1.2" ry="1.2"/>
		</g>
		<path class="st7" d="M679.7,319.2c0,0,4.7-3.8,10.6-4s10.8,3.5,10.8,3.5s-5.2-0.9-11.1-0.8C684.1,318,679.7,319.2,679.7,319.2z"/>
		<path class="st7" d="M669.7,272c0,0,7.4,3.1,11,5.3c4.9,3.1,15.2,3.2,15.2,3.2s-7.7-9.9-12.7-11.2C678.2,268,669.7,272,669.7,272z
			"/>
		
			<ellipse transform="matrix(0.9997 -2.296130e-02 2.296130e-02 0.9997 -6.833 15.4536)" class="st7" cx="669.5" cy="305.3" rx="1" ry="0.5"/>
		
			<ellipse transform="matrix(0.9997 -2.296130e-02 2.296130e-02 0.9997 -6.8298 15.5471)" class="st7" cx="673.6" cy="305.2" rx="1" ry="0.5"/>
		
			<ellipse transform="matrix(0.9997 -2.296130e-02 2.296130e-02 0.9997 -6.8781 15.502)" class="st7" cx="671.6" cy="307.3" rx="1" ry="0.5"/>
		
			<ellipse transform="matrix(0.9997 -2.296130e-02 2.296130e-02 0.9997 -6.8041 16.2923)" class="st7" cx="706.1" cy="304.4" rx="1" ry="0.5"/>
		
			<ellipse transform="matrix(0.9997 -2.296130e-02 2.296130e-02 0.9997 -6.8009 16.3858)" class="st7" cx="710.1" cy="304.3" rx="1" ry="0.5"/>
		
			<ellipse transform="matrix(0.9997 -2.296130e-02 2.296130e-02 0.9997 -6.8492 16.3407)" class="st7" cx="708.1" cy="306.4" rx="1" ry="0.5"/>
		<path class="st93" d="M661.2,278.2l0.9,23.8l2.2-2.1l1.4-14.4c0,0,3.4-9.4,8-11.3s13.7-2.7,13.7-2.7l-7.7-3.6L661.2,278.2z"/>
		<path class="st93" d="M718.6,275.8l-0.8,21.9l-1.9,1l-2.1-14.3c0,0-3.8-9.2-8.5-11s-13.8-2-13.8-2l7.5-4L718.6,275.8z"/>
		<path class="st7" d="M699.6,287.5l11.8,2.6c1.7,0.4,3.3-0.7,3.7-2.4l0,0c0.4-1.7-0.7-3.3-2.4-3.7l-11.8-2.6
			c-1.7-0.4-3.3,0.7-3.7,2.4l0,0C696.9,285.5,698,287.1,699.6,287.5z"/>
	</g>
	<path class="st7" d="M705.2,346.7c-0.6,1.8-1.5,3.3-2.6,4.6c-1.1,1.4-2.4,2.6-3.8,3.7c-7.3,5.2-22.3,14.2-14.3,20.2
		c5.2,4.5,11.3,0.7,15.8-2.7c2.6-1.9,5.1-4.1,7.9-5.9c3-1.9,6.2-3.4,9.2-5.2c3.7-2.3,7.2-5.6,8.2-9.9c1-4.6-1.1-9.4-4.3-12.8
		c-4.6-4.8-38.5-24.4-38.5-7.5c0,3.1,2.8,5.6,5.2,7.2c2.1,1.3,4.4,2.1,6.7,2.8c2,0.6,5.3,0.8,7,2
		C703.4,344.3,704.5,345.5,705.2,346.7z"/>
	<path class="st7" d="M729.4,355c-0.7,2-1.7,3.8-3,5.3c-1.3,1.6-2.7,2.9-4.4,4.2c-8.4,6-25.6,16.4-16.4,23.3
		c9.2,8.1,19.6-5.8,29.3-11c1.8-1.1,3.6-2.2,5.4-3.2c4.3-2.5,8.5-4.4,10.9-9c2.1-4.1,2.6-9.1,0.7-13.3c-1.8-4.1-5.2-7.2-8.9-9.7
		c-6.1-4.1-39.4-22.6-39.4-4.4c0,2,0.9,3.7,2.3,5.1c4.2,5.3,12.3,6.4,19.6,8.8C727.3,352.3,728.6,353.6,729.4,355z"/>
	<g>
		<g>
			<path class="st91" d="M737.8,332.3c-0.1,0-0.2,0-0.3,0.1C737.6,332.3,737.7,332.3,737.8,332.3z"/>
		</g>
		<g>
			<path class="st91" d="M738.1,332.2c-0.1,0-0.2,0-0.3,0.1C737.9,332.2,738,332.2,738.1,332.2z"/>
		</g>
		<g>
			<path class="st91" d="M739.2,332.4c0.3,0.2,0.8,0.8,0.7,1.2l-2.4-1.3c0.1,0,0.2,0,0.3-0.1c0.1,0,0.2,0,0.3-0.1
				C738.5,332.1,738.8,332.1,739.2,332.4z"/>
		</g>
		<path class="st91" d="M761.2,336.1l3.6-1.3c3.6-1.3,5.4-5.3,4.1-8.9l-4-11c-1.3-3.6-5.3-5.4-8.9-4.1l-3.6,1.3
			c-3.6,1.3-5.4,5.3-4.1,8.9l4,11C753.7,335.6,757.7,337.5,761.2,336.1z"/>
		
			<ellipse transform="matrix(0.9393 -0.3432 0.3432 0.9393 -60.1852 287.6838)" class="st91" cx="782.7" cy="313.9" rx="6.9" ry="6.9"/>
		
			<ellipse transform="matrix(0.9393 -0.3432 0.3432 0.9393 -60.1852 287.6838)" class="st91" cx="782.7" cy="313.9" rx="4.5" ry="4.5"/>
		
			<ellipse transform="matrix(0.9393 -0.3432 0.3432 0.9393 -69.9523 270.8385)" class="st91" cx="730.3" cy="333.1" rx="6.9" ry="6.9"/>
		
			<ellipse transform="matrix(0.9393 -0.3432 0.3432 0.9393 -69.9523 270.8385)" class="st91" cx="730.3" cy="333.1" rx="4.5" ry="4.5"/>
		<path class="st91" d="M727.8,327.5c-14.5-28.1,4-26.2,18.7-31.5c14.7-5.4,30.2,0,34.6,12.1c1,2.7,4.6,12.6,5.6,15.3
			c4.4,12-9.6,28.2-18.7,31.5c-8,2.9-30.2,0-34.6-12.1C732.4,340.1,729.1,330.1,727.8,327.5z"/>
		<path class="st91" d="M734.9,317.6c0.4-0.9-1.3-1.7-1.3-1.7c-4.1,0.8-2.4,7.4-6.9,6.9c-1.5-0.2-1.8-3-2.5-4.9
			c0,4.6-2.3,1.8-5.1,1.5c-1-2-1.8-3.7-2.2-4.8c-5.3-14.4,3.9-27.8,18.3-33.1c14-5.1,25,0.7,30.7,14.4c-12.3,0.3-17.7,8.4-22.5,17.6
			C740.4,314.7,738,316.5,734.9,317.6z"/>
		<path class="st91" d="M746.4,291.5c-0.4-0.2-0.5-0.7-0.2-1c0,0,0,0,0,0c6.1-8.6,18.1-10.6,26.7-4.5c5.9,4.2,8.7,11.2,7.9,18
			c-0.1,0.4-0.5,0.7-0.9,0.6C768.2,301.7,756.5,297.8,746.4,291.5z"/>
		<g>
			<path class="st94" d="M734.5,331.4c2,5.4,5.9,8.8,11.3,6.9c5.4-2,7.1-7.5,5.2-12.9c-2-5.4-6.9-8.5-12.3-6.5
				C733.4,320.8,732.6,326,734.5,331.4z"/>
			<ellipse transform="matrix(0.9393 -0.3432 0.3432 0.9393 -67.74 274.9097)" class="st91" cx="742.9" cy="328.9" rx="9" ry="9"/>
			<g>
				
					<ellipse transform="matrix(0.9393 -0.3432 0.3432 0.9393 -69.1515 275.7374)" class="st91" cx="744.5" cy="333.3" rx="4.3" ry="4.3"/>
				
					<ellipse transform="matrix(0.9393 -0.3432 0.3432 0.9393 -69.1515 275.7374)" class="st91" cx="744.5" cy="333.3" rx="1.7" ry="1.7"/>
				
					<ellipse transform="matrix(0.9393 -0.3432 0.3432 0.9393 -68.375 275.7209)" class="st91" cx="744.9" cy="331.1" rx="1.2" ry="1.2"/>
			</g>
		</g>
		<g>
			<path class="st94" d="M778.5,315.3c2,5.4,1.2,10.6-4.2,12.5c-5.4,2-10.3-1.2-12.3-6.5s-0.2-10.9,5.2-12.9
				C772.6,306.5,776.6,309.9,778.5,315.3z"/>
			<ellipse transform="matrix(0.9393 -0.3432 0.3432 0.9393 -62.5944 283.785)" class="st91" cx="770.5" cy="318.8" rx="9" ry="9"/>
			
				<ellipse transform="matrix(0.9393 -0.3432 0.3432 0.9393 -64.0175 284.6502)" class="st91" cx="772.3" cy="323.2" rx="4.3" ry="4.3"/>
			
				<ellipse transform="matrix(0.9393 -0.3432 0.3432 0.9393 -64.0175 284.6502)" class="st91" cx="772.3" cy="323.2" rx="1.7" ry="1.7"/>
			
				<ellipse transform="matrix(0.9393 -0.3432 0.3432 0.9393 -63.2511 284.6161)" class="st91" cx="772.5" cy="321" rx="1.2" ry="1.2"/>
		</g>
		<path class="st91" d="M774.9,342.8c0,0-5.8-1.9-11.3,0.2c-5.5,2-8.8,7.2-8.8,7.2s4.5-2.7,10.1-4.8S774.9,342.8,774.9,342.8z"/>
		<path class="st91" d="M762.2,338.4L762.2,338.4c2.1-0.8,3.2-3.1,2.5-5.3l-5.1-14c-0.8-2.1-3.1-3.2-5.3-2.5l0,0
			c-2.1,0.8-3.2,3.1-2.5,5.3l5.1,14C757.7,338.1,760.1,339.2,762.2,338.4z"/>
		<path class="st91" d="M762.1,335.9L762.1,335.9c2.1-0.8,3.2-3.1,2.5-5.3l-5.1-14c-0.8-2.1-3.1-3.2-5.3-2.5l0,0
			c-2.1,0.8-3.2,3.1-2.5,5.3l5.1,14C757.6,335.5,760,336.6,762.1,335.9z"/>
		<path class="st91" d="M767,295.2c0,0-5.8,5.6-8.3,9c-3.5,4.7-13,8.6-13,8.6s3.5-12,7.7-15.1C757.7,294.6,767,295.2,767,295.2z"/>
		<path class="st91" d="M765.1,281.1c0,0-2.8,0.9-4.2,1.6c-1.9,1-5.7,0.7-5.7,0.7s3.1-3.4,5-3.7S765.1,281.1,765.1,281.1z"/>
		<path class="st91" d="M749.8,277c0,0,1.7,2.4,2.4,3.7c1,1.9,4.2,3.9,4.2,3.9s-0.6-4.5-1.9-5.9S749.8,277,749.8,277z"/>
		
			<ellipse transform="matrix(0.9393 -0.3432 0.3432 0.9393 -64.5914 287.2646)" class="st91" cx="779.4" cy="326.1" rx="1" ry="0.5"/>
		
			<ellipse transform="matrix(0.9393 -0.3432 0.3432 0.9393 -65.3039 286.0358)" class="st91" cx="775.5" cy="327.5" rx="1" ry="0.5"/>
		
			<ellipse transform="matrix(0.9393 -0.3432 0.3432 0.9393 -65.562 287.0064)" class="st91" cx="778.1" cy="328.7" rx="1" ry="0.5"/>
		<ellipse transform="matrix(0.9393 -0.3432 0.3432 0.9393 -70.98 276.2463)" class="st91" cx="745" cy="338.7" rx="1" ry="0.5"/>
		
			<ellipse transform="matrix(0.9393 -0.3432 0.3432 0.9393 -71.6924 275.0175)" class="st91" cx="741.2" cy="340.1" rx="1" ry="0.5"/>
		
			<ellipse transform="matrix(0.9393 -0.3432 0.3432 0.9393 -71.9506 275.9882)" class="st91" cx="743.8" cy="341.3" rx="1" ry="0.5"/>
		<path class="st95" d="M777.3,297.9l7.8,22.5l-2.8-1.2l-6.6-12.9c0,0-6.6-7.5-11.5-7.7c-5-0.2-13.8,2.5-13.8,2.5l5.9-6.2
			L777.3,297.9z"/>
		<path class="st95" d="M722.9,316.6l8.7,20.1l2.1,0.3l-3.3-14.1c0,0,0.2-10,3.9-13.3c3.7-3.3,12.1-6.9,12.1-6.9l-8.5-1L722.9,316.6
			z"/>
		<path class="st91" d="M744.9,320.6l-10.1,6.7c-1.4,0.9-3.3,0.6-4.3-0.9l0,0c-0.9-1.4-0.6-3.3,0.9-4.3l10.1-6.7
			c1.4-0.9,3.3-0.6,4.3,0.9l0,0C746.7,317.7,746.3,319.6,744.9,320.6z"/>
		<path class="st91" d="M774,312.9l-12.1-0.1c-1.7,0-3.1-1.4-3.1-3.1l0,0c0-1.7,1.4-3.1,3.1-3.1l12.1,0.1c1.7,0,3.1,1.4,3.1,3.1v0
			C777.1,311.6,775.7,312.9,774,312.9z"/>
	</g>
	<path class="st91" d="M739.8,377.1c1-10.8,2-20.8,7-30.6c0.8-1.5,1.7-2.9,2.7-4.1c3-3.6,6.9-5.8,12.4-5.4c1.8,0.1,3.8,0.5,6,1.3
		c27,11,22.5,40.5,11.9,61.8c-0.9,2.3-3,6.8-4.1,9c-5,10.8-13.9,22.1-21.7,27.8c-2.7,2-12.6,10.3-12.9,9.5
		c-0.6-1.7-0.9-20.3-0.7-22.2c0.4-3.3-0.6-15.8,0.1-25.1c0.2-2.3,0.3-4.7,0.3-7.1c0-2.4-0.2-4.8-0.7-7.1
		C739.8,382.2,739.7,379.5,739.8,377.1z"/>
	<path class="st91" d="M792.4,366.7c-0.6,1.8-1.5,3.3-2.6,4.6c-1.1,1.4-2.4,2.6-3.8,3.7c-7.3,5.2-22.3,14.2-14.3,20.2
		c5.2,4.5,11.3,0.7,15.8-2.7c2.6-1.9,5.1-4.1,7.9-5.9c3-1.9,6.2-3.4,9.2-5.2c3.7-2.3,7.2-5.6,8.2-9.9c1-4.6-1.1-9.4-4.3-12.8
		c-4.6-4.8-38.5-24.4-38.5-7.5c0,3.1,2.8,5.6,5.2,7.2c2.1,1.3,4.4,2.1,6.7,2.8c2,0.6,5.3,0.8,7,2
		C790.6,364.3,791.7,365.5,792.4,366.7z"/>
	<path class="st91" d="M735.5,367.5c0.5,1.4,1.2,2.6,2.1,3.7c0.9,1.1,1.9,2,3,2.9c5.8,4.2,17.8,11.4,11.4,16.2
		c-6.4,5.6-13.6-4-20.4-7.6c-1.2-0.8-2.5-1.5-3.8-2.2c-3-1.7-5.9-3-7.6-6.2c-1.5-2.8-1.8-6.3-0.5-9.3c1.2-2.8,3.6-5,6.2-6.8
		c4.2-2.9,27.3-15.7,27.3-3.1c0,1.4-0.6,2.5-1.6,3.5c-2.9,3.7-8.5,4.5-13.6,6.1C737,365.6,736.1,366.5,735.5,367.5z"/>
	<g>
		<g>
			<path class="st14" d="M710.9,375.6c0.1,0,0.2,0,0.3-0.1C711.1,375.6,711,375.6,710.9,375.6z"/>
		</g>
		<g>
			<path class="st14" d="M710.6,375.7c0.1,0,0.2,0,0.3,0C710.8,375.6,710.7,375.6,710.6,375.7z"/>
		</g>
		<g>
			<path class="st14" d="M709.7,376.3c-0.2,0.3-0.4,1-0.3,1.3l1.8-2c-0.1,0-0.2,0-0.3,0.1c-0.1,0-0.2,0-0.3,0
				C710.2,375.7,709.9,375.8,709.7,376.3z"/>
		</g>
		<path class="st66" d="M690.3,387.4l-3.9,0c-3.8,0-6.9-3.1-7-6.9l-0.1-11.7c0-3.8,3.1-6.9,6.9-7l3.9,0c3.8,0,6.9,3.1,7,6.9
			l0.1,11.7C697.2,384.3,694.1,387.4,690.3,387.4z"/>
		
			<ellipse transform="matrix(1 -5.523084e-03 5.523084e-03 1 -2.0558 3.6641)" class="st14" cx="662.4" cy="374.1" rx="6.9" ry="6.9"/>
		
			<ellipse transform="matrix(1 -5.523084e-03 5.523084e-03 1 -2.0558 3.6641)" class="st66" cx="662.4" cy="374.1" rx="4.5" ry="4.5"/>
		
			<ellipse transform="matrix(1 -5.523084e-03 5.523084e-03 1 -2.0533 3.9727)" class="st14" cx="718.3" cy="373.7" rx="6.9" ry="6.9"/>
		
			<ellipse transform="matrix(1 -5.523084e-03 5.523084e-03 1 -2.0533 3.9727)" class="st66" cx="718.3" cy="373.7" rx="4.5" ry="4.5"/>
		<path class="st14" d="M718.6,367.7c3.8-31.4-12.8-23.1-28.5-23.1s-28.3,10.6-28.2,23.4c0,2.9,0.1,13.4,0.1,16.3
			c0.1,12.8,18.8,23.1,28.5,23.1c8.5,0,28.3-10.6,28.2-23.4C718.7,381.1,718.3,370.5,718.6,367.7z"/>
		<path class="st0" d="M708.6,360.9c-0.7-0.7,0.7-2,0.7-2c4.1-0.7,4.8,6.1,8.9,4c1.4-0.7,0.7-3.4,0.6-5.4c1.6,4.3,2.8,0.9,5.3-0.4
			c0.2-2.3,0.4-4.1,0.4-5.2c-0.1-15.3-13.4-24.7-28.7-24.7c-14.9,0.1-23.2,9.4-23.7,24.2c11.6-4,19.5,1.7,27.2,8.7
			C702.4,360,705.3,360.9,708.6,360.9z"/>
		<path class="st0" d="M688.7,340.4c0.3-0.3,0.2-0.8-0.2-1.1c0,0,0,0,0,0c-8.8-5.9-20.7-3.7-26.6,5.1c-4.1,6-4.3,13.6-1.1,19.6
			c0.2,0.4,0.7,0.5,1.1,0.3C671.8,357.5,681.4,349.9,688.7,340.4z"/>
		<g>
			<path class="st72" d="M713.7,373.7c0,5.7-2.5,10.3-8.2,10.4c-5.7,0-9.3-4.6-9.3-10.3c0-5.7,3.5-10.3,9.2-10.4
				C711.1,363.3,713.6,367.9,713.7,373.7z"/>
			<ellipse transform="matrix(1 -5.523084e-03 5.523084e-03 1 -2.0559 3.8993)" class="st13" cx="705" cy="374.2" rx="9" ry="9"/>
			<g>
				
					<ellipse transform="matrix(1 -5.523084e-03 5.523084e-03 1 -2.0818 3.8994)" class="st0" cx="705" cy="378.9" rx="4.3" ry="4.3"/>
				<ellipse transform="matrix(1 -5.523084e-03 5.523084e-03 1 -2.0818 3.8994)" cx="705" cy="378.9" rx="1.7" ry="1.7"/>
				
					<ellipse transform="matrix(1 -5.523084e-03 5.523084e-03 1 -2.0711 3.8934)" class="st73" cx="703.9" cy="376.9" rx="1.2" ry="1.2"/>
			</g>
		</g>
		<g>
			<path class="st72" d="M666.8,373.9c0,5.7,2.6,10.3,8.3,10.3c5.7,0,9.3-4.7,9.2-10.4c0-5.7-3.6-10.3-9.3-10.3
				C669.3,363.6,666.8,368.2,666.8,373.9z"/>
			<ellipse transform="matrix(1 -5.522298e-03 5.522298e-03 1 -2.057 3.7362)" class="st13" cx="675.5" cy="374.3" rx="9" ry="9"/>
			
				<ellipse transform="matrix(1 -5.522298e-03 5.522298e-03 1 -2.0833 3.7359)" class="st0" cx="675.5" cy="379.1" rx="4.3" ry="4.3"/>
			<ellipse transform="matrix(1 -5.522298e-03 5.522298e-03 1 -2.0833 3.7359)" cx="675.5" cy="379.1" rx="1.7" ry="1.7"/>
			
				<ellipse transform="matrix(1 -5.522298e-03 5.522298e-03 1 -2.0726 3.7302)" class="st73" cx="674.4" cy="377.2" rx="1.2" ry="1.2"/>
		</g>
		<path class="st75" d="M679.8,398.4c0,0,4.8-3.7,10.7-3.8s10.7,3.7,10.7,3.7s-5.2-1-11.1-1C684.2,397.4,679.8,398.4,679.8,398.4z"
			/>
		<path class="st66" d="M690.2,389.9L690.2,389.9c-2.3,0-4.1-1.8-4.1-4.1l-0.1-14.9c0-2.3,1.8-4.1,4.1-4.1l0,0
			c2.3,0,4.1,1.8,4.1,4.1l0.1,14.9C694.3,388,692.5,389.9,690.2,389.9z"/>
		<path class="st14" d="M689.4,387.5L689.4,387.5c-2.3,0-4.1-1.8-4.1-4.1l-0.1-14.9c0-2.3,1.8-4.1,4.1-4.1h0c2.3,0,4.1,1.8,4.1,4.1
			l0.1,14.9C693.5,385.6,691.6,387.4,689.4,387.5z"/>
		<path class="st0" d="M670.6,351c0,0,7.4,3.2,10.9,5.5c4.9,3.2,15.2,3.5,15.2,3.5s-7.5-10-12.5-11.4S670.6,351,670.6,351z"/>
		<path class="st0" d="M667.5,337.2c0,0,2.9-0.1,4.5,0c2.1,0.2,5.5-1.3,5.5-1.3s-4.1-2.1-6-1.7C669.7,334.6,667.5,337.2,667.5,337.2
			z"/>
		<path class="st0" d="M680.4,328c0,0-0.8,2.8-1,4.4c-0.2,2.1-2.6,5.1-2.6,5.1s-1.1-4.5-0.3-6.2S680.4,328,680.4,328z"/>
		
			<ellipse transform="matrix(1 -5.523084e-03 5.523084e-03 1 -2.1125 3.7053)" class="st66" cx="669.8" cy="384.3" rx="1" ry="0.5"/>
		
			<ellipse transform="matrix(1 -5.523084e-03 5.523084e-03 1 -2.1124 3.7279)" class="st66" cx="673.9" cy="384.3" rx="1" ry="0.5"/>
		
			<ellipse transform="matrix(1 -5.523084e-03 5.523084e-03 1 -2.1237 3.7167)" class="st66" cx="671.9" cy="386.4" rx="1" ry="0.5"/>
		
			<ellipse transform="matrix(1 -5.523084e-03 5.523084e-03 1 -2.1109 3.9072)" class="st66" cx="706.4" cy="384.1" rx="1" ry="0.5"/>
		
			<ellipse transform="matrix(1 -5.523084e-03 5.523084e-03 1 -2.1107 3.9297)" class="st66" cx="710.4" cy="384.1" rx="1" ry="0.5"/>
		<ellipse transform="matrix(1 -5.523084e-03 5.523084e-03 1 -2.122 3.9185)" class="st66" cx="708.4" cy="386.2" rx="1" ry="0.5"/>
		<path class="st82" d="M661.9,357.2l0.5,23.8l2.3-2.1l1.7-14.4c0,0,3.5-9.3,8.2-11.2s13.8-2.4,13.8-2.4l-7.6-3.8L661.9,357.2z"/>
		<path class="st82" d="M719.4,355.7l-1.2,21.9l-1.9,1l-1.8-14.4c0,0-3.6-9.3-8.3-11.1c-4.6-1.8-13.8-2.3-13.8-2.3l7.6-3.9
			L719.4,355.7z"/>
		<path class="st83" d="M700.2,367.1l11.8,2.8c1.7,0.4,3.3-0.6,3.7-2.3l0,0c0.4-1.7-0.6-3.3-2.3-3.7l-11.8-2.8
			c-1.7-0.4-3.3,0.6-3.7,2.3l0,0C697.5,365,698.6,366.7,700.2,367.1z"/>
		<path class="st83" d="M670.3,370.1l11.3-4.3c1.6-0.6,2.4-2.4,1.8-4l0,0c-0.6-1.6-2.4-2.4-4-1.8l-11.3,4.3c-1.6,0.6-2.4,2.4-1.8,4
			l0,0C666.9,369.9,668.7,370.7,670.3,370.1z"/>
		<g class="st52">
			<g>
				<path class="st14" d="M691.4,332c2.3,0.6,4.7,0,7.1,0.4c1.8,0.3,3.4,1,5.2,1.2c0.3,0,0.4-0.5,0.1-0.6c-4-1.1-8.1-2.5-12.3-1.2
					C691.3,331.8,691.2,332,691.4,332L691.4,332z"/>
			</g>
		</g>
	</g>
	<g>
		<g>
			<path class="st91" d="M636.7,332.3c0.1,0,0.2,0,0.3,0.1C636.9,332.3,636.8,332.3,636.7,332.3z"/>
		</g>
		<g>
			<path class="st91" d="M636.4,332.2c0.1,0,0.2,0,0.3,0.1C636.6,332.2,636.5,332.2,636.4,332.2z"/>
		</g>
		<g>
			<path class="st91" d="M635.4,332.4c-0.3,0.2-0.8,0.8-0.7,1.2l2.4-1.3c-0.1,0-0.2,0-0.3-0.1c-0.1,0-0.2,0-0.3-0.1
				C636,332.1,635.7,332.1,635.4,332.4z"/>
		</g>
		<path class="st91" d="M613.3,336.1l-3.6-1.3c-3.6-1.3-5.4-5.3-4.1-8.9l4-11c1.3-3.6,5.3-5.4,8.9-4.1l3.6,1.3
			c3.6,1.3,5.4,5.3,4.1,8.9l-4,11C620.9,335.6,616.9,337.5,613.3,336.1z"/>
		
			<ellipse transform="matrix(0.3432 -0.9393 0.9393 0.3432 93.8556 762.0013)" class="st91" cx="591.8" cy="313.9" rx="6.9" ry="6.9"/>
		
			<ellipse transform="matrix(0.3432 -0.9393 0.9393 0.3432 93.8556 762.0013)" class="st91" cx="591.8" cy="313.9" rx="4.5" ry="4.5"/>
		
			<ellipse transform="matrix(0.3432 -0.9393 0.9393 0.3432 110.3155 823.8876)" class="st91" cx="644.2" cy="333.1" rx="6.9" ry="6.9"/>
		
			<ellipse transform="matrix(0.3432 -0.9393 0.9393 0.3432 110.3155 823.8876)" class="st91" cx="644.2" cy="333.1" rx="4.5" ry="4.5"/>
		<path class="st91" d="M646.7,327.5c14.5-28.1-4-26.2-18.7-31.5c-14.7-5.4-30.2,0-34.6,12.1c-1,2.7-4.6,12.6-5.6,15.3
			c-4.4,12,9.6,28.2,18.7,31.5c8,2.9,30.2,0,34.6-12.1C642.1,340.1,645.4,330.1,646.7,327.5z"/>
		<path class="st91" d="M639.7,317.6c-0.4-0.9,1.3-1.7,1.3-1.7c4.1,0.8,2.4,7.4,6.9,6.9c1.5-0.2,1.8-3,2.5-4.9
			c0,4.6,2.3,1.8,5.1,1.5c1-2,1.8-3.7,2.2-4.8c5.3-14.4-3.9-27.8-18.3-33.1c-14-5.1-25,0.7-30.7,14.4c12.3,0.3,17.7,8.4,22.5,17.6
			C634.2,314.7,636.5,316.5,639.7,317.6z"/>
		<path class="st91" d="M628.1,291.5c0.4-0.2,0.5-0.7,0.2-1c0,0,0,0,0,0c-6.1-8.6-18.1-10.6-26.7-4.5c-5.9,4.2-8.7,11.2-7.9,18
			c0.1,0.4,0.5,0.7,0.9,0.6C606.4,301.7,618,297.8,628.1,291.5z"/>
		<g>
			<path class="st94" d="M640,331.4c-2,5.4-5.9,8.8-11.3,6.9c-5.4-2-7.1-7.5-5.2-12.9c2-5.4,6.9-8.5,12.3-6.5
				C641.2,320.8,641.9,326,640,331.4z"/>
			
				<ellipse transform="matrix(0.3432 -0.9393 0.9393 0.3432 105.9927 809.2757)" class="st91" cx="631.6" cy="328.9" rx="9" ry="9"/>
			<g>
				
					<ellipse transform="matrix(0.3432 -0.9393 0.9393 0.3432 100.7854 810.6332)" class="st91" cx="630" cy="333.3" rx="4.3" ry="4.3"/>
				
					<ellipse transform="matrix(0.3432 -0.9393 0.9393 0.3432 100.7854 810.6332)" class="st91" cx="630" cy="333.3" rx="1.7" ry="1.7"/>
				
					<ellipse transform="matrix(0.3432 -0.9393 0.9393 0.3432 102.6298 808.8658)" class="st91" cx="629.7" cy="331.1" rx="1.2" ry="1.2"/>
			</g>
		</g>
		<g>
			<path class="st94" d="M596,315.3c-2,5.4-1.2,10.6,4.2,12.5c5.4,2,10.3-1.2,12.3-6.5c2-5.4,0.2-10.9-5.2-12.9
				C601.9,306.5,597.9,309.9,596,315.3z"/>
			<ellipse transform="matrix(0.3432 -0.9393 0.9393 0.3432 97.3206 776.6716)" class="st91" cx="604" cy="318.8" rx="9" ry="9"/>
			
				<ellipse transform="matrix(0.3432 -0.9393 0.9393 0.3432 91.9993 777.969)" class="st91" cx="602.3" cy="323.2" rx="4.3" ry="4.3"/>
			
				<ellipse transform="matrix(0.3432 -0.9393 0.9393 0.3432 91.9993 777.969)" class="st91" cx="602.3" cy="323.2" rx="1.7" ry="1.7"/>
			<ellipse transform="matrix(0.3432 -0.9393 0.9393 0.3432 93.8609 776.266)" class="st91" cx="602" cy="321" rx="1.2" ry="1.2"/>
		</g>
		<path class="st91" d="M599.6,342.8c0,0,5.8-1.9,11.3,0.2c5.5,2,8.8,7.2,8.8,7.2s-4.5-2.7-10.1-4.8S599.6,342.8,599.6,342.8z"/>
		<path class="st91" d="M612.3,338.4L612.3,338.4c-2.1-0.8-3.2-3.1-2.5-5.3l5.1-14c0.8-2.1,3.1-3.2,5.3-2.5h0
			c2.1,0.8,3.2,3.1,2.5,5.3l-5.1,14C616.8,338.1,614.5,339.2,612.3,338.4z"/>
		<path class="st91" d="M612.4,335.9L612.4,335.9c-2.1-0.8-3.2-3.1-2.5-5.3l5.1-14c0.8-2.1,3.1-3.2,5.3-2.5l0,0
			c2.1,0.8,3.2,3.1,2.5,5.3l-5.1,14C616.9,335.5,614.5,336.6,612.4,335.9z"/>
		<path class="st91" d="M607.5,295.2c0,0,5.8,5.6,8.3,9c3.5,4.7,13,8.6,13,8.6s-3.5-12-7.7-15.1
			C616.9,294.6,607.5,295.2,607.5,295.2z"/>
		<path class="st91" d="M609.4,281.1c0,0,2.8,0.9,4.2,1.6c1.9,1,5.7,0.7,5.7,0.7s-3.1-3.4-5-3.7S609.4,281.1,609.4,281.1z"/>
		<path class="st91" d="M624.7,277c0,0-1.7,2.4-2.4,3.7c-1,1.9-4.2,3.9-4.2,3.9s0.6-4.5,1.9-5.9S624.7,277,624.7,277z"/>
		
			<ellipse transform="matrix(0.3432 -0.9393 0.9393 0.3432 84.5839 773.2228)" class="st91" cx="595.2" cy="326.1" rx="0.5" ry="1"/>
		<ellipse transform="matrix(0.3432 -0.9393 0.9393 0.3432 85.7846 777.7371)" class="st91" cx="599" cy="327.5" rx="0.5" ry="1"/>
		<ellipse transform="matrix(0.3432 -0.9393 0.9393 0.3432 82.927 776.0803)" class="st91" cx="596.4" cy="328.7" rx="0.5" ry="1"/>
		
			<ellipse transform="matrix(0.3432 -0.9393 0.9393 0.3432 95.3501 813.7017)" class="st91" cx="629.5" cy="338.7" rx="0.5" ry="1"/>
		
			<ellipse transform="matrix(0.3432 -0.9393 0.9393 0.3432 96.5508 818.2161)" class="st91" cx="633.3" cy="340.1" rx="0.5" ry="1"/>
		
			<ellipse transform="matrix(0.3432 -0.9393 0.9393 0.3432 93.6932 816.5592)" class="st91" cx="630.7" cy="341.3" rx="0.5" ry="1"/>
		<path class="st95" d="M597.2,297.9l-7.8,22.5l2.8-1.2l6.6-12.9c0,0,6.6-7.5,11.5-7.7s13.8,2.5,13.8,2.5l-5.9-6.2L597.2,297.9z"/>
		<path class="st95" d="M651.6,316.6l-8.7,20.1l-2.1,0.3l3.3-14.1c0,0-0.2-10-3.9-13.3c-3.7-3.3-12.1-6.9-12.1-6.9l8.5-1
			L651.6,316.6z"/>
		<path class="st91" d="M629.7,320.6l10.1,6.7c1.4,0.9,3.3,0.6,4.3-0.9l0,0c0.9-1.4,0.6-3.3-0.9-4.3l-10.1-6.7
			c-1.4-0.9-3.3-0.6-4.3,0.9l0,0C627.9,317.7,628.2,319.6,629.7,320.6z"/>
		<path class="st91" d="M600.6,312.9l12.1-0.1c1.7,0,3.1-1.4,3.1-3.1l0,0c0-1.7-1.4-3.1-3.1-3.1l-12.1,0.1c-1.7,0-3.1,1.4-3.1,3.1v0
			C597.5,311.6,598.9,312.9,600.6,312.9z"/>
	</g>
	
		<use xlink:href="#barras"  width="433.6" height="172.4" x="-216.8" y="-86.2" transform="matrix(1 0 0 -1 289.8234 368.5386)" style="overflow:visible;"/>
</g>
<g id="Layer_2">
	<rect x="34.9" y="28.9" class="st22" width="391.9" height="48.3"/>
	<text transform="matrix(1 0 0 1 34.8927 47.6332)" class="st0 st148 st147">HOla, Kaira POlet ARAYA</text>
	<path class="st248" d="M673.4,379.6c-3.6-1.3-2.8,2-4.8-0.2c-0.7-1.1-1.6-1.3-2.5-1.1c1.3,3.5,4.7,6,8.7,6c4,0,7.4-2.5,8.7-6
		C681,376.5,677,380.9,673.4,379.6z"/>
	<path class="st248" d="M710,378.5c-3-2.6-4.3,0.8-6.5,0.6c-0.9-0.1-1.2-2.5-2.6-1.4c-2,1.6-2.5,1.4-4,1c1.5,3.1,4.7,5.2,8.3,5.2
		c4.1,0,7.6-2.7,8.8-6.4c-0.6-0.3-1.4-0.8-1.9-0.6C711.2,377.1,711.1,379.6,710,378.5z"/>
</g>
</svg>
