<?xml version="1.0" encoding="utf-8"?>
<!-- Generator: Adobe Illustrator 21.1.0, SVG Export Plug-In . SVG Version: 6.00 Build 0)  -->
<svg version="1.1" xmlns="http://www.w3.org/2000/svg" xmlns:xlink="http://www.w3.org/1999/xlink" x="0px" y="0px"
	 viewBox="0 0 841.9 595.3" style="enable-background:new 0 0 841.9 595.3;" xml:space="preserve">
<style type="text/css">
	.st0{fill:#601515;}
	.st1{fill:#3FBA51;}
	.st2{fill:none;stroke:#601515;stroke-width:2;stroke-miterlimit:10;}
	.st3{fill:#F2C85F;}
	.st4{fill:#F2D3AD;}
	.st5{fill:#674C91;}
	.st6{fill:#DCFFC5;}
	.st7{fill:#8BAA77;}
	.st8{clip-path:url(#SVGID_2_);fill:#F1F3F7;}
	.st9{opacity:0.4;clip-path:url(#SVGID_2_);fill:#DCDDE0;}
	.st10{clip-path:url(#SVGID_2_);fill:#0076B7;}
	.st11{clip-path:url(#SVGID_2_);fill:#FFFFFF;}
	.st12{clip-path:url(#SVGID_2_);}
	.st13{fill:#FFFFFF;}
	.st14{fill:#F7CFA2;}
	.st15{fill:#ECB8FF;}
	.st16{fill:#393D47;}
	.st17{fill:#E86767;}
	.st18{opacity:0.1;fill:#3C2813;}
	.st19{fill:#EEEBE7;}
	.st20{fill:#3C2813;}
	.st21{fill:#795ACC;}
	.st22{fill:none;}
	.st23{clip-path:url(#SVGID_6_);fill:#F7EFDF;}
	.st24{fill:#3EBA50;}
	.st25{display:none;opacity:0.3;}
	.st26{fill:#F7EFDF;}
	.st27{fill:#4E9FA8;}
	.st28{fill:none;stroke:#231F20;stroke-width:2;stroke-miterlimit:10;}
	.st29{fill:#231F20;}
	.st30{fill:none;stroke:#674C91;stroke-miterlimit:10;}
	.st31{fill:#601515;stroke:#601515;stroke-miterlimit:10;}
	.st32{fill:none;stroke:#601515;stroke-miterlimit:10;}
	.st33{fill:none;stroke:#FFFFFF;stroke-miterlimit:10;}
	.st34{fill:url(#SVGID_9_);}
	.st35{fill:#601515;stroke:#8C8779;stroke-width:6;stroke-miterlimit:10;}
	.st36{fill:url(#SVGID_10_);}
	.st37{fill:none;stroke:#4E9FA8;stroke-width:12;stroke-miterlimit:10;}
	.st38{fill:#E0EA18;}
	.st39{clip-path:url(#SVGID_12_);fill:#F7EFDF;}
	.st40{fill:url(#SVGID_13_);}
	.st41{fill:url(#SVGID_14_);}
	.st42{fill:#EFEA35;}
	.st43{fill:url(#SVGID_15_);}
	.st44{fill:url(#SVGID_16_);}
	.st45{fill:url(#SVGID_17_);}
	.st46{fill:url(#SVGID_18_);}
	.st47{fill:url(#SVGID_19_);}
	.st48{fill:#C1C1B8;}
	.st49{fill:#9B9B97;}
	.st50{fill:#D8D8D2;}
	.st51{opacity:0.4;}
	.st52{opacity:0.6;}
	.st53{fill:#CEBABA;}
	.st54{fill:#EAEAE5;}
	.st55{fill:url(#SVGID_20_);}
	.st56{fill:url(#SVGID_21_);}
	.st57{fill:url(#SVGID_22_);}
	.st58{fill:url(#SVGID_23_);}
	.st59{fill:url(#SVGID_24_);}
	.st60{fill:url(#SVGID_25_);}
	.st61{fill:url(#SVGID_26_);}
	.st62{fill:url(#SVGID_27_);}
	.st63{fill:url(#SVGID_28_);}
	.st64{fill:#6BA8B2;}
	.st65{fill:#F1F3F7;}
	.st66{fill:#F0BA7A;}
	.st67{opacity:0.4;fill:#DCDDE0;}
	.st68{fill:#0076B7;}
	.st69{opacity:0.3;}
	.st70{fill:#DCDDE0;}
	.st71{fill:#004868;}
	.st72{opacity:0.1;fill:#601515;}
	.st73{fill:#F9F9F9;}
	.st74{fill:#24272D;}
	.st75{fill:#EA6D50;}
	.st76{clip-path:url(#SVGID_30_);fill:#F0BA7A;}
	.st77{clip-path:url(#SVGID_30_);fill:#F1F3F7;}
	.st78{opacity:0.4;clip-path:url(#SVGID_30_);fill:#DCDDE0;}
	.st79{clip-path:url(#SVGID_30_);fill:#0076B7;}
	.st80{clip-path:url(#SVGID_30_);fill:#FFFFFF;}
	.st81{clip-path:url(#SVGID_30_);}
	.st82{opacity:0.3;fill:#601515;}
	.st83{fill:#5B1010;}
	.st84{clip-path:url(#SVGID_32_);fill:#F1F3F7;}
	.st85{clip-path:url(#SVGID_32_);fill:#F0BA7A;}
	.st86{opacity:0.4;clip-path:url(#SVGID_32_);fill:#DCDDE0;}
	.st87{clip-path:url(#SVGID_32_);fill:#0076B7;}
	.st88{clip-path:url(#SVGID_32_);fill:#FFFFFF;}
	.st89{clip-path:url(#SVGID_32_);}
	.st90{fill:#1F74C9;}
	.st91{fill:#595959;}
	.st92{opacity:0.1;fill:#8BAA77;}
	.st93{opacity:0.3;fill:#8BAA77;}
	.st94{opacity:0.1;fill:#595959;}
	.st95{opacity:0.3;fill:#595959;}
	.st96{fill:#9E921E;}
	.st97{clip-path:url(#SVGID_34_);fill:#F0BA7A;}
	.st98{clip-path:url(#SVGID_34_);fill:#F1F3F7;}
	.st99{clip-path:url(#SVGID_34_);}
	.st100{clip-path:url(#SVGID_34_);fill:#393D47;}
	.st101{clip-path:url(#SVGID_34_);fill:#FFFFFF;}
	.st102{opacity:0.4;clip-path:url(#SVGID_34_);fill:#DCDDE0;}
	.st103{clip-path:url(#SVGID_34_);fill:#0076B7;}
	.st104{fill:#B72C34;}
	.st105{clip-path:url(#SVGID_36_);fill:#F1F3F7;}
	.st106{clip-path:url(#SVGID_36_);}
	.st107{clip-path:url(#SVGID_38_);fill:#F1F3F7;}
	.st108{opacity:0.4;clip-path:url(#SVGID_38_);fill:#DCDDE0;}
	.st109{clip-path:url(#SVGID_38_);fill:#0076B7;}
	.st110{clip-path:url(#SVGID_38_);fill:#FFFFFF;}
	.st111{clip-path:url(#SVGID_38_);}
	.st112{fill:url(#SVGID_39_);}
	.st113{fill:url(#SVGID_40_);}
	.st114{fill:url(#SVGID_41_);}
	.st115{fill:url(#SVGID_42_);}
	.st116{fill:#A52323;}
	.st117{clip-path:url(#SVGID_44_);fill:#F1F3F7;}
	.st118{opacity:0.4;clip-path:url(#SVGID_44_);fill:#DCDDE0;}
	.st119{clip-path:url(#SVGID_44_);fill:#0076B7;}
	.st120{clip-path:url(#SVGID_44_);fill:#FFFFFF;}
	.st121{clip-path:url(#SVGID_44_);}
	.st122{fill:#023142;}
	.st123{clip-path:url(#SVGID_46_);fill:#F7CFA2;}
	.st124{clip-path:url(#SVGID_46_);}
	.st125{opacity:0.3;fill:#E57257;}
	.st126{font-family:'ElegantLux-Mager';}
	.st127{font-size:26px;}
	.st128{font-family:'Bungee-Regular';}
	.st129{font-size:22px;}
	.st130{opacity:0.2;}
	.st131{fill:#656D60;}
	.st132{clip-path:url(#SVGID_48_);fill:#F0BA7A;}
	.st133{clip-path:url(#SVGID_48_);fill:#F1F3F7;}
	.st134{opacity:0.4;clip-path:url(#SVGID_48_);fill:#DCDDE0;}
	.st135{clip-path:url(#SVGID_48_);fill:#0076B7;}
	.st136{clip-path:url(#SVGID_48_);fill:#FFFFFF;}
	.st137{clip-path:url(#SVGID_48_);}
	.st138{clip-path:url(#SVGID_50_);fill:#F1F3F7;}
	.st139{opacity:0.4;clip-path:url(#SVGID_50_);fill:#DCDDE0;}
	.st140{clip-path:url(#SVGID_50_);fill:#0076B7;}
	.st141{clip-path:url(#SVGID_50_);fill:#FFFFFF;}
	.st142{clip-path:url(#SVGID_50_);}
	.st143{clip-path:url(#SVGID_52_);fill:#F1F3F7;}
	.st144{opacity:0.4;clip-path:url(#SVGID_52_);fill:#DCDDE0;}
	.st145{clip-path:url(#SVGID_52_);fill:#0076B7;}
	.st146{clip-path:url(#SVGID_52_);fill:#FFFFFF;}
	.st147{clip-path:url(#SVGID_52_);}
	.st148{fill:#9E9E9E;}
	.st149{fill:#878787;}
	.st150{fill:url(#SVGID_53_);}
	.st151{fill:#CE6117;}
	.st152{fill:url(#SVGID_54_);}
	.st153{fill:#EFE91B;}
	.st154{clip-path:url(#SVGID_56_);fill:#F0BA7A;}
	.st155{clip-path:url(#SVGID_56_);fill:#F1F3F7;}
	.st156{opacity:0.4;clip-path:url(#SVGID_56_);fill:#DCDDE0;}
	.st157{clip-path:url(#SVGID_56_);fill:#0076B7;}
	.st158{clip-path:url(#SVGID_56_);fill:#FFFFFF;}
	.st159{clip-path:url(#SVGID_56_);}
	.st160{fill:#B27E49;}
	.st161{clip-path:url(#SVGID_58_);fill:#F1F3F7;}
	.st162{opacity:0.4;clip-path:url(#SVGID_58_);fill:#DCDDE0;}
	.st163{clip-path:url(#SVGID_58_);fill:#0076B7;}
	.st164{clip-path:url(#SVGID_58_);fill:#FFFFFF;}
	.st165{clip-path:url(#SVGID_58_);}
	.st166{fill:#8454D1;}
	.st167{clip-path:url(#SVGID_60_);fill:#393D47;}
	.st168{clip-path:url(#SVGID_60_);fill:#F0BA7A;}
	.st169{clip-path:url(#SVGID_60_);fill:#F1F3F7;}
	.st170{clip-path:url(#SVGID_60_);fill:#0076B7;}
	.st171{clip-path:url(#SVGID_60_);fill:#004868;}
	.st172{opacity:0.4;clip-path:url(#SVGID_60_);fill:#DCDDE0;}
	.st173{clip-path:url(#SVGID_60_);fill:#FFFFFF;}
	.st174{clip-path:url(#SVGID_60_);}
	.st175{fill:none;stroke:#EA6D50;stroke-width:2;stroke-miterlimit:10;}
	.st176{fill:url(#SVGID_61_);}
	.st177{fill:#777777;}
	.st178{fill:#A85848;}
	.st179{fill:#E85646;}
	.st180{fill:#EA4E39;}
	.st181{clip-path:url(#SVGID_63_);fill:#F1F3F7;}
	.st182{clip-path:url(#SVGID_63_);}
	.st183{fill:#B23C18;}
	.st184{fill:#6B2A05;}
	.st185{fill:#B23C18;stroke:#6B2A05;stroke-miterlimit:10;}
	.st186{fill:#DDAA78;}
	.st187{fill:#211205;}
	.st188{fill:none;stroke:#6B2A05;stroke-width:0.729;stroke-miterlimit:10;}
	.st189{fill:#B23C18;stroke:#6B2A05;stroke-width:0.729;stroke-miterlimit:10;}
	.st190{fill:#BBE8F2;}
	.st191{opacity:0.3;fill:#F2F8F9;}
	.st192{opacity:0.2;fill:#601515;}
	.st193{fill:#FFFF00;}
	.st194{fill:#594EEA;}
	.st195{fill:#FF0B0B;}
	.st196{fill:none;stroke:#3FBA51;stroke-width:8;stroke-miterlimit:10;}
	.st197{fill:none;stroke:#3FBA51;stroke-width:7.2;stroke-miterlimit:10;}
	.st198{fill:none;stroke:#3FBA51;stroke-width:7.2;stroke-linecap:round;stroke-miterlimit:10;}
	.st199{fill:none;stroke:#3FBA51;stroke-width:8;stroke-linecap:round;stroke-miterlimit:10;}
	.st200{fill:none;stroke:#3FBA51;stroke-width:5.1175;stroke-miterlimit:10;}
	.st201{fill:#4F5565;}
	.st202{fill:#D64E3C;}
	.st203{fill:#F7A500;}
	.st204{fill:#FBD303;}
	.st205{fill:#FCFCFD;}
	.st206{fill:#F8B517;}
	.st207{fill:#F0582F;}
	.st208{fill:#BAE8F2;}
	.st209{fill:#F7EA72;}
	.st210{clip-path:url(#SVGID_65_);fill:#F7EFDF;}
	.st211{fill:none;stroke:#3FBA51;stroke-width:6.4304;stroke-miterlimit:10;}
	.st212{fill:url(#SVGID_66_);}
	.st213{fill:url(#SVGID_67_);}
	.st214{fill:url(#SVGID_68_);}
	.st215{fill:url(#SVGID_69_);}
	.st216{fill:url(#SVGID_70_);}
	.st217{fill:url(#SVGID_71_);}
	.st218{fill:url(#SVGID_72_);}
	.st219{fill:url(#SVGID_73_);}
	.st220{fill:url(#SVGID_74_);}
	.st221{fill:url(#SVGID_75_);}
	.st222{fill:url(#SVGID_76_);}
	.st223{fill:url(#SVGID_77_);}
	.st224{fill:url(#SVGID_78_);}
	.st225{fill:url(#SVGID_79_);}
	.st226{fill:url(#SVGID_80_);}
	.st227{fill:url(#SVGID_81_);}
	.st228{fill:url(#SVGID_82_);}
	.st229{fill:url(#SVGID_83_);}
	.st230{fill:url(#SVGID_84_);}
	.st231{fill:url(#SVGID_85_);}
	.st232{fill:url(#SVGID_86_);}
	.st233{fill:url(#SVGID_87_);}
	.st234{fill:url(#SVGID_88_);}
	.st235{fill:url(#SVGID_89_);}
	.st236{fill:url(#SVGID_90_);}
	.st237{fill:url(#SVGID_91_);}
	.st238{fill:url(#SVGID_92_);}
	.st239{fill:url(#SVGID_93_);}
	.st240{fill:url(#SVGID_94_);}
	.st241{fill:url(#SVGID_95_);}
	.st242{fill:url(#SVGID_96_);}
	.st243{fill:url(#SVGID_97_);}
	.st244{fill:url(#SVGID_98_);}
	.st245{fill:url(#SVGID_99_);}
	.st246{fill:url(#SVGID_100_);}
	.st247{fill:url(#SVGID_101_);}
	.st248{opacity:0.7;fill:#7BCDDB;}
	.st249{fill:none;stroke:#F0BA7A;stroke-width:3;stroke-miterlimit:10;}
	.st250{fill:url(#SVGID_102_);}
	.st251{fill:url(#SVGID_103_);}
	.st252{fill:url(#SVGID_104_);}
	.st253{fill:url(#SVGID_105_);}
	.st254{fill:url(#SVGID_106_);}
	.st255{fill:url(#SVGID_107_);}
	.st256{fill:url(#SVGID_108_);}
	.st257{opacity:0.5;fill:#302929;}
	.st258{fill:#EF3F50;}
	.st259{fill:url(#SVGID_109_);}
	.st260{fill:url(#SVGID_110_);}
	.st261{fill:url(#SVGID_111_);}
	.st262{fill:url(#SVGID_112_);}
	.st263{opacity:0.6;fill:#302929;}
	.st264{fill:url(#SVGID_113_);}
	.st265{fill:url(#SVGID_114_);}
	.st266{fill:url(#SVGID_115_);}
	.st267{fill:url(#SVGID_116_);}
	.st268{fill:url(#SVGID_117_);}
	.st269{fill:url(#SVGID_118_);}
	.st270{fill:url(#SVGID_119_);}
	.st271{fill:url(#SVGID_120_);}
	.st272{fill:url(#SVGID_121_);}
	.st273{fill:url(#SVGID_122_);}
	.st274{fill:url(#SVGID_123_);}
	.st275{fill:url(#SVGID_124_);}
	.st276{fill:url(#SVGID_125_);}
	.st277{fill:url(#SVGID_126_);}
	.st278{fill:url(#SVGID_127_);}
	.st279{fill:url(#SVGID_128_);}
	.st280{fill:url(#SVGID_129_);}
	.st281{fill:url(#SVGID_130_);}
	.st282{fill:url(#SVGID_131_);}
	.st283{fill:url(#SVGID_132_);}
	.st284{fill:url(#SVGID_133_);}
	.st285{fill:url(#SVGID_134_);}
	.st286{fill:url(#SVGID_135_);}
	.st287{fill:url(#SVGID_136_);}
	.st288{fill:url(#SVGID_137_);}
	.st289{fill:url(#SVGID_138_);}
	.st290{fill:url(#SVGID_139_);}
	.st291{fill:url(#SVGID_140_);}
	.st292{fill:url(#SVGID_141_);}
	.st293{fill:url(#SVGID_142_);}
	.st294{fill:url(#SVGID_143_);}
	.st295{fill:url(#SVGID_144_);}
	.st296{fill:url(#SVGID_145_);}
	.st297{fill:url(#SVGID_146_);}
	.st298{fill:url(#SVGID_147_);}
	.st299{fill:url(#SVGID_148_);}
	.st300{fill:url(#SVGID_149_);}
	.st301{fill:url(#SVGID_150_);}
	.st302{fill:url(#SVGID_151_);}
	.st303{fill:url(#SVGID_152_);}
	.st304{fill:url(#SVGID_153_);}
	.st305{fill:url(#SVGID_154_);}
	.st306{fill:url(#SVGID_155_);}
	.st307{fill:url(#SVGID_156_);}
	.st308{fill:url(#SVGID_157_);}
	.st309{fill:url(#SVGID_158_);}
	.st310{fill:url(#SVGID_159_);}
	.st311{fill:url(#SVGID_160_);}
	.st312{fill:url(#SVGID_161_);}
	.st313{fill:url(#SVGID_162_);}
	.st314{fill:url(#SVGID_163_);}
	.st315{fill:url(#SVGID_164_);}
	.st316{fill:url(#SVGID_165_);}
	.st317{fill:url(#SVGID_166_);}
	.st318{fill:url(#SVGID_167_);}
	.st319{fill:url(#SVGID_168_);}
	.st320{fill:url(#SVGID_169_);}
	.st321{fill:url(#SVGID_170_);}
	.st322{fill:url(#SVGID_171_);}
	.st323{fill:url(#SVGID_172_);}
	.st324{fill:url(#SVGID_173_);}
	.st325{fill:url(#SVGID_174_);}
	.st326{fill:url(#SVGID_175_);}
	.st327{fill:url(#SVGID_176_);}
	.st328{fill:url(#SVGID_177_);}
	.st329{fill:url(#SVGID_178_);}
	.st330{fill:url(#SVGID_179_);}
	.st331{fill:url(#SVGID_180_);}
	.st332{fill:url(#SVGID_181_);}
	.st333{fill:url(#SVGID_182_);}
	.st334{fill:url(#SVGID_183_);}
	.st335{fill:url(#SVGID_184_);}
	.st336{fill:url(#SVGID_185_);}
	.st337{fill:url(#SVGID_186_);}
	.st338{fill:url(#SVGID_187_);}
	.st339{fill:url(#SVGID_188_);}
	.st340{fill:url(#SVGID_189_);}
	.st341{fill:url(#SVGID_190_);}
	.st342{fill:url(#SVGID_191_);}
	.st343{fill:url(#SVGID_192_);}
	.st344{fill:url(#SVGID_193_);}
	.st345{fill:url(#SVGID_194_);}
	.st346{fill:url(#SVGID_195_);}
	.st347{fill:url(#SVGID_196_);}
	.st348{fill:url(#SVGID_197_);}
	.st349{fill:url(#SVGID_198_);}
	.st350{fill:url(#SVGID_199_);}
	.st351{fill:url(#SVGID_200_);}
	.st352{fill:url(#SVGID_201_);}
	.st353{fill:url(#SVGID_202_);}
	.st354{fill:url(#SVGID_203_);}
	.st355{fill:url(#SVGID_204_);}
	.st356{fill:url(#SVGID_205_);}
	.st357{fill:url(#SVGID_206_);}
	.st358{fill:url(#SVGID_207_);}
	.st359{fill:url(#SVGID_208_);}
	.st360{fill:url(#SVGID_209_);}
	.st361{fill:url(#SVGID_210_);}
	.st362{fill:url(#SVGID_211_);}
	.st363{fill:url(#SVGID_212_);}
	.st364{fill:url(#SVGID_213_);}
	.st365{fill:url(#SVGID_214_);}
	.st366{fill:url(#SVGID_215_);}
	.st367{fill:url(#SVGID_216_);}
	.st368{fill:url(#SVGID_217_);}
	.st369{fill:url(#SVGID_218_);}
	.st370{fill:url(#SVGID_219_);}
	.st371{fill:url(#SVGID_220_);}
	.st372{fill:url(#SVGID_221_);}
	.st373{fill:url(#SVGID_222_);}
	.st374{fill:url(#SVGID_223_);}
	.st375{fill:url(#SVGID_224_);}
	.st376{fill:url(#SVGID_225_);}
	.st377{fill:url(#SVGID_226_);}
	.st378{fill:url(#SVGID_227_);}
	.st379{fill:url(#SVGID_228_);}
	.st380{fill:url(#SVGID_229_);}
	.st381{fill:url(#SVGID_230_);}
	.st382{fill:url(#SVGID_231_);}
	.st383{fill:url(#SVGID_232_);}
	.st384{fill:url(#SVGID_233_);}
	.st385{fill:url(#SVGID_234_);}
	.st386{fill:url(#SVGID_235_);}
	.st387{fill:url(#SVGID_236_);}
	.st388{fill:url(#SVGID_237_);}
	.st389{fill:url(#SVGID_238_);}
	.st390{fill:url(#SVGID_239_);}
	.st391{fill:none;stroke:#9B9B97;stroke-miterlimit:10;}
	.st392{fill:url(#SVGID_240_);}
	.st393{fill:url(#SVGID_241_);}
	.st394{fill:url(#SVGID_242_);}
	.st395{fill:url(#SVGID_243_);}
	.st396{fill:url(#SVGID_244_);}
	.st397{fill:url(#SVGID_245_);}
	.st398{fill:url(#SVGID_246_);}
	.st399{fill:url(#SVGID_247_);}
	.st400{fill:url(#SVGID_248_);}
	.st401{fill:url(#SVGID_249_);}
	.st402{fill:url(#SVGID_250_);}
	.st403{fill:url(#SVGID_251_);}
	.st404{fill:url(#SVGID_252_);}
	.st405{fill:url(#SVGID_253_);}
	.st406{fill:url(#SVGID_254_);}
	.st407{fill:url(#SVGID_255_);}
	.st408{fill:url(#SVGID_256_);}
	.st409{fill:url(#SVGID_257_);}
	.st410{fill:url(#SVGID_258_);}
	.st411{fill:url(#SVGID_259_);}
	.st412{fill:url(#SVGID_260_);}
	.st413{fill:url(#SVGID_261_);}
	.st414{fill:url(#SVGID_262_);}
	.st415{fill:url(#SVGID_263_);}
	.st416{fill:url(#SVGID_264_);}
	.st417{fill:url(#SVGID_265_);}
	.st418{fill:url(#SVGID_266_);}
	.st419{fill:url(#SVGID_267_);}
	.st420{fill:url(#SVGID_268_);}
	.st421{fill:url(#SVGID_269_);}
	.st422{fill:url(#SVGID_270_);}
	.st423{fill:url(#SVGID_271_);}
	.st424{fill:url(#SVGID_272_);}
	.st425{fill:url(#SVGID_273_);}
	.st426{fill:url(#SVGID_274_);}
	.st427{fill:url(#SVGID_275_);}
	.st428{fill:url(#SVGID_276_);}
	.st429{fill:url(#SVGID_277_);}
	.st430{fill:url(#SVGID_278_);}
	.st431{fill:url(#SVGID_279_);}
	.st432{fill:url(#SVGID_280_);}
	.st433{fill:url(#SVGID_281_);}
	.st434{fill:url(#SVGID_282_);}
	.st435{fill:url(#SVGID_283_);}
	.st436{fill:url(#SVGID_284_);}
	.st437{fill:url(#SVGID_285_);}
	.st438{fill:url(#SVGID_286_);}
	.st439{fill:url(#SVGID_287_);}
	.st440{fill:url(#SVGID_288_);}
	.st441{fill:url(#SVGID_289_);}
	.st442{fill:url(#SVGID_290_);}
	.st443{fill:url(#SVGID_291_);}
	.st444{fill:url(#SVGID_292_);}
	.st445{fill:url(#SVGID_293_);}
	.st446{fill:url(#SVGID_294_);}
	.st447{fill:url(#SVGID_295_);}
	.st448{fill:url(#SVGID_296_);}
	.st449{fill:url(#SVGID_297_);}
	.st450{fill:url(#SVGID_298_);}
	.st451{fill:url(#SVGID_299_);}
	.st452{fill:url(#SVGID_300_);}
	.st453{fill:url(#SVGID_301_);}
	.st454{fill:url(#SVGID_302_);}
	.st455{fill:url(#SVGID_303_);}
	.st456{fill:url(#SVGID_304_);}
	.st457{fill:url(#SVGID_305_);}
	.st458{fill:url(#SVGID_306_);}
	.st459{fill:url(#SVGID_307_);}
	.st460{fill:url(#SVGID_308_);}
	.st461{fill:url(#SVGID_309_);}
	.st462{fill:url(#SVGID_310_);}
	.st463{fill:url(#SVGID_311_);}
	.st464{fill:url(#SVGID_312_);}
	.st465{fill:url(#SVGID_313_);}
	.st466{fill:url(#SVGID_314_);}
	.st467{fill:url(#SVGID_315_);}
	.st468{fill:url(#SVGID_316_);}
	.st469{fill:url(#SVGID_317_);}
	.st470{fill:url(#SVGID_318_);}
	.st471{fill:url(#SVGID_319_);}
	.st472{fill:url(#SVGID_320_);}
	.st473{fill:url(#SVGID_321_);}
	.st474{fill:url(#SVGID_322_);}
	.st475{fill:url(#SVGID_323_);}
	.st476{fill:url(#SVGID_324_);}
	.st477{fill:url(#SVGID_325_);}
	.st478{fill:url(#SVGID_326_);}
	.st479{fill:url(#SVGID_327_);}
	.st480{fill:url(#SVGID_328_);}
	.st481{fill:url(#SVGID_329_);}
	.st482{fill:url(#SVGID_330_);}
	.st483{fill:url(#SVGID_331_);}
	.st484{fill:url(#SVGID_332_);}
	.st485{fill:url(#SVGID_333_);}
	.st486{fill:url(#SVGID_334_);}
	.st487{fill:url(#SVGID_335_);}
	.st488{fill:url(#SVGID_336_);}
	.st489{fill:url(#SVGID_337_);}
	.st490{fill:url(#SVGID_338_);}
	.st491{fill:url(#SVGID_339_);}
	.st492{fill:url(#SVGID_340_);}
	.st493{fill:url(#SVGID_341_);}
	.st494{fill:url(#SVGID_342_);}
	.st495{fill:url(#SVGID_343_);}
	.st496{fill:url(#SVGID_344_);}
	.st497{fill:url(#SVGID_345_);}
	.st498{fill:url(#SVGID_346_);}
	.st499{fill:url(#SVGID_347_);}
	.st500{fill:url(#SVGID_348_);}
	.st501{fill:url(#SVGID_349_);}
	.st502{fill:url(#SVGID_350_);}
	.st503{fill:url(#SVGID_351_);}
	.st504{fill:url(#SVGID_352_);}
	.st505{fill:url(#SVGID_353_);}
	.st506{fill:url(#SVGID_354_);}
	.st507{fill:url(#SVGID_355_);}
	.st508{fill:url(#SVGID_356_);}
	.st509{fill:url(#SVGID_357_);}
	.st510{fill:url(#SVGID_358_);}
	.st511{fill:url(#SVGID_359_);}
	.st512{fill:url(#SVGID_360_);}
	.st513{fill:url(#SVGID_361_);}
	.st514{fill:url(#SVGID_362_);}
	.st515{fill:url(#SVGID_363_);}
	.st516{fill:url(#SVGID_364_);}
	.st517{fill:url(#SVGID_365_);}
	.st518{fill:url(#SVGID_366_);}
	.st519{fill:url(#SVGID_367_);}
	.st520{fill:url(#SVGID_368_);}
	.st521{fill:url(#SVGID_369_);}
	.st522{fill:url(#SVGID_370_);}
	.st523{fill:url(#SVGID_371_);}
	.st524{fill:url(#SVGID_372_);}
	.st525{fill:url(#SVGID_373_);}
	.st526{fill:url(#SVGID_374_);}
	.st527{fill:url(#SVGID_375_);}
	.st528{fill:url(#SVGID_376_);}
	.st529{fill:url(#SVGID_377_);}
	.st530{clip-path:url(#SVGID_379_);}
	.st531{clip-path:url(#SVGID_381_);}
	.st532{fill:#F4F0A6;}
	.st533{clip-path:url(#SVGID_383_);}
	.st534{opacity:0.6;fill:none;stroke:#F7CFA2;stroke-miterlimit:10;}
	.st535{fill:none;stroke:#F7CFA2;stroke-miterlimit:10;}
	.st536{fill:#EAA56C;}
	.st537{clip-path:url(#SVGID_385_);fill:#F7EFDF;}
</style>
<symbol  id="barras" viewBox="-216.8 -86.2 433.6 172.4">
	<g>
		<rect x="113.2" y="-86.2" class="st22" width="103.6" height="30.9"/>
		<text transform="matrix(1 0 0 -1 126.502 -65.4814)" class="st0 st126" style="font-size:15.36px;">Casi Siempre</text>
	</g>
	<rect x="-105.9" y="-35" class="st1" width="87" height="28.2"/>
	<rect x="-215.8" y="-35.3" class="st1" width="87" height="8.8"/>
	<rect x="7.8" y="-35" class="st1" width="87" height="61.7"/>
	<rect x="121.5" y="-35" class="st1" width="87" height="120.1"/>
	<g>
		<rect x="-101.5" y="-73.4" class="st22" width="78" height="18.1"/>
		<text transform="matrix(1 0 0 -1 -95.3037 -65.4814)" class="st0 st126" style="font-size:15.36px;">Casi nunca</text>
	</g>
	<rect x="-105.9" y="-35" class="st2" width="87" height="28.2"/>
	<g>
		<rect x="-192.1" y="-86.2" class="st22" width="39.6" height="30.9"/>
		<text transform="matrix(1 0 0 -1 -191.6748 -65.4814)" class="st0 st126" style="font-size:15.36px;">Nunca</text>
	</g>
	<rect x="-215.8" y="-35.3" class="st2" width="87" height="8.8"/>
	<g>
		<rect x="-3.7" y="-86.2" class="st22" width="110" height="30.9"/>
		<text transform="matrix(1 0 0 -1 9.9785 -65.4795)" class="st0 st126" style="font-size:15.36px;">Algunas veces</text>
	</g>
	<rect x="7.8" y="-35" class="st2" width="87" height="61.7"/>
	<rect x="121.5" y="-35" class="st2" width="87" height="120.1"/>
</symbol>
<g id="Layer_1">
	<path class="st13" d="M763.5,61.3c4.6-4.2,9.3-8.2,14.3-11.5c9-6.1,20.3-9.5,28.8-0.6c14.1,14.6-5.7,36-16.7,45.8
		c-10,8.8-52,41.4-60,14.2c-1.6-5.4,2.3-11.7,4.1-16.1c2.2-5.2,10.9-5.7,11.8-7C750.2,79.4,757.5,66.8,763.5,61.3z"/>
	<g>
		<path class="st14" d="M739.2,110.3c0.2,0,0.4-0.1,0.7-0.1C739.7,110.2,739.4,110.3,739.2,110.3z"/>
	</g>
	<path class="st21" d="M734.1,99.2H621.9c-3.2,0-5.8-2.6-5.8-5.8V65.6c0-3.2,2.6-5.8,5.8-5.8h112.3c3.2,0,5.8,2.6,5.8,5.8v27.7
		C740,96.5,737.3,99.2,734.1,99.2z"/>
	<rect x="637.8" y="70" class="st22" width="81.9" height="28.3"/>
	<text transform="matrix(1 0 0 1 656.7847 87.3295)" class="st13 st126 st127">Listo</text>
	<rect x="32.2" y="72.9" class="st22" width="391.9" height="48.3"/>
	<text transform="matrix(1 0 0 1 32.187 90.2035)" class="st0 st126 st127">Instrucciones</text>
	<rect x="32.2" y="72.9" class="st22" width="391.9" height="48.3"/>
	<text transform="matrix(1 0 0 1 32.187 90.2035)" class="st0 st126 st127">Instrucciones</text>
	<rect x="34.9" y="28.9" class="st22" width="391.9" height="48.3"/>
	<text transform="matrix(1 0 0 1 34.8926 47.6332)" class="st0 st128 st127">HOla, Kaira POlet ARAYA</text>
	<polyline class="st22" points="684.1,16.9 681.7,65.2 292.2,65.2 	"/>
	<rect x="31.4" y="116.4" class="st22" width="571.9" height="88.3"/>
	<text transform="matrix(1 0 0 1 31.4316 131.0448)" class="st0 st126 st129">He peleado con compañeros-as que puedo vencer facilmente.</text>
	<g>
		<path class="st14" d="M669.6,316.7c0.1,0.2,0.2,0.4,0.3,0.6C669.8,317.1,669.7,316.9,669.6,316.7z"/>
	</g>
	<path class="st13" d="M785.9,260.4c-6.5,6.5-10.8,16.9-19.3,23.5l-0.1-1c-1.6,5.1-7.6,5.6-10.4,8.8c-1.8,3.1,7.2,2.5,3.5,6.8
		c18.3-8.1,30.5-24,37.5-42.1c-0.9-2-2.3-3.9-4.3-5.6c-2.1-1.9-4.4-4.8-6.6-6.5C787.9,250.6,788.7,256.5,785.9,260.4z"/>
	<circle class="st166" cx="686.2" cy="364.8" r="99.7"/>
	<g>
		<defs>
			<path id="SVGID_62_" d="M785.9,356.1c4.1,54.9-37.1,102.8-92,106.9c-51.4,3.9-104.5,0.6-113.5-48.9c-0.6-3.4-14.2-46.3-14.5-49.8
				c-2.7-36.3-17.8-102.4,11.8-140.8c15.1-19.7,64.7-22.5,109-22.9C741.7,199.9,781.7,301.2,785.9,356.1z"/>
		</defs>
		<clipPath id="SVGID_2_">
			<use xlink:href="#SVGID_62_"  style="overflow:visible;"/>
		</clipPath>
		<path class="st8" d="M716.4,391.2c11-2,15-14,13.7-24.2c0.4-1.9,8.2-3.7,8.3-3.5c0.6,2.1,1.4,4.2,2.4,6.2
			c2.6,6.4,6.6,11.4,13.5,13.2c1.4,0.3,2.8,0.5,4.2,0.5c1.4,0.1,2.9,0.1,4.4,0.1c0.9,1.7,1.7,3.3,2.5,5c11.8,25.4,11.9,55.5,4,83.2
			c-1.7,0.5-3.4,1-5.1,1.5c-7,2.8-15,3.8-22,8.8c0-3-3-6-3-6c-6.4-1.6-11.4-4.4-15.3-8.1c-1.9-1.8-3.6-3.9-5-6.1
			c-9.7-19.8-21.7-51.8-4.1-70.2C715.5,391.7,716,391.5,716.4,391.2z"/>
		<g class="st12">
			<path class="st65" d="M761.6,367.3c-1.5-0.6-3-1.1-4.5-1.5c-1.2-0.5-2.5-1-3.7-1.5c-1.3-0.7-2.6-1.2-3.9-1.5
				c-1.6-0.2-3.3-0.3-5.1-0.4c-13.3,0.3-29.3,3.3-35.3,16.3c-4,11,5,21,9.7,30.4c0.6,1.6,1.2,3.3,1.6,5c-0.1,1.8-0.1,3.6-0.2,5.4
				c-0.1,1.8-0.2,3.6-0.4,5.5c9.6,4,19,8.6,27.5,14.4c0.6-0.5,1.3-1.1,2-1.6c1.1-1.2,2.1-2.5,3.1-3.7c6.2-7.5,11.5-15.5,15.7-24.5
				c0.7-1,1.4-2.1,2-3.3c1.9-3.4,3.4-7.2,5-10.9c0.7-1.5,1.3-3.1,1.8-4.7C781,379.2,771.9,371.3,761.6,367.3z"/>
			<path class="st68" d="M716,438.1l6.5,13l11.4-8.8c0,0,0.2-3.2,0.5-8.2c0.1-1.7,0.2-3.5,0.3-5.5c0.7-5.4,0.2-10.7-0.5-15.9
				c-0.3-1.8-0.5-3.5-0.8-5.3c-1.3-10.7-1.3-21.7,3.7-31.7c0-1-3.5-2.5-4.5-2.5c-5.3,4.9-9.5,11.5-10.5,18.5c0,6-2,11-0.4,16.6
				c0.1,1.4,0.1,2.8,0.1,4.2c0,4.2-0.6,8.4-2.3,12.7c-0.5,1.9-1,3.6-1.4,5.2C716.8,435.1,716,438.1,716,438.1z"/>
			<path class="st68" d="M732.5,365.9c1.6-1.2,3.6-3.2,5.6-3.2c2.8,2.2,4.8,8.4,4.8,8.4s-4.5,2.8-5.8,4.6c-2-2-4.6-2.3-4.6-2.3
				L732.5,365.9z"/>
			<path class="st13" d="M737.9,362l-0.1,0.5c0,0,4.6,13,11.9,10.5s7.5-7.8,7.5-7.8l-2-5.1L737.9,362z"/>
		</g>
		<g class="st12">
			<path class="st65" d="M619.5,413.9c1.2-0.5,2.4-0.8,3.6-1.2c1-0.4,2-0.8,3-1.2c1.1-0.6,2.1-1,3.1-1.2c1.3-0.2,2.7-0.3,4-0.3
				c10.6,0.2,23.4,2.6,28.2,13c3.2,8.8-4,16.8-7.8,24.3c-0.5,1.3-0.9,2.6-1.2,4c0,1.4,0.1,2.8,0.2,4.3c0.1,1.4,0.1,2.9,0.3,4.4
				c-7.7,3.2-15.2,6.9-22,11.5c-0.5-0.4-1-0.8-1.6-1.2c-0.9-1-1.7-2-2.5-3c-4.9-6-9.2-12.4-12.6-19.6c-0.6-0.8-1.1-1.7-1.6-2.6
				c-1.5-2.7-2.8-5.8-4-8.7c-0.6-1.2-1.1-2.5-1.5-3.8C604,423.4,611.2,417.1,619.5,413.9z"/>
			<path class="st68" d="M655.9,470.6l-5.2,10.4l-9.1-7c0,0-0.2-2.5-0.4-6.5c-0.1-1.3-0.2-2.8-0.3-4.4c-0.6-4.3-0.2-8.5,0.4-12.8
				c0.2-1.4,0.4-2.8,0.7-4.2c1-8.6,1-17.4-3-25.4c0-0.8,2.8-2,3.6-2c4.2,3.9,7.6,9.2,8.4,14.8c0,4.8,1.6,8.8,0.4,13.2
				c0,1.1-0.1,2.2-0.1,3.3c0,3.4,0.4,6.7,1.8,10.2c0.4,1.5,0.8,2.9,1.1,4.2C655.3,468.2,655.9,470.6,655.9,470.6z"/>
			<path class="st68" d="M642.8,412.8c-1.3-0.9-2.9-2.5-4.5-2.5c-2.2,1.8-3.9,6.7-3.9,6.7s3.6,2.3,4.7,3.7c1.6-1.6,3.7-1.9,3.7-1.9
				L642.8,412.8z"/>
			<path class="st13" d="M638.5,409.7l0.1,0.4c0,0-3.6,10.4-9.5,8.4c-5.9-2.1-6-6.2-6-6.2l1.6-4.1L638.5,409.7z"/>
		</g>
	</g>
	<path class="st65" d="M738.1,348.4c-7.1,3.8-15.1,3.2-22.7,5.2c-1.9,0.5-3.7,0.9-5.2-0.3c-1.7-1.3-3.5-3.7-5-5.3
		c-3-3-6.5-5.2-10-7.7c-4.3-3.2-8.1-7.2-12.4-10.4c-4.4-3.2-13.7-3.2-16.3,2.3c-4.1,8.8,6.2,16.6,10.8,23
		c5.8,7.9,11.5,16.4,19.2,22.6c3.9,3.2,8.6,3.2,13.5,3.4c7,0.3,13.7-0.2,20.7-0.9c3.8-0.4,7.6-1.2,11.3-2.1c1.1-0.2,1.9,0.3,2.7-0.9
		"/>
	<path class="st83" d="M703.4,330.1l10.2,8.5c1.4,1.2,3.5,1,4.7-0.5l0,0c1.2-1.4,0.9-3.6-0.5-4.8l-10.2-8.5c-1.4-1.2-3.5-1-4.7,0.5
		l0,0C701.7,326.7,702,328.9,703.4,330.1z"/>
	<path class="st183" d="M663.2,336.8l11.5-8.7c0,0-5-5.1-5.3-11.9s2.4-6.6,2.4-6.6s-19.7-9.1-19.5-9.2c0.2-0.1-3.3,16.5-3.3,16.5
		L663.2,336.8z"/>
	<g>
		<path class="st183" d="M670.6,321.4c-0.4-1.5-0.1-3,0.5-4.4s1.4-2.7,2.1-4c0.9-1.6,1.5-3.4,2-5.2c0.4-1.6,0.6-3.4,0.2-5
			c-0.6-1.9-9.7-3.6-11.6-4.2"/>
		<g>
			<path class="st184" d="M672.1,321c-0.6-5.2,8.7-14.6,4.1-19.5c-2.4-2.6-8.3-2.8-11.5-3.7c-1-0.3-3.4,1.2-1.8,1.6
				c3.1,0.9,9.1,1,11.1,3.7c1.9,2.6-1.7,8.9-2.8,11c-1.3,2.6-2.4,4.5-2,7.5C669.3,322.7,672.2,322.1,672.1,321L672.1,321z"/>
		</g>
	</g>
	<g>
		<path class="st183" d="M665.3,334.4c-8.2-0.8-16.1-4.7-21.8-10.7c-5.7-6-9.2-14-9.7-22.2c-0.1-2.2,0-4.5,0.6-6.6
			c0.7-2.1,2-4.1,3.9-5.2c1.4-0.8,3-1.2,4.6-1.5c3.8-0.6,7.8-0.6,11.6,0c1.4,0.2,2.8,0.5,4.1,1c4.2,1.5,7.5,4.9,9.9,8.6
			c1.8,2.7,3.3,6,2.8,9.2c-0.3,2-1.5,3.8-2.6,5.5c-0.5,0.7-1,1.4-1.7,2c-0.9,0.7-1.9,1-3,1.2c-6.2,1.3-13.1-1.7-16.4-7.1
			c-0.7-1.2-1.2-3,0-3.7"/>
		<g>
			<path class="st184" d="M665.8,333.5c-9.5-1.2-18.3-6.1-24-13.9c-4.9-6.8-11.2-22.6-2.6-28.6c5.2-3.6,14.6-3,20.3-0.2
				c4.2,2.1,7.8,6.7,9.6,11c2.8,6.7-2.4,14.2-9.8,13.1c-2.4-0.4-13.8-5.6-10.6-9.7c1.1-1.4-1.7-1.5-2.4-0.6
				c-3.4,4.3,3.8,9.3,7.2,10.8c4.2,1.8,10.4,2.5,14.4-0.4c12.8-9.4-1.5-26-12.7-27.7c-5.8-0.9-14.5-1.3-19.2,2.9
				c-5.1,4.5-4.1,12.7-2.6,18.6c3.9,14.7,16.4,24.7,31.2,26.6C666,335.5,667.8,333.8,665.8,333.5L665.8,333.5z"/>
		</g>
	</g>
	<path class="st65" d="M758.4,385.3c-4,9-12,19-23,13c-2-2-6-4-7-7c-1-2-1.3-4-1.5-5.9s-0.5-3.6-1.5-5.1c-2-3-4-4-7-4
		c-11,0-9,12-9,20c-1,5,1,10,4,14c3,3,6,5,9,8c1.5,1.2,3,2.4,4.5,3.4c12.5,8.6,34.5,8.6,40.5-6.4c3-7,5-14,3.9-21.7"/>
	<g>
		<path class="st183" d="M722.1,372c0.4-1.5,1.5-2.6,2.7-3.5c1.2-0.9,2.6-1.5,3.9-2.3c1.6-1,3.1-2.1,4.4-3.4
			c1.2-1.2,2.3-2.6,2.7-4.2c0.5-2-6.5-8.1-7.8-9.6"/>
		<g>
			<path class="st184" d="M723.5,371.8c1.6-3.9,6.7-5.2,9.7-7.9c1.5-1.4,4.2-3.8,4-6.1c-0.3-3.5-5.7-7.1-7.9-9.5
				c-0.7-0.8-3.5,0.3-2.7,1.2c2.5,2.6,8.2,6.4,7.2,10.2c-1.6,6.1-10.8,6.6-13.2,12.4C720.2,373.1,723.1,372.8,723.5,371.8
				L723.5,371.8z"/>
		</g>
	</g>
	<polyline class="st185" points="723.1,354.2 707.2,349.9 708.7,377.7 715.2,376.9 723.6,355.2 	"/>
	<g>
		<g>
			<g>
				<path class="st14" d="M780,317.3c0.2,0,0.3,0,0.5,0C780.3,317.3,780.1,317.3,780,317.3z"/>
			</g>
			<g>
				<path class="st14" d="M779.5,317.4c0.1,0,0.3,0,0.4,0C779.8,317.3,779.7,317.3,779.5,317.4z"/>
			</g>
			<g>
				<path class="st14" d="M778,318.1c-0.3,0.5-0.8,1.5-0.7,2l3.1-2.8c-0.2,0-0.3,0-0.5,0c-0.1,0-0.3,0-0.4,0
					C778.9,317.4,778.4,317.5,778,318.1z"/>
			</g>
			<path class="st66" d="M746.2,331.6l-5.9-0.7c-5.8-0.7-10.1-6-9.4-11.8l2.1-17.9c0.7-5.8,6-10.1,11.8-9.4l5.9,0.7
				c5.8,0.7,10.1,6,9.4,11.8l-2.1,17.9C757.4,328,752.1,332.3,746.2,331.6z"/>
			
				<ellipse transform="matrix(0.1151 -0.9933 0.9933 0.1151 320.7818 971.9626)" class="st14" cx="706" cy="305.9" rx="10.6" ry="10.6"/>
			<ellipse transform="matrix(0.1151 -0.9933 0.9933 0.1151 320.7818 971.9626)" class="st66" cx="706" cy="305.9" rx="7" ry="7"/>
			
				<ellipse transform="matrix(0.1151 -0.9933 0.9933 0.1151 386.6742 1065.7805)" class="st14" cx="791.6" cy="315.8" rx="10.6" ry="10.6"/>
			
				<ellipse transform="matrix(0.1151 -0.9933 0.9933 0.1151 386.6741 1065.7805)" class="st66" cx="791.6" cy="315.8" rx="7" ry="7"/>
			<path class="st14" d="M793.3,306.6c11.7-47.3-15.3-37.8-39.4-40.6s-45.3,10.9-47.6,30.5c-0.5,4.4-2.4,20.6-2.9,25
				c-2.3,19.6,24.5,38.9,39.4,40.6c13.1,1.5,45.3-10.9,47.6-30.5C790.9,327.2,792.2,310.9,793.3,306.6z"/>
			<path class="st0" d="M779.1,294.3c-0.9-1.2,1.4-3,1.4-3c6.4-0.3,6.2,10.2,12.8,7.8c2.2-0.8,1.6-5.1,2-8.2
				c1.7,6.9,4.2,1.9,8.2,0.4c0.8-3.4,1.4-6.3,1.6-7.9c2.7-23.5-15.9-40.4-39.3-43.1c-22.9-2.7-37.3,10.1-40.8,32.7
				c18.6-4,29.5,6.3,40,18.3C769.8,291.9,774.1,293.7,779.1,294.3z"/>
			<path class="st0" d="M752.5,259.3c0.5-0.5,0.4-1.2-0.1-1.6c0,0,0,0,0,0c-12.3-10.7-31-9.4-41.7,2.9c-7.4,8.5-9.1,20-5.4,29.9
				c0.2,0.6,1,0.9,1.6,0.6C723.5,282.3,739.6,272.4,752.5,259.3z"/>
			<g>
				<path class="st72" d="M784.6,314.9c-1,8.7-5.7,15.4-14.4,14.4c-8.7-1-13.4-8.7-12.4-17.5c1-8.7,7.3-15.2,16.1-14.2
					C782.5,298.6,785.6,306.1,784.6,314.9z"/>
				
					<ellipse transform="matrix(0.1151 -0.9933 0.9933 0.1151 370.383 1043.8989)" class="st13" cx="771.1" cy="314.1" rx="13.8" ry="13.8"/>
				<g>
					
						<ellipse transform="matrix(0.1151 -0.9933 0.9933 0.1151 360.7825 1042.5702)" class="st0" cx="765.6" cy="318.8" rx="6.6" ry="6.6"/>
					<ellipse transform="matrix(0.1151 -0.9933 0.9933 0.1151 360.7825 1042.5702)" cx="765.6" cy="318.8" rx="2.6" ry="2.6"/>
					
						<ellipse transform="matrix(0.1151 -0.9933 0.9933 0.1151 362.7896 1038.4608)" class="st73" cx="764.3" cy="315.6" rx="1.9" ry="1.9"/>
				</g>
				<path class="st14" d="M784.9,315.6c0.9-7.6-4.6-14.5-12.1-15.3c-7.2-0.8-13.7,4-15.1,11C766.7,312.8,775.8,314.1,784.9,315.6
					C784.9,315.7,784.9,315.7,784.9,315.6z"/>
			</g>
			<path class="st75" d="M763,350.3c0,0-9.5-0.9-18.5-1.9c-9-1-13.9-3.5-13.9-3.5s6-1.6,15.1-0.5C754.6,345.3,763,350.3,763,350.3z"
				/>
			<path class="st66" d="M745.6,335.4L745.6,335.4c-3.5-0.4-6-3.6-5.6-7l2.6-22.8c0.4-3.5,3.6-6,7-5.6l0,0c3.5,0.4,6,3.6,5.6,7
				l-2.6,22.8C752.2,333.3,749.1,335.8,745.6,335.4z"/>
			<path class="st14" d="M744.8,331.5L744.8,331.5c-3.5-0.4-6-3.6-5.6-7l2.6-22.8c0.4-3.5,3.6-6,7-5.6l0,0c3.5,0.4,6,3.6,5.6,7
				l-2.6,22.8C751.4,329.4,748.3,331.9,744.8,331.5z"/>
			<path class="st0" d="M722.8,272.2c0,0,10.7,6.3,15.7,10.5c6.9,5.8,22.6,8.2,22.6,8.2s-9.6-16.7-17-19.8
				C736.7,267.9,722.8,272.2,722.8,272.2z"/>
			<path class="st0" d="M720.7,250.5c0,0,4.5,0.3,6.8,0.9c3.2,0.8,8.7-1,8.7-1s-5.9-3.9-8.8-3.7
				C724.6,246.8,720.7,250.5,720.7,250.5z"/>
			<path class="st0" d="M742.2,238.8c0,0-1.8,4.2-2.3,6.5c-0.8,3.2-4.9,7.3-4.9,7.3s-0.8-7,0.7-9.5S742.2,238.8,742.2,238.8z"/>
			
				<ellipse transform="matrix(0.1151 -0.9933 0.9933 0.1151 312.1359 996.5467)" class="st66" cx="715.4" cy="323.1" rx="0.8" ry="1.6"/>
			
				<ellipse transform="matrix(0.1151 -0.9933 0.9933 0.1151 316.9425 1003.3903)" class="st66" cx="721.7" cy="323.8" rx="0.8" ry="1.6"/>
			
				<ellipse transform="matrix(0.1151 -0.9933 0.9933 0.1151 311.1174 1002.3718)" class="st66" cx="718.2" cy="326.6" rx="0.8" ry="1.6"/>
			
				<ellipse transform="matrix(0.1151 -0.9933 0.9933 0.1151 355.2352 1057.9116)" class="st66" cx="771.4" cy="329.6" rx="0.8" ry="1.6"/>
			
				<ellipse transform="matrix(0.1151 -0.9933 0.9933 0.1151 360.0418 1064.7552)" class="st66" cx="777.7" cy="330.3" rx="0.8" ry="1.6"/>
			
				<ellipse transform="matrix(0.1151 -0.9933 0.9933 0.1151 354.2167 1063.7368)" class="st66" cx="774.2" cy="333" rx="0.8" ry="1.6"/>
			<path class="st82" d="M708.4,280l-3.7,36.5l3.9-2.8l5.3-21.7c0,0,7.1-13.6,14.6-15.6c7.4-2,21.5-1.1,21.5-1.1l-11-7.2L708.4,280z
				"/>
			<path class="st82" d="M796.7,288.4l-5.9,33.3l-3.1,1.2l-0.1-22.3c0,0-3.8-14.9-10.6-18.5c-6.8-3.7-20.7-6-20.7-6l12.4-4.5
				L796.7,288.4z"/>
			<path class="st83" d="M766.8,300.8l17.6-6.3c2.5-0.9,3.8-3.6,2.9-6.1l0,0c-0.9-2.5-3.7-3.8-6.1-2.9l-17.6,6.3
				c-2.5,0.9-3.8,3.6-2.9,6.1l0,0C761.6,300.3,764.3,301.6,766.8,300.8z"/>
			<g class="st52">
				<g>
					<path class="st14" d="M758.1,247c2.8,1.8,6.5,1.3,9.6,2c3.1,0.7,5.6,2.5,8.8,2.9c0.7,0.1,1.3-0.9,0.5-1.3
						c-2.8-1.3-5.7-3-8.8-3.7c-3.1-0.7-7.2-1.4-10.1-0.4C757.9,246.6,757.9,246.9,758.1,247L758.1,247z"/>
				</g>
			</g>
			<g>
				<path class="st72" d="M747.6,306.9c-1,8.7-5.7,15.4-14.4,14.4c-8.7-1-13.4-8.7-12.4-17.5c1-8.7,7.3-15.2,16.1-14.2
					C745.5,290.6,748.6,298.1,747.6,306.9z"/>
				
					<ellipse transform="matrix(0.1151 -0.9933 0.9933 0.1151 345.5901 1000.0662)" class="st13" cx="734.1" cy="306.1" rx="13.8" ry="13.8"/>
				<g>
					
						<ellipse transform="matrix(0.1151 -0.9933 0.9933 0.1151 336.983 997.8527)" class="st0" cx="728.6" cy="309.8" rx="6.6" ry="6.6"/>
					<ellipse transform="matrix(0.1151 -0.9933 0.9933 0.1151 336.983 997.8527)" cx="728.6" cy="309.8" rx="2.6" ry="2.6"/>
					
						<ellipse transform="matrix(0.1151 -0.9933 0.9933 0.1151 338.9901 993.7432)" class="st73" cx="727.3" cy="306.6" rx="1.9" ry="1.9"/>
				</g>
				<path class="st14" d="M747.9,307.6c0.9-7.6-4.6-14.5-12.1-15.3c-7.2-0.8-13.7,4-15.1,11C729.7,304.8,738.8,306.1,747.9,307.6
					C747.9,307.7,747.9,307.7,747.9,307.6z"/>
			</g>
			<path class="st83" d="M727.6,292.6l17.9,5.3c2.5,0.7,5.2-0.7,5.9-3.2l0,0c0.7-2.5-0.7-5.2-3.2-5.9l-17.9-5.3
				c-2.5-0.7-5.2,0.7-5.9,3.2l0,0C723.6,289.2,725.1,291.9,727.6,292.6z"/>
		</g>
	</g>
	<g>
		<path class="st183" d="M710.7,380.5c-6.6-5-11.4-12.3-13.2-20.4s-0.6-16.7,3.2-24c1-2,2.3-3.8,3.9-5.3c1.7-1.5,3.8-2.5,6-2.5
			c1.6,0,3.2,0.5,4.7,1.1c3.6,1.5,7,3.5,10,5.9c1.1,0.9,2.1,1.9,3,2.9c2.8,3.5,3.9,8,4.1,12.5c0.1,3.3-0.2,6.9-2.4,9.4
			c-1.3,1.6-3.2,2.5-5.1,3.4c-0.8,0.4-1.6,0.7-2.5,0.8c-1.1,0.1-2.2-0.1-3.2-0.5c-6-2.1-10.3-8.2-10.4-14.6c0-1.4,0.5-3.1,1.9-3.2"
			/>
		<g>
			<path class="st184" d="M711.9,379.7c-7.5-5.9-12.6-14.5-13.5-24.1c-0.4-4.8,0.1-9.8,1.6-14.4c0.9-2.6,2-5.6,3.9-7.7
				c2-2.4,7.6-4.1,10.6-3.2c1.5,0.5,3,1.3,4.4,2.1c8.3,4.7,13.9,12.9,12.1,22.9c-1.6,8.4-11,9.7-16.3,3.9c-1.4-1.5-7-10.9-3.1-12.3
				c1.9-0.7,0.2-1.9-1.2-1.4c-4.9,1.8-2.4,9-0.4,12.2c2.5,4.2,7.7,8.3,12.9,7.6c14.9-2.2,13.6-22.1,4.5-30c-4.4-3.9-11.7-8.9-18-7.7
				c-6.1,1.2-9.6,7-11.6,12.4c-5.7,15-0.5,31.4,12,41.3C710.4,381.9,713.1,380.7,711.9,379.7L711.9,379.7z"/>
		</g>
	</g>
	<g>
		<g>
			<path class="st184" d="M666.7,313.6c0.1,2.1,0.2,4.2,1,6.2c0.6,1.6,1.7,2.4,1.1,4.2c-0.5,1.4-2.9,3.7-1.1,5
				c0.7,0.5,3.3-0.6,2.7-1.1c-1.5-1.1,1.6-4.4,1.6-5.8c0-1.3-1.2-2.4-1.6-3.5c-0.7-1.8-0.8-3.8-0.8-5.8
				C669.6,312.1,666.7,312.6,666.7,313.6L666.7,313.6z"/>
		</g>
	</g>
	<path class="st185" d="M710.2,379.7c1.2,1.7,2.6,1.3,4.1,0.9c3.4-1,6.1-0.3,10.1-0.4c-1-5.3-3.7-6.5-0.6-11.4"/>
	<path class="st183" d="M724.2,367.7c-0.7,1.6-2.7,2.6-2.6,5.4c0,0.3,0,0.7,0,1l-9.8,6.5l-6.7-12c0,0,11.3-4.3,13.5-3.7
		c2.1,0.6,7.1-0.4,7.1-0.4"/>
	<g>
		<path class="st13" d="M666.6,340.1c2.2-7,10.3-11.8,10.5-11.4c0.5,0.9-4.2-6.2-6.5-6c-4.7,1.3-8.8,9.5-9.8,11.3
			c-1.4,2.5,2.1,4.2,5.3,6"/>
	</g>
	<g>
		<path class="st13" d="M711.3,385.4c5.5-4.8,14.9-4.8,14.9-4.3c0,1-0.4-7.5-2.4-8.5c-4.7-1.3-12.4,3.6-14.2,4.6
			c-2.5,1.4-0.3,4.7,1.4,7.8"/>
	</g>
	<g>
		<path class="st14" d="M589.6,316.7c0.1,0.2,0.2,0.4,0.3,0.6C589.8,317.1,589.7,316.9,589.6,316.7z"/>
	</g>
	<g>
		<g>
			<path class="st14" d="M697.6,393.5c-0.1,0.1-0.2,0.3-0.2,0.4C697.5,393.8,697.5,393.6,697.6,393.5z"/>
		</g>
		<path class="st65" d="M657.2,407.1c2.9,3.1,5.9,7.1,10.9,9.1c9,3,13-9,16.7-16.3c0.8-1.9,1.5-3.8,2.3-5.7c1-1,4-2,6-1
			c10,9,3,23-1,33c-2,3-4,5-7,7c-2,1-4.1,1.6-6.1,2.1c-2.1,0.4-4.2,0.7-6.2,0.9c-3.6,0-7.6,2-11.6,2.9"/>
		<path class="st183" d="M698.3,397.6l-11.7-2c0,0,2.5-4.2,0.1-8.5c-2.4-4.4-4-3.2-4-3.2s8.9-13.1,8.7-13.1s8.3,9,8.3,9L698.3,397.6
			z"/>
		<g>
			<path class="st183" d="M687.8,390.8c-0.3-1.1-1.1-1.9-2-2.6c-0.9-0.6-1.9-1.1-2.8-1.7c-1.2-0.7-2.2-1.5-3.2-2.5
				c-0.9-0.9-1.7-1.9-2-3.1c-0.4-1.4,4.7-5.9,5.7-7"/>
			<g>
				<path class="st184" d="M688.9,390.5c-1.7-4.1-7-4.6-9.3-8.3c-1.9-3,2.9-6,4.8-8c0.9-0.9-1.2-0.9-1.7-0.4c-1.6,1.7-5.7,4.4-5.9,7
					c-0.1,1.6,1.7,3.4,2.8,4.4c2.3,2,6,3,7.2,5.9C687.1,391.8,689.1,391.2,688.9,390.5L688.9,390.5z"/>
			</g>
		</g>
		<g>
			<path class="st183" d="M696.1,397c4.8-3.6,8.3-9,9.6-14.8c1.3-5.9,0.5-12.2-2.3-17.5c-0.8-1.4-1.7-2.8-2.9-3.9
				c-1.2-1.1-2.8-1.8-4.4-1.8c-1.2,0-2.3,0.4-3.4,0.8c-2.6,1.1-5.1,2.5-7.3,4.3c-0.8,0.7-1.6,1.4-2.2,2.1c-2,2.5-2.8,5.9-3,9.1
				c-0.1,2.4,0.2,5,1.7,6.8c1,1.1,2.4,1.8,3.7,2.5c0.6,0.3,1.2,0.5,1.8,0.6c0.8,0.1,1.6-0.1,2.3-0.4c4.4-1.6,7.5-6,7.6-10.6
				c0-1-0.4-2.3-1.4-2.3"/>
			<g>
				<path class="st184" d="M696.7,397.3c9-7.2,13.1-19,9-30c-1.5-4.1-4.3-8.9-9.2-9.1c-4.4-0.1-9.5,3.3-12.5,6.1
					c-6,5.5-7.8,20.4,3.2,21.5c3.5,0.4,7.1-2.3,9-5c1.6-2.3,4.2-7.9,0.8-9.6c-0.7-0.3-2.6,0.6-1.7,1.1c3.1,1.5-0.2,7.5-1.7,9.1
					c-3.9,4.3-10.5,2.6-12-2.9c-0.8-3-0.2-6.8,1.1-9.7c2-4.4,10.3-11.3,15.7-8.7c5.7,2.8,7.3,13.1,6.8,18.6
					c-0.6,7-4.2,13.2-9.7,17.6C694.3,397.5,696,397.9,696.7,397.3L696.7,397.3z"/>
			</g>
		</g>
		<path class="st65" d="M633.3,425.1c-1.9,6.9-2,16.2,7,17.9c2.1-0.2,5.2,0.5,7.2-0.7c1.5-0.7,2.6-1.7,3.6-2.6s2-1.8,3.2-2.2
			c2.5-0.8,4.1-0.4,5.8,1c6.2,5.1-0.5,10.9-4.2,15.4c-1.7,3.3-5.2,5.2-8.7,6.1c-3.1,0.3-5.7,0.1-8.8,0.4c-1.4,0-2.8,0-4.1-0.2
			c-11-0.9-23.4-11-19.9-22.3c1.5-5.3,3.6-10.2,7.8-14.1"/>
		<g>
			<g>
				<g>
					<path class="st14" d="M657.5,379.7c0.1-0.1,0.2-0.1,0.3-0.2C657.7,379.6,657.6,379.7,657.5,379.7z"/>
				</g>
				<g>
					<path class="st14" d="M657.2,379.9c0.1,0,0.2-0.1,0.3-0.1C657.4,379.8,657.3,379.8,657.2,379.9z"/>
				</g>
				<g>
					<path class="st14" d="M656.4,380.9c-0.1,0.4-0.1,1.2,0.2,1.5l1.2-2.8c-0.1,0.1-0.2,0.1-0.3,0.2c-0.1,0-0.2,0.1-0.3,0.1
						C656.8,380.1,656.5,380.3,656.4,380.9z"/>
				</g>
				<path class="st66" d="M639.7,399.6l-4.1,1.4c-4.1,1.4-8.5-0.8-9.9-4.9l-4.2-12.5c-1.4-4.1,0.8-8.5,4.9-9.9l4.1-1.4
					c4.1-1.4,8.5,0.8,9.9,4.9l4.2,12.5C645.9,393.8,643.7,398.3,639.7,399.6z"/>
				
					<ellipse transform="matrix(0.9475 -0.3198 0.3198 0.9475 -94.6199 214.2788)" class="st186" cx="605.1" cy="395.2" rx="7.7" ry="7.7"/>
				
					<ellipse transform="matrix(0.9475 -0.3198 0.3198 0.9475 -94.6199 214.2788)" class="st66" cx="605.1" cy="395.2" rx="5.1" ry="5.1"/>
				
					<ellipse transform="matrix(0.9475 -0.3198 0.3198 0.9475 -85.0688 232.26)" class="st186" cx="664.7" cy="375.2" rx="7.7" ry="7.7"/>
				
					<ellipse transform="matrix(0.9475 -0.3198 0.3198 0.9475 -85.0688 232.26)" class="st66" cx="664.7" cy="375.2" rx="5.1" ry="5.1"/>
				<path class="st186" d="M662.9,368.6c-7-34.8-21.9-20.2-38.6-14.5c-16.7,5.6-26.5,21.3-21.9,34.9c1,3.1,4.8,14.3,5.9,17.4
					c4.6,13.7,28.2,18,38.6,14.5c9.1-3.1,26.5-21.3,21.9-34.9C667.8,382.9,663.6,371.7,662.9,368.6z"/>
				<path class="st187" d="M649.8,364.8c-1-0.5,0-2.4,0-2.4c4.1-2.2,7.3,4.8,10.9,1.2c1.2-1.2-0.5-3.9-1.2-6c3.3,4,3.3,0,5.5-2.2
					c-0.6-2.5-1-4.6-1.4-5.7c-5.5-16.3-23-21.7-39.3-16.2c-15.9,5.4-21.5,18.3-16.8,34.2c11-8.4,21.4-5,32.1-0.4
					C642.9,366.1,646.3,366,649.8,364.8z"/>
				<path class="st187" d="M621.3,350c0.2-0.4-0.1-0.9-0.5-1.1c0,0,0,0,0,0c-11.4-3.2-23.4,3.4-26.6,14.9c-2.2,7.9,0.2,16,5.8,21.4
					c0.4,0.3,0.9,0.3,1.2-0.1C609.3,374.3,616.9,362.7,621.3,350z"/>
				<g>
					<path class="st72" d="M659.8,376.7c2.1,6.1,1,11.9-5.1,14s-11.5-1.6-13.6-7.7c-2.1-6.1,0.1-12.3,6.2-14.3
						S657.7,370.6,659.8,376.7z"/>
					
						<ellipse transform="matrix(0.9475 -0.3198 0.3198 0.9475 -87.4591 228.0459)" class="st13" cx="650.6" cy="380.3" rx="10.1" ry="10.1"/>
					<g>
						
							<ellipse transform="matrix(0.9475 -0.3198 0.3198 0.9475 -87.1398 229.241)" class="st0" cx="654.4" cy="380" rx="3.2" ry="3.2"/>
						<ellipse transform="matrix(0.9475 -0.3198 0.3198 0.9475 -87.1398 229.241)" cx="654.4" cy="380" rx="1.2" ry="1.2"/>
						
							<ellipse transform="matrix(0.9475 -0.3198 0.3198 0.9475 -86.8485 228.7948)" class="st73" cx="653.2" cy="378.8" rx="0.9" ry="0.9"/>
					</g>
				</g>
				<path class="st75" d="M647.9,409.3c0.5-1.9-0.6-5.1,2.5-5.2c1.8-0.1,3.5,0.4,4.9,1.4c-1.1,0-2.2,0-3.4,0.2c-0.1,0-0.3,0-0.4,0.1
					c-0.1,0.1-0.2,0.2-0.2,0.3c-0.8,1.8-1.6,4.1-3.3,5.3c-1.6,1.3-3.8,1.1-5.7,0.6c-0.3,0-0.6,0-0.9-0.1c-0.9-0.2-1.7-0.5-2.7,0.5
					c-0.6,0.6-1.2,2.1-2.1,2.3c-0.6,0.1-2.3-0.9-2.4-1.8c0-0.4,0.5-0.5,0.9-0.3c0.3,0.2,0.5,0.5,0.9,0.7c0.5,0.2,1.1-0.3,1.3-0.8
					c0.2-0.5,0.2-1.1,0.3-1.6c0.3-1.2,1.3-1.9,2.3-2.1c0.3,0,0.7,0,1.1,0C643.3,411.6,646.3,407.6,647.9,409.3"/>
				<path class="st66" d="M640.4,402.3L640.4,402.3c-2.4,0.8-5-0.5-5.9-2.9l-5.3-15.8c-0.8-2.4,0.5-5,2.9-5.9h0
					c2.4-0.8,5,0.5,5.9,2.9l5.3,15.8C644.2,398.9,642.9,401.5,640.4,402.3z"/>
				<path class="st186" d="M638.7,400L638.7,400c-2.4,0.8-5-0.5-5.9-2.9l-5.3-15.8c-0.8-2.4,0.5-5,2.9-5.9l0,0
					c2.4-0.8,5,0.5,5.9,2.9l5.3,15.8C642.4,396.6,641.1,399.2,638.7,400z"/>
				<path class="st187" d="M605.8,367.8c0,0,9,0.8,13.6,2c6.3,1.7,17.5-1.6,17.5-1.6s-11.6-8-17.4-7.8
					C613.6,360.6,605.8,367.8,605.8,367.8z"/>
				<path class="st187" d="M597.6,354.1c0,0,3.1-1.2,4.8-1.5c2.3-0.5,5.5-3.4,5.5-3.4s-5.1-0.8-7,0.3
					C599,350.5,597.6,354.1,597.6,354.1z"/>
				<path class="st187" d="M608.1,339.7c0,0,0.1,3.3,0.5,5c0.5,2.3-0.9,6.3-0.9,6.3s-2.7-4.4-2.5-6.5S608.1,339.7,608.1,339.7z"/>
				
					<ellipse transform="matrix(0.9475 -0.3198 0.3198 0.9475 -96.6836 218.4213)" class="st66" cx="616.7" cy="403.6" rx="1.2" ry="0.6"/>
				
					<ellipse transform="matrix(0.9475 -0.3198 0.3198 0.9475 -95.9869 219.733)" class="st66" cx="621.1" cy="402.1" rx="1.2" ry="0.6"/>
				
					<ellipse transform="matrix(0.9475 -0.3198 0.3198 0.9475 -96.9911 219.4255)" class="st66" cx="619.6" cy="405" rx="1.2" ry="0.6"/>
				
					<ellipse transform="matrix(0.9475 -0.3198 0.3198 0.9475 -90.4364 230.1825)" class="st66" cx="655.7" cy="390.5" rx="1.2" ry="0.6"/>
				
					<ellipse transform="matrix(0.9475 -0.3198 0.3198 0.9475 -89.7397 231.4942)" class="st66" cx="660" cy="389" rx="1.2" ry="0.6"/>
				
					<ellipse transform="matrix(0.9475 -0.3198 0.3198 0.9475 -90.7439 231.1867)" class="st66" cx="658.6" cy="391.9" rx="1.2" ry="0.6"/>
				<path class="st187" d="M598.7,377.4l8.9,25.2l1.7-3l-3.3-15.9c0,0,0.5-11.2,4.7-14.8c4.3-3.6,13.8-7.5,13.8-7.5l-9.5-1.3
					L598.7,377.4z"/>
				<path class="st187" d="M659.5,355.5l6.5,23.8l-1.7,1.7l-7-14.7c0,0-7.2-8.6-12.8-8.9c-5.6-0.3-15.5,2.5-15.5,2.5l6.8-6.8
					L659.5,355.5z"/>
				<path class="st187" d="M641.7,372l12-6.6c1.7-0.9,2.3-3,1.4-4.7v0c-0.9-1.7-3.1-2.3-4.7-1.4l-12,6.6c-1.7,0.9-2.3,3-1.4,4.7l0,0
					C637.9,372.3,640,372.9,641.7,372z"/>
				<g class="st52">
					<g>
						<path class="st14" d="M621.2,340.2c2.3,0.3,4.4-1,6.6-1.6c2.3-0.6,4.7-0.2,7-0.9c0.5-0.2,0.4-1-0.1-1c-2.4,0-4.9-0.2-7.3,0.4
							c-2.1,0.6-4.8,1.2-6.4,2.8C620.9,340,621,340.2,621.2,340.2L621.2,340.2z"/>
					</g>
				</g>
				<g>
					<path class="st72" d="M632.9,382.9c2.1,6.1,1,11.9-5.1,14s-11.5-1.6-13.6-7.7c-2.1-6.1,0.1-12.3,6.2-14.3
						S630.8,376.8,632.9,382.9z"/>
					
						<ellipse transform="matrix(0.9475 -0.3198 0.3198 0.9475 -90.8653 219.7766)" class="st13" cx="623.8" cy="386.6" rx="10.1" ry="10.1"/>
					<g>
						
							<ellipse transform="matrix(0.9475 -0.3198 0.3198 0.9475 -90.2262 220.9192)" class="st0" cx="627.6" cy="385.2" rx="3.2" ry="3.2"/>
						<ellipse transform="matrix(0.9475 -0.3198 0.3198 0.9475 -90.2262 220.9192)" cx="627.6" cy="385.2" rx="1.2" ry="1.2"/>
						
							<ellipse transform="matrix(0.9475 -0.3198 0.3198 0.9475 -89.9349 220.473)" class="st73" cx="626.3" cy="384.1" rx="0.9" ry="0.9"/>
					</g>
				</g>
				<path class="st187" d="M612.2,382.6l11.9-6.7c1.7-0.9,2.2-3.1,1.2-4.8h0c-1-1.7-3.2-2.4-4.9-1.4l-11.9,6.7
					c-1.7,0.9-2.2,3.1-1.2,4.8l0,0C608.3,382.9,610.5,383.5,612.2,382.6z"/>
			</g>
		</g>
		<g>
			<g>
				<path class="st184" d="M685.2,385.1c0.8,1.4,1.6,3,1.8,4.6c0.2,2.3-0.8,4.2-2,6c-0.5,0.7,1.6,0.5,1.9-0.1c1-1.6,2-3.2,2.2-5.1
					c0.2-2.2-0.7-4.2-1.8-6C687,383.9,685,384.6,685.2,385.1L685.2,385.1z"/>
			</g>
		</g>
		<path class="st188" d="M696.6,396.2c-1.4,1.6-8.6-0.7-8.9-2.7"/>
		<g>
			<path class="st13" d="M697.4,401c-4-3.5-10.9-3.5-10.9-3.1c0,0.7,0.3-5.5,1.8-6.2c3.4-1,9,2.6,10.3,3.4c1.8,1,0.2,3.4-1,5.7"/>
		</g>
		<g>
			<g>
				<path class="st183" d="M658,433.9c0.2-1.1-0.2-2.2-0.7-3.2c-0.5-1-1.2-1.8-1.8-2.8c-0.7-1.1-1.3-2.3-1.8-3.6
					c-0.4-1.2-0.7-2.4-0.4-3.6c0.3-1.4,6.8-3.2,8.2-3.8"/>
				<g>
					<path class="st184" d="M659,433.7c0.1-4.3-4.3-6.7-4.6-10.9c-0.2-3.1,1.7-3.5,4.1-4.3c1.1-0.4,2.3-0.7,3.4-1.2
						c1.4-0.5,0.1-1.3-0.8-0.9c-2.4,0.9-6.9,1.5-8.5,3.8c-2.8,4.1,4.5,9.8,4.4,13.8C656.9,434.9,659,434.5,659,433.7L659,433.7z"/>
				</g>
			</g>
			<polyline class="st189" points="663,421.9 674.8,424.1 665,441.8 660.9,439.3 662.3,422.4 			"/>
			<g>
				<path class="st183" d="M662.7,443c5.9-1.2,11.4-4.5,15.1-9.2c3.7-4.7,5.7-10.8,5.5-16.8c-0.1-1.6-0.3-3.2-0.9-4.7
					c-0.6-1.5-1.7-2.8-3.2-3.5c-1.1-0.5-2.3-0.7-3.5-0.8c-2.8-0.2-5.7,0.1-8.4,0.7c-1,0.2-2,0.5-2.9,1c-2.9,1.4-5.1,4-6.6,6.9
					c-1.1,2.1-2,4.6-1.4,6.9c0.4,1.5,1.3,2.7,2.3,3.8c0.4,0.5,0.8,1,1.4,1.3c0.7,0.4,1.5,0.5,2.3,0.7c5,1.1,9.4-2.1,11.5-6.3
					c0.4-0.9,0.7-2.2-0.2-2.7"/>
				<g>
					<path class="st184" d="M662.9,443.6c11.1-2.5,19.8-11.1,21.3-22.6c0.6-4.4,0.4-10.5-4.1-12.8c-4-2.1-10.6-1-14.6,0.4
						c-7.3,2.6-15.3,15-6.2,20.6c3.1,1.9,7.7,1.1,10.6-0.6c2.4-1.4,7-5.7,4.7-8.6c-0.5-0.6-2.5,0.1-2,0.9c1.2,1.5-0.4,3.3-1.3,4.4
						c-2.6,3.3-7.4,4.7-11,2.4c-2.7-1.7-3.4-5.6-2.6-8.5c0.8-3.1,3.5-6.7,6.2-8.4c4.2-2.6,13.8-3.7,16.8,0.9
						c3.4,5.1,1,13.8-1.7,18.7c-3.5,6.3-9.5,10.5-16.5,12.1C661.3,442.7,661.6,443.9,662.9,443.6L662.9,443.6z"/>
				</g>
			</g>
			<path class="st183" d="M658,430.3c0,1.3,1,2.5,0,4.3c-0.1,0.2-0.2,0.4-0.3,0.7l4.4,7.4l8.2-5.7c0,0-4.6-6.7-6.3-6.7
				c-3,0-5.9-1.9-5.9-1.9"/>
			<g>
				<path class="st13" d="M660.8,446.1c-2.1-4.9-8.3-7.9-8.4-7.6c-0.3,0.7,2.7-4.8,4.3-4.8c3.5,0.6,7,6.3,7.9,7.5
					c1.2,1.7-1.3,3.2-3.4,4.7"/>
			</g>
		</g>
	</g>
	<g>
	</g>
	
		<use xlink:href="#barras"  width="433.6" height="172.4" x="-216.8" y="-86.2" transform="matrix(1 0 0 -1 289.8234 368.5386)" style="overflow:visible;"/>
</g>
<g id="Layer_2">
	<rect x="34.9" y="28.9" class="st22" width="391.9" height="48.3"/>
	<text transform="matrix(1 0 0 1 34.8926 47.6332)" class="st0 st128 st127">HOla, Kaira POlet ARAYA</text>
</g>
</svg>
