<?xml version="1.0" encoding="utf-8"?>
<!-- Generator: Adobe Illustrator 21.1.0, SVG Export Plug-In . SVG Version: 6.00 Build 0)  -->
<svg version="1.1" xmlns="http://www.w3.org/2000/svg" xmlns:xlink="http://www.w3.org/1999/xlink" x="0px" y="0px"
	 viewBox="0 0 841.9 595.3" style="enable-background:new 0 0 841.9 595.3;" xml:space="preserve">
<style type="text/css">
	.st0{fill:#601515;}
	.st1{fill:#3FBA51;}
	.st2{fill:none;stroke:#601515;stroke-width:2;stroke-miterlimit:10;}
	.st3{fill:#F2C85F;}
	.st4{fill:#F2D3AD;}
	.st5{fill:#674C91;}
	.st6{fill:#DCFFC5;}
	.st7{fill:#8BAA77;}
	.st8{clip-path:url(#SVGID_2_);fill:#F1F3F7;}
	.st9{opacity:0.4;clip-path:url(#SVGID_2_);fill:#DCDDE0;}
	.st10{clip-path:url(#SVGID_2_);fill:#0076B7;}
	.st11{clip-path:url(#SVGID_2_);fill:#FFFFFF;}
	.st12{clip-path:url(#SVGID_2_);}
	.st13{fill:#FFFFFF;}
	.st14{fill:#F7CFA2;}
	.st15{fill:#ECB8FF;}
	.st16{fill:#393D47;}
	.st17{fill:#E86767;}
	.st18{opacity:0.1;fill:#3C2813;}
	.st19{fill:#EEEBE7;}
	.st20{fill:#3C2813;}
	.st21{fill:#795ACC;}
	.st22{fill:none;}
	.st23{clip-path:url(#SVGID_6_);fill:#F7EFDF;}
	.st24{fill:#3EBA50;}
	.st25{display:none;opacity:0.3;}
	.st26{fill:#F7EFDF;}
	.st27{fill:#4E9FA8;}
	.st28{fill:none;stroke:#231F20;stroke-width:2;stroke-miterlimit:10;}
	.st29{fill:#231F20;}
	.st30{fill:none;stroke:#674C91;stroke-miterlimit:10;}
	.st31{fill:#601515;stroke:#601515;stroke-miterlimit:10;}
	.st32{fill:none;stroke:#601515;stroke-miterlimit:10;}
	.st33{fill:none;stroke:#FFFFFF;stroke-miterlimit:10;}
	.st34{fill:url(#SVGID_9_);}
	.st35{fill:#601515;stroke:#8C8779;stroke-width:6;stroke-miterlimit:10;}
	.st36{fill:url(#SVGID_10_);}
	.st37{fill:none;stroke:#4E9FA8;stroke-width:12;stroke-miterlimit:10;}
	.st38{fill:#E0EA18;}
	.st39{clip-path:url(#SVGID_12_);fill:#F7EFDF;}
	.st40{fill:url(#SVGID_13_);}
	.st41{fill:url(#SVGID_14_);}
	.st42{fill:#EFEA35;}
	.st43{fill:url(#SVGID_15_);}
	.st44{fill:url(#SVGID_16_);}
	.st45{fill:url(#SVGID_17_);}
	.st46{fill:url(#SVGID_18_);}
	.st47{fill:url(#SVGID_19_);}
	.st48{fill:#C1C1B8;}
	.st49{fill:#9B9B97;}
	.st50{fill:#D8D8D2;}
	.st51{opacity:0.4;}
	.st52{opacity:0.6;}
	.st53{fill:#CEBABA;}
	.st54{fill:#EAEAE5;}
	.st55{fill:url(#SVGID_20_);}
	.st56{fill:url(#SVGID_21_);}
	.st57{fill:url(#SVGID_22_);}
	.st58{fill:url(#SVGID_23_);}
	.st59{fill:url(#SVGID_24_);}
	.st60{fill:url(#SVGID_25_);}
	.st61{fill:url(#SVGID_26_);}
	.st62{fill:url(#SVGID_27_);}
	.st63{fill:url(#SVGID_28_);}
	.st64{fill:#6BA8B2;}
	.st65{fill:#F1F3F7;}
	.st66{fill:#F0BA7A;}
	.st67{opacity:0.4;fill:#DCDDE0;}
	.st68{fill:#0076B7;}
	.st69{opacity:0.3;}
	.st70{fill:#DCDDE0;}
	.st71{fill:#004868;}
	.st72{opacity:0.1;fill:#601515;}
	.st73{fill:#F9F9F9;}
	.st74{fill:#24272D;}
	.st75{fill:#EA6D50;}
	.st76{clip-path:url(#SVGID_30_);fill:#F0BA7A;}
	.st77{clip-path:url(#SVGID_30_);fill:#F1F3F7;}
	.st78{opacity:0.4;clip-path:url(#SVGID_30_);fill:#DCDDE0;}
	.st79{clip-path:url(#SVGID_30_);fill:#0076B7;}
	.st80{clip-path:url(#SVGID_30_);fill:#FFFFFF;}
	.st81{clip-path:url(#SVGID_30_);}
	.st82{opacity:0.3;fill:#601515;}
	.st83{fill:#5B1010;}
	.st84{clip-path:url(#SVGID_32_);fill:#F1F3F7;}
	.st85{clip-path:url(#SVGID_32_);fill:#F0BA7A;}
	.st86{opacity:0.4;clip-path:url(#SVGID_32_);fill:#DCDDE0;}
	.st87{clip-path:url(#SVGID_32_);fill:#0076B7;}
	.st88{clip-path:url(#SVGID_32_);fill:#FFFFFF;}
	.st89{clip-path:url(#SVGID_32_);}
	.st90{font-family:'ElegantLux-Mager';}
	.st91{font-size:26px;}
	.st92{font-family:'Bungee-Regular';}
	.st93{font-size:22px;}
	.st94{fill:#1F74C9;}
	.st95{fill:#595959;}
	.st96{opacity:0.1;fill:#8BAA77;}
	.st97{opacity:0.3;fill:#8BAA77;}
	.st98{opacity:0.1;fill:#595959;}
	.st99{opacity:0.3;fill:#595959;}
	.st100{fill:#9E921E;}
	.st101{clip-path:url(#SVGID_34_);fill:#F0BA7A;}
	.st102{clip-path:url(#SVGID_34_);fill:#F1F3F7;}
	.st103{clip-path:url(#SVGID_34_);}
	.st104{clip-path:url(#SVGID_34_);fill:#393D47;}
	.st105{clip-path:url(#SVGID_34_);fill:#FFFFFF;}
	.st106{opacity:0.4;clip-path:url(#SVGID_34_);fill:#DCDDE0;}
	.st107{clip-path:url(#SVGID_34_);fill:#0076B7;}
	.st108{fill:#B72C34;}
	.st109{clip-path:url(#SVGID_36_);fill:#F1F3F7;}
	.st110{clip-path:url(#SVGID_36_);}
	.st111{clip-path:url(#SVGID_38_);fill:#F1F3F7;}
	.st112{opacity:0.4;clip-path:url(#SVGID_38_);fill:#DCDDE0;}
	.st113{clip-path:url(#SVGID_38_);fill:#0076B7;}
	.st114{clip-path:url(#SVGID_38_);fill:#FFFFFF;}
	.st115{clip-path:url(#SVGID_38_);}
	.st116{fill:url(#SVGID_39_);}
	.st117{fill:url(#SVGID_40_);}
	.st118{fill:url(#SVGID_41_);}
	.st119{fill:url(#SVGID_42_);}
	.st120{fill:#A52323;}
	.st121{clip-path:url(#SVGID_44_);fill:#F1F3F7;}
	.st122{opacity:0.4;clip-path:url(#SVGID_44_);fill:#DCDDE0;}
	.st123{clip-path:url(#SVGID_44_);fill:#0076B7;}
	.st124{clip-path:url(#SVGID_44_);fill:#FFFFFF;}
	.st125{clip-path:url(#SVGID_44_);}
	.st126{fill:#023142;}
	.st127{clip-path:url(#SVGID_46_);fill:#F7CFA2;}
	.st128{clip-path:url(#SVGID_46_);}
	.st129{opacity:0.3;fill:#E57257;}
	.st130{opacity:0.2;}
	.st131{fill:#656D60;}
	.st132{clip-path:url(#SVGID_48_);fill:#F0BA7A;}
	.st133{clip-path:url(#SVGID_48_);fill:#F1F3F7;}
	.st134{opacity:0.4;clip-path:url(#SVGID_48_);fill:#DCDDE0;}
	.st135{clip-path:url(#SVGID_48_);fill:#0076B7;}
	.st136{clip-path:url(#SVGID_48_);fill:#FFFFFF;}
	.st137{clip-path:url(#SVGID_48_);}
	.st138{clip-path:url(#SVGID_50_);fill:#F1F3F7;}
	.st139{opacity:0.4;clip-path:url(#SVGID_50_);fill:#DCDDE0;}
	.st140{clip-path:url(#SVGID_50_);fill:#0076B7;}
	.st141{clip-path:url(#SVGID_50_);fill:#FFFFFF;}
	.st142{clip-path:url(#SVGID_50_);}
	.st143{clip-path:url(#SVGID_52_);fill:#F1F3F7;}
	.st144{opacity:0.4;clip-path:url(#SVGID_52_);fill:#DCDDE0;}
	.st145{clip-path:url(#SVGID_52_);fill:#0076B7;}
	.st146{clip-path:url(#SVGID_52_);fill:#FFFFFF;}
	.st147{clip-path:url(#SVGID_52_);}
	.st148{fill:#9E9E9E;}
	.st149{fill:#878787;}
	.st150{fill:url(#SVGID_53_);}
	.st151{fill:#CE6117;}
	.st152{fill:url(#SVGID_54_);}
	.st153{fill:#EFE91B;}
	.st154{clip-path:url(#SVGID_56_);fill:#F0BA7A;}
	.st155{clip-path:url(#SVGID_56_);fill:#F1F3F7;}
	.st156{opacity:0.4;clip-path:url(#SVGID_56_);fill:#DCDDE0;}
	.st157{clip-path:url(#SVGID_56_);fill:#0076B7;}
	.st158{clip-path:url(#SVGID_56_);fill:#FFFFFF;}
	.st159{clip-path:url(#SVGID_56_);}
	.st160{fill:#B27E49;}
	.st161{clip-path:url(#SVGID_58_);fill:#F1F3F7;}
	.st162{opacity:0.4;clip-path:url(#SVGID_58_);fill:#DCDDE0;}
	.st163{clip-path:url(#SVGID_58_);fill:#0076B7;}
	.st164{clip-path:url(#SVGID_58_);fill:#FFFFFF;}
	.st165{clip-path:url(#SVGID_58_);}
	.st166{fill:#8454D1;}
	.st167{clip-path:url(#SVGID_60_);fill:#393D47;}
	.st168{clip-path:url(#SVGID_60_);fill:#F0BA7A;}
	.st169{clip-path:url(#SVGID_60_);fill:#F1F3F7;}
	.st170{clip-path:url(#SVGID_60_);fill:#0076B7;}
	.st171{clip-path:url(#SVGID_60_);fill:#004868;}
	.st172{opacity:0.4;clip-path:url(#SVGID_60_);fill:#DCDDE0;}
	.st173{clip-path:url(#SVGID_60_);fill:#FFFFFF;}
	.st174{clip-path:url(#SVGID_60_);}
	.st175{fill:none;stroke:#EA6D50;stroke-width:2;stroke-miterlimit:10;}
	.st176{fill:url(#SVGID_61_);}
	.st177{fill:#777777;}
	.st178{fill:#A85848;}
	.st179{fill:#E85646;}
	.st180{fill:#EA4E39;}
	.st181{clip-path:url(#SVGID_63_);fill:#F1F3F7;}
	.st182{clip-path:url(#SVGID_63_);}
	.st183{fill:#B23C18;}
	.st184{fill:#6B2A05;}
	.st185{fill:#B23C18;stroke:#6B2A05;stroke-miterlimit:10;}
	.st186{fill:#DDAA78;}
	.st187{fill:#211205;}
	.st188{fill:none;stroke:#6B2A05;stroke-width:0.729;stroke-miterlimit:10;}
	.st189{fill:#B23C18;stroke:#6B2A05;stroke-width:0.729;stroke-miterlimit:10;}
	.st190{fill:#BBE8F2;}
	.st191{opacity:0.3;fill:#F2F8F9;}
	.st192{opacity:0.2;fill:#601515;}
	.st193{fill:#FFFF00;}
	.st194{fill:#594EEA;}
	.st195{fill:#FF0B0B;}
	.st196{fill:none;stroke:#3FBA51;stroke-width:8;stroke-miterlimit:10;}
	.st197{fill:none;stroke:#3FBA51;stroke-width:7.2;stroke-miterlimit:10;}
	.st198{fill:none;stroke:#3FBA51;stroke-width:7.2;stroke-linecap:round;stroke-miterlimit:10;}
	.st199{fill:none;stroke:#3FBA51;stroke-width:8;stroke-linecap:round;stroke-miterlimit:10;}
	.st200{fill:none;stroke:#3FBA51;stroke-width:5.1175;stroke-miterlimit:10;}
	.st201{fill:#4F5565;}
	.st202{fill:#D64E3C;}
	.st203{fill:#F7A500;}
	.st204{fill:#FBD303;}
	.st205{fill:#FCFCFD;}
	.st206{fill:#F8B517;}
	.st207{fill:#F0582F;}
	.st208{fill:#BAE8F2;}
	.st209{fill:#F7EA72;}
	.st210{clip-path:url(#SVGID_65_);fill:#F7EFDF;}
	.st211{fill:none;stroke:#3FBA51;stroke-width:6.4304;stroke-miterlimit:10;}
	.st212{fill:url(#SVGID_66_);}
	.st213{fill:url(#SVGID_67_);}
	.st214{fill:url(#SVGID_68_);}
	.st215{fill:url(#SVGID_69_);}
	.st216{fill:url(#SVGID_70_);}
	.st217{fill:url(#SVGID_71_);}
	.st218{fill:url(#SVGID_72_);}
	.st219{fill:url(#SVGID_73_);}
	.st220{fill:url(#SVGID_74_);}
	.st221{fill:url(#SVGID_75_);}
	.st222{fill:url(#SVGID_76_);}
	.st223{fill:url(#SVGID_77_);}
	.st224{fill:url(#SVGID_78_);}
	.st225{fill:url(#SVGID_79_);}
	.st226{fill:url(#SVGID_80_);}
	.st227{fill:url(#SVGID_81_);}
	.st228{fill:url(#SVGID_82_);}
	.st229{fill:url(#SVGID_83_);}
	.st230{fill:url(#SVGID_84_);}
	.st231{fill:url(#SVGID_85_);}
	.st232{fill:url(#SVGID_86_);}
	.st233{fill:url(#SVGID_87_);}
	.st234{fill:url(#SVGID_88_);}
	.st235{fill:url(#SVGID_89_);}
	.st236{fill:url(#SVGID_90_);}
	.st237{fill:url(#SVGID_91_);}
	.st238{fill:url(#SVGID_92_);}
	.st239{fill:url(#SVGID_93_);}
	.st240{fill:url(#SVGID_94_);}
	.st241{fill:url(#SVGID_95_);}
	.st242{fill:url(#SVGID_96_);}
	.st243{fill:url(#SVGID_97_);}
	.st244{fill:url(#SVGID_98_);}
	.st245{fill:url(#SVGID_99_);}
	.st246{fill:url(#SVGID_100_);}
	.st247{fill:url(#SVGID_101_);}
	.st248{opacity:0.7;fill:#7BCDDB;}
	.st249{fill:none;stroke:#F0BA7A;stroke-width:3;stroke-miterlimit:10;}
	.st250{fill:url(#SVGID_102_);}
	.st251{fill:url(#SVGID_103_);}
	.st252{fill:url(#SVGID_104_);}
	.st253{fill:url(#SVGID_105_);}
	.st254{fill:url(#SVGID_106_);}
	.st255{fill:url(#SVGID_107_);}
	.st256{fill:url(#SVGID_108_);}
	.st257{opacity:0.5;fill:#302929;}
	.st258{fill:#EF3F50;}
	.st259{fill:url(#SVGID_109_);}
	.st260{fill:url(#SVGID_110_);}
	.st261{fill:url(#SVGID_111_);}
	.st262{fill:url(#SVGID_112_);}
	.st263{opacity:0.6;fill:#302929;}
	.st264{fill:url(#SVGID_113_);}
	.st265{fill:url(#SVGID_114_);}
	.st266{fill:url(#SVGID_115_);}
	.st267{fill:url(#SVGID_116_);}
	.st268{fill:url(#SVGID_117_);}
	.st269{fill:url(#SVGID_118_);}
	.st270{fill:url(#SVGID_119_);}
	.st271{fill:url(#SVGID_120_);}
	.st272{fill:url(#SVGID_121_);}
	.st273{fill:url(#SVGID_122_);}
	.st274{fill:url(#SVGID_123_);}
	.st275{fill:url(#SVGID_124_);}
	.st276{fill:url(#SVGID_125_);}
	.st277{fill:url(#SVGID_126_);}
	.st278{fill:url(#SVGID_127_);}
	.st279{fill:url(#SVGID_128_);}
	.st280{fill:url(#SVGID_129_);}
	.st281{fill:url(#SVGID_130_);}
	.st282{fill:url(#SVGID_131_);}
	.st283{fill:url(#SVGID_132_);}
	.st284{fill:url(#SVGID_133_);}
	.st285{fill:url(#SVGID_134_);}
	.st286{fill:url(#SVGID_135_);}
	.st287{fill:url(#SVGID_136_);}
	.st288{fill:url(#SVGID_137_);}
	.st289{fill:url(#SVGID_138_);}
	.st290{fill:url(#SVGID_139_);}
	.st291{fill:url(#SVGID_140_);}
	.st292{fill:url(#SVGID_141_);}
	.st293{fill:url(#SVGID_142_);}
	.st294{fill:url(#SVGID_143_);}
	.st295{fill:url(#SVGID_144_);}
	.st296{fill:url(#SVGID_145_);}
	.st297{fill:url(#SVGID_146_);}
	.st298{fill:url(#SVGID_147_);}
	.st299{fill:url(#SVGID_148_);}
	.st300{fill:url(#SVGID_149_);}
	.st301{fill:url(#SVGID_150_);}
	.st302{fill:url(#SVGID_151_);}
	.st303{fill:url(#SVGID_152_);}
	.st304{fill:url(#SVGID_153_);}
	.st305{fill:url(#SVGID_154_);}
	.st306{fill:url(#SVGID_155_);}
	.st307{fill:url(#SVGID_156_);}
	.st308{fill:url(#SVGID_157_);}
	.st309{fill:url(#SVGID_158_);}
	.st310{fill:url(#SVGID_159_);}
	.st311{fill:url(#SVGID_160_);}
	.st312{fill:url(#SVGID_161_);}
	.st313{fill:url(#SVGID_162_);}
	.st314{fill:url(#SVGID_163_);}
	.st315{fill:url(#SVGID_164_);}
	.st316{fill:url(#SVGID_165_);}
	.st317{fill:url(#SVGID_166_);}
	.st318{fill:url(#SVGID_167_);}
	.st319{fill:url(#SVGID_168_);}
	.st320{fill:url(#SVGID_169_);}
	.st321{fill:url(#SVGID_170_);}
	.st322{fill:url(#SVGID_171_);}
	.st323{fill:url(#SVGID_172_);}
	.st324{fill:url(#SVGID_173_);}
	.st325{fill:url(#SVGID_174_);}
	.st326{fill:url(#SVGID_175_);}
	.st327{fill:url(#SVGID_176_);}
	.st328{fill:url(#SVGID_177_);}
	.st329{fill:url(#SVGID_178_);}
	.st330{fill:url(#SVGID_179_);}
	.st331{fill:url(#SVGID_180_);}
	.st332{fill:url(#SVGID_181_);}
	.st333{fill:url(#SVGID_182_);}
	.st334{fill:url(#SVGID_183_);}
	.st335{fill:url(#SVGID_184_);}
	.st336{fill:url(#SVGID_185_);}
	.st337{fill:url(#SVGID_186_);}
	.st338{fill:url(#SVGID_187_);}
	.st339{fill:url(#SVGID_188_);}
	.st340{fill:url(#SVGID_189_);}
	.st341{fill:url(#SVGID_190_);}
	.st342{fill:url(#SVGID_191_);}
	.st343{fill:url(#SVGID_192_);}
	.st344{fill:url(#SVGID_193_);}
	.st345{fill:url(#SVGID_194_);}
	.st346{fill:url(#SVGID_195_);}
	.st347{fill:url(#SVGID_196_);}
	.st348{fill:url(#SVGID_197_);}
	.st349{fill:url(#SVGID_198_);}
	.st350{fill:url(#SVGID_199_);}
	.st351{fill:url(#SVGID_200_);}
	.st352{fill:url(#SVGID_201_);}
	.st353{fill:url(#SVGID_202_);}
	.st354{fill:url(#SVGID_203_);}
	.st355{fill:url(#SVGID_204_);}
	.st356{fill:url(#SVGID_205_);}
	.st357{fill:url(#SVGID_206_);}
	.st358{fill:url(#SVGID_207_);}
	.st359{fill:url(#SVGID_208_);}
	.st360{fill:url(#SVGID_209_);}
	.st361{fill:url(#SVGID_210_);}
	.st362{fill:url(#SVGID_211_);}
	.st363{fill:url(#SVGID_212_);}
	.st364{fill:url(#SVGID_213_);}
	.st365{fill:url(#SVGID_214_);}
	.st366{fill:url(#SVGID_215_);}
	.st367{fill:url(#SVGID_216_);}
	.st368{fill:url(#SVGID_217_);}
	.st369{fill:url(#SVGID_218_);}
	.st370{fill:url(#SVGID_219_);}
	.st371{fill:url(#SVGID_220_);}
	.st372{fill:url(#SVGID_221_);}
	.st373{fill:url(#SVGID_222_);}
	.st374{fill:url(#SVGID_223_);}
	.st375{fill:url(#SVGID_224_);}
	.st376{fill:url(#SVGID_225_);}
	.st377{fill:url(#SVGID_226_);}
	.st378{fill:url(#SVGID_227_);}
	.st379{fill:url(#SVGID_228_);}
	.st380{fill:url(#SVGID_229_);}
	.st381{fill:url(#SVGID_230_);}
	.st382{fill:url(#SVGID_231_);}
	.st383{fill:url(#SVGID_232_);}
	.st384{fill:url(#SVGID_233_);}
	.st385{fill:url(#SVGID_234_);}
	.st386{fill:url(#SVGID_235_);}
	.st387{fill:url(#SVGID_236_);}
	.st388{fill:url(#SVGID_237_);}
	.st389{fill:url(#SVGID_238_);}
	.st390{fill:url(#SVGID_239_);}
	.st391{fill:none;stroke:#9B9B97;stroke-miterlimit:10;}
	.st392{fill:url(#SVGID_240_);}
	.st393{fill:url(#SVGID_241_);}
	.st394{fill:url(#SVGID_242_);}
	.st395{fill:url(#SVGID_243_);}
	.st396{fill:url(#SVGID_244_);}
	.st397{fill:url(#SVGID_245_);}
	.st398{fill:url(#SVGID_246_);}
	.st399{fill:url(#SVGID_247_);}
	.st400{fill:url(#SVGID_248_);}
	.st401{fill:url(#SVGID_249_);}
	.st402{fill:url(#SVGID_250_);}
	.st403{fill:url(#SVGID_251_);}
	.st404{fill:url(#SVGID_252_);}
	.st405{fill:url(#SVGID_253_);}
	.st406{fill:url(#SVGID_254_);}
	.st407{fill:url(#SVGID_255_);}
	.st408{fill:url(#SVGID_256_);}
	.st409{fill:url(#SVGID_257_);}
	.st410{fill:url(#SVGID_258_);}
	.st411{fill:url(#SVGID_259_);}
	.st412{fill:url(#SVGID_260_);}
	.st413{fill:url(#SVGID_261_);}
	.st414{fill:url(#SVGID_262_);}
	.st415{fill:url(#SVGID_263_);}
	.st416{fill:url(#SVGID_264_);}
	.st417{fill:url(#SVGID_265_);}
	.st418{fill:url(#SVGID_266_);}
	.st419{fill:url(#SVGID_267_);}
	.st420{fill:url(#SVGID_268_);}
	.st421{fill:url(#SVGID_269_);}
	.st422{fill:url(#SVGID_270_);}
	.st423{fill:url(#SVGID_271_);}
	.st424{fill:url(#SVGID_272_);}
	.st425{fill:url(#SVGID_273_);}
	.st426{fill:url(#SVGID_274_);}
	.st427{fill:url(#SVGID_275_);}
	.st428{fill:url(#SVGID_276_);}
	.st429{fill:url(#SVGID_277_);}
	.st430{fill:url(#SVGID_278_);}
	.st431{fill:url(#SVGID_279_);}
	.st432{fill:url(#SVGID_280_);}
	.st433{fill:url(#SVGID_281_);}
	.st434{fill:url(#SVGID_282_);}
	.st435{fill:url(#SVGID_283_);}
	.st436{fill:url(#SVGID_284_);}
	.st437{fill:url(#SVGID_285_);}
	.st438{fill:url(#SVGID_286_);}
	.st439{fill:url(#SVGID_287_);}
	.st440{fill:url(#SVGID_288_);}
	.st441{fill:url(#SVGID_289_);}
	.st442{fill:url(#SVGID_290_);}
	.st443{fill:url(#SVGID_291_);}
	.st444{fill:url(#SVGID_292_);}
	.st445{fill:url(#SVGID_293_);}
	.st446{fill:url(#SVGID_294_);}
	.st447{fill:url(#SVGID_295_);}
	.st448{fill:url(#SVGID_296_);}
	.st449{fill:url(#SVGID_297_);}
	.st450{fill:url(#SVGID_298_);}
	.st451{fill:url(#SVGID_299_);}
	.st452{fill:url(#SVGID_300_);}
	.st453{fill:url(#SVGID_301_);}
	.st454{fill:url(#SVGID_302_);}
	.st455{fill:url(#SVGID_303_);}
	.st456{fill:url(#SVGID_304_);}
	.st457{fill:url(#SVGID_305_);}
	.st458{fill:url(#SVGID_306_);}
	.st459{fill:url(#SVGID_307_);}
	.st460{fill:url(#SVGID_308_);}
	.st461{fill:url(#SVGID_309_);}
	.st462{fill:url(#SVGID_310_);}
	.st463{fill:url(#SVGID_311_);}
	.st464{fill:url(#SVGID_312_);}
	.st465{fill:url(#SVGID_313_);}
	.st466{fill:url(#SVGID_314_);}
	.st467{fill:url(#SVGID_315_);}
	.st468{fill:url(#SVGID_316_);}
	.st469{fill:url(#SVGID_317_);}
	.st470{fill:url(#SVGID_318_);}
	.st471{fill:url(#SVGID_319_);}
	.st472{fill:url(#SVGID_320_);}
	.st473{fill:url(#SVGID_321_);}
	.st474{fill:url(#SVGID_322_);}
	.st475{fill:url(#SVGID_323_);}
	.st476{fill:url(#SVGID_324_);}
	.st477{fill:url(#SVGID_325_);}
	.st478{fill:url(#SVGID_326_);}
	.st479{fill:url(#SVGID_327_);}
	.st480{fill:url(#SVGID_328_);}
	.st481{fill:url(#SVGID_329_);}
	.st482{fill:url(#SVGID_330_);}
	.st483{fill:url(#SVGID_331_);}
	.st484{fill:url(#SVGID_332_);}
	.st485{fill:url(#SVGID_333_);}
	.st486{fill:url(#SVGID_334_);}
	.st487{fill:url(#SVGID_335_);}
	.st488{fill:url(#SVGID_336_);}
	.st489{fill:url(#SVGID_337_);}
	.st490{fill:url(#SVGID_338_);}
	.st491{fill:url(#SVGID_339_);}
	.st492{fill:url(#SVGID_340_);}
	.st493{fill:url(#SVGID_341_);}
	.st494{fill:url(#SVGID_342_);}
	.st495{fill:url(#SVGID_343_);}
	.st496{fill:url(#SVGID_344_);}
	.st497{fill:url(#SVGID_345_);}
	.st498{fill:url(#SVGID_346_);}
	.st499{fill:url(#SVGID_347_);}
	.st500{fill:url(#SVGID_348_);}
	.st501{fill:url(#SVGID_349_);}
	.st502{fill:url(#SVGID_350_);}
	.st503{fill:url(#SVGID_351_);}
	.st504{fill:url(#SVGID_352_);}
	.st505{fill:url(#SVGID_353_);}
	.st506{fill:url(#SVGID_354_);}
	.st507{fill:url(#SVGID_355_);}
	.st508{fill:url(#SVGID_356_);}
	.st509{fill:url(#SVGID_357_);}
	.st510{fill:url(#SVGID_358_);}
	.st511{fill:url(#SVGID_359_);}
	.st512{fill:url(#SVGID_360_);}
	.st513{fill:url(#SVGID_361_);}
	.st514{fill:url(#SVGID_362_);}
	.st515{fill:url(#SVGID_363_);}
	.st516{fill:url(#SVGID_364_);}
	.st517{fill:url(#SVGID_365_);}
	.st518{fill:url(#SVGID_366_);}
	.st519{fill:url(#SVGID_367_);}
	.st520{fill:url(#SVGID_368_);}
	.st521{fill:url(#SVGID_369_);}
	.st522{fill:url(#SVGID_370_);}
	.st523{fill:url(#SVGID_371_);}
	.st524{fill:url(#SVGID_372_);}
	.st525{fill:url(#SVGID_373_);}
	.st526{fill:url(#SVGID_374_);}
	.st527{fill:url(#SVGID_375_);}
	.st528{fill:url(#SVGID_376_);}
	.st529{fill:url(#SVGID_377_);}
	.st530{clip-path:url(#SVGID_379_);}
	.st531{clip-path:url(#SVGID_381_);}
	.st532{fill:#F4F0A6;}
	.st533{clip-path:url(#SVGID_383_);}
	.st534{opacity:0.6;fill:none;stroke:#F7CFA2;stroke-miterlimit:10;}
	.st535{fill:none;stroke:#F7CFA2;stroke-miterlimit:10;}
	.st536{fill:#EAA56C;}
	.st537{clip-path:url(#SVGID_385_);fill:#F7EFDF;}
</style>
<symbol  id="barras" viewBox="-216.8 -86.2 433.6 172.4">
	<g>
		<rect x="113.2" y="-86.2" class="st22" width="103.6" height="30.9"/>
		<text transform="matrix(1 0 0 -1 126.502 -65.4814)" class="st0 st90" style="font-size:15.36px;">Casi Siempre</text>
	</g>
	<rect x="-105.9" y="-35" class="st1" width="87" height="28.2"/>
	<rect x="-215.8" y="-35.3" class="st1" width="87" height="8.8"/>
	<rect x="7.8" y="-35" class="st1" width="87" height="61.7"/>
	<rect x="121.5" y="-35" class="st1" width="87" height="120.1"/>
	<g>
		<rect x="-101.5" y="-73.4" class="st22" width="78" height="18.1"/>
		<text transform="matrix(1 0 0 -1 -95.3037 -65.4814)" class="st0 st90" style="font-size:15.36px;">Casi nunca</text>
	</g>
	<rect x="-105.9" y="-35" class="st2" width="87" height="28.2"/>
	<g>
		<rect x="-192.1" y="-86.2" class="st22" width="39.6" height="30.9"/>
		<text transform="matrix(1 0 0 -1 -191.6748 -65.4814)" class="st0 st90" style="font-size:15.36px;">Nunca</text>
	</g>
	<rect x="-215.8" y="-35.3" class="st2" width="87" height="8.8"/>
	<g>
		<rect x="-3.7" y="-86.2" class="st22" width="110" height="30.9"/>
		<text transform="matrix(1 0 0 -1 9.9785 -65.4795)" class="st0 st90" style="font-size:15.36px;">Algunas veces</text>
	</g>
	<rect x="7.8" y="-35" class="st2" width="87" height="61.7"/>
	<rect x="121.5" y="-35" class="st2" width="87" height="120.1"/>
</symbol>
<g id="Layer_1">
	<path class="st13" d="M797.2,63.3c-7,6-12,16-21,22v-1c-2,5-8,5-11,8c-2,3,7,3,3,7c18.8-6.7,32.2-21.6,40.5-39.1
		c-0.8-2.1-2-4-3.8-5.9c-1.9-2-4-5.1-6.1-7C799.9,53.6,800.3,59.6,797.2,63.3z"/>
	<g>
		<path class="st14" d="M739.9,110.2c0.3,0,0.5-0.1,0.8-0.1C740.4,110.1,740.2,110.2,739.9,110.2z"/>
	</g>
	<g>
		<path class="st14" d="M739.2,110.3c0.2,0,0.4-0.1,0.7-0.1C739.7,110.2,739.4,110.3,739.2,110.3z"/>
	</g>
	<g>
		<path class="st14" d="M736.9,111.8c-0.4,0.8-1.1,2.4-0.7,3.3l4.4-5c-0.3,0.1-0.5,0.1-0.8,0.1c-0.2,0-0.4,0.1-0.7,0.1
			C738.3,110.5,737.5,110.8,736.9,111.8z"/>
	</g>
	<path class="st21" d="M734.1,99.2H621.9c-3.2,0-5.8-2.6-5.8-5.8V65.6c0-3.2,2.6-5.8,5.8-5.8h112.3c3.2,0,5.8,2.6,5.8,5.8v27.7
		C740,96.5,737.3,99.2,734.1,99.2z"/>
	<rect x="637.8" y="70" class="st22" width="81.9" height="28.3"/>
	<text transform="matrix(1 0 0 1 656.7838 87.3309)" class="st13 st90 st91">Listo</text>
	<rect x="32.2" y="72.9" class="st22" width="391.9" height="48.3"/>
	<text transform="matrix(1 0 0 1 32.1862 90.205)" class="st0 st90 st91">Instrucciones</text>
	<rect x="32.2" y="72.9" class="st22" width="391.9" height="48.3"/>
	<text transform="matrix(1 0 0 1 32.1862 90.205)" class="st0 st90 st91">Instrucciones</text>
	<rect x="34.9" y="28.9" class="st22" width="391.9" height="48.3"/>
	<text transform="matrix(1 0 0 1 34.8917 47.6347)" class="st0 st92 st91">HOla, Kaira POlet ARAYA</text>
	<rect x="31.4" y="116.4" class="st22" width="541.9" height="88.3"/>
	<text transform="matrix(1 0 0 1 31.4305 131.0448)"><tspan x="0" y="0" class="st0 st90 st93">He dejado fuera a otros compañeros/as en diferentes </tspan><tspan x="0" y="26.4" class="st0 st90 st93">actividades (juegos, trabajos en clases, etc.)</tspan></text>
	<circle class="st94" cx="687.4" cy="363.9" r="99.7"/>
	<path class="st7" d="M758.3,434.5c-0.6-3.1-1.6-6.2-3.3-8.8c-0.6-1.8-1.3-3.5-1.9-5.2c-0.5-1.4-1.1-2.9-1.6-4.3
		c-0.5-1.4-1-2.9-1.5-4.3c-4.9-11-3.9-22-3.9-33.6c0.2-2.3,0.4-4.6,0.7-6.9c0.6-4.6,1.3-9.2,1.9-13.8c0.3-2,0.5-4.1,0.8-6.1
		c0.9-2.3,1.4-4.6,1.5-7c0.5-11.8-8.7-23.6-22-23.6c-6,0-13-3-16,2c-4.5,5.5-6.5,11.5-8,17.6c-0.5,2-0.9,4.1-1.4,6.2
		c-1.4,3.8-2.2,7.6-2.4,11.4c-0.1,1.9-0.1,3.8,0,5.6c0.8,14.2,1.9,20.9,6.2,34.4c2.7,8.6,16.6,51.8,20.4,57
		C743.8,447.8,756.4,436.2,758.3,434.5z"/>
	<g>
		<g>
			<path class="st14" d="M588.4,376.1c0.1,0.3,0.1,0.5,0.2,0.8C588.5,376.6,588.4,376.4,588.4,376.1z"/>
		</g>
	</g>
	<g>
		<path class="st14" d="M588.2,375.4c0.1,0.2,0.1,0.4,0.2,0.7C588.3,375.9,588.3,375.7,588.2,375.4z"/>
	</g>
	<path class="st7" d="M638.4,363c1.1,5.8,5.6,5.5,9.6,7.6c1.4,0.5,2.9,1,4.3,1.4c2.9,0.9,5.8,1.9,8.4,3.6c1.9,1.1,3.6,2.2,4.9,3.5
		c2.5,2.5,3.2,5.5,0.6,8.9c-3.6,5.6-9.6,5.5-15.2,4.1c-1.9-0.5-3.7-1.1-5.5-1.8c-7.7-3.3-16.8-4.2-24.3-7.1
		c-1.9-0.7-3.6-1.6-5.2-2.6c-5-5.4-5.9-11.1-4.3-16.9c0.5-1.9,1.3-3.8,2.3-5.7c9-10.7,19.7-28.7,34.4-26.4c1.1,0.6,2.7,3,3.2,4.7
		c1.9,9.8-6.9,15.1-11.5,22C639.4,359.9,638.8,361.5,638.4,363z"/>
	<path class="st95" d="M635.3,378c-0.1,1.5-0.4,2.9-1,4.1s-1.3,2.5-2.1,3.7c-4.4,5.6-14,15.8-6.5,18.7c7.7,3.6,12-7.6,17.5-12.9
		c1-1.1,2-2.1,3-3.2c2.4-2.5,4.8-4.5,5.6-8.1c0.7-3.1,0-6.6-2-9c-2-2.4-4.9-3.8-7.8-4.8c-4.9-1.6-30.6-7.6-27.1,4.6
		c0.4,1.3,1.3,2.3,2.5,3c3.8,2.7,9.4,1.9,14.7,2.1C633.4,376.6,634.5,377.2,635.3,378z"/>
	<g>
		<g>
			<path class="st7" d="M739.6,297c0.1,0,0.2-0.1,0.3-0.1C739.8,297,739.7,297,739.6,297z"/>
		</g>
		<g>
			<path class="st7" d="M739.3,297.2c0.1,0,0.2-0.1,0.3-0.1C739.5,297.1,739.4,297.1,739.3,297.2z"/>
		</g>
		<g>
			<path class="st7" d="M738.5,298c-0.1,0.3-0.2,1.1,0.1,1.4l1.3-2.4c-0.1,0-0.2,0.1-0.3,0.1c-0.1,0-0.2,0.1-0.3,0.1
				C739,297.3,738.7,297.5,738.5,298z"/>
		</g>
		<path class="st7" d="M722.4,313.5l-3.8,1c-3.7,0.9-7.5-1.3-8.4-5l-2.9-11.3c-0.9-3.7,1.3-7.5,5-8.4l3.8-1c3.7-0.9,7.5,1.3,8.4,5
			l2.9,11.3C728.3,308.7,726.1,312.5,722.4,313.5z"/>
		
			<ellipse transform="matrix(0.9695 -0.2453 0.2453 0.9695 -54.2043 179.141)" class="st7" cx="692.1" cy="307.2" rx="6.9" ry="6.9"/>
		
			<ellipse transform="matrix(0.9695 -0.2453 0.2453 0.9695 -54.2043 179.141)" class="st7" cx="692.1" cy="307.2" rx="4.5" ry="4.5"/>
		
			<ellipse transform="matrix(0.9695 -0.2453 0.2453 0.9695 -49.1881 192.0083)" class="st7" cx="746.3" cy="293.5" rx="6.9" ry="6.9"/>
		
			<ellipse transform="matrix(0.9695 -0.2453 0.2453 0.9695 -49.1881 192.0083)" class="st7" cx="746.3" cy="293.5" rx="4.5" ry="4.5"/>
		<path class="st7" d="M745.2,287.5c-3.8-31.4-18-19.4-33.2-15.5c-15.2,3.8-25,17-21.8,29.5c0.7,2.8,3.3,13,4,15.8
			c3.1,12.4,23.8,17.9,33.2,15.5c8.3-2.1,25-17,21.8-29.5C748.5,300.5,745.5,290.4,745.2,287.5z"/>
		<path class="st7" d="M732.8,299.3c13.3-6.4,19.2-21.1,10.5-34.9c-0.8-1.2-1.8-2.3-2.8-3.4c-1-1.1-2.2-2.1-3.4-3
			c-8.6-6.2-20.8-5.5-30.3-2.3c-2.9,0.7-4.2,4-6.9,5.7c-1.2,1.3-1.9,2.8-2.5,4.2c-0.6,1.4-1,2.8-1.8,4c-1.1,4.3,1,9,0,13.3
			c12.9-1.9,17.4,13.5,27,19.5c1.2,0.8,2.9-0.7,5.1-1C729.4,300.9,731.1,300.3,732.8,299.3z"/>
		<path class="st7" d="M709.6,268.2c0.2-0.4,0-0.8-0.4-1c0,0,0,0,0,0c-9.9-3.7-20.9,1.4-24.6,11.3c-2.5,6.8-0.9,14.2,3.6,19.3
			c0.3,0.3,0.8,0.3,1.1,0C697.3,288.9,704.8,279.1,709.6,268.2z"/>
		<g>
			<path class="st96" d="M741.8,294.5c1.4,5.5,0.1,10.6-5.4,12c-5.5,1.4-10.1-2.2-11.5-7.7c-1.4-5.5,0.9-10.9,6.5-12.3
				S740.4,289,741.8,294.5z"/>
			<ellipse transform="matrix(0.9695 -0.2453 0.2453 0.9695 -50.466 188.9807)" class="st7" cx="733.5" cy="297.1" rx="9" ry="9"/>
			<g>
				
					<ellipse transform="matrix(0.9695 -0.2453 0.2453 0.9695 -51.5494 189.3969)" class="st7" cx="734.6" cy="301.7" rx="4.3" ry="4.3"/>
				
					<ellipse transform="matrix(0.9695 -0.2453 0.2453 0.9695 -51.5494 189.3969)" class="st7" cx="734.6" cy="301.7" rx="1.7" ry="1.7"/>
				
					<ellipse transform="matrix(0.9695 -0.2453 0.2453 0.9695 -51.1966 188.9738)" class="st7" cx="733.1" cy="300" rx="1.2" ry="1.2"/>
			</g>
		</g>
		<g>
			<path class="st96" d="M696.4,306c1.4,5.5,5,9.4,10.5,8s7.9-6.8,6.5-12.3s-6-9.1-11.5-7.7S695,300.5,696.4,306z"/>
			<ellipse transform="matrix(0.9695 -0.2453 0.2453 0.9695 -53.1086 182.2012)" class="st7" cx="704.9" cy="304.3" rx="9" ry="9"/>
			<ellipse transform="matrix(0.9695 -0.2453 0.2453 0.9695 -54.2178 182.6073)" class="st7" cx="706" cy="309" rx="4.3" ry="4.3"/>
			<ellipse transform="matrix(0.9695 -0.2453 0.2453 0.9695 -54.2178 182.6073)" class="st7" cx="706" cy="309" rx="1.7" ry="1.7"/>
			
				<ellipse transform="matrix(0.9695 -0.2453 0.2453 0.9695 -53.8598 182.1975)" class="st7" cx="704.5" cy="307.3" rx="1.2" ry="1.2"/>
		</g>
		<path class="st7" d="M714.8,326.6c0,0,3.7-4.8,9.4-6.2c5.7-1.4,11.3,1,11.3,1s-5.3,0.3-11,1.7
			C718.8,324.6,714.8,326.6,714.8,326.6z"/>
		<path class="st7" d="M694.5,282.9c0,0,7.9,1.4,11.9,2.8c5.5,1.9,15.6-0.2,15.6-0.2s-9.7-7.9-14.9-8.1S694.5,282.9,694.5,282.9z"/>
		<ellipse transform="matrix(0.9695 -0.2453 0.2453 0.9695 -55.9214 181.769)" class="st7" cx="701.8" cy="315.4" rx="1" ry="0.5"/>
		
			<ellipse transform="matrix(0.9695 -0.2453 0.2453 0.9695 -55.5555 182.7076)" class="st7" cx="705.7" cy="314.4" rx="1" ry="0.5"/>
		
			<ellipse transform="matrix(0.9695 -0.2453 0.2453 0.9695 -56.2078 182.4212)" class="st7" cx="704.3" cy="316.9" rx="1" ry="0.5"/>
		
			<ellipse transform="matrix(0.9695 -0.2453 0.2453 0.9695 -52.6404 190.1853)" class="st7" cx="737.2" cy="306.4" rx="1" ry="0.5"/>
		
			<ellipse transform="matrix(0.9695 -0.2453 0.2453 0.9695 -52.2745 191.1239)" class="st7" cx="741.2" cy="305.4" rx="1" ry="0.5"/>
		
			<ellipse transform="matrix(0.9695 -0.2453 0.2453 0.9695 -52.9268 190.8375)" class="st7" cx="739.7" cy="307.9" rx="1" ry="0.5"/>
		<path class="st97" d="M687.6,290.9l6.2,23l1.7-2.6l-1.8-14.4c0,0,1.2-9.9,5.2-12.8c4-2.9,12.8-5.7,12.8-5.7l-8.3-1.8L687.6,290.9z
			"/>
		<path class="st97" d="M743.1,275.7l4.1,21.5l-1.6,1.4l-5.2-13.5c0,0-5.7-8.1-10.7-8.8c-4.9-0.7-13.9,1.1-13.9,1.1l6.5-5.6
			L743.1,275.7z"/>
		<path class="st7" d="M727.1,291.4l12.1-0.1c1.7,0,3.1-1.4,3.1-3.1l0,0c0-1.7-1.4-3.1-3.1-3.1l-12.1,0.1c-1.7,0-3.1,1.4-3.1,3.1
			l0,0C724,290,725.4,291.4,727.1,291.4z"/>
	</g>
	<path class="st7" d="M654.8,350.7c-0.1,1.9-0.5,3.6-1.2,5.2c-0.7,1.6-1.6,3.1-2.6,4.6c-5.5,7-17.5,19.8-8.1,23.4
		c6.2,2.9,11-2.5,14.5-7c2-2.6,3.8-5.3,5.9-7.8c2.3-2.7,5.1-4.9,7.4-7.6c3-3.3,5.4-7.4,5.2-11.8c-0.3-4.7-3.6-8.8-7.7-11.2
		c-5.7-3.4-43.7-12.8-39.1,3.4c0.9,3,4.2,4.6,7,5.4c2.3,0.7,4.8,0.8,7.2,0.9c2.1,0.1,5.3-0.7,7.3,0
		C652.4,349,653.8,349.8,654.8,350.7z"/>
	<path class="st7" d="M761.8,348c-0.2,2.1-0.8,4.1-1.7,5.9c-0.9,1.8-2,3.5-3.3,5.1c-6.8,7.7-21.3,21.7-10.8,26.4
		c10.8,5.8,17.8-10,26.1-17.3c1.5-1.5,3-2.9,4.6-4.4c3.6-3.4,7.3-6.1,8.6-11.2c1.2-4.4,0.5-9.4-2.2-13.2c-2.6-3.6-6.7-5.9-10.9-7.5
		c-6.9-2.7-43.4-13.2-39.4,4.5c0.4,2,1.7,3.4,3.4,4.4c5.3,4.2,13.4,3.5,21,4.2C759.1,345.9,760.7,346.9,761.8,348z"/>
	<g>
		<g>
			<path class="st95" d="M794.9,308c0.1,0,0.2,0,0.3,0C795.1,307.9,795,307.9,794.9,308z"/>
		</g>
		<g>
			<path class="st95" d="M794.6,308c0.1,0,0.2,0,0.3,0C794.8,308,794.7,308,794.6,308z"/>
		</g>
		<g>
			<path class="st95" d="M793.7,308.5c-0.2,0.3-0.5,1-0.4,1.3l1.9-1.9c-0.1,0-0.2,0-0.3,0c-0.1,0-0.2,0-0.3,0
				C794.2,308,793.9,308.1,793.7,308.5z"/>
		</g>
		<path class="st95" d="M773.6,318.3l-3.9-0.2c-3.8-0.2-6.7-3.5-6.5-7.3l0.7-11.7c0.2-3.8,3.5-6.7,7.3-6.5l3.9,0.2
			c3.8,0.2,6.7,3.5,6.5,7.3l-0.7,11.7C780.7,315.7,777.4,318.6,773.6,318.3z"/>
		
			<ellipse transform="matrix(6.255972e-02 -0.998 0.998 6.255972e-02 397.3904 1029.2836)" class="st95" cx="746.6" cy="303.1" rx="6.9" ry="6.9"/>
		
			<ellipse transform="matrix(6.255972e-02 -0.998 0.998 6.255972e-02 397.3904 1029.2837)" class="st95" cx="746.6" cy="303.1" rx="4.5" ry="4.5"/>
		
			<ellipse transform="matrix(6.255972e-02 -0.998 0.998 6.255972e-02 446.1761 1088.2139)" class="st95" cx="802.4" cy="306.6" rx="6.9" ry="6.9"/>
		
			<ellipse transform="matrix(6.255972e-02 -0.998 0.998 6.255972e-02 446.1761 1088.2139)" class="st95" cx="802.4" cy="306.6" rx="4.5" ry="4.5"/>
		<path class="st95" d="M803.2,300.6c5.9-31-11.2-24-26.9-24.9c-15.6-1-29,8.6-29.8,21.4c-0.2,2.9-0.8,13.4-1,16.3
			c-0.8,12.8,17.2,24.3,26.9,24.9c8.5,0.5,29-8.6,29.8-21.4C802.3,314,802.6,303.4,803.2,300.6z"/>
		<path class="st95" d="M793.6,293.1c-0.6-0.7,0.8-2,0.8-2c4.1-0.4,4.4,6.4,8.6,4.6c1.4-0.6,0.9-3.3,1-5.4c1.3,4.4,2.8,1.1,5.3,0
			c0.4-2.2,0.7-4.1,0.8-5.2c1-15.3-11.6-25.6-26.9-26.5c-14.9-0.9-23.8,7.8-25.3,22.5c11.9-3.2,19.3,3,26.5,10.5
			C787.5,291.8,790.3,292.9,793.6,293.1z"/>
		<path class="st95" d="M775.1,271.3c0.3-0.3,0.2-0.8-0.1-1.1c0,0,0,0,0,0c-8.3-6.5-20.4-5.1-26.9,3.3c-4.5,5.8-5.2,13.3-2.5,19.5
			c0.2,0.4,0.7,0.6,1.1,0.3C757.1,287.2,767.2,280.3,775.1,271.3z"/>
		<g>
			<path class="st98" d="M797.8,306.2c-0.4,5.7-3.2,10.1-8.9,9.8c-5.7-0.4-9-5.2-8.6-10.9s4.2-10.1,9.9-9.7
				C795.9,295.7,798.2,300.5,797.8,306.2z"/>
			
				<ellipse transform="matrix(6.255972e-02 -0.998 0.998 6.255972e-02 434.1838 1074.5179)" class="st95" cx="789.1" cy="306.1" rx="9" ry="9"/>
			<g>
				
					<ellipse transform="matrix(6.255972e-02 -0.998 0.998 6.255972e-02 429.2116 1078.5931)" class="st95" cx="788.8" cy="310.8" rx="4.3" ry="4.3"/>
				
					<ellipse transform="matrix(6.255972e-02 -0.998 0.998 6.255972e-02 429.2116 1078.5931)" class="st95" cx="788.8" cy="310.8" rx="1.7" ry="1.7"/>
				
					<ellipse transform="matrix(6.255972e-02 -0.998 0.998 6.255972e-02 430.3299 1075.7535)" class="st95" cx="787.8" cy="308.8" rx="1.2" ry="1.2"/>
			</g>
		</g>
		<g>
			<path class="st98" d="M751,303.3c-0.4,5.7,1.9,10.5,7.6,10.8c5.7,0.4,9.6-4,9.9-9.7c0.4-5.7-2.9-10.5-8.6-10.9
				C754.2,293.1,751.4,297.6,751,303.3z"/>
			
				<ellipse transform="matrix(6.256051e-02 -0.998 0.998 6.256051e-02 408.4812 1043.4714)" class="st95" cx="759.7" cy="304.3" rx="9" ry="9"/>
			
				<ellipse transform="matrix(6.256051e-02 -0.998 0.998 6.256051e-02 403.3553 1047.5383)" class="st95" cx="759.3" cy="309.1" rx="4.3" ry="4.3"/>
			
				<ellipse transform="matrix(6.256051e-02 -0.998 0.998 6.256051e-02 403.3553 1047.5383)" class="st95" cx="759.3" cy="309.1" rx="1.7" ry="1.7"/>
			
				<ellipse transform="matrix(6.256051e-02 -0.998 0.998 6.256051e-02 404.5243 1044.76)" class="st95" cx="758.4" cy="307" rx="1.2" ry="1.2"/>
		</g>
		<path class="st95" d="M762.3,328.6c0,0,5-3.4,10.9-3s10.4,4.4,10.4,4.4s-5.1-1.3-11-1.7S762.3,328.6,762.3,328.6z"/>
		<path class="st95" d="M773.3,320.8L773.3,320.8c-2.3-0.1-4-2.1-3.8-4.4l0.9-14.8c0.1-2.3,2.1-4,4.4-3.8h0c2.3,0.1,4,2.1,3.8,4.4
			l-0.9,14.8C777.5,319.2,775.5,320.9,773.3,320.8z"/>
		<path class="st95" d="M772.6,318.3L772.6,318.3c-2.3-0.1-4-2.1-3.8-4.4l0.9-14.8c0.1-2.3,2.1-4,4.4-3.8l0,0c2.3,0.1,4,2.1,3.8,4.4
			l-0.9,14.8C776.8,316.7,774.9,318.5,772.6,318.3z"/>
		<path class="st95" d="M756.4,280.7c0,0,7.1,3.7,10.5,6.3c4.6,3.5,14.9,4.5,14.9,4.5s-6.8-10.5-11.7-12.3
			C765.2,277.5,756.4,280.7,756.4,280.7z"/>
		<path class="st95" d="M754.3,266.7c0,0,2.9,0.1,4.5,0.3c2.1,0.4,5.6-0.9,5.6-0.9s-3.9-2.3-5.8-2.1
			C756.6,264.2,754.3,266.7,754.3,266.7z"/>
		<path class="st95" d="M767.8,258.4c0,0-1,2.8-1.3,4.3c-0.4,2.1-2.9,4.9-2.9,4.9s-0.8-4.5,0.1-6.2
			C764.6,259.7,767.8,258.4,767.8,258.4z"/>
		
			<ellipse transform="matrix(6.255972e-02 -0.998 0.998 6.255972e-02 392.9368 1046.0935)" class="st95" cx="753.3" cy="313.9" rx="0.5" ry="1"/>
		
			<ellipse transform="matrix(6.255972e-02 -0.998 0.998 6.255972e-02 396.4955 1050.3922)" class="st95" cx="757.4" cy="314.1" rx="0.5" ry="1"/>
		
			<ellipse transform="matrix(6.255972e-02 -0.998 0.998 6.255972e-02 392.5668 1050.0222)" class="st95" cx="755.2" cy="316" rx="0.5" ry="1"/>
		
			<ellipse transform="matrix(6.255972e-02 -0.998 0.998 6.255972e-02 424.8469 1084.6389)" class="st95" cx="789.8" cy="316.2" rx="0.5" ry="1"/>
		
			<ellipse transform="matrix(6.255972e-02 -0.998 0.998 6.255972e-02 428.4056 1088.9376)" class="st95" cx="793.9" cy="316.4" rx="0.5" ry="1"/>
		
			<ellipse transform="matrix(6.255972e-02 -0.998 0.998 6.255972e-02 424.4768 1088.5676)" class="st95" cx="791.7" cy="318.3" rx="0.5" ry="1"/>
		<path class="st99" d="M747.3,286.2l-1.1,23.8l2.4-1.9l2.7-14.2c0,0,4.2-9.1,8.9-10.6c4.7-1.6,13.9-1.5,13.9-1.5l-7.4-4.3
			L747.3,286.2z"/>
		<path class="st99" d="M804.8,288.7l-2.7,21.7l-1.9,0.9l-0.9-14.5c0,0-3-9.5-7.5-11.6c-4.5-2.1-13.6-3.2-13.6-3.2l7.9-3.3
			L804.8,288.7z"/>
		<path class="st95" d="M784.8,298.7l11.6,3.6c1.6,0.5,3.4-0.4,3.9-2l0,0c0.5-1.6-0.4-3.4-2-3.9l-11.6-3.6c-1.6-0.5-3.4,0.4-3.9,2
			l0,0C782.3,296.5,783.2,298.2,784.8,298.7z"/>
		<path class="st95" d="M754.8,299.7l11.6-3.6c1.6-0.5,2.5-2.2,2.1-3.9v0c-0.5-1.6-2.2-2.5-3.9-2.1l-11.6,3.6
			c-1.6,0.5-2.5,2.2-2.1,3.9l0,0C751.4,299.3,753.1,300.2,754.8,299.7z"/>
	</g>
	<path class="st95" d="M738.8,379.1c1-10.8,2-20.8,7-30.6c0.8-1.5,1.7-2.9,2.7-4.1c3-3.6,6.9-5.8,12.4-5.4c1.8,0.1,3.8,0.5,6,1.3
		c27,11,22.5,40.5,11.9,61.8c-0.9,2.3-3,6.8-4.1,9c-5,10.8-13.9,22.1-21.7,27.8c-2.7,2-12.6,10.3-12.9,9.5
		c-0.6-1.7-0.9-20.3-0.7-22.2c0.4-3.3-0.6-15.8,0.1-25.1c0.2-2.3,0.3-4.7,0.3-7.1c0-2.4-0.2-4.8-0.7-7.1
		C738.8,384.2,738.7,381.5,738.8,379.1z"/>
	<path class="st95" d="M791.4,368.7c-0.6,1.8-1.5,3.3-2.6,4.6c-1.1,1.4-2.4,2.6-3.8,3.7c-7.3,5.2-22.3,14.2-14.3,20.2
		c5.2,4.5,11.3,0.7,15.8-2.7c2.6-1.9,5.1-4.1,7.9-5.9c3-1.9,6.2-3.4,9.2-5.2c3.7-2.3,7.2-5.6,8.2-9.9c1-4.6-1.1-9.4-4.3-12.8
		c-4.6-4.8-38.5-24.4-38.5-7.5c0,3.1,2.8,5.6,5.2,7.2c2.1,1.3,4.4,2.1,6.7,2.8c2,0.6,5.3,0.8,7,2
		C789.6,366.3,790.7,367.5,791.4,368.7z"/>
	<path class="st95" d="M736.9,343.7c-0.9,1.6-1.9,3.7-2.8,5.8c-1,2.2-1.9,4.5-2.8,6.6c-0.8,2.1-1.5,4.1-2.4,6.2
		c-4.1,10.2-9.1,20.1-12.9,30.8c-0.7,2.2-1.2,4.4-1.6,6.5c-2,10.6,0,19.3,11.4,19.3c4.6,0,6.6-5.4,7.9-12.8c0.3-1.9,0.6-3.8,0.9-5.9
		c1.3-11.6,5.7-22.2,10.3-32.7c0.9-2.1,1.8-4.2,2.7-6.3c2.3-3.6,3.5-7.4,4.3-11.2c0.4-1.9,0.7-3.8,1.1-5.6c0.2-2.4,0.2-3.4,1.2-5.4
		c-4,0-9,1-12.7,2.3C740,341.9,738.5,342.7,736.9,343.7z"/>
	<path class="st95" d="M764.8,312.5c-3,6.7-6,13.4-8.5,20.5c-0.7,2.2-1.2,4.4-1.6,6.5c-2,10.6,0,19.3,11.4,19.3
		c4.6,0,6.6-5.4,7.9-12.8c0.3-1.9,0.6-3.8,0.9-5.9c0.9-8.4,3.5-16.3,6.6-23.9C775.8,315.2,770.2,314,764.8,312.5z"/>
	<path class="st95" d="M651.2,373.4c0.9,1.2,1.9,2.2,3,3c1.1,0.8,2.4,1.4,3.7,2c6.7,2.4,20.3,6.1,15.4,12.4
		c-4.6,7.1-14.2-0.1-21.7-1.8c-1.4-0.4-2.8-0.8-4.2-1.1c-3.3-0.8-6.5-1.3-9-3.9c-2.2-2.3-3.4-5.6-3-8.8c0.4-3.1,2.1-5.8,4.1-8.2
		c3.3-3.9,22-22.6,25.4-10.5c0.4,1.3,0.1,2.6-0.6,3.8c-1.8,4.3-7,6.6-11.4,9.6C652.1,371.2,651.4,372.4,651.2,373.4z"/>
	<path class="st7" d="M812.1,347.6c0,5.4-5.6,10.1-13.9,12.7c-2.1,0.6-4.3,1.1-6.7,1.6c-10.8,1.4-16.8,12.4-27.8,12.4c-1,0-3-1-4-2
		c-6-12,5-25,13-33c5-4,12-7,18.8-5.8c2.4,0.3,4.6,0.8,6.7,1.4C806.5,337.4,812.1,342.2,812.1,347.6z"/>
	<path class="st7" d="M704.8,327.6c-15.1,10.7-30.7,24.8-32.2,44.5c-0.3,2.1-0.5,4.1-0.5,6.1c0,6,1.9,11.4,8.5,14.2
		c3.5,0.9,8.6-2.4,9.5-5.9c0.5-1.8,0.9-3.7,1.1-5.6c0.2-1.9,0.4-3.8,0.5-5.7c-1.5-18.4,18.7-25.9,24.3-40.5c0.1-2.8-1.7-9.3-6.6-7.9
		C707.9,326.7,706.3,326.9,704.8,327.6z"/>
</g>
<g id="Layer_2">
	<rect x="34.9" y="28.9" class="st22" width="391.9" height="48.3"/>
	<text transform="matrix(1 0 0 1 34.8917 47.6347)" class="st0 st92 st91">HOla, Kaira POlet ARAYA</text>
	<path class="st16" d="M685.5,405.6c-0.2-0.3,0.2-46.3,0-46.7c-0.6-1.1-0.7-2.4-1.1-3.6c-0.5-1.9-1.2-3.7-1.9-5.4
		c-9.4-22.7-34.6-35.2-58.8-28.3c-26.1,7.5-41.1,34.6-33.7,60.7c3.7,12.8,26.4,43.4,26.9,44.9c8.5-9.4,24.2-3.2,33.2-12
		C662.8,402.7,670.4,415.2,685.5,405.6z"/>
	<g>
		<defs>
			<path id="SVGID_378_" d="M788.3,365.1c0,55.1-44.7,99.7-99.7,99.7s-99.7-44.7-99.7-99.7c0-55.1,44.7-165.7,99.7-165.7
				S788.3,310,788.3,365.1z"/>
		</defs>
		<clipPath id="SVGID_2_">
			<use xlink:href="#SVGID_378_"  style="overflow:visible;"/>
		</clipPath>
		<g class="st12">
			<path class="st65" d="M674.2,433.2c-1.9-9.7,0.7-18.1-6.1-20.2c-4.1-1.2-11-0.7-15.7,0.2l-18.6,4.8c-5.7,1.5-14.5,5.4-17.8,9.6
				c-4.1,5.1,2.9,10.7,4.6,19.2l18.9,50.2c0.8,4.2,4,20.8,6.1,24.1c20-3.3,15.4-5.2,35.3-9.6c1.1-4.6-0.9-9.1-2-14.2L674.2,433.2z"
				/>
			<path class="st65" d="M619.8,425.5l3.1,2.6c4,0.5,5.9,10.7,4.3,22.7l-2.1,23.6l-1.5,27.5c-0.9,6.5-1.2,11.8-3.2,14.5
				c-1.6,2.3-4.7,3.1-6.5,2.9l-5.9-0.8c-1.5-0.2-4-1.4-4.9-3.3c-1.6-3.1-0.9-8.2,0.1-15.7c0,0,4.2-37.6,3.4-28.2
				c-0.8,9.4,1.6-15.4,3.7-28.2C612.4,430.5,615.8,425,619.8,425.5z"/>
			<path class="st65" d="M684.3,429c-1-1.7-1.9-3.3-2.8-4.7c-6.8-11-11.9-12.6-15.4-10.6l-2,1.4c-3.5,2-1.4,12.2,4.7,22.6l4.2,8.1
				C675.9,439.4,679.3,433.5,684.3,429z"/>
			<path class="st66" d="M645.8,418.5l-4.3,0.9c-4.3,0.8-8.4-1.9-9.3-6.2l-2.6-13.1c-0.8-4.3,1.9-8.4,6.2-9.3l4.3-0.9
				c4.3-0.8,8.4,1.9,9.3,6.2l2.6,13.1C652.9,413.4,650.1,417.6,645.8,418.5z"/>
			<polygon class="st67" points="648.2,441.2 643.1,415.9 653,419.3 			"/>
			<polygon class="st67" points="648.2,441.2 643.1,415.6 635.3,422.5 			"/>
			<polygon class="st68" points="650.3,418.4 643.3,416 638.7,421.9 643.4,427.8 647.9,427 			"/>
			<polygon class="st68" points="665.2,482.5 659.8,494.2 649.4,486.8 643.4,427.8 647.9,427 			"/>
			<path class="st13" d="M643.1,415.6l0.1,0.5c0,0-2,11.4-6.9,9c-4.9-2.4-5.4-7-5.4-7l0.9-4.5L643.1,415.6z"/>
			<path class="st13" d="M643.3,415.6l0.1,0.5c0,0,6.2,9.8,9.8,5.7s2.3-8.5,2.3-8.5l-2.5-3.8L643.3,415.6z"/>
			<g class="st69">
				<polygon class="st70" points="660.4,458.5 668.8,461.7 675.4,455.5 672.7,441.5 657.7,444.5 				"/>
				
					<rect x="656.8" y="437" transform="matrix(0.9809 -0.1944 0.1944 0.9809 -72.7046 137.5205)" class="st70" width="15.3" height="4.5"/>
			</g>
			<path class="st71" d="M676.8,449.1c0-4.6-0.2-9-0.3-13.3c-0.9-0.6-1.8-1.2-2.7-1.8c-6.6-5.2-9.5-13.4-10.1-21.7
				c-2.3-0.1-4.8,0-7,0.2c0.7,3.8,1.2,7.6,1.5,11.5c0.4,2.2-0.6,4.4-1.2,6.8c-0.7,2.1-2.6,3.9-4.7,4.9c-12.3,5.7-21.3-4.4-24.9-15.4
				c-3.4,1.4-4.4,1.6-6.8,3.6c2.5,6,2.6,16-0.7,23.3c10.6,24.8,19.8,49.4,18.2,76.8c16.2-3,32.3-7.1,48.4-10.8
				C679.9,492.5,676.5,471.5,676.8,449.1z"/>
		</g>
	</g>
	
		<ellipse transform="matrix(0.9614 -0.275 0.275 0.9614 -81.4901 180.8713)" class="st14" cx="604.3" cy="381.1" rx="8.4" ry="8.4"/>
	
		<ellipse transform="matrix(0.9614 -0.275 0.275 0.9614 -81.4901 180.8713)" class="st66" cx="604.3" cy="381.1" rx="5.5" ry="5.5"/>
	
		<ellipse transform="matrix(0.9614 -0.275 0.275 0.9614 -73.7812 198.2331)" class="st14" cx="670.1" cy="362.3" rx="8.4" ry="8.4"/>
	
		<ellipse transform="matrix(0.9614 -0.275 0.275 0.9614 -73.7812 198.2331)" class="st66" cx="670.1" cy="362.3" rx="5.5" ry="5.5"/>
	<path class="st14" d="M668.5,355c-4.3-15.1-22.8-23.1-41.2-17.8s-29.9,21.8-25.6,36.9c1,3.4,4.5,15.8,5.5,19.2
		c4.3,15.1,29.8,21,41.2,17.8c10.1-2.9,29.9-21.8,25.6-36.9C673.1,370.8,669.5,358.4,668.5,355z"/>
	<path class="st248" d="M630.8,394.2c0.7,2.4,3.2,3.8,5.6,3.1s3.8-3.2,3.1-5.6c-0.7-2.4-7.3-9.1-7.3-9.1S630.1,391.8,630.8,394.2z"
		/>
	<path class="st16" d="M622.7,337c0.2-0.5-0.1-1-0.5-1.2c0,0,0,0,0,0c-12.3-4.1-25.6,2.5-29.7,14.8c-2.8,8.5-0.6,17.4,5.2,23.5
		c0.4,0.4,1,0.4,1.4,0C608.4,362.7,617.2,350.5,622.7,337z"/>
	<path class="st16" d="M660,336.5c0.5-0.2,0.7-0.8,0.5-1.2c0,0,0,0,0,0c-5.8-11.6-19.9-16.3-31.5-10.5c-8,4-12.7,11.9-13,20.3
		c0,0.5,0.5,1,1,0.9C631.7,344.5,646.5,342.1,660,336.5z"/>
	<path class="st16" d="M670.3,355.9c0.3,0.1,0.7-0.2,0.9-0.6c0,0,0,0,0,0c4-12.3-7.1-24.7-15.6-29.7c-5.2-3.1-21.1-6.6-25.9-0.4
		c-0.3,0.4,16.2,11.4,16.5,11.7C653.4,344.7,661.2,352,670.3,355.9z"/>
	<g>
		<path class="st72" d="M664.9,364.2c1.9,6.7,0.5,13-6.2,14.9c-6.7,1.9-12.5-2.3-14.4-9s0.7-13.4,7.4-15.3
			C658.4,352.9,662.9,357.5,664.9,364.2z"/>
		<ellipse transform="matrix(0.9614 -0.275 0.275 0.9614 -75.879 194.2302)" class="st13" cx="654.8" cy="367.7" rx="11" ry="11"/>
		
			<ellipse transform="matrix(0.9614 -0.275 0.275 0.9614 -74.8132 195.1816)" class="st0" cx="658.7" cy="364.4" rx="5.3" ry="5.3"/>
		<ellipse transform="matrix(0.9614 -0.275 0.275 0.9614 -74.8132 195.1816)" cx="658.7" cy="364.4" rx="2" ry="2"/>
		
			<ellipse transform="matrix(0.9614 -0.275 0.275 0.9614 -74.3554 194.5777)" class="st73" cx="656.8" cy="362.5" rx="1.5" ry="1.5"/>
		<path class="st16" d="M661.4,361.8l-14.8,1.3c-2.1,0.2-3.9-1.4-4.1-3.4l0,0c-0.2-2.1,1.4-3.9,3.4-4.1l14.8-1.3
			c2.1-0.2,3.9,1.4,4.1,3.4l0,0C665,359.8,663.5,361.6,661.4,361.8z"/>
	</g>
	<g>
		<path class="st72" d="M609.6,380c1.9,6.7,6.5,11.3,13.2,9.4c6.7-1.9,9.4-8.6,7.4-15.3c-1.9-6.7-7.7-11-14.4-9
			C609.1,367,607.7,373.3,609.6,380z"/>
		<ellipse transform="matrix(0.9614 -0.275 0.275 0.9614 -79.9473 185.0675)" class="st13" cx="620.1" cy="377.7" rx="11" ry="11"/>
		<path class="st16" d="M611.2,379.1l10.4-10.6c1.5-1.5,1.4-3.9,0-5.4l0,0c-1.5-1.5-3.9-1.4-5.4,0l-10.4,10.6
			c-1.5,1.5-1.4,3.9,0,5.4v0C607.3,380.6,609.7,380.5,611.2,379.1z"/>
		<ellipse transform="matrix(0.9614 -0.275 0.275 0.9614 -78.8115 186.2915)" class="st0" cx="625" cy="374.2" rx="5.3" ry="5.3"/>
		<ellipse transform="matrix(0.9614 -0.275 0.275 0.9614 -78.8115 186.2915)" cx="625" cy="374.2" rx="2" ry="2"/>
		
			<ellipse transform="matrix(0.9614 -0.275 0.275 0.9614 -78.3456 185.7057)" class="st73" cx="623.1" cy="372.3" rx="1.5" ry="1.5"/>
		<path class="st248" d="M619.9,383.3c-4.5-0.3-2.6,3.2-5.5,1.4c-1.1-1-2.2-1-3.2-0.5c2.6,3.6,7.3,5.3,11.8,4
			c4.5-1.3,7.6-5.3,7.9-9.7C627.5,377.3,624.4,383.6,619.9,383.3z"/>
	</g>
	<path class="st75" d="M632.6,405.6c0,0,4.8-5.7,11.8-7.2s13.7,1.7,13.7,1.7s-6.5,0.1-13.5,1.6C637.6,403.3,632.6,405.6,632.6,405.6
		z"/>
	<path class="st66" d="M640.9,385.6L640.9,385.6c-1.7,0.5-3.4-0.5-3.9-2.2l-3.2-11c-0.5-1.7,0.5-3.4,2.2-3.9l0,0
		c1.7-0.5,3.4,0.5,3.9,2.2l3.2,11C643.6,383.3,642.6,385.1,640.9,385.6z"/>
	<path class="st14" d="M639.8,383.3L639.8,383.3c-1.7,0.5-3.4-0.5-3.9-2.2l-3.2-11c-0.5-1.7,0.5-3.4,2.2-3.9h0
		c1.7-0.5,3.4,0.5,3.9,2.2l3.2,11C642.4,381,641.4,382.8,639.8,383.3z"/>
	<path class="st16" d="M598.5,349.6l4.8,16.7l37.7-10.8l-2.1-12.9l5.8,11.8c0,0,5.9-0.9,10.1-2.1c3.5-1,13.4,1.9,13.4,1.9l-9.2-25
		l-49.9,6.2L598.5,349.6z"/>
	<g class="st52">
		<g>
			<path class="st14" d="M623.6,326.3c6.5-1.2,12.5-2.4,19.2-1.8c0.6,0.1,1.6-0.9,0.6-0.9c-6.9-0.6-12.9,0.6-19.6,1.8
				C623,325.5,622.6,326.4,623.6,326.3L623.6,326.3z"/>
		</g>
	</g>
	<path class="st248" d="M661.5,370.6c-4.3-2-4.7,2.3-7.2,2.8c-1,0.2-2.2-2.5-3.4-0.8c-1.7,2.5-2.3,2.4-4.3,2.4c2.7,3,7,4.4,11.2,3.2
		c4.7-1.3,7.8-5.6,8-10.2c-0.8-0.1-1.8-0.5-2.3-0.1C662.5,368.6,663.2,371.4,661.5,370.6z"/>
	<path class="st248" d="M630.8,394.2c0.7,2.4,3.2,3.8,5.6,3.1s3.8-3.2,3.1-5.6c-0.7-2.4-7.3-9.1-7.3-9.1S630.1,391.8,630.8,394.2z"
		/>
	<path class="st248" d="M619.9,383.3c-4.5-0.3-2.6,3.2-5.5,1.4c-1.1-1-2.2-1-3.2-0.5c2.6,3.6,7.3,5.3,11.8,4
		c4.5-1.3,7.6-5.3,7.9-9.7C627.5,377.3,624.4,383.6,619.9,383.3z"/>
	<path class="st248" d="M661.5,370.6c-4.3-2-4.7,2.3-7.2,2.8c-1,0.2-2.2-2.5-3.4-0.8c-1.7,2.5-2.3,2.4-4.3,2.4c2.7,3,7,4.4,11.2,3.2
		c4.7-1.3,7.8-5.6,8-10.2c-0.8-0.1-1.8-0.5-2.3-0.1C662.5,368.6,663.2,371.4,661.5,370.6z"/>
	<g>
		<path class="st14" d="M698.8,376c0,2.7-1.8,4.9-4,4.9c-2.2,0-4-2.2-4-4.9s-0.9-4.9,4-4.9C697,371.1,698.8,373.3,698.8,376z"/>
		<path class="st65" d="M671.9,427.8c-0.3,4,3.1,8.9,8.9,9.7c0.9,0.1,1.8,0.2,2.8,0.1c0.9-0.1,1.9-0.3,2.8-0.7
			c0.6-0.2,1.2-0.5,1.8-0.8c2.4-1.1,4.5-2.5,6.2-3.9c7.2-6.5,8.1-15,9-23.4c0-3.2-4.3-14.2-7.2-13.6c-7.5,1.5-12.5,12.9-17.6,22.8
			c-0.2,0.4-0.5,0.9-0.7,1.3c-1.2,2.8-3.7,4.8-4.8,7.2C672.7,427,672.3,427.4,671.9,427.8z"/>
		<g>
			<path class="st65" d="M679.7,402.3c-0.2,1.8-1.4,3.4-1.1,4.8c0,0.6,0,1.2,0,1.7c0.1,2.3,0.2,4.7,0.3,7.2c0,0.7,0.1,1.3,0.1,2
				c0.2,4.6,0.5,9.1,6,12.4c0.6,0.2,1.4,0.2,2.1,0.1c3.1-0.4,7.1-2.8,8.5-5.2c1.6-3.6,3.2-8,4.4-12.4c0.2-0.7,0.4-1.4,0.6-2.2
				c1.1-4.1,1.6-10.7-5.1-12.1c-0.7-0.2-1.5-0.4-2.4-0.6c-4.1-0.8-8.8-0.6-11.9,2C680.3,401.1,680.2,401.2,679.7,402.3z"/>
			<path class="st13" d="M680.2,401.5c-0.5,0.7-0.9,1.4-1.2,2.1c-0.3,0.6-0.5,1.2-0.6,1.8c-0.2,0.6-0.3,1.2-0.4,1.8
				c0.2,2.1,0.5,4.2,0.7,6.3c0.1,0.7,0.1,1.4,0.2,2.1c-0.2,4.1-0.1,8.9-4,12.2c5.4-2.6,5.8-7.5,5.8-11.6c0-0.7-0.1-1.5-0.2-2.2
				c-0.3-2.2-0.7-4.5-0.9-6.6c0-0.7,0-1.4,0.1-2.2c0.1-0.7,0.1-1.4,0.3-2.1C680.1,402.3,680.2,401.7,680.2,401.5z"/>
			<path class="st13" d="M680,401.9c-0.4-1.6,0.5-7.7,0.8-8.2c4,1.6,11.3,3.5,17,2.1c-0.3,1.9,0.6,6.6,0.2,7.3
				C692.1,403.8,685.6,403.2,680,401.9z"/>
			<g>
				<path class="st14" d="M686.5,373.8c-1.6,0.7-2.3,2.5-2.9,4.2c-1,3-1.9,6-2.2,9.2s0,6.4,1.5,9.2l12.3,0.7c2-0.3,3.6-2,4.3-3.9
					c0.8-2.1,0.8-4.5,0.3-6.8s-1.4-4.4-2.3-6.5L686.5,373.8z"/>
				<g>
					<path class="st14" d="M685.9,373.7c-3,2.1-3.8,6.2-4.6,9.6c-1.1,4.5-1.1,8.8,0.8,13.1c0,0.1,0.2,0.1,0.3,0.2
						c5.4,0.3,14.5,3.1,17.5-3c2.1-4.3,0.8-11.9-3.1-14.6c-3-2.1-6.5-3.7-9.7-5.5c-0.4-0.2-1.7,0.4-1.4,0.5c2.9,1.7,5.9,3.3,8.8,5
						c2.5,1.4,3.1,3,4,5.9c1,3.6,1.6,10.5-3.2,11.7c-1.4,0.4-3.6-0.2-5-0.3c-1.7-0.1-4.5,0.3-6.1-0.4c-5.4-2.3-1.6-19.2,2.7-22.2
						C687.7,373.4,686.3,373.5,685.9,373.7z"/>
				</g>
			</g>
		</g>
		<g>
			<path class="st14" d="M691.7,372.8c0.1-4.7,0.4-9.3,0.8-14c0.2-1.7,0.2-3.7-1.1-4.8c-1.3-1.1-3.5-0.5-4.7,0.8
				c-1.2,1.3-1.6,3.1-1.9,4.8c-1.7,8.6-2.5,17.9,1.4,25.8"/>
			<g>
				<path class="st66" d="M692.4,372.6c0.1-2.9,4.1-24.5-5.2-18.7c-4,2.5-4,10-4.4,14c-0.5,6.1,0.1,12,2.6,17.7
					c0.2,0.4,1.6,0,1.5-0.4c-3.5-7.7-3.2-15.9-1.7-24.1c0.2-1,0.3-3.3,1-4.2c4.6-2.3,6.4-1.6,5.6,2c-0.1,1.2-0.2,2.3-0.3,3.5
					c-0.3,3.5-0.4,7-0.5,10.6C690.9,373.3,692.4,373.1,692.4,372.6L692.4,372.6z"/>
			</g>
		</g>
		<g>
			<path class="st14" d="M691.7,371.5c-0.6,3.3-0.3,6.7,0.8,9.9c0.3,0.8,0.6,1.6,1.2,2.2c0.6,0.6,1.5,0.9,2.3,0.6
				c0.7-0.3,1.2-1,1.5-1.7c1.2-2.8,0.9-6,0.5-9c-0.1-0.4-0.1-0.9-0.4-1.3c-0.2-0.4-0.6-0.7-1-0.9
				C694.8,370.4,693.3,370.4,691.7,371.5c1.7-0.8,3.1-1,4.9-0.5c0.6,0.2,1.2,0.4,1.8,0.4c0.7,0,1.3-0.2,2-0.2
				c1.3,0.1,2.2,1.3,2.8,2.5c1,2,1.6,4.4,1,6.6c-0.3,1.1-0.9,2.1-1.9,2.6c-1.1,0.5-2.2,0.4-3.1-0.4c-0.9-0.7-0.6-0.4-1.1-1.4"/>
			<g>
				<path class="st66" d="M690.9,371.5c-0.5,3.5-0.8,9.6,2,12.3c1.5,1.5,3.7,1.1,4.8-0.6c1.1-1.7,1.3-4.2,1.2-6.2
					c0-1.6,0-3.7-0.8-5.1c-1.5-2.5-4.9-2-7-0.7c-0.8,0.5,0.2,1,0.8,0.7c2.2-1.1,3.8-0.2,6.1-0.1c2.2,0.1,3.3,0.1,4.4,2.2
					c0.8,1.5,1.3,3.3,1.2,5.1c-0.1,0.7-0.2,2.3-0.9,2.8c-1,0.1-2,0.1-3,0.2c-0.5-0.3-0.8-0.7-0.9-1.2c-0.3-0.6-1.8-0.2-1.5,0.4
					c0.9,2,3.1,2.9,5.1,2.1c2.3-0.9,2.9-3.6,2.7-5.8c-0.2-2.5-1.5-6.4-4.4-6.9c-3.1-0.5-6.5-1-9.4,0.4c0.3,0.2,0.5,0.5,0.8,0.7
					c2.2-1.4,4.2-0.2,4.9,1.8c0.3,0.9,0.4,2.7,0.4,3.5c0,0.8,0,1.5-0.1,2.3c0,0.5-0.1,0.9-0.2,1.3c0.1,1.5-0.6,2-1.9,1.7
					c-1.3,0.5-2,0.1-2.1-1.3c-0.1-0.3-0.2-0.6-0.3-0.9c-0.3-0.9-0.4-1.8-0.6-2.7c-0.3-2.1-0.2-4.1,0.1-6.2
					C692.5,370.7,691,370.9,690.9,371.5L690.9,371.5z"/>
			</g>
		</g>
		<g>
			<path class="st14" d="M685,395.8c0-0.9,1-1.5,1.8-2c2-1.1,3.8-2.8,5-4.7c1.2-1.8,1.9-4.3,0.4-5.9c-1.1-1.2-3.1-1.3-4.6-0.5
				c-1.5,0.7-2.6,2.1-3.6,3.4"/>
			<g>
				<path class="st66" d="M685.8,395.7c0.3-1.4,3.1-2.6,4.1-3.6c0.9-0.8,1.7-1.7,2.4-2.7c1.1-1.6,2.2-4,1.1-5.9
					c-2.6-4.4-8.1,0.3-10,2.6c-0.4,0.4,1.1,0.3,1.4,0c0.6-0.8,1.3-1.8,2.1-2.4c2-1.5,4.6-1.5,5.3,0.9c0.6,1.9-0.6,4.1-1.7,5.5
					c-1.3,1.6-2.7,2.6-4.4,3.8c-0.9,0.6-1.5,1-1.8,2.1C684.2,396.3,685.7,396.1,685.8,395.7L685.8,395.7z"/>
			</g>
		</g>
	</g>
	<g>
		<g>
			<path class="st66" d="M692,389.6c-1.1-2.2-3.4-3.5-5.8-3.4c-0.9,0-1.1,1.1-0.1,1.1c1.8-0.1,3.7,1.1,4.4,2.7
				C690.8,390.7,692.3,390.3,692,389.6L692,389.6z"/>
		</g>
	</g>
	
		<use xlink:href="#barras"  width="433.6" height="172.4" x="-216.8" y="-86.2" transform="matrix(1 0 0 -1 289.8234 368.5386)" style="overflow:visible;"/>
</g>
</svg>
