<?xml version="1.0" encoding="utf-8"?>
<!-- Generator: Adobe Illustrator 21.1.0, SVG Export Plug-In . SVG Version: 6.00 Build 0)  -->
<svg version="1.1" xmlns="http://www.w3.org/2000/svg" xmlns:xlink="http://www.w3.org/1999/xlink" x="0px" y="0px"
	 viewBox="0 0 841.9 595.3" style="enable-background:new 0 0 841.9 595.3;" xml:space="preserve">
<style type="text/css">
	.st0{fill:#F2C85F;}
	.st1{fill:#F2D3AD;}
	.st2{fill:#674C91;}
	.st3{fill:#DCFFC5;}
	.st4{fill:#8BAA77;}
	.st5{clip-path:url(#SVGID_2_);fill:#F1F3F7;}
	.st6{opacity:0.4;clip-path:url(#SVGID_2_);fill:#DCDDE0;}
	.st7{clip-path:url(#SVGID_2_);fill:#0076B7;}
	.st8{clip-path:url(#SVGID_2_);fill:#FFFFFF;}
	.st9{clip-path:url(#SVGID_2_);}
	.st10{fill:#FFFFFF;}
	.st11{fill:#F7CFA2;}
	.st12{fill:#ECB8FF;}
	.st13{fill:#393D47;}
	.st14{fill:#E86767;}
	.st15{opacity:0.1;fill:#3C2813;}
	.st16{fill:#EEEBE7;}
	.st17{fill:#3C2813;}
	.st18{fill:#795ACC;}
	.st19{fill:none;}
	.st20{fill:#601515;}
	.st21{clip-path:url(#SVGID_6_);fill:#F7EFDF;}
	.st22{fill:#3EBA50;}
	.st23{display:none;opacity:0.3;}
	.st24{fill:#F7EFDF;}
	.st25{fill:#4E9FA8;}
	.st26{fill:none;stroke:#231F20;stroke-width:2;stroke-miterlimit:10;}
	.st27{fill:#231F20;}
	.st28{fill:none;stroke:#674C91;stroke-miterlimit:10;}
	.st29{fill:#3FBA51;}
	.st30{fill:#601515;stroke:#601515;stroke-miterlimit:10;}
	.st31{fill:none;stroke:#601515;stroke-miterlimit:10;}
	.st32{fill:none;stroke:#FFFFFF;stroke-miterlimit:10;}
	.st33{fill:url(#SVGID_9_);}
	.st34{fill:#601515;stroke:#8C8779;stroke-width:6;stroke-miterlimit:10;}
	.st35{fill:url(#SVGID_10_);}
	.st36{fill:none;stroke:#4E9FA8;stroke-width:12;stroke-miterlimit:10;}
	.st37{fill:#E0EA18;}
	.st38{clip-path:url(#SVGID_12_);fill:#F7EFDF;}
	.st39{fill:url(#SVGID_13_);}
	.st40{fill:url(#SVGID_14_);}
	.st41{fill:#EFEA35;}
	.st42{fill:url(#SVGID_15_);}
	.st43{fill:url(#SVGID_16_);}
	.st44{fill:url(#SVGID_17_);}
	.st45{fill:url(#SVGID_18_);}
	.st46{fill:url(#SVGID_19_);}
	.st47{fill:#C1C1B8;}
	.st48{fill:#9B9B97;}
	.st49{fill:#D8D8D2;}
	.st50{opacity:0.4;}
	.st51{opacity:0.6;}
	.st52{fill:#CEBABA;}
	.st53{fill:#EAEAE5;}
	.st54{fill:url(#SVGID_20_);}
	.st55{fill:url(#SVGID_21_);}
	.st56{fill:url(#SVGID_22_);}
	.st57{fill:url(#SVGID_23_);}
	.st58{fill:url(#SVGID_24_);}
	.st59{fill:url(#SVGID_25_);}
	.st60{fill:url(#SVGID_26_);}
	.st61{fill:url(#SVGID_27_);}
	.st62{fill:url(#SVGID_28_);}
	.st63{fill:#6BA8B2;}
	.st64{fill:#F1F3F7;}
	.st65{fill:#F0BA7A;}
	.st66{opacity:0.4;fill:#DCDDE0;}
	.st67{fill:#0076B7;}
	.st68{opacity:0.3;}
	.st69{fill:#DCDDE0;}
	.st70{fill:#004868;}
	.st71{opacity:0.1;fill:#601515;}
	.st72{fill:#F9F9F9;}
	.st73{fill:#24272D;}
	.st74{fill:#EA6D50;}
	.st75{clip-path:url(#SVGID_30_);fill:#F0BA7A;}
	.st76{clip-path:url(#SVGID_30_);fill:#F1F3F7;}
	.st77{opacity:0.4;clip-path:url(#SVGID_30_);fill:#DCDDE0;}
	.st78{clip-path:url(#SVGID_30_);fill:#0076B7;}
	.st79{clip-path:url(#SVGID_30_);fill:#FFFFFF;}
	.st80{clip-path:url(#SVGID_30_);}
	.st81{opacity:0.3;fill:#601515;}
	.st82{fill:#5B1010;}
	.st83{clip-path:url(#SVGID_32_);fill:#F1F3F7;}
	.st84{clip-path:url(#SVGID_32_);fill:#F0BA7A;}
	.st85{opacity:0.4;clip-path:url(#SVGID_32_);fill:#DCDDE0;}
	.st86{clip-path:url(#SVGID_32_);fill:#0076B7;}
	.st87{clip-path:url(#SVGID_32_);fill:#FFFFFF;}
	.st88{clip-path:url(#SVGID_32_);}
	.st89{fill:#1F74C9;}
	.st90{fill:#595959;}
	.st91{opacity:0.1;fill:#8BAA77;}
	.st92{opacity:0.3;fill:#8BAA77;}
	.st93{opacity:0.1;fill:#595959;}
	.st94{opacity:0.3;fill:#595959;}
	.st95{fill:#9E921E;}
	.st96{clip-path:url(#SVGID_34_);fill:#F0BA7A;}
	.st97{clip-path:url(#SVGID_34_);fill:#F1F3F7;}
	.st98{clip-path:url(#SVGID_34_);}
	.st99{clip-path:url(#SVGID_34_);fill:#393D47;}
	.st100{clip-path:url(#SVGID_34_);fill:#FFFFFF;}
	.st101{opacity:0.4;clip-path:url(#SVGID_34_);fill:#DCDDE0;}
	.st102{clip-path:url(#SVGID_34_);fill:#0076B7;}
	.st103{fill:#B72C34;}
	.st104{clip-path:url(#SVGID_36_);fill:#F1F3F7;}
	.st105{clip-path:url(#SVGID_36_);}
	.st106{clip-path:url(#SVGID_38_);fill:#F1F3F7;}
	.st107{opacity:0.4;clip-path:url(#SVGID_38_);fill:#DCDDE0;}
	.st108{clip-path:url(#SVGID_38_);fill:#0076B7;}
	.st109{clip-path:url(#SVGID_38_);fill:#FFFFFF;}
	.st110{clip-path:url(#SVGID_38_);}
	.st111{fill:url(#SVGID_39_);}
	.st112{fill:url(#SVGID_40_);}
	.st113{fill:url(#SVGID_41_);}
	.st114{fill:url(#SVGID_42_);}
	.st115{fill:#A52323;}
	.st116{clip-path:url(#SVGID_44_);fill:#F1F3F7;}
	.st117{opacity:0.4;clip-path:url(#SVGID_44_);fill:#DCDDE0;}
	.st118{clip-path:url(#SVGID_44_);fill:#0076B7;}
	.st119{clip-path:url(#SVGID_44_);fill:#FFFFFF;}
	.st120{clip-path:url(#SVGID_44_);}
	.st121{fill:#023142;}
	.st122{clip-path:url(#SVGID_46_);fill:#F7CFA2;}
	.st123{clip-path:url(#SVGID_46_);}
	.st124{opacity:0.3;fill:#E57257;}
	.st125{opacity:0.2;}
	.st126{fill:#656D60;}
	.st127{clip-path:url(#SVGID_48_);fill:#F0BA7A;}
	.st128{clip-path:url(#SVGID_48_);fill:#F1F3F7;}
	.st129{opacity:0.4;clip-path:url(#SVGID_48_);fill:#DCDDE0;}
	.st130{clip-path:url(#SVGID_48_);fill:#0076B7;}
	.st131{clip-path:url(#SVGID_48_);fill:#FFFFFF;}
	.st132{clip-path:url(#SVGID_48_);}
	.st133{clip-path:url(#SVGID_50_);fill:#F1F3F7;}
	.st134{opacity:0.4;clip-path:url(#SVGID_50_);fill:#DCDDE0;}
	.st135{clip-path:url(#SVGID_50_);fill:#0076B7;}
	.st136{clip-path:url(#SVGID_50_);fill:#FFFFFF;}
	.st137{clip-path:url(#SVGID_50_);}
	.st138{clip-path:url(#SVGID_52_);fill:#F1F3F7;}
	.st139{opacity:0.4;clip-path:url(#SVGID_52_);fill:#DCDDE0;}
	.st140{clip-path:url(#SVGID_52_);fill:#0076B7;}
	.st141{clip-path:url(#SVGID_52_);fill:#FFFFFF;}
	.st142{clip-path:url(#SVGID_52_);}
	.st143{fill:#9E9E9E;}
	.st144{fill:#878787;}
	.st145{fill:url(#SVGID_53_);}
	.st146{fill:#CE6117;}
	.st147{fill:url(#SVGID_54_);}
	.st148{fill:#EFE91B;}
	.st149{clip-path:url(#SVGID_56_);fill:#F0BA7A;}
	.st150{clip-path:url(#SVGID_56_);fill:#F1F3F7;}
	.st151{opacity:0.4;clip-path:url(#SVGID_56_);fill:#DCDDE0;}
	.st152{clip-path:url(#SVGID_56_);fill:#0076B7;}
	.st153{clip-path:url(#SVGID_56_);fill:#FFFFFF;}
	.st154{clip-path:url(#SVGID_56_);}
	.st155{fill:#B27E49;}
	.st156{clip-path:url(#SVGID_58_);fill:#F1F3F7;}
	.st157{opacity:0.4;clip-path:url(#SVGID_58_);fill:#DCDDE0;}
	.st158{clip-path:url(#SVGID_58_);fill:#0076B7;}
	.st159{clip-path:url(#SVGID_58_);fill:#FFFFFF;}
	.st160{clip-path:url(#SVGID_58_);}
	.st161{fill:#8454D1;}
	.st162{clip-path:url(#SVGID_60_);fill:#393D47;}
	.st163{clip-path:url(#SVGID_60_);fill:#F0BA7A;}
	.st164{clip-path:url(#SVGID_60_);fill:#F1F3F7;}
	.st165{clip-path:url(#SVGID_60_);fill:#0076B7;}
	.st166{clip-path:url(#SVGID_60_);fill:#004868;}
	.st167{opacity:0.4;clip-path:url(#SVGID_60_);fill:#DCDDE0;}
	.st168{clip-path:url(#SVGID_60_);fill:#FFFFFF;}
	.st169{clip-path:url(#SVGID_60_);}
	.st170{fill:none;stroke:#EA6D50;stroke-width:2;stroke-miterlimit:10;}
	.st171{fill:url(#SVGID_61_);}
	.st172{fill:#777777;}
	.st173{fill:#A85848;}
	.st174{fill:#E85646;}
	.st175{fill:#EA4E39;}
	.st176{clip-path:url(#SVGID_63_);fill:#F1F3F7;}
	.st177{clip-path:url(#SVGID_63_);}
	.st178{fill:#B23C18;}
	.st179{fill:#6B2A05;}
	.st180{fill:#B23C18;stroke:#6B2A05;stroke-miterlimit:10;}
	.st181{fill:#DDAA78;}
	.st182{fill:#211205;}
	.st183{fill:none;stroke:#6B2A05;stroke-width:0.729;stroke-miterlimit:10;}
	.st184{fill:#B23C18;stroke:#6B2A05;stroke-width:0.729;stroke-miterlimit:10;}
	.st185{fill:#BBE8F2;}
	.st186{opacity:0.3;fill:#F2F8F9;}
	.st187{opacity:0.2;fill:#601515;}
	.st188{fill:#FFFF00;}
	.st189{fill:#594EEA;}
	.st190{fill:#FF0B0B;}
	.st191{fill:none;stroke:#3FBA51;stroke-width:8;stroke-miterlimit:10;}
	.st192{fill:none;stroke:#3FBA51;stroke-width:7.2;stroke-miterlimit:10;}
	.st193{fill:none;stroke:#3FBA51;stroke-width:7.2;stroke-linecap:round;stroke-miterlimit:10;}
	.st194{fill:none;stroke:#3FBA51;stroke-width:8;stroke-linecap:round;stroke-miterlimit:10;}
	.st195{fill:none;stroke:#3FBA51;stroke-width:5.1175;stroke-miterlimit:10;}
	.st196{fill:#4F5565;}
	.st197{fill:#D64E3C;}
	.st198{fill:#F7A500;}
	.st199{fill:#FBD303;}
	.st200{fill:#FCFCFD;}
	.st201{fill:#F8B517;}
	.st202{fill:#F0582F;}
	.st203{fill:#BAE8F2;}
	.st204{fill:#F7EA72;}
	.st205{clip-path:url(#SVGID_65_);fill:#F7EFDF;}
	.st206{fill:none;stroke:#3FBA51;stroke-width:6.4304;stroke-miterlimit:10;}
	.st207{font-family:'ElegantLux-Mager';}
	.st208{font-size:42.5373px;}
	.st209{letter-spacing:6;}
	.st210{fill:url(#SVGID_66_);}
	.st211{fill:url(#SVGID_67_);}
	.st212{fill:url(#SVGID_68_);}
	.st213{fill:url(#SVGID_69_);}
	.st214{fill:url(#SVGID_70_);}
	.st215{fill:url(#SVGID_71_);}
	.st216{fill:url(#SVGID_72_);}
	.st217{fill:url(#SVGID_73_);}
	.st218{fill:url(#SVGID_74_);}
	.st219{fill:url(#SVGID_75_);}
	.st220{fill:url(#SVGID_76_);}
	.st221{fill:url(#SVGID_77_);}
	.st222{fill:url(#SVGID_78_);}
	.st223{fill:url(#SVGID_79_);}
	.st224{fill:url(#SVGID_80_);}
	.st225{fill:url(#SVGID_81_);}
	.st226{fill:url(#SVGID_82_);}
	.st227{fill:url(#SVGID_83_);}
	.st228{fill:url(#SVGID_84_);}
	.st229{fill:url(#SVGID_85_);}
	.st230{fill:url(#SVGID_86_);}
	.st231{fill:url(#SVGID_87_);}
	.st232{fill:url(#SVGID_88_);}
	.st233{fill:url(#SVGID_89_);}
	.st234{fill:url(#SVGID_90_);}
	.st235{fill:url(#SVGID_91_);}
	.st236{fill:url(#SVGID_92_);}
	.st237{fill:url(#SVGID_93_);}
	.st238{fill:url(#SVGID_94_);}
	.st239{fill:url(#SVGID_95_);}
	.st240{fill:url(#SVGID_96_);}
	.st241{fill:url(#SVGID_97_);}
	.st242{fill:url(#SVGID_98_);}
	.st243{fill:url(#SVGID_99_);}
	.st244{fill:url(#SVGID_100_);}
	.st245{fill:url(#SVGID_101_);}
	.st246{opacity:0.7;fill:#7BCDDB;}
	.st247{fill:none;stroke:#F0BA7A;stroke-width:3;stroke-miterlimit:10;}
	.st248{fill:none;stroke:#601515;stroke-width:2;stroke-miterlimit:10;}
	.st249{fill:url(#SVGID_102_);}
	.st250{fill:url(#SVGID_103_);}
	.st251{fill:url(#SVGID_104_);}
	.st252{fill:url(#SVGID_105_);}
	.st253{fill:url(#SVGID_106_);}
	.st254{fill:url(#SVGID_107_);}
	.st255{fill:url(#SVGID_108_);}
	.st256{opacity:0.5;fill:#302929;}
	.st257{fill:#EF3F50;}
	.st258{fill:url(#SVGID_109_);}
	.st259{fill:url(#SVGID_110_);}
	.st260{fill:url(#SVGID_111_);}
	.st261{fill:url(#SVGID_112_);}
	.st262{opacity:0.6;fill:#302929;}
	.st263{fill:url(#SVGID_113_);}
	.st264{fill:url(#SVGID_114_);}
	.st265{fill:url(#SVGID_115_);}
	.st266{fill:url(#SVGID_116_);}
	.st267{fill:url(#SVGID_117_);}
	.st268{fill:url(#SVGID_118_);}
	.st269{fill:url(#SVGID_119_);}
	.st270{fill:url(#SVGID_120_);}
	.st271{fill:url(#SVGID_121_);}
	.st272{fill:url(#SVGID_122_);}
	.st273{fill:url(#SVGID_123_);}
	.st274{fill:url(#SVGID_124_);}
	.st275{fill:url(#SVGID_125_);}
	.st276{fill:url(#SVGID_126_);}
	.st277{fill:url(#SVGID_127_);}
	.st278{fill:url(#SVGID_128_);}
	.st279{fill:url(#SVGID_129_);}
	.st280{fill:url(#SVGID_130_);}
	.st281{fill:url(#SVGID_131_);}
	.st282{fill:url(#SVGID_132_);}
	.st283{fill:url(#SVGID_133_);}
	.st284{fill:url(#SVGID_134_);}
	.st285{fill:url(#SVGID_135_);}
	.st286{fill:url(#SVGID_136_);}
	.st287{fill:url(#SVGID_137_);}
	.st288{fill:url(#SVGID_138_);}
	.st289{fill:url(#SVGID_139_);}
	.st290{fill:url(#SVGID_140_);}
	.st291{fill:url(#SVGID_141_);}
	.st292{fill:url(#SVGID_142_);}
	.st293{fill:url(#SVGID_143_);}
	.st294{fill:url(#SVGID_144_);}
	.st295{fill:url(#SVGID_145_);}
	.st296{fill:url(#SVGID_146_);}
	.st297{fill:url(#SVGID_147_);}
	.st298{fill:url(#SVGID_148_);}
	.st299{fill:url(#SVGID_149_);}
	.st300{fill:url(#SVGID_150_);}
	.st301{fill:url(#SVGID_151_);}
	.st302{fill:url(#SVGID_152_);}
	.st303{fill:url(#SVGID_153_);}
	.st304{fill:url(#SVGID_154_);}
	.st305{fill:url(#SVGID_155_);}
	.st306{fill:url(#SVGID_156_);}
	.st307{fill:url(#SVGID_157_);}
	.st308{fill:url(#SVGID_158_);}
	.st309{fill:url(#SVGID_159_);}
	.st310{fill:url(#SVGID_160_);}
	.st311{fill:url(#SVGID_161_);}
	.st312{fill:url(#SVGID_162_);}
	.st313{fill:url(#SVGID_163_);}
	.st314{fill:url(#SVGID_164_);}
	.st315{fill:url(#SVGID_165_);}
	.st316{fill:url(#SVGID_166_);}
	.st317{fill:url(#SVGID_167_);}
	.st318{fill:url(#SVGID_168_);}
	.st319{fill:url(#SVGID_169_);}
	.st320{fill:url(#SVGID_170_);}
	.st321{fill:url(#SVGID_171_);}
	.st322{fill:url(#SVGID_172_);}
	.st323{fill:url(#SVGID_173_);}
	.st324{fill:url(#SVGID_174_);}
	.st325{fill:url(#SVGID_175_);}
	.st326{fill:url(#SVGID_176_);}
	.st327{fill:url(#SVGID_177_);}
	.st328{fill:url(#SVGID_178_);}
	.st329{fill:url(#SVGID_179_);}
	.st330{fill:url(#SVGID_180_);}
	.st331{fill:url(#SVGID_181_);}
	.st332{fill:url(#SVGID_182_);}
	.st333{fill:url(#SVGID_183_);}
	.st334{fill:url(#SVGID_184_);}
	.st335{fill:url(#SVGID_185_);}
	.st336{fill:url(#SVGID_186_);}
	.st337{fill:url(#SVGID_187_);}
	.st338{fill:url(#SVGID_188_);}
	.st339{fill:url(#SVGID_189_);}
	.st340{fill:url(#SVGID_190_);}
	.st341{fill:url(#SVGID_191_);}
	.st342{fill:url(#SVGID_192_);}
	.st343{fill:url(#SVGID_193_);}
	.st344{fill:url(#SVGID_194_);}
	.st345{fill:url(#SVGID_195_);}
	.st346{fill:url(#SVGID_196_);}
	.st347{fill:url(#SVGID_197_);}
	.st348{fill:url(#SVGID_198_);}
	.st349{fill:url(#SVGID_199_);}
	.st350{fill:url(#SVGID_200_);}
	.st351{fill:url(#SVGID_201_);}
	.st352{fill:url(#SVGID_202_);}
	.st353{fill:url(#SVGID_203_);}
	.st354{fill:url(#SVGID_204_);}
	.st355{fill:url(#SVGID_205_);}
	.st356{fill:url(#SVGID_206_);}
	.st357{fill:url(#SVGID_207_);}
	.st358{fill:url(#SVGID_208_);}
	.st359{fill:url(#SVGID_209_);}
	.st360{fill:url(#SVGID_210_);}
	.st361{fill:url(#SVGID_211_);}
	.st362{fill:url(#SVGID_212_);}
	.st363{fill:url(#SVGID_213_);}
	.st364{fill:url(#SVGID_214_);}
	.st365{fill:url(#SVGID_215_);}
	.st366{fill:url(#SVGID_216_);}
	.st367{fill:url(#SVGID_217_);}
	.st368{fill:url(#SVGID_218_);}
	.st369{fill:url(#SVGID_219_);}
	.st370{fill:url(#SVGID_220_);}
	.st371{fill:url(#SVGID_221_);}
	.st372{fill:url(#SVGID_222_);}
	.st373{fill:url(#SVGID_223_);}
	.st374{fill:url(#SVGID_224_);}
	.st375{fill:url(#SVGID_225_);}
	.st376{fill:url(#SVGID_226_);}
	.st377{fill:url(#SVGID_227_);}
	.st378{fill:url(#SVGID_228_);}
	.st379{fill:url(#SVGID_229_);}
	.st380{fill:url(#SVGID_230_);}
	.st381{fill:url(#SVGID_231_);}
	.st382{fill:url(#SVGID_232_);}
	.st383{fill:url(#SVGID_233_);}
	.st384{fill:url(#SVGID_234_);}
	.st385{fill:url(#SVGID_235_);}
	.st386{fill:url(#SVGID_236_);}
	.st387{fill:url(#SVGID_237_);}
	.st388{fill:url(#SVGID_238_);}
	.st389{fill:url(#SVGID_239_);}
	.st390{fill:none;stroke:#9B9B97;stroke-miterlimit:10;}
	.st391{fill:url(#SVGID_240_);}
	.st392{fill:url(#SVGID_241_);}
	.st393{fill:url(#SVGID_242_);}
	.st394{fill:url(#SVGID_243_);}
	.st395{fill:url(#SVGID_244_);}
	.st396{fill:url(#SVGID_245_);}
	.st397{fill:url(#SVGID_246_);}
	.st398{fill:url(#SVGID_247_);}
	.st399{fill:url(#SVGID_248_);}
	.st400{fill:url(#SVGID_249_);}
	.st401{fill:url(#SVGID_250_);}
	.st402{fill:url(#SVGID_251_);}
	.st403{fill:url(#SVGID_252_);}
	.st404{fill:url(#SVGID_253_);}
	.st405{fill:url(#SVGID_254_);}
	.st406{fill:url(#SVGID_255_);}
	.st407{fill:url(#SVGID_256_);}
	.st408{fill:url(#SVGID_257_);}
	.st409{fill:url(#SVGID_258_);}
	.st410{fill:url(#SVGID_259_);}
	.st411{fill:url(#SVGID_260_);}
	.st412{fill:url(#SVGID_261_);}
	.st413{fill:url(#SVGID_262_);}
	.st414{fill:url(#SVGID_263_);}
	.st415{fill:url(#SVGID_264_);}
	.st416{fill:url(#SVGID_265_);}
	.st417{fill:url(#SVGID_266_);}
	.st418{fill:url(#SVGID_267_);}
	.st419{fill:url(#SVGID_268_);}
	.st420{fill:url(#SVGID_269_);}
	.st421{fill:url(#SVGID_270_);}
	.st422{fill:url(#SVGID_271_);}
	.st423{fill:url(#SVGID_272_);}
	.st424{fill:url(#SVGID_273_);}
	.st425{fill:url(#SVGID_274_);}
	.st426{fill:url(#SVGID_275_);}
	.st427{fill:url(#SVGID_276_);}
	.st428{fill:url(#SVGID_277_);}
	.st429{fill:url(#SVGID_278_);}
	.st430{fill:url(#SVGID_279_);}
	.st431{fill:url(#SVGID_280_);}
	.st432{fill:url(#SVGID_281_);}
	.st433{fill:url(#SVGID_282_);}
	.st434{fill:url(#SVGID_283_);}
	.st435{fill:url(#SVGID_284_);}
	.st436{fill:url(#SVGID_285_);}
	.st437{fill:url(#SVGID_286_);}
	.st438{fill:url(#SVGID_287_);}
	.st439{fill:url(#SVGID_288_);}
	.st440{fill:url(#SVGID_289_);}
	.st441{fill:url(#SVGID_290_);}
	.st442{fill:url(#SVGID_291_);}
	.st443{fill:url(#SVGID_292_);}
	.st444{fill:url(#SVGID_293_);}
	.st445{fill:url(#SVGID_294_);}
	.st446{fill:url(#SVGID_295_);}
	.st447{fill:url(#SVGID_296_);}
	.st448{fill:url(#SVGID_297_);}
	.st449{fill:url(#SVGID_298_);}
	.st450{fill:url(#SVGID_299_);}
	.st451{fill:url(#SVGID_300_);}
	.st452{fill:url(#SVGID_301_);}
	.st453{fill:url(#SVGID_302_);}
	.st454{fill:url(#SVGID_303_);}
	.st455{fill:url(#SVGID_304_);}
	.st456{fill:url(#SVGID_305_);}
	.st457{fill:url(#SVGID_306_);}
	.st458{fill:url(#SVGID_307_);}
	.st459{fill:url(#SVGID_308_);}
	.st460{fill:url(#SVGID_309_);}
	.st461{fill:url(#SVGID_310_);}
	.st462{fill:url(#SVGID_311_);}
	.st463{fill:url(#SVGID_312_);}
	.st464{fill:url(#SVGID_313_);}
	.st465{fill:url(#SVGID_314_);}
	.st466{fill:url(#SVGID_315_);}
	.st467{fill:url(#SVGID_316_);}
	.st468{fill:url(#SVGID_317_);}
	.st469{fill:url(#SVGID_318_);}
	.st470{fill:url(#SVGID_319_);}
	.st471{fill:url(#SVGID_320_);}
	.st472{fill:url(#SVGID_321_);}
	.st473{fill:url(#SVGID_322_);}
	.st474{fill:url(#SVGID_323_);}
	.st475{fill:url(#SVGID_324_);}
	.st476{fill:url(#SVGID_325_);}
	.st477{fill:url(#SVGID_326_);}
	.st478{fill:url(#SVGID_327_);}
	.st479{fill:url(#SVGID_328_);}
	.st480{fill:url(#SVGID_329_);}
	.st481{fill:url(#SVGID_330_);}
	.st482{fill:url(#SVGID_331_);}
	.st483{fill:url(#SVGID_332_);}
	.st484{fill:url(#SVGID_333_);}
	.st485{fill:url(#SVGID_334_);}
	.st486{fill:url(#SVGID_335_);}
	.st487{fill:url(#SVGID_336_);}
	.st488{fill:url(#SVGID_337_);}
	.st489{fill:url(#SVGID_338_);}
	.st490{fill:url(#SVGID_339_);}
	.st491{fill:url(#SVGID_340_);}
	.st492{fill:url(#SVGID_341_);}
	.st493{fill:url(#SVGID_342_);}
	.st494{fill:url(#SVGID_343_);}
	.st495{fill:url(#SVGID_344_);}
	.st496{fill:url(#SVGID_345_);}
	.st497{fill:url(#SVGID_346_);}
	.st498{fill:url(#SVGID_347_);}
	.st499{fill:url(#SVGID_348_);}
	.st500{fill:url(#SVGID_349_);}
	.st501{fill:url(#SVGID_350_);}
	.st502{fill:url(#SVGID_351_);}
	.st503{fill:url(#SVGID_352_);}
	.st504{fill:url(#SVGID_353_);}
	.st505{fill:url(#SVGID_354_);}
	.st506{fill:url(#SVGID_355_);}
	.st507{fill:url(#SVGID_356_);}
	.st508{fill:url(#SVGID_357_);}
	.st509{fill:url(#SVGID_358_);}
	.st510{fill:url(#SVGID_359_);}
	.st511{fill:url(#SVGID_360_);}
	.st512{fill:url(#SVGID_361_);}
	.st513{fill:url(#SVGID_362_);}
	.st514{fill:url(#SVGID_363_);}
	.st515{fill:url(#SVGID_364_);}
	.st516{fill:url(#SVGID_365_);}
	.st517{fill:url(#SVGID_366_);}
	.st518{fill:url(#SVGID_367_);}
	.st519{fill:url(#SVGID_368_);}
	.st520{fill:url(#SVGID_369_);}
	.st521{fill:url(#SVGID_370_);}
	.st522{fill:url(#SVGID_371_);}
	.st523{fill:url(#SVGID_372_);}
	.st524{fill:url(#SVGID_373_);}
	.st525{fill:url(#SVGID_374_);}
	.st526{fill:url(#SVGID_375_);}
	.st527{fill:url(#SVGID_376_);}
	.st528{fill:url(#SVGID_377_);}
	.st529{clip-path:url(#SVGID_379_);}
	.st530{clip-path:url(#SVGID_381_);}
	.st531{fill:#F4F0A6;}
	.st532{clip-path:url(#SVGID_383_);}
	.st533{opacity:0.6;fill:none;stroke:#F7CFA2;stroke-miterlimit:10;}
	.st534{fill:none;stroke:#F7CFA2;stroke-miterlimit:10;}
	.st535{fill:#EAA56C;}
	.st536{clip-path:url(#SVGID_385_);fill:#F7EFDF;}
</style>
<g id="Layer_1">
	<rect x="-12.2" y="-21.1" class="st0" width="866.3" height="637.4"/>
	<polygon class="st14" points="588.9,558.1 336.5,555.1 322.4,33.6 551.4,54.9 	"/>
	<polygon class="st3" points="563.6,567.1 756.4,569.1 704.2,76.5 528.3,60.4 	"/>
	<polygon class="st12" points="141.5,565.3 361.2,567.5 344.7,45.5 146.8,27.4 	"/>
	<path class="st22" d="M596.6,345c4.8-6,7.2-12.4,7.8-19c0.2-2.2,0.2-4.4,0-6.6c-0.5-4.9-1.5-9.5-3.1-13.9
		c-1.6-4.4-3.7-8.5-6.3-12.2c-2.3-3.8-5.4-6.7-9-9.1c-1.2-0.8-2.4-1.6-3.6-2.3c-2.1-1.1-4.2-1.8-6.4-2.3s-4.3-0.6-6.4-0.5
		c-7.1,0.6-13.4,3.3-19.7,5.1c7.2-15.3,5.4-33.3-2.3-48.5c-1.3-1.6-3-3.1-5.4-4.4c-1.8-0.9-3.7-1.6-5.9-2.1
		c-5.4-0.9-10.8,0-16.2,0.9c-1.8,0.9-3.6,2.7-4.5,4.5c0-1.8-1.8-3.6-2.5-5.6c-1-2.2-2-4.4-3.1-6.6c-7.7-15.5-18.4-30.5-37.6-22
		c-3.6,0.9-6.3,1.8-7.2,6.3c-0.9-1.8-0.9-4.5-1.9-6.2c-0.9-1.9-1.8-3.6-2.9-5.4c-1-1.9-2.2-3.9-3.4-5.7c-6.3-9.1-16-15.2-27.8-10.7
		c-5.4,2.7-9.9,6.3-14.8,10.8c-1.7,1.7-3.4,3.4-5.3,5c-1.6,1.7-2.9,3.5-3.4,5.7c-0.9,1.4-1.8,2.9-2.6,4.5c-0.8,1.6-1.5,3.1-1.9,4.5
		c0,2.7-1.8,5.4-0.9,8c-1.8-1.2-3.6-2.4-5.5-3.6c-14.1-9.6-30.6-19.9-47.3-24.3c-2.4-0.6-4.8-1.1-7.2-1.5
		c-14.5-3.7-28.6,0.1-38.7,8.6c-1.7,1.4-3.3,2.9-4.7,4.6c-13.6,14.6-10,36.2-14.5,54.1c-0.5,1.8-1.1,3.6-1.8,5.4
		c-2.7,5.4-6.3,10.8-13,13c-3.6,1.8-7.6,3-11.7,3.9c-4.1,0.9-8.4,1.4-12.6,1.8c-3,0.8-7.1,1.2-10.6,2.5c-3.5,1.3-6.4,3.3-6.8,7.2
		c-0.5,5,4.8,15.3,6.6,20.2c4.9,13.8,10.4,27,24.9,33"/>
	<polyline class="st63" points="645.9,362.8 291.8,452.8 378.4,313 645.9,313 	"/>
	<path class="st13" d="M658.1,239.5c0-0.5,24-51.7,24-52.2c-0.1-1.5,0.4-3.1,0.6-4.6c0.4-2.4,0.6-4.7,0.7-7
		c1.1-30.2-20.6-57.1-51.2-61.8c-33-5.1-63.8,17.5-68.9,50.5c-2.5,16.2,7.2,62.1,7,64c14.4-6.1,28.7,8.9,43.2,3.6
		C634.2,224.6,636.4,242.5,658.1,239.5z"/>
	<g>
		<g>
			<path class="st64" d="M636.3,255.4c1.5-9.6,6.7-16.5,1.1-20.7c-3.4-2.5-9.9-4.4-14.6-5.1l-18.8-1.8c-5.8-0.6-15.2,0.2-19.8,2.9
				c-5.5,3.4-0.9,10.9-2.2,19.3l0.7,52.8c-0.6,4.1-3.3,20.6-2.5,24.3c19.6,3.7,16,0.3,35.9,3c2.6-3.9,2.2-8.7,3-13.8L636.3,255.4z"
				/>
			<path class="st64" d="M635.9,239.4c-4.6-0.1-7.3,4.4-5.5,8c9,18.9,23.4,32.4,29.7,54c0,1.8,3.6,0.9,6.2,1.1
				c4.4-0.6,9.1-3.4,10.9-7.4c1.8-4.5,2.7-9,1.8-13.5c-3.6-8.1-5.4-16.2-10.8-23.4c0.9,0.9,0.9,1.8,1.8,2.7
				c-4.5-6.3-9.9-12.6-15.8-16.8C646.8,237.7,640.6,237.4,635.9,239.4z"/>
			<path class="st65" d="M615,232.2l-4.3-0.7c-4.2-0.6-7.1-4.6-6.5-8.9l2-13c0.6-4.2,4.6-7.1,8.9-6.5l4.3,0.7
				c4.2,0.6,7.1,4.6,6.5,8.9l-2,13C623.2,230,619.2,232.9,615,232.2z"/>
			<polygon class="st66" points="609.5,254 613.3,228.9 621.3,235.4 			"/>
			<polygon class="st66" points="609.5,254 613.4,228.7 603.9,232.4 			"/>
			<polygon class="st67" points="619.1,233.7 613.4,229.1 607.2,233 609.6,240.1 614,240.9 			"/>
			<polygon class="st67" points="611.4,298 602.5,307.1 595.3,296.7 609.6,240.1 614,240.9 			"/>
			<path class="st10" d="M613.4,228.7l-0.1,0.5c0,0-5.7,9.9-9.4,6c-3.7-3.8-2.6-8.2-2.6-8.2l2.3-3.8L613.4,228.7z"/>
			<path class="st10" d="M613.6,228.7l-0.1,0.5c0,0,2.4,11.1,7.1,8.6s5-7.1,5-7.1l-1.1-4.3L613.6,228.7z"/>
			<g class="st68">
				<polygon class="st69" points="615,274.2 621.6,280 629.9,276.5 632.1,262.6 617.2,260.3 				"/>
				
					<rect x="623" y="250.2" transform="matrix(0.152 -0.9884 0.9884 0.152 275.4443 836.4605)" class="st69" width="4.4" height="15.1"/>
			</g>
			<path class="st70" d="M633.3,270.9c1.5-4.2,2.8-8.4,4.2-12.4c-0.7-0.8-1.3-1.7-1.9-2.6c-4.4-7-4.2-15.6-2.1-23.5
				c-2.1-0.9-4.4-1.6-6.6-2.2c-0.6,3.7-1.4,7.4-2.5,11.1c-0.3,2.2-2,3.9-3.4,5.9c-1.4,1.7-3.8,2.8-6,3
				c-13.3,1.2-18.2-11.2-17.8-22.6c-3.6,0.2-4.6,0-7.6,1.1c0.3,6.4-3,15.6-8.5,21.4c1.5,26.5,1.8,52.3-8.9,77.2
				c16,2.7,32.3,4.3,48.4,6.3C621.6,312.2,625.5,291.6,633.3,270.9z"/>
		</g>
	</g>
	
		<ellipse transform="matrix(0.152 -0.9884 0.9884 0.152 323.5206 717.7012)" class="st11" cx="580" cy="170.3" rx="10.4" ry="10.4"/>
	<ellipse transform="matrix(0.152 -0.9884 0.9884 0.152 323.5206 717.7012)" class="st65" cx="580" cy="170.3" rx="6.8" ry="6.8"/>
	
		<ellipse transform="matrix(0.152 -0.9884 0.9884 0.152 382.7874 814.6154)" class="st11" cx="666.1" cy="184.2" rx="10.4" ry="10.4"/>
	
		<ellipse transform="matrix(0.152 -0.9884 0.9884 0.152 382.7874 814.6154)" class="st65" cx="666.1" cy="184.2" rx="6.8" ry="6.8"/>
	<path class="st11" d="M665.2,174.2c2.9-19.1-13.6-37.5-36.9-41.1c-23.3-3.6-44.6,9-47.6,28.1c-0.7,4.3-3.1,20-3.7,24.3
		c-2.9,19.1,22.5,38.9,36.9,41.1c12.7,2,44.6-9,47.6-28.1C662.1,194.2,664.5,178.5,665.2,174.2z"/>
	<path class="st13" d="M623.2,130.5c0.5-0.4,0.5-1.2,0-1.6c0,0,0,0,0,0c-11.6-10.9-29.9-10.3-40.8,1.3c-7.5,8-9.6,19.2-6.3,29
		c0.2,0.6,0.9,0.9,1.5,0.6C594,151.9,610.1,142.8,623.2,130.5z"/>
	<path class="st13" d="M665.1,149.1c0.6,0,1.2-0.5,1.1-1.1c0,0,0,0,0,0c-0.5-15.9-13.8-28.4-29.8-27.9c-11,0.3-20.4,6.8-24.9,16
		c-0.3,0.6,0,1.3,0.6,1.5C629.4,143.5,647.2,148.5,665.1,149.1z"/>
	<path class="st13" d="M666.7,176.1c0.3,0.3,0.9,0.2,1.3-0.3c0,0,0,0,0,0c10.8-11.7,4.8-31.3-2.1-41.2c-4.2-6.1-20.2-18.2-28.7-13.8
		c-0.6,0.3,12.3,21,12.4,21.5C653.5,154.9,658.5,167.1,666.7,176.1z"/>
	<g>
		<path class="st71" d="M656.3,182.6c-1.3,8.5-6.1,14.8-14.6,13.5c-8.5-1.3-12.8-9-11.5-17.5c1.3-8.5,7.7-14.6,16.2-13.3
			C654.9,166.7,657.7,174.1,656.3,182.6z"/>
		
			<ellipse transform="matrix(0.152 -0.9884 0.9884 0.152 366.2477 789.579)" class="st10" cx="643.3" cy="181.4" rx="13.5" ry="13.5"/>
		
			<ellipse transform="matrix(0.152 -0.9884 0.9884 0.152 366.2477 789.579)" class="st20" cx="643.3" cy="181.4" rx="6.5" ry="6.5"/>
		<ellipse transform="matrix(0.152 -0.9884 0.9884 0.152 366.2477 789.579)" cx="643.3" cy="181.4" rx="2.5" ry="2.5"/>
		
			<ellipse transform="matrix(0.152 -0.9884 0.9884 0.152 368.383 785.7625)" class="st72" cx="642.1" cy="178.2" rx="1.8" ry="1.8"/>
	</g>
	<g>
		<path class="st71" d="M586.5,169.2c-1.3,8.5,1.4,16,9.9,17.3s14.9-4.8,16.2-13.3s-3-16.2-11.5-17.5S587.8,160.7,586.5,169.2z"/>
		
			<ellipse transform="matrix(0.152 -0.9884 0.9884 0.152 338.3541 738.1646)" class="st10" cx="599.4" cy="171.9" rx="13.5" ry="13.5"/>
		<path class="st13" d="M589.7,132.2l-3.2,21.1l47.7,7.3l4.3-15.5l0.5,16.2c0,0,7,2,12.3,2.8c4.5,0.6,14,9,14,9l2.6-32.7l-59-18.7
			L589.7,132.2z"/>
		<path class="st73" d="M594,153.5l17.8-4c2.5-0.6,4.1-3.1,3.5-5.6l0,0c-0.6-2.5-3.1-4.1-5.6-3.5l-17.8,4c-2.5,0.6-4.1,3.1-3.5,5.6
			l0,0C589,152.5,591.5,154.1,594,153.5z"/>
		
			<ellipse transform="matrix(0.152 -0.9884 0.9884 0.152 338.3541 738.1646)" class="st20" cx="599.4" cy="171.9" rx="6.5" ry="6.5"/>
		<ellipse transform="matrix(0.152 -0.9884 0.9884 0.152 338.3541 738.1646)" cx="599.4" cy="171.9" rx="2.5" ry="2.5"/>
		
			<ellipse transform="matrix(0.152 -0.9884 0.9884 0.152 340.5497 734.4449)" class="st72" cx="598.3" cy="168.8" rx="1.8" ry="1.8"/>
	</g>
	<path class="st74" d="M632.8,210c0,0-8,4.4-16.8,3.1s-15-8-15-8s7.5,2.7,16.3,4.1S632.8,210,632.8,210z"/>
	<path class="st65" d="M618.6,194.2L618.6,194.2c-2.1-0.3-3.6-2.3-3.3-4.5l2.1-14c0.3-2.1,2.3-3.6,4.5-3.3l0,0
		c2.1,0.3,3.6,2.3,3.3,4.5l-2.1,14C622.8,193,620.7,194.5,618.6,194.2z"/>
	<path class="st11" d="M618.5,191L618.5,191c-2.1-0.3-3.6-2.3-3.3-4.5l2.1-14c0.3-2.1,2.3-3.6,4.5-3.3l0,0c2.1,0.3,3.6,2.3,3.3,4.5
		l-2.1,14C622.6,189.9,620.6,191.4,618.5,191z"/>
	<g class="st51">
		<g>
			<path class="st11" d="M629.2,119.3c3.6,0.9,7.4,1.6,10.9,2.6c4.2,1.2,7.6,3.4,11.4,5.2c1,0.5,3.6-0.9,2.3-1.5
				c-3.5-1.7-6.7-3.6-10.4-4.9c-4-1.4-8.4-2.1-12.5-3.1C629.9,117.4,627.5,118.9,629.2,119.3L629.2,119.3z"/>
		</g>
	</g>
	<g>
		<path class="st11" d="M255.9,254c0,0.1,0,0.3,0,0.4C255.9,254.3,255.9,254.1,255.9,254z"/>
	</g>
	<g>
		<path class="st11" d="M255.3,252.4c-0.4-0.3-1.4-1-1.9-0.8l2.5,3.4c0-0.2,0-0.3,0-0.5c0-0.1,0-0.3,0-0.4
			C256,253.4,255.9,252.8,255.3,252.4z"/>
	</g>
	<g>
		<path class="st70" d="M441,248c0,3.4,0.3,7,0.6,10.6c-0.7,6.5-0.5,14.1-0.1,22.2c0.2,2.7,0.3,5.4,0.5,8.2c0.2,2.9,0.5,6.1,0.7,9.5
			c0.2,3.4,0.4,7,0.4,10.7c1.9,27.2-5.3,73.1-41.3,66.8c-3.8-0.8-7-2.1-9.7-3.8c-2.7-1.7-4.8-3.8-6.6-6.3c-1.8-2.2-2.9-4.6-3.5-7.1
			s-0.9-4.9-0.9-7.2c0.9-3.4,1.4-7.2,1.6-11.2c0.2-4.4,0.1-8.9-0.1-13.9c1.2-26.2-15.9-61.3,8.4-80.2c8.1-7.2,19.8-0.9,31-2.5
			c3-0.1,5,0.7,6.9,1.8c1.9,1.1,3.7,2.5,6.2,3.6C436.9,250.2,439,250.2,441,248z"/>
		<g>
			<path class="st64" d="M445.7,190.4c0-8.3-0.2-14-6.8-16.8c-4-1.7-12.9-3-18.1-2.8l-20.2,0.9c-6.2,0.3-16.1,2.1-20.4,5
				c-5.3,3.5-4.5,8.8-4.5,16.1v57.1c0,3.6,0.8,7,2.3,10c21.4,0.5,43-0.7,64.5-1c2.1-3.6,3.3-7.8,3.3-12.1V190.4z"/>
			<path class="st64" d="M434.9,173.4l-2.4,0.8c-4,1.1-3.9,9.8,0.2,19.4l7,19.2l7.2,22.4c2.3,5.2,3.7,9.5,6.2,11.5
				c2.1,1.6,5.5,1.8,7.3,1.3l5.9-1.6c1.5-0.4,3.8-1.8,4.4-3.5c1-2.8-0.7-6.9-3.3-12.9c0,0-12-30.4-9.3-22.7
				c2.8,7.7-4.8-12.4-9.6-22.6C443.9,174.5,439,172.3,434.9,173.4z"/>
			<polygon class="st66" points="410.7,193.2 410.7,171.2 420.2,175.6 			"/>
			<polygon class="st66" points="410.7,193.2 410.7,171.2 401.2,175.6 			"/>
			<polygon class="st67" points="417.6,174.8 410.5,171.4 404.8,175.7 408.5,181.4 413.4,181.4 			"/>
			<polygon class="st67" points="419.9,230 411.9,238.9 402.7,231.1 408.5,181.4 413.4,181.4 			"/>
			<polygon class="st10" points="410.7,171.2 410.7,171.6 419.8,179.5 423.8,171.3 421.9,167.8 			"/>
			<polygon class="st10" points="410.7,171.2 410.7,171.6 401.6,179.5 397.6,171.3 399.5,167.8 			"/>
			<g>
				<polygon class="st10" points="419.9,209.5 427.8,213.5 436,209.5 436,197.5 419.9,197.5 				"/>
				<rect x="419.9" y="192.4" class="st10" width="16.1" height="3.7"/>
			</g>
			<g>
				<path class="st11" d="M351,151.7c0,0.2,0,0.3,0,0.5C351,152,351,151.8,351,151.7z"/>
			</g>
		</g>
		<path class="st65" d="M411.4,142.6h-6c-5.9,0-10.6-4.8-10.6-10.6v-18c0-5.9,4.8-10.6,10.6-10.6h6c5.9,0,10.6,4.8,10.6,10.6v18
			C422,137.8,417.2,142.6,411.4,142.6z"/>
		<circle class="st11" cx="368.5" cy="121.8" r="10.6"/>
		<circle class="st65" cx="368.5" cy="121.8" r="7"/>
		<circle class="st11" cx="454.5" cy="121.8" r="10.6"/>
		<circle class="st65" cx="454.5" cy="121.8" r="7"/>
		<path class="st11" d="M455.1,112.5c6.1-48.2-19.5-35.7-43.6-35.7c-24.1,0-43.6,16-43.6,35.7c0,4.4,0,20.6,0,25.1
			c0,19.7,28.7,35.7,43.6,35.7c13.1,0,43.6-16,43.6-35.7C455.1,133.1,454.5,116.8,455.1,112.5z"/>
		<path class="st20" d="M439.7,101.9c-1-1,1-3.1,1-3.1c6.3-1,7.3,9.4,13.6,6.3c2.1-1,1-5.2,1-8.4c2.5,6.7,4.3,1.4,8.1-0.5
			c0.4-3.5,0.7-6.4,0.7-8c0-23.6-20.3-38.2-43.9-38.2c-23,0-35.8,14.3-36.7,37c17.9-6.1,29.9,2.8,41.7,13.6
			C430.2,100.5,434.6,101.9,439.7,101.9z"/>
		<path class="st20" d="M409.3,70.3c0.4-0.5,0.3-1.3-0.2-1.6c0,0,0,0,0,0c-13.4-9.2-31.8-5.8-41,7.6c-6.4,9.3-6.7,20.9-1.9,30.2
			c0.3,0.6,1.1,0.8,1.7,0.4C383.1,96.4,398,84.7,409.3,70.3z"/>
		<g>
			<path class="st71" d="M447.4,121.6c0,8.8-3.9,15.9-12.7,15.9c-8.8,0-14.3-7.1-14.3-15.9s5.5-15.9,14.3-15.9
				C443.5,105.7,447.4,112.8,447.4,121.6z"/>
			<circle class="st10" cx="434" cy="122.3" r="13.8"/>
			<circle class="st20" cx="434" cy="122.3" r="6.6"/>
			<circle cx="434" cy="122.3" r="2.6"/>
			<circle class="st72" cx="432.4" cy="119.3" r="1.9"/>
		</g>
		<g>
			<path class="st71" d="M375.3,121.6c0,8.8,3.9,15.9,12.7,15.9c8.8,0,14.3-7.1,14.3-15.9s-5.5-15.9-14.3-15.9
				C379.2,105.7,375.3,112.8,375.3,121.6z"/>
			<circle class="st10" cx="388.7" cy="122.3" r="13.8"/>
			<circle class="st20" cx="388.7" cy="122.3" r="6.6"/>
			<circle cx="388.7" cy="122.3" r="2.6"/>
			<circle class="st72" cx="387.2" cy="119.3" r="1.9"/>
		</g>
		<path class="st74" d="M428,153.7c0,0-7.4,5.7-16.4,5.7c-9.1,0-16.4-5.7-16.4-5.7s8,1.6,17.1,1.6C421.3,155.2,428,153.7,428,153.7z
			"/>
		<path class="st65" d="M411.2,146.4L411.2,146.4c-3.5,0-6.3-2.8-6.3-6.3v-22.9c0-3.5,2.8-6.3,6.3-6.3l0,0c3.5,0,6.3,2.8,6.3,6.3
			v22.9C417.5,143.5,414.7,146.4,411.2,146.4z"/>
		<path class="st11" d="M409.9,142.6L409.9,142.6c-3.5,0-6.3-2.8-6.3-6.3l0-22.9c0-3.5,2.8-6.3,6.3-6.3l0,0c3.5,0,6.3,2.8,6.3,6.3
			v22.9C416.3,139.8,413.4,142.6,409.9,142.6z"/>
		<path class="st20" d="M381.3,86.4c0,0,11.3,5,16.7,8.6c7.5,4.9,23.3,5.5,23.3,5.5s-11.5-15.5-19.1-17.7S381.3,86.4,381.3,86.4z"/>
		<path class="st20" d="M376.8,65.1c0,0,4.5-0.2,6.9,0.1c3.2,0.4,8.5-2,8.5-2s-6.3-3.2-9.1-2.7S376.8,65.1,376.8,65.1z"/>
		<path class="st20" d="M396.7,51.1c0,0-1.3,4.3-1.6,6.7c-0.4,3.2-4,7.8-4,7.8s-1.6-6.9-0.4-9.5C391.9,53.4,396.7,51.1,396.7,51.1z"
			/>
		<ellipse class="st65" cx="379.9" cy="137.7" rx="1.6" ry="0.8"/>
		<ellipse class="st65" cx="386.1" cy="137.7" rx="1.6" ry="0.8"/>
		<ellipse class="st65" cx="383" cy="140.8" rx="1.6" ry="0.8"/>
		<ellipse class="st65" cx="436.1" cy="137.7" rx="1.6" ry="0.8"/>
		<ellipse class="st65" cx="442.4" cy="137.7" rx="1.6" ry="0.8"/>
		<ellipse class="st65" cx="439.2" cy="140.8" rx="1.6" ry="0.8"/>
		<path class="st81" d="M368,95.8l0.6,36.6l3.5-3.2l2.7-22.1c0,0,5.5-14.3,12.6-17.1c7.1-2.9,21.2-3.6,21.2-3.6l-11.7-5.9L368,95.8z
			"/>
		<path class="st81" d="M456.4,94l-2,33.6l-2.9,1.5l-2.7-22.1c0,0-5.5-14.3-12.6-17.1c-7.1-2.9-21.2-3.6-21.2-3.6l11.7-5.9L456.4,94
			z"/>
		<path class="st20" d="M425.5,111.7h18.6c2.6,0,4.8-2.1,4.8-4.8v0c0-2.6-2.1-4.8-4.8-4.8h-18.6c-2.6,0-4.8,2.1-4.8,4.8v0
			C420.7,109.6,422.9,111.7,425.5,111.7z"/>
		<path class="st20" d="M378.5,112.8l18.6,0c2.6,0,4.8-2.1,4.8-4.8v0c0-2.6-2.1-4.8-4.8-4.8h-18.6c-2.6,0-4.8,2.1-4.8,4.8v0
			C373.7,110.6,375.8,112.8,378.5,112.8z"/>
		<g class="st51">
			<g>
				<path class="st11" d="M413.4,57.4c3,1.5,6.5,0.6,9.8,0.9c3.1,0.3,6,1.7,9.1,1.8c0.8,0,0.9-1.1,0.2-1.4c-3-1-6-2.3-9.2-2.6
					c-3.1-0.3-7.1-0.6-10,0.8C413.2,57,413.2,57.3,413.4,57.4L413.4,57.4z"/>
			</g>
		</g>
	</g>
	<polyline class="st203" points="351.7,370.9 705.8,280.9 619.3,420.7 351.7,420.7 	"/>
	<g>
		<path class="st10" d="M380.2,173.3c0.7,1.7,1.7,3.2,2.7,4.6c1.2,0.9,2.3,1.8,3.4,3c1.1,1.1,2.1,2.3,3,3.6c4.8,6,6.7,13.5,2.3,19.8
			c-2.5,3.8-6.3,5-10.1,5c-7.6,0-15.1-4.4-20.6-9.2c-1.7-1.5-3.3-2.9-4.6-4.2c-8.7-8.3-40.9-43.4-17.2-52.6
			c4.7-1.8,10.6,1.1,14.7,2.5c4.8,1.6,5.9,9.3,7.2,10c1,0.6,2.2,1.2,3.5,1.9c5.7,3,10.1,6.8,13.8,12.2
			C379.1,171.1,379.7,172.2,380.2,173.3z"/>
		<path class="st64" d="M379,187.1c-1.9-11.2-8.8-19.4-16.3-27c-0.6,1.9-2.5,2.5-4.2,3.4c-1.8,0.8-3.6,1.6-5.2,2.9
			c1.6-1.3,2.7-2.8,3.3-4.6c0.6-1.7,0.8-3.7,0.4-5.6c-0.1-1.3-0.3-2.6-0.6-3.8c-1-1-2.1-2-3.2-3c-3.9-2.6-5.8-5.9-10.1-5.3
			c-2.2,0.3-4.3,0.9-6.2,1.8c-15.1,9.7-1.8,24.8,7.9,37.1c1.2,1.5,5.8,7.5,7.3,9c1.3,1,2.6,1.9,4,2.7c8.7,5,26.9,15.1,31.3,1.3
			c0.6-1.9-3.1-3.8-5.2-5.6C380.6,189.1,379.4,187.7,379,187.1z"/>
		<path class="st65" d="M350.4,164.3l-2.4,2.5c-3.5,3.6-9.4,3.7-13.1,0.2l-15.5-15c-3.6-3.5-3.7-9.4-0.2-13.1l2.4-2.5
			c3.5-3.6,9.4-3.7,13.1-0.2l15.5,15C353.8,154.8,353.9,160.7,350.4,164.3z"/>
		<path class="st11" d="M338.6,142.1c-3.7,3.5-7.1,7.4-10.1,11.6l4.8,4.6c2.6,2.5,6.7,2.4,9.2-0.1l1.7-1.7c2.5-2.6,2.4-6.7-0.1-9.2
			L338.6,142.1z"/>
		<g>
			<path class="st11" d="M333.8,135L333.8,135c3.4-1.8,4.8-6.1,3-9.5l-15.6-29c-1.8-3.4-6.1-4.8-9.5-3l0,0c-3.4,1.8-4.8,6.1-3,9.5
				l15.6,29C326.1,135.5,330.4,136.8,333.8,135z"/>
			<path class="st11" d="M336.5,139.8L336.5,139.8c3.8,0.6,7.5-2,8.1-5.8l7.1-37c0.6-3.8-2-7.5-5.8-8.1l0,0c-3.8-0.6-7.5,2-8.1,5.8
				l-7.1,37C330.1,135.5,332.7,139.2,336.5,139.8z"/>
			<path class="st65" d="M309.9,159.1L309.9,159.1c3.9-0.4,6.7-3.9,6.3-7.8l-2.7-25.4c-0.4-3.9-3.9-6.7-7.8-6.3l0,0
				c-3.9,0.4-6.7,3.9-6.3,7.8l2.7,25.4C302.5,156.7,306,159.5,309.9,159.1z"/>
			<g>
				<path class="st11" d="M349.8,145.6c-1.6,8.4-4.6,23.4-16.3,20.4c1-0.1-9.1,0-12.8-1.6s-2.7-1.3-4.7-14.1c-0.3-1.7,1-6.9,0.8-8.5
					c-2-11.9,9.5-20.6,21.4-15.6c7.7,3.5,9.2,12.2,11.7,18.6C350,145,349.9,145.3,349.8,145.6z"/>
			</g>
			<path class="st204" d="M321.7,158.4L321.7,158.4c3.9-0.4,6.7-3.9,6.3-7.8l-2.7-25.4c-0.4-3.9-3.9-6.7-7.8-6.3h0
				c-3.9,0.4-6.7,3.9-6.3,7.8l2.7,25.4C314.3,156,317.8,158.8,321.7,158.4z"/>
		</g>
		<path class="st65" d="M352.2,153.8L352.2,153.8c-0.2,2.7-2.5,4.8-5.3,4.6l-17.9-1.2c-2.7-0.2-4.8-2.5-4.6-5.3l0,0
			c0.2-2.7,2.5-4.8,5.3-4.6l17.9,1.2C350.3,148.7,352.4,151.1,352.2,153.8z"/>
	</g>
	<g>
		<path class="st10" d="M586.5,210.5c0.5,1.8,1.2,3.4,2,5c1,1,2,2.2,2.9,3.4s1.7,2.6,2.4,4c3.9,6.6,4.6,14.4-0.7,19.9
			c-3.1,3.4-7,4-10.7,3.4c-7.5-1.1-14.3-6.7-19-12.2c-1.5-1.7-2.8-3.3-3.9-4.8c-7.3-9.5-33.8-49.1-9-54.6c4.9-1.1,10.3,2.7,14.2,4.7
			c4.5,2.3,4.4,10.1,5.6,11c0.9,0.7,2,1.5,3.2,2.4c5.1,3.9,8.9,8.3,11.8,14.1C585.7,208.1,586.1,209.3,586.5,210.5z"/>
		<path class="st64" d="M583.2,224c-0.1-11.4-5.7-20.5-12.1-29.2c-0.9,1.8-2.9,2.1-4.7,2.7c-1.9,0.6-3.8,1-5.6,2
			c1.7-1,3.1-2.4,3.9-4c0.9-1.6,1.3-3.5,1.2-5.5c0.1-1.3,0.1-2.6-0.1-3.9c-0.9-1.2-1.8-2.3-2.7-3.4c-3.4-3.2-4.8-6.7-9.2-6.8
			c-2.2,0-4.4,0.2-6.4,0.8c-16.4,7.2-5.5,24.2,2.2,37.9c1,1.7,1.9,3.4,2.7,5c0.9,1.7,1.9,3.4,3.2,5c1.1,1.2,2.3,2.2,3.5,3.3
			c7.8,6.3,24.3,19,30.8,6c0.9-1.8-2.5-4.2-4.3-6.3C584.5,226.2,583.5,224.6,583.2,224z"/>
		<path class="st65" d="M558.3,197.1l-2.7,2.1c-4.1,3.1-9.9,2.3-12.9-1.8l-13-17.2c-3.1-4-2.3-9.9,1.8-12.9l2.7-2.1
			c4.1-3.1,9.9-2.3,12.9,1.8l13,17.2C563.2,188.2,562.4,194,558.3,197.1z"/>
		<path class="st11" d="M550.1,173.3c-4.2,2.9-8.1,6.3-11.8,9.9l4,5.3c2.1,2.8,6.2,3.4,9.1,1.3l1.9-1.5c2.8-2.1,3.4-6.2,1.3-9.1
			L550.1,173.3z"/>
		<g>
			<path class="st11" d="M546.5,165.6L546.5,165.6c3.7-1.3,5.6-5.3,4.4-9l-11.1-31c-1.3-3.7-5.3-5.6-9-4.4v0c-3.7,1.3-5.6,5.3-4.4,9
				l11.1,31C538.8,164.9,542.8,166.8,546.5,165.6z"/>
			<path class="st11" d="M548.4,170.8L548.4,170.8c3.7,1.2,7.7-0.8,8.9-4.5l12.6-35.5c1.2-3.7-0.8-7.7-4.5-8.9l0,0
				c-3.7-1.2-7.7,0.8-8.9,4.5l-12.6,35.5C542.7,165.6,544.7,169.6,548.4,170.8z"/>
			<path class="st65" d="M519.1,185.8L519.1,185.8c3.9,0.2,7.2-2.8,7.4-6.7l1.2-25.5c0.2-3.9-2.8-7.2-6.7-7.4l0,0
				c-3.9-0.2-7.2,2.8-7.4,6.7l-1.2,25.5C512.2,182.2,515.3,185.6,519.1,185.8z"/>
			<g>
				<path class="st11" d="M560.7,178.5c-2.9,8.1-8.1,22.4-19.2,17.7c1,0-9-1.4-12.4-3.6c-3.4-2.2-2.5-1.7-2.5-14.6
					c0-1.7,2.1-6.7,2.1-8.3c-0.2-12.1,12.5-18.9,23.5-12.2c7.1,4.6,7.2,13.5,8.8,20.2C560.9,178,560.8,178.2,560.7,178.5z"/>
			</g>
			<path class="st204" d="M530.9,186.9L530.9,186.9c3.9,0.2,7.2-2.8,7.4-6.7l1.2-25.5c0.2-3.9-2.8-7.2-6.7-7.4l0,0
				c-3.9-0.2-7.2,2.8-7.4,6.7l-1.2,25.5C524,183.4,527,186.7,530.9,186.9z"/>
		</g>
		<path class="st65" d="M561.8,186.9L561.8,186.9c-0.6,2.7-3.2,4.4-5.9,3.8l-17.5-3.9c-2.7-0.6-4.4-3.2-3.8-5.9l0,0
			c0.6-2.7,3.2-4.4,5.9-3.8L558,181C560.7,181.6,562.4,184.3,561.8,186.9z"/>
	</g>
	<g>
		<path class="st2" d="M115.6,561c-1.7,0.2-3.5,0.4-5.4,0.5C112.2,561.7,114,561.5,115.6,561z"/>
		<path class="st2" d="M384.5,311.3c-0.3-1.6-1-3.1-2.2-4.7c-10.1-13.9-31.5-10.7-48.5-11.3c-7.6-0.6-16.4-5-17.3-13.8
			c-0.5-1.9-0.9-3.9-1.1-6c-3.2-27.5,12.6-72.1-28.3-72.1c-29.6,0-55.6,14-77.7,32.9c-4.4,3.8-8.7,7.8-12.8,11.9
			c-3.7,3.3-7.2,6.7-10.4,10.2c-3.3,3.6-6.3,7.2-9.2,11c-3.4,4.2-6.2,8.6-8.5,13.2c-2.3,4.7-4.1,9.5-5.6,14.6c-1.2,4-2.2,8-3.1,12
			c-1.8,9.7-2.6,19.4-2.7,29c-0.1,9.6,0.6,19.2,1.5,28.8c1.9,28.8,12.7,56.7,3.7,85.5c-3.4,11.2,3.8,19.7,13.4,23.8
			c1.9,0.8,3.9,1.5,6,2.5c6.7,6.1,7.6,17.8,14.8,19.6c9.9,4.5,9.9-14.4,12.6-22.5c0.9-3.6,0-7.2,0.4-10.9c0-1.7,0.1-3.5,0.1-5.2
			c0-1.7,0.1-3.4,0.1-5c0-1.7,0-3.3,0-5c0-1.7,0-3.3,0.1-4.9c0-2.2,0-4.4-0.1-6.6c-0.9-28.6-6.6-58.9,22-73.2
			c4.5-2.7,11.7,3.6,18,3.6c5.4,0,9-3.6,11.3-7.2c5.3-3.7,11-6.8,17.9-5.9c2.1,0,4.2,0,6.3,0c13.3,0.6,11.4,18.2,15.8,27.1
			c2.5,3.8,7.6,3.8,10.1,0.6c9.6-14.2,21.3-22.2,34.5-30.1c1.5-0.9,3-1.7,4.5-2.6c1.6,0.1,3.3,0.2,5,0.3c1.8,0.1,3.5,0.1,5.3,0
			c1.7,0.1,3.5,0.1,5.4,0.1c2-0.1,4-0.2,6.1-0.5c1.5-0.3,3.1-0.6,4.8-1c2-0.3,4-0.7,6.1-1.1c1.8-0.2,3.6-0.4,5.4-0.7
			c9.8-1.5,27.8-5.1,24.2-17.7c-1.8-6.3-10.8-8.1-17.8-9.9c-1.6-0.6-3.2-1.2-4.6-1.9c-1.4-0.7-2.6-1.5-3.6-2.3
			C385.7,314.4,385,312.9,384.5,311.3z"/>
		<g>
			<circle class="st15" cx="237.2" cy="234.5" r="24.6"/>
			<circle class="st16" cx="235.3" cy="232.6" r="24.6"/>
			<ellipse class="st10" cx="233.9" cy="229.3" rx="20.4" ry="21.3"/>
			<g>
				<circle class="st17" cx="224.6" cy="232.1" r="8.6"/>
				<ellipse class="st16" cx="221.7" cy="229" rx="2.5" ry="2.5"/>
				<ellipse class="st16" cx="223.3" cy="233.1" rx="1.3" ry="1.2"/>
				<ellipse class="st16" cx="225.7" cy="230.6" rx="1.3" ry="1.2"/>
			</g>
		</g>
		<g>
			<circle class="st15" cx="293.2" cy="235.2" r="24.6"/>
			<circle class="st16" cx="291.3" cy="233.3" r="24.6"/>
			<ellipse class="st10" cx="290" cy="230" rx="20.4" ry="21.3"/>
			<g>
				<circle class="st17" cx="276.4" cy="233" r="8.6"/>
				<ellipse class="st16" cx="273.6" cy="229.9" rx="2.5" ry="2.5"/>
				<ellipse class="st16" cx="275.1" cy="234" rx="1.3" ry="1.2"/>
				<ellipse class="st16" cx="277.5" cy="231.4" rx="1.3" ry="1.2"/>
			</g>
		</g>
		<path class="st17" d="M311.6,287.6c0,19-13.7,34.3-30.6,34.3l-25.4,0c-16.9,0-30.6-15.4-30.6-34.3l0-18c0,0,38.5,0,64.1,0
			c12.8,0,22.5,0,22.5,0L311.6,287.6z"/>
		<path class="st2" d="M244.9,295.1c0-7.7,7.7-13.9,17.1-13.9l7.1,4.8l7.1-4.8c9.4,0,17.1,6.2,17.1,13.9v7.3l-48.4,0V295.1z"/>
		<g>
			<defs>
				<path id="SVGID_64_" d="M311.6,287.6c0,19-13.7,34.3-30.6,34.3l-25.4,0c-16.9,0-30.6-15.4-30.6-34.3l0-18c0,0,38.5,0,64.1,0
					c12.8,0,22.5,0,22.5,0L311.6,287.6z"/>
			</defs>
			<clipPath id="SVGID_2_">
				<use xlink:href="#SVGID_64_"  style="overflow:visible;"/>
			</clipPath>
			<path style="clip-path:url(#SVGID_2_);fill:#F7EFDF;" d="M244.8,267.3c0,6.1-3,8.8-6.6,8.8l-5.5,0c-3.6,0-6.6-2.7-6.6-8.8v-5.8
				l18.6,0V267.3z"/>
			<path style="clip-path:url(#SVGID_2_);fill:#F7EFDF;" d="M265.3,267.3c0,6.1-3,8.8-6.6,8.8h-5.5c-3.6,0-6.6-2.7-6.6-8.8v-5.8
				h18.6V267.3z"/>
			<path style="clip-path:url(#SVGID_2_);fill:#F7EFDF;" d="M285.8,267.3c0,6.1-3,8.8-6.6,8.8l-5.5,0c-3.6,0-6.6-2.7-6.6-8.8v-5.8
				l18.6,0V267.3z"/>
			<path style="clip-path:url(#SVGID_2_);fill:#F7EFDF;" d="M276,317.7c0-6.1,3-8.8,6.6-8.8h5.5c3.6,0,6.6,2.7,6.6,8.8v5.8H276
				V317.7z"/>
			<path style="clip-path:url(#SVGID_2_);fill:#F7EFDF;" d="M255.5,317.7c0-6.1,3-8.8,6.6-8.8h5.5c3.6,0,6.6,2.7,6.6,8.8v5.8h-18.6
				V317.7z"/>
			<path style="clip-path:url(#SVGID_2_);fill:#F7EFDF;" d="M235.1,317.7c0-6.1,3-8.8,6.6-8.8h5.5c3.6,0,6.6,2.7,6.6,8.8v5.8
				l-18.6,0V317.7z"/>
			<path style="clip-path:url(#SVGID_2_);fill:#F7EFDF;" d="M306.3,267.3c0,6.1-3,8.8-6.6,8.8h-5.5c-3.6,0-6.6-2.7-6.6-8.8v-5.8
				h18.6V267.3z"/>
		</g>
	</g>
	<path class="st64" d="M395.8,181.7c-0.9,0-1.8,0.1-2.7,0.5c-1.3,1-1.5,1.5-2.9,2.6c1.3,3.9,3.4,6.9,3.5,12.2
		c-0.1-4.2-8-2.7-10.7-5.5c-4.6,4-6.7,6.5-7,10.6c3.2,0.9,15.3,4.9,18.2,2.6c-1.1,3.9-11.5,6.1-12.4,6.8c2.8,0.2,6.2-0.2,9-0.2
		c2.7,0,4.5-0.9,6.3-2.7C404.3,202.3,407.9,187,395.8,181.7z"/>
	<path class="st11" d="M453.8,246.2c-2.8,2-4.6,9.4-5,12.7c1.2-0.6,2.4-0.4,3.4,0.6c-1.7,5.9-4.5,13.6-2.8,19.7
		c1.7,6.2,7.8,9.9,12.6,4.8c1.6-1.7,2.6-3.9,3.7-5.8c8.9,7.6,11.4-7.9,12.2-13.8c1.2-9.4-3.5-20.9-11.1-26.5"/>
	<g>
		<g>
			<polygon class="st63" points="657.2,470.6 203.7,492.1 205.7,331.7 657.2,351.4 			"/>
			<path class="st2" d="M216.4,458.9c21.5,9.4,7.9,44.6,8.9,61.4c0.4,7,2,15.9,10.7,15.3c10.2-0.7,10-14.9,10.8-22.9
				c0.8-7.5,6.6-30.2,12.6-11.4c3.8,11.6-0.1,23.8,10,34c19.2,19.5,18.4-14.9,18.9-27.7c0.3-7.7,1-16.9,6.6-22.9
				c10.1-10.9,9.8,0.1,18.3,3.4c13.1,5.1,26.1-19.5,29.9-29.3c4.9-12.7,3.1-30.3-0.8-43.1"/>
			<path class="st188" d="M262.8,430.5c0,3.3-0.5,6.3-1.4,9.1c-0.9,2.7-2.6,5-4.9,6.9c-2.4,1.9-5.6,3.4-9.7,4.5
				c-4.1,1.1-9.4,1.6-15.7,1.6c-6.3,0-11.5-0.5-15.6-1.6c-4.1-1.1-7.3-2.6-9.7-4.5c-2.4-1.9-4-4.2-4.9-6.9c-0.9-2.7-1.4-5.7-1.4-9.1
				v-17.6c0-1.4,0.3-2.4,0.9-3c0.6-0.6,1.6-0.9,3-0.9h15.7c1.4,0,2.4,0.3,3,0.9c0.6,0.6,0.9,1.6,0.9,3v13.2c0,1.4,0.5,2.7,1.4,3.6
				c0.9,1,3,1.5,6.3,1.5c3.1,0,5.1-0.5,5.9-1.5c0.8-1,1.2-2.2,1.2-3.6l0-49.4c0-1.4,0.3-2.4,0.9-3c0.6-0.6,1.6-0.9,3-0.9h17
				c1.4,0,2.4,0.3,3,0.9c0.6,0.6,0.9,1.6,0.9,3V430.5z"/>
			<path class="st189" d="M343.7,430.5c0,3.3-0.5,6.3-1.5,9.1c-1,2.7-2.7,5-5.2,6.9c-2.5,1.9-5.9,3.4-10.3,4.5
				c-4.3,1.1-9.9,1.6-16.6,1.6s-12.3-0.5-16.6-1.6c-4.3-1.1-7.8-2.6-10.3-4.5c-2.5-1.9-4.2-4.2-5.2-6.9c-1-2.7-1.5-5.7-1.5-9.1
				v-53.7c0-1.4,0.3-2.4,0.9-3c0.6-0.6,1.6-0.9,3-0.9h17c1.4,0,2.4,0.3,3,0.9c0.6,0.6,0.9,1.6,0.9,3l0,49.5c0,1.4,0.5,2.7,1.6,3.6
				c1.1,1,3.5,1.5,7.3,1.5c3.8,0,6.3-0.5,7.4-1.5s1.6-2.2,1.6-3.6v-49.5c0-1.4,0.3-2.4,0.9-3c0.6-0.6,1.6-0.9,3-0.9h16.5
				c1.4,0,2.4,0.3,3,0.9c0.6,0.6,0.9,1.6,0.9,3V430.5z"/>
			<path class="st29" d="M412.4,451h-50.4c-1.4,0-2.4-0.3-3-0.9c-0.6-0.6-0.9-1.6-0.9-3l0-70.3c0-1.4,0.3-2.4,0.9-3
				c0.6-0.6,1.6-0.9,3-0.9h50.4c1.4,0,2.4,0.3,3,0.9c0.6,0.6,0.9,1.6,0.9,3v12.7c0,1.4-0.3,2.4-0.9,3c-0.6,0.6-1.6,0.9-3,0.9h-30
				v8.4h21.2c1.4,0,2.4,0.3,3,0.9c0.6,0.6,0.9,1.6,0.9,3l0,11.6c0,1.4-0.3,2.4-0.9,3c-0.6,0.6-1.6,0.9-3,0.9h-21.2v9.3h30
				c1.4,0,2.4,0.3,3,0.9c0.6,0.6,0.9,1.6,0.9,3l0,12.7c0,1.4-0.3,2.4-0.9,3C414.8,450.7,413.8,451,412.4,451z"/>
			<path class="st190" d="M480.6,451h-26.5c-9,0-15.8-1.8-20.1-5.4c-4.4-3.6-6.6-9.2-6.6-16.7v-33.7c0-7.5,2.2-13.1,6.6-16.8
				c4.4-3.7,11.1-5.5,20.1-5.5h26.5c1.4,0,2.4,0.3,3,0.9c0.6,0.6,0.9,1.6,0.9,3v13.1c0,1.4-0.3,2.4-0.9,3c-0.6,0.6-1.6,0.9-3,0.9
				h-21.8c-2.2,0-3.9,0.5-5,1.4c-1.1,0.9-1.6,2.3-1.6,4.1l0,25.8c0,1.8,0.5,3.1,1.6,4c1.1,0.8,2.7,1.2,5,1.2h21.8
				c1.4,0,2.4,0.3,3,0.9c0.6,0.6,0.9,1.6,0.9,3v12.9c0,1.4-0.3,2.4-0.9,3C483,450.7,482,451,480.6,451z"/>
			<path class="st29" d="M562.4,430.5c0,3.3-0.5,6.3-1.5,9.1c-1,2.7-2.7,5-5.2,6.9c-2.5,1.9-5.9,3.4-10.3,4.5
				c-4.4,1.1-9.9,1.6-16.7,1.6s-12.3-0.5-16.7-1.6c-4.4-1.1-7.9-2.6-10.4-4.5s-4.2-4.2-5.2-6.9c-1-2.7-1.5-5.7-1.5-9.1v-37
				c0-3.3,0.5-6.3,1.5-9.1c1-2.7,2.7-5,5.2-7c2.5-2,6-3.5,10.4-4.6c4.4-1.1,10-1.6,16.7-1.6s12.3,0.5,16.7,1.6
				c4.4,1.1,7.8,2.6,10.3,4.6c2.5,2,4.2,4.3,5.2,7c1,2.7,1.5,5.7,1.5,9.1V430.5z M517.8,429.5c0,1.7,0.7,3.2,2,4.4
				c1.3,1.2,4.3,1.8,9,1.8s7.7-0.6,9-1.8c1.3-1.2,2-2.6,2-4.4v-35c0-1.6-0.7-3.1-2-4.2c-1.3-1.2-4.3-1.8-9-1.8c-4.7,0-7.7,0.6-9,1.8
				c-1.3,1.2-2,2.6-2,4.2V429.5z"/>
			<path class="st29" d="M642.4,430.5c0,3.3-0.5,6.3-1.5,9.1c-1,2.7-2.7,5-5.2,6.9c-2.5,1.9-5.9,3.4-10.3,4.5
				c-4.4,1.1-9.9,1.6-16.7,1.6s-12.3-0.5-16.7-1.6c-4.4-1.1-7.9-2.6-10.4-4.5c-2.5-1.9-4.2-4.2-5.2-6.9c-1-2.7-1.5-5.7-1.5-9.1v-37
				c0-3.3,0.5-6.3,1.5-9.1c1-2.7,2.7-5,5.2-7c2.5-2,6-3.5,10.4-4.6c4.4-1.1,10-1.6,16.7-1.6c6.7,0,12.3,0.5,16.7,1.6
				c4.4,1.1,7.8,2.6,10.3,4.6c2.5,2,4.2,4.3,5.2,7c1,2.7,1.5,5.7,1.5,9.1V430.5z M599.6,426.6c0,1.4,0.5,2.7,1.6,3.6
				c1.1,1,3.6,1.5,7.5,1.5c3.9,0,6.4-0.5,7.5-1.5c1.1-1,1.6-2.2,1.6-3.6v-29.2c0-1.4-0.5-2.5-1.6-3.5c-1.1-1-3.6-1.5-7.5-1.5
				c-3.9,0-6.4,0.5-7.5,1.5c-1.1,1-1.6,2.2-1.6,3.5V426.6z"/>
			<line class="st191" x1="549.2" y1="412.1" x2="591.4" y2="412.1"/>
			<g>
				<polyline class="st194" points="508.9,391.5 486.9,388.9 480.5,395.2 				"/>
			</g>
		</g>
		<g id="XMLID_4_">
			<g>
				<g>
					<polygon class="st63" points="641.1,465.8 232.9,485.2 234.7,340.8 644.7,339.3 					"/>
				</g>
				<circle class="st11" cx="713.9" cy="411.1" r="17"/>
				<circle class="st65" cx="713.9" cy="411.1" r="11.2"/>
				<polygon class="st185" points="666.3,493.3 191,469.4 191.8,350.6 661.5,330.1 				"/>
				<path class="st186" d="M537.3,335.5c34.9,43.5,56.2,97.1,83.8,146.8c1.6,3,3.2,5.9,4.8,8.9l40.4,2l-4.8-163.2"/>
				<path class="st186" d="M226.3,349.1c25.4,38.6,42.5,81.6,59.3,125l58.4,2.9c-24.6-43.3-50-86.3-73.7-129.9L226.3,349.1z"/>
				<path class="st186" d="M468.1,338.5l-74.9,3.3c29.5,44.2,51.3,93.2,74.1,141.5l70.4,3.5C516.2,436.5,494.1,386.8,468.1,338.5z"
					/>
				<path class="st65" d="M635.8,458.5L635.8,458.5c-6.3,0-11.5-5.2-11.5-11.5v-41.6c0-6.3,5.2-11.5,11.5-11.5l0,0
					c6.3,0,11.5,5.2,11.5,11.5V447C647.4,453.4,642.2,458.5,635.8,458.5z"/>
				<ellipse class="st11" cx="635.3" cy="394" rx="64.9" ry="43.5"/>
				<polygon class="st185" points="576.2,528 191,532.9 193.1,496.3 				"/>
				<g>
					<polygon class="st63" points="680.1,509.2 190.3,532.4 192.5,494.3 684.5,473.1 					"/>
				</g>
				<ellipse class="st187" cx="635.3" cy="436.6" rx="64.9" ry="43.5"/>
				<ellipse class="st11" cx="635.3" cy="434.1" rx="64.9" ry="43.5"/>
				<path class="st11" d="M633.6,451.7L633.6,451.7c-6.3,0-11.5-5.2-11.5-11.5v-41.6c0-6.3,5.2-11.5,11.5-11.5h0
					c6.3,0,11.5,5.2,11.5,11.5v41.6C645.1,446.5,639.9,451.7,633.6,451.7z"/>
				<path class="st187" d="M263.8,363.4c0-2-0.4-3.4-1.3-4.3c-0.9-0.9-2.3-1.3-4.3-1.3h-24.5c-2,0-3.4,0.4-4.3,1.3
					c-0.9,0.9-1.3,2.3-1.3,4.3v30.1c11.8-2,23.7-3.8,35.8-4.5V363.4z"/>
				<path class="st187" d="M239.9,398.9v36.5c0,1.4-0.4,2.7-1.2,3.6c-0.8,1-2.8,1.5-5.9,1.5c-3.3,0-5.4-0.5-6.3-1.5
					c-0.9-1-1.4-2.2-1.4-3.6v-13.2c0-1.4-0.3-2.4-0.9-3c-0.6-0.6-1.6-0.9-3-0.9h-15.7c-1.4,0-2.4,0.3-3,0.9c-0.6,0.6-0.9,1.6-0.9,3
					v17.6c0,3.3,0.5,6.3,1.4,9.1c0.9,2.7,2.5,5,4.9,6.9c2.4,1.9,5.6,3.4,9.7,4.5c4.1,1.1,9.3,1.6,15.6,1.6c6.4,0,11.6-0.5,15.7-1.6
					c4.1-1.1,7.4-2.6,9.7-4.5c2.4-1.9,4-4.2,4.9-6.9c0.9-2.7,1.4-5.7,1.4-9.1v-44C256.4,396.3,248.1,397.5,239.9,398.9z"/>
				<path class="st187" d="M345.8,431.7c0,3.3-0.5,6.3-1.5,9.1c-1,2.7-2.7,5-5.2,6.9c-2.5,1.9-5.9,3.4-10.3,4.5
					c-4.3,1.1-9.9,1.6-16.6,1.6c-6.7,0-12.3-0.5-16.6-1.6c-4.3-1.1-7.8-2.6-10.3-4.5c-2.5-1.9-4.2-4.2-5.2-6.9
					c-1-2.7-1.5-5.7-1.5-9.1V378c0-1.4,0.3-2.4,0.9-3c0.6-0.6,1.6-0.9,3-0.9h17c1.4,0,2.4,0.3,3,0.9c0.6,0.6,0.9,1.6,0.9,3v49.5
					c0,1.4,0.5,2.7,1.6,3.6c1.1,1,3.5,1.5,7.3,1.5c3.8,0,6.3-0.5,7.4-1.5s1.6-2.2,1.6-3.6V378c0-1.4,0.3-2.4,0.9-3
					c0.6-0.6,1.6-0.9,3-0.9h16.5c1.4,0,2.4,0.3,3,0.9c0.6,0.6,0.9,1.6,0.9,3V431.7z"/>
				<path class="st187" d="M412,452.2h-50.4c-1.4,0-2.4-0.3-3-0.9c-0.6-0.6-0.9-1.6-0.9-3V378c0-1.4,0.3-2.4,0.9-3
					c0.6-0.6,1.6-0.9,3-0.9H412c1.4,0,2.4,0.3,3,0.9c0.6,0.6,0.9,1.6,0.9,3v12.7c0,1.4-0.3,2.4-0.9,3c-0.6,0.6-1.6,0.9-3,0.9h-30
					v8.4h21.2c1.4,0,2.4,0.3,3,0.9c0.6,0.6,0.9,1.6,0.9,3v11.6c0,1.4-0.3,2.4-0.9,3c-0.6,0.6-1.6,0.9-3,0.9h-21.2v9.3h30
					c1.4,0,2.4,0.3,3,0.9c0.6,0.6,0.9,1.6,0.9,3v12.7c0,1.4-0.3,2.4-0.9,3C414.4,451.9,413.4,452.2,412,452.2z"/>
				<path class="st187" d="M472.9,403.9c-0.6-0.6-1.6-0.9-3-0.9h-12.6c0,0,0,0,0,0h-16.6c-1.4,0-2.4,0.3-3,0.9
					c-0.6,0.6-0.9,1.6-0.9,3v11.6c0,1.4,0.3,2.4,0.9,3c0.6,0.6,1.6,0.9,3,0.9h12.6c0,0,0,0,0,0H470c1.4,0,2.4-0.3,3-0.9
					c0.6-0.6,0.9-1.6,0.9-3v-11.6C473.9,405.5,473.6,404.5,472.9,403.9z"/>
				<path class="st187" d="M544.5,452.2H518c-9,0-15.8-1.8-20.1-5.4c-4.4-3.6-6.6-9.2-6.6-16.7v-33.7c0-7.5,2.2-13.1,6.6-16.8
					s11.1-5.5,20.1-5.5h26.5c1.4,0,2.4,0.3,3,0.9c0.6,0.6,0.9,1.6,0.9,3v13.1c0,1.4-0.3,2.4-0.9,3c-0.6,0.6-1.6,0.9-3,0.9h-21.8
					c-2.2,0-3.9,0.5-5,1.4c-1.1,0.9-1.6,2.3-1.6,4.1v25.8c0,1.8,0.5,3.1,1.6,4c1.1,0.8,2.7,1.2,5,1.2h21.8c1.4,0,2.4,0.3,3,0.9
					c0.6,0.6,0.9,1.6,0.9,3v12.9c0,1.4-0.3,2.4-0.9,3C546.9,451.9,545.9,452.2,544.5,452.2z"/>
				<path class="st187" d="M626.3,431.7c0,3.3-0.5,6.3-1.5,9.1c-1,2.7-2.7,5-5.2,6.9c-2.5,1.9-5.9,3.4-10.3,4.5
					c-4.4,1.1-9.9,1.6-16.7,1.6s-12.3-0.5-16.7-1.6c-4.4-1.1-7.9-2.6-10.4-4.5c-2.5-1.9-4.2-4.2-5.2-6.9c-1-2.7-1.5-5.7-1.5-9.1v-37
					c0-3.3,0.5-6.3,1.5-9.1c1-2.7,2.7-5,5.2-7c2.5-2,6-3.5,10.4-4.6c4.4-1.1,10-1.6,16.7-1.6s12.3,0.5,16.7,1.6
					c4.4,1.1,7.8,2.6,10.3,4.6c2.5,2,4.2,4.3,5.2,7c1,2.7,1.5,5.7,1.5,9.1V431.7z M581.7,430.7c0,1.7,0.7,3.2,2,4.4
					c1.3,1.2,4.3,1.8,9,1.8c4.7,0,7.7-0.6,9-1.8c1.3-1.2,2-2.6,2-4.4v-35c0-1.6-0.7-3.1-2-4.2c-1.3-1.2-4.3-1.8-9-1.8
					c-4.7,0-7.7,0.6-9,1.8c-1.3,1.2-2,2.6-2,4.2V430.7z"/>
				<path class="st187" d="M711.1,431.7c0,3.3-0.5,6.3-1.5,9.1c-1,2.7-2.7,5-5.2,6.9c-2.5,1.9-5.9,3.4-10.3,4.5
					c-4.4,1.1-9.9,1.6-16.7,1.6s-12.3-0.5-16.7-1.6c-4.4-1.1-7.9-2.6-10.4-4.5c-2.5-1.9-4.2-4.2-5.2-6.9c-1-2.7-1.5-5.7-1.5-9.1v-37
					c0-3.3,0.5-6.3,1.5-9.1c1-2.7,2.7-5,5.2-7c2.5-2,6-3.5,10.4-4.6c4.4-1.1,10-1.6,16.7-1.6s12.3,0.5,16.7,1.6
					c4.4,1.1,7.8,2.6,10.3,4.6c2.5,2,4.2,4.3,5.2,7c1,2.7,1.5,5.7,1.5,9.1V431.7z M668.3,427.8c0,1.4,0.5,2.7,1.6,3.6
					c1.1,1,3.6,1.5,7.5,1.5c3.9,0,6.4-0.5,7.5-1.5c1.1-1,1.6-2.2,1.6-3.6v-29.2c0-1.4-0.5-2.5-1.6-3.5c-1.1-1-3.6-1.5-7.5-1.5
					c-3.9,0-6.4,0.5-7.5,1.5c-1.1,1-1.6,2.2-1.6,3.5V427.8z"/>
				<path class="st188" d="M261.4,361c0-2-0.4-3.4-1.3-4.3c-0.9-0.9-2.3-1.3-4.3-1.3h-24.5c-2,0-3.4,0.4-4.3,1.3
					c-0.9,0.9-1.3,2.3-1.3,4.3v25.6c0.1,2.2,1.5,3.6,3.2,4c10.7-1.8,21.6-3.3,32.6-3.9V361z"/>
				<path class="st188" d="M237.5,396.5V433c0,1.4-0.4,2.7-1.2,3.6c-0.8,1-2.8,1.5-5.9,1.5c-3.3,0-5.4-0.5-6.3-1.5
					c-0.9-1-1.4-2.2-1.4-3.6v-13.2c0-1.4-0.3-2.4-0.9-3c-0.6-0.6-1.6-0.9-3-0.9H203c-1.4,0-2.4,0.3-3,0.9c-0.6,0.6-0.9,1.6-0.9,3
					v17.6c0,3.3,0.5,6.3,1.4,9.1c0.9,2.7,2.5,5,4.9,6.9c2.4,1.9,5.6,3.4,9.7,4.5c4.1,1.1,9.3,1.6,15.6,1.6c6.4,0,11.6-0.5,15.7-1.6
					s7.4-2.6,9.7-4.5c2.4-1.9,4-4.2,4.9-6.9c0.9-2.7,1.4-5.7,1.4-9.1v-44C254,393.9,245.7,395.1,237.5,396.5z"/>
				<path class="st189" d="M344.9,429.3c0,3.3-0.5,6.3-1.5,9.1s-2.7,5-5.2,6.9c-2.5,1.9-5.9,3.4-10.3,4.5c-4.3,1.1-9.9,1.6-16.6,1.6
					s-12.3-0.5-16.6-1.6c-4.3-1.1-7.8-2.6-10.3-4.5c-2.5-1.9-4.2-4.2-5.2-6.9c-1-2.7-1.5-5.7-1.5-9.1v-53.7c0-1.4,0.3-2.4,0.9-3
					c0.6-0.6,1.6-0.9,3-0.9h17c1.4,0,2.4,0.3,3,0.9c0.6,0.6,0.9,1.6,0.9,3v49.5c0,1.4,0.5,2.7,1.6,3.6c1.1,1,3.5,1.5,7.3,1.5
					c3.8,0,6.3-0.5,7.4-1.5c1.1-1,1.6-2.2,1.6-3.6v-49.5c0-1.4,0.3-2.4,0.9-3c0.6-0.6,1.6-0.9,3-0.9H341c1.4,0,2.4,0.3,3,0.9
					c0.6,0.6,0.9,1.6,0.9,3V429.3z"/>
				<path class="st29" d="M412,449.8h-50.4c-1.4,0-2.4-0.3-3-0.9c-0.6-0.6-0.9-1.6-0.9-3v-70.3c0-1.4,0.3-2.4,0.9-3
					c0.6-0.6,1.6-0.9,3-0.9H412c1.4,0,2.4,0.3,3,0.9c0.6,0.6,0.9,1.6,0.9,3v12.7c0,1.4-0.3,2.4-0.9,3c-0.6,0.6-1.6,0.9-3,0.9h-30
					v8.4h21.2c1.4,0,2.4,0.3,3,0.9c0.6,0.6,0.9,1.6,0.9,3v11.6c0,1.4-0.3,2.4-0.9,3c-0.6,0.6-1.6,0.9-3,0.9h-21.2v9.3h30
					c1.4,0,2.4,0.3,3,0.9c0.6,0.6,0.9,1.6,0.9,3v12.7c0,1.4-0.3,2.4-0.9,3C414.4,449.5,413.4,449.8,412,449.8z"/>
				<path class="st188" d="M470.5,401.5c-0.6-0.6-1.6-0.9-3-0.9h-12.6c0,0,0,0,0,0h-16.6c-1.4,0-2.4,0.3-3,0.9
					c-0.6,0.6-0.9,1.6-0.9,3v11.6c0,1.4,0.3,2.4,0.9,3c0.6,0.6,1.6,0.9,3,0.9h12.6c0,0,0,0,0,0h16.6c1.4,0,2.4-0.3,3-0.9
					c0.6-0.6,0.9-1.6,0.9-3v-11.6C471.5,403.1,471.1,402.1,470.5,401.5z"/>
				<path class="st190" d="M542.1,449.8h-26.5c-9,0-15.8-1.8-20.1-5.4c-4.4-3.6-6.6-9.2-6.6-16.7v-33.7c0-7.5,2.2-13.1,6.6-16.8
					s11.1-5.5,20.1-5.5h26.5c1.4,0,2.4,0.3,3,0.9c0.6,0.6,0.9,1.6,0.9,3v13.1c0,1.4-0.3,2.4-0.9,3c-0.6,0.6-1.6,0.9-3,0.9h-21.8
					c-2.2,0-3.9,0.5-5,1.4c-1.1,0.9-1.6,2.3-1.6,4.1v25.8c0,1.8,0.5,3.1,1.6,4c1.1,0.8,2.7,1.2,5,1.2h21.8c1.4,0,2.4,0.3,3,0.9
					c0.6,0.6,0.9,1.6,0.9,3v12.9c0,1.4-0.3,2.4-0.9,3C544.4,449.5,543.4,449.8,542.1,449.8z"/>
				<circle class="st11" cx="554.2" cy="411.6" r="17"/>
				<circle class="st65" cx="554.2" cy="411.6" r="11.2"/>
				<g>
					<circle class="st10" cx="589.2" cy="412" r="28.3"/>
					<circle class="st20" cx="587" cy="412" r="8.5"/>
					<circle cx="587" cy="412" r="3.3"/>
					<circle class="st72" cx="584.9" cy="408.2" r="2.4"/>
				</g>
				<path class="st29" d="M626.3,429.3c0,3.3-0.5,6.3-1.5,9.1c-1,2.7-2.7,5-5.2,6.9c-2.5,1.9-5.9,3.4-10.3,4.5
					c-4.4,1.1-9.9,1.6-16.7,1.6s-12.3-0.5-16.7-1.6c-4.4-1.1-7.9-2.6-10.4-4.5c-2.5-1.9-4.2-4.2-5.2-6.9c-1-2.7-1.5-5.7-1.5-9.1v-37
					c0-3.3,0.5-6.3,1.5-9.1c1-2.7,2.7-5,5.2-7c2.5-2,6-3.5,10.4-4.6c4.4-1.1,10-1.6,16.7-1.6s12.3,0.5,16.7,1.6
					c4.4,1.1,7.8,2.6,10.3,4.6c2.5,2,4.2,4.3,5.2,7c1,2.7,1.5,5.7,1.5,9.1V429.3z M581.7,428.3c0,1.7,0.7,3.2,2,4.4
					c1.3,1.2,4.3,1.8,9,1.8c4.7,0,7.7-0.6,9-1.8c1.3-1.2,2-2.6,2-4.4v-35c0-1.6-0.7-3.1-2-4.2c-1.3-1.2-4.3-1.8-9-1.8
					c-4.7,0-7.7,0.6-9,1.8c-1.3,1.2-2,2.6-2,4.2V428.3z"/>
				<g>
					<circle class="st10" cx="679.5" cy="412" r="28"/>
					<circle class="st20" cx="673.1" cy="412" r="8.5"/>
					<circle cx="673.1" cy="412" r="3.3"/>
					<circle class="st72" cx="670.9" cy="408.2" r="2.4"/>
				</g>
				<path class="st29" d="M711.1,429.3c0,3.3-0.5,6.3-1.5,9.1c-1,2.7-2.7,5-5.2,6.9c-2.5,1.9-5.9,3.4-10.3,4.5
					c-4.4,1.1-9.9,1.6-16.7,1.6s-12.3-0.5-16.7-1.6c-4.4-1.1-7.9-2.6-10.4-4.5s-4.2-4.2-5.2-6.9c-1-2.7-1.5-5.7-1.5-9.1v-37
					c0-3.3,0.5-6.3,1.5-9.1c1-2.7,2.7-5,5.2-7c2.5-2,6-3.5,10.4-4.6c4.4-1.1,10-1.6,16.7-1.6s12.3,0.5,16.7,1.6
					c4.4,1.1,7.8,2.6,10.3,4.6c2.5,2,4.2,4.3,5.2,7c1,2.7,1.5,5.7,1.5,9.1V429.3z M668.3,425.4c0,1.4,0.5,2.7,1.6,3.6
					c1.1,1,3.6,1.5,7.5,1.5c3.9,0,6.4-0.5,7.5-1.5c1.1-1,1.6-2.2,1.6-3.6v-29.2c0-1.4-0.5-2.5-1.6-3.5c-1.1-1-3.6-1.5-7.5-1.5
					c-3.9,0-6.4,0.5-7.5,1.5c-1.1,1-1.6,2.2-1.6,3.5V425.4z"/>
				<line class="st206" x1="613.1" y1="410.9" x2="655.3" y2="410.9"/>
				<path class="st20" d="M623.7,364.7c-5-1.9-17.3-8.4-16.1-15.3c0.8-4.4,3-3,6.4-1.2c-0.9-2.1-2-9.5,1-10.7
					c3.2-1.3,6.1,4.8,6.2,7.4c-0.4-2.6,2.2-6.2,5.2-5.2c2.7,0.9,1.7,5.4,1.6,7.9c3.5-1.3,7,1.9,6.1,5.7c-0.7,3.3-5.8,6.5-7.6,9.6
					C624.6,366.3,624.7,366.9,623.7,364.7z"/>
				<path class="st74" d="M678.1,464.3c0,0-19.4,14-43.3,14s-43.3-14-43.3-14s21.1,3.8,45,3.8S678.1,464.3,678.1,464.3z"/>
				<g>
					
						<rect x="220.7" y="488.4" transform="matrix(0.9992 -4.014604e-02 4.014604e-02 0.9992 -20.2254 18.2092)" class="st19" width="445.2" height="48.6"/>
					<text transform="matrix(0.9992 -4.014547e-02 4.014900e-02 0.9992 227.0016 525.4003)" class="st187 st207 st208 st209">Juego Colaborativo </text>
					
						<rect x="220.7" y="486.4" transform="matrix(0.9992 -4.014604e-02 4.014604e-02 0.9992 -20.1441 18.2076)" class="st19" width="445.2" height="48.6"/>
					<text transform="matrix(0.9992 -4.014547e-02 4.014900e-02 0.9992 227.0013 523.3753)" class="st10 st207 st208 st209">Juego Colaborativo </text>
				</g>
			</g>
		</g>
	</g>
	<path class="st73" d="M653.3,172.2l-17.7-4.5c-2.5-0.6-4-3.2-3.4-5.7l0,0c0.6-2.5,3.2-4,5.7-3.4l17.7,4.5c2.5,0.6,4,3.2,3.4,5.7v0
		C658.3,171.3,655.8,172.8,653.3,172.2z"/>
	<g>
		
			<radialGradient id="SVGID_4_" cx="706.7166" cy="5147.3301" r="15.3179" gradientTransform="matrix(2.0403 0 0 2.0355 -1024.2909 -10172.4131)" gradientUnits="userSpaceOnUse">
			<stop  offset="0" style="stop-color:#FFFFFF"/>
			<stop  offset="1" style="stop-color:#D8D7D7;stop-opacity:0"/>
		</radialGradient>
		<ellipse style="fill:url(#SVGID_4_);" cx="417.6" cy="305.1" rx="39.6" ry="39.3"/>
		<g>
			<circle class="st41" cx="417.1" cy="303.2" r="24.1"/>
			<linearGradient id="SVGID_6_" gradientUnits="userSpaceOnUse" x1="409.5017" y1="338.4124" x2="423.1892" y2="294.8131">
				<stop  offset="0.1227" style="stop-color:#F1A100"/>
				<stop  offset="0.4163" style="stop-color:#DCA54D;stop-opacity:0.366"/>
				<stop  offset="1" style="stop-color:#E6BF80;stop-opacity:0.2"/>
			</linearGradient>
			<path style="fill:url(#SVGID_6_);" d="M417.1,327.3c13.3,0,24.1-10.8,24.1-24.1c0-1.9-0.2-3.7-0.6-5.4
				c-13.6,8.4-35.1,4-45.1,16.1C399.4,321.8,407.6,327.3,417.1,327.3z"/>
			
				<linearGradient id="SVGID_8_" gradientUnits="userSpaceOnUse" x1="515.3307" y1="1186.2631" x2="542.474" y2="1213.639" gradientTransform="matrix(1.1692 -9.563129e-06 0 1.1692 -209.7747 -1108.3406)">
				<stop  offset="0" style="stop-color:#FFFFFF"/>
				<stop  offset="1" style="stop-color:#D8D7D7;stop-opacity:0"/>
			</linearGradient>
			<circle style="fill:url(#SVGID_8_);" cx="416.5" cy="302.6" r="22.5"/>
			<g>
				
					<linearGradient id="SVGID_9_" gradientUnits="userSpaceOnUse" x1="516.8296" y1="1184.7769" x2="543.973" y2="1212.1528" gradientTransform="matrix(1.1692 -9.563129e-06 0 1.1692 -209.7747 -1108.3406)">
					<stop  offset="0" style="stop-color:#FFFFFF"/>
					<stop  offset="1" style="stop-color:#D8D7D7;stop-opacity:0"/>
				</linearGradient>
				<path class="st33" d="M416.5,280.1c-0.9,0-1.7,0.1-2.6,0.2c11.2,1.3,19.9,10.8,19.9,22.4c0,11.6-8.7,21.1-19.9,22.4
					c0.9,0.1,1.7,0.2,2.6,0.2c12.4,0,22.5-10.1,22.5-22.5C439.1,290.2,429,280.1,416.5,280.1z"/>
			</g>
			
				<radialGradient id="SVGID_10_" cx="416.5625" cy="291.4146" r="15.3179" gradientTransform="matrix(1 0 0 0.4982 0 146.2423)" gradientUnits="userSpaceOnUse">
				<stop  offset="0" style="stop-color:#FFFFFF"/>
				<stop  offset="1" style="stop-color:#D8D7D7;stop-opacity:0"/>
			</radialGradient>
			<ellipse class="st35" cx="416.6" cy="291.4" rx="19.4" ry="9.6"/>
			
				<radialGradient id="SVGID_12_" cx="425.0207" cy="318.6282" r="15.2017" gradientTransform="matrix(0.8737 -0.4864 0.2423 0.4353 -23.5387 386.6871)" gradientUnits="userSpaceOnUse">
				<stop  offset="0" style="stop-color:#FFFFFF"/>
				<stop  offset="6.120825e-02" style="stop-color:#FAFAFA;stop-opacity:0.9388"/>
				<stop  offset="0.3689" style="stop-color:#E7E7E7;stop-opacity:0.6311"/>
				<stop  offset="0.6806" style="stop-color:#DCDBDB;stop-opacity:0.3194"/>
				<stop  offset="1" style="stop-color:#D8D7D7;stop-opacity:0"/>
			</radialGradient>
			<path style="fill:url(#SVGID_12_);" d="M438,311.1c0,5.3-9.5,15.1-20.2,15.1s-19.4-4.3-19.4-9.6s7.4-0.8,18.1-0.8
				S438,305.8,438,311.1z"/>
		</g>
	</g>
	<g>
		
			<radialGradient id="SVGID_13_" cx="765.6021" cy="5149.3125" r="15.3179" gradientTransform="matrix(2.0403 0 0 2.0355 -1024.2909 -10168.3486)" gradientUnits="userSpaceOnUse">
			<stop  offset="0" style="stop-color:#FFFFFF"/>
			<stop  offset="1" style="stop-color:#D8D7D7;stop-opacity:0"/>
		</radialGradient>
		<ellipse class="st39" cx="537.8" cy="313.2" rx="39.6" ry="39.3"/>
		<g>
			<circle class="st41" cx="537.2" cy="311.3" r="24.1"/>
			<linearGradient id="SVGID_14_" gradientUnits="userSpaceOnUse" x1="529.6457" y1="346.512" x2="543.3333" y2="302.9127">
				<stop  offset="0.1227" style="stop-color:#F1A100"/>
				<stop  offset="0.4163" style="stop-color:#DCA54D;stop-opacity:0.366"/>
				<stop  offset="1" style="stop-color:#E6BF80;stop-opacity:0.2"/>
			</linearGradient>
			<path class="st40" d="M537.2,335.4c13.3,0,24.1-10.8,24.1-24.1c0-1.9-0.2-3.7-0.6-5.4c-13.6,8.4-35.1,4-45.1,16.1
				C519.5,329.9,527.7,335.4,537.2,335.4z"/>
			
				<linearGradient id="SVGID_15_" gradientUnits="userSpaceOnUse" x1="618.0881" y1="1193.1914" x2="645.2314" y2="1220.5673" gradientTransform="matrix(1.1692 -9.563129e-06 0 1.1692 -209.7747 -1108.3406)">
				<stop  offset="0" style="stop-color:#FFFFFF"/>
				<stop  offset="1" style="stop-color:#D8D7D7;stop-opacity:0"/>
			</linearGradient>
			<circle class="st42" cx="536.7" cy="310.7" r="22.5"/>
			<g>
				
					<linearGradient id="SVGID_16_" gradientUnits="userSpaceOnUse" x1="619.587" y1="1191.7052" x2="646.7303" y2="1219.0811" gradientTransform="matrix(1.1692 -9.563129e-06 0 1.1692 -209.7747 -1108.3406)">
					<stop  offset="0" style="stop-color:#FFFFFF"/>
					<stop  offset="1" style="stop-color:#D8D7D7;stop-opacity:0"/>
				</linearGradient>
				<path class="st43" d="M536.7,288.2c-0.9,0-1.7,0.1-2.6,0.2c11.2,1.3,19.9,10.8,19.9,22.4c0,11.6-8.7,21.1-19.9,22.4
					c0.9,0.1,1.7,0.2,2.6,0.2c12.4,0,22.5-10.1,22.5-22.5C559.2,298.3,549.1,288.2,536.7,288.2z"/>
			</g>
			
				<radialGradient id="SVGID_17_" cx="536.7065" cy="299.5143" r="15.3179" gradientTransform="matrix(1 0 0 0.4982 0 150.307)" gradientUnits="userSpaceOnUse">
				<stop  offset="0" style="stop-color:#FFFFFF"/>
				<stop  offset="1" style="stop-color:#D8D7D7;stop-opacity:0"/>
			</radialGradient>
			<ellipse class="st44" cx="536.7" cy="299.5" rx="19.4" ry="9.6"/>
			
				<radialGradient id="SVGID_18_" cx="545.1647" cy="326.7278" r="15.2017" gradientTransform="matrix(0.8737 -0.4864 0.2423 0.4353 -10.3294 449.7031)" gradientUnits="userSpaceOnUse">
				<stop  offset="0" style="stop-color:#FFFFFF"/>
				<stop  offset="6.120825e-02" style="stop-color:#FAFAFA;stop-opacity:0.9388"/>
				<stop  offset="0.3689" style="stop-color:#E7E7E7;stop-opacity:0.6311"/>
				<stop  offset="0.6806" style="stop-color:#DCDBDB;stop-opacity:0.3194"/>
				<stop  offset="1" style="stop-color:#D8D7D7;stop-opacity:0"/>
			</radialGradient>
			<path class="st45" d="M558.1,319.2c0,5.3-9.5,15.1-20.2,15.1s-19.4-4.3-19.4-9.6s7.4-0.8,18.1-0.8S558.1,313.9,558.1,319.2z"/>
		</g>
	</g>
	<g>
		
			<radialGradient id="SVGID_19_" cx="740.4599" cy="5135.4365" r="15.3179" gradientTransform="matrix(2.0403 0 0 2.0355 -1024.2909 -10196.8018)" gradientUnits="userSpaceOnUse">
			<stop  offset="0" style="stop-color:#FFFFFF"/>
			<stop  offset="1" style="stop-color:#D8D7D7;stop-opacity:0"/>
		</radialGradient>
		<ellipse class="st46" cx="486.5" cy="256.5" rx="39.6" ry="39.3"/>
		<g>
			<circle class="st41" cx="485.9" cy="254.6" r="24.1"/>
			<linearGradient id="SVGID_20_" gradientUnits="userSpaceOnUse" x1="478.3483" y1="289.8148" x2="492.0358" y2="246.2155">
				<stop  offset="0.1227" style="stop-color:#F1A100"/>
				<stop  offset="0.4163" style="stop-color:#DCA54D;stop-opacity:0.366"/>
				<stop  offset="1" style="stop-color:#E6BF80;stop-opacity:0.2"/>
			</linearGradient>
			<path class="st54" d="M485.9,278.7c13.3,0,24.1-10.8,24.1-24.1c0-1.9-0.2-3.7-0.6-5.4c-13.6,8.4-35.1,4-45.1,16.1
				C468.2,273.2,476.4,278.7,485.9,278.7z"/>
			
				<linearGradient id="SVGID_21_" gradientUnits="userSpaceOnUse" x1="574.2141" y1="1144.6989" x2="601.3575" y2="1172.0748" gradientTransform="matrix(1.1692 -9.563129e-06 0 1.1692 -209.7747 -1108.3406)">
				<stop  offset="0" style="stop-color:#FFFFFF"/>
				<stop  offset="1" style="stop-color:#D8D7D7;stop-opacity:0"/>
			</linearGradient>
			<circle class="st55" cx="485.4" cy="254" r="22.5"/>
			<g>
				
					<linearGradient id="SVGID_22_" gradientUnits="userSpaceOnUse" x1="575.7131" y1="1143.2126" x2="602.8564" y2="1170.5886" gradientTransform="matrix(1.1692 -9.563129e-06 0 1.1692 -209.7747 -1108.3406)">
					<stop  offset="0" style="stop-color:#FFFFFF"/>
					<stop  offset="1" style="stop-color:#D8D7D7;stop-opacity:0"/>
				</linearGradient>
				<path class="st56" d="M485.4,231.5c-0.9,0-1.7,0.1-2.6,0.2c11.2,1.3,19.9,10.8,19.9,22.4c0,11.6-8.7,21.1-19.9,22.4
					c0.9,0.1,1.7,0.2,2.6,0.2c12.4,0,22.5-10.1,22.5-22.5C507.9,241.6,497.8,231.5,485.4,231.5z"/>
			</g>
			
				<radialGradient id="SVGID_23_" cx="485.4091" cy="242.8171" r="15.3179" gradientTransform="matrix(1 0 0 0.4982 0 121.8543)" gradientUnits="userSpaceOnUse">
				<stop  offset="0" style="stop-color:#FFFFFF"/>
				<stop  offset="1" style="stop-color:#D8D7D7;stop-opacity:0"/>
			</radialGradient>
			<ellipse class="st57" cx="485.4" cy="242.8" rx="19.4" ry="9.6"/>
			
				<radialGradient id="SVGID_24_" cx="493.8673" cy="270.0306" r="15.2017" gradientTransform="matrix(0.8737 -0.4864 0.2423 0.4353 -3.0683 392.731)" gradientUnits="userSpaceOnUse">
				<stop  offset="0" style="stop-color:#FFFFFF"/>
				<stop  offset="6.120825e-02" style="stop-color:#FAFAFA;stop-opacity:0.9388"/>
				<stop  offset="0.3689" style="stop-color:#E7E7E7;stop-opacity:0.6311"/>
				<stop  offset="0.6806" style="stop-color:#DCDBDB;stop-opacity:0.3194"/>
				<stop  offset="1" style="stop-color:#D8D7D7;stop-opacity:0"/>
			</radialGradient>
			<path class="st58" d="M506.8,262.5c0,5.3-9.5,15.1-20.2,15.1s-19.4-4.3-19.4-9.6c0-5.3,7.4-0.8,18.1-0.8S506.8,257.2,506.8,262.5
				z"/>
		</g>
	</g>
	<g>
		
			<radialGradient id="SVGID_25_" cx="676.943" cy="5135.106" r="15.3179" gradientTransform="matrix(2.0403 0 0 2.0355 -1024.2909 -10197.4785)" gradientUnits="userSpaceOnUse">
			<stop  offset="0" style="stop-color:#FFFFFF"/>
			<stop  offset="1" style="stop-color:#D8D7D7;stop-opacity:0"/>
		</radialGradient>
		<ellipse class="st59" cx="356.9" cy="255.1" rx="39.6" ry="39.3"/>
		<g>
			<circle class="st41" cx="356.3" cy="253.2" r="24.1"/>
			<linearGradient id="SVGID_26_" gradientUnits="userSpaceOnUse" x1="348.7547" y1="288.4649" x2="362.4423" y2="244.8656">
				<stop  offset="0.1227" style="stop-color:#F1A100"/>
				<stop  offset="0.4163" style="stop-color:#DCA54D;stop-opacity:0.366"/>
				<stop  offset="1" style="stop-color:#E6BF80;stop-opacity:0.2"/>
			</linearGradient>
			<path class="st60" d="M356.3,277.3c13.3,0,24.1-10.8,24.1-24.1c0-1.9-0.2-3.7-0.6-5.4c-13.6,8.4-35.1,4-45.1,16.1
				C338.7,271.8,346.8,277.3,356.3,277.3z"/>
			
				<linearGradient id="SVGID_27_" gradientUnits="userSpaceOnUse" x1="463.3747" y1="1143.5435" x2="490.518" y2="1170.9194" gradientTransform="matrix(1.1692 -9.563129e-06 0 1.1692 -209.7747 -1108.3406)">
				<stop  offset="0" style="stop-color:#FFFFFF"/>
				<stop  offset="1" style="stop-color:#D8D7D7;stop-opacity:0"/>
			</linearGradient>
			<circle class="st61" cx="355.8" cy="252.7" r="22.5"/>
			<g>
				
					<linearGradient id="SVGID_28_" gradientUnits="userSpaceOnUse" x1="464.8737" y1="1142.0573" x2="492.017" y2="1169.4331" gradientTransform="matrix(1.1692 -9.563129e-06 0 1.1692 -209.7747 -1108.3406)">
					<stop  offset="0" style="stop-color:#FFFFFF"/>
					<stop  offset="1" style="stop-color:#D8D7D7;stop-opacity:0"/>
				</linearGradient>
				<path class="st62" d="M355.8,230.2c-0.9,0-1.7,0.1-2.6,0.2c11.2,1.3,19.9,10.8,19.9,22.4c0,11.6-8.7,21.1-19.9,22.4
					c0.9,0.1,1.7,0.2,2.6,0.2c12.4,0,22.5-10.1,22.5-22.5S368.2,230.2,355.8,230.2z"/>
			</g>
			
				<radialGradient id="SVGID_30_" cx="355.8156" cy="241.4671" r="15.3179" gradientTransform="matrix(1 0 0 0.4982 0 121.1769)" gradientUnits="userSpaceOnUse">
				<stop  offset="0" style="stop-color:#FFFFFF"/>
				<stop  offset="1" style="stop-color:#D8D7D7;stop-opacity:0"/>
			</radialGradient>
			<ellipse style="fill:url(#SVGID_30_);" cx="355.8" cy="241.5" rx="19.4" ry="9.6"/>
			
				<radialGradient id="SVGID_32_" cx="364.2737" cy="268.6807" r="15.2017" gradientTransform="matrix(0.8737 -0.4864 0.2423 0.4353 -19.1065 328.9303)" gradientUnits="userSpaceOnUse">
				<stop  offset="0" style="stop-color:#FFFFFF"/>
				<stop  offset="6.120825e-02" style="stop-color:#FAFAFA;stop-opacity:0.9388"/>
				<stop  offset="0.3689" style="stop-color:#E7E7E7;stop-opacity:0.6311"/>
				<stop  offset="0.6806" style="stop-color:#DCDBDB;stop-opacity:0.3194"/>
				<stop  offset="1" style="stop-color:#D8D7D7;stop-opacity:0"/>
			</radialGradient>
			<path style="fill:url(#SVGID_32_);" d="M377.2,261.2c0,5.3-9.5,15.1-20.2,15.1s-19.4-4.3-19.4-9.6s7.4-0.8,18.1-0.8
				S377.2,255.9,377.2,261.2z"/>
		</g>
	</g>
	<g>
		
			<radialGradient id="SVGID_34_" cx="774.2033" cy="5130.1504" r="15.3179" gradientTransform="matrix(2.0403 0 0 2.0355 -1024.2909 -10207.6406)" gradientUnits="userSpaceOnUse">
			<stop  offset="0" style="stop-color:#FFFFFF"/>
			<stop  offset="1" style="stop-color:#D8D7D7;stop-opacity:0"/>
		</radialGradient>
		<ellipse style="fill:url(#SVGID_34_);" cx="555.3" cy="234.9" rx="39.6" ry="39.3"/>
		<g>
			<circle class="st41" cx="554.8" cy="233" r="24.1"/>
			<linearGradient id="SVGID_36_" gradientUnits="userSpaceOnUse" x1="547.1949" y1="268.2159" x2="560.8824" y2="224.6166">
				<stop  offset="0.1227" style="stop-color:#F1A100"/>
				<stop  offset="0.4163" style="stop-color:#DCA54D;stop-opacity:0.366"/>
				<stop  offset="1" style="stop-color:#E6BF80;stop-opacity:0.2"/>
			</linearGradient>
			<path style="fill:url(#SVGID_36_);" d="M554.8,257.1c13.3,0,24.1-10.8,24.1-24.1c0-1.9-0.2-3.7-0.6-5.4
				c-13.6,8.4-35.1,4-45.1,16.1C537.1,251.6,545.3,257.1,554.8,257.1z"/>
			
				<linearGradient id="SVGID_38_" gradientUnits="userSpaceOnUse" x1="633.0975" y1="1126.2262" x2="660.2409" y2="1153.6022" gradientTransform="matrix(1.1692 -9.563129e-06 0 1.1692 -209.7747 -1108.3406)">
				<stop  offset="0" style="stop-color:#FFFFFF"/>
				<stop  offset="1" style="stop-color:#D8D7D7;stop-opacity:0"/>
			</linearGradient>
			<circle style="fill:url(#SVGID_38_);" cx="554.2" cy="232.4" r="22.5"/>
			<g>
				
					<linearGradient id="SVGID_39_" gradientUnits="userSpaceOnUse" x1="634.5965" y1="1124.74" x2="661.7399" y2="1152.116" gradientTransform="matrix(1.1692 -9.563129e-06 0 1.1692 -209.7747 -1108.3406)">
					<stop  offset="0" style="stop-color:#FFFFFF"/>
					<stop  offset="1" style="stop-color:#D8D7D7;stop-opacity:0"/>
				</linearGradient>
				<path class="st111" d="M554.2,209.9c-0.9,0-1.7,0.1-2.6,0.2c11.2,1.3,19.9,10.8,19.9,22.4s-8.7,21.1-19.9,22.4
					c0.9,0.1,1.7,0.2,2.6,0.2c12.4,0,22.5-10.1,22.5-22.5S566.7,209.9,554.2,209.9z"/>
			</g>
			
				<radialGradient id="SVGID_40_" cx="554.2557" cy="221.2181" r="15.3179" gradientTransform="matrix(1 0 0 0.4982 0 111.0152)" gradientUnits="userSpaceOnUse">
				<stop  offset="0" style="stop-color:#FFFFFF"/>
				<stop  offset="1" style="stop-color:#D8D7D7;stop-opacity:0"/>
			</radialGradient>
			<ellipse class="st112" cx="554.3" cy="221.2" rx="19.4" ry="9.6"/>
			
				<radialGradient id="SVGID_41_" cx="562.7139" cy="248.4317" r="15.2017" gradientTransform="matrix(0.8737 -0.4864 0.2423 0.4353 10.8596 414.0223)" gradientUnits="userSpaceOnUse">
				<stop  offset="0" style="stop-color:#FFFFFF"/>
				<stop  offset="6.120825e-02" style="stop-color:#FAFAFA;stop-opacity:0.9388"/>
				<stop  offset="0.3689" style="stop-color:#E7E7E7;stop-opacity:0.6311"/>
				<stop  offset="0.6806" style="stop-color:#DCDBDB;stop-opacity:0.3194"/>
				<stop  offset="1" style="stop-color:#D8D7D7;stop-opacity:0"/>
			</radialGradient>
			<path class="st113" d="M575.7,240.9c0,5.3-9.5,15.1-20.2,15.1s-19.4-4.3-19.4-9.6s7.4-0.8,18.1-0.8S575.7,235.6,575.7,240.9z"/>
		</g>
	</g>
	<g>
		
			<radialGradient id="SVGID_42_" cx="719.9492" cy="5123.543" r="15.3179" gradientTransform="matrix(2.0403 0 0 2.0355 -1024.2909 -10221.1895)" gradientUnits="userSpaceOnUse">
			<stop  offset="0" style="stop-color:#FFFFFF"/>
			<stop  offset="1" style="stop-color:#D8D7D7;stop-opacity:0"/>
		</radialGradient>
		<ellipse class="st114" cx="444.6" cy="207.9" rx="39.6" ry="39.3"/>
		<g>
			<circle class="st41" cx="444.1" cy="206" r="24.1"/>
			<linearGradient id="SVGID_44_" gradientUnits="userSpaceOnUse" x1="436.5004" y1="241.2173" x2="450.1879" y2="197.6179">
				<stop  offset="0.1227" style="stop-color:#F1A100"/>
				<stop  offset="0.4163" style="stop-color:#DCA54D;stop-opacity:0.366"/>
				<stop  offset="1" style="stop-color:#E6BF80;stop-opacity:0.2"/>
			</linearGradient>
			<path style="fill:url(#SVGID_44_);" d="M444.1,230.1c13.3,0,24.1-10.8,24.1-24.1c0-1.9-0.2-3.7-0.6-5.4
				c-13.6,8.4-35.1,4-45.1,16.1C426.4,224.6,434.6,230.1,444.1,230.1z"/>
			
				<linearGradient id="SVGID_46_" gradientUnits="userSpaceOnUse" x1="538.4222" y1="1103.1339" x2="565.5656" y2="1130.5099" gradientTransform="matrix(1.1692 -9.563129e-06 0 1.1692 -209.7747 -1108.3406)">
				<stop  offset="0" style="stop-color:#FFFFFF"/>
				<stop  offset="1" style="stop-color:#D8D7D7;stop-opacity:0"/>
			</linearGradient>
			<circle style="fill:url(#SVGID_46_);" cx="443.5" cy="205.4" r="22.5"/>
			<g>
				
					<linearGradient id="SVGID_48_" gradientUnits="userSpaceOnUse" x1="539.9212" y1="1101.6477" x2="567.0645" y2="1129.0237" gradientTransform="matrix(1.1692 -9.563129e-06 0 1.1692 -209.7747 -1108.3406)">
					<stop  offset="0" style="stop-color:#FFFFFF"/>
					<stop  offset="1" style="stop-color:#D8D7D7;stop-opacity:0"/>
				</linearGradient>
				<path style="fill:url(#SVGID_48_);" d="M443.5,182.9c-0.9,0-1.7,0.1-2.6,0.2c11.2,1.3,19.9,10.8,19.9,22.4
					c0,11.6-8.7,21.1-19.9,22.4c0.9,0.1,1.7,0.2,2.6,0.2c12.4,0,22.5-10.1,22.5-22.5C466.1,193,456,182.9,443.5,182.9z"/>
			</g>
			
				<radialGradient id="SVGID_50_" cx="443.5612" cy="194.2195" r="15.3179" gradientTransform="matrix(1 0 0 0.4982 0 97.4663)" gradientUnits="userSpaceOnUse">
				<stop  offset="0" style="stop-color:#FFFFFF"/>
				<stop  offset="1" style="stop-color:#D8D7D7;stop-opacity:0"/>
			</radialGradient>
			<ellipse style="fill:url(#SVGID_50_);" cx="443.6" cy="194.2" rx="19.4" ry="9.6"/>
			
				<radialGradient id="SVGID_52_" cx="452.0194" cy="221.433" r="15.2017" gradientTransform="matrix(0.8737 -0.4864 0.2423 0.4353 3.4234 344.9297)" gradientUnits="userSpaceOnUse">
				<stop  offset="0" style="stop-color:#FFFFFF"/>
				<stop  offset="6.120825e-02" style="stop-color:#FAFAFA;stop-opacity:0.9388"/>
				<stop  offset="0.3689" style="stop-color:#E7E7E7;stop-opacity:0.6311"/>
				<stop  offset="0.6806" style="stop-color:#DCDBDB;stop-opacity:0.3194"/>
				<stop  offset="1" style="stop-color:#D8D7D7;stop-opacity:0"/>
			</radialGradient>
			<path style="fill:url(#SVGID_52_);" d="M465,213.9c0,5.3-9.5,15.1-20.2,15.1s-19.4-4.3-19.4-9.6c0-5.3,7.4-0.8,18.1-0.8
				S465,208.6,465,213.9z"/>
		</g>
	</g>
	<path class="st11" d="M629.9,305.3L629.9,305.3c3.7,1.2,7.3,0.5,7.9-1.5l7.3-19.2c0.7-2-1.8-4.6-5.5-5.9l0,0
		c-3.7-1.2-7.3-0.5-7.9,1.5l-7.3,19.2C623.7,301.5,626.2,304.1,629.9,305.3z"/>
	<path class="st11" d="M642.6,309.7L642.6,309.7c3.7,1.2,7.3,0.3,8.1-1.9l8.2-21.7c0.7-2.3-1.7-5.1-5.4-6.3l0,0
		c-3.7-1.2-7.3-0.3-8.1,1.9l-8.2,21.7C636.5,305.7,638.9,308.5,642.6,309.7z"/>
	<path class="st11" d="M654,312.1L654,312.1c3.7,1.2,7.3,0.3,8.1-1.9l8.2-21.7c0.7-2.3-1.7-5.1-5.4-6.3l0,0
		c-3.7-1.2-7.3-0.3-8.1,1.9l-8.2,21.7C647.9,308.1,650.3,310.9,654,312.1z"/>
	<path class="st2" d="M209,556c4.3-6.2,6.6-32.6-7-28.2c-6.2,8-7.8,25.8,3.8,30.1c3.3-1.1,5-3.6,5-7.3"/>
</g>
<g id="Layer_2">
</g>
</svg>
