<?xml version="1.0" encoding="utf-8"?>
<!-- Generator: Adobe Illustrator 21.1.0, SVG Export Plug-In . SVG Version: 6.00 Build 0)  -->
<svg version="1.1" xmlns="http://www.w3.org/2000/svg" xmlns:xlink="http://www.w3.org/1999/xlink" x="0px" y="0px"
	 viewBox="0 0 841.9 595.3" style="enable-background:new 0 0 841.9 595.3;" xml:space="preserve">
<style type="text/css">
	.st0{fill:#601515;}
	.st1{fill:#3FBA51;}
	.st2{fill:none;stroke:#601515;stroke-width:2;stroke-miterlimit:10;}
	.st3{fill:#F2C85F;}
	.st4{fill:#F2D3AD;}
	.st5{fill:#674C91;}
	.st6{fill:#DCFFC5;}
	.st7{fill:#8BAA77;}
	.st8{clip-path:url(#SVGID_2_);fill:#F1F3F7;}
	.st9{opacity:0.4;clip-path:url(#SVGID_2_);fill:#DCDDE0;}
	.st10{clip-path:url(#SVGID_2_);fill:#0076B7;}
	.st11{clip-path:url(#SVGID_2_);fill:#FFFFFF;}
	.st12{clip-path:url(#SVGID_2_);}
	.st13{fill:#FFFFFF;}
	.st14{fill:#F7CFA2;}
	.st15{fill:#ECB8FF;}
	.st16{fill:#393D47;}
	.st17{fill:#E86767;}
	.st18{opacity:0.1;fill:#3C2813;}
	.st19{fill:#EEEBE7;}
	.st20{fill:#3C2813;}
	.st21{fill:#795ACC;}
	.st22{fill:none;}
	.st23{clip-path:url(#SVGID_6_);fill:#F7EFDF;}
	.st24{fill:#3EBA50;}
	.st25{display:none;opacity:0.3;}
	.st26{fill:#F7EFDF;}
	.st27{fill:#4E9FA8;}
	.st28{fill:none;stroke:#231F20;stroke-width:2;stroke-miterlimit:10;}
	.st29{fill:#231F20;}
	.st30{fill:none;stroke:#674C91;stroke-miterlimit:10;}
	.st31{fill:#601515;stroke:#601515;stroke-miterlimit:10;}
	.st32{fill:none;stroke:#601515;stroke-miterlimit:10;}
	.st33{fill:none;stroke:#FFFFFF;stroke-miterlimit:10;}
	.st34{fill:url(#SVGID_9_);}
	.st35{fill:#601515;stroke:#8C8779;stroke-width:6;stroke-miterlimit:10;}
	.st36{fill:url(#SVGID_10_);}
	.st37{fill:none;stroke:#4E9FA8;stroke-width:12;stroke-miterlimit:10;}
	.st38{fill:#E0EA18;}
	.st39{clip-path:url(#SVGID_12_);fill:#F7EFDF;}
	.st40{fill:url(#SVGID_13_);}
	.st41{fill:url(#SVGID_14_);}
	.st42{fill:#EFEA35;}
	.st43{fill:url(#SVGID_15_);}
	.st44{fill:url(#SVGID_16_);}
	.st45{fill:url(#SVGID_17_);}
	.st46{fill:url(#SVGID_18_);}
	.st47{fill:url(#SVGID_19_);}
	.st48{fill:#C1C1B8;}
	.st49{fill:#9B9B97;}
	.st50{fill:#D8D8D2;}
	.st51{opacity:0.4;}
	.st52{opacity:0.6;}
	.st53{fill:#CEBABA;}
	.st54{fill:#EAEAE5;}
	.st55{fill:url(#SVGID_20_);}
	.st56{fill:url(#SVGID_21_);}
	.st57{fill:url(#SVGID_22_);}
	.st58{fill:url(#SVGID_23_);}
	.st59{fill:url(#SVGID_24_);}
	.st60{fill:url(#SVGID_25_);}
	.st61{fill:url(#SVGID_26_);}
	.st62{fill:url(#SVGID_27_);}
	.st63{fill:url(#SVGID_28_);}
	.st64{fill:#6BA8B2;}
	.st65{fill:#F1F3F7;}
	.st66{fill:#F0BA7A;}
	.st67{opacity:0.4;fill:#DCDDE0;}
	.st68{fill:#0076B7;}
	.st69{opacity:0.3;}
	.st70{fill:#DCDDE0;}
	.st71{fill:#004868;}
	.st72{opacity:0.1;fill:#601515;}
	.st73{fill:#F9F9F9;}
	.st74{fill:#24272D;}
	.st75{fill:#EA6D50;}
	.st76{clip-path:url(#SVGID_30_);fill:#F0BA7A;}
	.st77{clip-path:url(#SVGID_30_);fill:#F1F3F7;}
	.st78{opacity:0.4;clip-path:url(#SVGID_30_);fill:#DCDDE0;}
	.st79{clip-path:url(#SVGID_30_);fill:#0076B7;}
	.st80{clip-path:url(#SVGID_30_);fill:#FFFFFF;}
	.st81{clip-path:url(#SVGID_30_);}
	.st82{opacity:0.3;fill:#601515;}
	.st83{fill:#5B1010;}
	.st84{clip-path:url(#SVGID_32_);fill:#F1F3F7;}
	.st85{clip-path:url(#SVGID_32_);fill:#F0BA7A;}
	.st86{opacity:0.4;clip-path:url(#SVGID_32_);fill:#DCDDE0;}
	.st87{clip-path:url(#SVGID_32_);fill:#0076B7;}
	.st88{clip-path:url(#SVGID_32_);fill:#FFFFFF;}
	.st89{clip-path:url(#SVGID_32_);}
	.st90{fill:#1F74C9;}
	.st91{fill:#595959;}
	.st92{opacity:0.1;fill:#8BAA77;}
	.st93{opacity:0.3;fill:#8BAA77;}
	.st94{opacity:0.1;fill:#595959;}
	.st95{opacity:0.3;fill:#595959;}
	.st96{fill:#9E921E;}
	.st97{clip-path:url(#SVGID_34_);fill:#F0BA7A;}
	.st98{clip-path:url(#SVGID_34_);fill:#F1F3F7;}
	.st99{clip-path:url(#SVGID_34_);}
	.st100{clip-path:url(#SVGID_34_);fill:#393D47;}
	.st101{clip-path:url(#SVGID_34_);fill:#FFFFFF;}
	.st102{opacity:0.4;clip-path:url(#SVGID_34_);fill:#DCDDE0;}
	.st103{clip-path:url(#SVGID_34_);fill:#0076B7;}
	.st104{fill:#B72C34;}
	.st105{clip-path:url(#SVGID_36_);fill:#F1F3F7;}
	.st106{clip-path:url(#SVGID_36_);}
	.st107{clip-path:url(#SVGID_38_);fill:#F1F3F7;}
	.st108{opacity:0.4;clip-path:url(#SVGID_38_);fill:#DCDDE0;}
	.st109{clip-path:url(#SVGID_38_);fill:#0076B7;}
	.st110{clip-path:url(#SVGID_38_);fill:#FFFFFF;}
	.st111{clip-path:url(#SVGID_38_);}
	.st112{fill:url(#SVGID_39_);}
	.st113{fill:url(#SVGID_40_);}
	.st114{fill:url(#SVGID_41_);}
	.st115{fill:url(#SVGID_42_);}
	.st116{fill:#A52323;}
	.st117{clip-path:url(#SVGID_44_);fill:#F1F3F7;}
	.st118{opacity:0.4;clip-path:url(#SVGID_44_);fill:#DCDDE0;}
	.st119{clip-path:url(#SVGID_44_);fill:#0076B7;}
	.st120{clip-path:url(#SVGID_44_);fill:#FFFFFF;}
	.st121{clip-path:url(#SVGID_44_);}
	.st122{fill:#023142;}
	.st123{clip-path:url(#SVGID_46_);fill:#F7CFA2;}
	.st124{clip-path:url(#SVGID_46_);}
	.st125{opacity:0.3;fill:#E57257;}
	.st126{opacity:0.2;}
	.st127{font-family:'ElegantLux-Mager';}
	.st128{font-size:26px;}
	.st129{font-family:'Bungee-Regular';}
	.st130{font-size:22px;}
	.st131{fill:#656D60;}
	.st132{clip-path:url(#SVGID_48_);fill:#F0BA7A;}
	.st133{clip-path:url(#SVGID_48_);fill:#F1F3F7;}
	.st134{opacity:0.4;clip-path:url(#SVGID_48_);fill:#DCDDE0;}
	.st135{clip-path:url(#SVGID_48_);fill:#0076B7;}
	.st136{clip-path:url(#SVGID_48_);fill:#FFFFFF;}
	.st137{clip-path:url(#SVGID_48_);}
	.st138{clip-path:url(#SVGID_50_);fill:#F1F3F7;}
	.st139{opacity:0.4;clip-path:url(#SVGID_50_);fill:#DCDDE0;}
	.st140{clip-path:url(#SVGID_50_);fill:#0076B7;}
	.st141{clip-path:url(#SVGID_50_);fill:#FFFFFF;}
	.st142{clip-path:url(#SVGID_50_);}
	.st143{clip-path:url(#SVGID_52_);fill:#F1F3F7;}
	.st144{opacity:0.4;clip-path:url(#SVGID_52_);fill:#DCDDE0;}
	.st145{clip-path:url(#SVGID_52_);fill:#0076B7;}
	.st146{clip-path:url(#SVGID_52_);fill:#FFFFFF;}
	.st147{clip-path:url(#SVGID_52_);}
	.st148{fill:#9E9E9E;}
	.st149{fill:#878787;}
	.st150{fill:url(#SVGID_53_);}
	.st151{fill:#CE6117;}
	.st152{fill:url(#SVGID_54_);}
	.st153{fill:#EFE91B;}
	.st154{clip-path:url(#SVGID_56_);fill:#F0BA7A;}
	.st155{clip-path:url(#SVGID_56_);fill:#F1F3F7;}
	.st156{opacity:0.4;clip-path:url(#SVGID_56_);fill:#DCDDE0;}
	.st157{clip-path:url(#SVGID_56_);fill:#0076B7;}
	.st158{clip-path:url(#SVGID_56_);fill:#FFFFFF;}
	.st159{clip-path:url(#SVGID_56_);}
	.st160{fill:#B27E49;}
	.st161{clip-path:url(#SVGID_58_);fill:#F1F3F7;}
	.st162{opacity:0.4;clip-path:url(#SVGID_58_);fill:#DCDDE0;}
	.st163{clip-path:url(#SVGID_58_);fill:#0076B7;}
	.st164{clip-path:url(#SVGID_58_);fill:#FFFFFF;}
	.st165{clip-path:url(#SVGID_58_);}
	.st166{fill:#8454D1;}
	.st167{clip-path:url(#SVGID_60_);fill:#393D47;}
	.st168{clip-path:url(#SVGID_60_);fill:#F0BA7A;}
	.st169{clip-path:url(#SVGID_60_);fill:#F1F3F7;}
	.st170{clip-path:url(#SVGID_60_);fill:#0076B7;}
	.st171{clip-path:url(#SVGID_60_);fill:#004868;}
	.st172{opacity:0.4;clip-path:url(#SVGID_60_);fill:#DCDDE0;}
	.st173{clip-path:url(#SVGID_60_);fill:#FFFFFF;}
	.st174{clip-path:url(#SVGID_60_);}
	.st175{fill:none;stroke:#EA6D50;stroke-width:2;stroke-miterlimit:10;}
	.st176{fill:url(#SVGID_61_);}
	.st177{fill:#777777;}
	.st178{fill:#A85848;}
	.st179{fill:#E85646;}
	.st180{fill:#EA4E39;}
	.st181{clip-path:url(#SVGID_63_);fill:#F1F3F7;}
	.st182{clip-path:url(#SVGID_63_);}
	.st183{fill:#B23C18;}
	.st184{fill:#6B2A05;}
	.st185{fill:#B23C18;stroke:#6B2A05;stroke-miterlimit:10;}
	.st186{fill:#DDAA78;}
	.st187{fill:#211205;}
	.st188{fill:none;stroke:#6B2A05;stroke-width:0.729;stroke-miterlimit:10;}
	.st189{fill:#B23C18;stroke:#6B2A05;stroke-width:0.729;stroke-miterlimit:10;}
	.st190{fill:#BBE8F2;}
	.st191{opacity:0.3;fill:#F2F8F9;}
	.st192{opacity:0.2;fill:#601515;}
	.st193{fill:#FFFF00;}
	.st194{fill:#594EEA;}
	.st195{fill:#FF0B0B;}
	.st196{fill:none;stroke:#3FBA51;stroke-width:8;stroke-miterlimit:10;}
	.st197{fill:none;stroke:#3FBA51;stroke-width:7.2;stroke-miterlimit:10;}
	.st198{fill:none;stroke:#3FBA51;stroke-width:7.2;stroke-linecap:round;stroke-miterlimit:10;}
	.st199{fill:none;stroke:#3FBA51;stroke-width:8;stroke-linecap:round;stroke-miterlimit:10;}
	.st200{fill:none;stroke:#3FBA51;stroke-width:5.1175;stroke-miterlimit:10;}
	.st201{fill:#4F5565;}
	.st202{fill:#D64E3C;}
	.st203{fill:#F7A500;}
	.st204{fill:#FBD303;}
	.st205{fill:#FCFCFD;}
	.st206{fill:#F8B517;}
	.st207{fill:#F0582F;}
	.st208{fill:#BAE8F2;}
	.st209{fill:#F7EA72;}
	.st210{clip-path:url(#SVGID_65_);fill:#F7EFDF;}
	.st211{fill:none;stroke:#3FBA51;stroke-width:6.4304;stroke-miterlimit:10;}
	.st212{fill:url(#SVGID_66_);}
	.st213{fill:url(#SVGID_67_);}
	.st214{fill:url(#SVGID_68_);}
	.st215{fill:url(#SVGID_69_);}
	.st216{fill:url(#SVGID_70_);}
	.st217{fill:url(#SVGID_71_);}
	.st218{fill:url(#SVGID_72_);}
	.st219{fill:url(#SVGID_73_);}
	.st220{fill:url(#SVGID_74_);}
	.st221{fill:url(#SVGID_75_);}
	.st222{fill:url(#SVGID_76_);}
	.st223{fill:url(#SVGID_77_);}
	.st224{fill:url(#SVGID_78_);}
	.st225{fill:url(#SVGID_79_);}
	.st226{fill:url(#SVGID_80_);}
	.st227{fill:url(#SVGID_81_);}
	.st228{fill:url(#SVGID_82_);}
	.st229{fill:url(#SVGID_83_);}
	.st230{fill:url(#SVGID_84_);}
	.st231{fill:url(#SVGID_85_);}
	.st232{fill:url(#SVGID_86_);}
	.st233{fill:url(#SVGID_87_);}
	.st234{fill:url(#SVGID_88_);}
	.st235{fill:url(#SVGID_89_);}
	.st236{fill:url(#SVGID_90_);}
	.st237{fill:url(#SVGID_91_);}
	.st238{fill:url(#SVGID_92_);}
	.st239{fill:url(#SVGID_93_);}
	.st240{fill:url(#SVGID_94_);}
	.st241{fill:url(#SVGID_95_);}
	.st242{fill:url(#SVGID_96_);}
	.st243{fill:url(#SVGID_97_);}
	.st244{fill:url(#SVGID_98_);}
	.st245{fill:url(#SVGID_99_);}
	.st246{fill:url(#SVGID_100_);}
	.st247{fill:url(#SVGID_101_);}
	.st248{opacity:0.7;fill:#7BCDDB;}
	.st249{fill:none;stroke:#F0BA7A;stroke-width:3;stroke-miterlimit:10;}
	.st250{fill:url(#SVGID_102_);}
	.st251{fill:url(#SVGID_103_);}
	.st252{fill:url(#SVGID_104_);}
	.st253{fill:url(#SVGID_105_);}
	.st254{fill:url(#SVGID_106_);}
	.st255{fill:url(#SVGID_107_);}
	.st256{fill:url(#SVGID_108_);}
	.st257{opacity:0.5;fill:#302929;}
	.st258{fill:#EF3F50;}
	.st259{fill:url(#SVGID_109_);}
	.st260{fill:url(#SVGID_110_);}
	.st261{fill:url(#SVGID_111_);}
	.st262{fill:url(#SVGID_112_);}
	.st263{opacity:0.6;fill:#302929;}
	.st264{fill:url(#SVGID_113_);}
	.st265{fill:url(#SVGID_114_);}
	.st266{fill:url(#SVGID_115_);}
	.st267{fill:url(#SVGID_116_);}
	.st268{fill:url(#SVGID_117_);}
	.st269{fill:url(#SVGID_118_);}
	.st270{fill:url(#SVGID_119_);}
	.st271{fill:url(#SVGID_120_);}
	.st272{fill:url(#SVGID_121_);}
	.st273{fill:url(#SVGID_122_);}
	.st274{fill:url(#SVGID_123_);}
	.st275{fill:url(#SVGID_124_);}
	.st276{fill:url(#SVGID_125_);}
	.st277{fill:url(#SVGID_126_);}
	.st278{fill:url(#SVGID_127_);}
	.st279{fill:url(#SVGID_128_);}
	.st280{fill:url(#SVGID_129_);}
	.st281{fill:url(#SVGID_130_);}
	.st282{fill:url(#SVGID_131_);}
	.st283{fill:url(#SVGID_132_);}
	.st284{fill:url(#SVGID_133_);}
	.st285{fill:url(#SVGID_134_);}
	.st286{fill:url(#SVGID_135_);}
	.st287{fill:url(#SVGID_136_);}
	.st288{fill:url(#SVGID_137_);}
	.st289{fill:url(#SVGID_138_);}
	.st290{fill:url(#SVGID_139_);}
	.st291{fill:url(#SVGID_140_);}
	.st292{fill:url(#SVGID_141_);}
	.st293{fill:url(#SVGID_142_);}
	.st294{fill:url(#SVGID_143_);}
	.st295{fill:url(#SVGID_144_);}
	.st296{fill:url(#SVGID_145_);}
	.st297{fill:url(#SVGID_146_);}
	.st298{fill:url(#SVGID_147_);}
	.st299{fill:url(#SVGID_148_);}
	.st300{fill:url(#SVGID_149_);}
	.st301{fill:url(#SVGID_150_);}
	.st302{fill:url(#SVGID_151_);}
	.st303{fill:url(#SVGID_152_);}
	.st304{fill:url(#SVGID_153_);}
	.st305{fill:url(#SVGID_154_);}
	.st306{fill:url(#SVGID_155_);}
	.st307{fill:url(#SVGID_156_);}
	.st308{fill:url(#SVGID_157_);}
	.st309{fill:url(#SVGID_158_);}
	.st310{fill:url(#SVGID_159_);}
	.st311{fill:url(#SVGID_160_);}
	.st312{fill:url(#SVGID_161_);}
	.st313{fill:url(#SVGID_162_);}
	.st314{fill:url(#SVGID_163_);}
	.st315{fill:url(#SVGID_164_);}
	.st316{fill:url(#SVGID_165_);}
	.st317{fill:url(#SVGID_166_);}
	.st318{fill:url(#SVGID_167_);}
	.st319{fill:url(#SVGID_168_);}
	.st320{fill:url(#SVGID_169_);}
	.st321{fill:url(#SVGID_170_);}
	.st322{fill:url(#SVGID_171_);}
	.st323{fill:url(#SVGID_172_);}
	.st324{fill:url(#SVGID_173_);}
	.st325{fill:url(#SVGID_174_);}
	.st326{fill:url(#SVGID_175_);}
	.st327{fill:url(#SVGID_176_);}
	.st328{fill:url(#SVGID_177_);}
	.st329{fill:url(#SVGID_178_);}
	.st330{fill:url(#SVGID_179_);}
	.st331{fill:url(#SVGID_180_);}
	.st332{fill:url(#SVGID_181_);}
	.st333{fill:url(#SVGID_182_);}
	.st334{fill:url(#SVGID_183_);}
	.st335{fill:url(#SVGID_184_);}
	.st336{fill:url(#SVGID_185_);}
	.st337{fill:url(#SVGID_186_);}
	.st338{fill:url(#SVGID_187_);}
	.st339{fill:url(#SVGID_188_);}
	.st340{fill:url(#SVGID_189_);}
	.st341{fill:url(#SVGID_190_);}
	.st342{fill:url(#SVGID_191_);}
	.st343{fill:url(#SVGID_192_);}
	.st344{fill:url(#SVGID_193_);}
	.st345{fill:url(#SVGID_194_);}
	.st346{fill:url(#SVGID_195_);}
	.st347{fill:url(#SVGID_196_);}
	.st348{fill:url(#SVGID_197_);}
	.st349{fill:url(#SVGID_198_);}
	.st350{fill:url(#SVGID_199_);}
	.st351{fill:url(#SVGID_200_);}
	.st352{fill:url(#SVGID_201_);}
	.st353{fill:url(#SVGID_202_);}
	.st354{fill:url(#SVGID_203_);}
	.st355{fill:url(#SVGID_204_);}
	.st356{fill:url(#SVGID_205_);}
	.st357{fill:url(#SVGID_206_);}
	.st358{fill:url(#SVGID_207_);}
	.st359{fill:url(#SVGID_208_);}
	.st360{fill:url(#SVGID_209_);}
	.st361{fill:url(#SVGID_210_);}
	.st362{fill:url(#SVGID_211_);}
	.st363{fill:url(#SVGID_212_);}
	.st364{fill:url(#SVGID_213_);}
	.st365{fill:url(#SVGID_214_);}
	.st366{fill:url(#SVGID_215_);}
	.st367{fill:url(#SVGID_216_);}
	.st368{fill:url(#SVGID_217_);}
	.st369{fill:url(#SVGID_218_);}
	.st370{fill:url(#SVGID_219_);}
	.st371{fill:url(#SVGID_220_);}
	.st372{fill:url(#SVGID_221_);}
	.st373{fill:url(#SVGID_222_);}
	.st374{fill:url(#SVGID_223_);}
	.st375{fill:url(#SVGID_224_);}
	.st376{fill:url(#SVGID_225_);}
	.st377{fill:url(#SVGID_226_);}
	.st378{fill:url(#SVGID_227_);}
	.st379{fill:url(#SVGID_228_);}
	.st380{fill:url(#SVGID_229_);}
	.st381{fill:url(#SVGID_230_);}
	.st382{fill:url(#SVGID_231_);}
	.st383{fill:url(#SVGID_232_);}
	.st384{fill:url(#SVGID_233_);}
	.st385{fill:url(#SVGID_234_);}
	.st386{fill:url(#SVGID_235_);}
	.st387{fill:url(#SVGID_236_);}
	.st388{fill:url(#SVGID_237_);}
	.st389{fill:url(#SVGID_238_);}
	.st390{fill:url(#SVGID_239_);}
	.st391{fill:none;stroke:#9B9B97;stroke-miterlimit:10;}
	.st392{fill:url(#SVGID_240_);}
	.st393{fill:url(#SVGID_241_);}
	.st394{fill:url(#SVGID_242_);}
	.st395{fill:url(#SVGID_243_);}
	.st396{fill:url(#SVGID_244_);}
	.st397{fill:url(#SVGID_245_);}
	.st398{fill:url(#SVGID_246_);}
	.st399{fill:url(#SVGID_247_);}
	.st400{fill:url(#SVGID_248_);}
	.st401{fill:url(#SVGID_249_);}
	.st402{fill:url(#SVGID_250_);}
	.st403{fill:url(#SVGID_251_);}
	.st404{fill:url(#SVGID_252_);}
	.st405{fill:url(#SVGID_253_);}
	.st406{fill:url(#SVGID_254_);}
	.st407{fill:url(#SVGID_255_);}
	.st408{fill:url(#SVGID_256_);}
	.st409{fill:url(#SVGID_257_);}
	.st410{fill:url(#SVGID_258_);}
	.st411{fill:url(#SVGID_259_);}
	.st412{fill:url(#SVGID_260_);}
	.st413{fill:url(#SVGID_261_);}
	.st414{fill:url(#SVGID_262_);}
	.st415{fill:url(#SVGID_263_);}
	.st416{fill:url(#SVGID_264_);}
	.st417{fill:url(#SVGID_265_);}
	.st418{fill:url(#SVGID_266_);}
	.st419{fill:url(#SVGID_267_);}
	.st420{fill:url(#SVGID_268_);}
	.st421{fill:url(#SVGID_269_);}
	.st422{fill:url(#SVGID_270_);}
	.st423{fill:url(#SVGID_271_);}
	.st424{fill:url(#SVGID_272_);}
	.st425{fill:url(#SVGID_273_);}
	.st426{fill:url(#SVGID_274_);}
	.st427{fill:url(#SVGID_275_);}
	.st428{fill:url(#SVGID_276_);}
	.st429{fill:url(#SVGID_277_);}
	.st430{fill:url(#SVGID_278_);}
	.st431{fill:url(#SVGID_279_);}
	.st432{fill:url(#SVGID_280_);}
	.st433{fill:url(#SVGID_281_);}
	.st434{fill:url(#SVGID_282_);}
	.st435{fill:url(#SVGID_283_);}
	.st436{fill:url(#SVGID_284_);}
	.st437{fill:url(#SVGID_285_);}
	.st438{fill:url(#SVGID_286_);}
	.st439{fill:url(#SVGID_287_);}
	.st440{fill:url(#SVGID_288_);}
	.st441{fill:url(#SVGID_289_);}
	.st442{fill:url(#SVGID_290_);}
	.st443{fill:url(#SVGID_291_);}
	.st444{fill:url(#SVGID_292_);}
	.st445{fill:url(#SVGID_293_);}
	.st446{fill:url(#SVGID_294_);}
	.st447{fill:url(#SVGID_295_);}
	.st448{fill:url(#SVGID_296_);}
	.st449{fill:url(#SVGID_297_);}
	.st450{fill:url(#SVGID_298_);}
	.st451{fill:url(#SVGID_299_);}
	.st452{fill:url(#SVGID_300_);}
	.st453{fill:url(#SVGID_301_);}
	.st454{fill:url(#SVGID_302_);}
	.st455{fill:url(#SVGID_303_);}
	.st456{fill:url(#SVGID_304_);}
	.st457{fill:url(#SVGID_305_);}
	.st458{fill:url(#SVGID_306_);}
	.st459{fill:url(#SVGID_307_);}
	.st460{fill:url(#SVGID_308_);}
	.st461{fill:url(#SVGID_309_);}
	.st462{fill:url(#SVGID_310_);}
	.st463{fill:url(#SVGID_311_);}
	.st464{fill:url(#SVGID_312_);}
	.st465{fill:url(#SVGID_313_);}
	.st466{fill:url(#SVGID_314_);}
	.st467{fill:url(#SVGID_315_);}
	.st468{fill:url(#SVGID_316_);}
	.st469{fill:url(#SVGID_317_);}
	.st470{fill:url(#SVGID_318_);}
	.st471{fill:url(#SVGID_319_);}
	.st472{fill:url(#SVGID_320_);}
	.st473{fill:url(#SVGID_321_);}
	.st474{fill:url(#SVGID_322_);}
	.st475{fill:url(#SVGID_323_);}
	.st476{fill:url(#SVGID_324_);}
	.st477{fill:url(#SVGID_325_);}
	.st478{fill:url(#SVGID_326_);}
	.st479{fill:url(#SVGID_327_);}
	.st480{fill:url(#SVGID_328_);}
	.st481{fill:url(#SVGID_329_);}
	.st482{fill:url(#SVGID_330_);}
	.st483{fill:url(#SVGID_331_);}
	.st484{fill:url(#SVGID_332_);}
	.st485{fill:url(#SVGID_333_);}
	.st486{fill:url(#SVGID_334_);}
	.st487{fill:url(#SVGID_335_);}
	.st488{fill:url(#SVGID_336_);}
	.st489{fill:url(#SVGID_337_);}
	.st490{fill:url(#SVGID_338_);}
	.st491{fill:url(#SVGID_339_);}
	.st492{fill:url(#SVGID_340_);}
	.st493{fill:url(#SVGID_341_);}
	.st494{fill:url(#SVGID_342_);}
	.st495{fill:url(#SVGID_343_);}
	.st496{fill:url(#SVGID_344_);}
	.st497{fill:url(#SVGID_345_);}
	.st498{fill:url(#SVGID_346_);}
	.st499{fill:url(#SVGID_347_);}
	.st500{fill:url(#SVGID_348_);}
	.st501{fill:url(#SVGID_349_);}
	.st502{fill:url(#SVGID_350_);}
	.st503{fill:url(#SVGID_351_);}
	.st504{fill:url(#SVGID_352_);}
	.st505{fill:url(#SVGID_353_);}
	.st506{fill:url(#SVGID_354_);}
	.st507{fill:url(#SVGID_355_);}
	.st508{fill:url(#SVGID_356_);}
	.st509{fill:url(#SVGID_357_);}
	.st510{fill:url(#SVGID_358_);}
	.st511{fill:url(#SVGID_359_);}
	.st512{fill:url(#SVGID_360_);}
	.st513{fill:url(#SVGID_361_);}
	.st514{fill:url(#SVGID_362_);}
	.st515{fill:url(#SVGID_363_);}
	.st516{fill:url(#SVGID_364_);}
	.st517{fill:url(#SVGID_365_);}
	.st518{fill:url(#SVGID_366_);}
	.st519{fill:url(#SVGID_367_);}
	.st520{fill:url(#SVGID_368_);}
	.st521{fill:url(#SVGID_369_);}
	.st522{fill:url(#SVGID_370_);}
	.st523{fill:url(#SVGID_371_);}
	.st524{fill:url(#SVGID_372_);}
	.st525{fill:url(#SVGID_373_);}
	.st526{fill:url(#SVGID_374_);}
	.st527{fill:url(#SVGID_375_);}
	.st528{fill:url(#SVGID_376_);}
	.st529{fill:url(#SVGID_377_);}
	.st530{clip-path:url(#SVGID_379_);}
	.st531{clip-path:url(#SVGID_381_);}
	.st532{fill:#F4F0A6;}
	.st533{clip-path:url(#SVGID_383_);}
	.st534{opacity:0.6;fill:none;stroke:#F7CFA2;stroke-miterlimit:10;}
	.st535{fill:none;stroke:#F7CFA2;stroke-miterlimit:10;}
	.st536{fill:#EAA56C;}
	.st537{clip-path:url(#SVGID_385_);fill:#F7EFDF;}
</style>
<symbol  id="barras" viewBox="-216.8 -86.2 433.6 172.4">
	<g>
		<rect x="113.2" y="-86.2" class="st22" width="103.6" height="30.9"/>
		<text transform="matrix(1 0 0 -1 126.502 -65.4814)" class="st0 st127" style="font-size:15.36px;">Casi Siempre</text>
	</g>
	<rect x="-105.9" y="-35" class="st1" width="87" height="28.2"/>
	<rect x="-215.8" y="-35.3" class="st1" width="87" height="8.8"/>
	<rect x="7.8" y="-35" class="st1" width="87" height="61.7"/>
	<rect x="121.5" y="-35" class="st1" width="87" height="120.1"/>
	<g>
		<rect x="-101.5" y="-73.4" class="st22" width="78" height="18.1"/>
		<text transform="matrix(1 0 0 -1 -95.3037 -65.4814)" class="st0 st127" style="font-size:15.36px;">Casi nunca</text>
	</g>
	<rect x="-105.9" y="-35" class="st2" width="87" height="28.2"/>
	<g>
		<rect x="-192.1" y="-86.2" class="st22" width="39.6" height="30.9"/>
		<text transform="matrix(1 0 0 -1 -191.6748 -65.4814)" class="st0 st127" style="font-size:15.36px;">Nunca</text>
	</g>
	<rect x="-215.8" y="-35.3" class="st2" width="87" height="8.8"/>
	<g>
		<rect x="-3.7" y="-86.2" class="st22" width="110" height="30.9"/>
		<text transform="matrix(1 0 0 -1 9.9785 -65.4795)" class="st0 st127" style="font-size:15.36px;">Algunas veces</text>
	</g>
	<rect x="7.8" y="-35" class="st2" width="87" height="61.7"/>
	<rect x="121.5" y="-35" class="st2" width="87" height="120.1"/>
</symbol>
<g id="Layer_1">
	<path class="st13" d="M763.5,61.3c4.6-4.2,9.3-8.2,14.3-11.5c9-6.1,20.3-9.5,28.8-0.6c14.1,14.6-5.7,36-16.7,45.8
		c-10,8.8-52,41.4-60,14.2c-1.6-5.4,2.3-11.7,4.1-16.1c2.2-5.2,10.9-5.7,11.8-7C750.2,79.4,757.5,66.8,763.5,61.3z"/>
	<g>
		<path class="st14" d="M739.2,110.3c0.2,0,0.4-0.1,0.7-0.1C739.7,110.2,739.4,110.3,739.2,110.3z"/>
	</g>
	<path class="st21" d="M734.1,99.2H621.9c-3.2,0-5.8-2.6-5.8-5.8V65.6c0-3.2,2.6-5.8,5.8-5.8h112.3c3.2,0,5.8,2.6,5.8,5.8v27.7
		C740,96.5,737.3,99.2,734.1,99.2z"/>
	<rect x="637.8" y="70" class="st22" width="81.9" height="28.3"/>
	<text transform="matrix(1 0 0 1 656.7847 87.3295)" class="st13 st127 st128">Listo</text>
	<rect x="32.2" y="72.9" class="st22" width="391.9" height="48.3"/>
	<text transform="matrix(1 0 0 1 32.1871 90.2035)" class="st0 st127 st128">Instrucciones</text>
	<rect x="32.2" y="72.9" class="st22" width="391.9" height="48.3"/>
	<text transform="matrix(1 0 0 1 32.1871 90.2035)" class="st0 st127 st128">Instrucciones</text>
	<rect x="34.9" y="28.9" class="st22" width="391.9" height="48.3"/>
	<text transform="matrix(1 0 0 1 34.8927 47.6332)" class="st0 st129 st128">HOla, Kaira POlet ARAYA</text>
	<polyline class="st22" points="684.1,16.9 681.7,65.2 292.2,65.2 	"/>
	<rect x="31.4" y="116.4" class="st22" width="571.9" height="88.3"/>
	<text transform="matrix(1 0 0 1 31.4317 131.0448)" class="st0 st127 st130">Otro compañeros-as se han reido de mi.</text>
	<path class="st13" d="M797.5,268.2c-7,6-12,16-21,22v-1c-2,5-8,5-11,8c-2,3,7,3,3,7c18.8-6.7,32.2-21.6,40.5-39.1
		c-0.8-2.1-2-4-3.8-5.9c-1.9-2-4-5.1-6.1-7C800.2,258.5,800.5,264.5,797.5,268.2z"/>
	<circle class="st131" cx="687.4" cy="363.9" r="99.7"/>
	<g>
		<defs>
			<path id="SVGID_47_" d="M787.1,363.9c0,55.1-44.7,99.7-99.7,99.7s-99.7-44.7-99.7-99.7c0-55.1-18.2-171.1,112.2-162.6
				C754.8,204.9,787.1,308.8,787.1,363.9z"/>
		</defs>
		<clipPath id="SVGID_2_">
			<use xlink:href="#SVGID_47_"  style="overflow:visible;"/>
		</clipPath>
		<path style="clip-path:url(#SVGID_2_);fill:#F0BA7A;" d="M690.1,386.2l-5,0.4c-7.4,0.6-13.9-4.9-14.5-12.2l-2.6-31.1
			c-0.6-7.3,4.9-13.8,12.3-14.5l5-0.4c7.4-0.6,13.9,4.9,14.5,12.2l2.6,31.1C703,379,697.5,385.5,690.1,386.2z"/>
		<path class="st8" d="M741.1,398.9c0-13.2-0.3-22.2-10.9-26.7c-6.3-2.7-20.5-4.8-28.7-4.4l-32.1,1.5c-9.8,0.5-25.5,3.3-32.4,8
			c-8.4,5.6-7.1,14-7.1,25.5v90.6c0,5.7,1.3,11,3.6,15.8c33.9,0.9,68.2-1.1,102.3-1.6c3.3-5.8,5.3-12.3,5.3-19.2V398.9z"/>
		<path class="st8" d="M644.5,378.4l3.8,1.3c6.4,1.8,6.3,15.6-0.3,30.8L636.9,441l-11.5,35.6c-3.6,8.3-5.8,15.1-9.9,18.2
			c-3.4,2.6-8.7,2.9-11.6,2.1l-9.4-2.6c-2.4-0.7-6.1-2.9-7-5.5c-1.5-4.4,1.2-11,5.3-20.5c0,0,19.1-48.2,14.7-36
			c-4.4,12.2,7.6-19.7,15.2-35.9C630.3,380.1,638.1,376.7,644.5,378.4z"/>
		<path class="st8" d="M724.1,372l-3.8,1.3c-6.4,1.8-6.3,15.6,0.3,30.8l11.1,30.4l11.5,35.6c3.6,8.3,5.8,15.1,9.9,18.2
			c3.4,2.6,8.7,2.9,11.6,2.1l9.4-2.6c2.4-0.7,6.1-2.9,7-5.5c1.5-4.4-1.2-11-5.3-20.5c0,0-19.1-48.2-14.7-36
			c4.4,12.2-7.6-19.7-15.2-35.9C738.2,373.7,730.5,370.3,724.1,372z"/>
		<polygon class="st9" points="685.6,403.4 685.6,368.5 700.6,375.5 		"/>
		<polygon class="st9" points="685.6,403.4 685.6,368.5 670.6,375.5 		"/>
		<polygon class="st10" points="696.6,374.1 685.3,368.7 676.3,375.6 682.2,384.6 689.8,384.7 		"/>
		<polygon class="st10" points="700.1,461.9 687.5,475.9 672.9,463.5 682.2,384.6 689.8,384.7 		"/>
		<polygon class="st11" points="685.6,368.5 685.6,369.2 700.1,381.7 706.4,368.7 703.4,363.1 		"/>
		<polygon class="st11" points="685.6,368.5 685.6,369.2 671.1,381.7 664.9,368.7 667.8,363.1 		"/>
		<g class="st12">
			<polygon class="st13" points="700.1,429.2 712.7,435.6 725.8,429.2 725.8,410.2 700.1,410.2 			"/>
			<rect x="700.1" y="402.1" class="st13" width="25.6" height="6"/>
		</g>
		<g class="st12">
			<path class="st14" d="M594.4,352.8c0,0.3,0,0.5,0,0.8C594.4,353.4,594.4,353.1,594.4,352.8z"/>
		</g>
	</g>
	<g>
		<path class="st14" d="M594.4,352.1c0,0.2,0,0.5,0,0.7C594.4,352.6,594.4,352.3,594.4,352.1z"/>
	</g>
	<g>
		<g>
			<path class="st14" d="M726,284.6c0.3,0,0.5,0,0.8-0.1C726.6,284.6,726.3,284.6,726,284.6z"/>
		</g>
		<g>
			<path class="st14" d="M725.3,284.6c0.2,0,0.5,0,0.7,0C725.8,284.6,725.6,284.6,725.3,284.6z"/>
		</g>
		<g>
			<path class="st14" d="M754.8,294.8c-0.5,0.7-1.3,2.3-1,3.2l4.9-4.5c-0.3,0-0.5,0-0.8,0.1c-0.2,0-0.4,0-0.7,0
				C756.2,293.6,755.4,293.8,754.8,294.8z"/>
		</g>
		<path class="st66" d="M704.6,316.4l-9.4-1c-9.2-1-16-9.4-15-18.6l3.1-28.4c1-9.2,9.4-16,18.6-15l9.4,1c9.2,1,16,9.4,15,18.6
			l-3.1,28.4C722.2,310.7,713.9,317.4,704.6,316.4z"/>
		
			<ellipse transform="matrix(0.1082 -0.9941 0.9941 0.1082 296.6138 883.2172)" class="st14" cx="640.6" cy="276.3" rx="16.8" ry="16.8"/>
		
			<ellipse transform="matrix(0.1082 -0.9941 0.9941 0.1082 296.6138 883.2172)" class="st66" cx="640.6" cy="276.3" rx="11.1" ry="11.1"/>
		
			<ellipse transform="matrix(0.1082 -0.9941 0.9941 0.1082 383.3263 991.5635)" class="st14" cx="744.3" cy="282.1" rx="16.8" ry="16.8"/>
		
			<ellipse transform="matrix(0.1082 -0.9941 0.9941 0.1082 383.3263 991.5635)" class="st66" cx="744.3" cy="282.1" rx="11.1" ry="11.1"/>
		<path class="st14" d="M777.7,286.8c17.1-66.9-25.4-53.7-63.4-57.8s-71.3,15-74.3,42.8c-0.7,6.2-3.2,29.1-3.8,35.3
			c-3,27.8,39.9,55.2,63.4,57.8c20.7,2.3,71.3-15,74.3-42.8C774.5,315.8,776.1,292.8,777.7,286.8z"/>
		<path class="st0" d="M756.3,257.1c-1.5-1.8,2.2-4.8,2.2-4.8c10.1-0.6,9.9,16.1,20.4,12.2c3.5-1.3,2.5-8.1,3.1-13
			c2.8,10.9,6.6,2.9,12.9,0.6c1.2-5.4,2.2-9.9,2.5-12.6c4-37.2-25.5-63.7-62.7-67.8c-36.3-3.9-58.9,16.4-64.3,52.1
			c29.3-6.5,46.8,9.6,63.5,28.6C741.5,253.3,748.3,256.3,756.3,257.1z"/>
		<path class="st0" d="M713.8,202c0.7-0.7,0.7-1.9-0.1-2.6c0,0,0,0,0,0c-19.6-16.8-49.1-14.6-66,5c-11.6,13.5-14.2,31.8-8.2,47.3
			c0.4,1,1.6,1.5,2.5,0.9C668,238.7,693.5,222.9,713.8,202z"/>
		<path class="st75" d="M677.1,345.5c0,0,12.6-7.8,26.9-6.2c14.3,1.6,24.9,11.9,24.9,11.9s-12.3-3.9-26.7-5.4
			C688,344.1,677.1,345.5,677.1,345.5z"/>
		<path class="st0" d="M666.9,222.7c0,0,17,9.9,24.9,16.4c10.9,9,35.9,12.7,35.9,12.7s-15.4-26.4-27.2-31.2
			C688.8,215.8,666.9,222.7,666.9,222.7z"/>
		<path class="st0" d="M756.3,287.1c-1.5-1.8,2.2-4.8,2.2-4.8c10.1-0.6,9.9,16.1,20.4,12.2c3.5-1.3,2.5-8.1,3.1-13
			c2.8,10.9,6.6,2.9,12.9,0.6c1.2-5.4,2.2-9.9,2.5-12.6c4-37.2-25.5-63.7-62.7-67.8c-36.3-3.9-58.9,16.4-64.3,52.1
			c29.3-6.5,46.8,9.6,63.5,28.6C741.5,283.3,748.3,286.3,756.3,287.1z"/>
		<path class="st0" d="M666.9,252.7c0,0,17,9.9,24.9,16.4c10.9,9,35.9,12.7,35.9,12.7s-15.4-26.4-27.2-31.2
			C688.8,245.8,666.9,252.7,666.9,252.7z"/>
		<path class="st0" d="M663.3,188.3c0,0,7.2,0.5,10.8,1.4c5.1,1.2,13.8-1.6,13.8-1.6s-9.3-6.1-14-5.8
			C669.4,182.5,663.3,188.3,663.3,188.3z"/>
		<path class="st0" d="M697.2,169.6c0,0-2.8,6.6-3.6,10.3c-1.2,5.1-7.6,11.6-7.6,11.6s-1.3-11.1,1-15.1
			C689.3,172.5,697.2,169.6,697.2,169.6z"/>
		<path class="st82" d="M644.2,235.2l-6.4,60.4l7.1-7l8.1-34.4c0,0,11.1-21.6,22.9-24.9s34.1-2.1,34.1-2.1l-17.5-11.3L644.2,235.2z"
			/>
		<path class="st82" d="M784.1,247.6L774,314.1l-4.9,1.9l0.7-49.2c0,0-6.2-23.5-17-29.2c-10.8-5.7-32.8-9.3-32.8-9.3l19.5-7.2
			L784.1,247.6z"/>
		<g>
			<g>
				<path class="st72" d="M764,312.6c-0.9,8.5-8.1,14.8-22.5,14c-14.3-0.9-22.8-8-22.4-16.4c0.5-8.5,10.1-15.1,24.9-14.4
					C759,296.5,764.9,304,764,312.6z"/>
				<path class="st13" d="M764.6,313.4c-0.8,7.3-11.7,12.6-24.2,11.9c-12.4-0.7-22.1-7.1-21.7-14.4c0.4-7.4,10.7-9.8,23.6-9.1
					C755.2,302.4,765.4,305.9,764.6,313.4z"/>
				<g>
					<path class="st0" d="M752.3,312c-0.4,3.6-5.6,6.2-11.7,5.8c-6.1-0.3-10.8-3.5-10.5-7c0.3-3.6,5.4-6.3,11.6-5.9
						C747.9,305.2,752.6,308.4,752.3,312z"/>
					<path d="M745.5,311.7c-0.1,1.4-2.1,2.4-4.5,2.3c-2.4-0.1-4.2-1.3-4.1-2.7c0.1-1.4,2.1-2.4,4.5-2.3
						C743.8,309.1,745.6,310.3,745.5,311.7z"/>
					<path class="st73" d="M741.8,308.5c-0.1,1-1.6,1.8-3.3,1.7c-1.7-0.1-3.1-1-3-2c0.1-1,1.6-1.8,3.3-1.7
						C740.5,306.6,741.9,307.5,741.8,308.5z"/>
				</g>
			</g>
			<g>
				<path class="st72" d="M646.8,306.2c0.3,8.2,6.5,15.1,20.1,15.9c13.7,0.8,22.5-5.3,22.7-13.6c0.2-8.5-8.7-15.9-22.9-16.6
					C652.5,291.2,646.5,297.8,646.8,306.2z"/>
				<path class="st13" d="M646.2,306.9c0.2,7.1,9.9,13.4,21.8,14.1c11.9,0.7,21.8-4.5,21.9-11.7c0.1-7.3-10.8-9.3-23.1-9.9
					C654.6,298.8,646,299.6,646.2,306.9z"/>
				<path class="st0" d="M664.3,308.9c0,3.5,4.7,6.5,10.5,6.9c5.8,0.3,10.6-2.2,10.6-5.7c0.1-3.5-4.7-6.7-10.6-7
					C668.9,302.8,664.2,305.4,664.3,308.9z"/>
				<path d="M670.7,309.2c0,1.4,1.8,2.5,4.1,2.7c2.3,0.1,4.1-0.9,4.1-2.2c0-1.4-1.8-2.6-4.1-2.7
					C672.5,306.9,670.7,307.9,670.7,309.2z"/>
				<path class="st73" d="M669.3,306.3c0,1,1.4,1.9,3,2c1.7,0.1,3-0.7,3-1.7c0-1-1.4-1.9-3-2C670.6,304.5,669.3,305.3,669.3,306.3z"
					/>
			</g>
			<path class="st66" d="M703.1,332.5L703.1,332.5c-5.5-0.3-9.9-3.2-9.8-6.4l0.5-21.5c0.1-3.4,4.8-5.9,10.5-5.6l0,0
				c5.7,0.3,10.3,3.3,10.1,6.7l-1.1,21.6C713.2,330.5,708.6,332.8,703.1,332.5z"/>
			<path class="st14" d="M701.2,328.9L701.2,328.9c-5.5-0.3-9.9-3.2-9.9-6.4l0.5-21.7c0.1-3.4,4.8-6,10.5-5.7l0,0
				c5.8,0.3,10.3,3.3,10.2,6.8l-1,21.8C711.4,326.9,706.8,329.3,701.2,328.9z"/>
			<path class="st66" d="M656.7,321.7c0,0.4-1.1,0.7-2.4,0.6c-1.3-0.1-2.4-0.5-2.4-0.9c0-0.4,1.1-0.7,2.4-0.6
				C655.6,320.9,656.7,321.3,656.7,321.7z"/>
			<path class="st66" d="M666.4,322.3c0,0.4-1.1,0.7-2.4,0.6c-1.4-0.1-2.4-0.5-2.5-0.9c0-0.4,1.1-0.7,2.4-0.6
				C665.3,321.5,666.4,321.9,666.4,322.3z"/>
			<path class="st66" d="M661.6,324.8c0,0.4-1.1,0.6-2.4,0.6c-1.3-0.1-2.4-0.5-2.4-0.9c0-0.4,1.1-0.6,2.4-0.6
				C660.5,324.1,661.6,324.4,661.6,324.8z"/>
			<path class="st66" d="M746.2,327c0,0.4-1.2,0.7-2.6,0.6c-1.4-0.1-2.5-0.5-2.5-0.9c0-0.4,1.2-0.7,2.6-0.6
				C745.1,326.2,746.3,326.6,746.2,327z"/>
			<path class="st66" d="M756.6,327.7c0,0.4-1.2,0.7-2.7,0.6c-1.4-0.1-2.6-0.5-2.5-0.9c0-0.4,1.2-0.7,2.7-0.6
				C755.5,326.9,756.6,327.3,756.6,327.7z"/>
			<path class="st66" d="M751.6,329.8c0,0.4-1.2,0.7-2.6,0.6c-1.4-0.1-2.5-0.5-2.5-0.9c0-0.4,1.2-0.7,2.6-0.6
				C750.5,329,751.6,329.4,751.6,329.8z"/>
			<path class="st83" d="M728.4,294.7l31,8.1c4.4,1.2,8.7,0,9.5-2.5l0,0c0.8-2.6-2.2-5.6-6.6-6.8l-31.4-8.1
				c-4.3-1.1-8.4,0.1-9.1,2.6v0C721.1,290.6,724.1,293.6,728.4,294.7z"/>
			<path class="st83" d="M655.1,301.1l28-4.9c4-0.7,6.1-3.3,4.6-5.8l0,0c-1.5-2.5-6-4-10-3.3l-23,4c-3.9,0.7-10.8,4.4-9.3,6.8h0
				C646.9,300.3,651.3,301.8,655.1,301.1z"/>
		</g>
		<g class="st52">
			<g>
				<path class="st14" d="M722.5,182.3c4.9,2.2,10.6,1.5,15.8,2.6c4.7,1.1,8.7,3.7,13.5,4.6c0.9,0.2,1.2-1,0.4-1.3
					c-4.7-1.8-9.1-4.5-14-5.4c-4.7-0.9-10.8-1.9-15.5-0.9C722.4,181.9,722.3,182.2,722.5,182.3L722.5,182.3z"/>
			</g>
		</g>
		<path class="st66" d="M824.1,444.9c0.5,0.3,0.4,1.9,0.9,0.9c-1.3-7.7-5.7-15.7-9.1-22.7c-4.9-10.4-10.4-20.9-16.1-31.2
			c-0.8-1.5-1.6-2.9-2.4-4.4c-12.6-12.3-11.6-31.3-21.6-46.3c-1-1-4,0-6,0c-11,5-5,17-2,25c4,10,12,18,12.5,28.7
			c-0.4,0.8-1.4,1.3-2.8,3.8c-5,9.1-5.9,18.6-0.9,28.9c3.6,7.3,9.9,11.4,14.1,17.8c5.6,8.5,7.7,19.7,12.1,28.8L824.1,444.9z"/>
		<path class="st14" d="M782.5,355.9c-1.7-5.1-3.7-10-6.8-14.6c-1-1-4,0-6,0c-0.5,0.2-1,0.5-1.5,0.8
			C771.1,348.6,776,354.4,782.5,355.9z"/>
		<path class="st14" d="M789.7,393.2c-4.4-0.9-8.1-3-11.1-6c0.9,2.4,1.5,5,1.6,7.7c-0.3,0.6-1,1.1-2,2.6
			C780.9,394,784.6,391.9,789.7,393.2z"/>
		<path class="st14" d="M776.6,400.4c-0.3,0.6-0.6,1.2-0.9,1.9c3.6,2,7.6,3.4,12,4C784.5,403,780.4,401.9,776.6,400.4z"/>
		<path class="st14" d="M773.9,407.7c-0.2,0.9-0.4,1.8-0.5,2.7c3.2,1.2,6.6,2.2,10.3,2.8C780.9,410.4,777.5,408.9,773.9,407.7z"/>
		<path class="st66" d="M758.6,469.5c0.4,0.4-0.1,1.9,0.6,1.1c0.7-7.7-1.5-16.6-3-24.3c-1.4-7.3-2.9-14.7-4.6-22
			c-0.3-1.5-0.7-2.9-1-4.4c-0.6-1.6-1.1-3.2-1.5-4.8c-0.5-1.7-0.9-3.3-1.3-5.1c-6.1-14.7-12-37.3-15.6-46.5c-2,0-6.5,1.7-8.5,3.7
			c-10,14,4,27,5,41c1,1-2,3-3.4,4.6c-0.9,0.9-1.7,1.9-2.5,2.9c-5.4,6.9-7.7,15-5.7,24.9c1.6,7.9,6.6,13.5,9.1,20.9
			c3.2,9.6,2.4,21,4.3,31L758.6,469.5z"/>
		<path class="st14" d="M737.6,380c-2.1-6.8-4-12.7-5.4-16.5c-2,0-6.5,1.7-8.5,3.7c-0.8,1.1-1.4,2.1-1.9,3.2
			C725.1,377.8,729.4,385.3,737.6,380z"/>
		<path class="st66" d="M756.2,446.3c-1.4-7.3-2.9-14.7-4.6-22c-0.3-1.5-0.7-2.9-1-4.4c-0.6-1.6-1.1-3.2-1.5-4.8
			c-0.5-1.7-0.9-3.3-1.3-5.1c-3.6-8.7-7.1-20.2-10.1-30c-8.3,5.3-12.5-2.2-15.8-9.6c-6.1,12.8,5.9,24.9,6.9,37.8c1,1-2,3-3.4,4.6
			c-0.9,0.9-1.7,1.9-2.5,2.9c-5.4,6.9-7.7,15-5.7,24.9c1.6,7.9,6.6,13.5,9.1,20.9c3.2,9.6,2.4,21,4.3,31l28.1-23
			c0.4,0.4-0.1,1.9,0.6,1.1C759.9,462.8,757.6,454,756.2,446.3z"/>
		<path class="st0" d="M637.8,231.8c-2,8.9-0.8,18.3-0.5,27.2c3.3,1.1,7.9,2,11.5,1.8c4.5-0.3,8.3-2.7,12.2-4.6
			c4-1.9,8.8-3.4,13.4-3.9c1.6-0.2,4.7,0.5,6.1-0.2c3.2-1.6,3.1-8.7,3.2-11.4c0.3-5,0.7-9.8,1.5-14.7c0.3-2.1,1.2-5.1,0.5-7.2
			c-0.5-1.5-2-3.2-3.3-3.9c-4-2-12.2-0.3-16.4-0.3c-4.9,0-11.7-1.2-15.7,2.4c-2,1.8-2.5,4.5-4.2,6.4c-1.4,1.6-4.7,3-2.6,5.7"/>
	</g>
	<path class="st13" d="M653.7,447.3c-4.9,3.8-10,7.3-15.3,10.1c-9.6,5.2-21.1,7.5-28.7-2.1c-12.6-15.9,9-35.3,20.9-44
		c10.8-7.9,55.7-36.3,61-8.5c1.1,5.5-3.3,11.4-5.6,15.7c-2.7,5-11.4,4.6-12.4,5.9C668.6,430.5,660.2,442.3,653.7,447.3z"/>
	<path class="st65" d="M642,458.1c10.2-4.2,12-1.4,19.7-11.4c0.9-1-2.3-9.4-1.5-10.4c2-4.2,4.8-7.2,8.1-9.7c-2-3.9-3.3-8.4-4.8-12.5
		c2.9,4.6,8.8,6.2,14.6,5.7c1.3-0.9,2.6-1.9,3.9-3c3.6-3.7,7.6-5.2,7.8-10.1c0.1-2.4-0.1-4.9-0.7-7.1c-9.5-23.1-37.1,0.9-53,6.3
		c-1.7,1.2-3.4,2.4-5.1,3.6c-5,3.6-9.9,7.4-14.5,11.6c-1.3,1.5-2.5,3-3.6,4.6c-5.3,7.9-7.6,16.8-1.3,24.7c2.6,3.2,5.1,8.6,8.3,9.5
		c1.6,0.4,10.6,1.9,12.3,1.9C634.1,461.7,640.5,458.5,642,458.1z"/>
	<g>
		<path class="st66" d="M625.8,333.3c4.4-1,3.9-5.7,5.2-9.6c-1.2-0.4-3.7-1.5-3.8-1.5c-0.2-0.1-1.9,2.5-2.8,4
			c-0.7,1.1-1.9,4.1-2.5,5.2C623.1,332.5,624,333.7,625.8,333.3z"/>
	</g>
	<g>
		<path class="st14" d="M632.4,335c0.4-1.6,0.6-3.3,0.7-4.9c0.2-1.9,0.3-4.1-1.2-5.4c-0.3-0.3-0.7-0.5-1.1-0.6
			c-1.3,3.9-0.8,8.7-5.2,9.6c-1.8,0.4-2.7-0.8-3.8-2c-1.8,3.3-3.5,6.7-4.8,10.2c-1.3,3.3-2.4,6.8-4.4,9.8c-1.7,2.7-4.2,5.2-4.4,8.4
			c-0.1,1.6,0.3,3.1,0.9,4.6l7.9,9.5c1.7-3.9,1.9-8.4,2.9-12.5c0.2-0.5,0.5-1,0.7-1.6c0.9-7.4,2.8-14.6,7.7-20.5
			C628.9,338.1,631.3,336.9,632.4,335z"/>
	</g>
	<g>
		<path class="st14" d="M663.7,400.3c10.3-6.6,22-10.9,34-12.5c-0.1,1.4-0.5,2.8-1.1,4.1c5.4-0.2,10.9,0.2,16.3,1.1
			c0.6,0.1,1.3,0.2,1.7,0.7c0.7,0.8,0.4,2,0,3c-0.3,0.6-0.6,1.2-0.9,1.8c-0.1,0.2-0.2,0.4-0.3,0.6c-0.6,1.2-4.6,1.2-2,3.9
			c0.1,0.1,0.1,0.2,0.2,0.3c0.1,0.1,0.2,0.2,0.3,0.3c0.2,0.1,0.3,0.2,0.5,0.4c2.3,1.5,6.1,2.2,5.3,6.3c0,0-1,0-0.5,0
			c-0.1,0.1-0.1,0.3-0.2,0.4c-0.2,0.3-0.4,0.6-0.6,0.9c0,0.1-0.1,0.3-0.2,0.4c-0.1,0.1-0.3,0.2-0.5,0.3c-0.5,0-1.1-0.2-1.7-0.6
			c-0.2-0.1-0.4-0.2-0.6-0.4c-0.7-0.1-1.7-2.1-4.1-1.3c-0.2,0.1-0.5,0.1-0.7,0.3c-0.2,0.1-0.5,0.3-0.7,0.5c-0.2,0.1-0.4,0.1-0.6,0.2
			s-0.4,0.2-0.6,0.3c-3,3,2,5,1,7c-3,6-10,0-14.4-3c-0.6-0.3-1.1-0.6-1.7-0.8c-0.6-0.2-1.1-0.4-1.7-0.6c-0.6-0.2-1.2-0.5-1.9-0.7
			c-0.6-0.2-1.3-0.4-2-0.6c-0.6-0.1-1.3-0.2-1.9-0.3c-4.5-0.4-9.1,0.7-12.9,1.8c-0.4,0-0.9-0.1-1.3-0.2c-0.9-0.3-1.7-1-2.5-1.6
			c-3.5-3.1-6.4-8-4.8-12.5"/>
	</g>
	<path class="st14" d="M595.9,389.2c-0.2-1-0.2-3-1.1-3.7c-0.2-0.6-0.3-1.1-0.5-1.7c-0.4-1.6-0.7-3.3-0.8-5
		c-0.1-0.9-0.2-1.8-0.3-2.7c-0.1-0.8-0.1-1.7-0.1-2.5c0-0.8,0-1.7,0.1-2.5c0.2-2.5,1.2-4.3,2.7-5.6c0.6-0.5,1.2-0.9,1.9-1.2
		c0.9-0.2,1.7-0.5,2.6-0.8c0.8-0.3,1.7-0.6,2.4-1c3.4-2.6,6-5.1,8.5-8.2c0.5-0.6,1-1.3,1.5-1.9c6.5,7.2,13.5,17,10.9,24.5
		c-0.2,0.7-0.5,1.4-0.9,2c-1.4,1.3-2.7,2.5-4.1,3.7c-0.7,0.6-1.3,1.2-2,1.8c-0.5,0.6-1,1.3-1.5,2.1c-0.3,0.9-0.7,1.7-1.2,2.5
		c-4.2,5.4-11.2,9.4-15.4,2.3c-0.4-0.5-0.7-0.9-1-1.3"/>
	<path class="st65" d="M591.9,398.7c-0.8-2.2-4.7-3.7-6.3-5.2c-2.5-2.3-3.7-4.6-3.6-8c0.1-1.9-0.4-4.2,0-6.1
		c1.3-6.4,12.6-8.5,17.9-8.1c7,0.5,16.8,3.7,21.3,9.5c-0.2,0-0.7,0.2-1,0.2c0.2,0.9,0.3,1.9,0.2,2.9c-0.4,2.7-2.2,5.4-3,8.1
		c-0.8,2.6-1.2,5.6-2.3,8.1c-1.5,3.3-5,2.6-7.8,3.9c-1.1,0.5-1.8,1-1.1,2.2c-1.4,0.7-3,0.7-4.5,0.8c-3.3,0.3-6.7,0-10,0.2
		c-3.4,0.2-5.2,1.4-7.6,3.7"/>
	<path class="st65" d="M570,431.4c0,0.3,0.1,0.5,0.4,0.6c1-3.9,4-7.1,6-10.5c4.8-8.1,6.7-17.3,11.2-25.4c1.3-2.3,3.6-4.8,4.3-7.5
		c0.2-0.7,0.1-1.4,0.3-2.1c1.5,0.3,3,0.4,4.4,0.9c3.5,1.1,6.2,4.3,8.8,6.8c-1.6,2.4-1.7,5.1-2.2,8c-1,5.3-1,10.7-2.5,15.8
		c-1.1,3.7-1.5,7.6-1.9,11.4c-0.3,2.3-0.4,4.6-0.3,6.9c0.1,0.8,0.3,2.3,0,3"/>
	<g>
	</g>
	<path class="st153" d="M586.7,311.7c0,1.3-0.2,2.5-0.6,3.6c-0.4,1.1-1,2-2,2.8s-2.2,1.4-3.9,1.8c-1.6,0.4-3.7,0.6-6.2,0.6
		c-2.5,0-4.6-0.2-6.2-0.6c-1.6-0.4-2.9-1-3.8-1.8s-1.6-1.7-1.9-2.8c-0.4-1.1-0.5-2.3-0.5-3.6v-7c0-0.5,0.1-0.9,0.4-1.2
		c0.2-0.2,0.6-0.4,1.2-0.4h6.2c0.5,0,0.9,0.1,1.2,0.4c0.2,0.2,0.4,0.6,0.4,1.2v5.3c0,0.6,0.2,1.1,0.5,1.4c0.4,0.4,1.2,0.6,2.5,0.6
		c1.2,0,2-0.2,2.3-0.6c0.3-0.4,0.5-0.9,0.5-1.4v-19.6c0-0.5,0.1-0.9,0.4-1.2c0.2-0.2,0.6-0.4,1.2-0.4h6.8c0.5,0,0.9,0.1,1.2,0.4
		c0.2,0.2,0.4,0.6,0.4,1.2V311.7z"/>
	<path class="st153" d="M601.2,318.3c0,0.5-0.1,0.9-0.4,1.2c-0.2,0.2-0.6,0.4-1.2,0.4h-6.3c-0.5,0-0.9-0.1-1.2-0.4
		c-0.2-0.2-0.4-0.6-0.4-1.2v-11.4c0-0.9,0.1-1.9,0.4-3c0.3-1.1,0.7-2.4,1.3-3.9l3.7-9.8c0.2-0.5,0.4-0.8,0.8-1.1
		c0.4-0.2,0.8-0.3,1.4-0.3H611c0.5,0,1,0.1,1.4,0.3c0.4,0.2,0.6,0.6,0.8,1.1l3.7,9.8c0.6,1.5,1,2.8,1.3,3.9c0.3,1.1,0.4,2.1,0.4,3
		v11.4c0,0.5-0.1,0.9-0.4,1.2c-0.2,0.2-0.6,0.4-1.2,0.4h-6.5c-0.6,0-1-0.1-1.3-0.4c-0.3-0.2-0.4-0.6-0.4-1.2v-6h-7.6V318.3z
		 M603.7,297.8l-2,6.6h6.8l-2-6.6c-0.1-0.3-0.2-0.4-0.4-0.6c-0.1-0.1-0.3-0.2-0.5-0.2h-1.1c-0.2,0-0.3,0.1-0.5,0.2
		C603.9,297.4,603.8,297.6,603.7,297.8z"/>
	<path class="st153" d="M596.1,417c0,1.3-0.2,2.5-0.6,3.6c-0.4,1.1-1,2-2,2.8s-2.2,1.4-3.9,1.8c-1.6,0.4-3.7,0.6-6.2,0.6
		c-2.5,0-4.6-0.2-6.2-0.6s-2.9-1-3.8-1.8s-1.6-1.7-1.9-2.8c-0.4-1.1-0.5-2.3-0.5-3.6v-7c0-0.5,0.1-0.9,0.4-1.2
		c0.2-0.2,0.6-0.4,1.2-0.4h6.2c0.5,0,0.9,0.1,1.2,0.4c0.2,0.2,0.4,0.6,0.4,1.2v5.3c0,0.6,0.2,1.1,0.5,1.4c0.4,0.4,1.2,0.6,2.5,0.6
		c1.2,0,2-0.2,2.3-0.6c0.3-0.4,0.5-0.9,0.5-1.4v-19.6c0-0.5,0.1-0.9,0.4-1.2c0.2-0.2,0.6-0.4,1.2-0.4h6.8c0.5,0,0.9,0.1,1.2,0.4
		c0.2,0.2,0.4,0.6,0.4,1.2V417z"/>
	<path class="st153" d="M610.6,423.6c0,0.5-0.1,0.9-0.4,1.2c-0.2,0.2-0.6,0.4-1.2,0.4h-6.3c-0.5,0-0.9-0.1-1.2-0.4
		c-0.2-0.2-0.4-0.6-0.4-1.2v-11.4c0-0.9,0.1-1.9,0.4-3c0.3-1.1,0.7-2.4,1.3-3.9l3.7-9.8c0.2-0.5,0.4-0.8,0.8-1.1
		c0.4-0.2,0.8-0.3,1.4-0.3h11.6c0.5,0,1,0.1,1.4,0.3c0.4,0.2,0.6,0.6,0.8,1.1l3.7,9.8c0.6,1.5,1,2.8,1.3,3.9c0.3,1.1,0.4,2.1,0.4,3
		v11.4c0,0.5-0.1,0.9-0.4,1.2c-0.2,0.2-0.6,0.4-1.2,0.4h-6.5c-0.6,0-1-0.1-1.3-0.4c-0.3-0.2-0.4-0.6-0.4-1.2v-6h-7.6V423.6z
		 M613.1,403.1l-2,6.6h6.8l-2-6.6c-0.1-0.3-0.2-0.4-0.4-0.6c-0.1-0.1-0.3-0.2-0.5-0.2h-1.1c-0.2,0-0.3,0.1-0.5,0.2
		C613.3,402.7,613.2,402.9,613.1,403.1z"/>
	<path class="st153" d="M628.5,456.7c0,1.3-0.2,2.5-0.6,3.6c-0.4,1.1-1,2-2,2.8c-0.9,0.8-2.2,1.4-3.9,1.8c-1.6,0.4-3.7,0.6-6.2,0.6
		c-2.5,0-4.6-0.2-6.2-0.6c-1.6-0.4-2.9-1-3.8-1.8c-0.9-0.8-1.6-1.7-1.9-2.8c-0.4-1.1-0.5-2.3-0.5-3.6v-7c0-0.5,0.1-0.9,0.4-1.2
		c0.2-0.2,0.6-0.4,1.2-0.4h6.2c0.5,0,0.9,0.1,1.2,0.4c0.2,0.2,0.4,0.6,0.4,1.2v5.3c0,0.6,0.2,1.1,0.5,1.4c0.4,0.4,1.2,0.6,2.5,0.6
		c1.2,0,2-0.2,2.3-0.6c0.3-0.4,0.5-0.9,0.5-1.4v-19.6c0-0.5,0.1-0.9,0.4-1.2c0.2-0.2,0.6-0.4,1.2-0.4h6.8c0.5,0,0.9,0.1,1.2,0.4
		c0.2,0.2,0.4,0.6,0.4,1.2V456.7z"/>
	<path class="st153" d="M643,463.3c0,0.5-0.1,0.9-0.4,1.2c-0.2,0.2-0.6,0.4-1.2,0.4h-6.3c-0.5,0-0.9-0.1-1.2-0.4
		c-0.2-0.2-0.4-0.6-0.4-1.2v-11.4c0-0.9,0.1-1.9,0.4-3c0.3-1.1,0.7-2.4,1.3-3.9l3.7-9.8c0.2-0.5,0.4-0.8,0.8-1.1
		c0.4-0.2,0.8-0.3,1.4-0.3h11.6c0.5,0,1,0.1,1.4,0.3c0.4,0.2,0.6,0.6,0.8,1.1l3.7,9.8c0.6,1.5,1,2.8,1.3,3.9c0.3,1.1,0.4,2.1,0.4,3
		v11.4c0,0.5-0.1,0.9-0.4,1.2c-0.2,0.2-0.6,0.4-1.2,0.4h-6.5c-0.6,0-1-0.1-1.3-0.4c-0.3-0.2-0.4-0.6-0.4-1.2v-6H643V463.3z
		 M645.5,442.9l-2,6.6h6.8l-2-6.6c-0.1-0.3-0.2-0.4-0.4-0.6c-0.1-0.1-0.3-0.2-0.5-0.2h-1.1c-0.2,0-0.3,0.1-0.5,0.2
		C645.7,442.4,645.6,442.6,645.5,442.9z"/>
	<path class="st153" d="M721.2,473.6c0,1.3-0.2,2.5-0.6,3.6c-0.4,1.1-1,2-2,2.8c-0.9,0.8-2.2,1.4-3.9,1.8c-1.6,0.4-3.7,0.6-6.2,0.6
		c-2.5,0-4.6-0.2-6.2-0.6c-1.6-0.4-2.9-1-3.8-1.8c-0.9-0.8-1.6-1.7-1.9-2.8c-0.4-1.1-0.5-2.3-0.5-3.6v-7c0-0.5,0.1-0.9,0.4-1.2
		c0.2-0.2,0.6-0.4,1.2-0.4h6.2c0.5,0,0.9,0.1,1.2,0.4c0.2,0.2,0.4,0.6,0.4,1.2v5.3c0,0.6,0.2,1.1,0.5,1.4c0.4,0.4,1.2,0.6,2.5,0.6
		c1.2,0,2-0.2,2.3-0.6c0.3-0.4,0.5-0.9,0.5-1.4v-19.6c0-0.5,0.1-0.9,0.4-1.2c0.2-0.2,0.6-0.4,1.2-0.4h6.8c0.5,0,0.9,0.1,1.2,0.4
		c0.2,0.2,0.4,0.6,0.4,1.2V473.6z"/>
	<path class="st153" d="M735.7,480.2c0,0.5-0.1,0.9-0.4,1.2c-0.2,0.2-0.6,0.4-1.2,0.4h-6.3c-0.5,0-0.9-0.1-1.2-0.4
		c-0.2-0.2-0.4-0.6-0.4-1.2v-11.4c0-0.9,0.1-1.9,0.4-3c0.3-1.1,0.7-2.4,1.3-3.9l3.7-9.8c0.2-0.5,0.4-0.8,0.8-1.1
		c0.4-0.2,0.8-0.3,1.4-0.3h11.6c0.5,0,1,0.1,1.4,0.3c0.4,0.2,0.6,0.6,0.8,1.1l3.7,9.8c0.6,1.5,1,2.8,1.3,3.9c0.3,1.1,0.4,2.1,0.4,3
		v11.4c0,0.5-0.1,0.9-0.4,1.2c-0.2,0.2-0.6,0.4-1.2,0.4H745c-0.6,0-1-0.1-1.3-0.4c-0.3-0.2-0.4-0.6-0.4-1.2v-6h-7.6V480.2z
		 M738.2,459.8l-2,6.6h6.8l-2-6.6c-0.1-0.3-0.2-0.4-0.4-0.6c-0.1-0.1-0.3-0.2-0.5-0.2H739c-0.2,0-0.3,0.1-0.5,0.2
		C738.4,459.3,738.3,459.5,738.2,459.8z"/>
</g>
<g id="Layer_2">
	<rect x="34.9" y="28.9" class="st22" width="391.9" height="48.3"/>
	<text transform="matrix(1 0 0 1 34.8927 47.6332)" class="st0 st129 st128">HOla, Kaira POlet ARAYA</text>
	
		<use xlink:href="#barras"  width="433.6" height="172.4" x="-216.8" y="-86.2" transform="matrix(1 0 0 -1 289.8234 368.5386)" style="overflow:visible;"/>
</g>
</svg>
