<?xml version="1.0" encoding="utf-8"?>
<!-- Generator: Adobe Illustrator 21.1.0, SVG Export Plug-In . SVG Version: 6.00 Build 0)  -->
<svg version="1.1" xmlns="http://www.w3.org/2000/svg" xmlns:xlink="http://www.w3.org/1999/xlink" x="0px" y="0px"
	 viewBox="0 0 841.9 595.3" style="enable-background:new 0 0 841.9 595.3;" xml:space="preserve">
<style type="text/css">
	.st0{fill:#601515;}
	.st1{fill:#3FBA51;}
	.st2{fill:none;stroke:#601515;stroke-width:2;stroke-miterlimit:10;}
	.st3{fill:#F2C85F;}
	.st4{fill:#F2D3AD;}
	.st5{fill:#674C91;}
	.st6{fill:#DCFFC5;}
	.st7{fill:#8BAA77;}
	.st8{clip-path:url(#SVGID_2_);fill:#F1F3F7;}
	.st9{opacity:0.4;clip-path:url(#SVGID_2_);fill:#DCDDE0;}
	.st10{clip-path:url(#SVGID_2_);fill:#0076B7;}
	.st11{clip-path:url(#SVGID_2_);fill:#FFFFFF;}
	.st12{clip-path:url(#SVGID_2_);}
	.st13{fill:#FFFFFF;}
	.st14{fill:#F7CFA2;}
	.st15{fill:#ECB8FF;}
	.st16{fill:#393D47;}
	.st17{fill:#E86767;}
	.st18{opacity:0.1;fill:#3C2813;}
	.st19{fill:#EEEBE7;}
	.st20{fill:#3C2813;}
	.st21{fill:#795ACC;}
	.st22{fill:none;}
	.st23{clip-path:url(#SVGID_6_);fill:#F7EFDF;}
	.st24{fill:#3EBA50;}
	.st25{display:none;opacity:0.3;}
	.st26{fill:#F7EFDF;}
	.st27{fill:#4E9FA8;}
	.st28{fill:none;stroke:#231F20;stroke-width:2;stroke-miterlimit:10;}
	.st29{fill:#231F20;}
	.st30{fill:none;stroke:#674C91;stroke-miterlimit:10;}
	.st31{fill:#601515;stroke:#601515;stroke-miterlimit:10;}
	.st32{fill:none;stroke:#601515;stroke-miterlimit:10;}
	.st33{fill:none;stroke:#FFFFFF;stroke-miterlimit:10;}
	.st34{fill:url(#SVGID_9_);}
	.st35{fill:#601515;stroke:#8C8779;stroke-width:6;stroke-miterlimit:10;}
	.st36{fill:url(#SVGID_10_);}
	.st37{fill:none;stroke:#4E9FA8;stroke-width:12;stroke-miterlimit:10;}
	.st38{fill:#E0EA18;}
	.st39{clip-path:url(#SVGID_12_);fill:#F7EFDF;}
	.st40{fill:url(#SVGID_13_);}
	.st41{fill:url(#SVGID_14_);}
	.st42{fill:#EFEA35;}
	.st43{fill:url(#SVGID_15_);}
	.st44{fill:url(#SVGID_16_);}
	.st45{fill:url(#SVGID_17_);}
	.st46{fill:url(#SVGID_18_);}
	.st47{fill:url(#SVGID_19_);}
	.st48{fill:#C1C1B8;}
	.st49{fill:#9B9B97;}
	.st50{fill:#D8D8D2;}
	.st51{opacity:0.4;}
	.st52{opacity:0.6;}
	.st53{fill:#CEBABA;}
	.st54{fill:#EAEAE5;}
	.st55{fill:url(#SVGID_20_);}
	.st56{fill:url(#SVGID_21_);}
	.st57{fill:url(#SVGID_22_);}
	.st58{fill:url(#SVGID_23_);}
	.st59{fill:url(#SVGID_24_);}
	.st60{fill:url(#SVGID_25_);}
	.st61{fill:url(#SVGID_26_);}
	.st62{fill:url(#SVGID_27_);}
	.st63{fill:url(#SVGID_28_);}
	.st64{fill:#6BA8B2;}
	.st65{fill:#F1F3F7;}
	.st66{fill:#F0BA7A;}
	.st67{opacity:0.4;fill:#DCDDE0;}
	.st68{fill:#0076B7;}
	.st69{opacity:0.3;}
	.st70{fill:#DCDDE0;}
	.st71{fill:#004868;}
	.st72{opacity:0.1;fill:#601515;}
	.st73{fill:#F9F9F9;}
	.st74{fill:#24272D;}
	.st75{fill:#EA6D50;}
	.st76{font-family:'ElegantLux-Mager';}
	.st77{font-size:26px;}
	.st78{font-size:22px;}
	.st79{clip-path:url(#SVGID_30_);fill:#F0BA7A;}
	.st80{clip-path:url(#SVGID_30_);fill:#F1F3F7;}
	.st81{opacity:0.4;clip-path:url(#SVGID_30_);fill:#DCDDE0;}
	.st82{clip-path:url(#SVGID_30_);fill:#0076B7;}
	.st83{clip-path:url(#SVGID_30_);fill:#FFFFFF;}
	.st84{clip-path:url(#SVGID_30_);}
	.st85{opacity:0.3;fill:#601515;}
	.st86{fill:#5B1010;}
	.st87{clip-path:url(#SVGID_32_);fill:#F1F3F7;}
	.st88{clip-path:url(#SVGID_32_);fill:#F0BA7A;}
	.st89{opacity:0.4;clip-path:url(#SVGID_32_);fill:#DCDDE0;}
	.st90{clip-path:url(#SVGID_32_);fill:#0076B7;}
	.st91{clip-path:url(#SVGID_32_);fill:#FFFFFF;}
	.st92{clip-path:url(#SVGID_32_);}
	.st93{fill:#1F74C9;}
	.st94{fill:#595959;}
	.st95{opacity:0.1;fill:#8BAA77;}
	.st96{opacity:0.3;fill:#8BAA77;}
	.st97{opacity:0.1;fill:#595959;}
	.st98{opacity:0.3;fill:#595959;}
	.st99{fill:#9E921E;}
	.st100{clip-path:url(#SVGID_34_);fill:#F0BA7A;}
	.st101{clip-path:url(#SVGID_34_);fill:#F1F3F7;}
	.st102{clip-path:url(#SVGID_34_);}
	.st103{clip-path:url(#SVGID_34_);fill:#393D47;}
	.st104{clip-path:url(#SVGID_34_);fill:#FFFFFF;}
	.st105{opacity:0.4;clip-path:url(#SVGID_34_);fill:#DCDDE0;}
	.st106{clip-path:url(#SVGID_34_);fill:#0076B7;}
	.st107{fill:#B72C34;}
	.st108{clip-path:url(#SVGID_36_);fill:#F1F3F7;}
	.st109{clip-path:url(#SVGID_36_);}
	.st110{clip-path:url(#SVGID_38_);fill:#F1F3F7;}
	.st111{opacity:0.4;clip-path:url(#SVGID_38_);fill:#DCDDE0;}
	.st112{clip-path:url(#SVGID_38_);fill:#0076B7;}
	.st113{clip-path:url(#SVGID_38_);fill:#FFFFFF;}
	.st114{clip-path:url(#SVGID_38_);}
	.st115{fill:url(#SVGID_39_);}
	.st116{fill:url(#SVGID_40_);}
	.st117{fill:url(#SVGID_41_);}
	.st118{fill:url(#SVGID_42_);}
	.st119{fill:#A52323;}
	.st120{clip-path:url(#SVGID_44_);fill:#F1F3F7;}
	.st121{opacity:0.4;clip-path:url(#SVGID_44_);fill:#DCDDE0;}
	.st122{clip-path:url(#SVGID_44_);fill:#0076B7;}
	.st123{clip-path:url(#SVGID_44_);fill:#FFFFFF;}
	.st124{clip-path:url(#SVGID_44_);}
	.st125{fill:#023142;}
	.st126{clip-path:url(#SVGID_46_);fill:#F7CFA2;}
	.st127{clip-path:url(#SVGID_46_);}
	.st128{opacity:0.3;fill:#E57257;}
	.st129{opacity:0.2;}
	.st130{fill:#656D60;}
	.st131{clip-path:url(#SVGID_48_);fill:#F0BA7A;}
	.st132{clip-path:url(#SVGID_48_);fill:#F1F3F7;}
	.st133{opacity:0.4;clip-path:url(#SVGID_48_);fill:#DCDDE0;}
	.st134{clip-path:url(#SVGID_48_);fill:#0076B7;}
	.st135{clip-path:url(#SVGID_48_);fill:#FFFFFF;}
	.st136{clip-path:url(#SVGID_48_);}
	.st137{clip-path:url(#SVGID_50_);fill:#F1F3F7;}
	.st138{opacity:0.4;clip-path:url(#SVGID_50_);fill:#DCDDE0;}
	.st139{clip-path:url(#SVGID_50_);fill:#0076B7;}
	.st140{clip-path:url(#SVGID_50_);fill:#FFFFFF;}
	.st141{clip-path:url(#SVGID_50_);}
	.st142{clip-path:url(#SVGID_52_);fill:#F1F3F7;}
	.st143{opacity:0.4;clip-path:url(#SVGID_52_);fill:#DCDDE0;}
	.st144{clip-path:url(#SVGID_52_);fill:#0076B7;}
	.st145{clip-path:url(#SVGID_52_);fill:#FFFFFF;}
	.st146{clip-path:url(#SVGID_52_);}
	.st147{fill:#9E9E9E;}
	.st148{fill:#878787;}
	.st149{fill:url(#SVGID_53_);}
	.st150{fill:#CE6117;}
	.st151{fill:url(#SVGID_54_);}
	.st152{fill:#EFE91B;}
	.st153{clip-path:url(#SVGID_56_);fill:#F0BA7A;}
	.st154{clip-path:url(#SVGID_56_);fill:#F1F3F7;}
	.st155{opacity:0.4;clip-path:url(#SVGID_56_);fill:#DCDDE0;}
	.st156{clip-path:url(#SVGID_56_);fill:#0076B7;}
	.st157{clip-path:url(#SVGID_56_);fill:#FFFFFF;}
	.st158{clip-path:url(#SVGID_56_);}
	.st159{fill:#B27E49;}
	.st160{clip-path:url(#SVGID_58_);fill:#F1F3F7;}
	.st161{opacity:0.4;clip-path:url(#SVGID_58_);fill:#DCDDE0;}
	.st162{clip-path:url(#SVGID_58_);fill:#0076B7;}
	.st163{clip-path:url(#SVGID_58_);fill:#FFFFFF;}
	.st164{clip-path:url(#SVGID_58_);}
	.st165{fill:#8454D1;}
	.st166{clip-path:url(#SVGID_60_);fill:#393D47;}
	.st167{clip-path:url(#SVGID_60_);fill:#F0BA7A;}
	.st168{clip-path:url(#SVGID_60_);fill:#F1F3F7;}
	.st169{clip-path:url(#SVGID_60_);fill:#0076B7;}
	.st170{clip-path:url(#SVGID_60_);fill:#004868;}
	.st171{opacity:0.4;clip-path:url(#SVGID_60_);fill:#DCDDE0;}
	.st172{clip-path:url(#SVGID_60_);fill:#FFFFFF;}
	.st173{clip-path:url(#SVGID_60_);}
	.st174{fill:none;stroke:#EA6D50;stroke-width:2;stroke-miterlimit:10;}
	.st175{fill:url(#SVGID_61_);}
	.st176{fill:#777777;}
	.st177{fill:#A85848;}
	.st178{fill:#E85646;}
	.st179{fill:#EA4E39;}
	.st180{clip-path:url(#SVGID_63_);fill:#F1F3F7;}
	.st181{clip-path:url(#SVGID_63_);}
	.st182{fill:#B23C18;}
	.st183{fill:#6B2A05;}
	.st184{fill:#B23C18;stroke:#6B2A05;stroke-miterlimit:10;}
	.st185{fill:#DDAA78;}
	.st186{fill:#211205;}
	.st187{fill:none;stroke:#6B2A05;stroke-width:0.729;stroke-miterlimit:10;}
	.st188{fill:#B23C18;stroke:#6B2A05;stroke-width:0.729;stroke-miterlimit:10;}
	.st189{fill:#BBE8F2;}
	.st190{opacity:0.3;fill:#F2F8F9;}
	.st191{opacity:0.2;fill:#601515;}
	.st192{fill:#FFFF00;}
	.st193{fill:#594EEA;}
	.st194{fill:#FF0B0B;}
	.st195{fill:none;stroke:#3FBA51;stroke-width:8;stroke-miterlimit:10;}
	.st196{fill:none;stroke:#3FBA51;stroke-width:7.2;stroke-miterlimit:10;}
	.st197{fill:none;stroke:#3FBA51;stroke-width:7.2;stroke-linecap:round;stroke-miterlimit:10;}
	.st198{fill:none;stroke:#3FBA51;stroke-width:8;stroke-linecap:round;stroke-miterlimit:10;}
	.st199{fill:none;stroke:#3FBA51;stroke-width:5.1175;stroke-miterlimit:10;}
	.st200{fill:#4F5565;}
	.st201{fill:#D64E3C;}
	.st202{fill:#F7A500;}
	.st203{fill:#FBD303;}
	.st204{fill:#FCFCFD;}
	.st205{fill:#F8B517;}
	.st206{fill:#F0582F;}
	.st207{fill:#BAE8F2;}
	.st208{fill:#F7EA72;}
	.st209{clip-path:url(#SVGID_65_);fill:#F7EFDF;}
	.st210{fill:none;stroke:#3FBA51;stroke-width:6.4304;stroke-miterlimit:10;}
	.st211{fill:url(#SVGID_66_);}
	.st212{fill:url(#SVGID_67_);}
	.st213{fill:url(#SVGID_68_);}
	.st214{fill:url(#SVGID_69_);}
	.st215{fill:url(#SVGID_70_);}
	.st216{fill:url(#SVGID_71_);}
	.st217{fill:url(#SVGID_72_);}
	.st218{fill:url(#SVGID_73_);}
	.st219{fill:url(#SVGID_74_);}
	.st220{fill:url(#SVGID_75_);}
	.st221{fill:url(#SVGID_76_);}
	.st222{fill:url(#SVGID_77_);}
	.st223{fill:url(#SVGID_78_);}
	.st224{fill:url(#SVGID_79_);}
	.st225{fill:url(#SVGID_80_);}
	.st226{fill:url(#SVGID_81_);}
	.st227{fill:url(#SVGID_82_);}
	.st228{fill:url(#SVGID_83_);}
	.st229{fill:url(#SVGID_84_);}
	.st230{fill:url(#SVGID_85_);}
	.st231{fill:url(#SVGID_86_);}
	.st232{fill:url(#SVGID_87_);}
	.st233{fill:url(#SVGID_88_);}
	.st234{fill:url(#SVGID_89_);}
	.st235{fill:url(#SVGID_90_);}
	.st236{fill:url(#SVGID_91_);}
	.st237{fill:url(#SVGID_92_);}
	.st238{fill:url(#SVGID_93_);}
	.st239{fill:url(#SVGID_94_);}
	.st240{fill:url(#SVGID_95_);}
	.st241{fill:url(#SVGID_96_);}
	.st242{fill:url(#SVGID_97_);}
	.st243{fill:url(#SVGID_98_);}
	.st244{fill:url(#SVGID_99_);}
	.st245{fill:url(#SVGID_100_);}
	.st246{fill:url(#SVGID_101_);}
	.st247{opacity:0.7;fill:#7BCDDB;}
	.st248{fill:none;stroke:#F0BA7A;stroke-width:3;stroke-miterlimit:10;}
	.st249{fill:url(#SVGID_102_);}
	.st250{fill:url(#SVGID_103_);}
	.st251{fill:url(#SVGID_104_);}
	.st252{fill:url(#SVGID_105_);}
	.st253{fill:url(#SVGID_106_);}
	.st254{fill:url(#SVGID_107_);}
	.st255{fill:url(#SVGID_108_);}
	.st256{opacity:0.5;fill:#302929;}
	.st257{fill:#EF3F50;}
	.st258{fill:url(#SVGID_109_);}
	.st259{fill:url(#SVGID_110_);}
	.st260{fill:url(#SVGID_111_);}
	.st261{fill:url(#SVGID_112_);}
	.st262{opacity:0.6;fill:#302929;}
	.st263{fill:url(#SVGID_113_);}
	.st264{fill:url(#SVGID_114_);}
	.st265{fill:url(#SVGID_115_);}
	.st266{fill:url(#SVGID_116_);}
	.st267{fill:url(#SVGID_117_);}
	.st268{fill:url(#SVGID_118_);}
	.st269{fill:url(#SVGID_119_);}
	.st270{fill:url(#SVGID_120_);}
	.st271{fill:url(#SVGID_121_);}
	.st272{fill:url(#SVGID_122_);}
	.st273{fill:url(#SVGID_123_);}
	.st274{fill:url(#SVGID_124_);}
	.st275{fill:url(#SVGID_125_);}
	.st276{fill:url(#SVGID_126_);}
	.st277{fill:url(#SVGID_127_);}
	.st278{fill:url(#SVGID_128_);}
	.st279{fill:url(#SVGID_129_);}
	.st280{fill:url(#SVGID_130_);}
	.st281{fill:url(#SVGID_131_);}
	.st282{fill:url(#SVGID_132_);}
	.st283{fill:url(#SVGID_133_);}
	.st284{fill:url(#SVGID_134_);}
	.st285{fill:url(#SVGID_135_);}
	.st286{fill:url(#SVGID_136_);}
	.st287{fill:url(#SVGID_137_);}
	.st288{fill:url(#SVGID_138_);}
	.st289{fill:url(#SVGID_139_);}
	.st290{fill:url(#SVGID_140_);}
	.st291{fill:url(#SVGID_141_);}
	.st292{fill:url(#SVGID_142_);}
	.st293{fill:url(#SVGID_143_);}
	.st294{fill:url(#SVGID_144_);}
	.st295{fill:url(#SVGID_145_);}
	.st296{fill:url(#SVGID_146_);}
	.st297{fill:url(#SVGID_147_);}
	.st298{fill:url(#SVGID_148_);}
	.st299{fill:url(#SVGID_149_);}
	.st300{fill:url(#SVGID_150_);}
	.st301{fill:url(#SVGID_151_);}
	.st302{fill:url(#SVGID_152_);}
	.st303{fill:url(#SVGID_153_);}
	.st304{fill:url(#SVGID_154_);}
	.st305{fill:url(#SVGID_155_);}
	.st306{fill:url(#SVGID_156_);}
	.st307{fill:url(#SVGID_157_);}
	.st308{fill:url(#SVGID_158_);}
	.st309{fill:url(#SVGID_159_);}
	.st310{fill:url(#SVGID_160_);}
	.st311{fill:url(#SVGID_161_);}
	.st312{fill:url(#SVGID_162_);}
	.st313{fill:url(#SVGID_163_);}
	.st314{fill:url(#SVGID_164_);}
	.st315{fill:url(#SVGID_165_);}
	.st316{fill:url(#SVGID_166_);}
	.st317{fill:url(#SVGID_167_);}
	.st318{fill:url(#SVGID_168_);}
	.st319{fill:url(#SVGID_169_);}
	.st320{fill:url(#SVGID_170_);}
	.st321{fill:url(#SVGID_171_);}
	.st322{fill:url(#SVGID_172_);}
	.st323{fill:url(#SVGID_173_);}
	.st324{fill:url(#SVGID_174_);}
	.st325{fill:url(#SVGID_175_);}
	.st326{fill:url(#SVGID_176_);}
	.st327{fill:url(#SVGID_177_);}
	.st328{fill:url(#SVGID_178_);}
	.st329{fill:url(#SVGID_179_);}
	.st330{fill:url(#SVGID_180_);}
	.st331{fill:url(#SVGID_181_);}
	.st332{fill:url(#SVGID_182_);}
	.st333{fill:url(#SVGID_183_);}
	.st334{fill:url(#SVGID_184_);}
	.st335{fill:url(#SVGID_185_);}
	.st336{fill:url(#SVGID_186_);}
	.st337{fill:url(#SVGID_187_);}
	.st338{fill:url(#SVGID_188_);}
	.st339{fill:url(#SVGID_189_);}
	.st340{fill:url(#SVGID_190_);}
	.st341{fill:url(#SVGID_191_);}
	.st342{fill:url(#SVGID_192_);}
	.st343{fill:url(#SVGID_193_);}
	.st344{fill:url(#SVGID_194_);}
	.st345{fill:url(#SVGID_195_);}
	.st346{fill:url(#SVGID_196_);}
	.st347{fill:url(#SVGID_197_);}
	.st348{fill:url(#SVGID_198_);}
	.st349{fill:url(#SVGID_199_);}
	.st350{fill:url(#SVGID_200_);}
	.st351{fill:url(#SVGID_201_);}
	.st352{fill:url(#SVGID_202_);}
	.st353{fill:url(#SVGID_203_);}
	.st354{fill:url(#SVGID_204_);}
	.st355{fill:url(#SVGID_205_);}
	.st356{fill:url(#SVGID_206_);}
	.st357{fill:url(#SVGID_207_);}
	.st358{fill:url(#SVGID_208_);}
	.st359{fill:url(#SVGID_209_);}
	.st360{fill:url(#SVGID_210_);}
	.st361{fill:url(#SVGID_211_);}
	.st362{fill:url(#SVGID_212_);}
	.st363{fill:url(#SVGID_213_);}
	.st364{fill:url(#SVGID_214_);}
	.st365{fill:url(#SVGID_215_);}
	.st366{fill:url(#SVGID_216_);}
	.st367{fill:url(#SVGID_217_);}
	.st368{fill:url(#SVGID_218_);}
	.st369{fill:url(#SVGID_219_);}
	.st370{fill:url(#SVGID_220_);}
	.st371{fill:url(#SVGID_221_);}
	.st372{fill:url(#SVGID_222_);}
	.st373{fill:url(#SVGID_223_);}
	.st374{fill:url(#SVGID_224_);}
	.st375{fill:url(#SVGID_225_);}
	.st376{fill:url(#SVGID_226_);}
	.st377{fill:url(#SVGID_227_);}
	.st378{fill:url(#SVGID_228_);}
	.st379{fill:url(#SVGID_229_);}
	.st380{fill:url(#SVGID_230_);}
	.st381{fill:url(#SVGID_231_);}
	.st382{fill:url(#SVGID_232_);}
	.st383{fill:url(#SVGID_233_);}
	.st384{fill:url(#SVGID_234_);}
	.st385{fill:url(#SVGID_235_);}
	.st386{fill:url(#SVGID_236_);}
	.st387{fill:url(#SVGID_237_);}
	.st388{fill:url(#SVGID_238_);}
	.st389{fill:url(#SVGID_239_);}
	.st390{fill:none;stroke:#9B9B97;stroke-miterlimit:10;}
	.st391{fill:url(#SVGID_240_);}
	.st392{fill:url(#SVGID_241_);}
	.st393{fill:url(#SVGID_242_);}
	.st394{fill:url(#SVGID_243_);}
	.st395{fill:url(#SVGID_244_);}
	.st396{fill:url(#SVGID_245_);}
	.st397{fill:url(#SVGID_246_);}
	.st398{fill:url(#SVGID_247_);}
	.st399{fill:url(#SVGID_248_);}
	.st400{fill:url(#SVGID_249_);}
	.st401{fill:url(#SVGID_250_);}
	.st402{fill:url(#SVGID_251_);}
	.st403{fill:url(#SVGID_252_);}
	.st404{fill:url(#SVGID_253_);}
	.st405{fill:url(#SVGID_254_);}
	.st406{fill:url(#SVGID_255_);}
	.st407{fill:url(#SVGID_256_);}
	.st408{fill:url(#SVGID_257_);}
	.st409{fill:url(#SVGID_258_);}
	.st410{fill:url(#SVGID_259_);}
	.st411{fill:url(#SVGID_260_);}
	.st412{fill:url(#SVGID_261_);}
	.st413{fill:url(#SVGID_262_);}
	.st414{fill:url(#SVGID_263_);}
	.st415{fill:url(#SVGID_264_);}
	.st416{fill:url(#SVGID_265_);}
	.st417{fill:url(#SVGID_266_);}
	.st418{fill:url(#SVGID_267_);}
	.st419{fill:url(#SVGID_268_);}
	.st420{fill:url(#SVGID_269_);}
	.st421{fill:url(#SVGID_270_);}
	.st422{fill:url(#SVGID_271_);}
	.st423{fill:url(#SVGID_272_);}
	.st424{fill:url(#SVGID_273_);}
	.st425{fill:url(#SVGID_274_);}
	.st426{fill:url(#SVGID_275_);}
	.st427{fill:url(#SVGID_276_);}
	.st428{fill:url(#SVGID_277_);}
	.st429{fill:url(#SVGID_278_);}
	.st430{fill:url(#SVGID_279_);}
	.st431{fill:url(#SVGID_280_);}
	.st432{fill:url(#SVGID_281_);}
	.st433{fill:url(#SVGID_282_);}
	.st434{fill:url(#SVGID_283_);}
	.st435{fill:url(#SVGID_284_);}
	.st436{fill:url(#SVGID_285_);}
	.st437{fill:url(#SVGID_286_);}
	.st438{fill:url(#SVGID_287_);}
	.st439{fill:url(#SVGID_288_);}
	.st440{fill:url(#SVGID_289_);}
	.st441{fill:url(#SVGID_290_);}
	.st442{fill:url(#SVGID_291_);}
	.st443{fill:url(#SVGID_292_);}
	.st444{fill:url(#SVGID_293_);}
	.st445{fill:url(#SVGID_294_);}
	.st446{fill:url(#SVGID_295_);}
	.st447{fill:url(#SVGID_296_);}
	.st448{fill:url(#SVGID_297_);}
	.st449{fill:url(#SVGID_298_);}
	.st450{fill:url(#SVGID_299_);}
	.st451{fill:url(#SVGID_300_);}
	.st452{fill:url(#SVGID_301_);}
	.st453{fill:url(#SVGID_302_);}
	.st454{fill:url(#SVGID_303_);}
	.st455{fill:url(#SVGID_304_);}
	.st456{fill:url(#SVGID_305_);}
	.st457{fill:url(#SVGID_306_);}
	.st458{fill:url(#SVGID_307_);}
	.st459{fill:url(#SVGID_308_);}
	.st460{fill:url(#SVGID_309_);}
	.st461{fill:url(#SVGID_310_);}
	.st462{fill:url(#SVGID_311_);}
	.st463{fill:url(#SVGID_312_);}
	.st464{fill:url(#SVGID_313_);}
	.st465{fill:url(#SVGID_314_);}
	.st466{fill:url(#SVGID_315_);}
	.st467{fill:url(#SVGID_316_);}
	.st468{fill:url(#SVGID_317_);}
	.st469{fill:url(#SVGID_318_);}
	.st470{fill:url(#SVGID_319_);}
	.st471{fill:url(#SVGID_320_);}
	.st472{fill:url(#SVGID_321_);}
	.st473{fill:url(#SVGID_322_);}
	.st474{fill:url(#SVGID_323_);}
	.st475{fill:url(#SVGID_324_);}
	.st476{fill:url(#SVGID_325_);}
	.st477{fill:url(#SVGID_326_);}
	.st478{fill:url(#SVGID_327_);}
	.st479{fill:url(#SVGID_328_);}
	.st480{fill:url(#SVGID_329_);}
	.st481{fill:url(#SVGID_330_);}
	.st482{fill:url(#SVGID_331_);}
	.st483{fill:url(#SVGID_332_);}
	.st484{fill:url(#SVGID_333_);}
	.st485{fill:url(#SVGID_334_);}
	.st486{fill:url(#SVGID_335_);}
	.st487{fill:url(#SVGID_336_);}
	.st488{fill:url(#SVGID_337_);}
	.st489{fill:url(#SVGID_338_);}
	.st490{fill:url(#SVGID_339_);}
	.st491{fill:url(#SVGID_340_);}
	.st492{fill:url(#SVGID_341_);}
	.st493{fill:url(#SVGID_342_);}
	.st494{fill:url(#SVGID_343_);}
	.st495{fill:url(#SVGID_344_);}
	.st496{fill:url(#SVGID_345_);}
	.st497{fill:url(#SVGID_346_);}
	.st498{fill:url(#SVGID_347_);}
	.st499{fill:url(#SVGID_348_);}
	.st500{fill:url(#SVGID_349_);}
	.st501{fill:url(#SVGID_350_);}
	.st502{fill:url(#SVGID_351_);}
	.st503{fill:url(#SVGID_352_);}
	.st504{fill:url(#SVGID_353_);}
	.st505{fill:url(#SVGID_354_);}
	.st506{fill:url(#SVGID_355_);}
	.st507{fill:url(#SVGID_356_);}
	.st508{fill:url(#SVGID_357_);}
	.st509{fill:url(#SVGID_358_);}
	.st510{fill:url(#SVGID_359_);}
	.st511{fill:url(#SVGID_360_);}
	.st512{fill:url(#SVGID_361_);}
	.st513{fill:url(#SVGID_362_);}
	.st514{fill:url(#SVGID_363_);}
	.st515{fill:url(#SVGID_364_);}
	.st516{fill:url(#SVGID_365_);}
	.st517{fill:url(#SVGID_366_);}
	.st518{fill:url(#SVGID_367_);}
	.st519{fill:url(#SVGID_368_);}
	.st520{fill:url(#SVGID_369_);}
	.st521{fill:url(#SVGID_370_);}
	.st522{fill:url(#SVGID_371_);}
	.st523{fill:url(#SVGID_372_);}
	.st524{fill:url(#SVGID_373_);}
	.st525{fill:url(#SVGID_374_);}
	.st526{fill:url(#SVGID_375_);}
	.st527{fill:url(#SVGID_376_);}
	.st528{fill:url(#SVGID_377_);}
	.st529{font-family:'Bungee-Regular';}
	.st530{clip-path:url(#SVGID_379_);}
	.st531{clip-path:url(#SVGID_381_);}
	.st532{fill:#F4F0A6;}
	.st533{clip-path:url(#SVGID_383_);}
	.st534{opacity:0.6;fill:none;stroke:#F7CFA2;stroke-miterlimit:10;}
	.st535{fill:none;stroke:#F7CFA2;stroke-miterlimit:10;}
	.st536{fill:#EAA56C;}
	.st537{clip-path:url(#SVGID_385_);fill:#F7EFDF;}
</style>
<symbol  id="barras" viewBox="-216.8 -86.2 433.6 172.4">
	<g>
		<rect x="113.2" y="-86.2" class="st22" width="103.6" height="30.9"/>
		<text transform="matrix(1 0 0 -1 126.502 -65.4814)" class="st0 st76" style="font-size:15.36px;">Casi Siempre</text>
	</g>
	<rect x="-105.9" y="-35" class="st1" width="87" height="28.2"/>
	<rect x="-215.8" y="-35.3" class="st1" width="87" height="8.8"/>
	<rect x="7.8" y="-35" class="st1" width="87" height="61.7"/>
	<rect x="121.5" y="-35" class="st1" width="87" height="120.1"/>
	<g>
		<rect x="-101.5" y="-73.4" class="st22" width="78" height="18.1"/>
		<text transform="matrix(1 0 0 -1 -95.3037 -65.4814)" class="st0 st76" style="font-size:15.36px;">Casi nunca</text>
	</g>
	<rect x="-105.9" y="-35" class="st2" width="87" height="28.2"/>
	<g>
		<rect x="-192.1" y="-86.2" class="st22" width="39.6" height="30.9"/>
		<text transform="matrix(1 0 0 -1 -191.6748 -65.4814)" class="st0 st76" style="font-size:15.36px;">Nunca</text>
	</g>
	<rect x="-215.8" y="-35.3" class="st2" width="87" height="8.8"/>
	<g>
		<rect x="-3.7" y="-86.2" class="st22" width="110" height="30.9"/>
		<text transform="matrix(1 0 0 -1 9.9785 -65.4795)" class="st0 st76" style="font-size:15.36px;">Algunas veces</text>
	</g>
	<rect x="7.8" y="-35" class="st2" width="87" height="61.7"/>
	<rect x="121.5" y="-35" class="st2" width="87" height="120.1"/>
</symbol>
<g id="Layer_1">
	<g>
		<path class="st14" d="M739.9,110.2c0.3,0,0.5-0.1,0.8-0.1C740.4,110.1,740.2,110.2,739.9,110.2z"/>
	</g>
	<g>
		<path class="st14" d="M739.2,110.3c0.2,0,0.4-0.1,0.7-0.1C739.7,110.2,739.4,110.3,739.2,110.3z"/>
	</g>
	<path class="st21" d="M734.1,99.2H621.9c-3.2,0-5.8-2.6-5.8-5.8V65.6c0-3.2,2.6-5.8,5.8-5.8h112.3c3.2,0,5.8,2.6,5.8,5.8v27.7
		C740,96.5,737.3,99.2,734.1,99.2z"/>
	<rect x="637.8" y="70" class="st22" width="81.9" height="28.3"/>
	<text transform="matrix(1 0 0 1 656.7838 87.3313)" class="st13 st76 st77">Listo</text>
	<rect x="32.2" y="72.9" class="st22" width="391.9" height="48.3"/>
	<text transform="matrix(1 0 0 1 32.1862 90.2053)" class="st0 st76 st77">Instrucciones</text>
	<rect x="32.2" y="72.9" class="st22" width="391.9" height="48.3"/>
	<text transform="matrix(1 0 0 1 32.1862 90.2053)" class="st0 st76 st77">Instrucciones</text>
	<polyline class="st22" points="684.1,16.9 681.7,65.2 292.2,65.2 	"/>
	<rect x="31.4" y="116.4" class="st22" width="541.9" height="88.3"/>
	<text transform="matrix(1 0 0 1 31.4305 131.0442)" class="st0 st76 st78">He molestado a otros compañeros/as</text>
	<circle class="st6" cx="687.4" cy="363.9" r="99.7"/>
	<g>
		<defs>
			<path id="SVGID_29_" d="M787.1,363.9c0,55.1-44.7,99.7-99.7,99.7s-99.7-44.7-99.7-99.7c0-55.1-18.2-171.1,112.2-162.6
				C754.8,204.9,787.1,308.8,787.1,363.9z"/>
		</defs>
		<clipPath id="SVGID_2_">
			<use xlink:href="#SVGID_29_"  style="overflow:visible;"/>
		</clipPath>
		<path style="clip-path:url(#SVGID_2_);fill:#F0BA7A;" d="M681.1,398.8l-8.7,0.4c-6.9,0.3-12.8-5.1-13.1-12l-1-22.7
			c-0.3-6.9,5.1-12.8,12-13.1l8.7-0.4c6.9-0.3,12.8,5.1,13.1,12l1,22.7C693.4,392.5,688,398.4,681.1,398.8z"/>
		<path class="st8" d="M737.9,405.1c-1.6-13.3-3-22.5-14.5-25.7c-6.9-1.9-21.9-2.3-30.4-1l-33.2,5.5c-10.2,1.7-28.5,0.5-35.2,6.1
			c-8.1,6.8-3.3,21.1-1.9,32.8l10.9,91.8c0.7,5.8,2.7,11,5.7,15.6c35.4-3.3,70.8-9.6,106.2-14.4c2.8-6.3,4-13.2,3.2-20.2
			L737.9,405.1z"/>
		<path class="st8" d="M634.9,396.3l4.1,0.9c6.9,1,8.4,15.1,3.4,31.3l-7.8,32.2l-7.6,37.5c-2.7,8.9-4.2,16.1-8.1,19.7
			c-3.2,3-8.7,4-11.8,3.6L597,520c-2.6-0.4-6.7-2.2-8-4.7c-2.1-4.3-0.1-11.3,3-21.5c0,0,14.1-51.2,10.9-38.3
			c-3.1,12.9,5.5-21,11.5-38.3C620.4,399.8,628,395.3,634.9,396.3z"/>
		<path class="st8" d="M716.9,380l-3.8,1.8c-6.4,2.6-4.6,16.6,4,31.2l15.2,29.5l16.2,34.7c4.7,8,7.9,14.6,12.5,17.3
			c3.8,2.2,9.4,1.8,12.3,0.7l9.5-3.8c2.4-1,6-3.7,6.6-6.5c1.1-4.7-2.6-11-8-20.2c0,0-25.7-46.5-19.6-34.7
			c6.1,11.8-10.3-19.1-20.2-34.6C731.8,379.9,723.3,377.4,716.9,380z"/>
		<polygon class="st9" points="680.7,416.5 676.5,381.2 693,386.4 		"/>
		<polygon class="st9" points="680.7,416.5 676.5,381.2 661.7,390.1 		"/>
		<polygon class="st10" points="688.6,385.5 676.2,381.4 667.6,389.5 674.9,397.9 682.8,397.1 		"/>
		<polygon class="st10" points="702.9,474.1 691.4,489.8 674.7,479.1 674.9,397.9 682.8,397.1 		"/>
		<polygon class="st11" points="676.5,381.2 676.6,381.8 693.1,392.8 698.1,378.8 694.4,373.4 		"/>
		<polygon class="st11" points="676.5,381.2 676.6,381.8 663,396.3 654.9,383.9 657.3,377.9 		"/>
		<g class="st12">
			<polygon class="st13" points="695.4,435.5 708,442 721,435.5 721,416.5 695.4,416.5 			"/>
			<rect x="695.4" y="408.4" class="st13" width="25.6" height="6"/>
		</g>
		<g class="st12">
			<path class="st14" d="M594.4,352.8c0,0.3,0,0.5,0,0.8C594.4,353.4,594.4,353.1,594.4,352.8z"/>
		</g>
	</g>
	<g>
		<path class="st14" d="M594.4,352.1c0,0.2,0,0.5,0,0.7C594.4,352.6,594.4,352.3,594.4,352.1z"/>
	</g>
	<g>
		<g>
			<path class="st14" d="M714.7,283.5c0.2-0.1,0.5-0.2,0.7-0.4C715.2,283.2,714.9,283.3,714.7,283.5z"/>
		</g>
		<g>
			<path class="st14" d="M714.1,283.8c0.2-0.1,0.4-0.2,0.6-0.3C714.5,283.6,714.3,283.7,714.1,283.8z"/>
		</g>
		<g>
			<path class="st14" d="M712.3,285.8c-0.1,0.9-0.3,2.6,0.4,3.3l2.7-6.1c-0.2,0.1-0.5,0.3-0.7,0.4c-0.2,0.1-0.4,0.2-0.6,0.3
				C713.2,284.2,712.5,284.7,712.3,285.8z"/>
		</g>
		<path class="st66" d="M675.4,326.1l-9,2.9c-8.8,2.8-18.4-2.1-21.3-10.9l-8.7-27.2c-2.8-8.8,2.1-18.4,10.9-21.3l9-2.9
			c8.8-2.8,18.4,2.1,21.3,10.9l8.7,27.2C689.1,313.7,684.2,323.2,675.4,326.1z"/>
		
			<ellipse transform="matrix(0.952 -0.306 0.306 0.952 -67.7221 198.8876)" class="st14" cx="600.5" cy="315.5" rx="16.8" ry="16.8"/>
		
			<ellipse transform="matrix(0.952 -0.306 0.306 0.952 -67.7221 198.8876)" class="st66" cx="600.5" cy="315.5" rx="11.1" ry="11.1"/>
		
			<ellipse transform="matrix(0.952 -0.306 0.306 0.952 -48.7215 236.6229)" class="st14" cx="730.4" cy="273.7" rx="16.8" ry="16.8"/>
		
			<ellipse transform="matrix(0.952 -0.306 0.306 0.952 -48.7215 236.6229)" class="st66" cx="730.4" cy="273.7" rx="11.1" ry="11.1"/>
		<path class="st14" d="M726.8,259.3c-14.2-75.9-46.9-44.5-83.3-32.8c-36.4,11.7-58.2,45.4-48.6,75.2c2.1,6.7,10,31.2,12.2,37.9
			c9.6,29.8,60.8,40,83.3,32.8c19.9-6.4,58.2-45.4,48.6-75.2C736.9,290.5,728.1,266.2,726.8,259.3z"/>
		<path class="st0" d="M698.4,250.9c-2.1-1.1,0.1-5.2,0.1-5.2c9-4.6,15.6,10.7,23.6,2.9c2.7-2.6-1-8.4-2.5-13.1c7,8.8,7.2,0,12-4.7
			c-1.1-5.4-2-10-2.8-12.5c-11.4-35.6-49.3-47.8-84.9-36.3c-34.7,11.2-47.1,39-37.5,73.8c24.2-17.9,46.6-10.3,69.6,0.2
			C683.4,253.4,690.7,253.3,698.4,250.9z"/>
		<path class="st0" d="M637.1,217.8c0.4-1-0.2-2-1.2-2.3c0,0,0,0,0,0c-24.7-7.4-50.8,6.7-58.2,31.4c-5.1,17.1,0,34.8,11.8,46.5
			c0.8,0.8,2,0.7,2.7-0.2C610.3,270,627.1,245.2,637.1,217.8z"/>
		<g>
			<path class="st72" d="M719.7,276.9c4.3,13.3,1.8,25.9-11.4,30.2c-13.3,4.3-25-3.8-29.3-17.1s0.6-26.7,13.9-30.9
				C706.1,254.8,715.4,263.6,719.7,276.9z"/>
			
				<ellipse transform="matrix(0.952 -0.306 0.306 0.952 -53.4896 227.7723)" class="st13" cx="699.8" cy="284.5" rx="21.9" ry="21.9"/>
			<g>
				
					<ellipse transform="matrix(0.952 -0.306 0.306 0.952 -55.7291 230.5711)" class="st0" cx="707.6" cy="293" rx="10.5" ry="10.5"/>
				<ellipse transform="matrix(0.952 -0.306 0.306 0.952 -55.7291 230.5711)" cx="707.6" cy="293" rx="4.1" ry="4.1"/>
				<ellipse transform="matrix(0.952 -0.306 0.306 0.952 -54.7772 229.1802)" class="st73" cx="703.6" cy="289.3" rx="3" ry="3"/>
			</g>
		</g>
		<g>
			<path class="st72" d="M610.8,311.9c4.3,13.3,13.6,22.1,26.9,17.9c13.3-4.3,18.1-17.7,13.9-30.9c-4.3-13.3-16-21.3-29.3-17.1
				C608.9,286,606.5,298.6,610.8,311.9z"/>
			
				<ellipse transform="matrix(0.952 -0.306 0.306 0.952 -63.4996 207.8916)" class="st13" cx="631.4" cy="306.5" rx="21.9" ry="21.9"/>
			<g>
				
					<ellipse transform="matrix(0.952 -0.306 0.306 0.952 -64.2439 211.1433)" class="st0" cx="641.4" cy="310.5" rx="10.5" ry="10.5"/>
				<ellipse transform="matrix(0.952 -0.306 0.306 0.952 -64.2439 211.1433)" cx="641.4" cy="310.5" rx="4.1" ry="4.1"/>
				<ellipse transform="matrix(0.952 -0.306 0.306 0.952 -63.2723 209.7917)" class="st73" cx="637.5" cy="306.7" rx="3" ry="3"/>
			</g>
		</g>
		<path class="st75" d="M706.5,335.7c-7.4,20.4-32.4,29.4-49.4,16.4c15,1,31-3,43.3-12.1C704.3,337.4,706.5,335.7,706.5,335.7z"/>
		<path class="st66" d="M677,331.9L677,331.9c-5.3,1.7-10.9-1.2-12.6-6.5l-11.1-34.5c-1.7-5.3,1.2-10.9,6.5-12.6l0,0
			c5.3-1.7,10.9,1.2,12.6,6.5l11.1,34.5C685.1,324.6,682.2,330.2,677,331.9z"/>
		<path class="st14" d="M673.2,326.9L673.2,326.9c-5.3,1.7-10.9-1.2-12.6-6.5l-11.1-34.5c-1.7-5.3,1.2-10.9,6.5-12.6l0,0
			c5.3-1.7,10.9,1.2,12.6,6.5l11.1,34.5C681.4,319.5,678.5,325.2,673.2,326.9z"/>
		<path class="st0" d="M602.7,255.8c0,0,19.5,2.1,29.4,4.9c13.7,3.8,37.9-3,37.9-3s-24.8-17.8-37.5-17.5
			C619.9,240.6,602.7,255.8,602.7,255.8z"/>
		<path class="st0" d="M585.5,225.9c0,0,6.8-2.5,10.4-3.2c5.1-1,12-7.1,12-7.1s-11-1.8-15.1,0.4
			C588.7,218.1,585.5,225.9,585.5,225.9z"/>
		<path class="st0" d="M608.8,195c0,0,0.2,7.2,0.9,10.9c1,5.1-2.2,13.7-2.2,13.7s-5.7-9.6-5.2-14.2C602.7,200.8,608.8,195,608.8,195
			z"/>
		<ellipse transform="matrix(0.952 -0.306 0.306 0.952 -72.191 207.3881)" class="st66" cx="625.4" cy="334" rx="2.5" ry="1.3"/>
		<ellipse transform="matrix(0.952 -0.306 0.306 0.952 -70.8049 210.1407)" class="st66" cx="634.9" cy="330.9" rx="2.5" ry="1.3"/>
		<ellipse transform="matrix(0.952 -0.306 0.306 0.952 -72.8743 209.4574)" class="st66" cx="631.7" cy="337.2" rx="2.5" ry="1.3"/>
		<ellipse transform="matrix(0.952 -0.306 0.306 0.952 -59.763 232.0703)" class="st66" cx="710.4" cy="306.7" rx="2.5" ry="1.3"/>
		<ellipse transform="matrix(0.952 -0.306 0.306 0.952 -58.3769 234.8229)" class="st66" cx="719.8" cy="303.6" rx="2.5" ry="1.3"/>
		<ellipse transform="matrix(0.952 -0.306 0.306 0.952 -60.4463 234.1396)" class="st66" cx="716.6" cy="309.9" rx="2.5" ry="1.3"/>
		<path class="st85" d="M587.1,276.4l18.6,55l3.7-6.5l-6.6-34.7c0,0,1.4-24.3,10.8-32c9.4-7.8,30.3-15.8,30.3-15.8l-20.6-3.2
			L587.1,276.4z"/>
		<path class="st85" d="M719.9,230.8l13.3,51.8l-3.6,3.7l-14.8-32.1c0,0-15.3-18.9-27.4-19.8s-33.8,4.8-33.8,4.8l14.9-14.6
			L719.9,230.8z"/>
		<path class="st86" d="M683.6,280.4c6.5-11.3,33.2-21,25.5-28.3c-6.5-9-35,9.9-36,26.9c0.8,6.2,4,6.1,5.9,6.6
			C680.6,284.4,682.3,282.6,683.6,280.4z"/>
		<path class="st86" d="M615.1,286.6c15.4,4.3,26,9.5,41,8.5c2,0,4-1,5-3c1-8-6.4-7.6-12.4-10.6c-12-4-23.6-6.4-36.6-4.4
			c-2,0-3,2-2.6,3.8C608.5,284.3,610.9,286.8,615.1,286.6z"/>
		<g class="st52">
			<g>
				<path class="st14" d="M637.1,196.3c4.9,0,9.5-2.5,14.2-3.7c5.1-1.2,10.4-0.4,15.5-1.6c0.8-0.2,0.6-1.4-0.2-1.4
					c-4.9,0.2-10-0.4-14.9,0.7c-4.7,1.1-10.8,2.7-14.7,5.5C636.8,195.9,636.8,196.3,637.1,196.3L637.1,196.3z"/>
			</g>
		</g>
	</g>
	<g>
		<path class="st65" d="M643.8,381.9c-9.7-4.8-24.7-3.8-31.6,6.1c-1.1,1.5-1.9,3.3-2.4,5.1c-0.5,1.9-0.8,3.9-0.6,6
			c0.1,1.4,0.2,2.8,0.4,4.3c0.8,5.7,2.5,11.2,4.8,16c10.3,20.5,30.7,31.5,51.2,42.5c7.9,3.4,39,7.4,39.9,1.2
			c2.4-15.8-22.1-37.6-42.5-58c-0.9-0.9-1.8-1.9-2.7-2.8c-6-5.2-9-12.2-14.2-16.9C645.1,384.2,644.4,383.1,643.8,381.9z"/>
		<g>
			<g>
				<g>
					<path class="st14" d="M740.1,446c-6.9-5.6-19.5-14.5-28.4-7.4c-3.6,2.2-6.5,5.6-6.5,9.7c-0.9,8,1.1,16.7,6.9,22.8
						c0.9,1.4,1.9,2.9,3,4.3c2.4,2.7,6.1,4.6,8.7,6.2c0.8,0,3.9,2,4,1.9c4.1-4.1,8.1-11.8,10.9-22.4c2.6-11.4,6-6.4,1.1-14.5
						C739.4,446.3,740.5,446.1,740.1,446z"/>
				</g>
				<g>
					<path class="st14" d="M751.9,458.7L751.9,458.7c2.7-0.5,6.3,3.8,6.7,6.1l1.7,12.5c0.4,2.3-0.5,5.7-3.2,6.2l-0.8,0.2
						c-2.7,0.5-5.3-2.2-5.7-4.5l-5.3-12.7C744.9,464.1,749.3,459.2,751.9,458.7z"/>
					<path class="st14" d="M758.1,476L758.1,476c2.2,1.9,2.8,4.8,1.4,6.4l-9.3,10.7c-1.4,1.6-4.5,2.7-6.7,0.8l-0.7-0.5
						c-2.2-1.9-1.9-5.5-0.5-7.1l9.3-10.7C752.9,473.9,755.9,474.2,758.1,476z"/>
					<path class="st14" d="M749.2,490.5l2.5,0.7c-1.4,2.7-4.3,4.3-5.8,4.2l-9.7-1.2c-1.5-0.2-3.7-0.1-3.3-3l0.1-0.9
						c0.4-2.9,5.7-4.6,7.1-4.5l7.1-0.9C748.7,485.2,749.6,487.7,749.2,490.5z"/>
					<path class="st14" d="M731.9,447.9L731.9,447.9c2.5-2.9,6.1-3.9,8-2.3l12.4,10.7c1.9,1.6,6.1,9.2,3.6,12.1l-3.9-2.9
						c-2.5,2.9-5.1,2.9-6.9,1.3l-6.9-3.7C736.3,461.5,729.4,450.8,731.9,447.9z"/>
				</g>
				<g>
					<path class="st14" d="M760.2,462.2l2,1.4c0,0,5.1,2.6,7,4.3l11.7,8.8c1.8,1.7,3.1,5.1,1,7l-0.6,0.6c-2.1,1.9-4.6,2.8-6.5,1.1
						l-19.8-8.4C753.2,475.4,758.1,464.1,760.2,462.2z"/>
					<path class="st14" d="M773.4,478.5L773.4,478.5c1.6-2.6,4.4-3.8,6.3-2.7l12.2,7.2c1.9,1.1,3.4,4,1.8,6.6l-0.4,0.8
						c-1.6,2.6-4.3,1.3-6.2,0.2l-13.2-5.5C772,484.1,771.8,481.1,773.4,478.5z"/>
					<path class="st14" d="M788.3,486.4l-1.7-2.2c2.6-1.5,6-1.2,7.2-0.1l8.2,5.7c1.1,1.1,3,2.4,1.2,4.7l-0.5,0.7
						c-1.9,2.3-7.3,0.6-8.4-0.5l-6.2-3.9C786.8,489.8,786.4,488.7,788.3,486.4z"/>
					<path class="st14" d="M723.8,468.5l-1.2-8.3c0.4-3.8,11.4-17.3,14.1-17l28,22.3c2.7,0.4,7.5,5.8,7.1,9.6l-5.6-3.8
						c-0.4,3.8-2.7,5.2-5.4,4.9l-8.5,0.5C723.7,472.8,721.4,472.8,723.8,468.5z"/>
				</g>
				<path class="st14" d="M741.7,469.1c2.7,0.4,11.2,4.5,10.7,8.3l-5.2-0.3c-0.4,3.8-2.7,5.2-5.4,4.9l-8.5,0.5
					c-2.7-0.4-15.5-5.8-15-9.6v0"/>
				<g>
					<path class="st14" d="M758.7,465.1L758.7,465.1c2,1.9-0.3,5.6-2,7.6l-8.1,12.2c-1.6,1.9-4.9,3.4-6.9,1.4l-0.6-0.6
						c-2-1.9-1.3-6,0.3-7.9l4.6-13.6C747.6,462.3,756.7,463.2,758.7,465.1z"/>
					<path class="st14" d="M748.2,482.1L748.2,482.1c-0.3,3.1-2.2,5.6-4.4,5.5l-14.2-0.8c-2.2-0.1-4.8-2.1-4.6-5.2l0-0.9
						c0.3-3.1,3.3-5.4,5.5-5.2l14.2,0.8C746.9,476.3,748.5,478.9,748.2,482.1z"/>
					<path class="st14" d="M731.3,484.2l0.9,2.6c-3,0.6-6.1-0.8-6.8-2.2l-4.8-9.1c-0.7-1.4-2.1-3.2,0.4-4.8l0.7-0.5
						c2.5-1.6,7.1,1.8,7.8,3.2l4.9,5.5C735.3,480.1,733.8,482.6,731.3,484.2z"/>
				</g>
			</g>
			<path class="st65" d="M701.4,424.4c-4.3-2.3-7.3-6.3-11.2-7.3c-1.4-0.6-2.9-1.3-4.4-1.9c-5.9-2.4-12-4.7-18.3-7.3
				c-1.7-0.6-3.4-1.3-5.1-2c-11.8-4.6-23-9-36-2.3c-1,1-1.6,2.3-2,3.9c-1.6,6.4,1.2,16.5,6,21.7c7.8,6.9,17.4,14.8,27.2,21.8
				c1.6,1.2,3.3,2.3,4.9,3.4c9.4,6.6,25.4,14.6,34.5,3.7c1.1-1.2,2.3-2.5,3.3-3.8c5.3-6.9,8.8-15.9,4.8-24.5
				C704,427,703.8,426.5,701.4,424.4z"/>
			<path class="st13" d="M703,426.2c-1.3-1.7-2.8-3.2-4.4-4.6c-1.3-1.2-2.6-2.2-4-3.2s-2.8-1.9-4.3-2.7c-5.4-1.9-11-3.6-16.4-5.5
				c-1.8-0.6-3.6-1.3-5.4-2c-10.1-4.8-22.1-9.8-27.1-20.8c2,13,14,19,24.1,23.5c1.9,0.7,3.8,1.4,5.8,2.1c5.8,2,11.8,3.6,17.2,5.4
				c1.8,0.8,3.6,1.6,5.4,2.5c1.7,0.9,3.5,1.8,5.1,2.9C701.2,425.3,702.6,426.2,703,426.2z"/>
			<path class="st13" d="M702.2,425.5c4.2,1,18.8,9.4,19.8,10.5c-7.2,5.8-19.5,21-20.7,33.3c-4.5-2.7-15.5-9.5-16.7-11
				C687.4,446.1,694.4,434.6,702.2,425.5z"/>
		</g>
	</g>
	<g>
		<circle class="st200" cx="50.5" cy="40.2" r="17"/>
		<polygon class="st201" points="45.7,36.1 55.2,36.1 65.5,24.7 55.9,24.7 		"/>
		<path class="st202" d="M55.4,34.5h-9.9c-0.9,0-1.6,0.7-1.6,1.6c0,0.9,0.7,1.6,1.6,1.6h3.2v1.2h3.5v-1.2h3.2c0.9,0,1.6-0.7,1.6-1.6
			C57,35.3,56.3,34.5,55.4,34.5z M55.4,36.8h-9.9c-0.4,0-0.7-0.3-0.7-0.7c0-0.4,0.3-0.7,0.7-0.7h9.9c0.4,0,0.7,0.3,0.7,0.7
			C56.1,36.5,55.8,36.8,55.4,36.8z"/>
		<circle class="st203" cx="50.5" cy="46.9" r="8.7"/>
		<circle class="st204" cx="50.5" cy="46.9" r="6.8"/>
		<circle class="st205" cx="50.5" cy="46.9" r="5.7"/>
		<polygon class="st206" points="55.3,36.1 45.7,36.1 35.5,24.7 45.1,24.7 		"/>
	</g>
	
		<use xlink:href="#barras"  width="433.6" height="172.4" x="-216.8" y="-86.2" transform="matrix(1 0 0 -1 289.8234 368.5386)" style="overflow:visible;"/>
</g>
<g id="Layer_2">
	<rect x="74.9" y="28.9" class="st22" width="391.9" height="48.3"/>
	<text transform="matrix(1 0 0 1 74.8917 47.6352)" class="st0 st529 st77">HOla, Kaira POlet ARAYA</text>
	<ellipse class="st532" cx="764.1" cy="397.8" rx="51.1" ry="42"/>
	<polyline class="st532" points="718.6,383.3 713.8,359.2 727.6,374.1 807.3,375.1 	"/>
	<g>
		<g>
			<path class="st66" d="M719.7,436.8c20.5,11,41.9,21.3,60.9,34.6c4.4,3.1,8.6,6.3,12.6,9.9c2.1,1.9,4.2,3.8,6.1,5.8
				c1,1.1,3.3,2.6,3.2,4.2c0.7,1.1,0.2,1.8-1.7,2.3c-1.4,2-3.1,2.2-5,0.4c-11.8-5.3-23.2-11.9-34.7-17.8c-0.4-0.2-3.2,0.3-2.8,0.9
				c2.1,3.4,0.7,6.5-1.3,9.5c-2,2.9-5.2,7.5-8.4,9.5c-3.7,2.4-11.5,1.4-15.4,0.1c-2.5-0.8-4.1-1.4-3.1-4.2c0.9-2.4,2.9-4.2,4.6-5.9
				c0.7-0.7-1.2-0.4-1.4-0.4c-4.3,1.7-7.1,0.8-8.4-2.5c0-1.4,0.3-2.7,1-3.9c0.1-1.2,0.4-1.5-0.1-2.7c-0.9-2.3-4-4.1-5.6-5.9
				c-5.1-5.7-8.9-12.3-11.4-19.5c-0.2-0.7-3.1,0.2-2.9,0.8c1.8,5,4.1,9.7,7.1,14.1c2.6,3.8,6.7,6.7,9.2,10.5
				c2.2,3.5-2.5,7.8,2.4,10.4c2.8,1.5,6.3,0.4,9.1-0.3c-0.5-0.1-1-0.2-1.4-0.4c-1.9,1.9-8.2,8-4.1,10.4c2.1,1.3,5.8,1.2,8.2,1.5
				c2.9,0.4,6.2,0.9,9.1,0.4c4.7-0.7,7.7-4.2,10.6-7.6c3.4-3.9,8.5-9.3,5.3-14.6c-0.9,0.3-1.9,0.6-2.8,0.9
				c7.6,3.9,15.1,7.8,22.7,11.6c5.2,2.6,11.3,7.3,17.2,7.8c2.3,0.2,6-0.3,7.2-2.6c2.4-4.5-5.6-10.2-8.3-12.6
				c-21.7-19.6-49.4-32-74.9-45.7C721.7,435.4,719.3,436.6,719.7,436.8L719.7,436.8z"/>
		</g>
	</g>
</g>
</svg>
