<?xml version="1.0" encoding="utf-8"?>
<!-- Generator: Adobe Illustrator 21.1.0, SVG Export Plug-In . SVG Version: 6.00 Build 0)  -->
<svg version="1.1" xmlns="http://www.w3.org/2000/svg" xmlns:xlink="http://www.w3.org/1999/xlink" x="0px" y="0px"
	 viewBox="0 0 841.9 595.3" style="enable-background:new 0 0 841.9 595.3;" xml:space="preserve">
<style type="text/css">
	.st0{fill:#601515;}
	.st1{fill:#3FBA51;}
	.st2{fill:none;stroke:#601515;stroke-width:2;stroke-miterlimit:10;}
	.st3{fill:#F2C85F;}
	.st4{fill:#F2D3AD;}
	.st5{fill:#674C91;}
	.st6{fill:#DCFFC5;}
	.st7{fill:#8BAA77;}
	.st8{clip-path:url(#SVGID_2_);fill:#F1F3F7;}
	.st9{opacity:0.4;clip-path:url(#SVGID_2_);fill:#DCDDE0;}
	.st10{clip-path:url(#SVGID_2_);fill:#0076B7;}
	.st11{clip-path:url(#SVGID_2_);fill:#FFFFFF;}
	.st12{clip-path:url(#SVGID_2_);}
	.st13{fill:#FFFFFF;}
	.st14{fill:#F7CFA2;}
	.st15{fill:#ECB8FF;}
	.st16{fill:#393D47;}
	.st17{fill:#E86767;}
	.st18{opacity:0.1;fill:#3C2813;}
	.st19{fill:#EEEBE7;}
	.st20{fill:#3C2813;}
	.st21{fill:#795ACC;}
	.st22{fill:none;}
	.st23{clip-path:url(#SVGID_6_);fill:#F7EFDF;}
	.st24{fill:#3EBA50;}
	.st25{display:none;opacity:0.3;}
	.st26{fill:#F7EFDF;}
	.st27{fill:#4E9FA8;}
	.st28{fill:none;stroke:#231F20;stroke-width:2;stroke-miterlimit:10;}
	.st29{fill:#231F20;}
	.st30{fill:none;stroke:#674C91;stroke-miterlimit:10;}
	.st31{fill:#601515;stroke:#601515;stroke-miterlimit:10;}
	.st32{fill:none;stroke:#601515;stroke-miterlimit:10;}
	.st33{fill:none;stroke:#FFFFFF;stroke-miterlimit:10;}
	.st34{fill:url(#SVGID_9_);}
	.st35{fill:#601515;stroke:#8C8779;stroke-width:6;stroke-miterlimit:10;}
	.st36{fill:url(#SVGID_10_);}
	.st37{fill:none;stroke:#4E9FA8;stroke-width:12;stroke-miterlimit:10;}
	.st38{fill:#E0EA18;}
	.st39{clip-path:url(#SVGID_12_);fill:#F7EFDF;}
	.st40{fill:url(#SVGID_13_);}
	.st41{fill:url(#SVGID_14_);}
	.st42{fill:#EFEA35;}
	.st43{fill:url(#SVGID_15_);}
	.st44{fill:url(#SVGID_16_);}
	.st45{fill:url(#SVGID_17_);}
	.st46{fill:url(#SVGID_18_);}
	.st47{fill:url(#SVGID_19_);}
	.st48{fill:#C1C1B8;}
	.st49{fill:#9B9B97;}
	.st50{fill:#D8D8D2;}
	.st51{opacity:0.4;}
	.st52{opacity:0.6;}
	.st53{fill:#CEBABA;}
	.st54{fill:#EAEAE5;}
	.st55{fill:url(#SVGID_20_);}
	.st56{fill:url(#SVGID_21_);}
	.st57{fill:url(#SVGID_22_);}
	.st58{fill:url(#SVGID_23_);}
	.st59{fill:url(#SVGID_24_);}
	.st60{fill:url(#SVGID_25_);}
	.st61{fill:url(#SVGID_26_);}
	.st62{fill:url(#SVGID_27_);}
	.st63{fill:url(#SVGID_28_);}
	.st64{fill:#6BA8B2;}
	.st65{fill:#F1F3F7;}
	.st66{fill:#F0BA7A;}
	.st67{opacity:0.4;fill:#DCDDE0;}
	.st68{fill:#0076B7;}
	.st69{opacity:0.3;}
	.st70{fill:#DCDDE0;}
	.st71{fill:#004868;}
	.st72{opacity:0.1;fill:#601515;}
	.st73{fill:#F9F9F9;}
	.st74{fill:#24272D;}
	.st75{fill:#EA6D50;}
	.st76{clip-path:url(#SVGID_30_);fill:#F0BA7A;}
	.st77{clip-path:url(#SVGID_30_);fill:#F1F3F7;}
	.st78{opacity:0.4;clip-path:url(#SVGID_30_);fill:#DCDDE0;}
	.st79{clip-path:url(#SVGID_30_);fill:#0076B7;}
	.st80{clip-path:url(#SVGID_30_);fill:#FFFFFF;}
	.st81{clip-path:url(#SVGID_30_);}
	.st82{opacity:0.3;fill:#601515;}
	.st83{fill:#5B1010;}
	.st84{clip-path:url(#SVGID_32_);fill:#F1F3F7;}
	.st85{clip-path:url(#SVGID_32_);fill:#F0BA7A;}
	.st86{opacity:0.4;clip-path:url(#SVGID_32_);fill:#DCDDE0;}
	.st87{clip-path:url(#SVGID_32_);fill:#0076B7;}
	.st88{clip-path:url(#SVGID_32_);fill:#FFFFFF;}
	.st89{clip-path:url(#SVGID_32_);}
	.st90{fill:#1F74C9;}
	.st91{fill:#595959;}
	.st92{opacity:0.1;fill:#8BAA77;}
	.st93{opacity:0.3;fill:#8BAA77;}
	.st94{opacity:0.1;fill:#595959;}
	.st95{opacity:0.3;fill:#595959;}
	.st96{fill:#9E921E;}
	.st97{clip-path:url(#SVGID_34_);fill:#F0BA7A;}
	.st98{clip-path:url(#SVGID_34_);fill:#F1F3F7;}
	.st99{clip-path:url(#SVGID_34_);}
	.st100{clip-path:url(#SVGID_34_);fill:#393D47;}
	.st101{clip-path:url(#SVGID_34_);fill:#FFFFFF;}
	.st102{opacity:0.4;clip-path:url(#SVGID_34_);fill:#DCDDE0;}
	.st103{clip-path:url(#SVGID_34_);fill:#0076B7;}
	.st104{font-family:'ElegantLux-Mager';}
	.st105{font-size:26px;}
	.st106{font-family:'Bungee-Regular';}
	.st107{font-size:22px;}
	.st108{fill:#B72C34;}
	.st109{clip-path:url(#SVGID_36_);fill:#F1F3F7;}
	.st110{clip-path:url(#SVGID_36_);}
	.st111{clip-path:url(#SVGID_38_);fill:#F1F3F7;}
	.st112{opacity:0.4;clip-path:url(#SVGID_38_);fill:#DCDDE0;}
	.st113{clip-path:url(#SVGID_38_);fill:#0076B7;}
	.st114{clip-path:url(#SVGID_38_);fill:#FFFFFF;}
	.st115{clip-path:url(#SVGID_38_);}
	.st116{fill:url(#SVGID_39_);}
	.st117{fill:url(#SVGID_40_);}
	.st118{fill:url(#SVGID_41_);}
	.st119{fill:url(#SVGID_42_);}
	.st120{fill:#A52323;}
	.st121{clip-path:url(#SVGID_44_);fill:#F1F3F7;}
	.st122{opacity:0.4;clip-path:url(#SVGID_44_);fill:#DCDDE0;}
	.st123{clip-path:url(#SVGID_44_);fill:#0076B7;}
	.st124{clip-path:url(#SVGID_44_);fill:#FFFFFF;}
	.st125{clip-path:url(#SVGID_44_);}
	.st126{fill:#023142;}
	.st127{clip-path:url(#SVGID_46_);fill:#F7CFA2;}
	.st128{clip-path:url(#SVGID_46_);}
	.st129{opacity:0.3;fill:#E57257;}
	.st130{opacity:0.2;}
	.st131{fill:#656D60;}
	.st132{clip-path:url(#SVGID_48_);fill:#F0BA7A;}
	.st133{clip-path:url(#SVGID_48_);fill:#F1F3F7;}
	.st134{opacity:0.4;clip-path:url(#SVGID_48_);fill:#DCDDE0;}
	.st135{clip-path:url(#SVGID_48_);fill:#0076B7;}
	.st136{clip-path:url(#SVGID_48_);fill:#FFFFFF;}
	.st137{clip-path:url(#SVGID_48_);}
	.st138{clip-path:url(#SVGID_50_);fill:#F1F3F7;}
	.st139{opacity:0.4;clip-path:url(#SVGID_50_);fill:#DCDDE0;}
	.st140{clip-path:url(#SVGID_50_);fill:#0076B7;}
	.st141{clip-path:url(#SVGID_50_);fill:#FFFFFF;}
	.st142{clip-path:url(#SVGID_50_);}
	.st143{clip-path:url(#SVGID_52_);fill:#F1F3F7;}
	.st144{opacity:0.4;clip-path:url(#SVGID_52_);fill:#DCDDE0;}
	.st145{clip-path:url(#SVGID_52_);fill:#0076B7;}
	.st146{clip-path:url(#SVGID_52_);fill:#FFFFFF;}
	.st147{clip-path:url(#SVGID_52_);}
	.st148{fill:#9E9E9E;}
	.st149{fill:#878787;}
	.st150{fill:url(#SVGID_53_);}
	.st151{fill:#CE6117;}
	.st152{fill:url(#SVGID_54_);}
	.st153{fill:#EFE91B;}
	.st154{clip-path:url(#SVGID_56_);fill:#F0BA7A;}
	.st155{clip-path:url(#SVGID_56_);fill:#F1F3F7;}
	.st156{opacity:0.4;clip-path:url(#SVGID_56_);fill:#DCDDE0;}
	.st157{clip-path:url(#SVGID_56_);fill:#0076B7;}
	.st158{clip-path:url(#SVGID_56_);fill:#FFFFFF;}
	.st159{clip-path:url(#SVGID_56_);}
	.st160{fill:#B27E49;}
	.st161{clip-path:url(#SVGID_58_);fill:#F1F3F7;}
	.st162{opacity:0.4;clip-path:url(#SVGID_58_);fill:#DCDDE0;}
	.st163{clip-path:url(#SVGID_58_);fill:#0076B7;}
	.st164{clip-path:url(#SVGID_58_);fill:#FFFFFF;}
	.st165{clip-path:url(#SVGID_58_);}
	.st166{fill:#8454D1;}
	.st167{clip-path:url(#SVGID_60_);fill:#393D47;}
	.st168{clip-path:url(#SVGID_60_);fill:#F0BA7A;}
	.st169{clip-path:url(#SVGID_60_);fill:#F1F3F7;}
	.st170{clip-path:url(#SVGID_60_);fill:#0076B7;}
	.st171{clip-path:url(#SVGID_60_);fill:#004868;}
	.st172{opacity:0.4;clip-path:url(#SVGID_60_);fill:#DCDDE0;}
	.st173{clip-path:url(#SVGID_60_);fill:#FFFFFF;}
	.st174{clip-path:url(#SVGID_60_);}
	.st175{fill:none;stroke:#EA6D50;stroke-width:2;stroke-miterlimit:10;}
	.st176{fill:url(#SVGID_61_);}
	.st177{fill:#777777;}
	.st178{fill:#A85848;}
	.st179{fill:#E85646;}
	.st180{fill:#EA4E39;}
	.st181{clip-path:url(#SVGID_63_);fill:#F1F3F7;}
	.st182{clip-path:url(#SVGID_63_);}
	.st183{fill:#B23C18;}
	.st184{fill:#6B2A05;}
	.st185{fill:#B23C18;stroke:#6B2A05;stroke-miterlimit:10;}
	.st186{fill:#DDAA78;}
	.st187{fill:#211205;}
	.st188{fill:none;stroke:#6B2A05;stroke-width:0.729;stroke-miterlimit:10;}
	.st189{fill:#B23C18;stroke:#6B2A05;stroke-width:0.729;stroke-miterlimit:10;}
	.st190{fill:#BBE8F2;}
	.st191{opacity:0.3;fill:#F2F8F9;}
	.st192{opacity:0.2;fill:#601515;}
	.st193{fill:#FFFF00;}
	.st194{fill:#594EEA;}
	.st195{fill:#FF0B0B;}
	.st196{fill:none;stroke:#3FBA51;stroke-width:8;stroke-miterlimit:10;}
	.st197{fill:none;stroke:#3FBA51;stroke-width:7.2;stroke-miterlimit:10;}
	.st198{fill:none;stroke:#3FBA51;stroke-width:7.2;stroke-linecap:round;stroke-miterlimit:10;}
	.st199{fill:none;stroke:#3FBA51;stroke-width:8;stroke-linecap:round;stroke-miterlimit:10;}
	.st200{fill:none;stroke:#3FBA51;stroke-width:5.1175;stroke-miterlimit:10;}
	.st201{fill:#4F5565;}
	.st202{fill:#D64E3C;}
	.st203{fill:#F7A500;}
	.st204{fill:#FBD303;}
	.st205{fill:#FCFCFD;}
	.st206{fill:#F8B517;}
	.st207{fill:#F0582F;}
	.st208{fill:#BAE8F2;}
	.st209{fill:#F7EA72;}
	.st210{clip-path:url(#SVGID_65_);fill:#F7EFDF;}
	.st211{fill:none;stroke:#3FBA51;stroke-width:6.4304;stroke-miterlimit:10;}
	.st212{fill:url(#SVGID_66_);}
	.st213{fill:url(#SVGID_67_);}
	.st214{fill:url(#SVGID_68_);}
	.st215{fill:url(#SVGID_69_);}
	.st216{fill:url(#SVGID_70_);}
	.st217{fill:url(#SVGID_71_);}
	.st218{fill:url(#SVGID_72_);}
	.st219{fill:url(#SVGID_73_);}
	.st220{fill:url(#SVGID_74_);}
	.st221{fill:url(#SVGID_75_);}
	.st222{fill:url(#SVGID_76_);}
	.st223{fill:url(#SVGID_77_);}
	.st224{fill:url(#SVGID_78_);}
	.st225{fill:url(#SVGID_79_);}
	.st226{fill:url(#SVGID_80_);}
	.st227{fill:url(#SVGID_81_);}
	.st228{fill:url(#SVGID_82_);}
	.st229{fill:url(#SVGID_83_);}
	.st230{fill:url(#SVGID_84_);}
	.st231{fill:url(#SVGID_85_);}
	.st232{fill:url(#SVGID_86_);}
	.st233{fill:url(#SVGID_87_);}
	.st234{fill:url(#SVGID_88_);}
	.st235{fill:url(#SVGID_89_);}
	.st236{fill:url(#SVGID_90_);}
	.st237{fill:url(#SVGID_91_);}
	.st238{fill:url(#SVGID_92_);}
	.st239{fill:url(#SVGID_93_);}
	.st240{fill:url(#SVGID_94_);}
	.st241{fill:url(#SVGID_95_);}
	.st242{fill:url(#SVGID_96_);}
	.st243{fill:url(#SVGID_97_);}
	.st244{fill:url(#SVGID_98_);}
	.st245{fill:url(#SVGID_99_);}
	.st246{fill:url(#SVGID_100_);}
	.st247{fill:url(#SVGID_101_);}
	.st248{opacity:0.7;fill:#7BCDDB;}
	.st249{fill:none;stroke:#F0BA7A;stroke-width:3;stroke-miterlimit:10;}
	.st250{fill:url(#SVGID_102_);}
	.st251{fill:url(#SVGID_103_);}
	.st252{fill:url(#SVGID_104_);}
	.st253{fill:url(#SVGID_105_);}
	.st254{fill:url(#SVGID_106_);}
	.st255{fill:url(#SVGID_107_);}
	.st256{fill:url(#SVGID_108_);}
	.st257{opacity:0.5;fill:#302929;}
	.st258{fill:#EF3F50;}
	.st259{fill:url(#SVGID_109_);}
	.st260{fill:url(#SVGID_110_);}
	.st261{fill:url(#SVGID_111_);}
	.st262{fill:url(#SVGID_112_);}
	.st263{opacity:0.6;fill:#302929;}
	.st264{fill:url(#SVGID_113_);}
	.st265{fill:url(#SVGID_114_);}
	.st266{fill:url(#SVGID_115_);}
	.st267{fill:url(#SVGID_116_);}
	.st268{fill:url(#SVGID_117_);}
	.st269{fill:url(#SVGID_118_);}
	.st270{fill:url(#SVGID_119_);}
	.st271{fill:url(#SVGID_120_);}
	.st272{fill:url(#SVGID_121_);}
	.st273{fill:url(#SVGID_122_);}
	.st274{fill:url(#SVGID_123_);}
	.st275{fill:url(#SVGID_124_);}
	.st276{fill:url(#SVGID_125_);}
	.st277{fill:url(#SVGID_126_);}
	.st278{fill:url(#SVGID_127_);}
	.st279{fill:url(#SVGID_128_);}
	.st280{fill:url(#SVGID_129_);}
	.st281{fill:url(#SVGID_130_);}
	.st282{fill:url(#SVGID_131_);}
	.st283{fill:url(#SVGID_132_);}
	.st284{fill:url(#SVGID_133_);}
	.st285{fill:url(#SVGID_134_);}
	.st286{fill:url(#SVGID_135_);}
	.st287{fill:url(#SVGID_136_);}
	.st288{fill:url(#SVGID_137_);}
	.st289{fill:url(#SVGID_138_);}
	.st290{fill:url(#SVGID_139_);}
	.st291{fill:url(#SVGID_140_);}
	.st292{fill:url(#SVGID_141_);}
	.st293{fill:url(#SVGID_142_);}
	.st294{fill:url(#SVGID_143_);}
	.st295{fill:url(#SVGID_144_);}
	.st296{fill:url(#SVGID_145_);}
	.st297{fill:url(#SVGID_146_);}
	.st298{fill:url(#SVGID_147_);}
	.st299{fill:url(#SVGID_148_);}
	.st300{fill:url(#SVGID_149_);}
	.st301{fill:url(#SVGID_150_);}
	.st302{fill:url(#SVGID_151_);}
	.st303{fill:url(#SVGID_152_);}
	.st304{fill:url(#SVGID_153_);}
	.st305{fill:url(#SVGID_154_);}
	.st306{fill:url(#SVGID_155_);}
	.st307{fill:url(#SVGID_156_);}
	.st308{fill:url(#SVGID_157_);}
	.st309{fill:url(#SVGID_158_);}
	.st310{fill:url(#SVGID_159_);}
	.st311{fill:url(#SVGID_160_);}
	.st312{fill:url(#SVGID_161_);}
	.st313{fill:url(#SVGID_162_);}
	.st314{fill:url(#SVGID_163_);}
	.st315{fill:url(#SVGID_164_);}
	.st316{fill:url(#SVGID_165_);}
	.st317{fill:url(#SVGID_166_);}
	.st318{fill:url(#SVGID_167_);}
	.st319{fill:url(#SVGID_168_);}
	.st320{fill:url(#SVGID_169_);}
	.st321{fill:url(#SVGID_170_);}
	.st322{fill:url(#SVGID_171_);}
	.st323{fill:url(#SVGID_172_);}
	.st324{fill:url(#SVGID_173_);}
	.st325{fill:url(#SVGID_174_);}
	.st326{fill:url(#SVGID_175_);}
	.st327{fill:url(#SVGID_176_);}
	.st328{fill:url(#SVGID_177_);}
	.st329{fill:url(#SVGID_178_);}
	.st330{fill:url(#SVGID_179_);}
	.st331{fill:url(#SVGID_180_);}
	.st332{fill:url(#SVGID_181_);}
	.st333{fill:url(#SVGID_182_);}
	.st334{fill:url(#SVGID_183_);}
	.st335{fill:url(#SVGID_184_);}
	.st336{fill:url(#SVGID_185_);}
	.st337{fill:url(#SVGID_186_);}
	.st338{fill:url(#SVGID_187_);}
	.st339{fill:url(#SVGID_188_);}
	.st340{fill:url(#SVGID_189_);}
	.st341{fill:url(#SVGID_190_);}
	.st342{fill:url(#SVGID_191_);}
	.st343{fill:url(#SVGID_192_);}
	.st344{fill:url(#SVGID_193_);}
	.st345{fill:url(#SVGID_194_);}
	.st346{fill:url(#SVGID_195_);}
	.st347{fill:url(#SVGID_196_);}
	.st348{fill:url(#SVGID_197_);}
	.st349{fill:url(#SVGID_198_);}
	.st350{fill:url(#SVGID_199_);}
	.st351{fill:url(#SVGID_200_);}
	.st352{fill:url(#SVGID_201_);}
	.st353{fill:url(#SVGID_202_);}
	.st354{fill:url(#SVGID_203_);}
	.st355{fill:url(#SVGID_204_);}
	.st356{fill:url(#SVGID_205_);}
	.st357{fill:url(#SVGID_206_);}
	.st358{fill:url(#SVGID_207_);}
	.st359{fill:url(#SVGID_208_);}
	.st360{fill:url(#SVGID_209_);}
	.st361{fill:url(#SVGID_210_);}
	.st362{fill:url(#SVGID_211_);}
	.st363{fill:url(#SVGID_212_);}
	.st364{fill:url(#SVGID_213_);}
	.st365{fill:url(#SVGID_214_);}
	.st366{fill:url(#SVGID_215_);}
	.st367{fill:url(#SVGID_216_);}
	.st368{fill:url(#SVGID_217_);}
	.st369{fill:url(#SVGID_218_);}
	.st370{fill:url(#SVGID_219_);}
	.st371{fill:url(#SVGID_220_);}
	.st372{fill:url(#SVGID_221_);}
	.st373{fill:url(#SVGID_222_);}
	.st374{fill:url(#SVGID_223_);}
	.st375{fill:url(#SVGID_224_);}
	.st376{fill:url(#SVGID_225_);}
	.st377{fill:url(#SVGID_226_);}
	.st378{fill:url(#SVGID_227_);}
	.st379{fill:url(#SVGID_228_);}
	.st380{fill:url(#SVGID_229_);}
	.st381{fill:url(#SVGID_230_);}
	.st382{fill:url(#SVGID_231_);}
	.st383{fill:url(#SVGID_232_);}
	.st384{fill:url(#SVGID_233_);}
	.st385{fill:url(#SVGID_234_);}
	.st386{fill:url(#SVGID_235_);}
	.st387{fill:url(#SVGID_236_);}
	.st388{fill:url(#SVGID_237_);}
	.st389{fill:url(#SVGID_238_);}
	.st390{fill:url(#SVGID_239_);}
	.st391{fill:none;stroke:#9B9B97;stroke-miterlimit:10;}
	.st392{fill:url(#SVGID_240_);}
	.st393{fill:url(#SVGID_241_);}
	.st394{fill:url(#SVGID_242_);}
	.st395{fill:url(#SVGID_243_);}
	.st396{fill:url(#SVGID_244_);}
	.st397{fill:url(#SVGID_245_);}
	.st398{fill:url(#SVGID_246_);}
	.st399{fill:url(#SVGID_247_);}
	.st400{fill:url(#SVGID_248_);}
	.st401{fill:url(#SVGID_249_);}
	.st402{fill:url(#SVGID_250_);}
	.st403{fill:url(#SVGID_251_);}
	.st404{fill:url(#SVGID_252_);}
	.st405{fill:url(#SVGID_253_);}
	.st406{fill:url(#SVGID_254_);}
	.st407{fill:url(#SVGID_255_);}
	.st408{fill:url(#SVGID_256_);}
	.st409{fill:url(#SVGID_257_);}
	.st410{fill:url(#SVGID_258_);}
	.st411{fill:url(#SVGID_259_);}
	.st412{fill:url(#SVGID_260_);}
	.st413{fill:url(#SVGID_261_);}
	.st414{fill:url(#SVGID_262_);}
	.st415{fill:url(#SVGID_263_);}
	.st416{fill:url(#SVGID_264_);}
	.st417{fill:url(#SVGID_265_);}
	.st418{fill:url(#SVGID_266_);}
	.st419{fill:url(#SVGID_267_);}
	.st420{fill:url(#SVGID_268_);}
	.st421{fill:url(#SVGID_269_);}
	.st422{fill:url(#SVGID_270_);}
	.st423{fill:url(#SVGID_271_);}
	.st424{fill:url(#SVGID_272_);}
	.st425{fill:url(#SVGID_273_);}
	.st426{fill:url(#SVGID_274_);}
	.st427{fill:url(#SVGID_275_);}
	.st428{fill:url(#SVGID_276_);}
	.st429{fill:url(#SVGID_277_);}
	.st430{fill:url(#SVGID_278_);}
	.st431{fill:url(#SVGID_279_);}
	.st432{fill:url(#SVGID_280_);}
	.st433{fill:url(#SVGID_281_);}
	.st434{fill:url(#SVGID_282_);}
	.st435{fill:url(#SVGID_283_);}
	.st436{fill:url(#SVGID_284_);}
	.st437{fill:url(#SVGID_285_);}
	.st438{fill:url(#SVGID_286_);}
	.st439{fill:url(#SVGID_287_);}
	.st440{fill:url(#SVGID_288_);}
	.st441{fill:url(#SVGID_289_);}
	.st442{fill:url(#SVGID_290_);}
	.st443{fill:url(#SVGID_291_);}
	.st444{fill:url(#SVGID_292_);}
	.st445{fill:url(#SVGID_293_);}
	.st446{fill:url(#SVGID_294_);}
	.st447{fill:url(#SVGID_295_);}
	.st448{fill:url(#SVGID_296_);}
	.st449{fill:url(#SVGID_297_);}
	.st450{fill:url(#SVGID_298_);}
	.st451{fill:url(#SVGID_299_);}
	.st452{fill:url(#SVGID_300_);}
	.st453{fill:url(#SVGID_301_);}
	.st454{fill:url(#SVGID_302_);}
	.st455{fill:url(#SVGID_303_);}
	.st456{fill:url(#SVGID_304_);}
	.st457{fill:url(#SVGID_305_);}
	.st458{fill:url(#SVGID_306_);}
	.st459{fill:url(#SVGID_307_);}
	.st460{fill:url(#SVGID_308_);}
	.st461{fill:url(#SVGID_309_);}
	.st462{fill:url(#SVGID_310_);}
	.st463{fill:url(#SVGID_311_);}
	.st464{fill:url(#SVGID_312_);}
	.st465{fill:url(#SVGID_313_);}
	.st466{fill:url(#SVGID_314_);}
	.st467{fill:url(#SVGID_315_);}
	.st468{fill:url(#SVGID_316_);}
	.st469{fill:url(#SVGID_317_);}
	.st470{fill:url(#SVGID_318_);}
	.st471{fill:url(#SVGID_319_);}
	.st472{fill:url(#SVGID_320_);}
	.st473{fill:url(#SVGID_321_);}
	.st474{fill:url(#SVGID_322_);}
	.st475{fill:url(#SVGID_323_);}
	.st476{fill:url(#SVGID_324_);}
	.st477{fill:url(#SVGID_325_);}
	.st478{fill:url(#SVGID_326_);}
	.st479{fill:url(#SVGID_327_);}
	.st480{fill:url(#SVGID_328_);}
	.st481{fill:url(#SVGID_329_);}
	.st482{fill:url(#SVGID_330_);}
	.st483{fill:url(#SVGID_331_);}
	.st484{fill:url(#SVGID_332_);}
	.st485{fill:url(#SVGID_333_);}
	.st486{fill:url(#SVGID_334_);}
	.st487{fill:url(#SVGID_335_);}
	.st488{fill:url(#SVGID_336_);}
	.st489{fill:url(#SVGID_337_);}
	.st490{fill:url(#SVGID_338_);}
	.st491{fill:url(#SVGID_339_);}
	.st492{fill:url(#SVGID_340_);}
	.st493{fill:url(#SVGID_341_);}
	.st494{fill:url(#SVGID_342_);}
	.st495{fill:url(#SVGID_343_);}
	.st496{fill:url(#SVGID_344_);}
	.st497{fill:url(#SVGID_345_);}
	.st498{fill:url(#SVGID_346_);}
	.st499{fill:url(#SVGID_347_);}
	.st500{fill:url(#SVGID_348_);}
	.st501{fill:url(#SVGID_349_);}
	.st502{fill:url(#SVGID_350_);}
	.st503{fill:url(#SVGID_351_);}
	.st504{fill:url(#SVGID_352_);}
	.st505{fill:url(#SVGID_353_);}
	.st506{fill:url(#SVGID_354_);}
	.st507{fill:url(#SVGID_355_);}
	.st508{fill:url(#SVGID_356_);}
	.st509{fill:url(#SVGID_357_);}
	.st510{fill:url(#SVGID_358_);}
	.st511{fill:url(#SVGID_359_);}
	.st512{fill:url(#SVGID_360_);}
	.st513{fill:url(#SVGID_361_);}
	.st514{fill:url(#SVGID_362_);}
	.st515{fill:url(#SVGID_363_);}
	.st516{fill:url(#SVGID_364_);}
	.st517{fill:url(#SVGID_365_);}
	.st518{fill:url(#SVGID_366_);}
	.st519{fill:url(#SVGID_367_);}
	.st520{fill:url(#SVGID_368_);}
	.st521{fill:url(#SVGID_369_);}
	.st522{fill:url(#SVGID_370_);}
	.st523{fill:url(#SVGID_371_);}
	.st524{fill:url(#SVGID_372_);}
	.st525{fill:url(#SVGID_373_);}
	.st526{fill:url(#SVGID_374_);}
	.st527{fill:url(#SVGID_375_);}
	.st528{fill:url(#SVGID_376_);}
	.st529{fill:url(#SVGID_377_);}
	.st530{clip-path:url(#SVGID_379_);}
	.st531{clip-path:url(#SVGID_381_);}
	.st532{fill:#F4F0A6;}
	.st533{clip-path:url(#SVGID_383_);}
	.st534{opacity:0.6;fill:none;stroke:#F7CFA2;stroke-miterlimit:10;}
	.st535{fill:none;stroke:#F7CFA2;stroke-miterlimit:10;}
	.st536{fill:#EAA56C;}
	.st537{clip-path:url(#SVGID_385_);fill:#F7EFDF;}
</style>
<symbol  id="barras" viewBox="-216.8 -86.2 433.6 172.4">
	<g>
		<rect x="113.2" y="-86.2" class="st22" width="103.6" height="30.9"/>
		<text transform="matrix(1 0 0 -1 126.502 -65.4814)" class="st0 st104" style="font-size:15.36px;">Casi Siempre</text>
	</g>
	<rect x="-105.9" y="-35" class="st1" width="87" height="28.2"/>
	<rect x="-215.8" y="-35.3" class="st1" width="87" height="8.8"/>
	<rect x="7.8" y="-35" class="st1" width="87" height="61.7"/>
	<rect x="121.5" y="-35" class="st1" width="87" height="120.1"/>
	<g>
		<rect x="-101.5" y="-73.4" class="st22" width="78" height="18.1"/>
		<text transform="matrix(1 0 0 -1 -95.3037 -65.4814)" class="st0 st104" style="font-size:15.36px;">Casi nunca</text>
	</g>
	<rect x="-105.9" y="-35" class="st2" width="87" height="28.2"/>
	<g>
		<rect x="-192.1" y="-86.2" class="st22" width="39.6" height="30.9"/>
		<text transform="matrix(1 0 0 -1 -191.6748 -65.4814)" class="st0 st104" style="font-size:15.36px;">Nunca</text>
	</g>
	<rect x="-215.8" y="-35.3" class="st2" width="87" height="8.8"/>
	<g>
		<rect x="-3.7" y="-86.2" class="st22" width="110" height="30.9"/>
		<text transform="matrix(1 0 0 -1 9.9785 -65.4795)" class="st0 st104" style="font-size:15.36px;">Algunas veces</text>
	</g>
	<rect x="7.8" y="-35" class="st2" width="87" height="61.7"/>
	<rect x="121.5" y="-35" class="st2" width="87" height="120.1"/>
</symbol>
<g id="Layer_1">
	<path class="st13" d="M763.5,61.3c4.6-4.2,9.3-8.2,14.3-11.5c9-6.1,20.3-9.5,28.8-0.6c14.1,14.6-5.7,36-16.7,45.8
		c-10,8.8-52,41.4-60,14.2c-1.6-5.4,2.3-11.7,4.1-16.1c2.2-5.2,10.9-5.7,11.8-7C750.2,79.4,757.5,66.8,763.5,61.3z"/>
	<g>
		<path class="st14" d="M739.2,110.3c0.2,0,0.4-0.1,0.7-0.1C739.7,110.2,739.4,110.3,739.2,110.3z"/>
	</g>
	<path class="st21" d="M734.1,99.2H621.9c-3.2,0-5.8-2.6-5.8-5.8V65.6c0-3.2,2.6-5.8,5.8-5.8h112.3c3.2,0,5.8,2.6,5.8,5.8v27.7
		C740,96.5,737.3,99.2,734.1,99.2z"/>
	<rect x="637.8" y="70" class="st22" width="81.9" height="28.3"/>
	<text transform="matrix(1 0 0 1 656.7838 87.3289)" class="st13 st104 st105">Listo</text>
	<rect x="32.2" y="72.9" class="st22" width="391.9" height="48.3"/>
	<text transform="matrix(1 0 0 1 32.1862 90.2029)" class="st0 st104 st105">Instrucciones</text>
	<rect x="32.2" y="72.9" class="st22" width="391.9" height="48.3"/>
	<text transform="matrix(1 0 0 1 32.1862 90.2029)" class="st0 st104 st105">Instrucciones</text>
	<rect x="34.9" y="28.9" class="st22" width="391.9" height="48.3"/>
	<text transform="matrix(1 0 0 1 34.8917 47.6326)" class="st0 st106 st105">HOla, Kaira POlet ARAYA</text>
	<polyline class="st22" points="684.1,16.9 681.7,65.2 292.2,65.2 	"/>
	<rect x="31.4" y="116.4" class="st22" width="571.9" height="88.3"/>
	<text transform="matrix(1 0 0 1 31.4305 131.0443)"><tspan x="0" y="0" class="st0 st104 st107">He sido ofensivo y he dañado a otros compañeros-as estando </tspan><tspan x="0" y="26.4" class="st0 st104 st107">enojado.</tspan></text>
	<path class="st13" d="M797.5,268.2c-7,6-12,16-21,22v-1c-2,5-8,5-11,8c-2,3,7,3,3,7c18.8-6.7,32.2-21.6,40.5-39.1
		c-0.8-2.1-2-4-3.8-5.9c-1.9-2-4-5.1-6.1-7C800.2,258.5,800.5,264.5,797.5,268.2z"/>
	<circle class="st108" cx="687.4" cy="363.9" r="99.7"/>
	<g>
		<defs>
			<path id="SVGID_35_" d="M787.1,363.9c0,55.1-44.7,99.7-99.7,99.7s-99.7-44.7-99.7-99.7c0-55.1-18.2-171.1,112.2-162.6
				C754.8,204.9,787.1,308.8,787.1,363.9z"/>
		</defs>
		<clipPath id="SVGID_2_">
			<use xlink:href="#SVGID_35_"  style="overflow:visible;"/>
		</clipPath>
		<path class="st8" d="M785,376.6c-2.2-9.3-3.9-15.7-12.1-17.2c-4.9-0.9-15.4-0.1-21.1,1.5l-22.6,6.3c-6.9,1.9-17.6,6.6-21.7,11
			c-5,5.4-2.8,11.1-0.9,19.3l14.9,64.3c0.9,4,2.7,7.6,5.2,10.6c24.2-5,48.3-12,72.4-18c1.4-4.6,1.7-9.6,0.6-14.5L785,376.6z"/>
		<path class="st8" d="M675,406.6c-2.2-9.3-3.9-15.7-12.1-17.2c-4.9-0.9-15.4-0.1-21.1,1.5l-22.6,6.3c-6.9,1.9-17.6,6.6-21.7,11
			c-5,5.4-2.8,11.1-0.9,19.3l14.9,64.3c0.9,4,2.7,7.6,5.2,10.6c24.2-5,48.3-12,72.4-18c1.4-4.6,1.7-9.6,0.6-14.5L675,406.6z"/>
		<path class="st8" d="M768.5,360.3l-2.5,1.6c-4.2,2.3-1.9,12.1,5.3,21.8l12.9,19.8l14,23.4c3.9,5.3,6.6,9.8,10,11.3
			c2.8,1.3,6.6,0.6,8.5-0.4l6.3-3.4c1.6-0.9,3.9-3,4.1-5.1c0.4-3.4-2.6-7.6-7.1-13.7c0,0-21.5-31.1-16.3-23.2
			c5.1,7.9-8.6-12.8-16.7-23C778.8,359.2,772.7,358,768.5,360.3z"/>
		<g class="st12">
			<polygon class="st13" points="760.8,404.9 770.8,407.4 779,400.7 775.9,387.1 757.7,391.4 			"/>
			
				<rect x="756.6" y="383.4" transform="matrix(0.9744 -0.225 0.225 0.9744 -67.1232 182.2281)" class="st13" width="18.7" height="4.3"/>
		</g>
		<g class="st12">
			<path class="st14" d="M594.4,352.8c0,0.3,0,0.5,0,0.8C594.4,353.4,594.4,353.1,594.4,352.8z"/>
		</g>
	</g>
	<g>
		<path class="st65" d="M735.1,372.5l0.6-5.2c0.9-6.1-7.1-12.4-17.9-14l-21-4.9l-24.1-7c-5.9-0.9-10.5-2.2-13.6-0.3
			c-2.5,1.6-4.3,5.8-4.7,8.6l-1.4,9c-0.3,2.3-0.2,6.4,1.1,8.4c2.1,3.3,6.7,4.1,13.5,5.1c0,0,33.7,6.5,25.3,4.5
			c-8.4-2,13.7,2.9,25.4,4.1C730.1,382,734.2,378.6,735.1,372.5z"/>
		<path class="st65" d="M728,357.2c13.1,4.6,11.1,21.6,1.1,28.6c-4,2-8,5-13,5.4c-1.6,0.3-3.3,0.6-4.9,0.8c-7,0.5-13.6-0.5-20-2.5
			c-2.1-0.7-4.2-1.4-6.4-2.3c-17.7-6.4-47.7-17.4-39.7-39.4c2-7,13-4,21.1-3.6c2.5,0.4,5.1,0.9,7.8,1.4c11.7,2.4,24.6,6.3,36,8.8
			c2.3,0.5,4.5,0.9,6.7,1.3c2.2,0.4,4.2,0.7,6.1,0.9C724.7,357,726.4,357.2,728,357.2z"/>
		<g>
			<g>
				<g>
					<path class="st66" d="M639.8,277.7c-1.6,9.5-7.5,23.5,6,22.7c-1.1-0.3,10,1.9,14.4,0.9c4.4-1,3.3-0.9,8.2-14.5
						c0.6-1.8-2.7-7.7-2.1-9.4c0.4-1.1,4.5-6.8,3.3-6.2c-1.7,0.9-1.3-3.7-0.8-5.7c1.9-8.3-9.4-12.1-19.8-9.9
						c-9.2,2.2-5,9.6-9.1,16.2C639.8,272.1,640.6,273.1,639.8,277.7z"/>
				</g>
			</g>
			<g>
				<path class="st66" d="M656.6,293.8L656.6,293.8c-2.3-2-2.6-5.6-0.6-7.9l11.6-13.4l7.2-4.5c2.7-1.6,7.1-2.4,10-0.5
					c2.9,1.9,1.7,5.5-0.3,7.9l-9.1,5.2l-12,9.9C661.4,293,658.9,295.8,656.6,293.8z"/>
				<g>
					<path class="st14" d="M635,273.9c-1.6,7.1-3.5,19.4,4.9,23.3c2.9,1.8,6.4,2.7,9.4,1.2c6.1-2.2,11.7-6.8,14-13.2
						c0.7-1.2,1.4-2.4,2.1-3.7c1-2.7,1.1-6.1,1.3-8.6c-0.3-0.6,0-3.5-0.1-3.6c-4.4-1.5-11.5-1.6-20.2,0.2c-9.2,2.2-6.8-2.1-10.9,4.5
						C635.6,274.3,635,273.6,635,273.9z"/>
				</g>
				<g>
					<path class="st14" d="M658.4,264.7L658.4,264.7c-1.3-1.7,0.5-5.9,2-7.1l8.4-5.8c1.5-1.2,4.3-1.7,5.7,0.1l0.4,0.5
						c1.3,1.7,0.3,4.6-1.2,5.8l-7.3,8.5C664.8,267.8,659.7,266.4,658.4,264.7z"/>
					<path class="st14" d="M668.7,254L668.7,254c0.6-2.3,2.5-3.7,4.1-3.3l11.1,2.9c1.7,0.4,3.6,2.3,3,4.6l-0.1,0.7
						c-0.6,2.3-3.3,3.4-5,3l-11.1-2.9C669.1,258.5,668.1,256.3,668.7,254z"/>
					<path class="st14" d="M682.4,255.1l-0.4-2.1c2.4,0.1,4.7,1.6,5.1,2.7l2.7,7.4c0.4,1.1,1.3,2.7-0.9,3.5l-0.7,0.3
						c-2.2,0.8-5.4-2.4-5.8-3.6l-3.2-4.8C678.8,257.5,680.2,255.9,682.4,255.1z"/>
					<path class="st14" d="M657.7,283.1L657.7,283.1c-3-0.8-5-3-4.5-5l3.3-12.8c0.5-2,4.5-7.7,7.5-7l-0.7,3.8c3,0.8,4,2.6,3.5,4.6
						l-0.2,6.3C666.1,275,660.7,283.9,657.7,283.1z"/>
				</g>
				<g>
					<path class="st14" d="M652.4,262.8L652.4,262.8c-2.1-0.8-1.5-4.3-0.9-6.3l2.2-11.7c0.6-2,2.6-4.1,4.7-3.3l0.6,0.2
						c2.1,0.8,2.9,4,2.3,6l0.9,11.6C661.6,261.4,654.5,263.6,652.4,262.8z"/>
					<path class="st14" d="M654.8,246.9L654.8,246.9c-0.8-2.4-0.1-4.9,1.5-5.5l10.8-3.9c1.6-0.6,4.3,0,5.1,2.4l0.3,0.7
						c0.8,2.4-0.8,5-2.4,5.6l-10.8,3.9C657.6,250.8,655.6,249.3,654.8,246.9z"/>
					<path class="st14" d="M666.8,239.9l-1.5-1.7c2-1.4,4.8-1.3,5.8-0.5l6.5,5.3c1,0.8,2.6,1.7,1.2,3.8l-0.4,0.6
						c-1.4,2-5.9,0.9-6.8,0.1l-5.4-2.5C665.1,244.2,665.4,241.9,666.8,239.9z"/>
					<path class="st14" d="M662.5,280.1L662.5,280.1c-2.9,1-5.9,0.2-6.6-1.9l-4.6-13.7c-0.7-2.1-0.8-9.7,2.2-10.8l1.7,3.9
						c2.9-1,4.8,0.1,5.5,2.2l3.5,6C664.7,267.8,665.4,279,662.5,280.1z"/>
				</g>
				<g>
					<path class="st14" d="M641.5,251.2L641.5,251.2c-2.1-0.8-1.5-4.3-0.9-6.3l2.2-11.7c0.6-2,2.6-4.1,4.7-3.3l0.6,0.2
						c2.1,0.8,2.9,4,2.3,6l1.9,15.7C651.6,253.8,643.6,252,641.5,251.2z"/>
					<path class="st14" d="M643.9,235.3L643.9,235.3c-0.8-2.4-0.1-4.9,1.5-5.5l10.8-3.9c1.6-0.6,4.3,0,5.1,2.4l0.3,0.7
						c0.8,2.4-0.8,5-2.4,5.6l-10.8,3.9C646.7,239.2,644.7,237.7,643.9,235.3z"/>
					<path class="st14" d="M655.8,228.3l-1.5-1.7c2-1.4,4.8-1.3,5.8-0.5l6.5,5.3c1,0.8,2.6,1.7,1.2,3.8l-0.4,0.6
						c-1.4,2-5.9,0.9-6.8,0.1l-5.4-2.5C654.1,232.6,654.4,230.3,655.8,228.3z"/>
					<path class="st14" d="M657.3,277.6l-4.5,0.4c-2.9,1-17.7,1.4-18.4-0.7l6.1-28.4c-0.7-2.1,1.5-7.5,4.4-8.6l-0.7,5.4
						c2.9-1,4.8,0.1,5.5,2.2l3.5,6C660.5,276.2,661.2,277.8,657.3,277.6z"/>
				</g>
			</g>
			<path class="st65" d="M669.6,309.4c15.2,41.4,2.2,46.4-5,61.4c-2.9,7.2-16.8,0.4-20.9-7.2c-5.5-12.9-11.8-30.5-14.4-44.6
				c-0.2-2.5,1-5.5,1.8-7.6c4.7-8.8,27-14.3,35.1-6.8C668.2,306.5,668.6,306.8,669.6,309.4z"/>
			<path class="st13" d="M671.2,314.1c1,2,3.4,8.6,4,10.6c2.3,8.1,0.8,7.5,1.7,13.5c0.1,0.6,26.7,12.8,26.7,12.8s-28.7-7.6-31.9-5
				C674.7,331.9,670.9,315.2,671.2,314.1z"/>
			<path class="st13" d="M633.9,308.8c-0.8-3.4,0-17,0.5-18.2c6.8,3.1,22.3,6.5,31.6,2.9c-0.3,4.2-1.3,14.6-2,16.1
				C654.2,312.1,643.3,311.2,633.9,308.8z"/>
		</g>
	</g>
	<path class="st14" d="M759.4,359c-4.4-6.7-9.6-13.1-15.2-19.1l-8.6,6.1c-4.6,3.3-5.7,9.8-2.4,14.4l2.2,3.1
		c3.3,4.6,9.7,5.7,14.3,2.4L759.4,359z"/>
	<g>
		<path class="st14" d="M594.4,352.1c0,0.2,0,0.5,0,0.7C594.4,352.6,594.4,352.3,594.4,352.1z"/>
	</g>
	<polygon class="st67" points="734.3,392.5 736.4,367.2 746.9,373.2 	"/>
	<polygon class="st67" points="734.3,392.5 736.4,367.2 725.1,371.3 	"/>
	<polygon class="st68" points="746.7,370.5 737.8,366.1 730.5,371.5 735.2,378.8 741.3,378.9 	"/>
	<polygon class="st68" points="749.1,440.5 739,451.6 727.4,441.6 735.2,378.8 741.3,378.9 	"/>
	<polygon class="st13" points="738,366 738,366.5 749.5,376.5 754.5,366.2 752.2,361.7 	"/>
	<polygon class="st13" points="738,366 738,366.5 726.4,376.4 721.5,366 723.8,361.5 	"/>
	<path class="st65" d="M751.6,343.3c-0.5,0.6-2.2,2.6-3.9,4.7c-4.3,3.7-5.9,15.6,0.4,17.4c9.6,1.7,19.9-2.4,29.2,1
		c3.7,1.5,7.5-0.2,11.1-2.2c1.5-0.7,2.9-1.6,4.1-3c1.4-1,2.8-2.1,4.2-3.3c9.4-8.2,16.4-19.3,23.3-30.5c3.1-6.2,8-31.1,3-32.2
		C804.7,291.2,773.2,332.6,751.6,343.3z"/>
	<g>
		<g>
			<path class="st14" d="M764.8,306.9c0.2,0,0.4-0.1,0.6-0.1C765.2,306.9,765,306.9,764.8,306.9z"/>
		</g>
		<g>
			<path class="st14" d="M764.3,307.1c0.2,0,0.4-0.1,0.5-0.1C764.6,307,764.4,307,764.3,307.1z"/>
		</g>
		<g>
			<path class="st14" d="M762.4,308.3c-0.3,0.6-0.8,2-0.5,2.7l3.5-4.1c-0.2,0.1-0.4,0.1-0.6,0.1c-0.2,0-0.4,0.1-0.5,0.1
				C763.5,307.2,762.8,307.4,762.4,308.3z"/>
		</g>
		
			<ellipse transform="matrix(0.9997 -2.496577e-02 2.496577e-02 0.9997 -7.4245 16.7924)" class="st14" cx="668.8" cy="305.7" rx="13.6" ry="13.6"/>
		
			<ellipse transform="matrix(0.9997 -2.496577e-02 2.496577e-02 0.9997 -7.4245 16.7924)" class="st66" cx="668.8" cy="305.7" rx="9" ry="9"/>
		
			<ellipse transform="matrix(0.9997 -2.496577e-02 2.496577e-02 0.9997 -7.3212 19.5492)" class="st14" cx="779.3" cy="303" rx="13.6" ry="13.6"/>
		
			<ellipse transform="matrix(0.9997 -2.496577e-02 2.496577e-02 0.9997 -7.3212 19.5492)" class="st66" cx="779.3" cy="303" rx="9" ry="9"/>
		<path class="st14" d="M779.8,291c6.3-62.2-26.3-45.3-57.2-44.5c-31,0.8-55.6,22-54.9,47.3c0.1,5.7,0.7,26.5,0.8,32.2
			c0.6,25.4,38.1,45,57.2,44.5c16.9-0.4,55.6-22,54.9-47.3C780.4,317.5,779.2,296.6,779.8,291z"/>
		<path class="st0" d="M759.6,277.9c-1.4-1.3,1.2-4.1,1.2-4.1c8-1.5,9.7,11.9,17.7,7.6c2.7-1.4,1.2-6.7,1.1-10.8
			c3.4,8.5,5.6,1.7,10.4-0.9c0.3-4.5,0.7-8.2,0.6-10.4c-0.8-30.3-27.4-48.4-57.7-47.6c-29.5,0.7-45.5,19.5-46,48.8
			c22.9-8.4,38.6,2.7,54.1,16.1C747.4,276.4,753.1,278.1,759.6,277.9z"/>
		<path class="st0" d="M719.5,238.2c0.5-0.7,0.3-1.6-0.4-2.1c0,0,0,0,0,0c-17.5-11.4-41-6.4-52.4,11.1c-7.9,12.1-7.9,27-1.5,38.9
			c0.4,0.8,1.4,1,2.1,0.5C686.8,272.7,705.5,257.2,719.5,238.2z"/>
		<path class="st75" d="M697.4,349.7c0,0,12.1-7.6,26.5-12.9c15.7-5.8,34.3-15.7,31.1,16.5c0,0-13,6.7-28.2,8.5
			C711.5,363.6,697.4,349.7,697.4,349.7z"/>
		<path class="st13" d="M714.1,350.9c0.7,2.1,1.5,4.2,2.4,6.2c0.1,0.2,0.3,0.4,0.5,0.4c2.6,0.7,5.3,1.1,8.2,0.9
			c0.4,0,0.7-0.5,0.6-0.9c-0.9-2.4-2-4.7-3.1-7.1C719.8,350.8,717,351,714.1,350.9z"/>
		<path class="st13" d="M723.4,350.4c1.1,2.3,2.1,4.7,3.2,7c0.2,0.5,0.8,0.9,1.4,0.8c1.8-0.3,3.6-0.6,5.3-0.9
			c0.5-0.1,0.8-0.6,0.6-1.1c-0.8-2.4-1.7-4.8-2.7-7.2C728.6,349.5,726,350,723.4,350.4z"/>
		<path class="st13" d="M750.8,345.4c-3.5,0.2-7,0.8-10.6,1.5c1,2.2,1.8,4.6,2.4,7c0.1,0.4,0.5,0.6,0.9,0.5c3.2-1.1,5.5-2.1,6.5-2.5
			c0.3-0.1,0.5-0.4,0.5-0.7C750.7,349,750.8,347.1,750.8,345.4z"/>
		<path class="st13" d="M731.9,348.7c1,2.4,2,4.8,2.9,7.3c0.2,0.4,0.6,0.7,1.1,0.6c1.9-0.5,3.7-1,5.3-1.5c0.4-0.1,0.7-0.6,0.6-1
			c-0.5-2.4-1.2-4.8-2.1-7.1C737,347.6,734.4,348.2,731.9,348.7z"/>
		<path class="st13" d="M703.2,350.4c1.9,1.5,6,4.3,11.1,6.2c0.4,0.2,0.9-0.3,0.7-0.7c-0.7-1.7-1.3-3.4-1.8-5.1
			C709.6,350.6,706.4,350.8,703.2,350.4z"/>
		<path class="st13" d="M712.1,345.2c0.6,1.5,1.1,3,1.7,4.6c2.8,0,5.5-0.2,8.3-0.5c-1.1-2.3-2.3-4.6-3.5-6.9c-0.2-0.4-0.6-0.5-1-0.4
			c-1.8,0.7-3.5,1.5-5.1,2.2C712.1,344.4,711.9,344.8,712.1,345.2z"/>
		<path class="st13" d="M724.4,339.4c-1.4,0.5-2.8,1-4.2,1.5c-0.7,0.3-1,1.1-0.6,1.8c1.2,2.1,2.2,4.3,3.3,6.4
			c2.6-0.4,5.3-0.8,7.9-1.4c-1.1-2.6-2.2-5.3-3.2-7.9c-0.3-0.7-1.1-1.1-1.8-0.9C725.2,339.1,724.8,339.3,724.4,339.4z"/>
		<path class="st13" d="M728.2,339.9c1,2.6,2.1,5.2,3.2,7.7c2.6-0.5,5.2-1.1,7.8-1.7c-1.3-3.2-2.9-6.2-4.7-8.9
			c-0.4-0.5-1-0.8-1.6-0.6c-1.2,0.4-2.4,0.8-3.6,1.2C728.3,338,727.8,339,728.2,339.9z"/>
		<path class="st13" d="M735.1,337.4c1.7,2.4,3.3,5.7,4.6,8.5c3.7-0.8,7.3-1.6,11-2.1c-0.9-9.9-7.3-10.2-14.9-8.1
			C734.9,335.8,734.6,336.6,735.1,337.4z"/>
		<path class="st13" d="M702.7,349.1c3.3,0.5,6.7,0.7,9.9,0.7c0.1,0,0.1,0,0.2,0c-0.4-1.4-0.8-2.8-1.1-4.1c-0.1-0.5-0.6-0.8-1.1-0.5
			C706.7,346.9,703.9,348.4,702.7,349.1z"/>
		<path class="st66" d="M725.3,322.3l-2.4,0.1c-3.8,0.1-7-3-7.1-6.8l-0.5-19.4c-0.1-3.8,3-7,6.8-7.1l2.4-0.1c3.8-0.1,7,3,7.1,6.8
			l0.5,19.4C732.1,319,729.1,322.2,725.3,322.3z"/>
		<path class="st14" d="M723.6,318.8l-2.4,0.1c-3.8,0.1-7-3-7.1-6.8l-0.5-19.4c-0.1-3.8,3-7,6.8-7.1l2.4-0.1c3.8-0.1,7,3,7.1,6.8
			l0.5,19.4C730.4,315.5,727.4,318.8,723.6,318.8z"/>
		<path class="st0" d="M684.1,259.9c0,0,14.7,6.1,21.8,10.5c9.8,6.1,30.2,6.4,30.2,6.4s-15.2-19.5-25.2-22.1
			C701,252,684.1,259.9,684.1,259.9z"/>
		<path class="st0" d="M677.6,232.7c0,0,5.8-0.4,8.8-0.1c4.2,0.4,10.9-2.8,10.9-2.8s-8.2-3.9-11.8-3.2S677.6,232.7,677.6,232.7z"/>
		<path class="st0" d="M702.7,214c0,0-1.5,5.6-1.8,8.7c-0.4,4.2-4.9,10.2-4.9,10.2s-2.3-8.8-0.8-12.2
			C696.7,217.1,702.7,214,702.7,214z"/>
		<path class="st82" d="M667.2,272.3l1.9,47l4.4-4.2l2.8-28.5c0,0,6.6-18.6,15.7-22.4c9.1-3.9,27.1-5.3,27.1-5.3l-15.3-7.2
			L667.2,272.3z"/>
		<path class="st82" d="M780.9,267.2l-1.5,43.3l-3.7,2.1l-4.2-28.3c0,0-7.5-18.2-16.8-21.6c-9.3-3.4-27.4-4-27.4-4l14.9-7.9
			L780.9,267.2z"/>
		<g class="st52">
			<g>
				<path class="st14" d="M724.5,221.5c4.2,1.1,8.4,0,12.7,0.4c4,0.3,7.6,2.1,11.6,2.3c0.6,0,0.8-1,0.1-1.1c-8-1.9-16.1-4.5-24.4-2
					C724.3,221.1,724.3,221.4,724.5,221.5L724.5,221.5z"/>
			</g>
		</g>
		<g>
			
				<ellipse transform="matrix(0.9997 -2.496577e-02 2.496577e-02 0.9997 -7.9208 17.1758)" class="st66" cx="683.9" cy="325.8" rx="2" ry="1"/>
			
				<ellipse transform="matrix(0.9997 -2.496577e-02 2.496577e-02 0.9997 -7.9132 17.3769)" class="st66" cx="692" cy="325.6" rx="2" ry="1"/>
			
				<ellipse transform="matrix(0.9997 -2.496577e-02 2.496577e-02 0.9997 -8.0175 17.2801)" class="st66" cx="688" cy="329.7" rx="2" ry="1"/>
			<g>
				<path class="st66" d="M711.3,312.5c-2.7,7.4-5.9,16.3-13.4,20.7c-1.1,0.9-2.3,1.9-3.5,2.8c-1.2,0.9-2.4,1.7-3.6,2.5
					c1.2-1.6,2.2-3.2,3-5c0.8-1.7,1.4-3.5,1.8-5.5c-2,0.8-3.9,1.6-5.7,2.3c-1.8,0.7-3.6,1.3-5.5,1.8c-2.7,1.2-4.8,2.2-4.8,2.2
					s1.2-0.8,3.1-2c1.4-0.6,2.8-1.3,4.2-1.9s2.8-1.3,4.2-2c6.8-5.3,16.5-6.1,19.3-15.6"/>
				<g>
					<path class="st72" d="M677.6,305.3c0.3,11.3,5.5,20.3,16.8,20c11.3-0.3,18.1-9.6,17.8-20.9c-0.3-11.3-7.6-20.2-18.9-20
						C682,284.8,677.3,294,677.6,305.3z"/>
					
						<ellipse transform="matrix(0.9997 -2.496499e-02 2.496499e-02 0.9997 -7.4181 17.4413)" class="st13" cx="694.8" cy="305.8" rx="17.7" ry="17.7"/>
					<g>
						
							<ellipse transform="matrix(0.9997 -2.496577e-02 2.496577e-02 0.9997 -7.4918 17.4157)" class="st0" cx="693.7" cy="308.7" rx="5.4" ry="5.4"/>
						
							<ellipse transform="matrix(0.9997 -2.496577e-02 2.496577e-02 0.9997 -7.4918 17.4157)" cx="693.7" cy="308.7" rx="2.1" ry="2.1"/>
						
							<ellipse transform="matrix(0.9997 -2.496577e-02 2.496577e-02 0.9997 -7.4314 17.3794)" class="st73" cx="692.3" cy="306.3" rx="1.5" ry="1.5"/>
					</g>
					<path class="st14" d="M694.4,288.1c-6.2,0.2-11.5,3.4-14.6,8.3c10.7,2.5,21.8,3.8,32.6,7C711.2,294.6,703.5,287.9,694.4,288.1z
						"/>
				</g>
				<path class="st83" d="M687.8,288l21.8,10c3.1,1.4,6.7,0.1,8.1-3l0,0c1.4-3.1,0.1-6.7-3-8.1l-21.8-10c-3.1-1.4-6.7-0.1-8.1,3v0
					C683.4,282.9,684.7,286.6,687.8,288z"/>
			</g>
			<g>
				<g>
					<path class="st75" d="M696,317.1c0.2,1.2-1.8,1.1-2.2,2c-0.2,0.4-0.1,0.3-0.1,0.6c0,0,0,0,0,0c0.4,0.3,0.4,0.7,0.1,1.2
						c-0.1,0.2-0.4,0.4-0.6,0.6c-0.5,0.7,0,1.4-0.4,2.1c-0.1,0.1,0.1,0.2,0.2,0.1c0.4-0.7,0,0,0.2-0.7c-0.1-0.6,0-1.1,0.4-1.6
						c0.1-0.1,0.2-0.2,0.3-0.3c0.3-0.5,0.2-0.5,0.3-1.1c0.1-1.4-0.1-1.1,0.8-1.6c0.3-0.1,0.7-0.3,0.9-0.5
						C696.2,317.6,696.2,317.5,696,317.1C696,317.1,696,317.1,696,317.1L696,317.1z"/>
				</g>
			</g>
			<g>
				<g>
					<path class="st75" d="M693.3,316.9c-0.4,0.2-0.4,0.6-0.4,1c0.1,0.6,0.4,1.2,0.6,1.8c0.1,0.2,0.3,0,0.3-0.1
						c-0.3-0.7-1.2-1.8-0.4-2.5C693.5,316.9,693.4,316.8,693.3,316.9L693.3,316.9z"/>
				</g>
			</g>
			<g>
				<g>
					<path class="st75" d="M684.6,307.4c-0.3,0.7-0.7,1.3-1.1,1.9c-0.2,0.3-0.3,0.9-0.4,1.1c-0.8,1.1-1.9,0.2-2.8,0.8
						c-0.5,0.3-0.7,1.3-0.8,1.8c0,0.4,0.2,0.5-0.2,0.9c-0.2,0.2-0.5,0.1-0.7,0.4c-0.1,0.1,0.1,0.3,0.2,0.2c0.4-0.4,0.9-0.3,1.2-0.7
						c0.2-0.3-0.1-1,0-1.3c0.2-1.1,1.1-1.1,2-1.1c0.6,0,0.9-0.1,1.2-0.5c0.3-0.5,0.4-1.3,0.7-1.8C684.2,308.5,684.5,308,684.6,307.4
						C684.7,307.4,684.6,307.4,684.6,307.4L684.6,307.4z"/>
				</g>
			</g>
			<g>
				<g>
					<path class="st75" d="M685.6,309.1C685.6,309.1,685.6,309.1,685.6,309.1C685.6,309.1,685.6,309.1,685.6,309.1L685.6,309.1z"/>
				</g>
			</g>
			<g>
				<g>
					<path class="st75" d="M685.5,309.5c-0.3,0.5-0.6,0.9-1.1,1.2c-0.5,0.3-1,0.2-1.5,0.3c-0.1,0-0.1,0.2,0,0.2
						C683.8,311.5,685.4,310.5,685.5,309.5C685.5,309.5,685.5,309.5,685.5,309.5L685.5,309.5z"/>
				</g>
			</g>
			<g>
				<g>
					<path class="st75" d="M679.9,313c0.6,0,1,0.6,1.6,0.6c0.8,0,1.1-1,2.1-0.4c0.4,0.2,0.5,0.6,0.9,0.8c0.4,0.2,0.8,0.1,1.3,0
						c0.1,0,0.1-0.1,0-0.1c-0.6,0.1-1.2,0-1.7-0.4c-0.3-0.2-0.4-0.5-0.6-0.6c-0.3-0.2-0.4-0.2-0.8-0.1c-0.1,0-0.3,0.1-0.4,0.2
						c-1.6,0.4-0.9,0.4-1.7,0c-0.3-0.2-0.5-0.2-0.8,0C679.8,312.9,679.8,313,679.9,313L679.9,313z"/>
				</g>
			</g>
			<g>
				<g>
					<path class="st75" d="M685,312.8c-0.5,0.1-0.9,0.4-0.9,0.9c0,0,0.1,0.1,0.1,0C684.3,313.3,684.6,313,685,312.8
						C685.1,312.9,685,312.8,685,312.8L685,312.8z"/>
				</g>
			</g>
			<g>
				<g>
					<path class="st75" d="M705.3,305.3c0.4,0.9,1,3.4,2.5,2.6c0.5-0.2,0.3-0.4,0.9-0.5c0.8,0,1.1,0.6,1.6,1.2
						c0.4,0.5,0.9,0.7,1.5,0.5c0.2,0,0.1-0.3-0.1-0.3c-1.5,0.4-1.8-2.1-3.2-1.9c-0.8,0.1-0.8,1-1.8,0.8
						C705.9,307.5,705.7,306,705.3,305.3C705.4,305.2,705.3,305.2,705.3,305.3L705.3,305.3z"/>
				</g>
			</g>
			<g>
				<g>
					<path class="st75" d="M701.7,308.8c0.9-0.6,1.9-1,3-0.9c0.7,0.1,1.3,0.3,2-0.1c0.1-0.1,0-0.2-0.1-0.1c-0.9,0.6-2.1-0.1-3.1,0.1
						C702.8,307.9,702.1,308.2,701.7,308.8C701.6,308.8,701.6,308.8,701.7,308.8L701.7,308.8z"/>
				</g>
			</g>
			<g>
				<g>
					<path class="st75" d="M704.7,304.7c-0.5-0.5-0.9-0.9-1.4-1.4c0,0,0,0,0,0C703.7,303.8,704.2,304.3,704.7,304.7
						C704.7,304.7,704.7,304.7,704.7,304.7L704.7,304.7z"/>
				</g>
			</g>
			<g>
				<g>
					<path class="st75" d="M705.3,305c-0.3-0.2-0.1-0.8,0.2-0.8c0,0,0.1-0.1,0-0.1c-0.3-0.7-0.7-1.2-1.4-1.6c0,0-0.1,0,0,0.1
						c0.4,0.3,0.8,0.6,1,1c0.1,0.1,0.2,0.4,0.2,0.5c0,0-0.2,0.1-0.2,0.1C704.8,304.5,704.9,304.9,705.3,305
						C705.3,305,705.3,305,705.3,305L705.3,305z"/>
				</g>
			</g>
			<g>
				<g>
					<path class="st75" d="M677.4,305.2c0.7,0.1,0.9,0.6,1.6,0c0.4-0.4,0.6-0.9,1.1-1.2c0.7-0.5,1.5-0.6,2.3-0.4
						c0.1,0,0.1-0.1,0-0.1c-0.9-0.2-1.8,0-2.5,0.5c-0.4,0.2-0.6,0.6-0.9,0.9c-0.6,0.5-1,0.1-1.6,0.2
						C677.3,305.1,677.3,305.2,677.4,305.2L677.4,305.2z"/>
				</g>
			</g>
			<g>
				<g>
					<path class="st75" d="M688.9,316.5c-0.8,0.4-0.9,1.1-0.8,2c0.1,0.7,0.2,0.8-0.1,1.4c-0.3,0.7-0.3,0.6-0.9,0.9
						c-0.4,0.2-0.6,0.3-0.8,0.6c-0.1,0.1,0.1,0.2,0.2,0.1c0.6-0.5,1.9-0.7,2.1-1.5c0.1-0.3,0-0.5-0.1-0.8c-0.2-0.7-0.5-0.8-0.3-1.7
						C688.3,317.2,688.5,316.8,688.9,316.5C688.9,316.5,688.9,316.5,688.9,316.5L688.9,316.5z"/>
				</g>
			</g>
			<g>
				<g>
					<path class="st75" d="M708.6,314.2c0.1-0.6,0.3-1.2-0.3-1.6c-0.2-0.1-0.4-0.2-0.6-0.1c-0.2,0-0.4,0.3-0.7,0.3
						c-0.4,0-0.7-0.3-0.8-0.7c0,0-0.1,0-0.1,0c0,0.4,0.3,0.7,0.7,0.7c0.2,0,0.4,0,0.6-0.1c0.3-0.2,0.5-0.1,0.8,0.1
						c0.1,0.1,0.1,0.2,0.2,0.3C708.6,313.5,708.6,313.9,708.6,314.2C708.5,314.2,708.6,314.3,708.6,314.2L708.6,314.2z"/>
				</g>
			</g>
			<g>
				<g>
					<path class="st75" d="M704.6,316.3c0,0.5,0.2,1.3,0.6,1.7c0,0,0.1,0,0.1-0.1C704.9,317.5,705,316.8,704.6,316.3
						C704.7,316.3,704.6,316.3,704.6,316.3L704.6,316.3z"/>
				</g>
			</g>
			<g>
				<g>
					<path class="st75" d="M680.1,304.3c0.3,0.3,0.7,0.4,1.1,0.6c0,0,0.1,0,0.1-0.1c-0.1-0.1-0.2-0.2-0.3-0.3c0,0-0.1,0-0.1,0.1
						c0,0,0.4,0.3,0.2,0.2c-0.2-0.2,0.1,0-0.2-0.2C680.6,304.4,680.4,304.3,680.1,304.3C680.1,304.2,680.1,304.2,680.1,304.3
						L680.1,304.3z"/>
				</g>
			</g>
			<g>
				<g>
					<path class="st75" d="M683.6,307.4c-0.1,0.1-0.1,0.3-0.1,0.4c0,0.4,0.4,0.5,0.3,1c0,0,0.1,0.1,0.1,0
						C684,308.4,683.4,308,683.6,307.4C683.7,307.4,683.6,307.4,683.6,307.4L683.6,307.4z"/>
				</g>
			</g>
			<g>
				<g>
					<path class="st75" d="M683,302.5c-0.4-0.1-0.9-0.3-1.3,0.1c-0.2,0.2-0.1,0.4-0.3,0.6c-0.3,0.3-0.7,0.4-1.1,0.7c0,0,0,0.1,0,0.1
						c0.4-0.2,0.9-0.4,1.2-0.8c0.1-0.1,0-0.2,0.1-0.3C681.9,302.2,682.5,302.5,683,302.5C683,302.6,683.1,302.5,683,302.5L683,302.5
						z"/>
				</g>
			</g>
		</g>
		<g>
			
				<ellipse transform="matrix(2.496577e-02 -0.9997 0.9997 2.496577e-02 425.7589 1073.5509)" class="st66" cx="763.2" cy="318.5" rx="1" ry="2"/>
			
				<ellipse transform="matrix(2.496577e-02 -0.9997 0.9997 2.496577e-02 418.1037 1065.2998)" class="st66" cx="755.2" cy="318.3" rx="1" ry="2"/>
			
				<ellipse transform="matrix(2.496577e-02 -0.9997 0.9997 2.496577e-02 417.8057 1073.2529)" class="st66" cx="759.1" cy="322.4" rx="1" ry="2"/>
			<g>
				<path class="st66" d="M735.8,305.2c2.7,7.4,5.9,16.3,13.4,20.7c1.1,0.9,2.3,1.9,3.5,2.8c1.2,0.9,2.4,1.7,3.6,2.5
					c-1.2-1.6-2.2-3.2-3-5c-0.8-1.7-1.4-3.5-1.8-5.5c2,0.8,3.9,1.6,5.7,2.3c1.8,0.7,3.6,1.3,5.5,1.8c2.7,1.2,4.8,2.2,4.8,2.2
					s-1.2-0.8-3.1-2c-1.4-0.6-2.8-1.3-4.2-1.9c-1.4-0.6-2.8-1.3-4.2-2c-6.8-5.3-16.5-6.1-19.3-15.6"/>
				<g>
					<path class="st72" d="M769.6,298c-0.3,11.3-5.5,20.3-16.8,20c-11.3-0.3-18.1-9.6-17.8-20.9s7.6-20.2,18.9-20
						C765.1,277.5,769.9,286.7,769.6,298z"/>
					
						<ellipse transform="matrix(2.496499e-02 -0.9997 0.9997 2.496499e-02 435.1085 1043.1625)" class="st13" cx="752.3" cy="298.5" rx="17.7" ry="17.7"/>
					<g>
						
							<ellipse transform="matrix(2.496577e-02 -0.9997 0.9997 2.496577e-02 433.2386 1047.097)" class="st0" cx="753.4" cy="301.5" rx="5.4" ry="5.4"/>
						
							<ellipse transform="matrix(2.496577e-02 -0.9997 0.9997 2.496577e-02 433.2386 1047.097)" cx="753.4" cy="301.5" rx="2.1" ry="2.1"/>
						
							<ellipse transform="matrix(2.496577e-02 -0.9997 0.9997 2.496577e-02 437.0614 1046.1461)" class="st73" cx="754.8" cy="299" rx="1.5" ry="1.5"/>
					</g>
					<path class="st14" d="M752.8,280.8c6.2,0.2,11.5,3.4,14.6,8.3c-10.7,2.5-21.8,3.8-32.6,7C736,287.3,743.6,280.6,752.8,280.8z"
						/>
				</g>
				<path class="st83" d="M759.4,280.7l-21.8,10c-3.1,1.4-6.7,0.1-8.1-3l0,0c-1.4-3.1-0.1-6.7,3-8.1l21.8-10c3.1-1.4,6.7-0.1,8.1,3
					v0C763.8,275.6,762.4,279.3,759.4,280.7z"/>
			</g>
			<g>
				<g>
					<path class="st75" d="M751.1,309.8c-0.2,0.4-0.1,0.5,0.1,0.8c0.2,0.3,0.6,0.4,0.9,0.5c0.9,0.4,0.7,0.2,0.8,1.6
						c0.1,0.5,0,0.5,0.3,1.1c0.1,0.1,0.2,0.2,0.3,0.3c0.4,0.5,0.5,1,0.4,1.6c0.2,0.7-0.1,0,0.2,0.7c0.1,0.1,0.2,0,0.2-0.1
						c-0.3-0.7,0.1-1.4-0.4-2.1c-0.1-0.2-0.4-0.4-0.6-0.6c-1.5-2.5,0.1-0.4,0.1-1.3c0-0.3,0.1-0.3-0.1-0.6
						C753,311,750.9,311.1,751.1,309.8C751.1,309.8,751.1,309.8,751.1,309.8L751.1,309.8z"/>
				</g>
			</g>
			<g>
				<g>
					<path class="st75" d="M753.7,309.7c0.8,0.7-0.1,1.8-0.4,2.5c-0.1,0.2,0.2,0.3,0.3,0.1c0.2-0.5,0.5-1.2,0.6-1.8
						c0.1-0.4,0-0.7-0.4-1C753.7,309.6,753.7,309.7,753.7,309.7L753.7,309.7z"/>
				</g>
			</g>
			<g>
				<g>
					<path class="st75" d="M762.4,300.1c0.2,0.5,0.4,0.9,0.7,1.4c0.1,0.3,0.3,0.5,0.4,0.8c0.2,0.4,0.2,1,0.4,1.2
						c0.3,0.5,0.6,0.6,1.2,0.5c0.8,0,1.7,0,2,0.9c0.1,0.5-0.1,1,0,1.4c0.2,0.6,0.7,0.4,1.2,0.8c0.1,0.1,0.3-0.1,0.2-0.2
						c-0.2-0.3-0.4-0.2-0.7-0.4c-0.4-0.3-0.2-0.4-0.2-0.8c0-0.5-0.3-1.5-0.8-1.8c-0.9-0.6-2,0.3-2.8-0.8c-0.2-0.2-0.3-0.9-0.5-1.1
						C763.2,301.4,762.8,300.8,762.4,300.1C762.5,300.1,762.4,300.1,762.4,300.1L762.4,300.1z"/>
				</g>
			</g>
			<g>
				<g>
					<path class="st75" d="M761.5,301.8C761.5,301.8,761.5,301.8,761.5,301.8C761.5,301.8,761.5,301.8,761.5,301.8L761.5,301.8z"/>
				</g>
			</g>
			<g>
				<g>
					<path class="st75" d="M761.6,302.3c0.2,1,1.7,2,2.7,1.7c0.1,0,0.1-0.2,0-0.2c-0.6-0.1-1,0-1.5-0.3
						C762.2,303.1,762,302.7,761.6,302.3C761.6,302.2,761.6,302.2,761.6,302.3L761.6,302.3z"/>
				</g>
			</g>
			<g>
				<g>
					<path class="st75" d="M767.3,305.5c-0.3-0.2-0.3-0.2-0.6,0c-1,0.4,0,0.6-1.8,0.1c-0.1,0-0.2-0.2-0.4-0.2
						c-0.4,0-0.3-0.2-0.7,0.1c-0.2,0.1-0.3,0.4-0.4,0.6c-0.5,0.5-1.2,0.6-1.9,0.5c-0.1,0-0.1,0.1,0,0.1c0.4,0.1,0.8,0.1,1.3,0
						c0.5-0.2,0.6-0.5,0.9-0.8c0.9-0.6,1.3,0.4,2.1,0.4c0.6,0,1-0.6,1.6-0.6C767.3,305.7,767.3,305.6,767.3,305.5L767.3,305.5z"/>
				</g>
			</g>
			<g>
				<g>
					<path class="st75" d="M762.1,305.6c0.5,0.1,0.8,0.4,0.9,0.9c0,0,0.1,0,0.1,0C763,306,762.6,305.6,762.1,305.6
						C762.1,305.5,762.1,305.6,762.1,305.6L762.1,305.6z"/>
				</g>
			</g>
			<g>
				<g>
					<path class="st75" d="M741.7,297.9c-0.3,0.8-0.5,2.2-1.5,2.5c-1,0.3-1-0.7-1.8-0.8c-1.4-0.2-1.6,2.4-3.2,1.9
						c-0.2,0-0.3,0.2-0.1,0.3c0.6,0.2,0.9,0,1.4-0.4c0.4-0.4,0.7-1.1,1.3-1.3c0.7-0.3,1,0.2,1.4,0.5
						C740.9,301.4,741.4,298.9,741.7,297.9C741.8,297.9,741.8,297.9,741.7,297.9L741.7,297.9z"/>
				</g>
			</g>
			<g>
				<g>
					<path class="st75" d="M745.5,301.5c-0.5-0.5-1.2-0.8-1.9-1c-1-0.2-2.2,0.5-3.1-0.1c-0.1-0.1-0.2,0.1-0.1,0.1
						c0.6,0.4,1.3,0.2,2,0.1C743.6,300.6,744.6,300.9,745.5,301.5C745.5,301.5,745.5,301.5,745.5,301.5L745.5,301.5z"/>
				</g>
			</g>
			<g>
				<g>
					<path class="st75" d="M742.5,297.4c0.5-0.5,0.9-0.9,1.4-1.4c0,0,0,0,0,0C743.4,296.5,742.9,297,742.5,297.4
						C742.5,297.4,742.5,297.4,742.5,297.4L742.5,297.4z"/>
				</g>
			</g>
			<g>
				<g>
					<path class="st75" d="M741.9,297.7c0.3-0.2,0.4-0.6,0.1-0.8c0,0-0.2-0.1-0.2-0.1c-0.1-0.1,0,0.2,0-0.1c0-0.1,0.1-0.2,0.1-0.3
						c0.2-0.5,0.6-0.8,1.1-1.1c0,0,0-0.1,0-0.1c-0.7,0.3-1.1,0.9-1.4,1.6c0,0,0,0.1,0,0.1C742,297,742.1,297.5,741.9,297.7
						C741.9,297.7,741.9,297.7,741.9,297.7L741.9,297.7z"/>
				</g>
			</g>
			<g>
				<g>
					<path class="st75" d="M769.7,297.8c-0.5-0.1-1,0.2-1.4,0c-0.4-0.2-0.7-0.8-1.1-1.1c-0.8-0.5-1.6-0.6-2.5-0.5
						c-0.1,0,0,0.1,0,0.1c0.8-0.1,1.5-0.1,2.2,0.4c0.5,0.3,0.8,0.8,1.2,1.3c0.6,0.6,0.9,0.1,1.6,0
						C769.8,297.9,769.8,297.8,769.7,297.8L769.7,297.8z"/>
				</g>
			</g>
			<g>
				<g>
					<path class="st75" d="M758.3,309.3c0.3,0.3,0.6,0.7,0.7,1.1c0.1,0.6-0.1,1.1-0.3,1.6c-0.1,0.3-0.2,0.5-0.1,0.8
						c0.3,0.8,1.5,1,2.1,1.5c0.1,0.1,0.2,0,0.2-0.1c-0.2-0.3-0.5-0.5-0.8-0.6c-0.2-0.1-0.5-0.2-0.7-0.3c-0.9-0.7-0.4-1.3-0.3-2
						C759.2,310.4,759.1,309.7,758.3,309.3C758.3,309.2,758.2,309.3,758.3,309.3L758.3,309.3z"/>
				</g>
			</g>
			<g>
				<g>
					<path class="st75" d="M738.6,306.9c0-0.3-0.1-0.7,0-1c0.1-0.1,0.1-0.2,0.2-0.3c0.2-0.2,0.5-0.3,0.8-0.1c0.2,0,0.4,0.1,0.6,0.1
						c0.4-0.1,0.7-0.4,0.7-0.7c0-0.1-0.1-0.1-0.1,0c-0.1,0.3-0.4,0.7-0.8,0.7c-0.2,0-0.4-0.2-0.7-0.3c-0.2,0-0.4,0-0.6,0.1
						C738.3,305.7,738.4,306.4,738.6,306.9C738.6,307,738.6,307,738.6,306.9L738.6,306.9z"/>
				</g>
			</g>
			<g>
				<g>
					<path class="st75" d="M742.4,309c-0.3,0.5-0.2,1.2-0.6,1.7c0,0,0,0.1,0.1,0.1C742.3,310.3,742.5,309.6,742.4,309
						C742.5,309,742.4,309,742.4,309L742.4,309z"/>
				</g>
			</g>
			<g>
				<g>
					<path class="st75" d="M767,296.9c-0.2,0.1-0.4,0.2-0.7,0.4c-0.1,0-0.1,0.1-0.2,0.1c-0.3,0.3,0,0,0.1-0.1c0,0,0-0.1-0.1-0.1
						c-0.1,0.1-0.2,0.2-0.3,0.3c0,0,0,0.1,0.1,0.1C766.3,297.4,766.7,297.3,767,296.9C767.1,297,767,296.9,767,296.9L767,296.9z"/>
				</g>
			</g>
			<g>
				<g>
					<path class="st75" d="M763.5,300.2c0.3,0.5-0.3,0.9-0.2,1.4c0,0,0.1,0,0.1,0c-0.1-0.5,0.3-0.6,0.3-1
						C763.7,300.4,763.6,300.3,763.5,300.2C763.5,300.1,763.4,300.1,763.5,300.2L763.5,300.2z"/>
				</g>
			</g>
			<g>
				<g>
					<path class="st75" d="M764.2,295.3c0.4-0.1,0.9-0.3,1.2,0.1c0.1,0.2,0.1,0.3,0.2,0.4c0.2,0.4,0.8,0.6,1.2,0.8c0,0,0.1,0,0-0.1
						c-0.3-0.2-0.8-0.4-1.1-0.7c-0.2-0.2-0.2-0.4-0.3-0.6C765.1,294.9,764.5,295.1,764.2,295.3C764.1,295.2,764.1,295.3,764.2,295.3
						L764.2,295.3z"/>
				</g>
			</g>
		</g>
	</g>
	<g>
		<path class="st65" d="M643.3,409.3l1.7-2.9c1.9-3.5,8.5-3.6,14.7-0.3l12.7,5.6l15.1,5.7c3.4,1.8,6.3,2.9,7.1,5.1
			c0.7,1.8,0,4.7-0.9,6.2l-2.8,5.2c-0.7,1.3-2.4,3.4-3.8,3.9c-2.4,0.9-5.1-0.5-8.9-2.6c0,0-19.9-9.7-14.8-7.5
			c5.1,2.2-8.2-3.9-14.7-7.8C642.2,416.2,641.4,412.8,643.3,409.3z"/>
		<g>
			<g>
				<path class="st66" d="M707.4,373.6c0.1,6.2,1.1,16.5-7.6,16.2c0.7-0.2-6.4,1.4-9.3,0.8c-2.8-0.6-2.1-0.5-5.5-9.2
					c-0.4-1.1,1.6-5,1.2-6.1c-0.3-0.7-3-4.3-2.2-3.9c1.1,0.5,0.8-2.4,0.4-3.7c-1.4-5.3,5.9-7.9,12.6-6.7c6,1.3,7.1,5.8,9.9,10
					C707,371.2,707.4,373.4,707.4,373.6z"/>
			</g>
			<path class="st66" d="M691.7,376.9L691.7,376.9c2.4-0.7,3.7-3.1,3.1-5.5l-4.4-15.5c-0.7-2.4-3.1-3.7-5.5-3.1l0,0
				c-2.4,0.7-3.7,3.1-3.1,5.5l4.4,15.5C686.9,376.2,689.3,377.6,691.7,376.9z"/>
			<path class="st66" d="M698.6,374.4L698.6,374.4c2.2-0.6,3.5-3.1,2.8-5.4l-4.4-15.5c-0.7-2.4-3-3.8-5.3-3.2l0,0
				c-2.2,0.6-3.5,3.1-2.8,5.4l4.4,15.5C694,373.6,696.4,375,698.6,374.4z"/>
			<path class="st66" d="M703.5,377.3L703.5,377.3c2.4-0.3,4.1-2.6,3.8-5l-2.2-16c-0.3-2.4-2.6-4.1-5-3.8l0,0
				c-2.4,0.3-3.1,4.6-2.8,7l1.1,14C698.8,375.9,701,377.6,703.5,377.3z"/>
		</g>
		<g>
			<path class="st66" d="M692.7,385.7L692.7,385.7c1.5-1.3,1.6-3.6,0.3-5.1l-7.7-8.5l-4.7-2.8c-1.8-1-4.6-1.4-6.5-0.2
				s-1,3.6,0.3,5.1l6,3.2l7.2,7.9C688.9,386.9,691.2,387.1,692.7,385.7z"/>
			<path class="st186" d="M693.3,386.9L693.3,386.9c1.5-1.3,1.6-3.6,0.3-5.1l-7.7-8.5l-4.7-2.8c-1.3-1.5-4.9-1.6-6.3-0.3l-0.2,0.2
				c-1.5,1.3-0.9,3.2,0.4,4.6l5.9,3.7l7.2,7.9C689.6,388.1,691.9,388.2,693.3,386.9z"/>
			<g>
				<path class="st186" d="M706.8,374.5c0.1,6.2,2.6,17.4-6.1,17.1c0.7-0.2-6.4,1.4-9.3,0.8c-2.8-0.6-2.1-0.5-5.5-9.2
					c-0.4-1.1-0.3-5-0.7-6.1c-0.7-1.8-1.4-3.6-0.7-4.5c0,0,1,0.2,1.2-0.1c0.2-0.4-0.2-2.2-0.2-2.3c2.8-1,7.6-1.3,13.3-0.2
					c6,1.3,5.2-0.2,7.9,3.9C706.8,374.1,706.8,374.3,706.8,374.5z"/>
			</g>
			<path class="st186" d="M691.8,378.8L691.8,378.8c1.9-0.5,2.9-2.9,2.3-5.3l-4.4-15.5c-0.7-2.4-2.6-5.2-4.6-4.6l-0.6,0.1
				c-1.9,0.5-2.5,4.1-1.8,6.5l4.4,15.5C687.8,377.9,689.9,379.4,691.8,378.8z"/>
			<path class="st186" d="M698.3,375.3L698.3,375.3c1.7-0.5,2.6-2.8,1.9-5.2l-3.5-15.3c-0.7-2.4-2.6-3.9-4.4-3.4h0
				c-1.7,0.5-2.6,2.8-1.9,5.2l3.5,15.3C694.6,374.2,696.6,375.8,698.3,375.3z"/>
			<path class="st186" d="M704.1,377.8L704.1,377.8c1.7-0.1,2.7-1.8,2.6-4.3l-1.8-16c-0.1-2.4-1.7-4.4-3.4-4.3l0,0
				c-1.7,0.1-3,2.2-2.9,4.6l2.1,15.6C700.9,376,702.4,377.9,704.1,377.8z"/>
		</g>
		<path class="st65" d="M684.5,396c-9.2,26.9-0.8,30,4.1,39.5c1.9,4.6,10.8,0,13.4-4.9c3.4-8.4,7.1-19.8,8.7-29
			c0.1-1.6-0.7-3.6-1.3-4.9c-3.2-5.6-17.6-8.8-22.7-3.9C685.4,394.1,685.2,394.3,684.5,396z"/>
		<path class="st13" d="M642,403.5c-0.8,1-1.5,2.1-1.9,3.2c-0.9,1.8-1.8,6,0.2,10.5c7.6,12.8,20,17.4,33.7,19
			c1.7-5,3.5-9.8,6.5-14.1C668.2,414.9,655.3,408.7,642,403.5z"/>
		<path class="st65" d="M652.7,403.8c-1-0.2-6.6-1.7-7.5-1.7c-5.7,0.2-6,8.6-4.5,15.7c1.4,4.2,4.3,8,7.3,10.9
			c9,7.9,21.1,9.2,33.1,10.5c4.5,0.1,20.3-4.1,19.5-7.3C697.9,420,665,413.4,652.7,403.8z"/>
		<path class="st13" d="M683.6,399c-0.6,1.3-1.1,2.6-1.7,3.9c-1.9,4.6-1.2,7.9-1.7,11.8c0,0.4-7.2-2.8-7.2-2.8s8.6,6.1,10.7,7.7
			C681.6,410.6,683.8,399.8,683.6,399z"/>
		<path class="st13" d="M708.4,410.6c-6.3,23.6-20.8,31.4-38,27.1c17,2.7,17.1,1.7,23.8-1.1c8.4-4.9,12.5-13.1,13.8-22.7
			C708.2,412,708.4,410.9,708.4,410.6z"/>
		<path class="st13" d="M707.2,398.5c0.4-2.2-0.7-8.7-1-9.4c-6.2,0.8-13.1,0.6-19.2-1.6c0.3,2.7,0.3,11.1,0.8,12
			C694.1,400.9,701.1,400.2,707.2,398.5z"/>
	</g>
	<g>
		<g>
			<path class="st14" d="M707.7,378c-0.1,0.2-0.1,0.4-0.2,0.6C707.6,378.4,707.6,378.2,707.7,378z"/>
		</g>
		<g>
			<g>
				<g>
					<path class="st14" d="M657.1,373.4c0.1-0.1,0.2-0.2,0.3-0.3C657.3,373.2,657.2,373.3,657.1,373.4z"/>
				</g>
				<g>
					<path class="st14" d="M656.8,373.7c0.1-0.1,0.2-0.2,0.3-0.2C657,373.5,656.9,373.6,656.8,373.7z"/>
				</g>
				<g>
					<path class="st14" d="M656.2,375c0,0.5,0.2,1.5,0.7,1.7l0.6-3.6c-0.1,0.1-0.2,0.2-0.3,0.3c-0.1,0.1-0.2,0.2-0.3,0.2
						C656.4,374,656.1,374.4,656.2,375z"/>
				</g>
				<path class="st66" d="M642,401.6l-4.4,2.8c-4.3,2.7-10.1,1.5-12.9-2.9l-8.4-13.3c-2.7-4.3-1.5-10.1,2.9-12.9l4.4-2.8
					c4.3-2.7,10.1-1.5,12.9,2.9l8.4,13.3C647.6,393.1,646.3,398.9,642,401.6z"/>
				
					<ellipse transform="matrix(0.8442 -0.536 0.536 0.8442 -124.255 385.2523)" class="st186" cx="600.6" cy="406.4" rx="9.3" ry="9.3"/>
				
					<ellipse transform="matrix(0.8442 -0.536 0.536 0.8442 -124.255 385.2523)" class="st66" cx="600.6" cy="406.4" rx="6.1" ry="6.1"/>
				
					<ellipse transform="matrix(0.8442 -0.536 0.536 0.8442 -92.731 413.0234)" class="st186" cx="664.1" cy="366" rx="9.3" ry="9.3"/>
				
					<ellipse transform="matrix(0.8442 -0.536 0.536 0.8442 -92.731 413.0234)" class="st66" cx="664.1" cy="366" rx="6.1" ry="6.1"/>
				<path class="st186" d="M660.2,358.8c-18.1-38.5-31.2-17.2-49-5.9c-17.8,11.3-24.8,32.3-15.5,46.9c2.1,3.3,9.7,15.3,11.8,18.5
					c9.3,14.6,38,12.9,49,5.9c9.7-6.2,24.8-32.3,15.5-46.9C669.9,374.1,661.9,362.3,660.2,358.8z"/>
				<path class="st187" d="M643.9,358.3c-1.3-0.3-0.7-2.8-0.7-2.8c4.1-3.7,9.8,3.5,13-1.7c1.1-1.8-1.7-4.4-3.2-6.7
					c5,3.7,3.9-1,5.8-4.2c-1.4-2.7-2.5-5-3.3-6.3c-11.1-17.4-33-18.7-50.4-7.6c-17,10.8-19.8,27.4-9.7,44.6
					c10.4-12.9,23.5-12,37.2-9.6C636.2,361.7,640.1,360.7,643.9,358.3z"/>
				<path class="st187" d="M606.5,349.2c0.1-0.6-0.4-1.1-0.9-1.1c0,0,0,0,0,0c-14.2-0.5-26.2,10.6-26.7,24.9
					c-0.4,9.8,4.8,18.6,12.8,23.2c0.5,0.3,1.2,0.1,1.4-0.5C599.5,380.7,605,365.1,606.5,349.2z"/>
				<g>
					<path class="st72" d="M658.8,369.2c4.1,6.5,4.6,13.6-1.9,17.7c-6.5,4.1-13.9,1.4-18-5c-4.1-6.5-3.4-14.3,3.1-18.4
						C648.5,359.3,654.7,362.7,658.8,369.2z"/>
					
						<ellipse transform="matrix(0.8442 -0.536 0.536 0.8442 -100.4123 406.6254)" class="st13" cx="649.3" cy="376" rx="12.1" ry="12.1"/>
					<g>
						
							<ellipse transform="matrix(0.8442 -0.536 0.536 0.8442 -98.9262 408.7008)" class="st0" cx="653.6" cy="374.5" rx="3.8" ry="3.8"/>
						<ellipse transform="matrix(0.8442 -0.536 0.536 0.8442 -98.9262 408.7008)" cx="653.6" cy="374.5" rx="1.5" ry="1.5"/>
						
							<ellipse transform="matrix(0.8442 -0.536 0.536 0.8442 -98.6884 407.6272)" class="st73" cx="651.9" cy="373.6" rx="1.1" ry="1.1"/>
					</g>
				</g>
				<path class="st66" d="M643.7,404.5L643.7,404.5c-2.6,1.6-6,0.9-7.6-1.7l-10.7-16.9c-1.6-2.6-0.9-6,1.7-7.6h0
					c2.6-1.6,6-0.9,7.6,1.7l10.7,16.9C647,399.5,646.3,402.9,643.7,404.5z"/>
				<path class="st186" d="M641,402.3L641,402.3c-2.6,1.6-6,0.9-7.6-1.7l-10.7-16.9c-1.6-2.6-0.9-6,1.7-7.6l0,0
					c2.6-1.6,6-0.9,7.6,1.7l10.7,16.9C644.3,397.3,643.6,400.7,641,402.3z"/>
				<path class="st187" d="M593.5,374.2c0,0,10.7-1.6,16.4-1.5c7.8,0.1,19.8-6.9,19.8-6.9s-15.7-6.1-22.5-4.1
					C600.5,363.7,593.5,374.2,593.5,374.2z"/>
				<path class="st187" d="M580.1,360.6c0,0,3.3-2.3,5.1-3.1c2.6-1.2,5.4-5.5,5.4-5.5s-6.1,0.6-8,2.3
					C580.7,356,580.1,360.6,580.1,360.6z"/>
				<path class="st187" d="M588.3,340.9c0,0,1.1,3.8,2,5.7c1.2,2.6,0.7,7.6,0.7,7.6s-4.4-4.3-4.8-6.9
					C585.8,344.9,588.3,340.9,588.3,340.9z"/>
				
					<ellipse transform="matrix(0.8442 -0.536 0.536 0.8442 -125.2261 394.7524)" class="st66" cx="616.4" cy="412.8" rx="1.4" ry="0.7"/>
				
					<ellipse transform="matrix(0.8442 -0.536 0.536 0.8442 -122.9265 396.7782)" class="st66" cx="621.1" cy="409.8" rx="1.4" ry="0.7"/>
				
					<ellipse transform="matrix(0.8442 -0.536 0.536 0.8442 -125.0892 396.9151)" class="st66" cx="620.2" cy="413.6" rx="1.4" ry="0.7"/>
				
					<ellipse transform="matrix(0.8442 -0.536 0.536 0.8442 -104.6067 412.9171)" class="st66" cx="658" cy="386.4" rx="1.4" ry="0.7"/>
				
					<ellipse transform="matrix(0.8442 -0.536 0.536 0.8442 -102.3071 414.9429)" class="st66" cx="662.6" cy="383.5" rx="1.4" ry="0.7"/>
				
					<ellipse transform="matrix(0.8442 -0.536 0.536 0.8442 -104.4698 415.0798)" class="st66" cx="661.8" cy="387.2" rx="1.4" ry="0.7"/>
				<path class="st187" d="M588,387.4l17.6,26.8l1.1-4l-8.4-17.6c0,0-2.6-13.2,1.3-18.6s14-12.6,14-12.6l-11.4,1.2L588,387.4z"/>
				<path class="st187" d="M652.5,344.6l14.3,25.8l-1.4,2.5L653,357.8c0,0-10.8-8-17.4-6.7c-6.6,1.2-17.4,7.3-17.4,7.3l5.9-9.8
					L652.5,344.6z"/>
				<path class="st187" d="M636.5,368.9l12-11c1.7-1.5,1.8-4.2,0.2-5.9v0c-1.6-1.7-4.2-1.8-5.9-0.2l-12,11c-1.7,1.5-1.8,4.2-0.2,5.9
					l0,0C632.2,370.3,634.8,370.4,636.5,368.9z"/>
				<g class="st52">
					<g>
						<path class="st14" d="M603.5,337.7c2.6-0.1,4.7-2.2,6.8-3.5c2.7-1.5,5.8-1.8,8.4-3.4c0.6-0.4,0.2-1.3-0.5-1.1
							c-2.8,0.7-5.8,1.2-8.4,2.6c-2.2,1.2-5.3,2.7-6.6,5C603.2,337.5,603.3,337.8,603.5,337.7L603.5,337.7z"/>
					</g>
				</g>
				<g>
					<path class="st72" d="M629.3,384.1c4.1,6.5,4.6,13.6-1.9,17.7c-6.5,4.1-13.9,1.4-18-5c-4.1-6.5-3.4-14.3,3.1-18.4
						C619,374.2,625.2,377.6,629.3,384.1z"/>
					
						<ellipse transform="matrix(0.8442 -0.536 0.536 0.8442 -113.0056 393.1363)" class="st13" cx="619.8" cy="391" rx="12.1" ry="12.1"/>
					<g>
						
							<ellipse transform="matrix(0.8442 -0.536 0.536 0.8442 -110.9403 394.8776)" class="st0" cx="623.8" cy="388.3" rx="3.8" ry="3.8"/>
						<ellipse transform="matrix(0.8442 -0.536 0.536 0.8442 -110.9403 394.8776)" cx="623.8" cy="388.3" rx="1.5" ry="1.5"/>
						
							<ellipse transform="matrix(0.8442 -0.536 0.536 0.8442 -110.7024 393.8041)" class="st73" cx="622.1" cy="387.3" rx="1.1" ry="1.1"/>
					</g>
				</g>
				<path class="st187" d="M605.2,389.7l11.9-11.2c1.7-1.6,1.7-4.3,0-6l0,0c-1.7-1.7-4.4-1.8-6.1-0.3l-11.9,11.2
					c-1.7,1.6-1.7,4.3,0,6l0,0C600.8,391.1,603.5,391.2,605.2,389.7z"/>
				<g>
					<g>
						<path class="st75" d="M662.5,402.7c-6.7,0.4-14.7,2.1-20.7,5.3c-5.3,2.8-6.1,8.4-6.3,13.9c-0.1,1.3,2.9,0.7,2.9-0.3
							c0.2-6.1,1-10.9,7.5-13.4c5.2-2,10.7-3.4,16.3-3.8C663.6,404.3,664.5,402.6,662.5,402.7L662.5,402.7z"/>
					</g>
				</g>
			</g>
		</g>
	</g>
	<g>
		<path class="st65" d="M616.7,435.3l3.3-1.6c3.9-2.1,10.1,1.9,13.8,8.8l8.3,13l10.5,14.6c2,3.8,4,6.6,3.4,9.1
			c-0.5,2.1-2.9,4.3-4.7,5.2l-5.8,3.1c-1.5,0.8-4.3,1.6-5.9,1.3c-2.8-0.6-4.4-3.6-6.7-7.9c0,0-12.4-21.2-9.1-16s-5.2-8.6-8.8-16.2
			C611.5,441,612.8,437.4,616.7,435.3z"/>
		<g>
			<g>
				<path class="st66" d="M698,441.7c-3.7,5.8-9.1,16-17,10.3c0.8,0.2-6.8-2.7-9-5c-2.2-2.3-1.7-1.8,0.6-11.9
					c0.3-1.3,4.6-3.6,4.9-4.9c0.2-0.8-0.1-5.8,0.3-5c0.7,1.2,2.2-1.7,2.7-3.2c2-5.7,10.3-3.7,15.8,1.6c4.7,4.9,3,9.8,3,15.3
					C699.2,439.2,698.1,441.6,698,441.7z"/>
			</g>
			<path class="st66" d="M681.5,435.1L681.5,435.1c2.6,0.8,5.4-0.6,6.2-3.2l5.5-17c0.8-2.6-0.6-5.4-3.2-6.2l0,0
				c-2.6-0.8-5.4,0.6-6.2,3.2l-5.5,17C677.4,431.5,678.9,434.3,681.5,435.1z"/>
			<path class="st66" d="M689.4,437L689.4,437c2.4,0.8,5.1-0.7,6-3.3l5.5-17c0.8-2.6-0.5-5.4-2.9-6.2h0c-2.4-0.8-5.1,0.7-6,3.3
				l-5.5,17C685.6,433.5,686.9,436.2,689.4,437z"/>
			<path class="st66" d="M692.1,442.7L692.1,442.7c2.5,1.2,5.4,0.2,6.6-2.3l7.8-16.1c1.2-2.5,0.2-5.4-2.3-6.6h0
				c-2.5-1.2-5.7,2.4-6.9,4.8l-7.5,13.6C688.6,438.5,689.7,441.5,692.1,442.7z"/>
		</g>
		<g>
			<path class="st66" d="M677,443.9L677,443.9c2.2-0.3,3.7-2.4,3.4-4.5l-1.9-12.6l-2.6-5.5c-1-2-3.4-4.2-5.9-4.1
				c-2.5,0.1-3.1,2.7-2.8,4.9l3.5,6.7l1.8,11.7C672.7,442.7,674.8,444.2,677,443.9z"/>
			<path class="st186" d="M676.8,445.4L676.8,445.4c2.2-0.3,3.7-2.4,3.4-4.5l-1.9-12.6l-2.6-5.5c-0.3-2.2-3.5-4.5-5.7-4.2l-0.2,0
				c-2.2,0.3-2.8,2.4-2.5,4.6l3.2,7l1.8,11.7C672.6,444.1,674.7,445.7,676.8,445.4z"/>
			<g>
				<path class="st186" d="M696.9,442.2c-3.7,5.8-8.3,17.7-16.2,12c0.8,0.2-6.8-2.7-9-5c-2.2-2.3-1.7-1.8,0.6-11.9
					c0.3-1.3,2.8-4.8,3.1-6.1c0.4-2.1,0.9-4.1,2.1-4.6c0,0,0.8,0.8,1.2,0.6c0.4-0.2,1.2-2.2,1.2-2.2c3.2,0.8,7.8,3.5,12.4,8
					c4.7,4.9,4.9,3,4.9,8.5C697.2,441.8,697.1,442,696.9,442.2z"/>
			</g>
			<path class="st186" d="M680.4,437L680.4,437c2.1,0.7,4.5-0.9,5.3-3.5l5.5-17c0.8-2.6,0.7-6.4-1.4-7.1l-0.6-0.2
				c-2.1-0.7-4.8,2.3-5.7,4.8l-5.5,17C677.2,433.6,678.3,436.3,680.4,437z"/>
			<path class="st186" d="M688.6,437.7L688.6,437.7c1.9,0.6,4.1-1,5-3.6l6.1-16.3c0.8-2.6,0-5.2-1.9-5.8l0,0c-1.9-0.6-4.1,1-5,3.6
				l-6.1,16.3C685.8,434.4,686.7,437,688.6,437.7z"/>
			<path class="st186" d="M692.4,443.6L692.4,443.6c1.6,1,3.6,0,5-2.3l8.1-15.9c1.4-2.4,1.2-5.1-0.5-6l0,0c-1.6-1-4.1,0.2-5.5,2.5
				l-7.6,15.7C690.6,439.9,690.8,442.6,692.4,443.6z"/>
		</g>
		<path class="st65" d="M663.1,448.3c-25.1,19.2-19.1,27.2-20.5,39.1c-1,5.4,10,6.7,15.4,3.7c8.3-5.7,18.8-13.9,25.8-21.5
			c1.1-1.4,1.5-3.7,1.8-5.3c0.5-7.1-10.9-19-18.6-17.6C665.1,447.2,664.7,447.2,663.1,448.3z"/>
		<path class="st13" d="M619.1,429.2c-1.3,0.4-2.6,1-3.8,1.8c-1.9,1.1-5.3,4.5-6.3,9.8c-0.8,16.5,7.8,28.4,19.5,38.3
			c4.6-3.6,9.3-6.9,14.7-9.1C636.4,455.8,628.2,442.1,619.1,429.2z"/>
		<path class="st65" d="M628.9,436c-0.8-0.8-5.1-5.6-5.9-6.2c-5.4-3.3-10.9,4.3-13.8,11.7c-1.3,4.7-1,10.1,0.1,14.5
			c3.5,12.9,13.8,21.5,24.2,30.1c4.1,2.8,21.3,8.7,22.5,5.3C660.6,478.8,634.3,452.4,628.9,436z"/>
		<path class="st13" d="M660.4,450.6c-1.3,0.8-2.6,1.7-3.9,2.5c-4.6,3.1-6,6.6-8.8,9.9c-0.3,0.3-5-7.1-5-7.1s4.2,10.9,5.2,13.8
			C651.4,460.1,660.1,451.4,660.4,450.6z"/>
		<path class="st13" d="M682.5,464.6c1.8-1.8,4.7-8.4,4.9-9.3c-6.2-3.1-12.5-7.5-16.8-13.3c-1.4,2.7-6.5,10.4-6.7,11.6
			C668.9,458.8,675.8,462.5,682.5,464.6z"/>
	</g>
</g>
<g id="Layer_2">
	<rect x="34.9" y="28.9" class="st22" width="391.9" height="48.3"/>
	<text transform="matrix(1 0 0 1 34.8917 47.6326)" class="st0 st106 st105">HOla, Kaira POlet ARAYA</text>
	<g>
		<g>
			<g>
				<g>
					<path class="st66" d="M772.8,240.8c7.8,5.6,21.9,11.4,11.7,20.3c0.5-1-5.8,8.4-9.6,10.8s-3,1.7-16-4.5
						c-1.7-0.8-3.5-7.3-5.1-8.1c-1-0.5-8-1.6-6.7-2c1.8-0.5-1.7-3.5-3.5-4.6c-7.2-4.5-1.8-15.2,7.1-21c8.1-4.9,10.3,3.3,17.8,5.1
						C768.9,236.8,769,238.1,772.8,240.8z"/>
				</g>
			</g>
			<g>
				<path class="st66" d="M772.3,264L772.3,264c0.3-3.1-2-5.8-5.1-6.1l-17.7-1.3l-8.2,1.9c-3,0.8-6.7,3.3-7.5,6.7
					c-0.7,3.4,2.7,5.1,5.8,5.4l10.2-2.7l15.5-1.4C768.3,266.8,772,267.1,772.3,264z"/>
				<g>
					<path class="st14" d="M773.5,234.7c6.1,3.9,16.1,11.3,12.9,20c-0.8,3.3-2.7,6.4-5.8,7.5c-5.9,2.7-13.1,3.4-19.3,0.5
						c-1.3-0.4-2.7-0.8-4.1-1.2c-2.7-1.2-5.1-3.5-7-5.1c-0.2-0.6-2.5-2.5-2.5-2.6c2.1-4.2,7-9.2,14.5-14.1c8.1-4.9,3.4-6.2,10.9-4.5
						C773.4,235.4,773.3,234.5,773.5,234.7z"/>
				</g>
				<g>
					<path class="st14" d="M750.5,244.6L750.5,244.6c-0.3-2.2-4.5-3.9-6.4-3.6l-10,1.9c-1.9,0.3-4.2,1.9-4,4l0.1,0.7
						c0.3,2.2,3,3.5,4.9,3.2l11.1,0.8C748.1,251.4,750.8,246.8,750.5,244.6z"/>
					<path class="st14" d="M735.6,244.3L735.6,244.3c-2-1.2-4.4-0.9-5.3,0.6l-5.9,9.9c-0.9,1.5-0.9,4.2,1.1,5.3l0.6,0.4
						c2,1.2,4.7,0.1,5.6-1.4l5.9-9.9C738.5,247.7,737.6,245.5,735.6,244.3z"/>
					<path class="st14" d="M726.7,254.8l-1.2-1.7c-1.7,1.8-2.2,4.4-1.7,5.5l3.4,7.1c0.5,1.1,1,2.8,3.1,1.8l0.6-0.3
						c2.1-1,2.1-5.5,1.6-6.6l-1.1-5.7C730.9,253.9,728.8,253.8,726.7,254.8z"/>
					<path class="st14" d="M763.9,257.2L763.9,257.2c1.6-2.7,1.5-5.7-0.3-6.7l-11.4-6.8c-1.7-1-8.6-2.3-10.2,0.3l3.2,2.3
						c-1.6,2.7-1,4.6,0.8,5.7l4.6,4.3C752.3,257.4,762.3,259.9,763.9,257.2z"/>
				</g>
				<g>
					<path class="st14" d="M753.4,239.1L753.4,239.1c0.9-2.1-1.9-4.1-3.7-5.1l-9.8-6.7c-1.8-1-4.7-1.1-5.6,1l-0.3,0.6
						c-0.9,2.1,0.8,4.9,2.6,5.9l7.5,8.9C745.8,244.6,752.5,241.2,753.4,239.1z"/>
					<path class="st14" d="M740.4,229.5L740.4,229.5c-1.1-2.3-3.3-3.6-4.9-2.8l-10.4,4.9c-1.6,0.7-3,3-1.9,5.3l0.3,0.7
						c1.1,2.3,4.1,3,5.7,2.3l10.4-4.9C741.2,234.2,741.6,231.8,740.4,229.5z"/>
					<path class="st14" d="M727,232.9l-0.1-2.2c-2.4,0.5-4.3,2.4-4.5,3.7l-0.9,8.3c-0.1,1.3-0.6,3.1,1.8,3.5l0.7,0.2
						c2.4,0.5,4.8-3.5,5-4.7l2.1-5.6C731.3,234.8,729.4,233.4,727,232.9z"/>
					<path class="st14" d="M758.4,258.4L758.4,258.4c2.8-1.3,4.3-4,3.3-6l-6.4-13c-1-2-6.3-7.4-9.1-6.1l1.6,4
						c-2.8,1.3-3.3,3.4-2.4,5.4l1.7,6.7C748.2,251.3,755.6,259.7,758.4,258.4z"/>
				</g>
				<g>
					<path class="st14" d="M753,223.1L753,223.1c0.9-2.1-1.9-4.1-3.7-5.1l-9.8-6.7c-1.8-1-4.7-1.1-5.6,1l-0.3,0.6
						c-0.9,2.1,0.8,4.9,2.6,5.9l9.7,12.4C747.6,232.2,752,225.2,753,223.1z"/>
					<path class="st14" d="M740,213.5L740,213.5c-1.1-2.3-3.3-3.6-4.9-2.8l-10.4,4.9c-1.6,0.7-3,3-1.9,5.3l0.3,0.7
						c1.1,2.3,4.1,3,5.7,2.3l10.4-4.9C740.8,218.3,741.2,215.8,740,213.5z"/>
					<path class="st14" d="M726.6,217l-0.1-2.2c-2.4,0.5-4.3,2.4-4.5,3.7l-0.9,8.3c-0.1,1.3-0.6,3.1,1.8,3.5l0.7,0.2
						c2.4,0.5,4.8-3.5,5-4.7l2.1-5.6C730.8,218.8,729,217.4,726.6,217z"/>
					<path class="st14" d="M760.3,253.1l3.5-2.9c2.8-1.3,13.6-11.5,12.6-13.5l-24.3-15.9c-1-2-6.4-4.3-9.2-3l4.4,3.3
						c-2.8,1.3-3.3,3.4-2.4,5.4l1.7,6.7C757.1,254.2,757.7,256,760.3,253.1z"/>
				</g>
			</g>
			<path class="st65" d="M774,284.3c18.4,40.1,31.1,34.5,46.8,40.1c7.1,3.1,12.2-11.5,9.8-19.8c-5.2-13.1-13.1-29.9-21.2-41.8
				c-1.6-1.9-4.6-3.2-6.7-4.1c-9.6-2.9-29.3,8.9-29.7,19.8C772.9,281.2,772.9,281.7,774,284.3z"/>
			<path class="st13" d="M776.2,288.7c0.7,2.1,3.6,8.5,4.6,10.4c4.1,7.4,4.7,5.9,8.3,10.7c0.3,0.4-9.9,27.9-9.9,27.9
				s15-25.6,19.1-26.1C786.3,303.8,777.2,289.3,776.2,288.7z"/>
			<path class="st13" d="M798.9,258.7c-1.8-2.9-12-12.1-13.1-12.6c-2.7,7-11.2,20.3-20.4,24.4c3.2,2.8,11.2,9.5,12.7,10.1
				C786.8,275.3,793.9,267,798.9,258.7z"/>
		</g>
	</g>
	<g>
		<g>
			<path class="st153" d="M757.5,284.6c3.3-1.2,6.1-3.6,9-5.4c2.7-1.7,6.2-3,8-5.7c0.5-0.8-0.2-1.8-1.1-1.9
				c-3.4-0.1-6.7,2.6-9.4,4.4c-2.8,1.9-5.9,4-7.8,6.9C755.8,283.8,756.6,285,757.5,284.6L757.5,284.6z"/>
		</g>
	</g>
	<g>
		<g>
			<path class="st153" d="M680.8,256.4c0-3.4-0.9-6.7-1.6-10.1c-0.7-3.8-1.3-7.6-2.3-11.3c-0.3-1-1.7-0.8-1.8,0.2
				c-0.4,6.9,1,15.6,5.1,21.3C680.4,256.7,680.8,256.7,680.8,256.4L680.8,256.4z"/>
		</g>
	</g>
	<g>
		<g>
			<path class="st153" d="M660,339.8c8.8,1.8,17.9,1.9,26.3-1.6c1.3-0.5,0.8-2.2-0.6-2c-8.4,1.3-16.5,2-24.9,0.4
				C658.8,336.2,657.9,339.4,660,339.8L660,339.8z"/>
		</g>
	</g>
	<g>
		<g>
			<path class="st153" d="M701.8,391c4-8,6.6-16.8,5.4-25.8c-0.2-1.3-1.9-1.4-2.1,0c-1,8.4-2.4,16.4-6.1,24.1
				C698,391.2,700.8,392.9,701.8,391L701.8,391z"/>
		</g>
	</g>
	<g>
		<g>
			<path class="st153" d="M784.1,384.3c-7.8-3.8-13.9-9.4-20-15.5c-0.9-0.8-2.2,0.2-1.7,1.3c4.4,7.8,12,13.4,20,17.1
				C784.3,388.1,786,385.3,784.1,384.3L784.1,384.3z"/>
		</g>
	</g>
	
		<use xlink:href="#barras"  width="433.6" height="172.4" x="-216.8" y="-86.2" transform="matrix(1 0 0 -1 289.8234 368.5386)" style="overflow:visible;"/>
</g>
</svg>
