<?xml version="1.0" encoding="utf-8"?>
<!-- Generator: Adobe Illustrator 21.1.0, SVG Export Plug-In . SVG Version: 6.00 Build 0)  -->
<svg version="1.1" xmlns="http://www.w3.org/2000/svg" xmlns:xlink="http://www.w3.org/1999/xlink" x="0px" y="0px"
	 viewBox="0 0 841.9 595.3" style="enable-background:new 0 0 841.9 595.3;" xml:space="preserve">
<style type="text/css">
	.st0{fill:#601515;}
	.st1{fill:#3FBA51;}
	.st2{fill:none;stroke:#601515;stroke-width:2;stroke-miterlimit:10;}
	.st3{fill:#F2C85F;}
	.st4{fill:#F2D3AD;}
	.st5{fill:#674C91;}
	.st6{fill:#DCFFC5;}
	.st7{fill:#8BAA77;}
	.st8{clip-path:url(#SVGID_2_);fill:#F1F3F7;}
	.st9{opacity:0.4;clip-path:url(#SVGID_2_);fill:#DCDDE0;}
	.st10{clip-path:url(#SVGID_2_);fill:#0076B7;}
	.st11{clip-path:url(#SVGID_2_);fill:#FFFFFF;}
	.st12{clip-path:url(#SVGID_2_);}
	.st13{fill:#FFFFFF;}
	.st14{fill:#F7CFA2;}
	.st15{fill:#ECB8FF;}
	.st16{fill:#393D47;}
	.st17{fill:#E86767;}
	.st18{opacity:0.1;fill:#3C2813;}
	.st19{fill:#EEEBE7;}
	.st20{fill:#3C2813;}
	.st21{fill:#795ACC;}
	.st22{fill:none;}
	.st23{clip-path:url(#SVGID_6_);fill:#F7EFDF;}
	.st24{fill:#3EBA50;}
	.st25{display:none;opacity:0.3;}
	.st26{fill:#F7EFDF;}
	.st27{fill:#4E9FA8;}
	.st28{fill:none;stroke:#231F20;stroke-width:2;stroke-miterlimit:10;}
	.st29{fill:#231F20;}
	.st30{fill:none;stroke:#674C91;stroke-miterlimit:10;}
	.st31{fill:#601515;stroke:#601515;stroke-miterlimit:10;}
	.st32{fill:none;stroke:#601515;stroke-miterlimit:10;}
	.st33{fill:none;stroke:#FFFFFF;stroke-miterlimit:10;}
	.st34{fill:url(#SVGID_9_);}
	.st35{fill:#601515;stroke:#8C8779;stroke-width:6;stroke-miterlimit:10;}
	.st36{fill:url(#SVGID_10_);}
	.st37{fill:none;stroke:#4E9FA8;stroke-width:12;stroke-miterlimit:10;}
	.st38{fill:#E0EA18;}
	.st39{clip-path:url(#SVGID_12_);fill:#F7EFDF;}
	.st40{fill:url(#SVGID_13_);}
	.st41{fill:url(#SVGID_14_);}
	.st42{fill:#EFEA35;}
	.st43{fill:url(#SVGID_15_);}
	.st44{fill:url(#SVGID_16_);}
	.st45{fill:url(#SVGID_17_);}
	.st46{fill:url(#SVGID_18_);}
	.st47{fill:url(#SVGID_19_);}
	.st48{fill:#C1C1B8;}
	.st49{fill:#9B9B97;}
	.st50{fill:#D8D8D2;}
	.st51{opacity:0.4;}
	.st52{opacity:0.6;}
	.st53{fill:#CEBABA;}
	.st54{fill:#EAEAE5;}
	.st55{fill:url(#SVGID_20_);}
	.st56{fill:url(#SVGID_21_);}
	.st57{fill:url(#SVGID_22_);}
	.st58{fill:url(#SVGID_23_);}
	.st59{fill:url(#SVGID_24_);}
	.st60{fill:url(#SVGID_25_);}
	.st61{fill:url(#SVGID_26_);}
	.st62{fill:url(#SVGID_27_);}
	.st63{fill:url(#SVGID_28_);}
	.st64{fill:#6BA8B2;}
	.st65{fill:#F1F3F7;}
	.st66{fill:#F0BA7A;}
	.st67{opacity:0.4;fill:#DCDDE0;}
	.st68{fill:#0076B7;}
	.st69{opacity:0.3;}
	.st70{fill:#DCDDE0;}
	.st71{fill:#004868;}
	.st72{opacity:0.1;fill:#601515;}
	.st73{fill:#F9F9F9;}
	.st74{fill:#24272D;}
	.st75{fill:#EA6D50;}
	.st76{clip-path:url(#SVGID_30_);fill:#F0BA7A;}
	.st77{clip-path:url(#SVGID_30_);fill:#F1F3F7;}
	.st78{opacity:0.4;clip-path:url(#SVGID_30_);fill:#DCDDE0;}
	.st79{clip-path:url(#SVGID_30_);fill:#0076B7;}
	.st80{clip-path:url(#SVGID_30_);fill:#FFFFFF;}
	.st81{clip-path:url(#SVGID_30_);}
	.st82{opacity:0.3;fill:#601515;}
	.st83{fill:#5B1010;}
	.st84{font-family:'ElegantLux-Mager';}
	.st85{font-size:26px;}
	.st86{font-family:'Bungee-Regular';}
	.st87{font-size:22px;}
	.st88{clip-path:url(#SVGID_32_);fill:#F1F3F7;}
	.st89{clip-path:url(#SVGID_32_);fill:#F0BA7A;}
	.st90{opacity:0.4;clip-path:url(#SVGID_32_);fill:#DCDDE0;}
	.st91{clip-path:url(#SVGID_32_);fill:#0076B7;}
	.st92{clip-path:url(#SVGID_32_);fill:#FFFFFF;}
	.st93{clip-path:url(#SVGID_32_);}
	.st94{fill:#1F74C9;}
	.st95{fill:#595959;}
	.st96{opacity:0.1;fill:#8BAA77;}
	.st97{opacity:0.3;fill:#8BAA77;}
	.st98{opacity:0.1;fill:#595959;}
	.st99{opacity:0.3;fill:#595959;}
	.st100{fill:#9E921E;}
	.st101{clip-path:url(#SVGID_34_);fill:#F0BA7A;}
	.st102{clip-path:url(#SVGID_34_);fill:#F1F3F7;}
	.st103{clip-path:url(#SVGID_34_);}
	.st104{clip-path:url(#SVGID_34_);fill:#393D47;}
	.st105{clip-path:url(#SVGID_34_);fill:#FFFFFF;}
	.st106{opacity:0.4;clip-path:url(#SVGID_34_);fill:#DCDDE0;}
	.st107{clip-path:url(#SVGID_34_);fill:#0076B7;}
	.st108{fill:#B72C34;}
	.st109{clip-path:url(#SVGID_36_);fill:#F1F3F7;}
	.st110{clip-path:url(#SVGID_36_);}
	.st111{clip-path:url(#SVGID_38_);fill:#F1F3F7;}
	.st112{opacity:0.4;clip-path:url(#SVGID_38_);fill:#DCDDE0;}
	.st113{clip-path:url(#SVGID_38_);fill:#0076B7;}
	.st114{clip-path:url(#SVGID_38_);fill:#FFFFFF;}
	.st115{clip-path:url(#SVGID_38_);}
	.st116{fill:url(#SVGID_39_);}
	.st117{fill:url(#SVGID_40_);}
	.st118{fill:url(#SVGID_41_);}
	.st119{fill:url(#SVGID_42_);}
	.st120{fill:#A52323;}
	.st121{clip-path:url(#SVGID_44_);fill:#F1F3F7;}
	.st122{opacity:0.4;clip-path:url(#SVGID_44_);fill:#DCDDE0;}
	.st123{clip-path:url(#SVGID_44_);fill:#0076B7;}
	.st124{clip-path:url(#SVGID_44_);fill:#FFFFFF;}
	.st125{clip-path:url(#SVGID_44_);}
	.st126{fill:#023142;}
	.st127{clip-path:url(#SVGID_46_);fill:#F7CFA2;}
	.st128{clip-path:url(#SVGID_46_);}
	.st129{opacity:0.3;fill:#E57257;}
	.st130{opacity:0.2;}
	.st131{fill:#656D60;}
	.st132{clip-path:url(#SVGID_48_);fill:#F0BA7A;}
	.st133{clip-path:url(#SVGID_48_);fill:#F1F3F7;}
	.st134{opacity:0.4;clip-path:url(#SVGID_48_);fill:#DCDDE0;}
	.st135{clip-path:url(#SVGID_48_);fill:#0076B7;}
	.st136{clip-path:url(#SVGID_48_);fill:#FFFFFF;}
	.st137{clip-path:url(#SVGID_48_);}
	.st138{clip-path:url(#SVGID_50_);fill:#F1F3F7;}
	.st139{opacity:0.4;clip-path:url(#SVGID_50_);fill:#DCDDE0;}
	.st140{clip-path:url(#SVGID_50_);fill:#0076B7;}
	.st141{clip-path:url(#SVGID_50_);fill:#FFFFFF;}
	.st142{clip-path:url(#SVGID_50_);}
	.st143{clip-path:url(#SVGID_52_);fill:#F1F3F7;}
	.st144{opacity:0.4;clip-path:url(#SVGID_52_);fill:#DCDDE0;}
	.st145{clip-path:url(#SVGID_52_);fill:#0076B7;}
	.st146{clip-path:url(#SVGID_52_);fill:#FFFFFF;}
	.st147{clip-path:url(#SVGID_52_);}
	.st148{fill:#9E9E9E;}
	.st149{fill:#878787;}
	.st150{fill:url(#SVGID_53_);}
	.st151{fill:#CE6117;}
	.st152{fill:url(#SVGID_54_);}
	.st153{fill:#EFE91B;}
	.st154{clip-path:url(#SVGID_56_);fill:#F0BA7A;}
	.st155{clip-path:url(#SVGID_56_);fill:#F1F3F7;}
	.st156{opacity:0.4;clip-path:url(#SVGID_56_);fill:#DCDDE0;}
	.st157{clip-path:url(#SVGID_56_);fill:#0076B7;}
	.st158{clip-path:url(#SVGID_56_);fill:#FFFFFF;}
	.st159{clip-path:url(#SVGID_56_);}
	.st160{fill:#B27E49;}
	.st161{clip-path:url(#SVGID_58_);fill:#F1F3F7;}
	.st162{opacity:0.4;clip-path:url(#SVGID_58_);fill:#DCDDE0;}
	.st163{clip-path:url(#SVGID_58_);fill:#0076B7;}
	.st164{clip-path:url(#SVGID_58_);fill:#FFFFFF;}
	.st165{clip-path:url(#SVGID_58_);}
	.st166{fill:#8454D1;}
	.st167{clip-path:url(#SVGID_60_);fill:#393D47;}
	.st168{clip-path:url(#SVGID_60_);fill:#F0BA7A;}
	.st169{clip-path:url(#SVGID_60_);fill:#F1F3F7;}
	.st170{clip-path:url(#SVGID_60_);fill:#0076B7;}
	.st171{clip-path:url(#SVGID_60_);fill:#004868;}
	.st172{opacity:0.4;clip-path:url(#SVGID_60_);fill:#DCDDE0;}
	.st173{clip-path:url(#SVGID_60_);fill:#FFFFFF;}
	.st174{clip-path:url(#SVGID_60_);}
	.st175{fill:none;stroke:#EA6D50;stroke-width:2;stroke-miterlimit:10;}
	.st176{fill:url(#SVGID_61_);}
	.st177{fill:#777777;}
	.st178{fill:#A85848;}
	.st179{fill:#E85646;}
	.st180{fill:#EA4E39;}
	.st181{clip-path:url(#SVGID_63_);fill:#F1F3F7;}
	.st182{clip-path:url(#SVGID_63_);}
	.st183{fill:#B23C18;}
	.st184{fill:#6B2A05;}
	.st185{fill:#B23C18;stroke:#6B2A05;stroke-miterlimit:10;}
	.st186{fill:#DDAA78;}
	.st187{fill:#211205;}
	.st188{fill:none;stroke:#6B2A05;stroke-width:0.729;stroke-miterlimit:10;}
	.st189{fill:#B23C18;stroke:#6B2A05;stroke-width:0.729;stroke-miterlimit:10;}
	.st190{fill:#BBE8F2;}
	.st191{opacity:0.3;fill:#F2F8F9;}
	.st192{opacity:0.2;fill:#601515;}
	.st193{fill:#FFFF00;}
	.st194{fill:#594EEA;}
	.st195{fill:#FF0B0B;}
	.st196{fill:none;stroke:#3FBA51;stroke-width:8;stroke-miterlimit:10;}
	.st197{fill:none;stroke:#3FBA51;stroke-width:7.2;stroke-miterlimit:10;}
	.st198{fill:none;stroke:#3FBA51;stroke-width:7.2;stroke-linecap:round;stroke-miterlimit:10;}
	.st199{fill:none;stroke:#3FBA51;stroke-width:8;stroke-linecap:round;stroke-miterlimit:10;}
	.st200{fill:none;stroke:#3FBA51;stroke-width:5.1175;stroke-miterlimit:10;}
	.st201{fill:#4F5565;}
	.st202{fill:#D64E3C;}
	.st203{fill:#F7A500;}
	.st204{fill:#FBD303;}
	.st205{fill:#FCFCFD;}
	.st206{fill:#F8B517;}
	.st207{fill:#F0582F;}
	.st208{fill:#BAE8F2;}
	.st209{fill:#F7EA72;}
	.st210{clip-path:url(#SVGID_65_);fill:#F7EFDF;}
	.st211{fill:none;stroke:#3FBA51;stroke-width:6.4304;stroke-miterlimit:10;}
	.st212{fill:url(#SVGID_66_);}
	.st213{fill:url(#SVGID_67_);}
	.st214{fill:url(#SVGID_68_);}
	.st215{fill:url(#SVGID_69_);}
	.st216{fill:url(#SVGID_70_);}
	.st217{fill:url(#SVGID_71_);}
	.st218{fill:url(#SVGID_72_);}
	.st219{fill:url(#SVGID_73_);}
	.st220{fill:url(#SVGID_74_);}
	.st221{fill:url(#SVGID_75_);}
	.st222{fill:url(#SVGID_76_);}
	.st223{fill:url(#SVGID_77_);}
	.st224{fill:url(#SVGID_78_);}
	.st225{fill:url(#SVGID_79_);}
	.st226{fill:url(#SVGID_80_);}
	.st227{fill:url(#SVGID_81_);}
	.st228{fill:url(#SVGID_82_);}
	.st229{fill:url(#SVGID_83_);}
	.st230{fill:url(#SVGID_84_);}
	.st231{fill:url(#SVGID_85_);}
	.st232{fill:url(#SVGID_86_);}
	.st233{fill:url(#SVGID_87_);}
	.st234{fill:url(#SVGID_88_);}
	.st235{fill:url(#SVGID_89_);}
	.st236{fill:url(#SVGID_90_);}
	.st237{fill:url(#SVGID_91_);}
	.st238{fill:url(#SVGID_92_);}
	.st239{fill:url(#SVGID_93_);}
	.st240{fill:url(#SVGID_94_);}
	.st241{fill:url(#SVGID_95_);}
	.st242{fill:url(#SVGID_96_);}
	.st243{fill:url(#SVGID_97_);}
	.st244{fill:url(#SVGID_98_);}
	.st245{fill:url(#SVGID_99_);}
	.st246{fill:url(#SVGID_100_);}
	.st247{fill:url(#SVGID_101_);}
	.st248{opacity:0.7;fill:#7BCDDB;}
	.st249{fill:none;stroke:#F0BA7A;stroke-width:3;stroke-miterlimit:10;}
	.st250{fill:url(#SVGID_102_);}
	.st251{fill:url(#SVGID_103_);}
	.st252{fill:url(#SVGID_104_);}
	.st253{fill:url(#SVGID_105_);}
	.st254{fill:url(#SVGID_106_);}
	.st255{fill:url(#SVGID_107_);}
	.st256{fill:url(#SVGID_108_);}
	.st257{opacity:0.5;fill:#302929;}
	.st258{fill:#EF3F50;}
	.st259{fill:url(#SVGID_109_);}
	.st260{fill:url(#SVGID_110_);}
	.st261{fill:url(#SVGID_111_);}
	.st262{fill:url(#SVGID_112_);}
	.st263{opacity:0.6;fill:#302929;}
	.st264{fill:url(#SVGID_113_);}
	.st265{fill:url(#SVGID_114_);}
	.st266{fill:url(#SVGID_115_);}
	.st267{fill:url(#SVGID_116_);}
	.st268{fill:url(#SVGID_117_);}
	.st269{fill:url(#SVGID_118_);}
	.st270{fill:url(#SVGID_119_);}
	.st271{fill:url(#SVGID_120_);}
	.st272{fill:url(#SVGID_121_);}
	.st273{fill:url(#SVGID_122_);}
	.st274{fill:url(#SVGID_123_);}
	.st275{fill:url(#SVGID_124_);}
	.st276{fill:url(#SVGID_125_);}
	.st277{fill:url(#SVGID_126_);}
	.st278{fill:url(#SVGID_127_);}
	.st279{fill:url(#SVGID_128_);}
	.st280{fill:url(#SVGID_129_);}
	.st281{fill:url(#SVGID_130_);}
	.st282{fill:url(#SVGID_131_);}
	.st283{fill:url(#SVGID_132_);}
	.st284{fill:url(#SVGID_133_);}
	.st285{fill:url(#SVGID_134_);}
	.st286{fill:url(#SVGID_135_);}
	.st287{fill:url(#SVGID_136_);}
	.st288{fill:url(#SVGID_137_);}
	.st289{fill:url(#SVGID_138_);}
	.st290{fill:url(#SVGID_139_);}
	.st291{fill:url(#SVGID_140_);}
	.st292{fill:url(#SVGID_141_);}
	.st293{fill:url(#SVGID_142_);}
	.st294{fill:url(#SVGID_143_);}
	.st295{fill:url(#SVGID_144_);}
	.st296{fill:url(#SVGID_145_);}
	.st297{fill:url(#SVGID_146_);}
	.st298{fill:url(#SVGID_147_);}
	.st299{fill:url(#SVGID_148_);}
	.st300{fill:url(#SVGID_149_);}
	.st301{fill:url(#SVGID_150_);}
	.st302{fill:url(#SVGID_151_);}
	.st303{fill:url(#SVGID_152_);}
	.st304{fill:url(#SVGID_153_);}
	.st305{fill:url(#SVGID_154_);}
	.st306{fill:url(#SVGID_155_);}
	.st307{fill:url(#SVGID_156_);}
	.st308{fill:url(#SVGID_157_);}
	.st309{fill:url(#SVGID_158_);}
	.st310{fill:url(#SVGID_159_);}
	.st311{fill:url(#SVGID_160_);}
	.st312{fill:url(#SVGID_161_);}
	.st313{fill:url(#SVGID_162_);}
	.st314{fill:url(#SVGID_163_);}
	.st315{fill:url(#SVGID_164_);}
	.st316{fill:url(#SVGID_165_);}
	.st317{fill:url(#SVGID_166_);}
	.st318{fill:url(#SVGID_167_);}
	.st319{fill:url(#SVGID_168_);}
	.st320{fill:url(#SVGID_169_);}
	.st321{fill:url(#SVGID_170_);}
	.st322{fill:url(#SVGID_171_);}
	.st323{fill:url(#SVGID_172_);}
	.st324{fill:url(#SVGID_173_);}
	.st325{fill:url(#SVGID_174_);}
	.st326{fill:url(#SVGID_175_);}
	.st327{fill:url(#SVGID_176_);}
	.st328{fill:url(#SVGID_177_);}
	.st329{fill:url(#SVGID_178_);}
	.st330{fill:url(#SVGID_179_);}
	.st331{fill:url(#SVGID_180_);}
	.st332{fill:url(#SVGID_181_);}
	.st333{fill:url(#SVGID_182_);}
	.st334{fill:url(#SVGID_183_);}
	.st335{fill:url(#SVGID_184_);}
	.st336{fill:url(#SVGID_185_);}
	.st337{fill:url(#SVGID_186_);}
	.st338{fill:url(#SVGID_187_);}
	.st339{fill:url(#SVGID_188_);}
	.st340{fill:url(#SVGID_189_);}
	.st341{fill:url(#SVGID_190_);}
	.st342{fill:url(#SVGID_191_);}
	.st343{fill:url(#SVGID_192_);}
	.st344{fill:url(#SVGID_193_);}
	.st345{fill:url(#SVGID_194_);}
	.st346{fill:url(#SVGID_195_);}
	.st347{fill:url(#SVGID_196_);}
	.st348{fill:url(#SVGID_197_);}
	.st349{fill:url(#SVGID_198_);}
	.st350{fill:url(#SVGID_199_);}
	.st351{fill:url(#SVGID_200_);}
	.st352{fill:url(#SVGID_201_);}
	.st353{fill:url(#SVGID_202_);}
	.st354{fill:url(#SVGID_203_);}
	.st355{fill:url(#SVGID_204_);}
	.st356{fill:url(#SVGID_205_);}
	.st357{fill:url(#SVGID_206_);}
	.st358{fill:url(#SVGID_207_);}
	.st359{fill:url(#SVGID_208_);}
	.st360{fill:url(#SVGID_209_);}
	.st361{fill:url(#SVGID_210_);}
	.st362{fill:url(#SVGID_211_);}
	.st363{fill:url(#SVGID_212_);}
	.st364{fill:url(#SVGID_213_);}
	.st365{fill:url(#SVGID_214_);}
	.st366{fill:url(#SVGID_215_);}
	.st367{fill:url(#SVGID_216_);}
	.st368{fill:url(#SVGID_217_);}
	.st369{fill:url(#SVGID_218_);}
	.st370{fill:url(#SVGID_219_);}
	.st371{fill:url(#SVGID_220_);}
	.st372{fill:url(#SVGID_221_);}
	.st373{fill:url(#SVGID_222_);}
	.st374{fill:url(#SVGID_223_);}
	.st375{fill:url(#SVGID_224_);}
	.st376{fill:url(#SVGID_225_);}
	.st377{fill:url(#SVGID_226_);}
	.st378{fill:url(#SVGID_227_);}
	.st379{fill:url(#SVGID_228_);}
	.st380{fill:url(#SVGID_229_);}
	.st381{fill:url(#SVGID_230_);}
	.st382{fill:url(#SVGID_231_);}
	.st383{fill:url(#SVGID_232_);}
	.st384{fill:url(#SVGID_233_);}
	.st385{fill:url(#SVGID_234_);}
	.st386{fill:url(#SVGID_235_);}
	.st387{fill:url(#SVGID_236_);}
	.st388{fill:url(#SVGID_237_);}
	.st389{fill:url(#SVGID_238_);}
	.st390{fill:url(#SVGID_239_);}
	.st391{fill:none;stroke:#9B9B97;stroke-miterlimit:10;}
	.st392{fill:url(#SVGID_240_);}
	.st393{fill:url(#SVGID_241_);}
	.st394{fill:url(#SVGID_242_);}
	.st395{fill:url(#SVGID_243_);}
	.st396{fill:url(#SVGID_244_);}
	.st397{fill:url(#SVGID_245_);}
	.st398{fill:url(#SVGID_246_);}
	.st399{fill:url(#SVGID_247_);}
	.st400{fill:url(#SVGID_248_);}
	.st401{fill:url(#SVGID_249_);}
	.st402{fill:url(#SVGID_250_);}
	.st403{fill:url(#SVGID_251_);}
	.st404{fill:url(#SVGID_252_);}
	.st405{fill:url(#SVGID_253_);}
	.st406{fill:url(#SVGID_254_);}
	.st407{fill:url(#SVGID_255_);}
	.st408{fill:url(#SVGID_256_);}
	.st409{fill:url(#SVGID_257_);}
	.st410{fill:url(#SVGID_258_);}
	.st411{fill:url(#SVGID_259_);}
	.st412{fill:url(#SVGID_260_);}
	.st413{fill:url(#SVGID_261_);}
	.st414{fill:url(#SVGID_262_);}
	.st415{fill:url(#SVGID_263_);}
	.st416{fill:url(#SVGID_264_);}
	.st417{fill:url(#SVGID_265_);}
	.st418{fill:url(#SVGID_266_);}
	.st419{fill:url(#SVGID_267_);}
	.st420{fill:url(#SVGID_268_);}
	.st421{fill:url(#SVGID_269_);}
	.st422{fill:url(#SVGID_270_);}
	.st423{fill:url(#SVGID_271_);}
	.st424{fill:url(#SVGID_272_);}
	.st425{fill:url(#SVGID_273_);}
	.st426{fill:url(#SVGID_274_);}
	.st427{fill:url(#SVGID_275_);}
	.st428{fill:url(#SVGID_276_);}
	.st429{fill:url(#SVGID_277_);}
	.st430{fill:url(#SVGID_278_);}
	.st431{fill:url(#SVGID_279_);}
	.st432{fill:url(#SVGID_280_);}
	.st433{fill:url(#SVGID_281_);}
	.st434{fill:url(#SVGID_282_);}
	.st435{fill:url(#SVGID_283_);}
	.st436{fill:url(#SVGID_284_);}
	.st437{fill:url(#SVGID_285_);}
	.st438{fill:url(#SVGID_286_);}
	.st439{fill:url(#SVGID_287_);}
	.st440{fill:url(#SVGID_288_);}
	.st441{fill:url(#SVGID_289_);}
	.st442{fill:url(#SVGID_290_);}
	.st443{fill:url(#SVGID_291_);}
	.st444{fill:url(#SVGID_292_);}
	.st445{fill:url(#SVGID_293_);}
	.st446{fill:url(#SVGID_294_);}
	.st447{fill:url(#SVGID_295_);}
	.st448{fill:url(#SVGID_296_);}
	.st449{fill:url(#SVGID_297_);}
	.st450{fill:url(#SVGID_298_);}
	.st451{fill:url(#SVGID_299_);}
	.st452{fill:url(#SVGID_300_);}
	.st453{fill:url(#SVGID_301_);}
	.st454{fill:url(#SVGID_302_);}
	.st455{fill:url(#SVGID_303_);}
	.st456{fill:url(#SVGID_304_);}
	.st457{fill:url(#SVGID_305_);}
	.st458{fill:url(#SVGID_306_);}
	.st459{fill:url(#SVGID_307_);}
	.st460{fill:url(#SVGID_308_);}
	.st461{fill:url(#SVGID_309_);}
	.st462{fill:url(#SVGID_310_);}
	.st463{fill:url(#SVGID_311_);}
	.st464{fill:url(#SVGID_312_);}
	.st465{fill:url(#SVGID_313_);}
	.st466{fill:url(#SVGID_314_);}
	.st467{fill:url(#SVGID_315_);}
	.st468{fill:url(#SVGID_316_);}
	.st469{fill:url(#SVGID_317_);}
	.st470{fill:url(#SVGID_318_);}
	.st471{fill:url(#SVGID_319_);}
	.st472{fill:url(#SVGID_320_);}
	.st473{fill:url(#SVGID_321_);}
	.st474{fill:url(#SVGID_322_);}
	.st475{fill:url(#SVGID_323_);}
	.st476{fill:url(#SVGID_324_);}
	.st477{fill:url(#SVGID_325_);}
	.st478{fill:url(#SVGID_326_);}
	.st479{fill:url(#SVGID_327_);}
	.st480{fill:url(#SVGID_328_);}
	.st481{fill:url(#SVGID_329_);}
	.st482{fill:url(#SVGID_330_);}
	.st483{fill:url(#SVGID_331_);}
	.st484{fill:url(#SVGID_332_);}
	.st485{fill:url(#SVGID_333_);}
	.st486{fill:url(#SVGID_334_);}
	.st487{fill:url(#SVGID_335_);}
	.st488{fill:url(#SVGID_336_);}
	.st489{fill:url(#SVGID_337_);}
	.st490{fill:url(#SVGID_338_);}
	.st491{fill:url(#SVGID_339_);}
	.st492{fill:url(#SVGID_340_);}
	.st493{fill:url(#SVGID_341_);}
	.st494{fill:url(#SVGID_342_);}
	.st495{fill:url(#SVGID_343_);}
	.st496{fill:url(#SVGID_344_);}
	.st497{fill:url(#SVGID_345_);}
	.st498{fill:url(#SVGID_346_);}
	.st499{fill:url(#SVGID_347_);}
	.st500{fill:url(#SVGID_348_);}
	.st501{fill:url(#SVGID_349_);}
	.st502{fill:url(#SVGID_350_);}
	.st503{fill:url(#SVGID_351_);}
	.st504{fill:url(#SVGID_352_);}
	.st505{fill:url(#SVGID_353_);}
	.st506{fill:url(#SVGID_354_);}
	.st507{fill:url(#SVGID_355_);}
	.st508{fill:url(#SVGID_356_);}
	.st509{fill:url(#SVGID_357_);}
	.st510{fill:url(#SVGID_358_);}
	.st511{fill:url(#SVGID_359_);}
	.st512{fill:url(#SVGID_360_);}
	.st513{fill:url(#SVGID_361_);}
	.st514{fill:url(#SVGID_362_);}
	.st515{fill:url(#SVGID_363_);}
	.st516{fill:url(#SVGID_364_);}
	.st517{fill:url(#SVGID_365_);}
	.st518{fill:url(#SVGID_366_);}
	.st519{fill:url(#SVGID_367_);}
	.st520{fill:url(#SVGID_368_);}
	.st521{fill:url(#SVGID_369_);}
	.st522{fill:url(#SVGID_370_);}
	.st523{fill:url(#SVGID_371_);}
	.st524{fill:url(#SVGID_372_);}
	.st525{fill:url(#SVGID_373_);}
	.st526{fill:url(#SVGID_374_);}
	.st527{fill:url(#SVGID_375_);}
	.st528{fill:url(#SVGID_376_);}
	.st529{fill:url(#SVGID_377_);}
	.st530{clip-path:url(#SVGID_379_);}
	.st531{clip-path:url(#SVGID_381_);}
	.st532{fill:#F4F0A6;}
	.st533{clip-path:url(#SVGID_383_);}
	.st534{opacity:0.6;fill:none;stroke:#F7CFA2;stroke-miterlimit:10;}
	.st535{fill:none;stroke:#F7CFA2;stroke-miterlimit:10;}
	.st536{fill:#EAA56C;}
	.st537{clip-path:url(#SVGID_385_);fill:#F7EFDF;}
</style>
<symbol  id="barras" viewBox="-216.8 -86.2 433.6 172.4">
	<g>
		<rect x="113.2" y="-86.2" class="st22" width="103.6" height="30.9"/>
		<text transform="matrix(1 0 0 -1 126.502 -65.4814)" class="st0 st84" style="font-size:15.36px;">Casi Siempre</text>
	</g>
	<rect x="-105.9" y="-35" class="st1" width="87" height="28.2"/>
	<rect x="-215.8" y="-35.3" class="st1" width="87" height="8.8"/>
	<rect x="7.8" y="-35" class="st1" width="87" height="61.7"/>
	<rect x="121.5" y="-35" class="st1" width="87" height="120.1"/>
	<g>
		<rect x="-101.5" y="-73.4" class="st22" width="78" height="18.1"/>
		<text transform="matrix(1 0 0 -1 -95.3037 -65.4814)" class="st0 st84" style="font-size:15.36px;">Casi nunca</text>
	</g>
	<rect x="-105.9" y="-35" class="st2" width="87" height="28.2"/>
	<g>
		<rect x="-192.1" y="-86.2" class="st22" width="39.6" height="30.9"/>
		<text transform="matrix(1 0 0 -1 -191.6748 -65.4814)" class="st0 st84" style="font-size:15.36px;">Nunca</text>
	</g>
	<rect x="-215.8" y="-35.3" class="st2" width="87" height="8.8"/>
	<g>
		<rect x="-3.7" y="-86.2" class="st22" width="110" height="30.9"/>
		<text transform="matrix(1 0 0 -1 9.9785 -65.4795)" class="st0 st84" style="font-size:15.36px;">Algunas veces</text>
	</g>
	<rect x="7.8" y="-35" class="st2" width="87" height="61.7"/>
	<rect x="121.5" y="-35" class="st2" width="87" height="120.1"/>
</symbol>
<g id="Layer_1">
	<circle class="st6" cx="687.4" cy="363.9" r="99.7"/>
	<g>
		<path class="st14" d="M739.9,110.2c0.3,0,0.5-0.1,0.8-0.1C740.4,110.1,740.2,110.2,739.9,110.2z"/>
	</g>
	<g>
		<path class="st14" d="M739.2,110.3c0.2,0,0.4-0.1,0.7-0.1C739.7,110.2,739.4,110.3,739.2,110.3z"/>
	</g>
	<path class="st21" d="M734.1,99.2H621.9c-3.2,0-5.8-2.6-5.8-5.8V65.6c0-3.2,2.6-5.8,5.8-5.8h112.3c3.2,0,5.8,2.6,5.8,5.8v27.7
		C740,96.5,737.3,99.2,734.1,99.2z"/>
	<rect x="637.8" y="70" class="st22" width="81.9" height="28.3"/>
	<text transform="matrix(1 0 0 1 656.7838 87.3309)" class="st13 st84 st85">Listo</text>
	<rect x="32.2" y="72.9" class="st22" width="391.9" height="48.3"/>
	<text transform="matrix(1 0 0 1 32.1862 90.2049)" class="st0 st84 st85">Instrucciones</text>
	<rect x="32.2" y="72.9" class="st22" width="391.9" height="48.3"/>
	<text transform="matrix(1 0 0 1 32.1862 90.2049)" class="st0 st84 st85">Instrucciones</text>
	<rect x="34.9" y="28.9" class="st22" width="391.9" height="48.3"/>
	<text transform="matrix(1 0 0 1 34.8917 47.6346)" class="st0 st86 st85">HOla, Kaira POlet ARAYA</text>
	<polyline class="st22" points="684.1,16.9 681.7,65.2 292.2,65.2 	"/>
	<rect x="31.4" y="116.4" class="st22" width="541.9" height="88.3"/>
	<text transform="matrix(1 0 0 1 31.4305 131.0448)" class="st0 st84 st87">He molestado y/o fastidiado a compañeros/as solo por diversión:</text>
	<path class="st13" d="M797.5,268.2c-7,6-12,16-21,22v-1c-2,5-8,5-11,8c-2,3,7,3,3,7c18.8-6.7,32.2-21.6,40.5-39.1
		c-0.8-2.1-2-4-3.8-5.9c-1.9-2-4-5.1-6.1-7C800.2,258.5,800.5,264.5,797.5,268.2z"/>
	<g>
		<defs>
			<path id="SVGID_31_" d="M787.1,363.9c0,55.1-44.7,99.7-99.7,99.7s-99.7-44.7-99.7-99.7c0-55.1-18.2-171.1,112.2-162.6
				C754.8,204.9,787.1,308.8,787.1,363.9z"/>
		</defs>
		<clipPath id="SVGID_2_">
			<use xlink:href="#SVGID_31_"  style="overflow:visible;"/>
		</clipPath>
		<path class="st8" d="M737.5,408.6c-0.3-3.3-0.6-6.3-1.1-9c-0.5-2.7-1.1-5.2-2-7.4c-1.1-1.4-2.4-2.8-3.7-4
			c-1.9-1.6-3.8-3.1-5.8-4.4c-2-1.4-4-2.6-6.1-3.8c-12.2-6.5-26.2-9.8-39.9-9.2c-3.4,0.1-6.8,0.5-10.2,1.2
			c-19.6,4.1-56.6,3.1-53.6,31.1c2,11,7,21,12.8,29.7c0.5,2.9,0.8,6.3,1.2,10.1c2.6,26.5,6.9,70.7,6.9,70.7
			c0.6,5.7,2.4,10.9,5.2,15.4c33.8-2.5,67.8-7.8,101.7-11.6c2.8-6.1,4-12.8,3.4-19.7L737.5,408.6z"/>
		<path style="clip-path:url(#SVGID_2_);fill:#F0BA7A;" d="M696.5,370.8c-1.7-11,2.2-23.2-4.8-32.7c-1.7-2.3-3.5-3.6-6.5-4
			c-16.8-2.6-23,17.7-24.4,30.8c-0.2,2.3-0.2,4.5-0.1,6.5c0,0.4,0,0.9,0,1.3C672.6,375.9,685.1,376,696.5,370.8z"/>
		<path class="st8" d="M717.9,383.5l-3.7,1.7c-6.2,2.4-4.7,16.2,3.3,30.6l14,29.2l14.9,34.3c4.4,7.9,7.3,14.5,11.6,17.2
			c3.6,2.2,8.9,2,11.7,1l9.1-3.5c2.3-0.9,5.8-3.5,6.5-6.2c1.1-4.6-2.3-10.9-7.3-19.9c0,0-23.7-46.1-18.1-34.4s-9.5-18.9-18.7-34.3
			C732.2,383.8,724.1,381.1,717.9,383.5z"/>
		<polygon class="st9" points="677.2,409.4 678.2,374.5 693,382 		"/>
		<polygon class="st9" points="677.2,409.4 678.2,374.5 663,381.1 		"/>
		<polygon class="st10" points="689,380.5 677.9,374.7 668.7,381.3 674.3,390.5 682,390.9 		"/>
		<polygon class="st10" points="700,466.9 688.8,482.1 673,471.2 674.3,390.5 682.2,391.1 		"/>
		<polygon class="st11" points="678.2,374.5 678.2,375.2 692.3,388.1 699,375.3 696.2,369.6 		"/>
		<polygon class="st11" points="678.5,374.5 678.4,375.2 662.5,388.1 656.2,374 659.5,368.1 		"/>
		<g class="st12">
			<polygon class="st13" points="699.7,442.7 712.9,447.9 725.2,440.2 723.3,421.2 697.8,423.7 			"/>
			
				<rect x="697.3" y="414.4" transform="matrix(0.9952 -9.756288e-02 9.756288e-02 0.9952 -37.3361 71.267)" class="st13" width="25.6" height="6"/>
		</g>
		<g class="st12">
			<path class="st14" d="M594.4,352.8c0,0.3,0,0.5,0,0.8C594.4,353.4,594.4,353.1,594.4,352.8z"/>
		</g>
	</g>
	<g>
		<path class="st14" d="M594.4,352.1c0,0.2,0,0.5,0,0.7C594.4,352.6,594.4,352.3,594.4,352.1z"/>
	</g>
	<g>
		<g>
			<path class="st14" d="M721.7,301.9c0.3,0,0.5,0,0.8-0.1C722.2,301.9,722,301.9,721.7,301.9z"/>
		</g>
		<g>
			<path class="st14" d="M721,301.9c0.2,0,0.5,0,0.7,0C721.4,301.9,721.2,301.9,721,301.9z"/>
		</g>
		<g>
			<path class="st14" d="M718.6,303.1c-0.5,0.7-1.3,2.3-1,3.2l4.9-4.5c-0.3,0-0.5,0-0.8,0.1c-0.2,0-0.4,0-0.7,0
				C720,302,719.2,302.2,718.6,303.1z"/>
		</g>
		<path class="st66" d="M668.6,325.1l-9.4-1c-9.2-1-16-9.3-15.1-18.5l2.9-28.4c1-9.2,9.3-16,18.5-15.1l9.4,1c9.2,1,16,9.3,15.1,18.5
			l-2.9,28.4C686.1,319.3,677.8,326.1,668.6,325.1z"/>
		
			<ellipse transform="matrix(0.1028 -0.9947 0.9947 0.1028 258.404 857.0813)" class="st14" cx="604.3" cy="285.3" rx="16.8" ry="16.8"/>
		
			<ellipse transform="matrix(0.1028 -0.9947 0.9947 0.1028 258.404 857.0813)" class="st66" cx="604.3" cy="285.3" rx="11.1" ry="11.1"/>
		
			<ellipse transform="matrix(0.1028 -0.9947 0.9947 0.1028 366.1931 1004.6303)" class="st14" cx="740" cy="299.3" rx="16.8" ry="16.8"/>
		
			<ellipse transform="matrix(0.1028 -0.9947 0.9947 0.1028 366.1931 1004.6303)" class="st66" cx="740" cy="299.3" rx="11.1" ry="11.1"/>
		<path class="st14" d="M742.5,284.7c17.5-75.1-25-59.6-63.1-63.5s-71.5,18.1-74.7,49.3c-0.7,7-3.4,32.6-4.1,39.6
			c-3.2,31.1,39.5,61.1,63.1,63.5c20.8,2.1,71.5-18.1,74.7-49.3C739.1,317.3,740.9,291.5,742.5,284.7z"/>
		<path class="st0" d="M719.9,265.5c-1.5-1.8,2.2-4.8,2.2-4.8c10.1-0.6,10,16,20.4,12.1c3.5-1.3,2.5-8.1,3-13
			c2.9,10.9,6.6,2.9,12.9,0.5c1.1-5.4,2.1-9.9,2.4-12.6c3.8-37.2-25.9-63.6-63.1-67.4c-36.3-3.7-58.8,16.7-64,52.5
			c29.3-6.6,46.8,9.3,63.7,28.2C705.1,261.8,711.9,264.7,719.9,265.5z"/>
		<path class="st0" d="M677.1,210.6c0.7-0.7,0.7-1.9-0.1-2.6c0,0,0,0,0,0c-19.7-16.7-49.2-14.3-65.9,5.3
			c-11.5,13.6-14,31.9-7.9,47.4c0.4,1,1.6,1.4,2.5,0.9C631.5,247.6,656.9,231.6,677.1,210.6z"/>
		<g>
			<path class="st72" d="M728.9,297.9c-1.4,13.9-8.7,24.4-22.6,23s-21.4-13.6-19.9-27.4s11.3-24.2,25.1-22.8S730.3,284,728.9,297.9z
				"/>
			
				<ellipse transform="matrix(0.1028 -0.9947 0.9947 0.1028 339.5824 970.2441)" class="st13" cx="707.6" cy="296.9" rx="21.9" ry="21.9"/>
			<g>
				
					<ellipse transform="matrix(0.1028 -0.9947 0.9947 0.1028 331.0019 957.9655)" class="st0" cx="696.5" cy="295.5" rx="10.5" ry="10.5"/>
				<ellipse transform="matrix(0.1028 -0.9947 0.9947 0.1028 331.0019 957.9655)" cx="696.5" cy="295.5" rx="4.1" ry="4.1"/>
				
					<ellipse transform="matrix(0.1028 -0.9947 0.9947 0.1028 334.0784 951.3572)" class="st73" cx="694.4" cy="290.5" rx="3" ry="3"/>
			</g>
		</g>
		<g>
			<path class="st72" d="M615.1,286.1c-1.4,13.9,3.5,25.7,17.4,27.1c13.9,1.4,23.7-8.9,25.1-22.8c1.4-13.9-6.1-26-19.9-27.4
				C623.8,261.7,616.5,272.3,615.1,286.1z"/>
			
				<ellipse transform="matrix(0.1028 -0.9947 0.9947 0.1028 282.795 892.5103)" class="st13" cx="636.1" cy="289.5" rx="21.9" ry="21.9"/>
			
				<ellipse transform="matrix(0.1028 -0.9947 0.9947 0.1028 290.6428 906.2367)" class="st0" cx="647.7" cy="292" rx="10.5" ry="10.5"/>
			<ellipse transform="matrix(0.1028 -0.9947 0.9947 0.1028 290.6428 906.2367)" cx="647.7" cy="292" rx="4.1" ry="4.1"/>
			<ellipse transform="matrix(0.1028 -0.9947 0.9947 0.1028 293.8316 899.7821)" class="st73" cx="645.7" cy="287" rx="3" ry="3"/>
		</g>
		<path class="st66" d="M667.7,331.1L667.7,331.1c-5.5-0.6-9.5-5.5-9-11l3.7-36.1c0.6-5.5,5.5-9.5,11-9l0,0c5.5,0.6,9.5,5.5,9,11
			l-3.7,36.1C678.1,327.7,673.1,331.7,667.7,331.1z"/>
		<path class="st14" d="M666.3,325L666.3,325c-5.5-0.6-9.5-5.5-9-11l3.7-36.1c0.6-5.5,5.5-9.5,11-9l0,0c5.5,0.6,9.5,5.5,9,11
			l-3.7,36.1C676.7,321.5,671.8,325.5,666.3,325z"/>
		<path class="st0" d="M630.3,231.6c0,0,17,9.8,25,16.3c11,9,35.9,12.5,35.9,12.5s-15.6-26.3-27.3-31.1
			C652.2,224.6,630.3,231.6,630.3,231.6z"/>
		<path class="st0" d="M626.6,197.2c0,0,7.2,0.5,10.8,1.3c5.1,1.2,13.8-1.7,13.8-1.7s-9.4-6.1-14-5.8
			C632.6,191.4,626.6,197.2,626.6,197.2z"/>
		<path class="st0" d="M660.3,178.3c0,0-2.7,6.7-3.6,10.3c-1.2,5.1-7.6,11.7-7.6,11.7s-1.4-11.1,0.9-15.1
			C652.4,181.2,660.3,178.3,660.3,178.3z"/>
		
			<ellipse transform="matrix(0.1028 -0.9947 0.9947 0.1028 245.356 896.5142)" class="st66" cx="619.6" cy="312.2" rx="1.3" ry="2.5"/>
		
			<ellipse transform="matrix(0.1028 -0.9947 0.9947 0.1028 253.2188 907.2774)" class="st66" cx="629.5" cy="313.3" rx="1.3" ry="2.5"/>
		
			<ellipse transform="matrix(0.1028 -0.9947 0.9947 0.1028 243.9058 905.8272)" class="st66" cx="624.1" cy="317.7" rx="1.3" ry="2.5"/>
		
			<ellipse transform="matrix(0.1028 -0.9947 0.9947 0.1028 315.8595 993.024)" class="st66" cx="708.4" cy="321.4" rx="1.3" ry="2.5"/>
		
			<ellipse transform="matrix(0.1028 -0.9947 0.9947 0.1028 323.7223 1003.7872)" class="st66" cx="718.3" cy="322.4" rx="1.3" ry="2.5"/>
		
			<ellipse transform="matrix(0.1028 -0.9947 0.9947 0.1028 314.4093 1002.337)" class="st66" cx="712.8" cy="326.9" rx="1.3" ry="2.5"/>
		<path class="st82" d="M607.7,244.2l-5.1,57.8l6.1-4.5l7.9-34.5c0,0,11-21.7,22.7-25c11.7-3.3,34.1-2.2,34.1-2.2l-17.6-11.2
			L607.7,244.2z"/>
		<path class="st82" d="M747.6,255.8l-8.6,52.8l-4.8,1.9l-0.7-35.4c0,0-6.4-23.5-17.2-29.1c-10.8-5.7-32.9-9.2-32.9-9.2l19.5-7.3
			L747.6,255.8z"/>
		<path class="st83" d="M689.6,283.3l29.4,3c4.1,0.4,7.9-2.6,8.3-6.7v0c0.4-4.1-2.6-7.9-6.7-8.3l-29.4-3c-4.1-0.4-7.9,2.6-8.3,6.7
			l0,0C682.4,279.1,685.5,282.8,689.6,283.3z"/>
		<path class="st83" d="M624.6,277.8l28.6-7.5c4-1.1,6.4-5.2,5.4-9.2l0,0c-1.1-4-5.2-6.4-9.2-5.4l-28.6,7.5c-4,1.1-6.4,5.2-5.4,9.2
			v0C616.4,276.4,620.6,278.8,624.6,277.8z"/>
		<g class="st52">
			<g>
				<path class="st14" d="M685.7,190.9c4.9,2.2,10.6,1.4,15.8,2.6c4.7,1,8.7,3.7,13.5,4.5c0.9,0.2,1.2-1,0.4-1.3
					c-4.7-1.7-9.1-4.4-14-5.4c-4.7-0.9-10.8-1.8-15.5-0.8C685.6,190.4,685.5,190.8,685.7,190.9L685.7,190.9z"/>
			</g>
		</g>
	</g>
	<path class="st13" d="M636.2,376.3c1.3,4.6,3.6,9.1,5.8,13.6c1.2,2.7,2.3,5.4,3.5,8c0.7,1.7,1.3,3.3,1.7,5
		c1.7,6.8,0.8,13.6-5.4,18.9c-6.7,5.7-14.3,5-21.5,1.4c-1.4-0.7-2.9-1.6-4.3-2.5c-7.3-5.9-14.7-11.9-21.2-18.6
		c-1.6-1.7-3.2-3.4-4.7-5.1c-11.6-14.6-24.9-38.9-8.7-55c1.6-1.5,5.8-1.7,8-1.3c14.7,4.1,21.8,17.6,34.1,25c1.7,1.3,3.3,2.5,5.1,3.7
		c1.7,1.2,3.5,2.3,5.3,3.4C634.9,373.9,635.6,375.1,636.2,376.3z"/>
	<path class="st65" d="M647.8,399.6c-0.8-3.7-2.4-7.1-4-10.4c-1.6-3.4-3.2-6.7-4-10.5c-1.2-2.7-3-5-8.1-8.7c-1-0.9-9.3,2.6-10.3,1.8
		c-2.1-0.9-4-2.1-5.6-3.4s-3-2.8-4.4-4.4c-3.8,2.1-8.2,3.5-12.3,5.2c4.5-3.1,5.9-9,5.3-14.8c-1-1.3-2-2.6-3.1-3.8
		c-3.8-3.5-5.4-7.4-10.3-7.5c-2.4,0-4.9,0.3-7.1,0.9c-11.4,5.1-10.9,14.4-6.8,24.3c1.4,3.3,3.1,6.7,5,10.1c1.2,3.1,2.6,6.3,4.1,9.4
		c1.5,3.1,3.1,6.2,4.9,9.2c9.6,18.5,30.2,36.2,50.7,21c3.7-3.3,5.6-6.1,5.8-11.2C647.6,403.6,647.8,400.5,647.8,399.6z"/>
	<path class="st13" d="M743.6,424.7c1.8-2.2,3.6-4.5,5.4-6.8c2.9-4,5.8-8.2,9.3-11.5c0.8-1.1,1.5-2.3,2.1-3.7
		c0.1-2.1,0.2-4.2,0.5-6.3c0.2-2.1,0.5-4.1,0.9-6.2c0.7-14.3,9.4-26.9,6.1-41.8c-0.7-2.1-2.7-5.7-4.8-6.4
		c-21.8-6.7-37,16.4-44.5,33.5c-0.9,2.2-1.6,4.3-2.3,6.6c-0.7,2.3-1.4,4.7-2,7.1c6.6,14.9,13.8,29.7,25.1,40.3
		c0.3-0.2,0.5-0.4,0.8-0.7C741.2,427.4,742.5,426.1,743.6,424.7z"/>
	<path class="st65" d="M766.4,350.7c-1.1-2.2-2.5-4.2-4.2-5.9c-13.1-10.3-22.9,1.7-31.2,14.5c-2.1,3.2-4.1,6.5-6,9.5
		c-6.9,8.1-6.9,20.1-10.9,30.1c-1,0-4,0-4,1c5,13,12,26,25,30c12,5,22-9,25-20c2-11-4-20-4-31c-1-5-5-7-9-8.9c2.4,1.3,5.1,1.5,7.8,1
		s5.4-1.7,7.8-3.3c0.7-1.4,1.3-2.9,1.9-4.5C765.9,358.3,768.6,355,766.4,350.7z"/>
	<path class="st22" d="M747.5,356.2c-0.2-2.1,0.1-8.5,0.9-11.6c1.5-5.8,6.8-7.9,9.9-12.5c4-5.9,5.3-13.4,2.4-19.9
		c-1.8-4.1-7.4-9.3,0.3-11.1c5.9-1.3,12.2,2.8,15.2,7.4c3.1,4.6,0,10.3,2.2,14.3"/>
	<g>
		<g>
			<path class="st14" d="M749.4,335.9c3.8-14.5,22.6-33.7,6.4-45.9c-1.8-0.4-3.5-0.8-5.8-0.6c-2.3,0.2-3.9,1-3.8,2.1
				c4.8,13.3-1.4,26-8.3,36.2"/>
			<g>
				<path class="st66" d="M749.6,336c4.7-12.1,20.8-30.5,10.3-43.5c-2.6-3.2-5.1-4.3-9.2-4.1c-2,0.1-5.3,0.6-5.5,3.2
					c-0.2,2.5,1.6,6,1.7,8.6c0.1,3.2-0.2,6.6-1,9.7c-1.7,6.4-5.3,12-9,17.4c-0.7,1,1,2,1.7,1c4.5-6.9,8.3-14.7,9.6-22.9
					c0.6-3.6-0.1-7-0.3-10.6c-0.1-1.3-0.8-3.1,0.6-4.2c0.9-0.7,4.4-0.2,5.5,0.1c2.3,0.7,4.2,3,5.4,5.1c3.8,6.9,0.1,15.3-2.9,21.7
					c-2.7,5.9-6.3,11.8-7.5,18.3C749.1,336.1,749.5,336.3,749.6,336L749.6,336z"/>
			</g>
		</g>
		<path class="st14" d="M733.1,375c-8.5-5.7-5.3-16.7-2-25c1-1.2,2.3-2.2-0.6-2.1c-0.7,0-1.6-1.3-1.6-2c0-0.7,0-1.4,0-2.2
			c-1.7-8,8-13.3,11.3-20.1c0.6-0.7,1.3-1.3,2-1.9c0.7-0.6,1.4-1.2,2.1-1.8c1.7-1.4,3.6-2.8,4.8-4.8c1.1-1.8,1.6-4,2.9-5.5
			c4.4-5,11.6-1.6,14,3.3c1.7,3.4,2.5,7.1,3.2,10.8c0.1,0.5,0.2,0.9,0.2,1.4c-0.3,2.1-0.1,4.1,0.1,6.1c0.1,0.5,0.1,1,0.1,1.5
			c0.1,0.9,0,1.8,0,2.6c0,0.4-0.1,0.8-0.2,1.3c0,4.9-3.4,8.3-5.9,12.1c-0.3,0.4-0.5,0.8-0.8,1.3c-0.7,1.2-1.3,2.5-1.9,3.8
			c-0.2,0.4-0.4,0.9-0.6,1.3c-4.1,6.1-5.7,13.4-10.2,19.5c-0.4,0.3-0.8,0.6-1.2,0.9c-3.8,2.5-9,3.4-13.4,1.1
			C735.3,376.5,734.3,376.4,733.1,375z"/>
		<g>
			<path class="st14" d="M755.6,332.8c9.8-7.3,17.4-17.5,21.7-28.9c1.1-3,2-6.2,1.3-9.3s-3.4-5.9-6.6-5.7c-3.5,0.3-4.2,7.1-5.8,10.2
				c-4.2,7.9-8,16.5-16.1,20.4"/>
			<g>
				<path class="st66" d="M755.7,333.1c7.9-4.9,14.5-12.5,18.9-20.6c3.2-6,8.6-16.1,2.9-22.1c-4.5-4.7-8.6-1.3-10.3,3.6
					c-3.3,9.6-8.1,20-17.6,24.8c-1.1,0.6-0.1,2.3,1,1.7c5.5-2.9,8.8-7.7,11.9-13c1.6-2.8,3.5-5.7,4.8-8.7c0.9-2,1.2-5.1,2.5-6.8
					c4.8-6,7.9,3,7.8,5.8c-0.1,2-0.8,4-1.5,5.9c-1.4,3.9-3.3,7.6-5.4,11.2c-4.2,6.9-9.5,12.4-15.3,17.8
					C755.2,332.9,755.5,333.2,755.7,333.1L755.7,333.1z"/>
			</g>
		</g>
		<g>
			<path class="st14" d="M747.7,372.3c9.8-7.3,17.4-17.5,21.7-28.9c1.1-3,2-6.2,1.3-9.3c-0.3-1.4-1.1-2.8-2.1-3.9"/>
			<g>
				<path class="st66" d="M747.8,372.5c7.9-4.9,14.4-12.5,18.9-20.6c3.6-6.6,8.3-15.8,2.6-22.4c-0.9-1-2.2,0.4-1.4,1.4
					c5.5,6.9-1.9,18.6-5.8,24.7c-4,6.4-9,11.4-14.5,16.5C747.3,372.3,747.6,372.7,747.8,372.5L747.8,372.5z"/>
			</g>
		</g>
		<g>
			<path class="st14" d="M735,330.5c-3,2.8-6.1,6-6.3,10.1c-0.1,2,0.6,4,1.6,5.8c1.2,2.3,2.8,4.4,4.7,6.2"/>
			<g>
				<path class="st66" d="M734.2,329.7c-3.6,2.8-7,6.8-6.8,11.7c0.2,4.6,3.4,9,6.9,11.8c0.9,0.7,2-0.4,1.3-1.3
					c-2.4-2.8-5.1-6.2-5.4-10c-0.4-4.6,2.8-7.5,5.6-10.6C736.8,330.2,735.3,328.8,734.2,329.7L734.2,329.7z"/>
			</g>
		</g>
		<g>
			<path class="st14" d="M737,343.2c-1.3,1.9-2.6,3.8-3.9,5.8c-1.8,2.7-3.7,5.6-4.8,8.7"/>
			<g>
				<path class="st66" d="M736.4,342.6c-3.8,4.2-7.4,9.4-9.4,14.7c-0.6,1.6,2,2.3,2.5,0.7c1.9-5.3,5.7-9.4,8.1-14.4
					C738,342.8,737,342,736.4,342.6L736.4,342.6z"/>
			</g>
		</g>
		<g>
			<path class="st14" d="M737.9,353.3c-11.1-7.2-24.2-23.1-36.2-11c-2.7,2,1,3.9,2.9,5.5c7.3,3.9,22.2,14.3,27,21.1"/>
			<g>
				<path class="st66" d="M738.1,353.2c-6.2-5.2-12.7-11.8-20.4-14.9c-5.3-2.1-14.7-1.9-17.6,4.3c-2.1,4.4,7.5,8,10.1,9.7
					c7.5,4.8,15.2,10,20.5,17.2c0.8,1.1,2.4-0.1,1.5-1.2c-7.3-9.4-18.6-14.8-27.9-21.8c-4.4-3.3,1-6.4,4.7-7.2
					c3.9-0.8,7.8,0.7,11.2,2.6c6.2,3.4,11.3,8.5,17.6,11.7C738,353.7,738.3,353.4,738.1,353.2L738.1,353.2z"/>
			</g>
		</g>
		<g>
			<path class="st14" d="M763.9,342.1c9.8-7.3,17.4-17.5,21.7-28.9c1.1-3,2-6.2,1.3-9.3s-3.4-5.9-6.6-5.7c-3.5,0.3-4.2,7.1-5.8,10.2
				c-4.2,7.9-8,16.5-16.1,20.4"/>
			<g>
				<path class="st66" d="M764,342.3c7.9-4.9,14.5-12.5,18.9-20.6c3.2-6,8.6-16.1,2.9-22.1c-4.5-4.7-8.6-1.3-10.3,3.6
					c-3.3,9.6-8.1,20-17.6,24.8c-1.1,0.6-0.1,2.3,1,1.7c5.5-2.9,8.8-7.7,11.9-13c1.6-2.8,3.5-5.7,4.8-8.7c0.9-2,1.2-5.1,2.5-6.8
					c4.8-6,7.9,3,7.8,5.8c-0.1,2-0.8,4-1.5,5.9c-1.4,3.9-3.3,7.6-5.4,11.2c-4.2,6.9-9.5,12.4-15.3,17.8
					C763.5,342.1,763.8,342.4,764,342.3L764,342.3z"/>
			</g>
		</g>
	</g>
	<g>
		<g>
			<path class="st14" d="M582.2,324.2c-3.8-14.5-22.6-33.7-6.4-45.9c1.8-0.4,3.5-0.8,5.8-0.6c2.3,0.2,3.9,1,3.8,2.1
				c-4.8,13.3,3.8,28.5,10.6,38.7"/>
			<g>
				<path class="st66" d="M582.5,324.1c-2.4-12.7-19.6-30.6-8.4-42.7c1.8-2,4.7-3.2,7.4-2.6c3.2,0.8,2.3,2.8,2,5.5
					c-0.5,3.9-0.2,7.9,0.9,11.7c2.3,8.2,6.3,15.9,10.9,23c0.7,1,2.4,0.1,1.7-1c-6.9-10.1-14.3-22.1-11.5-34.9
					c0.6-2.8,1.7-4.5-1.4-5.8c-3.4-1.4-8-0.9-10.7,1.6c-13.7,12.8,3.7,32.6,8.6,45.4C582.1,324.6,582.5,324.5,582.5,324.1
					L582.5,324.1z"/>
			</g>
		</g>
		<path class="st14" d="M598,362.9c8.5-5.7,5.9-16.3,2.6-24.6c-1-1.2-2.3-2.2,0.6-2.1c0.7,0,1.6-1.3,1.6-2c0-0.7,0-1.4,0-2.2
			c1.7-8-8-13.3-11.3-20.1c-0.6-0.7-1.3-1.3-2-1.9c-0.7-0.6-1.4-1.2-2.1-1.8c-1.7-1.4-3.6-2.8-4.8-4.8c-1.1-1.8-1.6-4-2.9-5.5
			c-4.4-5-11.6-1.6-14,3.3c-1.7,3.4-2.5,7.1-3.2,10.8c-0.1,0.5-0.2,0.9-0.2,1.4c0.3,2.1,0.1,4.1-0.1,6.1c-0.1,0.5-0.1,1-0.1,1.5
			c-0.1,0.9,0,1.8,0,2.6c0,0.4,0.1,0.8,0.2,1.3c0,4.9,3.4,8.3,5.9,12.1c0.3,0.4,0.5,0.8,0.8,1.3c0.7,1.2,1.3,2.5,1.9,3.8
			c0.2,0.4,0.4,0.9,0.6,1.3c4.1,6.1,5.7,13.4,10.2,19.5c0.4,0.3,0.8,0.6,1.2,0.9c3.8,2.5,9,3.4,13.4,1.1
			C596.3,364.9,596.8,364.3,598,362.9z"/>
		<g>
			<path class="st14" d="M576,321.2c-9.8-7.3-17.4-17.5-21.7-28.9c-1.1-3-2-6.2-1.3-9.3s3.4-5.9,6.6-5.7c3.5,0.3,4.2,7.1,5.8,10.2
				c4.2,7.9,10.6,20.6,18.7,24.5"/>
			<g>
				<path class="st66" d="M576.2,321c-6.3-5.8-11.9-11.7-16.1-19.2c-2.3-4-4.5-8.3-5.6-12.8c-0.6-2.5-1-5.7,0.6-7.9
					c5.2-7,7.2,0.2,8.1,2.7c2,5.7,5.2,10.9,8.4,15.9c3.2,5.1,6.6,10.1,12,13.1c1.1,0.6,2.1-1.1,1-1.7c-9-4.6-14.4-15.2-18.4-24
					c-2-4.4-3.2-13.8-10.2-9.8c-7.9,4.5-3,15.4,0,21.4c4.4,8.9,11.4,17.4,20,22.7C576.1,321.5,576.4,321.2,576.2,321L576.2,321z"/>
			</g>
		</g>
		<g>
			<path class="st14" d="M560.3,329.1c-3.8-11.6-4.1-24.3-1-36.1c0.8-3.1,1.9-6.2,4.3-8.3c2.3-2.1,6.2-2.9,8.7-0.9
				c2.7,2.2-0.7,8.2-1.1,11.7c-1.1,8.9-3,18.2,1.4,26"/>
			<g>
				<path class="st66" d="M560.5,329c-1.6-8.2-2.8-16-2.1-24.3c0.4-4.3,1-8.8,2.4-13c0.7-2.2,1.7-4.7,3.6-6.3
					c2.9-2.4,8.6-1.8,7.7,2.9c-1,5.3-2.2,10.1-2.7,15.5c-0.6,6.3-0.6,12.3,2.3,18.1c0.6,1.1,2.3,0.1,1.7-1
					c-5.1-9.8-2.5-20.9,0.2-30.9c1.3-5-0.5-9.5-6.6-8.2c-7.7,1.6-9.3,11.9-10.1,18.2c-1.3,9.6-0.5,20.2,3.3,29.2
					C560.2,329.5,560.6,329.3,560.5,329L560.5,329z"/>
			</g>
		</g>
		<g>
			<path class="st14" d="M590.9,309.3c3,2.8,7.9,9.1,8,13.2c0.1,2,3.3,10.4,2.4,12.2c-1.2,2.3-2.8,4.4-4.7,6.2"/>
			<g>
				<path class="st66" d="M590.1,310.1c4,4.4,6.5,8.6,7.8,14.4c0.5,2.1,1.3,4.1,1.7,6.2c1,4.2-0.9,6.4-3.7,9.6
					c-0.8,0.9,0.4,2,1.3,1.3c2-1.7,4.9-4.5,5.4-7.3c0.5-2.7-1-6-1.7-8.6c-0.7-2.7-0.9-5.3-2.1-7.9c-1.7-3.5-4.2-6.8-7.2-9.3
					C590.6,307.6,589.2,309,590.1,310.1L590.1,310.1z"/>
			</g>
		</g>
		<g>
			<path class="st14" d="M594.7,331.5c1.3,1.9,2.6,3.8,3.9,5.8c3.3,4.9,6.8,10.5,5.3,16.2c-1.3,5.2-6.2,8.4-9.7,12.5"/>
			<g>
				<path class="st66" d="M594,331.9c3,5.8,8.8,11.6,8.9,18.5c0.1,6.5-6.2,10.2-9.2,15.3c-0.3,0.5,0.3,1.2,0.8,0.8
					c5-3.8,10.8-8.5,11-15.3c0.2-7.5-5.7-14.9-10.3-20.2C594.6,330.3,593.6,331.2,594,331.9L594,331.9z"/>
			</g>
		</g>
		<g>
			<path class="st14" d="M591.4,335c8.5-0.2,26.4-16.4,38.5-4.3c2.7,2-1,3.9-2.9,5.5c-4.1,2.2-14.7,4.6-19.2,12.1
				c-4.1,6.9-6.8,10-12.9,11.2"/>
			<g>
				<path class="st66" d="M591.4,335.2c5.4,0.2,11-3.4,15.9-5.2c3.4-1.3,7-2.5,10.7-2.7c2.6-0.1,12.7,1.5,11,5.9
					c-0.9,2.3-6.5,3.9-8.5,4.7c-3.1,1.3-6.2,2.8-8.8,4.9c-6.5,5.3-7.8,13.8-17.1,15.7c-1.2,0.3-0.7,2.2,0.5,1.9
					c10-2.3,11.8-13,20.1-17.9c3.2-1.9,16.9-5,16.7-10.4c-0.1-2.7-4.7-5.1-6.9-5.9c-3.4-1.3-7.2-1.2-10.8-0.5
					c-8.1,1.7-14.8,7.7-22.9,9.1C591.1,334.8,591.2,335.2,591.4,335.2L591.4,335.2z"/>
			</g>
		</g>
		<g>
			<path class="st14" d="M583.9,360.6c-9.8-7.3-16-18.1-21.7-28.9c-3.8-7.3-4.7-17.7-5-19.3"/>
			<g>
				<path class="st66" d="M584.1,360.5c-8.2-7.2-13.9-16-19-25.6c-3.9-7.4-5.5-14.6-6.7-22.7c-0.2-1.4-2.4-0.8-2.2,0.6
					c1.3,8.6,3.2,16.2,7.5,23.9c5.2,9.1,11.3,18.2,20.1,24.2C584,361,584.3,360.6,584.1,360.5L584.1,360.5z"/>
			</g>
		</g>
	</g>
	
		<ellipse transform="matrix(1.510440e-02 -0.9999 0.9999 1.510440e-02 309.4253 1009.0886)" class="st178" cx="666.9" cy="347.5" rx="13.3" ry="17.3"/>
	<g>
		<path class="st179" d="M676.4,350.5C676.4,350.5,676.4,350.5,676.4,350.5c7.8,2.9,5.9,14,4.5,20.2c-0.1,0.5-0.2,1-0.4,1.4
			c-1,2.3-4.2,3.8-6.5,4.5c-4.2,1.3-9.5,1.9-13.5-0.3c-5.6-3.1-4.2-10.2-4-15.6c0.1-1.8-0.1-3.6-0.2-5.4c-0.1-1.4-0.2-2.9,0.8-4.1
			c0.6-0.6,1.4-1,2.2-1.2c1.1-0.2,2.7-0.4,3.9-0.3c0.4,0,4.3,3,4.7,3.2c0.3,0.1,2.8-1.5,3.1-1.7c1.4-0.7,3-1.2,4.6-0.9
			C675.8,350.3,676.1,350.4,676.4,350.5z"/>
		<g>
			<g>
				<path class="st180" d="M667.4,353.8c1,4.6-0.2,9.3,0.9,13.9c0.1,0.6,1.1,0.5,1.1-0.1c-0.3-4.6,1.5-10-0.9-14.2
					C668.1,352.7,667.3,353.2,667.4,353.8L667.4,353.8z"/>
			</g>
		</g>
	</g>
</g>
<g id="Layer_2">
	<rect x="34.9" y="28.9" class="st22" width="391.9" height="48.3"/>
	<text transform="matrix(1 0 0 1 34.8917 47.6346)" class="st0 st86 st85">HOla, Kaira POlet ARAYA</text>
	
		<use xlink:href="#barras"  width="433.6" height="172.4" x="-216.8" y="-86.2" transform="matrix(1 0 0 -1 289.8234 368.5386)" style="overflow:visible;"/>
</g>
</svg>
