<?xml version="1.0" encoding="utf-8"?>
<!-- Generator: Adobe Illustrator 21.1.0, SVG Export Plug-In . SVG Version: 6.00 Build 0)  -->
<svg version="1.1" xmlns="http://www.w3.org/2000/svg" xmlns:xlink="http://www.w3.org/1999/xlink" x="0px" y="0px"
	 viewBox="0 0 841.9 595.3" style="enable-background:new 0 0 841.9 595.3;" xml:space="preserve">
<style type="text/css">
	.st0{fill:#601515;}
	.st1{fill:#3FBA51;}
	.st2{fill:none;stroke:#601515;stroke-width:2;stroke-miterlimit:10;}
	.st3{fill:#F2C85F;}
	.st4{fill:#F2D3AD;}
	.st5{fill:#674C91;}
	.st6{fill:#DCFFC5;}
	.st7{fill:#8BAA77;}
	.st8{clip-path:url(#SVGID_2_);fill:#F1F3F7;}
	.st9{opacity:0.4;clip-path:url(#SVGID_2_);fill:#DCDDE0;}
	.st10{clip-path:url(#SVGID_2_);fill:#0076B7;}
	.st11{clip-path:url(#SVGID_2_);fill:#FFFFFF;}
	.st12{clip-path:url(#SVGID_2_);}
	.st13{fill:#FFFFFF;}
	.st14{fill:#F7CFA2;}
	.st15{fill:#ECB8FF;}
	.st16{fill:#393D47;}
	.st17{fill:#E86767;}
	.st18{opacity:0.1;fill:#3C2813;}
	.st19{fill:#EEEBE7;}
	.st20{fill:#3C2813;}
	.st21{fill:#795ACC;}
	.st22{fill:none;}
	.st23{clip-path:url(#SVGID_6_);fill:#F7EFDF;}
	.st24{fill:#3EBA50;}
	.st25{display:none;opacity:0.3;}
	.st26{fill:#F7EFDF;}
	.st27{fill:#4E9FA8;}
	.st28{fill:none;stroke:#231F20;stroke-width:2;stroke-miterlimit:10;}
	.st29{fill:#231F20;}
	.st30{fill:none;stroke:#674C91;stroke-miterlimit:10;}
	.st31{fill:#601515;stroke:#601515;stroke-miterlimit:10;}
	.st32{fill:none;stroke:#601515;stroke-miterlimit:10;}
	.st33{fill:none;stroke:#FFFFFF;stroke-miterlimit:10;}
	.st34{fill:url(#SVGID_9_);}
	.st35{fill:#601515;stroke:#8C8779;stroke-width:6;stroke-miterlimit:10;}
	.st36{fill:url(#SVGID_10_);}
	.st37{fill:none;stroke:#4E9FA8;stroke-width:12;stroke-miterlimit:10;}
	.st38{fill:#E0EA18;}
	.st39{clip-path:url(#SVGID_12_);fill:#F7EFDF;}
	.st40{fill:url(#SVGID_13_);}
	.st41{fill:url(#SVGID_14_);}
	.st42{fill:#EFEA35;}
	.st43{fill:url(#SVGID_15_);}
	.st44{fill:url(#SVGID_16_);}
	.st45{fill:url(#SVGID_17_);}
	.st46{fill:url(#SVGID_18_);}
	.st47{fill:url(#SVGID_19_);}
	.st48{fill:#C1C1B8;}
	.st49{fill:#9B9B97;}
	.st50{fill:#D8D8D2;}
	.st51{opacity:0.4;}
	.st52{opacity:0.6;}
	.st53{fill:#CEBABA;}
	.st54{fill:#EAEAE5;}
	.st55{fill:url(#SVGID_20_);}
	.st56{fill:url(#SVGID_21_);}
	.st57{fill:url(#SVGID_22_);}
	.st58{fill:url(#SVGID_23_);}
	.st59{fill:url(#SVGID_24_);}
	.st60{fill:url(#SVGID_25_);}
	.st61{fill:url(#SVGID_26_);}
	.st62{fill:url(#SVGID_27_);}
	.st63{fill:url(#SVGID_28_);}
	.st64{fill:#6BA8B2;}
	.st65{fill:#F1F3F7;}
	.st66{fill:#F0BA7A;}
	.st67{opacity:0.4;fill:#DCDDE0;}
	.st68{fill:#0076B7;}
	.st69{opacity:0.3;}
	.st70{fill:#DCDDE0;}
	.st71{fill:#004868;}
	.st72{opacity:0.1;fill:#601515;}
	.st73{fill:#F9F9F9;}
	.st74{fill:#24272D;}
	.st75{fill:#EA6D50;}
	.st76{clip-path:url(#SVGID_30_);fill:#F0BA7A;}
	.st77{clip-path:url(#SVGID_30_);fill:#F1F3F7;}
	.st78{opacity:0.4;clip-path:url(#SVGID_30_);fill:#DCDDE0;}
	.st79{clip-path:url(#SVGID_30_);fill:#0076B7;}
	.st80{clip-path:url(#SVGID_30_);fill:#FFFFFF;}
	.st81{clip-path:url(#SVGID_30_);}
	.st82{opacity:0.3;fill:#601515;}
	.st83{fill:#5B1010;}
	.st84{clip-path:url(#SVGID_32_);fill:#F1F3F7;}
	.st85{clip-path:url(#SVGID_32_);fill:#F0BA7A;}
	.st86{opacity:0.4;clip-path:url(#SVGID_32_);fill:#DCDDE0;}
	.st87{clip-path:url(#SVGID_32_);fill:#0076B7;}
	.st88{clip-path:url(#SVGID_32_);fill:#FFFFFF;}
	.st89{clip-path:url(#SVGID_32_);}
	.st90{fill:#1F74C9;}
	.st91{fill:#595959;}
	.st92{opacity:0.1;fill:#8BAA77;}
	.st93{opacity:0.3;fill:#8BAA77;}
	.st94{opacity:0.1;fill:#595959;}
	.st95{opacity:0.3;fill:#595959;}
	.st96{fill:#9E921E;}
	.st97{clip-path:url(#SVGID_34_);fill:#F0BA7A;}
	.st98{clip-path:url(#SVGID_34_);fill:#F1F3F7;}
	.st99{clip-path:url(#SVGID_34_);}
	.st100{clip-path:url(#SVGID_34_);fill:#393D47;}
	.st101{clip-path:url(#SVGID_34_);fill:#FFFFFF;}
	.st102{opacity:0.4;clip-path:url(#SVGID_34_);fill:#DCDDE0;}
	.st103{clip-path:url(#SVGID_34_);fill:#0076B7;}
	.st104{fill:#B72C34;}
	.st105{clip-path:url(#SVGID_36_);fill:#F1F3F7;}
	.st106{clip-path:url(#SVGID_36_);}
	.st107{clip-path:url(#SVGID_38_);fill:#F1F3F7;}
	.st108{opacity:0.4;clip-path:url(#SVGID_38_);fill:#DCDDE0;}
	.st109{clip-path:url(#SVGID_38_);fill:#0076B7;}
	.st110{clip-path:url(#SVGID_38_);fill:#FFFFFF;}
	.st111{clip-path:url(#SVGID_38_);}
	.st112{fill:url(#SVGID_39_);}
	.st113{fill:url(#SVGID_40_);}
	.st114{fill:url(#SVGID_41_);}
	.st115{fill:url(#SVGID_42_);}
	.st116{fill:#A52323;}
	.st117{clip-path:url(#SVGID_44_);fill:#F1F3F7;}
	.st118{opacity:0.4;clip-path:url(#SVGID_44_);fill:#DCDDE0;}
	.st119{clip-path:url(#SVGID_44_);fill:#0076B7;}
	.st120{clip-path:url(#SVGID_44_);fill:#FFFFFF;}
	.st121{clip-path:url(#SVGID_44_);}
	.st122{font-family:'ElegantLux-Mager';}
	.st123{font-size:26px;}
	.st124{font-family:'Bungee-Regular';}
	.st125{font-size:22px;}
	.st126{fill:#023142;}
	.st127{clip-path:url(#SVGID_46_);fill:#F7CFA2;}
	.st128{clip-path:url(#SVGID_46_);}
	.st129{opacity:0.3;fill:#E57257;}
	.st130{opacity:0.2;}
	.st131{fill:#656D60;}
	.st132{clip-path:url(#SVGID_48_);fill:#F0BA7A;}
	.st133{clip-path:url(#SVGID_48_);fill:#F1F3F7;}
	.st134{opacity:0.4;clip-path:url(#SVGID_48_);fill:#DCDDE0;}
	.st135{clip-path:url(#SVGID_48_);fill:#0076B7;}
	.st136{clip-path:url(#SVGID_48_);fill:#FFFFFF;}
	.st137{clip-path:url(#SVGID_48_);}
	.st138{clip-path:url(#SVGID_50_);fill:#F1F3F7;}
	.st139{opacity:0.4;clip-path:url(#SVGID_50_);fill:#DCDDE0;}
	.st140{clip-path:url(#SVGID_50_);fill:#0076B7;}
	.st141{clip-path:url(#SVGID_50_);fill:#FFFFFF;}
	.st142{clip-path:url(#SVGID_50_);}
	.st143{clip-path:url(#SVGID_52_);fill:#F1F3F7;}
	.st144{opacity:0.4;clip-path:url(#SVGID_52_);fill:#DCDDE0;}
	.st145{clip-path:url(#SVGID_52_);fill:#0076B7;}
	.st146{clip-path:url(#SVGID_52_);fill:#FFFFFF;}
	.st147{clip-path:url(#SVGID_52_);}
	.st148{fill:#9E9E9E;}
	.st149{fill:#878787;}
	.st150{fill:url(#SVGID_53_);}
	.st151{fill:#CE6117;}
	.st152{fill:url(#SVGID_54_);}
	.st153{fill:#EFE91B;}
	.st154{clip-path:url(#SVGID_56_);fill:#F0BA7A;}
	.st155{clip-path:url(#SVGID_56_);fill:#F1F3F7;}
	.st156{opacity:0.4;clip-path:url(#SVGID_56_);fill:#DCDDE0;}
	.st157{clip-path:url(#SVGID_56_);fill:#0076B7;}
	.st158{clip-path:url(#SVGID_56_);fill:#FFFFFF;}
	.st159{clip-path:url(#SVGID_56_);}
	.st160{fill:#B27E49;}
	.st161{clip-path:url(#SVGID_58_);fill:#F1F3F7;}
	.st162{opacity:0.4;clip-path:url(#SVGID_58_);fill:#DCDDE0;}
	.st163{clip-path:url(#SVGID_58_);fill:#0076B7;}
	.st164{clip-path:url(#SVGID_58_);fill:#FFFFFF;}
	.st165{clip-path:url(#SVGID_58_);}
	.st166{fill:#8454D1;}
	.st167{clip-path:url(#SVGID_60_);fill:#393D47;}
	.st168{clip-path:url(#SVGID_60_);fill:#F0BA7A;}
	.st169{clip-path:url(#SVGID_60_);fill:#F1F3F7;}
	.st170{clip-path:url(#SVGID_60_);fill:#0076B7;}
	.st171{clip-path:url(#SVGID_60_);fill:#004868;}
	.st172{opacity:0.4;clip-path:url(#SVGID_60_);fill:#DCDDE0;}
	.st173{clip-path:url(#SVGID_60_);fill:#FFFFFF;}
	.st174{clip-path:url(#SVGID_60_);}
	.st175{fill:none;stroke:#EA6D50;stroke-width:2;stroke-miterlimit:10;}
	.st176{fill:url(#SVGID_61_);}
	.st177{fill:#777777;}
	.st178{fill:#A85848;}
	.st179{fill:#E85646;}
	.st180{fill:#EA4E39;}
	.st181{clip-path:url(#SVGID_63_);fill:#F1F3F7;}
	.st182{clip-path:url(#SVGID_63_);}
	.st183{fill:#B23C18;}
	.st184{fill:#6B2A05;}
	.st185{fill:#B23C18;stroke:#6B2A05;stroke-miterlimit:10;}
	.st186{fill:#DDAA78;}
	.st187{fill:#211205;}
	.st188{fill:none;stroke:#6B2A05;stroke-width:0.729;stroke-miterlimit:10;}
	.st189{fill:#B23C18;stroke:#6B2A05;stroke-width:0.729;stroke-miterlimit:10;}
	.st190{fill:#BBE8F2;}
	.st191{opacity:0.3;fill:#F2F8F9;}
	.st192{opacity:0.2;fill:#601515;}
	.st193{fill:#FFFF00;}
	.st194{fill:#594EEA;}
	.st195{fill:#FF0B0B;}
	.st196{fill:none;stroke:#3FBA51;stroke-width:8;stroke-miterlimit:10;}
	.st197{fill:none;stroke:#3FBA51;stroke-width:7.2;stroke-miterlimit:10;}
	.st198{fill:none;stroke:#3FBA51;stroke-width:7.2;stroke-linecap:round;stroke-miterlimit:10;}
	.st199{fill:none;stroke:#3FBA51;stroke-width:8;stroke-linecap:round;stroke-miterlimit:10;}
	.st200{fill:none;stroke:#3FBA51;stroke-width:5.1175;stroke-miterlimit:10;}
	.st201{fill:#4F5565;}
	.st202{fill:#D64E3C;}
	.st203{fill:#F7A500;}
	.st204{fill:#FBD303;}
	.st205{fill:#FCFCFD;}
	.st206{fill:#F8B517;}
	.st207{fill:#F0582F;}
	.st208{fill:#BAE8F2;}
	.st209{fill:#F7EA72;}
	.st210{clip-path:url(#SVGID_65_);fill:#F7EFDF;}
	.st211{fill:none;stroke:#3FBA51;stroke-width:6.4304;stroke-miterlimit:10;}
	.st212{fill:url(#SVGID_66_);}
	.st213{fill:url(#SVGID_67_);}
	.st214{fill:url(#SVGID_68_);}
	.st215{fill:url(#SVGID_69_);}
	.st216{fill:url(#SVGID_70_);}
	.st217{fill:url(#SVGID_71_);}
	.st218{fill:url(#SVGID_72_);}
	.st219{fill:url(#SVGID_73_);}
	.st220{fill:url(#SVGID_74_);}
	.st221{fill:url(#SVGID_75_);}
	.st222{fill:url(#SVGID_76_);}
	.st223{fill:url(#SVGID_77_);}
	.st224{fill:url(#SVGID_78_);}
	.st225{fill:url(#SVGID_79_);}
	.st226{fill:url(#SVGID_80_);}
	.st227{fill:url(#SVGID_81_);}
	.st228{fill:url(#SVGID_82_);}
	.st229{fill:url(#SVGID_83_);}
	.st230{fill:url(#SVGID_84_);}
	.st231{fill:url(#SVGID_85_);}
	.st232{fill:url(#SVGID_86_);}
	.st233{fill:url(#SVGID_87_);}
	.st234{fill:url(#SVGID_88_);}
	.st235{fill:url(#SVGID_89_);}
	.st236{fill:url(#SVGID_90_);}
	.st237{fill:url(#SVGID_91_);}
	.st238{fill:url(#SVGID_92_);}
	.st239{fill:url(#SVGID_93_);}
	.st240{fill:url(#SVGID_94_);}
	.st241{fill:url(#SVGID_95_);}
	.st242{fill:url(#SVGID_96_);}
	.st243{fill:url(#SVGID_97_);}
	.st244{fill:url(#SVGID_98_);}
	.st245{fill:url(#SVGID_99_);}
	.st246{fill:url(#SVGID_100_);}
	.st247{fill:url(#SVGID_101_);}
	.st248{opacity:0.7;fill:#7BCDDB;}
	.st249{fill:none;stroke:#F0BA7A;stroke-width:3;stroke-miterlimit:10;}
	.st250{fill:url(#SVGID_102_);}
	.st251{fill:url(#SVGID_103_);}
	.st252{fill:url(#SVGID_104_);}
	.st253{fill:url(#SVGID_105_);}
	.st254{fill:url(#SVGID_106_);}
	.st255{fill:url(#SVGID_107_);}
	.st256{fill:url(#SVGID_108_);}
	.st257{opacity:0.5;fill:#302929;}
	.st258{fill:#EF3F50;}
	.st259{fill:url(#SVGID_109_);}
	.st260{fill:url(#SVGID_110_);}
	.st261{fill:url(#SVGID_111_);}
	.st262{fill:url(#SVGID_112_);}
	.st263{opacity:0.6;fill:#302929;}
	.st264{fill:url(#SVGID_113_);}
	.st265{fill:url(#SVGID_114_);}
	.st266{fill:url(#SVGID_115_);}
	.st267{fill:url(#SVGID_116_);}
	.st268{fill:url(#SVGID_117_);}
	.st269{fill:url(#SVGID_118_);}
	.st270{fill:url(#SVGID_119_);}
	.st271{fill:url(#SVGID_120_);}
	.st272{fill:url(#SVGID_121_);}
	.st273{fill:url(#SVGID_122_);}
	.st274{fill:url(#SVGID_123_);}
	.st275{fill:url(#SVGID_124_);}
	.st276{fill:url(#SVGID_125_);}
	.st277{fill:url(#SVGID_126_);}
	.st278{fill:url(#SVGID_127_);}
	.st279{fill:url(#SVGID_128_);}
	.st280{fill:url(#SVGID_129_);}
	.st281{fill:url(#SVGID_130_);}
	.st282{fill:url(#SVGID_131_);}
	.st283{fill:url(#SVGID_132_);}
	.st284{fill:url(#SVGID_133_);}
	.st285{fill:url(#SVGID_134_);}
	.st286{fill:url(#SVGID_135_);}
	.st287{fill:url(#SVGID_136_);}
	.st288{fill:url(#SVGID_137_);}
	.st289{fill:url(#SVGID_138_);}
	.st290{fill:url(#SVGID_139_);}
	.st291{fill:url(#SVGID_140_);}
	.st292{fill:url(#SVGID_141_);}
	.st293{fill:url(#SVGID_142_);}
	.st294{fill:url(#SVGID_143_);}
	.st295{fill:url(#SVGID_144_);}
	.st296{fill:url(#SVGID_145_);}
	.st297{fill:url(#SVGID_146_);}
	.st298{fill:url(#SVGID_147_);}
	.st299{fill:url(#SVGID_148_);}
	.st300{fill:url(#SVGID_149_);}
	.st301{fill:url(#SVGID_150_);}
	.st302{fill:url(#SVGID_151_);}
	.st303{fill:url(#SVGID_152_);}
	.st304{fill:url(#SVGID_153_);}
	.st305{fill:url(#SVGID_154_);}
	.st306{fill:url(#SVGID_155_);}
	.st307{fill:url(#SVGID_156_);}
	.st308{fill:url(#SVGID_157_);}
	.st309{fill:url(#SVGID_158_);}
	.st310{fill:url(#SVGID_159_);}
	.st311{fill:url(#SVGID_160_);}
	.st312{fill:url(#SVGID_161_);}
	.st313{fill:url(#SVGID_162_);}
	.st314{fill:url(#SVGID_163_);}
	.st315{fill:url(#SVGID_164_);}
	.st316{fill:url(#SVGID_165_);}
	.st317{fill:url(#SVGID_166_);}
	.st318{fill:url(#SVGID_167_);}
	.st319{fill:url(#SVGID_168_);}
	.st320{fill:url(#SVGID_169_);}
	.st321{fill:url(#SVGID_170_);}
	.st322{fill:url(#SVGID_171_);}
	.st323{fill:url(#SVGID_172_);}
	.st324{fill:url(#SVGID_173_);}
	.st325{fill:url(#SVGID_174_);}
	.st326{fill:url(#SVGID_175_);}
	.st327{fill:url(#SVGID_176_);}
	.st328{fill:url(#SVGID_177_);}
	.st329{fill:url(#SVGID_178_);}
	.st330{fill:url(#SVGID_179_);}
	.st331{fill:url(#SVGID_180_);}
	.st332{fill:url(#SVGID_181_);}
	.st333{fill:url(#SVGID_182_);}
	.st334{fill:url(#SVGID_183_);}
	.st335{fill:url(#SVGID_184_);}
	.st336{fill:url(#SVGID_185_);}
	.st337{fill:url(#SVGID_186_);}
	.st338{fill:url(#SVGID_187_);}
	.st339{fill:url(#SVGID_188_);}
	.st340{fill:url(#SVGID_189_);}
	.st341{fill:url(#SVGID_190_);}
	.st342{fill:url(#SVGID_191_);}
	.st343{fill:url(#SVGID_192_);}
	.st344{fill:url(#SVGID_193_);}
	.st345{fill:url(#SVGID_194_);}
	.st346{fill:url(#SVGID_195_);}
	.st347{fill:url(#SVGID_196_);}
	.st348{fill:url(#SVGID_197_);}
	.st349{fill:url(#SVGID_198_);}
	.st350{fill:url(#SVGID_199_);}
	.st351{fill:url(#SVGID_200_);}
	.st352{fill:url(#SVGID_201_);}
	.st353{fill:url(#SVGID_202_);}
	.st354{fill:url(#SVGID_203_);}
	.st355{fill:url(#SVGID_204_);}
	.st356{fill:url(#SVGID_205_);}
	.st357{fill:url(#SVGID_206_);}
	.st358{fill:url(#SVGID_207_);}
	.st359{fill:url(#SVGID_208_);}
	.st360{fill:url(#SVGID_209_);}
	.st361{fill:url(#SVGID_210_);}
	.st362{fill:url(#SVGID_211_);}
	.st363{fill:url(#SVGID_212_);}
	.st364{fill:url(#SVGID_213_);}
	.st365{fill:url(#SVGID_214_);}
	.st366{fill:url(#SVGID_215_);}
	.st367{fill:url(#SVGID_216_);}
	.st368{fill:url(#SVGID_217_);}
	.st369{fill:url(#SVGID_218_);}
	.st370{fill:url(#SVGID_219_);}
	.st371{fill:url(#SVGID_220_);}
	.st372{fill:url(#SVGID_221_);}
	.st373{fill:url(#SVGID_222_);}
	.st374{fill:url(#SVGID_223_);}
	.st375{fill:url(#SVGID_224_);}
	.st376{fill:url(#SVGID_225_);}
	.st377{fill:url(#SVGID_226_);}
	.st378{fill:url(#SVGID_227_);}
	.st379{fill:url(#SVGID_228_);}
	.st380{fill:url(#SVGID_229_);}
	.st381{fill:url(#SVGID_230_);}
	.st382{fill:url(#SVGID_231_);}
	.st383{fill:url(#SVGID_232_);}
	.st384{fill:url(#SVGID_233_);}
	.st385{fill:url(#SVGID_234_);}
	.st386{fill:url(#SVGID_235_);}
	.st387{fill:url(#SVGID_236_);}
	.st388{fill:url(#SVGID_237_);}
	.st389{fill:url(#SVGID_238_);}
	.st390{fill:url(#SVGID_239_);}
	.st391{fill:none;stroke:#9B9B97;stroke-miterlimit:10;}
	.st392{fill:url(#SVGID_240_);}
	.st393{fill:url(#SVGID_241_);}
	.st394{fill:url(#SVGID_242_);}
	.st395{fill:url(#SVGID_243_);}
	.st396{fill:url(#SVGID_244_);}
	.st397{fill:url(#SVGID_245_);}
	.st398{fill:url(#SVGID_246_);}
	.st399{fill:url(#SVGID_247_);}
	.st400{fill:url(#SVGID_248_);}
	.st401{fill:url(#SVGID_249_);}
	.st402{fill:url(#SVGID_250_);}
	.st403{fill:url(#SVGID_251_);}
	.st404{fill:url(#SVGID_252_);}
	.st405{fill:url(#SVGID_253_);}
	.st406{fill:url(#SVGID_254_);}
	.st407{fill:url(#SVGID_255_);}
	.st408{fill:url(#SVGID_256_);}
	.st409{fill:url(#SVGID_257_);}
	.st410{fill:url(#SVGID_258_);}
	.st411{fill:url(#SVGID_259_);}
	.st412{fill:url(#SVGID_260_);}
	.st413{fill:url(#SVGID_261_);}
	.st414{fill:url(#SVGID_262_);}
	.st415{fill:url(#SVGID_263_);}
	.st416{fill:url(#SVGID_264_);}
	.st417{fill:url(#SVGID_265_);}
	.st418{fill:url(#SVGID_266_);}
	.st419{fill:url(#SVGID_267_);}
	.st420{fill:url(#SVGID_268_);}
	.st421{fill:url(#SVGID_269_);}
	.st422{fill:url(#SVGID_270_);}
	.st423{fill:url(#SVGID_271_);}
	.st424{fill:url(#SVGID_272_);}
	.st425{fill:url(#SVGID_273_);}
	.st426{fill:url(#SVGID_274_);}
	.st427{fill:url(#SVGID_275_);}
	.st428{fill:url(#SVGID_276_);}
	.st429{fill:url(#SVGID_277_);}
	.st430{fill:url(#SVGID_278_);}
	.st431{fill:url(#SVGID_279_);}
	.st432{fill:url(#SVGID_280_);}
	.st433{fill:url(#SVGID_281_);}
	.st434{fill:url(#SVGID_282_);}
	.st435{fill:url(#SVGID_283_);}
	.st436{fill:url(#SVGID_284_);}
	.st437{fill:url(#SVGID_285_);}
	.st438{fill:url(#SVGID_286_);}
	.st439{fill:url(#SVGID_287_);}
	.st440{fill:url(#SVGID_288_);}
	.st441{fill:url(#SVGID_289_);}
	.st442{fill:url(#SVGID_290_);}
	.st443{fill:url(#SVGID_291_);}
	.st444{fill:url(#SVGID_292_);}
	.st445{fill:url(#SVGID_293_);}
	.st446{fill:url(#SVGID_294_);}
	.st447{fill:url(#SVGID_295_);}
	.st448{fill:url(#SVGID_296_);}
	.st449{fill:url(#SVGID_297_);}
	.st450{fill:url(#SVGID_298_);}
	.st451{fill:url(#SVGID_299_);}
	.st452{fill:url(#SVGID_300_);}
	.st453{fill:url(#SVGID_301_);}
	.st454{fill:url(#SVGID_302_);}
	.st455{fill:url(#SVGID_303_);}
	.st456{fill:url(#SVGID_304_);}
	.st457{fill:url(#SVGID_305_);}
	.st458{fill:url(#SVGID_306_);}
	.st459{fill:url(#SVGID_307_);}
	.st460{fill:url(#SVGID_308_);}
	.st461{fill:url(#SVGID_309_);}
	.st462{fill:url(#SVGID_310_);}
	.st463{fill:url(#SVGID_311_);}
	.st464{fill:url(#SVGID_312_);}
	.st465{fill:url(#SVGID_313_);}
	.st466{fill:url(#SVGID_314_);}
	.st467{fill:url(#SVGID_315_);}
	.st468{fill:url(#SVGID_316_);}
	.st469{fill:url(#SVGID_317_);}
	.st470{fill:url(#SVGID_318_);}
	.st471{fill:url(#SVGID_319_);}
	.st472{fill:url(#SVGID_320_);}
	.st473{fill:url(#SVGID_321_);}
	.st474{fill:url(#SVGID_322_);}
	.st475{fill:url(#SVGID_323_);}
	.st476{fill:url(#SVGID_324_);}
	.st477{fill:url(#SVGID_325_);}
	.st478{fill:url(#SVGID_326_);}
	.st479{fill:url(#SVGID_327_);}
	.st480{fill:url(#SVGID_328_);}
	.st481{fill:url(#SVGID_329_);}
	.st482{fill:url(#SVGID_330_);}
	.st483{fill:url(#SVGID_331_);}
	.st484{fill:url(#SVGID_332_);}
	.st485{fill:url(#SVGID_333_);}
	.st486{fill:url(#SVGID_334_);}
	.st487{fill:url(#SVGID_335_);}
	.st488{fill:url(#SVGID_336_);}
	.st489{fill:url(#SVGID_337_);}
	.st490{fill:url(#SVGID_338_);}
	.st491{fill:url(#SVGID_339_);}
	.st492{fill:url(#SVGID_340_);}
	.st493{fill:url(#SVGID_341_);}
	.st494{fill:url(#SVGID_342_);}
	.st495{fill:url(#SVGID_343_);}
	.st496{fill:url(#SVGID_344_);}
	.st497{fill:url(#SVGID_345_);}
	.st498{fill:url(#SVGID_346_);}
	.st499{fill:url(#SVGID_347_);}
	.st500{fill:url(#SVGID_348_);}
	.st501{fill:url(#SVGID_349_);}
	.st502{fill:url(#SVGID_350_);}
	.st503{fill:url(#SVGID_351_);}
	.st504{fill:url(#SVGID_352_);}
	.st505{fill:url(#SVGID_353_);}
	.st506{fill:url(#SVGID_354_);}
	.st507{fill:url(#SVGID_355_);}
	.st508{fill:url(#SVGID_356_);}
	.st509{fill:url(#SVGID_357_);}
	.st510{fill:url(#SVGID_358_);}
	.st511{fill:url(#SVGID_359_);}
	.st512{fill:url(#SVGID_360_);}
	.st513{fill:url(#SVGID_361_);}
	.st514{fill:url(#SVGID_362_);}
	.st515{fill:url(#SVGID_363_);}
	.st516{fill:url(#SVGID_364_);}
	.st517{fill:url(#SVGID_365_);}
	.st518{fill:url(#SVGID_366_);}
	.st519{fill:url(#SVGID_367_);}
	.st520{fill:url(#SVGID_368_);}
	.st521{fill:url(#SVGID_369_);}
	.st522{fill:url(#SVGID_370_);}
	.st523{fill:url(#SVGID_371_);}
	.st524{fill:url(#SVGID_372_);}
	.st525{fill:url(#SVGID_373_);}
	.st526{fill:url(#SVGID_374_);}
	.st527{fill:url(#SVGID_375_);}
	.st528{fill:url(#SVGID_376_);}
	.st529{fill:url(#SVGID_377_);}
	.st530{clip-path:url(#SVGID_379_);}
	.st531{clip-path:url(#SVGID_381_);}
	.st532{fill:#F4F0A6;}
	.st533{clip-path:url(#SVGID_383_);}
	.st534{opacity:0.6;fill:none;stroke:#F7CFA2;stroke-miterlimit:10;}
	.st535{fill:none;stroke:#F7CFA2;stroke-miterlimit:10;}
	.st536{fill:#EAA56C;}
	.st537{clip-path:url(#SVGID_385_);fill:#F7EFDF;}
</style>
<symbol  id="barras" viewBox="-216.8 -86.2 433.6 172.4">
	<g>
		<rect x="113.2" y="-86.2" class="st22" width="103.6" height="30.9"/>
		<text transform="matrix(1 0 0 -1 126.502 -65.4814)" class="st0 st122" style="font-size:15.36px;">Casi Siempre</text>
	</g>
	<rect x="-105.9" y="-35" class="st1" width="87" height="28.2"/>
	<rect x="-215.8" y="-35.3" class="st1" width="87" height="8.8"/>
	<rect x="7.8" y="-35" class="st1" width="87" height="61.7"/>
	<rect x="121.5" y="-35" class="st1" width="87" height="120.1"/>
	<g>
		<rect x="-101.5" y="-73.4" class="st22" width="78" height="18.1"/>
		<text transform="matrix(1 0 0 -1 -95.3037 -65.4814)" class="st0 st122" style="font-size:15.36px;">Casi nunca</text>
	</g>
	<rect x="-105.9" y="-35" class="st2" width="87" height="28.2"/>
	<g>
		<rect x="-192.1" y="-86.2" class="st22" width="39.6" height="30.9"/>
		<text transform="matrix(1 0 0 -1 -191.6748 -65.4814)" class="st0 st122" style="font-size:15.36px;">Nunca</text>
	</g>
	<rect x="-215.8" y="-35.3" class="st2" width="87" height="8.8"/>
	<g>
		<rect x="-3.7" y="-86.2" class="st22" width="110" height="30.9"/>
		<text transform="matrix(1 0 0 -1 9.9785 -65.4795)" class="st0 st122" style="font-size:15.36px;">Algunas veces</text>
	</g>
	<rect x="7.8" y="-35" class="st2" width="87" height="61.7"/>
	<rect x="121.5" y="-35" class="st2" width="87" height="120.1"/>
</symbol>
<g id="Layer_1">
	<circle class="st15" cx="687.4" cy="363.9" r="99.7"/>
	<path class="st16" d="M683,340.5c-0.2-0.5,8-57.3,7.8-57.8c-0.5-1.4-0.5-3.1-0.8-4.7c-0.3-2.4-0.8-4.7-1.4-7
		c-7.9-29.7-36.9-49.4-68-44.9c-33.5,4.8-56.8,35.9-51.9,69.5c2.4,16.5,25.4,58.2,25.8,60.1c12.2-10.2,30.5,0.1,43.1-9.3
		C655.4,333.1,662.8,349.8,683,340.5z"/>
	<path class="st13" d="M763.5,61.3c4.6-4.2,9.3-8.2,14.3-11.5c9-6.1,20.3-9.5,28.8-0.6c14.1,14.6-5.7,36-16.7,45.8
		c-10,8.8-52,41.4-60,14.2c-1.6-5.4,2.3-11.7,4.1-16.1c2.2-5.2,10.9-5.7,11.8-7C750.2,79.4,757.5,66.8,763.5,61.3z"/>
	<g>
		<path class="st14" d="M739.2,110.3c0.2,0,0.4-0.1,0.7-0.1C739.7,110.2,739.4,110.3,739.2,110.3z"/>
	</g>
	<path class="st21" d="M734.1,99.2H621.9c-3.2,0-5.8-2.6-5.8-5.8V65.6c0-3.2,2.6-5.8,5.8-5.8h112.3c3.2,0,5.8,2.6,5.8,5.8v27.7
		C740,96.5,737.3,99.2,734.1,99.2z"/>
	<rect x="637.8" y="70" class="st22" width="81.9" height="28.3"/>
	<text transform="matrix(1 0 0 1 656.784 87.3295)" class="st13 st122 st123">Listo</text>
	<rect x="32.2" y="72.9" class="st22" width="391.9" height="48.3"/>
	<text transform="matrix(1 0 0 1 32.1862 90.2035)" class="st0 st122 st123">Instrucciones</text>
	<rect x="32.2" y="72.9" class="st22" width="391.9" height="48.3"/>
	<text transform="matrix(1 0 0 1 32.1862 90.2035)" class="st0 st122 st123">Instrucciones</text>
	<rect x="34.9" y="28.9" class="st22" width="391.9" height="48.3"/>
	<text transform="matrix(1 0 0 1 34.8918 47.6332)" class="st0 st124 st123">HOla, Kaira POlet ARAYA</text>
	<polyline class="st22" points="684.1,16.9 681.7,65.2 292.2,65.2 	"/>
	<rect x="31.4" y="116.4" class="st22" width="571.9" height="88.3"/>
	<text transform="matrix(1 0 0 1 31.4306 131.0448)" class="st0 st122 st125">He devuelto un golpe cuando alguien me ha golpeado primero.</text>
	<path class="st13" d="M701,265.2c-4.5,3.8-7.7,10.2-13.4,14.1v-0.6c-1.3,3.2-5.1,3.2-7,5.1c-1.3,1.9,4.5,1.9,1.9,4.5
		c12.1-4.3,20.6-13.8,25.9-25.1c-0.5-1.3-1.3-2.6-2.4-3.8c-1.2-1.3-2.6-3.3-3.9-4.5C702.8,259,703,262.9,701,265.2z"/>
	<path class="st126" d="M715.3,323c0,0-13.8,36.4-34.7,31.4S647,339.6,647,339.6l-29.7,61.7c0,0,38.6,79.3,79.3,31.4
		S715.3,323,715.3,323z"/>
	<path class="st65" d="M621.7,400.9c-2.2-3.6-5.2-6.7-8.2-9.7c-4-4-8.6-7.4-13-11c-4.8-3.9-10-8.4-15.2-11.8
		c-6.8-4.5-14.3-7.3-20.8-12.2c-6-4.6-13.1-7.1-19.8-10.6c-2.3-1.2-3.3-1.5-4.6-3.6c1.2-0.9,3.7-8.6,4.1-11.4
		c0.9-6.6,0.7-11.5,3.7-17.4c0.1,0.2,0.5,1,0.8,1c3.2,1.8,4.8,3.2,3.2,1.9c6.4,3.5,11.3,4.1,17.9,7c18.5,8.2,37.8,15.1,55.8,24.5
		c4.2,2.2,9.3,4.3,11.9,8.6"/>
	<g>
		<defs>
			<path id="SVGID_45_" d="M787.6,365.1c0,55.1-44.7,99.7-99.7,99.7s-99.7-44.7-99.7-99.7c0-55.1,44.7-165.7,99.7-165.7
				S787.6,310,787.6,365.1z"/>
		</defs>
		<clipPath id="SVGID_2_">
			<use xlink:href="#SVGID_45_"  style="overflow:visible;"/>
		</clipPath>
		<path style="clip-path:url(#SVGID_2_);fill:#F7CFA2;" d="M677.9,449.5c1.6,7.1,1,15-2.2,20.5c-0.8,1.4-1.7,2.6-2.8,3.7
			c-1,0.7-2.1,1.4-3.3,1.9c-8.9,3.6-19.9,6.6-27.9-0.4c-7-7-1-17-3.6-24.9c-0.1-1.3-0.2-2.6-0.4-3.9c-0.4-3.9-1.1-7.7-1.8-11.7
			c0-1.7,0.1-3.3,0.2-4.9c0.5-1.3,1.2-2.6,1.9-3.8c3.6-6,9.1-10.5,16.6-9.9c7,1,11,5,16.2,9.5c0.9,1.1,1.8,2.2,2.5,3.4
			c0.8,1.2,1.4,2.5,2,3.9c1.7,3.8,2.7,7.8,2.4,13C677.9,447.1,677.9,448.3,677.9,449.5z"/>
		<g class="st12">
			<path class="st65" d="M608.9,339.7c1.5-0.6,3-1.1,4.5-1.5c1.2-0.5,2.5-1,3.7-1.5c1.3-0.7,2.6-1.2,3.9-1.5
				c1.6-0.2,3.3-0.3,5.1-0.4c13.3,0.3,29.3,3.3,35.3,16.3c4,11-5,21-9.7,30.4c-0.6,1.6-1.2,3.3-1.5,5c0.1,1.8,0.1,3.6,0.2,5.4
				s0.2,3.6,0.4,5.5c-7,2.9-13.9,6.2-20.4,9.9c-1.3,0.8-2.6,1.5-3.9,2.3c-1.6,1.5-2.6,4.5-5.3,0.6c-1.1-1.2-2.1-2.5-3.2-3.7
				c-6.2-7.5-11.5-15.5-15.7-24.5c-0.7-1-1.4-2.1-2-3.3c-1.9-3.4-3.4-7.2-5-10.9c-0.7-1.5-1.3-3.1-1.8-4.7
				C589.5,351.7,598.5,343.7,608.9,339.7z"/>
			<path class="st68" d="M654.4,410.6l-6.5,13c0,0-0.7-0.5-1.8-1.4c-1.1-0.8-2.5-1.9-3.9-3c-1.5-0.9-3.5-2.9-5.7-4.4
				c0,0-0.1-0.8-0.1-2.2c-0.1-1.4-0.2-3.5-0.4-6c-0.1-1.7-0.2-3.5-0.3-5.5c-0.7-5.4-0.2-10.7,0.5-15.9c0.3-1.8,0.5-3.5,0.8-5.3
				c1.3-10.7,1.3-21.7-3.7-31.7c0-1,3.5-2.5,4.5-2.5c5.3,4.9,9.5,11.5,10.5,18.5c0,6,2,11,0.4,16.6c-0.1,1.4-0.1,2.8-0.1,4.2
				c0,4.2,0.6,8.4,2.3,12.7c0.5,1.9,1,3.6,1.4,5.2C653.6,407.5,654.4,410.6,654.4,410.6z"/>
			<path class="st68" d="M638,338.3c-1.6-1.2-3.6-3.2-5.6-3.2c-2.8,2.2-4.8,8.4-4.8,8.4s4.5,2.8,5.8,4.6c2-2,4.6-2.3,4.6-2.3
				L638,338.3z"/>
			<path class="st71" d="M611.2,377.7c4.1-3.4,5.6-7.6,5.8-12.2c0.1-1.5,0-3.1,0-4.6c1.2-8.2-5.8-28.2,5.2-23.2c4,2,7,11,13.1,16.5
				c1.1,0.7,2.2,1.2,3.5,1.5c1.2,0.3,2.6,0.5,4,0.4c1.4,0.1,2.9,0.1,4.4,0.1c0.9,1.7,1.7,3.3,2.5,5c8.1,17.5,10.7,37.1,9,56.7
				c-0.1,1.8-0.3,3.6-0.2,5.5c5.2,9.9,17.2,5.9,25.2,6.9c2,1,4,2,5,4c5,10-9,13-16,15c-11,3-21,5-32,4.9c-1.6,0-3.1,0-4.7,0
				c-3.1-0.1-6.3-0.4-9.5-0.9c-1.4-0.5-2.8-1.2-4-2.1c-3.7-2.6-6.5-7-7.7-14c0-3-1-5-1.1-8.3c-0.2-1.8-0.4-3.6-0.6-5.4
				c-0.6-5.4-1.2-10.6-2.9-15c-0.4-1-0.8-2-1.3-3.1c-1.8-3.9-5.2-10.1-6.4-15.8c-0.3-1.4-0.4-2.8-0.4-4.1c0-1.2,0.3-2.3,0.8-3.1
				c0.5-0.9,1.1-1.6,1.8-2.2c1.5-0.5,3.5-2.5,5.5-2.3C610.5,377.9,610.8,377.8,611.2,377.7z"/>
			<path class="st13" d="M632.6,334.4l0.1,0.5c0,0-4.6,13-11.9,10.5c-7.4-2.6-7.5-7.8-7.5-7.8l2-5.1L632.6,334.4z"/>
			<path class="st71" d="M644.6,337.5c0,0,6.5,7.2,5,12.7s-3.8,7.2-3.8,7.2l-15.5,6.8l-0.2,26.5l28-13.2c0,0,1.2-8.7,0.2-20.3
				s-7-16.7-7-16.7L644.6,337.5z"/>
		</g>
	</g>
	
		<ellipse transform="matrix(0.9897 -0.1429 0.1429 0.9897 -33.7143 98.8169)" class="st14" cx="671.3" cy="284.2" rx="10.5" ry="10.5"/>
	
		<ellipse transform="matrix(0.9897 -0.1429 0.1429 0.9897 -33.8399 98.8444)" class="st66" cx="671.4" cy="285.1" rx="6.9" ry="6.9"/>
	
		<ellipse transform="matrix(0.9897 -0.1429 0.1429 0.9897 -35.7561 86.8102)" class="st14" cx="586.7" cy="292.4" rx="10.5" ry="10.5"/>
	
		<ellipse transform="matrix(0.9897 -0.1429 0.1429 0.9897 -35.7561 86.8102)" class="st66" cx="586.7" cy="292.4" rx="6.9" ry="6.9"/>
	<path class="st14" d="M670.6,274.9c-2.8-19.4-24.3-32.4-48.1-29c-23.7,3.4-40.7,22-37.9,41.4c0.6,4.3,2.9,20.3,3.6,24.7
		c2.8,19.4,33.4,31.1,48.1,29c12.9-1.9,40.7-22,37.9-41.4C673.5,295.3,671.2,279.3,670.6,274.9z"/>
	<path class="st129" d="M668.9,313c0-1.1-0.3-2-1.5-2.5c-3.4-1.7-4.3,4.6-3.9,7.1c0,0.2,0,0.3,0.1,0.4c-0.1,0-0.2-0.1-0.3-0.1
		c0-0.5,0-0.9,0-1.4c-1.1-2,0.2-6.7-3.1-6.9c-3.7-0.6-2.7,5.5-1.5,7.8c-0.2,0-0.3,0.1-0.5,0.1c-0.8-2.1-1.1-5.1-3.8-4.8
		c-3.5,0.2-1.8,5.2-0.3,7.6c-0.2,0.4-0.5,0.9-0.6,1.4c-0.1,0.2-0.2,0.5-0.3,0.7c-1.4-1.6-2.9-3.8-5-2.5c-3.4,1.7,1.1,6.3,3.4,7.5
		c0.4,0.2,0.7,0.4,1.1,0.6c0.1,1.8,0.8,3.1,1.8,4.6c6.2-4.7,8.8-7.6,12.2-11.1C669.3,318.5,667.7,316.9,668.9,313z"/>
	<path class="st16" d="M616.9,244.9c0.3-0.6,0.1-1.3-0.5-1.6c0,0,0,0,0,0c-14.5-7.2-32.1-1.2-39.3,13.3c-4.9,10-3.6,21.5,2.4,30
		c0.4,0.6,1.2,0.6,1.7,0.2C594.8,274.3,607.8,260.7,616.9,244.9z"/>
	<path class="st16" d="M663.1,250.5c0.6-0.2,1-0.8,0.8-1.4c0,0,0,0,0,0c-5.2-15.3-21.9-23.5-37.2-18.3
		c-10.6,3.6-17.8,12.6-19.5,22.9c-0.1,0.7,0.4,1.3,1.1,1.3C626.7,255.8,645.5,255.3,663.1,250.5z"/>
	<path class="st16" d="M672.6,276.4c0.4,0.2,0.9-0.1,1.2-0.7c0,0,0,0,0,0c7.1-14.6-4.6-31.8-14.2-39.5c-5.9-4.7-25-11.7-32-4.9
		c-0.5,0.4,18.1,16.8,18.4,17.2C653.6,259.7,662,270,672.6,276.4z"/>
	<g>
		<path class="st72" d="M664.5,295.8c1.2,8.6-1.6,16.2-10.2,17.4s-15.1-5-16.3-13.6c-1.2-8.6,3.2-16.4,11.8-17.7
			C658.4,280.7,663.3,287.1,664.5,295.8z"/>
		
			<ellipse transform="matrix(0.9897 -0.1429 0.1429 0.9897 -35.9477 96.1191)" class="st13" cx="651.4" cy="298.4" rx="13.7" ry="13.7"/>
		<path class="st16" d="M657.6,287.4l-16.8,7.9c-2.4,1.1-5.2,0.1-6.3-2.3l0,0c-1.1-2.4-0.1-5.2,2.3-6.3l16.8-7.9
			c2.4-1.1,5.2-0.1,6.3,2.3l0,0C661,283.5,660,286.3,657.6,287.4z"/>
		
			<ellipse transform="matrix(0.9897 -0.1429 0.1429 0.9897 -35.9477 96.1191)" class="st0" cx="651.4" cy="298.4" rx="6.6" ry="6.6"/>
		<ellipse transform="matrix(0.9897 -0.1429 0.1429 0.9897 -35.9477 96.1191)" cx="651.4" cy="298.4" rx="2.5" ry="2.5"/>
		
			<ellipse transform="matrix(0.9897 -0.1429 0.1429 0.9897 -35.5801 95.7972)" class="st73" cx="649.4" cy="295.7" rx="1.9" ry="1.9"/>
	</g>
	<g>
		<path class="st72" d="M593.4,306c1.2,8.6,6.1,15.1,14.7,13.8c8.6-1.2,13-9,11.8-17.7c-1.2-8.6-7.7-14.9-16.3-13.6
			C595,289.8,592.2,297.4,593.4,306z"/>
		
			<ellipse transform="matrix(0.9897 -0.1429 0.1429 0.9897 -37.3269 89.8042)" class="st13" cx="606.7" cy="304.9" rx="13.7" ry="13.7"/>
		<path class="st16" d="M597.1,295.3l18.4,2.5c2.6,0.4,5-1.5,5.3-4.1l0,0c0.4-2.6-1.5-5-4.1-5.3l-18.4-2.5c-2.6-0.4-5,1.5-5.3,4.1
			l0,0C592.7,292.5,594.5,294.9,597.1,295.3z"/>
		
			<ellipse transform="matrix(0.9897 -0.1429 0.1429 0.9897 -37.3269 89.8042)" class="st0" cx="606.7" cy="304.9" rx="6.6" ry="6.6"/>
		<ellipse transform="matrix(0.9897 -0.1429 0.1429 0.9897 -37.3269 89.8042)" cx="606.7" cy="304.9" rx="2.5" ry="2.5"/>
		
			<ellipse transform="matrix(0.9897 -0.1429 0.1429 0.9897 -36.9565 89.4948)" class="st73" cx="604.8" cy="302.1" rx="1.9" ry="1.9"/>
	</g>
	<path class="st75" d="M649.8,329.4c0,0-6.4,6.7-15.4,8c-8.9,1.3-17-3.3-17-3.3s8.1,0.4,17-0.9C643.4,331.9,649.8,329.4,649.8,329.4
		z"/>
	<path class="st66" d="M632.6,322.4L632.6,322.4c-2.2,0.3-4.2-1.2-4.5-3.4l-2.1-14.2c-0.3-2.2,1.2-4.2,3.4-4.5l0,0
		c2.2-0.3,4.2,1.2,4.5,3.4l2.1,14.2C636.3,320.1,634.8,322.1,632.6,322.4z"/>
	<path class="st14" d="M631.6,319.4L631.6,319.4c-2.2,0.3-4.2-1.2-4.5-3.4l-2.1-14.2c-0.3-2.2,1.2-4.2,3.4-4.5l0,0
		c2.2-0.3,4.2,1.2,4.5,3.4l2.1,14.2C635.2,317.1,633.7,319.1,631.6,319.4z"/>
	<path class="st16" d="M584.8,266.5l3.1,21.4l48.6-7l-0.4-16.3l5.2,15.6c0,0,7.4-0.1,12.8-0.9c4.5-0.7,16.3,4.6,16.3,4.6l-7.2-32.5
		l-62.9-0.7L584.8,266.5z"/>
	<g class="st52">
		<g>
			<path class="st14" d="M630.6,233.1c4.1,0.3,8.7,0.4,12.7,1.2c3.8,0.7,7.3,2.2,10.9,3.3c1.1,0.3,3.4-1.2,1.7-1.7
				c-4.2-1.3-8.1-3-12.6-3.6c-3.8-0.5-7.8-0.6-11.7-1C630.4,231.1,628.6,232.9,630.6,233.1L630.6,233.1z"/>
		</g>
	</g>
	<g>
		<path class="st14" d="M594.4,352.1c0,0.2,0,0.5,0,0.7C594.4,352.6,594.4,352.3,594.4,352.1z"/>
	</g>
	<path class="st14" d="M748.7,269.3l-40.4,70.4c0,0-6.2,13.5,0,21.7c6.2,8.3,93.2-69.4,93.2-69.4L748.7,269.3z"/>
	<path class="st14" d="M724.7,311.1l-16.4,28.5c0,0-6.2,13.5,0,21.7c3,4.1,25.4-12.5,47.5-30.4C744.4,326.6,733.4,319.8,724.7,311.1
		z"/>
	<path class="st13" d="M748.7,269.3l-24,41.8c8.6,8.7,19.7,15.5,31.1,19.8c23-18.7,45.6-38.9,45.6-38.9L748.7,269.3z"/>
	<path class="st16" d="M816.1,277.4c4.6,12.8-7.4,21.8-18.4,25.8c-6,2-12,3-19,2c-17-3-33-6-48-12c-10-4-18-10-26-17
		c-6-6-10-14-11-23c-1-10,2-19,8-27c2-3,5-6,8-7c41-15,74,23,99.6,48.1C812.3,270.6,814.7,274,816.1,277.4z"/>
	<path class="st16" d="M816.1,277.4c-1.4-3.4-3.8-6.8-6.9-10.1c-4.1-4-8.3-8.3-12.8-12.7c-12.8,4.5-24.2,11.9-36.1,18.3
		c13.3,5,26.1,10.3,39.1,15.7c-0.3-0.1-0.5-0.3-0.8-0.4c0.3,0.1,0.5,0.3,0.8,0.4c0.9,0.4,1.7,0.7,2.6,1.1c1.1,0.3,2.3,0.6,3.7,0.6
		c8.7-0.7,10-6.2,10.5-12.6C816.2,277.6,816.2,277.5,816.1,277.4z"/>
	<path class="st177" d="M819.7,275.8c0-10.6-14-11.6-19.6-17.6c-1.1-1-2.1-2.1-3.2-3.2c-23.6-23.3-52.5-48.5-87.2-35.8c-3,1-6,4-8,7
		c-1.6,2.1-3,4.3-4.1,6.6c1.2,3.4,3,6.7,5.1,9.4c3,4,12.2,13.2,17.2,16.2c27.9,20.3,52.1,22.1,82.3,34.3c4.3,0.7,8.1-0.2,10.7-2.2
		c0.9-0.7,1.6-1.5,2.3-2.4c1.5-2.9,3.5-5.9,3.9-10.1C819.4,277.3,819.6,276.6,819.7,275.8z"/>
	<path class="st16" d="M791.5,249.8c-22.5-21.6-49.7-42.2-81.8-30.5c-3,1-6,4-8,7c-0.4,0.6-0.9,1.2-1.3,1.8
		c8.2,18.9,25.9,32.5,44.3,39.2c2.6,0.9,5.2,1.8,7.7,2.7c2.7,1,5.3,2,7.9,2.9c1.2-0.6,2.3-1.3,3.5-1.9c2.6-1.5,5.3-3,7.9-4.4
		c8-4.5,16.1-8.9,24.8-12C794.8,253,793.2,251.4,791.5,249.8z"/>
	<path class="st16" d="M819.6,270.6c-2.9-8.4-9.9-13.4-16.9-18c-0.7-0.4-1.4-0.8-2.1-1.2c-12.8,4.5-20.9,12.9-32.9,19.3
		c1.5,0.6,2.8,1.1,4.1,1.7c0.4,0.2,0.8,0.4,1.2,0.6c1,0.4,1.9,0.9,2.9,1.4c0.9,0.5,1.9,1,2.8,1.6c8,4.1,22.3,10.4,31.8,8.3
		c1.2-0.3,2.3-0.7,3.3-1.2c3.9-1.9,4.9-5.9,6.4-9.2"/>
	<path class="st71" d="M700.2,347.3c-5.4,5.4-12,9-19.6,7.2c-20.9-5-33.6-14.9-33.6-14.9l-29.7,61.7c0,0,38.6,79.3,79.3,31.4
		c4.3-5,7.8-10.2,10.8-15.4C698.7,396.4,695,370.3,700.2,347.3z"/>
	<g>
	</g>
	
		<use xlink:href="#barras"  width="433.6" height="172.4" x="-216.8" y="-86.2" transform="matrix(1 0 0 -1 289.8234 368.5386)" style="overflow:visible;"/>
</g>
<g id="Layer_2">
	<rect x="34.9" y="28.9" class="st22" width="391.9" height="48.3"/>
	<text transform="matrix(1 0 0 1 34.8918 47.6332)" class="st0 st124 st123">HOla, Kaira POlet ARAYA</text>
	<g>
		<g>
			<path class="st14" d="M656.8,393.6c-1.7,1.9-3.5,3.7-5.2,5.6c-2.8,3-5.6,6.1-7.1,9.9s-1.1,8.6,1.9,11.4c1.8,1.6,4.8,2.3,6.5,0.6
				c1.2,0.6,2.3,1.5,3.5,2.1s2.7,0.9,3.9,0.2c1.2-0.7,1.5-2.7,0.3-3.4c1,1.5,3,2.3,4.7,1.8c1.7-0.5,3-2.2,3-4c0-1.2-0.5-2.4-0.6-3.6
				c-0.4-3.7,2.8-6.7,5.7-9"/>
		</g>
		<g>
			<path class="st65" d="M647.6,340.3c9.3-12.5,23.3,2.5,30.7,10c1,1.4,1.9,2.6,2.8,3.8c0.9,1.2,1.7,2.2,2.5,3
				c0.7,1.4,1.4,2.9,2.1,4.4c0.7,1.5,1.3,3.1,2,4.6c0.5,1.1,0.9,2.3,1.3,3.4c1.7,5.8,1.3,11.9-0.1,18.8c-0.4,1.6-0.9,3.1-1.4,4.6
				c-0.5,1.5-1.1,3.1-1.6,4.6c-1.7,3.3-12.6,12.7-15.9,10.7c-5.5-3.4-7.3-10.8-8.2-19.1c-0.2-2.1-0.4-4.2-0.5-6.4
				c0-1.1,0-2.2-0.1-3.2c0.1-1.3,0.1-2.6,0.1-3.9c-0.1-1.3-0.2-2.6-0.5-4c-0.3-1.3-0.6-2.6-1-3.9c-0.3-1.3-0.7-2.5-1-3.7
				c-0.6-2.8-1.4-5.4-2.3-7.9c-0.4-1.3-0.9-2.5-1.4-3.7c-0.2-4.6-5.2-6.6-6.3-10.3C648.3,341.4,647.9,340.8,647.6,340.3z"/>
			<g>
				<path class="st65" d="M653.8,393.2c0.7-2,0.1-4.2,1.2-5.5c0.3-0.6,0.6-1.2,0.9-1.8c0.7-1.2,1.4-2.4,2.1-3.6
					c0.7-1.2,1.4-2.5,2.1-3.7c0.9-0.9,1.6-2.1,2.1-3.3c0.5-1.2,0.9-2.5,1.4-3.8c1.2-8.7,11.2-7.7,16.8-3.4c1,0.9,1.8,2,2.2,3.5
					c1.4,1.7,2.4,3.6,2.6,5.1c0,4.5-0.4,9.8-1.2,14.9c-0.1,0.8-0.3,1.7-0.5,2.5c-0.8,4.8-3.7,11.8-12.5,10.2c-1-0.1-2.1-0.3-3.1-0.5
					c-5.3-1.1-10.9-3.5-13.3-7.6C654,394.8,653.8,394.6,653.8,393.2z"/>
				<path class="st13" d="M654,394.3c-0.2-1-0.3-1.9-0.3-2.8c0-0.7,0.1-1.5,0.2-2.2c0.1-0.7,0.3-1.4,0.5-2.1
					c1.3-2.1,2.9-4.1,4.2-6.2c0.5-0.7,0.9-1.4,1.3-2.1c0.8-1.2,1.4-2.4,1.8-3.6c0.4-1.2,0.6-2.5,0.7-3.7c0.1-1.3,0-2.5,0-3.8
					c-0.1-1.2-0.2-2.5-0.4-3.7c-1.1-3.6-2.2-7.2-3.5-10.6c-0.4-1.1-0.9-2.2-1.4-3.3c-0.4-3.3-2.4-4.3-4.4-6.3c2,2,4,4,4.6,6.3
					c0.6,1.1,1.1,2.2,1.6,3.3c1.5,3.4,2.8,6.9,3.8,10.5c0.3,1.2,0.5,2.4,0.8,3.7c0.2,1.2,0.5,2.5,0.7,3.7c0,1.4-0.1,2.7-0.4,4
					c-0.3,1.3-0.8,2.5-1.5,3.7c-0.4,0.8-0.9,1.5-1.4,2.2c-1.5,2.2-3.2,4.3-4.6,6.4c-0.4,0.7-0.8,1.5-1.1,2.3
					c-0.3,0.8-0.6,1.6-0.8,2.3C654.3,393.4,654.2,394.1,654,394.3z"/>
				<path class="st13" d="M654,393.8c-1.2,1.4-3.4,8.2-3.3,8.9c5.7,0.3,15.4,1.7,21.6,5.8c0.6-2.1,4.3-6.5,4.1-7.4
					C669.6,397.4,661.4,395.1,654,393.8z"/>
			</g>
		</g>
	</g>
	<g>
		<g>
			<path class="st153" d="M804.7,284.4c-17.4,10.9-32.8,26.3-46.3,41.5c-13.8,15.6-26.1,32.5-35.9,50.9c-0.8,1.5,1.4,2.7,2.2,1.3
				c10.9-17.7,23-34.7,36.8-50.2c13.7-15.4,29.2-28.1,44.7-41.5C807.3,285.5,805.9,283.7,804.7,284.4L804.7,284.4z"/>
		</g>
	</g>
	<g>
		<g>
			<path class="st153" d="M773.3,266c-6.4,3.3-12.1,8.3-17.7,12.8c-6.2,5.1-12.2,10.3-18,15.8c-11.1,10.5-21.6,21.6-30.6,34
				c-1.2,1.7,1.4,3.7,2.9,2.2c10.5-10.8,20.8-21.9,31.7-32.3c5.3-5.1,10.8-10.1,16.3-15c5.7-5,12.1-9.6,17.3-15.1
				C776.4,267.1,774.9,265.2,773.3,266L773.3,266z"/>
		</g>
	</g>
	<g>
		<g>
			<path class="st153" d="M739.6,241.8c-11.3,7.4-20.3,20.1-28.3,30.7c-9,12-16.6,24.9-23,38.4c-0.7,1.4,1.4,2.6,2.1,1.2
				c6.6-12.7,14.2-25,22.6-36.7c4.3-6,8.8-11.8,13.6-17.3c4.5-5.2,9.7-10.1,13.6-15.8C740.3,242.1,739.9,241.6,739.6,241.8
				L739.6,241.8z"/>
		</g>
	</g>
	<g>
		<g>
			<path class="st153" d="M686.9,275.3c-3.9,5.3,5.5,12.7,8.9,15.6c7.2,6.1,14.7,11.8,22.5,17c7.9,5.3,16.1,10,24.5,14.3
				c8.3,4.2,17.1,8.5,26.3,10.2c2.2,0.4,3.6-2.5,1.6-3.7c-7.4-4.3-15.5-7.3-23.2-11c-7.7-3.8-15.3-8-22.6-12.5
				c-7.6-4.7-15-9.8-22-15.3c-3-2.4-6-4.7-8.8-7.4c-2.3-2.3-3.8-5.8-6.6-7.5C687.2,275.1,687,275.2,686.9,275.3L686.9,275.3z"/>
		</g>
	</g>
	<g>
		<g>
			<path class="st14" d="M547.3,316c-2.4-0.9-4.8-1.7-7.1-2.6c-3.8-1.4-7.8-2.8-11.9-2.6s-8.4,2.4-9.8,6.2c-0.8,2.3-0.2,5.3,2,6.2
				c0,1.4-0.5,2.7-0.6,4c-0.1,1.4,0.2,2.9,1.3,3.7s3.1,0.3,3.2-1.1c-1,1.5-0.9,3.6,0.2,5c1.1,1.4,3.2,1.9,4.9,1.2
				c1.1-0.5,2-1.4,3.1-2c3.2-1.8,7.2,0,10.5,1.7"/>
		</g>
		<g>
			<path class="st13" d="M553.9,316.8c-1.2-1.2-7-3-7.6-2.9c-0.8,5.5-3,14.9-7.2,21c1.8,0.5,5.4,3.9,6.2,3.7
				C549.1,332,552,324,553.9,316.8z"/>
		</g>
	</g>
</g>
</svg>
