<?xml version="1.0" encoding="utf-8"?>
<!-- Generator: Adobe Illustrator 21.1.0, SVG Export Plug-In . SVG Version: 6.00 Build 0)  -->
<svg version="1.1" xmlns="http://www.w3.org/2000/svg" xmlns:xlink="http://www.w3.org/1999/xlink" x="0px" y="0px"
	 viewBox="0 0 300 450" style="enable-background:new 0 0 300 450;" xml:space="preserve">
<style type="text/css">
	.st0{fill:#B27E49;}
	.st1{fill:#ECB8FF;}
	.st2{display:none;opacity:0.3;}
	.st3{fill:#F4E44A;}
	.st4{clip-path:url(#SVGID_2_);fill:#F1F3F7;}
	.st5{opacity:0.4;clip-path:url(#SVGID_2_);fill:#DCDDE0;}
	.st6{clip-path:url(#SVGID_2_);fill:#0076B7;}
	.st7{clip-path:url(#SVGID_2_);fill:#FFFFFF;}
	.st8{clip-path:url(#SVGID_2_);}
	.st9{fill:#FFFFFF;}
	.st10{clip-path:url(#SVGID_2_);fill:#F7CFA2;}
	.st11{fill:#F7CFA2;}
	.st12{fill:#F0BA7A;}
	.st13{fill:#601515;}
	.st14{fill:url(#SVGID_3_);}
	.st15{opacity:0.1;fill:#601515;}
	.st16{fill:#F9F9F9;}
	.st17{fill:url(#SVGID_4_);}
	.st18{fill:url(#SVGID_5_);}
	.st19{fill:url(#SVGID_6_);}
	.st20{fill:#EA6D50;}
	.st21{opacity:0.3;fill:#601515;}
	.st22{fill:#5B1010;}
	.st23{opacity:0.6;}
	.st24{fill:#A52323;}
	.st25{opacity:0.2;}
	.st26{fill:url(#SVGID_7_);}
	.st27{fill:#CE6117;}
	.st28{fill:url(#SVGID_8_);}
	.st29{fill:#8454D1;}
	.st30{clip-path:url(#SVGID_10_);fill:#393D47;}
	.st31{clip-path:url(#SVGID_10_);fill:#F0BA7A;}
	.st32{clip-path:url(#SVGID_10_);fill:#F1F3F7;}
	.st33{clip-path:url(#SVGID_10_);fill:#0076B7;}
	.st34{clip-path:url(#SVGID_10_);fill:#004868;}
	.st35{opacity:0.4;clip-path:url(#SVGID_10_);fill:#DCDDE0;}
	.st36{clip-path:url(#SVGID_10_);fill:#FFFFFF;}
	.st37{clip-path:url(#SVGID_10_);}
	.st38{fill:#393D47;}
	.st39{fill:url(#SVGID_11_);}
	.st40{fill:#EAA56C;}
	.st41{clip-path:url(#SVGID_13_);fill:#F1F3F7;}
	.st42{clip-path:url(#SVGID_13_);fill:#F0BA7A;}
	.st43{opacity:0.4;clip-path:url(#SVGID_13_);fill:#DCDDE0;}
	.st44{clip-path:url(#SVGID_13_);fill:#0076B7;}
	.st45{clip-path:url(#SVGID_13_);fill:#FFFFFF;}
	.st46{clip-path:url(#SVGID_13_);}
	.st47{clip-path:url(#SVGID_13_);fill:#F7CFA2;}
	.st48{fill:#F1F3F7;}
	.st49{fill:none;}
	.st50{fill:#A85848;}
	.st51{fill:#E85646;}
	.st52{fill:#EA4E39;}
	.st53{fill:#DCFFC5;}
	.st54{fill:#8BAA77;}
	.st55{clip-path:url(#SVGID_15_);fill:#F1F3F7;}
	.st56{opacity:0.4;clip-path:url(#SVGID_15_);fill:#DCDDE0;}
	.st57{clip-path:url(#SVGID_15_);fill:#0076B7;}
	.st58{clip-path:url(#SVGID_15_);fill:#FFFFFF;}
	.st59{clip-path:url(#SVGID_15_);}
	.st60{fill:#595959;}
	.st61{opacity:0.3;fill:#595959;}
	.st62{clip-path:url(#SVGID_27_);fill:#F1F3F7;}
	.st63{opacity:0.4;clip-path:url(#SVGID_27_);fill:#DCDDE0;}
	.st64{clip-path:url(#SVGID_27_);fill:#0076B7;}
	.st65{clip-path:url(#SVGID_27_);fill:#FFFFFF;}
	.st66{clip-path:url(#SVGID_27_);}
	.st67{clip-path:url(#SVGID_27_);fill:#F7CFA2;}
	.st68{opacity:0.7;fill:#7BCDDB;}
	.st69{fill:none;stroke:#F0BA7A;stroke-width:3;stroke-miterlimit:10;}
	.st70{clip-path:url(#SVGID_41_);fill:#F1F3F7;}
	.st71{opacity:0.4;clip-path:url(#SVGID_41_);fill:#DCDDE0;}
	.st72{clip-path:url(#SVGID_41_);fill:#0076B7;}
	.st73{clip-path:url(#SVGID_41_);fill:#FFFFFF;}
	.st74{clip-path:url(#SVGID_41_);}
	.st75{clip-path:url(#SVGID_41_);fill:#F7CFA2;}
	.st76{fill:#9E9E9E;}
	.st77{fill:#878787;}
	.st78{fill:#DDBD00;}
	.st79{clip-path:url(#SVGID_43_);fill:#F1F3F7;}
	.st80{opacity:0.4;clip-path:url(#SVGID_43_);fill:#DCDDE0;}
	.st81{clip-path:url(#SVGID_43_);fill:#0076B7;}
	.st82{clip-path:url(#SVGID_43_);fill:#FFFFFF;}
	.st83{clip-path:url(#SVGID_43_);}
	.st84{clip-path:url(#SVGID_43_);fill:#F7CFA2;}
	.st85{clip-path:url(#SVGID_45_);}
	.st86{opacity:0.4;fill:#DCDDE0;}
	.st87{fill:#0076B7;}
	.st88{opacity:0.3;}
	.st89{fill:#DCDDE0;}
	.st90{fill:#004868;}
	.st91{fill:#E02B41;}
	.st92{fill:#C69018;}
	.st93{fill:#EFE91B;}
	.st94{fill:#656D60;}
	.st95{clip-path:url(#SVGID_47_);fill:#F0BA7A;}
	.st96{clip-path:url(#SVGID_47_);fill:#F1F3F7;}
	.st97{opacity:0.4;clip-path:url(#SVGID_47_);fill:#DCDDE0;}
	.st98{clip-path:url(#SVGID_47_);fill:#0076B7;}
	.st99{clip-path:url(#SVGID_47_);fill:#FFFFFF;}
	.st100{clip-path:url(#SVGID_47_);}
	.st101{clip-path:url(#SVGID_47_);fill:#F7CFA2;}
	.st102{clip-path:url(#SVGID_49_);fill:#F1F3F7;}
	.st103{clip-path:url(#SVGID_49_);}
	.st104{fill:#B23C18;}
	.st105{fill:#6B2A05;}
	.st106{fill:#B23C18;stroke:#6B2A05;stroke-miterlimit:10;}
	.st107{fill:#DDAA78;}
	.st108{fill:#211205;}
	.st109{fill:none;stroke:#6B2A05;stroke-width:0.729;stroke-miterlimit:10;}
	.st110{fill:#B23C18;stroke:#6B2A05;stroke-width:0.729;stroke-miterlimit:10;}
	.st111{fill:#B72C34;}
	.st112{clip-path:url(#SVGID_51_);fill:#F1F3F7;}
	.st113{clip-path:url(#SVGID_51_);}
	.st114{clip-path:url(#SVGID_51_);fill:#F7CFA2;}
	.st115{fill:#F2C85F;}
	.st116{clip-path:url(#SVGID_53_);fill:#F0BA7A;}
	.st117{clip-path:url(#SVGID_53_);fill:#F1F3F7;}
	.st118{opacity:0.4;clip-path:url(#SVGID_53_);fill:#DCDDE0;}
	.st119{clip-path:url(#SVGID_53_);fill:#0076B7;}
	.st120{clip-path:url(#SVGID_53_);fill:#FFFFFF;}
	.st121{clip-path:url(#SVGID_53_);}
	.st122{clip-path:url(#SVGID_53_);fill:#F7CFA2;}
	.st123{clip-path:url(#SVGID_55_);}
	.st124{fill:#F4F0A6;}
	.st125{fill:#9E921E;}
	.st126{clip-path:url(#SVGID_57_);fill:#F0BA7A;}
	.st127{clip-path:url(#SVGID_57_);fill:#F1F3F7;}
	.st128{clip-path:url(#SVGID_57_);}
	.st129{clip-path:url(#SVGID_57_);fill:#393D47;}
	.st130{clip-path:url(#SVGID_57_);fill:#FFFFFF;}
	.st131{opacity:0.4;clip-path:url(#SVGID_57_);fill:#DCDDE0;}
	.st132{clip-path:url(#SVGID_57_);fill:#0076B7;}
	.st133{fill:#1F74C9;}
	.st134{clip-path:url(#SVGID_59_);}
	.st135{fill:#023142;}
	.st136{clip-path:url(#SVGID_61_);fill:#F7CFA2;}
	.st137{clip-path:url(#SVGID_61_);}
	.st138{opacity:0.3;fill:#E57257;}
	.st139{fill:#777777;}
	.st140{clip-path:url(#SVGID_63_);fill:#F1F3F7;}
	.st141{opacity:0.4;clip-path:url(#SVGID_63_);fill:#DCDDE0;}
	.st142{clip-path:url(#SVGID_63_);fill:#0076B7;}
	.st143{clip-path:url(#SVGID_63_);fill:#FFFFFF;}
	.st144{clip-path:url(#SVGID_63_);}
	.st145{clip-path:url(#SVGID_63_);fill:#F7CFA2;}
	.st146{clip-path:url(#SVGID_65_);fill:#F0BA7A;}
	.st147{clip-path:url(#SVGID_65_);fill:#F1F3F7;}
	.st148{opacity:0.4;clip-path:url(#SVGID_65_);fill:#DCDDE0;}
	.st149{clip-path:url(#SVGID_65_);fill:#0076B7;}
	.st150{clip-path:url(#SVGID_65_);fill:#FFFFFF;}
	.st151{clip-path:url(#SVGID_65_);}
	.st152{clip-path:url(#SVGID_65_);fill:#F7CFA2;}
</style>
<g id="Layer_1">
	<g>
		<defs>
			<path id="SVGID_34_" d="M248,218.6c0,55.1-44.7,99.7-99.7,99.7s-99.7-44.7-99.7-99.7S93.2,52.8,148.3,52.8
				C203.3,52.8,248,163.5,248,218.6z"/>
		</defs>
		<clipPath id="SVGID_2_">
			<use xlink:href="#SVGID_34_"  style="overflow:visible;"/>
		</clipPath>
	</g>
	<g>
		<circle class="st133" cx="147.1" cy="216.9" r="99.7"/>
		<path class="st54" d="M218.1,287.5c-0.6-3.1-1.6-6.2-3.3-8.8c-0.6-1.8-1.3-3.5-1.9-5.2c-0.5-1.4-1.1-2.9-1.6-4.3
			c-0.5-1.4-1-2.9-1.5-4.3c-4.9-11-3.9-22-3.9-33.6c0.2-2.3,0.4-4.6,0.7-6.9c0.6-4.6,1.3-9.2,1.9-13.8c0.3-2,0.5-4.1,0.8-6.1
			c0.9-2.3,1.4-4.6,1.5-7c0.5-11.8-8.7-23.6-22-23.6c-6,0-13-3-16,2c-4.5,5.5-6.5,11.5-8,17.6c-0.5,2-0.9,4.1-1.4,6.2
			c-1.4,3.8-2.2,7.6-2.4,11.4c-0.1,1.9-0.1,3.8,0,5.6c0.8,14.2,1.9,20.9,6.2,34.4c2.7,8.6,16.6,51.8,20.4,57
			C203.5,300.8,216.1,289.2,218.1,287.5z"/>
		<g>
			<path class="st11" d="M48.1,229.1c0.1,0.3,0.1,0.5,0.2,0.8C48.2,229.6,48.2,229.3,48.1,229.1z"/>
		</g>
		<path class="st11" d="M47.9,228.4c0.1,0.2,0.1,0.4,0.2,0.7C48,228.8,48,228.6,47.9,228.4z"/>
		<path class="st54" d="M98.1,216c1.1,5.8,5.6,5.5,9.6,7.6c1.4,0.5,2.9,1,4.3,1.4c2.9,0.9,5.8,1.9,8.4,3.6c1.9,1.1,3.6,2.2,4.9,3.5
			c2.5,2.5,3.2,5.5,0.6,8.9c-3.6,5.6-9.6,5.5-15.2,4.1c-1.9-0.5-3.7-1.1-5.5-1.8c-7.7-3.3-16.8-4.2-24.3-7.1
			c-1.9-0.7-3.6-1.6-5.2-2.6c-5-5.4-5.9-11.1-4.3-16.9c0.5-1.9,1.3-3.8,2.3-5.7c9-10.7,19.7-28.7,34.4-26.4c1.1,0.6,2.7,3,3.2,4.7
			c1.9,9.8-6.9,15.1-11.5,22C99.1,212.9,98.5,214.5,98.1,216z"/>
		<path class="st60" d="M95,231c-0.1,1.5-0.4,2.9-1,4.1c-0.5,1.3-1.3,2.5-2.1,3.7c-4.4,5.6-14,15.8-6.5,18.7
			c7.7,3.6,12-7.6,17.5-12.9c1-1.1,2-2.1,3-3.2c2.4-2.5,4.8-4.5,5.6-8.1c0.7-3.1,0-6.6-2-9c-2-2.4-4.9-3.8-7.8-4.8
			c-4.9-1.6-30.6-7.6-27.1,4.6c0.4,1.3,1.3,2.3,2.5,3c3.8,2.7,9.4,1.9,14.7,2.1C93.1,229.5,94.2,230.2,95,231z"/>
		<path class="st54" d="M212.6,144.8c-0.9-3.4-4.1-5.5-7.4-5.1c2.9-6.6,2.6-14.6-2.2-22.2c-0.8-1.2-1.8-2.3-2.8-3.4
			c-1-1.1-2.2-2.1-3.4-3c-8.6-6.2-20.8-5.5-30.3-2.3c-2.9,0.7-4.2,4-6.9,5.7c-1.2,1.3-1.9,2.8-2.5,4.2c-0.2,0.5-0.4,0.9-0.5,1.3
			c-5.5,1.7-10.2,5.8-12.3,11.7c-2.5,6.9-0.9,14.2,3.6,19.3c0.3,0.3,0.8,0.3,1.1,0c0.1-0.1,0.1-0.1,0.2-0.2l0.2,0.8
			c0.1,0.7,0.2,1.4,0.3,2.1c-3.4,1.1-5.5,4.7-4.6,8.2c0.9,3.5,4.4,5.7,7.9,5.1c0.4,1.4,0.7,2.6,0.8,3.3
			c3.1,12.4,23.8,17.9,33.2,15.5c8.3-2.1,25-17,21.8-29.5c-0.2-0.7-0.5-1.9-0.9-3.3C211.5,151.9,213.5,148.3,212.6,144.8z"/>
		<path class="st54" d="M114.5,203.7c-0.1,1.9-0.5,3.6-1.2,5.2s-1.6,3.1-2.6,4.6c-5.5,7-17.5,19.8-8.1,23.4c6.2,2.9,11-2.5,14.5-7
			c2-2.6,3.8-5.3,5.9-7.8c2.3-2.7,5.1-4.9,7.4-7.6c3-3.3,5.4-7.4,5.2-11.8c-0.3-4.7-3.6-8.8-7.7-11.2c-5.7-3.4-43.7-12.8-39.1,3.4
			c0.9,3,4.2,4.6,7,5.4c2.3,0.7,4.8,0.8,7.2,0.9c2.1,0.1,5.3-0.7,7.3,0C112.1,202,113.5,202.7,114.5,203.7z"/>
		<path class="st54" d="M221.5,201c-0.2,2.1-0.8,4.1-1.7,5.9s-2,3.5-3.3,5.1c-6.8,7.7-21.3,21.7-10.8,26.4
			c10.8,5.8,17.8-10,26.1-17.3c1.5-1.5,3-2.9,4.6-4.4c3.6-3.4,7.3-6.1,8.6-11.2c1.2-4.4,0.5-9.4-2.2-13.2c-2.6-3.6-6.7-5.9-10.9-7.5
			c-6.9-2.7-43.4-13.2-39.4,4.5c0.4,2,1.7,3.4,3.4,4.4c5.3,4.2,13.4,3.5,21,4.2C218.8,198.8,220.4,199.8,221.5,201z"/>
		<path class="st60" d="M242.8,111.6c-7-0.4-12.6,1.3-16.8,4.7c0.1-0.2,0.1-0.4,0.2-0.6c0.3-1.5,1.3-4.3,1.3-4.3s-3.2,1.3-4.1,3
			c-0.5,0.9-0.5,2.7-0.4,4.2c-1.3-0.7-3.5-1.7-4.8-1.6c-1.9,0.2-4.3,2.7-4.3,2.7s2.2,0.1,3.8,0.2c-3.8,1.1-7.3,3.3-9.9,6.6
			c-4.5,5.8-5.2,13.3-2.5,19.5c0.2,0.4,0.7,0.6,1.1,0.3c0.1,0,0.1-0.1,0.2-0.1l0,0.9c-0.1,0.7-0.3,1.4-0.3,2.1
			c-3.6,0-6.6,2.8-6.9,6.4c-0.2,3.6,2.4,6.8,6,7.2c-0.1,1.4-0.2,2.7-0.2,3.4c-0.8,12.8,17.2,24.3,26.9,24.9
			c8.5,0.5,29-8.6,29.8-21.4c0-0.7,0.1-1.9,0.2-3.4c3.6,0,6.7-2.8,6.9-6.4c0.2-3.6-2.3-6.7-5.8-7.2l0.4-3c0.1-0.9,0.2-1.8,0.3-2.6
			l0.3-2.6c1.2,2.5,2.6-0.2,4.8-1.2c0.4-2.2,0.7-4.1,0.8-5.2C270.7,122.8,258.1,112.5,242.8,111.6z"/>
		<path class="st60" d="M198.5,232.1c1-10.8,2-20.8,7-30.6c0.8-1.5,1.7-2.9,2.7-4.1c3-3.6,6.9-5.8,12.4-5.4c1.8,0.1,3.8,0.5,6,1.3
			c27,11,22.5,40.5,11.9,61.8c-0.9,2.3-3,6.8-4.1,9c-5,10.8-13.9,22.1-21.7,27.8c-2.7,2-12.6,10.3-12.9,9.5
			c-0.6-1.7-0.9-20.3-0.7-22.2c0.4-3.3-0.6-15.8,0.1-25.1c0.2-2.3,0.3-4.7,0.3-7.1c0-2.4-0.2-4.8-0.7-7.1
			C198.6,237.2,198.5,234.5,198.5,232.1z"/>
		<path class="st60" d="M251.1,221.7c-0.6,1.8-1.5,3.3-2.6,4.6s-2.4,2.6-3.8,3.7c-7.3,5.2-22.3,14.2-14.3,20.2
			c5.2,4.5,11.3,0.7,15.8-2.7c2.6-1.9,5.1-4.1,7.9-5.9c3-1.9,6.2-3.4,9.2-5.2c3.7-2.3,7.2-5.6,8.2-9.9c1-4.6-1.1-9.4-4.3-12.8
			c-4.6-4.8-38.5-24.4-38.5-7.5c0,3.1,2.8,5.6,5.2,7.2c2.1,1.3,4.4,2.1,6.7,2.8c2,0.6,5.3,0.8,7,2
			C249.3,219.3,250.4,220.4,251.1,221.7z"/>
		<path class="st60" d="M196.7,196.7c-0.9,1.6-1.9,3.7-2.8,5.8c-1,2.2-1.9,4.5-2.8,6.6c-0.8,2.1-1.5,4.1-2.4,6.2
			c-4.1,10.2-9.1,20.1-12.9,30.8c-0.7,2.2-1.2,4.4-1.6,6.5c-2,10.6,0,19.3,11.4,19.3c4.6,0,6.6-5.4,7.9-12.8
			c0.3-1.9,0.6-3.8,0.9-5.9c1.3-11.6,5.7-22.2,10.3-32.7c0.9-2.1,1.8-4.2,2.7-6.3c2.3-3.6,3.5-7.4,4.3-11.2c0.4-1.9,0.7-3.8,1.1-5.6
			c0.2-2.4,0.2-3.4,1.2-5.4c-4,0-9,1-12.7,2.3C199.8,194.8,198.3,195.7,196.7,196.7z"/>
		<path class="st60" d="M224.6,165.5c-3,6.7-6,13.4-8.5,20.5c-0.7,2.2-1.2,4.4-1.6,6.5c-2,10.6,0,19.3,11.4,19.3
			c4.6,0,6.6-5.4,7.9-12.8c0.3-1.9,0.6-3.8,0.9-5.9c0.9-8.4,3.5-16.3,6.6-23.9C235.5,168.2,230,167,224.6,165.5z"/>
		<path class="st60" d="M110.9,226.4c0.9,1.2,1.9,2.2,3,3s2.4,1.4,3.7,2c6.7,2.4,20.3,6.1,15.4,12.4c-4.6,7.1-14.2-0.1-21.7-1.8
			c-1.4-0.4-2.8-0.8-4.2-1.1c-3.3-0.8-6.5-1.3-9-3.9c-2.2-2.3-3.4-5.6-3-8.8c0.4-3.1,2.1-5.8,4.1-8.2c3.3-3.9,22-22.6,25.4-10.5
			c0.4,1.3,0.1,2.6-0.6,3.8c-1.8,4.3-7,6.6-11.4,9.6C111.8,224.2,111.2,225.3,110.9,226.4z"/>
		<path class="st54" d="M271.8,200.5c0,5.4-5.6,10.1-13.9,12.7c-2.1,0.6-4.3,1.1-6.7,1.6c-10.8,1.4-16.8,12.4-27.8,12.4
			c-1,0-3-1-4-2c-6-12,5-25,13-33c5-4,12-7,18.8-5.8c2.4,0.3,4.6,0.8,6.7,1.4C266.3,190.4,271.8,195.1,271.8,200.5z"/>
		<path class="st54" d="M164.5,180.5c-15.1,10.7-30.7,24.8-32.2,44.5c-0.3,2.1-0.5,4.1-0.5,6.1c0,6,1.9,11.4,8.5,14.2
			c3.5,0.9,8.6-2.4,9.5-5.9c0.5-1.8,0.9-3.7,1.1-5.6c0.2-1.9,0.4-3.8,0.5-5.7c-1.5-18.4,18.7-25.9,24.3-40.5
			c0.1-2.8-1.7-9.3-6.6-7.9C167.6,179.7,166,179.9,164.5,180.5z"/>
		<path class="st38" d="M145.2,258.6c-0.2-0.3,0.2-46.3,0-46.7c-0.6-1.1-0.7-2.4-1.1-3.6c-0.5-1.9-1.2-3.7-1.9-5.4
			c-9.4-22.7-34.6-35.2-58.8-28.3c-26.1,7.5-41.1,34.6-33.7,60.7c3.7,12.8,26.4,43.4,26.9,44.9c8.5-9.4,24.2-3.2,33.2-12
			C122.5,255.7,130.2,268.2,145.2,258.6z"/>
		<g>
			<defs>
				<path id="SVGID_58_" d="M248.1,217c0,55.1-44.7,99.7-99.7,99.7S48.6,272.1,48.6,217S93.3,51.3,148.3,51.3
					C203.4,51.3,248.1,161.9,248.1,217z"/>
			</defs>
			<clipPath id="SVGID_3_">
				<use xlink:href="#SVGID_58_"  style="overflow:visible;"/>
			</clipPath>
			<g style="clip-path:url(#SVGID_3_);">
				<path class="st48" d="M133.9,285.2c-1.9-9.7,0.7-18.1-6.1-20.2c-4.1-1.2-11-0.7-15.7,0.2L93.4,270c-5.7,1.5-14.5,5.4-17.8,9.6
					c-4.1,5.1,2.9,10.7,4.6,19.2L99.1,349c0.8,4.2,4,20.8,6.1,24.1c20-3.3,15.4-5.2,35.3-9.6c1.1-4.6-0.9-9.1-2-14.2L133.9,285.2z"
					/>
				<path class="st48" d="M79.5,277.5l3.1,2.6c4,0.5,5.9,10.7,4.3,22.7l-2.1,23.6l-1.5,27.5c-0.9,6.5-1.2,11.8-3.2,14.5
					c-1.6,2.3-4.7,3.1-6.5,2.9l-5.9-0.8c-1.5-0.2-4-1.4-4.9-3.3c-1.6-3.1-0.9-8.2,0.1-15.7c0,0,4.2-37.6,3.4-28.2
					c-0.8,9.4,1.6-15.4,3.7-28.2C72.1,282.5,75.5,277,79.5,277.5z"/>
				<path class="st48" d="M144,281c-1-1.7-1.9-3.3-2.8-4.7c-6.8-11-11.9-12.6-15.4-10.6l-2,1.4c-3.5,2-1.4,12.2,4.7,22.6l4.2,8.1
					C135.6,291.3,139,285.5,144,281z"/>
				<path class="st12" d="M105.6,270.4l-4.3,0.9c-4.3,0.8-8.4-1.9-9.3-6.2L89.4,252c-0.8-4.3,1.9-8.4,6.2-9.3l4.3-0.9
					c4.3-0.8,8.4,1.9,9.3,6.2l2.6,13.1C112.6,265.4,109.8,269.6,105.6,270.4z"/>
				<polygon class="st86" points="107.9,293.2 102.9,267.9 112.7,271.2 				"/>
				<polygon class="st86" points="107.9,293.2 102.8,267.6 95,274.5 				"/>
				<polygon class="st87" points="110.1,270.4 103,268 98.4,273.8 103.1,279.8 107.6,279 				"/>
				<polygon class="st87" points="124.9,334.4 119.6,346.2 109.2,338.8 103.1,279.8 107.6,279 				"/>
				<path class="st9" d="M102.8,267.6l0.1,0.5c0,0-2,11.4-6.9,9c-4.9-2.4-5.4-7-5.4-7l0.9-4.5L102.8,267.6z"/>
				<path class="st9" d="M103,267.5l0.1,0.5c0,0,6.2,9.8,9.8,5.7s2.3-8.5,2.3-8.5l-2.5-3.8L103,267.5z"/>
				<g class="st88">
					<polygon class="st89" points="120.2,310.5 128.5,313.7 135.2,307.5 132.4,293.5 117.4,296.5 					"/>
					
						<rect x="116.5" y="289" transform="matrix(0.9809 -0.1944 0.1944 0.9809 -54.237 29.6839)" class="st89" width="15.3" height="4.5"/>
				</g>
				<path class="st90" d="M136.5,301c0-4.6-0.2-9-0.3-13.3c-0.9-0.6-1.8-1.2-2.7-1.8c-6.6-5.2-9.5-13.4-10.1-21.7
					c-2.3-0.1-4.8,0-7,0.2c0.7,3.8,1.2,7.6,1.5,11.5c0.4,2.2-0.6,4.4-1.2,6.8c-0.7,2.1-2.6,3.9-4.7,4.9
					c-12.3,5.7-21.3-4.4-24.9-15.4c-3.4,1.4-4.4,1.6-6.8,3.6c2.5,6,2.6,16-0.7,23.3C90.1,324,99.3,348.6,97.7,376
					c16.2-3,32.3-7.1,48.4-10.8C139.6,344.5,136.2,323.5,136.5,301z"/>
			</g>
		</g>
		<ellipse transform="matrix(0.9614 -0.275 0.275 0.9614 -61.889 26.6339)" class="st11" cx="64" cy="234" rx="8.4" ry="8.4"/>
		<ellipse transform="matrix(0.9614 -0.275 0.275 0.9614 -61.889 26.6339)" class="st12" cx="64" cy="234" rx="5.5" ry="5.5"/>
		
			<ellipse transform="matrix(0.9614 -0.275 0.275 0.9614 -54.1801 43.9957)" class="st11" cx="129.8" cy="215.2" rx="8.4" ry="8.4"/>
		
			<ellipse transform="matrix(0.9614 -0.275 0.275 0.9614 -54.1801 43.9957)" class="st12" cx="129.8" cy="215.2" rx="5.5" ry="5.5"/>
		<path class="st11" d="M128.3,208c-4.3-15.1-22.8-23.1-41.2-17.8c-18.4,5.3-29.9,21.8-25.6,36.9c1,3.4,4.5,15.8,5.5,19.2
			c4.3,15.1,29.8,21,41.2,17.8c10.1-2.9,29.9-21.8,25.6-36.9C132.8,223.8,129.2,211.3,128.3,208z"/>
		<path class="st68" d="M90.5,247.1c0.7,2.4,3.2,3.8,5.6,3.1c2.4-0.7,3.8-3.2,3.1-5.6c-0.7-2.4-7.3-9.1-7.3-9.1
			S89.8,244.7,90.5,247.1z"/>
		<path class="st38" d="M82.4,190c0.2-0.5-0.1-1-0.5-1.2c0,0,0,0,0,0c-12.3-4.1-25.6,2.5-29.7,14.8c-2.8,8.5-0.6,17.4,5.2,23.5
			c0.4,0.4,1,0.4,1.4,0C68.1,215.7,76.9,203.5,82.4,190z"/>
		<path class="st38" d="M119.7,189.4c0.5-0.2,0.7-0.8,0.5-1.2c0,0,0,0,0,0c-5.8-11.6-19.9-16.3-31.5-10.5c-8,4-12.7,11.9-13,20.3
			c0,0.5,0.4,1,1,0.9C91.4,197.5,106.2,195.1,119.7,189.4z"/>
		<path class="st38" d="M130,208.9c0.3,0.1,0.7-0.2,0.9-0.6c0,0,0,0,0,0c4-12.3-7.1-24.7-15.6-29.7c-5.2-3.1-21.1-6.6-25.9-0.4
			c-0.3,0.4,16.2,11.4,16.5,11.7C113.1,197.7,120.9,205,130,208.9z"/>
		<g>
			<path class="st15" d="M124.6,217.2c1.9,6.7,0.5,13-6.2,14.9c-6.7,1.9-12.5-2.3-14.4-9c-1.9-6.7,0.7-13.4,7.4-15.3
				C118.1,205.9,122.7,210.5,124.6,217.2z"/>
			<ellipse transform="matrix(0.9614 -0.275 0.275 0.9614 -56.2779 39.9928)" class="st9" cx="114.5" cy="220.7" rx="11" ry="11"/>
			
				<ellipse transform="matrix(0.9614 -0.275 0.275 0.9614 -55.2121 40.9441)" class="st13" cx="118.4" cy="217.4" rx="5.3" ry="5.3"/>
			<ellipse transform="matrix(0.9614 -0.275 0.275 0.9614 -55.2121 40.9441)" cx="118.4" cy="217.4" rx="2" ry="2"/>
			
				<ellipse transform="matrix(0.9614 -0.275 0.275 0.9614 -54.7543 40.3403)" class="st16" cx="116.5" cy="215.4" rx="1.5" ry="1.5"/>
			<path class="st38" d="M121.1,214.8l-14.8,1.3c-2.1,0.2-3.9-1.4-4.1-3.4l0,0c-0.2-2.1,1.4-3.9,3.4-4.1l14.8-1.3
				c2.1-0.2,3.9,1.4,4.1,3.4l0,0C124.8,212.7,123.2,214.6,121.1,214.8z"/>
		</g>
		<g>
			<path class="st15" d="M69.4,233c1.9,6.7,6.5,11.3,13.2,9.4c6.7-1.9,9.4-8.6,7.4-15.3c-1.9-6.7-7.7-11-14.4-9
				C68.9,220,67.4,226.3,69.4,233z"/>
			<ellipse transform="matrix(0.9614 -0.275 0.275 0.9614 -60.3462 30.8301)" class="st9" cx="79.8" cy="230.6" rx="11" ry="11"/>
			<path class="st38" d="M70.9,232l10.4-10.6c1.5-1.5,1.4-3.9,0-5.4v0c-1.5-1.5-3.9-1.4-5.4,0l-10.4,10.6c-1.5,1.5-1.4,3.9,0,5.4h0
				C67.1,233.5,69.5,233.5,70.9,232z"/>
			
				<ellipse transform="matrix(0.9614 -0.275 0.275 0.9614 -59.2104 32.0541)" class="st13" cx="84.7" cy="227.2" rx="5.3" ry="5.3"/>
			<ellipse transform="matrix(0.9614 -0.275 0.275 0.9614 -59.2104 32.0541)" cx="84.7" cy="227.2" rx="2" ry="2"/>
			
				<ellipse transform="matrix(0.9614 -0.275 0.275 0.9614 -58.7445 31.4683)" class="st16" cx="82.9" cy="225.2" rx="1.5" ry="1.5"/>
			<path class="st68" d="M79.6,236.3c-4.5-0.3-2.6,3.2-5.5,1.4c-1.1-1-2.2-1-3.2-0.5c2.6,3.6,7.3,5.3,11.8,4
				c4.5-1.3,7.6-5.3,7.9-9.7C87.3,230.3,84.1,236.6,79.6,236.3z"/>
		</g>
		<path class="st20" d="M92.4,258.6c0,0,4.8-5.7,11.8-7.2c7.1-1.5,13.7,1.7,13.7,1.7s-6.5,0.1-13.5,1.6
			C97.3,256.3,92.4,258.6,92.4,258.6z"/>
		<path class="st12" d="M100.6,238.5L100.6,238.5c-1.7,0.5-3.4-0.5-3.9-2.2l-3.2-11c-0.5-1.7,0.5-3.4,2.2-3.9h0
			c1.7-0.5,3.4,0.5,3.9,2.2l3.2,11C103.3,236.3,102.3,238,100.6,238.5z"/>
		<path class="st11" d="M99.5,236.3L99.5,236.3c-1.7,0.5-3.4-0.5-3.9-2.2l-3.2-11c-0.5-1.7,0.5-3.4,2.2-3.9h0
			c1.7-0.5,3.4,0.5,3.9,2.2l3.2,11C102.1,234,101.2,235.8,99.5,236.3z"/>
		<path class="st38" d="M58.3,202.6l4.8,16.7l37.7-10.8l-2.1-12.9l5.8,11.8c0,0,5.9-0.9,10.1-2.1c3.5-1,13.4,1.9,13.4,1.9l-9.2-25
			l-49.9,6.2L58.3,202.6z"/>
		<g class="st23">
			<path class="st11" d="M83.3,179.2c6.5-1.2,12.5-2.4,19.2-1.8c0.6,0.1,1.6-0.9,0.6-0.9c-6.9-0.6-12.9,0.6-19.6,1.8
				C82.7,178.4,82.3,179.4,83.3,179.2L83.3,179.2z"/>
		</g>
		<path class="st68" d="M121.2,223.6c-4.3-2-4.7,2.3-7.2,2.8c-1,0.2-2.2-2.5-3.4-0.8c-1.7,2.5-2.3,2.4-4.3,2.4c2.7,3,7,4.4,11.2,3.2
			c4.7-1.3,7.8-5.6,8-10.2c-0.8-0.1-1.8-0.5-2.3-0.1C122.2,221.6,122.9,224.4,121.2,223.6z"/>
		<path class="st68" d="M90.5,247.1c0.7,2.4,3.2,3.8,5.6,3.1c2.4-0.7,3.8-3.2,3.1-5.6c-0.7-2.4-7.3-9.1-7.3-9.1
			S89.8,244.7,90.5,247.1z"/>
		<path class="st68" d="M79.6,236.3c-4.5-0.3-2.6,3.2-5.5,1.4c-1.1-1-2.2-1-3.2-0.5c2.6,3.6,7.3,5.3,11.8,4c4.5-1.3,7.6-5.3,7.9-9.7
			C87.3,230.3,84.1,236.6,79.6,236.3z"/>
		<path class="st68" d="M121.2,223.6c-4.3-2-4.7,2.3-7.2,2.8c-1,0.2-2.2-2.5-3.4-0.8c-1.7,2.5-2.3,2.4-4.3,2.4c2.7,3,7,4.4,11.2,3.2
			c4.7-1.3,7.8-5.6,8-10.2c-0.8-0.1-1.8-0.5-2.3-0.1C122.2,221.6,122.9,224.4,121.2,223.6z"/>
		<g>
			<path class="st11" d="M158.5,228.9c0,2.7-1.8,4.9-4,4.9s-4-2.2-4-4.9c0-2.7-0.9-4.9,4-4.9C156.7,224.1,158.5,226.2,158.5,228.9z"
				/>
			<path class="st48" d="M131.6,280.8c-0.3,4,3.1,8.9,8.9,9.7c0.9,0.1,1.8,0.2,2.8,0.1c0.9-0.1,1.9-0.3,2.8-0.7
				c0.6-0.2,1.2-0.5,1.8-0.8c2.4-1.1,4.5-2.5,6.2-3.9c7.2-6.5,8.1-15,9-23.4c0-3.2-4.3-14.2-7.2-13.6c-7.5,1.5-12.5,12.9-17.6,22.8
				c-0.2,0.4-0.5,0.9-0.7,1.3c-1.2,2.8-3.7,4.8-4.8,7.2C132.4,280,132,280.4,131.6,280.8z"/>
			<g>
				<path class="st48" d="M139.4,255.3c-0.2,1.8-1.4,3.4-1.1,4.8c0,0.6,0,1.2,0,1.7c0.1,2.3,0.2,4.7,0.3,7.2c0,0.7,0.1,1.3,0.1,2
					c0.2,4.6,0.5,9.1,6,12.4c0.6,0.2,1.4,0.2,2.1,0.1c3.1-0.4,7.1-2.8,8.5-5.2c1.6-3.6,3.2-8,4.4-12.4c0.2-0.7,0.4-1.4,0.6-2.2
					c1.1-4.1,1.6-10.7-5.1-12.1c-0.7-0.2-1.5-0.4-2.4-0.6c-4.1-0.8-8.8-0.6-11.9,2C140.1,254.1,139.9,254.2,139.4,255.3z"/>
				<path class="st9" d="M139.9,254.5c-0.5,0.7-0.9,1.4-1.2,2.1c-0.3,0.6-0.5,1.2-0.6,1.8c-0.2,0.6-0.3,1.2-0.4,1.8
					c0.2,2.1,0.5,4.2,0.7,6.3c0.1,0.7,0.1,1.4,0.2,2.1c-0.2,4.1-0.1,8.9-4,12.2c5.4-2.6,5.8-7.5,5.8-11.6c0-0.7-0.1-1.5-0.2-2.2
					c-0.3-2.2-0.7-4.5-0.9-6.6c0-0.7,0-1.4,0.1-2.2c0.1-0.7,0.1-1.4,0.3-2.1C139.8,255.3,140,254.6,139.9,254.5z"/>
				<path class="st9" d="M139.7,254.9c-0.4-1.6,0.5-7.7,0.8-8.2c4,1.6,11.3,3.5,17,2.1c-0.3,1.9,0.6,6.6,0.2,7.3
					C151.8,256.8,145.3,256.2,139.7,254.9z"/>
				<g>
					<path class="st11" d="M146.2,226.8c-1.6,0.7-2.3,2.5-2.9,4.2c-1,3-1.9,6-2.2,9.2c-0.3,3.1,0,6.4,1.5,9.2l12.3,0.7
						c2-0.3,3.6-2,4.3-3.9c0.8-2.1,0.8-4.5,0.3-6.8c-0.5-2.2-1.4-4.4-2.3-6.5L146.2,226.8z"/>
					<g>
						<path class="st11" d="M145.7,226.7c-3,2.1-3.8,6.2-4.6,9.6c-1.1,4.5-1.1,8.8,0.8,13.1c0,0.1,0.2,0.1,0.3,0.2
							c5.4,0.3,14.5,3.1,17.5-3c2.1-4.3,0.8-11.9-3.1-14.6c-3-2.1-6.5-3.7-9.7-5.5c-0.4-0.2-1.7,0.4-1.4,0.5c2.9,1.7,5.9,3.3,8.8,5
							c2.5,1.4,3.1,3,4,5.9c1,3.6,1.6,10.5-3.2,11.7c-1.4,0.4-3.6-0.2-5-0.3c-1.7-0.1-4.5,0.3-6.1-0.4c-5.4-2.3-1.6-19.2,2.7-22.2
							C147.5,226.4,146,226.5,145.7,226.7z"/>
					</g>
				</g>
			</g>
			<g>
				<path class="st11" d="M151.4,225.7c0.1-4.7,0.4-9.3,0.8-14c0.2-1.7,0.2-3.7-1.1-4.8c-1.3-1.1-3.5-0.5-4.7,0.8
					c-1.2,1.3-1.6,3.1-1.9,4.8c-1.7,8.6-2.5,17.9,1.4,25.8"/>
				<g>
					<path class="st12" d="M152.1,225.7c0.1-3.5,0.3-7,0.5-10.5c0.2-2,1-5.5,0-7.4c-1.3-2.4-4.2-2.2-6.1-0.7
						c-3.4,2.6-3.5,9.1-3.9,13c-0.6,6.4-0.1,12.6,2.5,18.5c0.3,0.6,1.7,0.2,1.5-0.4c-3.4-7.4-3.2-15.3-1.8-23.2
						c0.2-1.2,0.5-5.4,1.6-6.1c1.7,0.2,3.4,0.3,5.1,0.5c0.1,1.4,0,2.8-0.2,4.2c-0.3,4.1-0.6,8.1-0.7,12.2
						C150.6,226.5,152.1,226.3,152.1,225.7L152.1,225.7z"/>
				</g>
			</g>
			<g>
				<path class="st11" d="M151.4,224.4c-0.6,3.3-0.3,6.7,0.8,9.9c0.3,0.8,0.6,1.6,1.2,2.2c0.6,0.6,1.5,0.9,2.3,0.6
					c0.7-0.3,1.2-1,1.5-1.7c1.2-2.8,0.9-6,0.5-9c-0.1-0.4-0.1-0.9-0.4-1.3c-0.2-0.4-0.6-0.7-1-0.9
					C154.6,223.3,153,223.4,151.4,224.4c1.7-0.8,3.1-1,4.9-0.5c0.6,0.2,1.2,0.4,1.8,0.4c0.7,0,1.3-0.2,2-0.2
					c1.3,0.1,2.2,1.3,2.8,2.5c1,2,1.6,4.4,1,6.6c-0.3,1.1-0.9,2.1-1.9,2.6c-1.1,0.5-2.2,0.4-3.1-0.4c-0.9-0.7-0.6-0.4-1.1-1.4"/>
				<g>
					<path class="st12" d="M150.7,224.5c-0.5,3.4-0.8,9.6,2,12.2c1.5,1.4,3.7,1,4.8-0.6c1.6-2.4,2-8.7,0.5-11.2
						c-1.5-2.4-4.9-1.9-6.9-0.6c-0.8,0.5,0.3,0.7,0.7,0.5c2.2-1.1,3.8-0.2,6-0.1c2.1,0.1,3.4,0.2,4.4,2.1c0.7,1.2,1.1,2.7,1.2,4.1
						c0,0.5,0.1,2.5-0.4,3.1c-1.3,0.3-2.6,0.6-3.9,0.8c-0.3-0.3-0.5-0.6-0.6-0.9c-0.2-0.5-1.7,0-1.5,0.4c0.9,2,3.1,2.7,5.1,1.9
						c2.4-0.9,3-3.7,2.7-6.1c-0.3-2.3-1.6-6-4.4-6.4c-0.9-0.1-1.9,0.1-2.8,0c-0.8-0.1-1.5-0.4-2.4-0.5c-1.5-0.1-2.8,0.3-4.1,0.9
						c0.2,0.2,0.5,0.3,0.7,0.5c4.4-2.8,5.1,2.1,5.2,4.6c0.1,1.2,0.1,2.4-0.1,3.6c-0.1,0.6-0.2,1.2-0.4,1.8c0,1.2-0.6,1.7-1.6,1.5
						c-3.7,0.2-3.3-9.5-2.9-11.8C152.2,223.8,150.7,224,150.7,224.5L150.7,224.5z"/>
				</g>
			</g>
			<g>
				<path class="st11" d="M144.8,248.7c0-0.9,1-1.5,1.8-2c2-1.1,3.8-2.8,5-4.7c1.2-1.8,1.9-4.3,0.4-5.9c-1.1-1.2-3.1-1.3-4.6-0.5
					c-1.5,0.7-2.6,2.1-3.6,3.4"/>
				<g>
					<path class="st12" d="M145.5,248.6c0.3-1.4,3.1-2.6,4.1-3.6c0.9-0.8,1.7-1.7,2.4-2.7c1.1-1.6,2.2-4,1.1-5.9
						c-2.6-4.4-8.1,0.3-10,2.6c-0.4,0.4,1.1,0.3,1.4,0c0.6-0.8,1.3-1.8,2.1-2.4c2-1.5,4.6-1.5,5.3,0.9c0.6,1.9-0.6,4.1-1.7,5.5
						c-1.3,1.6-2.7,2.6-4.4,3.8c-0.9,0.6-1.5,1-1.8,2.1C143.9,249.3,145.4,249.1,145.5,248.6L145.5,248.6z"/>
				</g>
			</g>
		</g>
		<g>
			<path class="st12" d="M151.7,242.6c-1.1-2.2-3.4-3.5-5.8-3.4c-0.9,0-1.1,1.1-0.1,1.1c1.8-0.1,3.7,1.1,4.4,2.7
				C150.5,243.7,152,243.2,151.7,242.6L151.7,242.6z"/>
		</g>
	</g>
</g>
<g id="Layer_2">
</g>
</svg>
