<svg xmlns="http://www.w3.org/2000/svg" xmlns:xlink="http://www.w3.org/1999/xlink" viewBox="0 0 300 450"><defs><clipPath id="a81e70ea-e115-42c9-8196-482642446cd3"><path d="M248.9,217.27a99.73,99.73,0,0,1-199.47,0c0-55.08,44.65-165.73,99.73-165.73S248.9,162.18,248.9,217.27Z" style="fill:none"/></clipPath></defs><title>juego2_ilust</title><g id="80719427-d09e-4ea8-b46a-fd0c5cd7fcc2" data-name="Layer 1"><circle cx="150" cy="217.41" r="99.73" style="fill:#dcffc5"/></g><g id="2be07e68-29de-4a45-ae2f-4ff860fc91bb" data-name="Layer 2"><circle cx="148.7" cy="217.04" r="99.73" style="fill:#ecb8ff"/><path d="M144.34,190.67c-.19-.46,8-57.35,7.84-57.82a28.35,28.35,0,0,1-.76-4.65,62,62,0,0,0-1.43-7A61.34,61.34,0,0,0,30,145.72c2.38,16.49,25.38,58.22,25.76,60.09,12.15-10.22,30.5.11,43.09-9.31C116.73,183.22,124.13,200,144.34,190.67Z" style="fill:#393d47"/><path d="M162.35,115.36c-4.48,3.84-7.68,10.24-13.44,14.08v-.64c-1.28,3.2-5.12,3.2-7,5.12-1.28,1.92,4.48,1.92,1.92,4.48,12.06-4.31,20.63-13.83,25.93-25.05a11.2,11.2,0,0,0-2.45-3.78c-1.25-1.3-2.55-3.26-3.92-4.48C164.11,109.17,164.32,113,162.35,115.36Z" style="fill:#fff"/><path d="M176.64,176.18s-13.77,36.36-34.71,31.4-33.61-14.87-33.61-14.87l-29.75,61.7s38.56,79.33,79.33,31.4S176.64,176.18,176.64,176.18Z" style="fill:#023142"/><path d="M124.81,200.79a44,44,0,0,1-4.3,7.32,48.26,48.26,0,0,1-5.42,6.25c-2,1.51-4,4.51-6,5.51-22,10-51,3-68,28-2,4-23,7-23,2,2-31,30-71,69-58.37A75.31,75.31,0,0,1,96,193.75a69.43,69.43,0,0,1,16.12,7.45" style="fill:#f1f3f7"/><g style="clip-path:url(#a81e70ea-e115-42c9-8196-482642446cd3)"><path d="M139.19,301.65c1.63,7.14,1,15-2.2,20.5a16.17,16.17,0,0,1-2.83,3.69,21.62,21.62,0,0,1-3.26,1.91c-8.88,3.63-19.88,6.63-27.88-.37-7-7-1-17-3.59-24.93-.09-1.3-.21-2.6-.35-3.89-.44-3.88-1.12-7.75-1.76-11.69,0-1.71.14-3.31.21-4.85a31.32,31.32,0,0,1,1.89-3.79c3.57-6,9.11-10.48,16.61-9.85,7,1,11,5,16.21,9.5a29.2,29.2,0,0,1,2.52,3.43,30.67,30.67,0,0,1,2,3.86,27.54,27.54,0,0,1,2.43,13C139.24,299.26,139.23,300.45,139.19,301.65Z" style="fill:#f7cfa2"/><path d="M70.18,191.84a44.66,44.66,0,0,1,4.47-1.46c1.24-.52,2.49-1,3.74-1.5a15.77,15.77,0,0,1,3.89-1.49,48.49,48.49,0,0,1,5.06-.38c13.28.28,29.28,3.28,35.28,16.28,4,11-5,21-9.72,30.4a33.1,33.1,0,0,0-1.55,5c.06,1.77.11,3.56.19,5.37s.18,3.64.35,5.48a166.12,166.12,0,0,0-20.4,9.94q-1.95,1.14-3.85,2.33c-1.63,1.52-2.63,4.52-5.26.57-1.08-1.25-2.12-2.48-3.15-3.73a116.67,116.67,0,0,1-15.74-24.54c-.72-1-1.39-2.13-2-3.26-1.9-3.41-3.44-7.23-5-10.86a38.19,38.19,0,0,1-1.81-4.73C50.79,203.8,59.86,195.83,70.18,191.84Z" style="fill:#f1f3f7"/><path d="M115.76,262.7l-6.53,13-1.78-1.37-3.91-3c-1.52-.94-3.52-2.94-5.68-4.4l-.14-2.22-.37-6L97,253.22a57.45,57.45,0,0,1,.54-15.94c.26-1.75.54-3.51.82-5.26,1.25-10.74,1.25-21.74-3.75-31.74,0-1,3.49-2.49,4.49-2.49,5.28,4.86,9.51,11.49,10.51,18.49,0,6,2,11,.44,16.56-.06,1.39-.1,2.78-.09,4.18a33.77,33.77,0,0,0,2.29,12.73l1.41,5.22Z" style="fill:#0076b7"/><path d="M99.26,190.45c-1.64-1.17-3.64-3.17-5.64-3.17-2.79,2.23-4.83,8.42-4.83,8.42s4.51,2.82,5.83,4.58A8.75,8.75,0,0,1,99.2,198Z" style="fill:#0076b7"/><path d="M72.5,229.87c4.13-3.39,5.58-7.61,5.82-12.17.09-1.52,0-3.07,0-4.64,1.2-8.23-5.8-28.23,5.2-23.23,4,2,7,11,13.12,16.5a12.51,12.51,0,0,0,3.46,1.51,12.14,12.14,0,0,0,4,.35c1.45.08,2.92.08,4.39.08q1.34,2.48,2.53,5c8.14,17.5,10.74,37.15,9,56.74a52.73,52.73,0,0,0-.22,5.47c5.24,9.85,17.24,5.85,25.24,6.85,2,1,4,2,5,4,5,10-9,13-16,15-11,3-21,5-32,4.89q-2.34.07-4.7,0a76.59,76.59,0,0,1-9.53-.85,16.77,16.77,0,0,1-4-2.06c-3.72-2.61-6.47-7-7.72-14,0-3-1-5-1.13-8.3-.21-1.79-.39-3.59-.58-5.38-.57-5.37-1.2-10.62-2.88-15-.41-1-.83-2-1.25-3.05-1.83-3.88-5.24-10.07-6.42-15.78a16,16,0,0,1-.37-4.11,7.2,7.2,0,0,1,.77-3.14A6.82,6.82,0,0,1,66,232.36c1.53-.52,3.53-2.52,5.45-2.26C71.78,230,72.14,230,72.5,229.87Z" style="fill:#004868"/><path d="M93.91,186.56l.08.52s-4.56,13-11.91,10.45-7.45-7.79-7.45-7.79l2-5.09Z" style="fill:#fff"/><path d="M106,189.62s6.5,7.17,5,12.67-3.83,7.17-3.83,7.17l-15.5,6.83-.17,26.5,28-13.17a102.84,102.84,0,0,0,.17-20.33c-1-11.67-7-16.67-7-16.67Z" style="fill:#004868"/></g><circle cx="132.63" cy="134.34" r="10.53" transform="translate(-17.83 20.32) rotate(-8.21)" style="fill:#f7cfa2"/><circle cx="132.76" cy="135.23" r="6.94" transform="translate(-17.96 20.35) rotate(-8.21)" style="fill:#f0ba7a"/><circle cx="47.99" cy="142.55" r="10.53" transform="translate(-19.87 8.32) rotate(-8.21)" style="fill:#f7cfa2"/><circle cx="47.99" cy="142.55" r="6.94" transform="translate(-19.87 8.32) rotate(-8.21)" style="fill:#f0ba7a"/><path d="M131.92,125.08c-2.8-19.43-24.32-32.39-48.06-29s-40.71,22-37.91,41.38l3.56,24.68c2.8,19.43,33.37,31.09,48.06,29,12.95-1.87,40.71-22,37.91-41.38Z" style="fill:#f7cfa2"/><path d="M130.17,163.15a2.34,2.34,0,0,0-1.5-2.47c-3.4-1.7-4.31,4.65-3.86,7.14,0,.16,0,.3.05.45l-.3-.12a13.86,13.86,0,0,0,0-1.43c-1.06-2,.16-6.69-3.14-6.93-3.68-.55-2.7,5.49-1.53,7.84l-.51.1c-.77-2.12-1.12-5.15-3.75-4.78-3.5.21-1.83,5.25-.27,7.57a6,6,0,0,0-.6,1.39c-.09.24-.17.48-.25.73-1.44-1.64-2.91-3.84-5-2.55-3.42,1.75,1.1,6.32,3.36,7.45a5.69,5.69,0,0,0,1.06.56,9.76,9.76,0,0,0,1.75,4.56,87.46,87.46,0,0,0,12.24-11.14C130.62,168.63,129,167,130.17,163.15Z" style="fill:#e57257;opacity:0.300000011920929"/><path d="M78.17,95a1.13,1.13,0,0,0-.47-1.57h0a29.32,29.32,0,0,0-36.83,43.33,1.14,1.14,0,0,0,1.69.17C56.14,124.49,69.12,110.87,78.17,95Z" style="fill:#393d47"/><path d="M124.42,100.67a1.13,1.13,0,0,0,.78-1.44h0a29.32,29.32,0,0,0-56.69,4.6,1.14,1.14,0,0,0,1.07,1.32C88,105.91,106.82,105.46,124.42,100.67Z" style="fill:#393d47"/><path d="M133.93,126.5c.37.22.93-.07,1.21-.65h0c7.06-14.57-4.61-31.84-14.25-39.46-5.92-4.68-25-11.69-32-4.87C88.43,82,107,98.31,107.3,98.72,114.87,109.79,123.34,120.13,133.93,126.5Z" style="fill:#393d47"/><path d="M125.82,145.91c1.25,8.64-1.57,16.2-10.21,17.45s-15.07-5-16.32-13.62,3.16-16.43,11.8-17.67S124.57,137.27,125.82,145.91Z" style="fill:#601515;opacity:0.100000001490116"/><circle cx="112.72" cy="148.54" r="13.72" transform="translate(-20.06 17.63) rotate(-8.21)" style="fill:#fff"/><path d="M118.92,137.53l-16.79,7.92a4.76,4.76,0,0,1-6.31-2.25h0a4.73,4.73,0,0,1,2.25-6.29L114.86,129a4.76,4.76,0,0,1,6.31,2.25h0A4.73,4.73,0,0,1,118.92,137.53Z" style="fill:#393d47"/><circle cx="112.72" cy="148.54" r="6.57" transform="translate(-20.06 17.63) rotate(-8.21)" style="fill:#601515"/><circle cx="112.72" cy="148.54" r="2.54" transform="translate(-20.06 17.63) rotate(-8.21)"/><circle cx="110.67" cy="145.82" r="1.87" transform="translate(-19.7 17.3) rotate(-8.21)" style="fill:#f9f9f9"/><path d="M54.75,156.16C56,164.8,60.84,171.26,69.48,170s13-9,11.8-17.67S73.6,137.47,65,138.72,53.5,147.52,54.75,156.16Z" style="fill:#601515;opacity:0.100000001490116"/><circle cx="68.06" cy="154.99" r="13.72" transform="translate(-21.44 11.31) rotate(-8.21)" style="fill:#fff"/><rect x="54.25" y="137.25" width="28.02" height="9.46" rx="4.73" ry="4.73" transform="translate(116.8 291.86) rotate(-172.26)" style="fill:#393d47"/><circle cx="68.06" cy="154.99" r="6.57" transform="translate(-21.44 11.31) rotate(-8.21)" style="fill:#601515"/><circle cx="68.06" cy="154.99" r="2.54" transform="translate(-21.44 11.31) rotate(-8.21)"/><circle cx="66.09" cy="152.25" r="1.87" transform="translate(-21.07 11) rotate(-8.21)" style="fill:#f9f9f9"/><path d="M111.07,179.5s-6.43,6.68-15.36,8-17-3.3-17-3.3a99,99,0,0,0,17-.88A76.12,76.12,0,0,0,111.07,179.5Z" style="fill:#ea6d50"/><rect x="88.37" y="150.33" width="7.95" height="22.31" rx="3.97" ry="3.97" transform="translate(-22.12 14.85) rotate(-8.21)" style="fill:#f0ba7a"/><rect x="87.31" y="147.34" width="7.95" height="22.31" rx="3.97" ry="3.97" transform="translate(-21.71 14.67) rotate(-8.21)" style="fill:#f7cfa2"/><path d="M46.14,116.65l3.09,21.43,48.57-7-.43-16.29,5.24,15.59a115.74,115.74,0,0,0,12.83-.94c4.52-.69,16.27,4.63,16.27,4.63l-7.18-32.5-62.86-.75Z" style="fill:#393d47"/><g style="opacity:0.600000023841858"><path d="M91.9,83.22c4.1.35,8.71.44,12.7,1.18,3.81.7,7.26,2.15,10.91,3.26,1.05.32,3.41-1.22,1.73-1.73-4.19-1.27-8.13-3-12.57-3.57-3.84-.54-7.82-.64-11.69-1-1.24-.11-3,1.67-1.08,1.84Z" style="fill:#f7cfa2"/></g><path d="M55.74,202.26c0,.23,0,.45,0,.68Q55.73,202.59,55.74,202.26Z" style="fill:#f7cfa2"/><path d="M210,119.39l-40.37,70.39s-6.21,13.46,0,21.74,93.17-69.36,93.17-69.36Z" style="fill:#f7cfa2"/><path d="M185.05,161.24l-16.37,28.55s-6.21,13.46,0,21.74c3,4.06,25.45-12.49,47.52-30.44A87.19,87.19,0,0,1,185.05,161.24Z" style="fill:#f7cfa2"/><path d="M209,119.39l-24,41.84a87.19,87.19,0,0,0,31.15,19.85c23-18.7,45.65-38.92,45.65-38.92Z" style="fill:#fff"/><path d="M277.44,127.57c4.58,12.8-7.42,21.8-18.42,25.8a40,40,0,0,1-19,2c-17-3-33-6-48-12-10-4-18-10-26-17a38.4,38.4,0,0,1-11-23c-1-10,2-19,8-27,2-3,5-6,8-7,41-15,74,23,99.56,48.09A34.59,34.59,0,0,1,277.44,127.57Z" style="fill:#393d47"/><path d="M277.44,127.57a34.59,34.59,0,0,0-6.86-10.11c-4.07-4-8.33-8.32-12.79-12.71-12.8,4.47-24.16,11.88-36.14,18.31,13.29,5,26.13,10.33,39.13,15.69l-.76-.38.76.38,2.56,1.05a11.94,11.94,0,0,0,3.68.57c8.7-.72,10-6.18,10.5-12.55Z" style="fill:#393d47"/><path d="M281,126c0-10.59-14-11.59-19.58-17.61l-3.19-3.15C234.68,81.94,205.71,56.68,171,69.37c-3,1-6,4-8,7a44.86,44.86,0,0,0-4.1,6.56,35.39,35.39,0,0,0,5.1,9.44c3,4,12.24,13.2,17.24,16.2,27.9,20.29,52.13,22.1,82.34,34.35,4.33.65,8.05-.17,10.67-2.2a10.09,10.09,0,0,0,2.25-2.44c1.49-2.91,3.49-5.91,3.91-10.07C280.66,127.47,280.87,126.72,281,126Z" style="fill:#777"/><path d="M252.79,99.89C230.24,78.32,203.08,57.64,171,69.37c-3,1-6,4-8,7-.44.59-.87,1.19-1.27,1.79C170,97,187.65,110.69,206,117.37q3.89,1.35,7.7,2.74,4,1.46,7.93,2.95,1.74-.93,3.47-1.89c2.65-1.47,5.27-3,7.9-4.44,8-4.53,16.07-8.93,24.78-12Q255.33,102.33,252.79,99.89Z" style="fill:#393d47"/><path d="M280.92,120.75c-2.9-8.38-9.9-13.38-16.9-18l-2.12-1.2C249.11,106,241,114.48,229,120.91c1.5.57,2.83,1.14,4.05,1.73l1.18.59c1,.45,1.94.93,2.88,1.44s1.86,1,2.79,1.55c8,4.11,22.28,10.36,31.85,8.28a13.18,13.18,0,0,0,3.35-1.19c3.87-1.93,4.87-5.93,6.37-9.24" style="fill:#393d47"/><path d="M160.54,200.39c-5.39,5.35-12,9-19.61,7.19-20.93-5-33.6-14.87-33.6-14.87l-29.75,61.7s38.56,79.33,79.33,31.4a101.28,101.28,0,0,0,10.82-15.41C159,249.55,155.33,223.41,160.54,200.39Z" style="fill:#004868"/><path d="M118.09,244.76l-5.18,5.56c-2.79,3-5.64,6.09-7.07,9.92s-1.1,8.62,1.89,11.41c1.76,1.64,4.8,2.28,6.51.58,1.24.57,2.29,1.48,3.5,2.1a4.09,4.09,0,0,0,3.9.21c1.16-.71,1.45-2.71.27-3.37a4.19,4.19,0,0,0,7.73-2.2,33.14,33.14,0,0,0-.64-3.63c-.37-3.69,2.79-6.67,5.66-9" style="fill:#f7cfa2"/><path d="M108.9,191.46c9.27-12.5,23.27,2.5,30.66,10,1,1.35,1.94,2.64,2.83,3.79s1.73,2.18,2.5,3c.74,1.39,1.41,2.85,2.08,4.36s1.32,3.05,2,4.62a25.87,25.87,0,0,1,1.27,3.42c1.69,5.77,1.3,11.89-.1,18.85-.4,1.55-.88,3.1-1.39,4.64s-1.08,3.08-1.63,4.61c-1.7,3.26-12.65,12.67-15.86,10.7-5.53-3.39-7.33-10.81-8.22-19.12-.22-2.08-.39-4.21-.54-6.36,0-1.11,0-2.18-.09-3.22a26,26,0,0,0,.06-3.91,34.4,34.4,0,0,0-.45-4q-.47-2-1-3.88t-1-3.74a78,78,0,0,0-2.28-7.92q-.66-1.9-1.4-3.74c-.25-4.64-5.25-6.64-6.25-10.31C109.66,192.51,109.26,191.92,108.9,191.46Z" style="fill:#f1f3f7"/><path d="M115.15,244.35c.72-2,.11-4.16,1.23-5.52.3-.6.62-1.2.94-1.79.66-1.2,1.35-2.39,2.05-3.61s1.41-2.46,2.1-3.74a10.25,10.25,0,0,0,2.08-3.27c.53-1.21.94-2.5,1.45-3.78,1.18-8.67,11.18-7.67,16.79-3.39a7.88,7.88,0,0,1,2.23,3.48,11.21,11.21,0,0,1,2.56,5.15,100.52,100.52,0,0,1-1.18,14.87c-.13.84-.28,1.68-.46,2.5-.82,4.79-3.73,11.79-12.52,10.19-1-.13-2.07-.3-3.13-.53-5.33-1.13-10.94-3.49-13.25-7.59A4.62,4.62,0,0,1,115.15,244.35Z" style="fill:#f1f3f7"/><path d="M115.36,245.4a10.38,10.38,0,0,1-.32-2.79,12.59,12.59,0,0,1,.19-2.19,14.18,14.18,0,0,1,.54-2.08c1.34-2.07,2.86-4.12,4.22-6.22.46-.7.9-1.41,1.31-2.13a14.17,14.17,0,0,0,1.81-3.59,14.55,14.55,0,0,0,.73-3.75,37.47,37.47,0,0,0,0-3.8,36.25,36.25,0,0,0-.41-3.7c-1.12-3.6-2.18-7.16-3.46-10.56-.43-1.13-.88-2.25-1.38-3.33-.4-3.32-2.4-4.32-4.4-6.32,2,2,4,4,4.65,6.32.57,1.08,1.1,2.19,1.6,3.33a78.36,78.36,0,0,1,3.76,10.51c.28,1.21.53,2.42.78,3.65s.48,2.47.74,3.73a15,15,0,0,1-.37,4,12.84,12.84,0,0,1-1.52,3.75c-.44.76-.92,1.5-1.42,2.24-1.5,2.2-3.21,4.31-4.61,6.35a25,25,0,0,0-1.07,2.27,18.52,18.52,0,0,0-.79,2.35A9.27,9.27,0,0,1,115.36,245.4Z" style="fill:#fff"/><path d="M115.32,244.94c-1.24,1.44-3.43,8.22-3.33,8.89,5.66.25,15.41,1.7,21.58,5.83.6-2.13,4.26-6.53,4.08-7.41A74.06,74.06,0,0,0,115.32,244.94Z" style="fill:#fff"/><path d="M266,134.58c-17.37,10.92-32.77,26.26-46.33,41.52A263.93,263.93,0,0,0,183.79,227a1.29,1.29,0,0,0,2.23,1.3,350.83,350.83,0,0,1,36.81-50.25c13.7-15.35,29.23-28.09,44.68-41.54,1.07-.93-.32-2.7-1.51-2Z" style="fill:#efe91b"/><path d="M234.6,116.14c-6.41,3.34-12.09,8.26-17.67,12.81-6.2,5.06-12.23,10.29-18,15.78-11.13,10.5-21.59,21.6-30.58,34-1.23,1.7,1.45,3.68,2.87,2.22,10.51-10.79,20.76-21.87,31.65-32.28,5.34-5.1,10.78-10.12,16.34-15,5.73-5,12.07-9.58,17.3-15.12a1.55,1.55,0,0,0-1.87-2.43Z" style="fill:#efe91b"/><path d="M200.87,92c-11.31,7.38-20.31,20.05-28.3,30.75a225.84,225.84,0,0,0-23,38.42c-.66,1.4,1.37,2.64,2.1,1.23a306.14,306.14,0,0,1,22.59-36.69q6.42-9,13.61-17.33c4.51-5.25,9.66-10.11,13.55-15.85a.4.4,0,0,0-.55-.55Z" style="fill:#efe91b"/><path d="M148.2,125.47c-3.87,5.35,5.5,12.72,8.94,15.65a247.82,247.82,0,0,0,22.5,17,224.4,224.4,0,0,0,24.55,14.28c8.31,4.16,17.06,8.58,26.27,10.25,2.15.39,3.64-2.47,1.55-3.68-7.4-4.31-15.57-7.21-23.26-11s-15.26-8-22.59-12.51a237.24,237.24,0,0,1-22-15.33,112.09,112.09,0,0,1-8.76-7.38c-2.34-2.26-3.85-5.85-6.62-7.48a.41.41,0,0,0-.55.14Z" style="fill:#efe91b"/><path d="M17.92,250.66q-1,3.68-2,7.34c-1.07,3.94-2.16,8-1.64,12.07s3,8.14,7,9.22c2.32.64,5.32-.22,6-2.52,1.78.11,3.78,1.11,5.78.11s4-3,0-5c3,1,7-1,6-4-1-6-5-12-1.2-18.23" style="fill:#f7cfa2"/><path d="M18.22,244C17,246.87,17,248.87,16,251.87c9-2,26,9,23-6,0-1-6,1-9.4-.73C25.88,244.9,22,244.51,18.22,244Z" style="fill:#fff"/></g></svg>