<svg xmlns="http://www.w3.org/2000/svg" xmlns:xlink="http://www.w3.org/1999/xlink" viewBox="0 0 300 450"><defs><clipPath id="6adac63a-1855-4df9-a969-77bdb9b90b0c"><path d="M249.4,209.87A99.74,99.74,0,0,1,51.84,235.28c-.62-3.43-22.15-13.72-22.42-17.28C26.69,181.66,11.65,115.56,41.21,77.15,56.34,57.5,106,54.66,150.18,54.23,205.26,53.69,245.28,154.94,249.4,209.87Z" style="fill:none"/></clipPath><radialGradient id="ad6832ab-e5da-4743-9539-524b71fa9ddd" cx="-3991.22" cy="-171.17" r="9.54" gradientTransform="matrix(-1.23, -0.04, -0.04, 1.23, -4666.45, 217.44)" gradientUnits="userSpaceOnUse"><stop offset="0" stop-color="#f0ba7a"/><stop offset="1" stop-color="#f0ba7a" stop-opacity="0"/></radialGradient></defs><title>juego2_ilust</title><g id="e83dd09e-20d3-4cf7-9ef2-6b99eec97a59" data-name="Layer 1"><circle cx="149.89" cy="217.08" r="99.73" style="fill:#8454d1"/><g style="clip-path:url(#6adac63a-1855-4df9-a969-77bdb9b90b0c)"><path d="M94.86,88.28A68.73,68.73,0,0,1,142,102.36,29.86,29.86,0,0,1,146.1,106a44.38,44.38,0,0,1,5.57,8.19,96.28,96.28,0,0,1,4,10.46c6,13.8,4,29.8-.07,43.56-.9,3.68-1.9,7.39-3,11.1-4.39,14.83-10.26,29.43-16.45,43.72-10.16-2.22-17.92-7.3-31.61,1.48-14.85,9.61-34.65-3.4-49.08,7.14-.28-2.13-22.89-50.74-24.29-69.42A69,69,0,0,1,94.86,88.28Z" style="fill:#393d47"/><rect x="88.73" y="190.29" width="24.5" height="32.73" rx="9.21" ry="9.21" transform="translate(-38.58 23.83) rotate(-11.31)" style="fill:#f0ba7a"/><path d="M83.42,221a44.66,44.66,0,0,1,4.47-1.46c1.24-.52,2.49-1,3.74-1.5a15.77,15.77,0,0,1,3.89-1.49,48.49,48.49,0,0,1,5.06-.38c13.28.28,29.28,3.28,35.28,16.28,4,11-5,21-9.72,30.4a33.1,33.1,0,0,0-1.55,5c.06,1.77.11,3.56.19,5.37s.18,3.64.35,5.48a152,152,0,0,0-27.47,14.38,21.62,21.62,0,0,0-2-1.56q-1.61-1.84-3.15-3.72a116.67,116.67,0,0,1-15.74-24.54c-.72-1-1.39-2.13-2-3.26-1.9-3.41-3.44-7.23-5-10.86a38.19,38.19,0,0,1-1.81-4.73C64,233,73.1,225,83.42,221Z" style="fill:#f1f3f7"/><path d="M129,291.9l-6.53,13-11.36-8.79-.51-8.17-.35-5.53a57.45,57.45,0,0,1,.54-15.94c.26-1.75.54-3.51.82-5.26,1.25-10.74,1.25-21.74-3.75-31.74,0-1,3.49-2.49,4.49-2.49,5.28,4.86,9.51,11.49,10.51,18.49,0,6,2,11,.44,16.56-.06,1.39-.1,2.78-.09,4.18a33.77,33.77,0,0,0,2.29,12.73l1.41,5.22Z" style="fill:#0076b7"/><path d="M112.51,219.65c-1.64-1.17-3.64-3.17-5.64-3.17-2.79,2.23-4.83,8.42-4.83,8.42s4.51,2.82,5.83,4.58a8.75,8.75,0,0,1,4.58-2.33Z" style="fill:#0076b7"/><path d="M81.09,246.63a29.75,29.75,0,0,0,3.56-2.41,14,14,0,0,0,4-7.93c.78-3.9,1.66-8.54.67-12.46a7.32,7.32,0,0,1-.44-3c.33-1.88,8.2-3.75,8.28-3.47a38.58,38.58,0,0,0,2.43,6.24c.5,1,1,2,1.62,2.93,2.61,3.94,5.61,8.94,11.86,10.31a24.83,24.83,0,0,0,4.23.55c1.45.08,2.92.08,4.39.08.9,1.65,11,8.63,11.07,10.5.5,29.5,1.5,55.5,5.5,85-6.7,2-23.59-3.28-30.65-1.41l-4.26,1.11q-.44-2.52-.85-5a15.45,15.45,0,0,1-.68-4.15c-7.5-4.13-25.54,16.19-27.56,9.5-.42-1.36-.77-2.74-1.1-4.17.07-6.38,7.9-43.53,5.6-49.33-2.79-7-2.49-9.84-3.44-17.39-.68-5.4.08-11.22,4.7-14.75C80.4,247.09,80.74,246.85,81.09,246.63Z" style="fill:#004868"/><rect x="200.32" y="189.71" width="24.4" height="44.56" rx="10.28" ry="10.28" transform="translate(111.43 -70.65) rotate(25.39)" style="fill:#f0ba7a"/><path d="M240.82,237.33c3.76-17.31-18.26-23.31-32.69-19.26-3.16.46-6.15,1-8.76,1.43a71.21,71.21,0,0,0-10.47,2.45,33.52,33.52,0,0,0-9,4c-4.89,3.57-4.36,8.18-4.64,14.69l-2.29,54c-.15,3.57-.75,26.27.53,29.42,21.47,2.42,46.76-16.17,73.29-14.33a25,25,0,0,0,3-6.61,24.12,24.12,0,0,0,1-7.37c.36-18.69-7-36.46-9.44-53.93C241,239,240.82,237.33,240.82,237.33Z" style="fill:#f1f3f7"/><path d="M229.1,219.89l-2.84.82c-4.67,1.09-5.37,9.67-1.49,19.41l6.65,20.53,7.2,25.79c2.51,6.44,4,11.73,7.33,14.58a15.27,15.27,0,0,0,9.9,3.14l8.56-.69c2.21-.18,5.71-1.41,6.66-3.36,1.58-3.26-.73-8.71-4.12-16.4,0,0-14.6-36-11.41-27.38,3.28,8.92-5.46-13.94-10.82-24.91C239.58,220.92,233.9,218.78,229.1,219.89Z" style="fill:#f1f3f7"/><polygon points="209.43 238.92 209.67 217.99 219.63 221.15 209.43 238.92" style="fill:#dcdde0;opacity:0.400000005960465"/><polygon points="209.43 238.92 209.67 217.99 200.03 223.06 209.43 238.92" style="fill:#dcdde0;opacity:0.400000005960465"/><polygon points="217.13 221.4 210.36 217.52 203.7 220.86 206.31 226.5 211.3 227.16 217.13 221.4" style="fill:#0076b7"/><polygon points="223.57 274.73 215.68 284.77 205.04 277.46 206.58 227.9 211.53 227.01 223.57 274.73" style="fill:#0076b7"/><polygon points="210.7 216.91 210.61 217.29 218.97 226.32 225.4 218.82 224.08 215.1 210.7 216.91" style="fill:#fff"/><polygon points="210.68 216.88 210.6 217.26 198.11 223.69 195.35 215.34 198.22 212.23 210.68 216.88" style="fill:#fff"/><polygon points="227.41 251.1 235.41 250.56 239.46 244.48 236.75 236.25 223.73 239.54 227.41 251.1" style="fill:#fff"/><polygon points="235.61 232.79 222.19 234.71 223.32 238.26 236.44 235.33 235.61 232.79" style="fill:#fff"/><path d="M107.15,215.76l.08.52s-4.56,13-11.91,10.45-7.45-7.79-7.45-7.79l2-5.09Z" style="fill:#fff"/><path d="M119.2,218.82s6.5,7.17,5,12.67-3.83,7.17-3.83,7.17l-15.5,6.83L104.7,272l28-13.17a102.84,102.84,0,0,0,.17-20.33c-1-11.67-7-16.67-7-16.67Z" style="fill:#004868"/></g><path d="M111.56,216.52c1,2.38,1.87,5.41,2.67,7.44.76,1,2.24,2.12,2.91,1.17,2-2.84,2.42-9.75-.58-12.91a3.2,3.2,0,0,0-2.53,2.22C112.81,215.52,111.56,216.52,111.56,216.52Z" style="fill:#fff"/><path d="M143.49,149.1c-1.65-22-21.69-38.46-44.75-36.73-19.22,1.44-31.47,13.74-34.06,30.54a37.79,37.79,0,0,0-.45,5.16c1.78,5.81,2.29,12.12,2.66,18.46.09,1.59.17,3.17.26,4.75a33.51,33.51,0,0,0,4.66,22.15A35.74,35.74,0,0,0,75,197.8a48.22,48.22,0,0,0,6.35,6.42q1.73,1.45,3.6,2.74c11.61,9.52,26.61,10.52,41.11,9.44a40.63,40.63,0,0,0,5.12-.37c11.47-1.27,23.32-8.07,26.38-19.55a17,17,0,0,0,0-10c-2-7-7-13-10.3-19.44-.73-1.52-1.5-3-2.3-4.38a35.06,35.06,0,0,1-.88-4.36,30.33,30.33,0,0,1-.26-4.64Z" style="fill:#f7cfa2"/><path d="M152,177.87h0a5.57,5.57,0,0,1-7.58-2l-.74-1.29a22.52,22.52,0,0,0-1.28-2.72c-3.52-8.38-18.43-21.62-9-24,8.35-2.63,11.26,14.67,19.9,21.2.48.8.76,1.28.76,1.28A5.57,5.57,0,0,1,152,177.87Z" style="fill:#f0ba7a"/><path d="M149.39,175.56h0a5.57,5.57,0,0,1-7.58-2,29.11,29.11,0,0,0-2-3.25c-4.76-7.1-17.27-23.71-8.08-25.05s9.74,16.56,19.59,22.79a5.07,5.07,0,0,1,.67,4.18A5.53,5.53,0,0,1,149.39,175.56Z" style="fill:#f7cfa2"/><path d="M104,124.47a1.27,1.27,0,0,0,.16-1.83h0a33,33,0,0,0-56.59,29.85,1.28,1.28,0,0,0,1.69.89C68.65,146,87.89,137.21,104,124.47Z" style="fill:#393d47"/><path d="M136.94,121.13a1.27,1.27,0,0,0,1-1.56h0a33,33,0,0,0-64,.8,1.28,1.28,0,0,0,1.1,1.56C95.69,124.21,116.82,125.15,136.94,121.13Z" style="fill:#393d47"/><path d="M138.53,160.85c.78,8.89-1.79,16.33-9,16.88s-12.41-6.32-13.19-15.21,3.12-16.43,10.36-17S137.75,152,138.53,160.85Z" style="fill:#601515;opacity:0.100000001490116"/><path d="M138.92,161.57c.68,7.72-3.86,14.35-10.15,14.83s-11.93-5.4-12.6-13.12,3.86-14.35,10.15-14.83S138.24,153.86,138.92,161.57Z" style="fill:#fff"/><path d="M139,161.57c.32,3.69-1.85,6.87-4.85,7.09s-5.71-2.58-6-6.28,1.85-6.87,4.85-7.09S138.64,157.88,139,161.57Z" style="fill:#601515"/><path d="M135.63,161.82a2.36,2.36,0,0,1-1.88,2.75,2.43,2.43,0,0,1-2.34-2.43,2.36,2.36,0,0,1,1.88-2.75A2.43,2.43,0,0,1,135.63,161.82Z"/><path d="M133.45,158.92a1.74,1.74,0,0,1-1.38,2,1.79,1.79,0,0,1-1.72-1.79,1.74,1.74,0,0,1,1.38-2A1.79,1.79,0,0,1,133.45,158.92Z" style="fill:#f9f9f9"/><path d="M138.28,158.26c-1.76-6-6.63-10.2-12-9.8s-9.42,5.28-10.1,11.48C123.52,159.37,130.71,158.36,138.28,158.26Z" style="fill:#f7cfa2"/><path d="M94.59,116.82l1.49,19.89,37-2.78.32-15,3.35,14.7a72.3,72.3,0,0,0,9.74.1c3.45-.3,12.13,5.47,12.13,5.47L147.52,109,107,103.47Z" style="fill:#393d47"/><g style="opacity:0.600000023841858"><path d="M71,101.82c8.52-3.19,16.57-6,25.72-6.77,1.51-.13,2.34-2,.34-1.82C87.27,94,78.89,97,69.77,100.42c-1.88.7-.19,1.93,1.2,1.41Z" style="fill:#f7cfa2"/></g><path d="M110.28,135.85A35.67,35.67,0,0,0,97.95,139c-5.67,2.55-6,5.12-9.72,13.53-3.53,8.07-2.31,20.29,2.33,31.33a243.4,243.4,0,0,0,15,28.67L68.06,224S56.3,140.65,55.79,138,96.2,110.74,96.2,110.74l15.52,4.81Z" style="fill:#393d47"/><path d="M92.49,147.51c6.29.47,11.27,5.41,12.59,11.79-9.15,0-18.26-.21-27.19-.78C79.81,151.74,85.79,147,92.49,147.51Z" style="fill:#f7cfa2"/><rect x="111.31" y="138.98" width="28.76" height="10.65" rx="5.08" ry="5.08" transform="translate(53.37 -32.87) rotate(18.85)" style="fill:#393d47"/><path d="M47.65,198.48c6.2-18.25-2-66.94-2-67.32,8.53-2.1,46.46-2.23,51.77-.37-8.69,14.8-15.15,48.87-21.6,64.59C71.57,196,51.89,198.22,47.65,198.48Z" style="fill:#393d47"/><path d="M128.6,201.48l-.5-1.94c2-.51,3.79-1,5.53-1.54a71.27,71.27,0,0,1,13.09-2.89l1-.11c3.5-.39,7.13-.79,10.76.46.39.13,1.41.49,1.23,1.45a1.14,1.14,0,0,1-1.28.89,1.11,1.11,0,0,1-1-.57c-3.08-.95-6.19-.6-9.49-.23l-1,.11a68.77,68.77,0,0,0-12.74,2.82C132.43,200.43,130.61,201,128.6,201.48Zm29.93-5.68a.88.88,0,0,0-.73.63,1,1,0,0,0,0,.38l1.57-.17a1,1,0,0,0-.78-.84Z" style="fill:#ea6d50"/><path d="M251.32,103.87a66.9,66.9,0,0,0-7.6,2c-3.49,1.33-10,.14-10,.14s6.08-5.27,9.41-5.49S251.32,103.87,251.32,103.87Z" style="fill:#601515"/><path d="M204,114.2a320,320,0,0,1-16.81,47.12c-1.29,2.43-2.59,4.85-3.83,7.31s-2.45,4.92-3.57,7.45a18.8,18.8,0,0,0,0,7.08,19.74,19.74,0,0,0,3,7.13c10.31,18.84,30.49-6.17,48-5.35a24,24,0,0,1,7.07,3,27,27,0,0,0,7.48.59c12.52-.73,24.85-9.71,30-22,5.24-13.33,10.76-25.26,10.72-39.69.54-4.44-3.35-9.42-6.47-13.05a56.7,56.7,0,0,0-7.64-6.09,54.18,54.18,0,0,0-8.62-4.66,52.29,52.29,0,0,0-9-2.92l-7.86-1c-12.65-2.08-29.3-5.92-38.43,7.4A39.71,39.71,0,0,0,204,114.2Z" style="fill:#f7cfa2"/><path d="M184.5,160.5h0a7.25,7.25,0,0,0,9.91-2.52l1-1.66a29.32,29.32,0,0,1,1.72-3.52C201.85,142,221.5,125,209.29,121.7c-10.83-3.58-14.93,18.9-26.3,27.24-.64,1-1,1.66-1,1.66A7.25,7.25,0,0,0,184.5,160.5Z" style="fill:#f0ba7a"/><path d="M187.93,157.54h0a7.25,7.25,0,0,0,9.91-2.51,37.9,37.9,0,0,1,2.68-4.19c6.33-9.16,22.92-30.56,11-32.47s-13,21.39-25.93,29.31a6.6,6.6,0,0,0-1,5.43A7.21,7.21,0,0,0,187.93,157.54Z" style="fill:#f7cfa2"/><path d="M191,142.51l-.49-.32Z" style="fill:#f7cfa2"/><path d="M191.42,142.78l-.41-.27Z" style="fill:#f7cfa2"/><rect x="212.56" y="134.37" width="31.15" height="44.9" rx="12.17" ry="12.17" transform="translate(373.55 392.38) rotate(-156.19)" style="fill:#f0ba7a"/><path d="M237.8,102.89c2.62,1.4,5.29,2.76,8,4C271,118,284.06,143.7,275,164.32l-1.42,3.22-2,4.6A41.08,41.08,0,0,1,263,187.8,46,46,0,0,1,246.54,202c-1.56.79-3.16,1.5-4.78,2.14a37.14,37.14,0,0,1-17.11,5.12c-1.45.08-2.9.09-4.36,0-4-.35-8-.69-12-1.1q-2-.21-4-.45C195,204,185,205,176.55,199a22.22,22.22,0,0,1-4.38-3.41,12.36,12.36,0,0,1-3.8-9.43,17.28,17.28,0,0,1,1.58-6.21c6-13,20-16,31-22,2-2,5-4,6.36-7.26a16,16,0,0,0,1.13-3.84c1.63-9.49-3.08-22.26,1.55-31C213.62,109,232.76,108.87,237.8,102.89Z" style="fill:#f7cfa2"/><path d="M268.92,180.9c-5.11,7.54-16.45,9.23-25.31,3.77a21.1,21.1,0,0,1-3.46-2.68A246.64,246.64,0,0,0,266,160.43C271.75,166.2,273.19,174.59,268.92,180.9Z" style="fill:url(#ad6832ab-e5da-4743-9539-524b71fa9ddd)"/><path d="M207.31,107.88a17.36,17.36,0,0,1-15.83-6.66c-.44-.59-.86-1.38-.5-2a2.26,2.26,0,0,1,.87-.74c2.5-1.54,4.28-4,6-6.34,7.49-10.29,15.33-22.88,29.87-22.93,9,0,19.54,4.24,27.26,8.71,19.4,11.24,24.39,30.6,15.64,52.79a45.28,45.28,0,0,0-4.21-3.42c-10.52-10.38-24.92-13.7-39.26-11.31-6.8,1.13-13.54,2.93-20.43,2.93-4.42,0-15.11-1.2-17.32-6.07a12.82,12.82,0,0,1-.47-3.72,41.3,41.3,0,0,0,7.06.69C199.81,109.39,203.64,109.12,207.31,107.88Z" style="fill:#601515"/><path d="M245.59,100.77c10.43-4.68,24-1.66,33,5.15,1.1.78,2.14,1.58,3.14,2.38a33.68,33.68,0,0,1-1.89,50.79,1.3,1.3,0,0,1-1.92-.33c-2.8-4.51-5.53-9.08-8.13-13.72-.86-1.55-1.72-3.1-2.67-4.55-1-1.11-2-2.26-3-3.43s-2-2.39-2.93-3.65c-7-7.36-19.53-15.65-16.9-27C244.66,104.43,245.12,102.56,245.59,100.77Z" style="fill:#601515"/><path d="M291.13,112.52a122,122,0,0,0-14.23-1.77c-6.82-.12-17.08-6.55-17.08-6.55s13.87-4.82,19.67-2.93S291.13,112.52,291.13,112.52Z" style="fill:#601515"/><path d="M273.47,87.13A66.9,66.9,0,0,1,272,94.85c-1.08,3.58.56,10,.56,10s4.84-6.43,4.82-9.78S273.47,87.13,273.47,87.13Z" style="fill:#601515"/><path d="M284.26,149.62,276,163.11l-17.28-11.46L241,173.76l-2.19-4.94,7.37-24.37s.84-17.49-5.3-23.76-20.51-13.56-20.51-13.56l15-.72Z" style="fill:#601515;opacity:0.300000011920929"/><g style="opacity:0.600000023841858"><path d="M253.31,85.54c-2.07-2.39-6-3.62-8.91-4.8-3.82-1.56-7.93-1.53-12-2-.83-.1-.86,1.11-.18,1.36,4.13,1.57,8.51,1.4,12.63,3.15,2.62,1.11,5.35,2.84,8.25,2.76a.27.27,0,0,0,.19-.45Z" style="fill:#f7cfa2"/></g><path d="M267.11,175.16a12,12,0,0,1-18.9,1.56A193.65,193.65,0,0,0,266.1,160.5,12.1,12.1,0,0,1,267.11,175.16Z" style="fill:#f7cfa2"/><path d="M263.67,172.88a8,8,0,0,1-12.27,1.23c4.07-3.4,8-7,11.8-10.68A8,8,0,0,1,263.67,172.88Z" style="fill:#f0ba7a"/><path d="M229.95,148.57c-4,9.17-11.4,14.82-20.57,10.77s-11.64-14-7.6-23.19,13.08-14.07,22.25-10S234,139.4,229.95,148.57Z" style="fill:#601515;opacity:0.100000001490116"/><circle cx="215.59" cy="143.16" r="15.76" transform="translate(-2.41 282.62) rotate(-66.19)" style="fill:#fff"/><circle cx="209.95" cy="138.36" r="7.54" transform="translate(-1.38 274.59) rotate(-66.19)" style="fill:#601515"/><circle cx="209.95" cy="138.36" r="2.92" transform="translate(-1.38 274.59) rotate(-66.19)"/><circle cx="212.98" cy="135.94" r="2.15" transform="translate(2.63 275.92) rotate(-66.19)" style="fill:#f9f9f9"/><ellipse cx="211.24" cy="160.39" rx="0.9" ry="1.8" transform="translate(-20.77 288.9) rotate(-66.19)" style="fill:#f0ba7a"/><ellipse cx="219.38" cy="163.34" rx="0.9" ry="1.8" transform="translate(-18.61 298.11) rotate(-66.19)" style="fill:#f0ba7a"/><ellipse cx="214.66" cy="165.17" rx="0.9" ry="1.8" transform="translate(-23.11 294.89) rotate(-66.19)" style="fill:#f0ba7a"/><path d="M190.62,180.28a22.62,22.62,0,0,0-1.15-7.48c-.58-2.14-1.11-4.35-2.55-6.11-2-2.47-7.49-3.62-8,.66-.09.67.52,1.16,1,1.38.93.39,2,.37,2.8,1,1,.87,1.52,2.62,2,3.82,1.09,2.65,2.07,5.27,4,7.45.68.77,1.82.1,1.88-.78Z" style="fill:#ea6d50"/><path d="M222,128.74a15.72,15.72,0,0,1,8.93,10.65c-9.87-1.18-19.63-2.4-29.44-3.13A15.75,15.75,0,0,1,222,128.74Z" style="fill:#f7cfa2"/><rect x="199.76" y="121.37" width="32.18" height="10.87" rx="5.43" ry="5.43" transform="translate(-15.98 32.34) rotate(-8.26)" style="fill:#5b1010"/><path d="M79.13,174.25a12,12,0,0,0,15.75,10.57,193.65,193.65,0,0,1-7.72-22.88A12.1,12.1,0,0,0,79.13,174.25Z" style="fill:#f7cfa2"/><path d="M80.47,174.15a8,8,0,0,0,10.12,7.05c-1.9-5-3.62-10-5.1-15.07A8,8,0,0,0,80.47,174.15Z" style="fill:#f0ba7a"/></g><g id="d51819ed-bd08-4801-be24-30d4340dcdd3" data-name="Layer 2"><path d="M106.16,249.31l-7.47-1.4c-4-.75-8.16-1.5-12.16-.66s-7.87,3.69-8.62,7.7c-.45,2.37.64,5.28,3,5.81.18,1.35,0,2.73.1,4.08a4.09,4.09,0,0,0,1.91,3.41c1.22.6,3.06-.22,3-1.58a4.19,4.19,0,0,0,6,5.35,33.14,33.14,0,0,0,2.73-2.48c2.91-2.29,7.13-1.22,10.64,0" style="fill:#f7cfa2"/><path d="M133.2,231.07c17.59-.16,21.81,16.42,13,27-4.08,6.23-10.23,9.87-18.18,12.92-1.53.5-3.09.92-4.67,1.31s-3.17.74-4.77,1.09c-3.66.31-17.48-3.9-17.53-7.67-.1-6.48,5.21-12,11.75-17.18,1.64-1.3,3.35-2.58,5.08-3.86a66.73,66.73,0,0,0,14.23-12A13.86,13.86,0,0,0,133.2,231.07Z" style="fill:#f1f3f7"/><path d="M105.18,244c2-.44,3.58-2.13,5.32-1.92.67-.07,1.34-.12,2-.16,2.72-.17,5.54-.23,8.42-.43.78,0,1.56,0,2.33-.07,5.41-.2,10.59-.38,15.89,6.24a7.81,7.81,0,0,1,.65,2.7c.31,4-1.47,9.37-3.9,11.36a100.52,100.52,0,0,1-13.19,7c-.78.34-1.57.66-2.36.95-4.49,1.87-12,3.16-15.31-5.12-.43-.92-.85-1.91-1.23-2.93-1.9-5.1-2.91-11.11-.68-15.26A4.62,4.62,0,0,1,105.18,244Z" style="fill:#f1f3f7"/><path d="M104.4,244.7a10.38,10.38,0,0,1,2.18-1.76,12.58,12.58,0,0,1,2-1,14.18,14.18,0,0,1,2-.66c2.47,0,5,.21,7.51.24.84,0,1.67,0,2.49,0,4.71-.67,10.25-1.06,13.08-6.41-1.63,7.14-7.23,8.11-11.92,8.63-.87,0-1.76,0-2.64,0-2.66-.09-5.36-.4-7.84-.49a25,25,0,0,0-2.49.31,18.52,18.52,0,0,0-2.4.59A9.27,9.27,0,0,1,104.4,244.7Z" style="fill:#fff"/><path d="M104.78,244.42c-1.88-.28-8.78,1.5-9.29,1.94,2.81,4.91,6.82,13.93,6.63,21.35,2.12-.64,7.8.1,8.44-.52A74.07,74.07,0,0,0,104.78,244.42Z" style="fill:#fff"/><path d="M88.17,226.53c-2-3.39-8.49-5.14-15.37-2a18.51,18.51,0,0,0-3.09,1.76A16.87,16.87,0,0,0,67,228.63q-.84.89-1.6,1.81a34.28,34.28,0,0,0-4.64,7.3c-4.23,10-.44,17.46,3.36,24.95,1.83,2.54,12.83,8.66,15.74,6.26,7.49-6.19,6.45-18.73,6.53-30.11q0-.78,0-1.54c-.29-3,1.36-6.34,1.16-9A16,16,0,0,1,88.17,226.53Z" style="fill:#f1f3f7"/><path d="M94.1,252.28c-.81-1.58-.39-3.67-1.54-4.65-.32-.47-.66-.93-1-1.4-1.41-1.85-3-3.69-4.42-5.67-.43-.51-.85-1-1.27-1.54-2.9-3.59-5.69-7-13.72-6.13a9,9,0,0,0-2.42,1.33c-3.24,2.41-6.31,7-6.46,9.83A80.15,80.15,0,0,0,65.39,257c.18.72.38,1.43.61,2.12,1.1,4.08,4.33,9.69,12.54,6.49.95-.32,1.93-.69,2.93-1.11,5-2.08,10.11-5.32,12-9.43A4.33,4.33,0,0,0,94.1,252.28Z" style="fill:#f1f3f7"/><path d="M94,253.26a9,9,0,0,0,.11-2.53,10,10,0,0,0-.33-1.9,10.66,10.66,0,0,0-.65-1.73c-1.41-1.56-3-3.07-4.42-4.65-.48-.53-.94-1.06-1.38-1.62-2.14-3.45-5-7.24-2.49-12.51-4.52,5.66-2.1,9.87.15,13.2.47.58,1,1.14,1.49,1.69,1.57,1.64,3.33,3.17,4.8,4.69a18.21,18.21,0,0,1,1.16,1.79,13.7,13.7,0,0,1,.9,1.92A6.92,6.92,0,0,0,94,253.26Z" style="fill:#fff"/><path d="M94,252.84c1.28,1,3.8,6.59,3.76,7.2-5.33,1.37-14.46,4.64-20,9.56-.71-1.77-4.48-4.92-4.37-5.73A85.54,85.54,0,0,1,94,252.84Z" style="fill:#fff"/><path d="M95.53,259.27l3.38,6.8c1.82,3.66,3.68,7.44,4,11.52s-1.4,8.57-5.06,10.4c-2.16,1.08-5.26.82-6.4-1.3-1.35.2-2.61.77-4,1a4.09,4.09,0,0,1-3.8-.91c-.91-1-.62-3,.71-3.31a4.19,4.19,0,0,1-6.78-4.3,33.14,33.14,0,0,1,1.64-3.3c1.41-3.43-.78-7.19-2.87-10.25" style="fill:#f7cfa2"/><path d="M211.84,250.72l10-.62c5.38-.34,10.92-.65,16,1.09s9.69,6.09,10,11.47c.2,3.17-1.69,6.8-4.86,7.11-.45,1.74-.4,3.57-.78,5.32s-1.36,3.56-3.05,4.15-4-.79-3.66-2.55a5.52,5.52,0,0,1-8.7,6c-1.27-1-2-2.53-3.17-3.68-3.44-3.46-9.12-2.74-13.91-1.77" style="fill:#f7cfa2"/><path d="M179.31,226c-23-3.05-31.17,18-21.38,33.16,4.33,8.8,11.79,14.56,21.7,19.83,1.92.89,3.89,1.7,5.89,2.46s4,1.48,6.06,2.19c4.74,1,23.49-2.28,24.17-7.2,1.17-8.46-4.88-16.51-12.6-24.36-1.93-2-4-3.92-6-5.87a87.94,87.94,0,0,1-16.68-18A18.27,18.27,0,0,1,179.31,226Z" style="fill:#f1f3f7"/><path d="M213.88,247.38c-2.59-.9-4.33-3.37-6.65-3.37-.86-.2-1.73-.37-2.62-.54-3.53-.66-7.21-1.19-10.95-1.93-1-.14-2-.3-3-.47-7-1.14-13.79-2.2-21.79,5.6a10.3,10.3,0,0,0-1.28,3.43c-1.05,5.22.42,12.49,3.27,15.48A132.46,132.46,0,0,0,187,276.83c1,.57,1.95,1.12,2.93,1.62,5.57,3.17,15.13,6.07,20.85-4.22.72-1.14,1.42-2.36,2.08-3.63,3.31-6.36,5.6-14.06,3.35-19.85C215.37,248.85,215.28,248.5,213.88,247.38Z" style="fill:#f1f3f7"/><path d="M214.78,248.47a13.67,13.67,0,0,0-2.57-2.66,16.58,16.58,0,0,0-2.39-1.63,18.68,18.68,0,0,0-2.57-1.19c-3.24-.37-6.59-.53-9.86-.9-1.09-.12-2.18-.27-3.26-.44-6.05-1.64-13.24-3-16.08-10.49,1,9.6,8.15,11.77,14.2,13.2,1.14.18,2.29.32,3.46.42,3.49.31,7.07.34,10.33.62a33,33,0,0,1,3.2.81,24.4,24.4,0,0,1,3,1.16A12.22,12.22,0,0,0,214.78,248.47Z" style="fill:#fff"/><path d="M214.34,248c2.51-.06,11.24,3.38,11.84,4-4.47,6-11.16,17.11-12.11,26.85-2.67-1.18-10.21-1.13-11-2C205,267,209.42,256.67,214.34,248Z" style="fill:#fff"/><path d="M238.76,224c5.16-.32,11.86,5.53,13.52,15.33a24.39,24.39,0,0,1,.34,4.68,22.24,22.24,0,0,1-.62,4.72q-.36,1.57-.82,3.08a45.18,45.18,0,0,1-4.59,10.44c-7.81,12-18.79,13.29-29.77,14.63-4.13-.14-18.89-7.69-18.4-12.63,1.27-12.74,15.76-20.8,28.16-29.25l1.67-1.16c3.52-1.89,5.94-6.14,9-7.89A21.12,21.12,0,0,0,238.76,224Z" style="fill:#f1f3f7"/><path d="M206.21,236.44c2.33-.27,4.3-2.26,6.21-1.73.75,0,1.51,0,2.28.09,3.06.18,6.2.52,9.45.68.87.1,1.75.18,2.61.26,6.06.54,11.85,1.08,16.78,10.52a11.9,11.9,0,0,1,.32,3.63c-.25,5.32-3,12-6,14.29a105.63,105.63,0,0,1-15.73,7.16c-.92.33-1.85.63-2.77.89-5.28,1.79-13.79,2.37-16.3-9-.35-1.27-.66-2.62-.94-4-1.36-7-1.6-15,1.5-20.08C204.67,237.52,204.82,237.21,206.21,236.44Z" style="fill:#f1f3f7"/><path d="M205.24,237.3a11.87,11.87,0,0,1,2.69-2,13.17,13.17,0,0,1,2.32-1,14.05,14.05,0,0,1,2.37-.56c2.75.4,5.55,1,8.33,1.43.93.14,1.86.25,2.78.33,5.35-.18,11.58.13,15.52-6.45-2.88,9.11-9.26,9.54-14.56,9.52-1-.09-2-.22-2.95-.39-2.95-.51-5.91-1.32-8.66-1.81a24,24,0,0,0-2.82,0,18.05,18.05,0,0,0-2.77.42A9.11,9.11,0,0,1,205.24,237.3Z" style="fill:#fff"/><path d="M205.69,237c-2.06-.64-10,.67-10.64,1.17,2.41,6.85,5.53,19.24,4.22,28.92,2.46-.52,8.67,1.29,9.48.57A112.72,112.72,0,0,0,205.69,237Z" style="fill:#fff"/><path d="M197.51,240l-9.93,1.29c-5.34.69-10.84,1.44-15.51,4.12s-8.36,7.82-7.67,13.17c.41,3.15,3,6.36,6.12,6.06.78,1.62,1.07,3.43,1.78,5.08s2,3.23,3.79,3.49,3.75-1.53,3.11-3.2a5.52,5.52,0,0,0,9.69,4.27c1-1.24,1.5-2.87,2.41-4.22,2.72-4.05,8.44-4.43,13.32-4.38" style="fill:#f7cfa2"/></g></svg>