<?xml version="1.0" encoding="utf-8"?>
<!-- Generator: Adobe Illustrator 21.1.0, SVG Export Plug-In . SVG Version: 6.00 Build 0)  -->
<svg version="1.1" xmlns="http://www.w3.org/2000/svg" xmlns:xlink="http://www.w3.org/1999/xlink" x="0px" y="0px"
	 viewBox="0 0 300 450" style="enable-background:new 0 0 300 450;" xml:space="preserve">
<style type="text/css">
	.st0{fill:#B27E49;}
	.st1{fill:#ECB8FF;}
	.st2{display:none;opacity:0.3;}
	.st3{fill:#F4E44A;}
	.st4{clip-path:url(#SVGID_2_);fill:#F1F3F7;}
	.st5{opacity:0.4;clip-path:url(#SVGID_2_);fill:#DCDDE0;}
	.st6{clip-path:url(#SVGID_2_);fill:#0076B7;}
	.st7{clip-path:url(#SVGID_2_);fill:#FFFFFF;}
	.st8{clip-path:url(#SVGID_2_);}
	.st9{fill:#FFFFFF;}
	.st10{clip-path:url(#SVGID_2_);fill:#F7CFA2;}
	.st11{fill:#F7CFA2;}
	.st12{fill:#F0BA7A;}
	.st13{fill:#601515;}
	.st14{fill:url(#SVGID_3_);}
	.st15{opacity:0.1;fill:#601515;}
	.st16{fill:#F9F9F9;}
	.st17{fill:url(#SVGID_4_);}
	.st18{fill:url(#SVGID_5_);}
	.st19{fill:url(#SVGID_6_);}
	.st20{fill:#EA6D50;}
	.st21{opacity:0.3;fill:#601515;}
	.st22{fill:#5B1010;}
	.st23{opacity:0.6;}
	.st24{fill:#A52323;}
	.st25{opacity:0.2;}
	.st26{fill:url(#SVGID_7_);}
	.st27{fill:#CE6117;}
	.st28{fill:url(#SVGID_8_);}
	.st29{fill:#8454D1;}
	.st30{clip-path:url(#SVGID_10_);fill:#393D47;}
	.st31{clip-path:url(#SVGID_10_);fill:#F0BA7A;}
	.st32{clip-path:url(#SVGID_10_);fill:#F1F3F7;}
	.st33{clip-path:url(#SVGID_10_);fill:#0076B7;}
	.st34{clip-path:url(#SVGID_10_);fill:#004868;}
	.st35{opacity:0.4;clip-path:url(#SVGID_10_);fill:#DCDDE0;}
	.st36{clip-path:url(#SVGID_10_);fill:#FFFFFF;}
	.st37{clip-path:url(#SVGID_10_);}
	.st38{fill:#393D47;}
	.st39{fill:url(#SVGID_11_);}
	.st40{fill:#EAA56C;}
	.st41{clip-path:url(#SVGID_13_);fill:#F1F3F7;}
	.st42{clip-path:url(#SVGID_13_);fill:#F0BA7A;}
	.st43{opacity:0.4;clip-path:url(#SVGID_13_);fill:#DCDDE0;}
	.st44{clip-path:url(#SVGID_13_);fill:#0076B7;}
	.st45{clip-path:url(#SVGID_13_);fill:#FFFFFF;}
	.st46{clip-path:url(#SVGID_13_);}
	.st47{clip-path:url(#SVGID_13_);fill:#F7CFA2;}
	.st48{fill:#F1F3F7;}
	.st49{fill:none;}
	.st50{fill:#A85848;}
	.st51{fill:#E85646;}
	.st52{fill:#EA4E39;}
	.st53{fill:#DCFFC5;}
	.st54{fill:#8BAA77;}
	.st55{clip-path:url(#SVGID_15_);fill:#F1F3F7;}
	.st56{opacity:0.4;clip-path:url(#SVGID_15_);fill:#DCDDE0;}
	.st57{clip-path:url(#SVGID_15_);fill:#0076B7;}
	.st58{clip-path:url(#SVGID_15_);fill:#FFFFFF;}
	.st59{clip-path:url(#SVGID_15_);}
	.st60{fill:#595959;}
	.st61{opacity:0.3;fill:#595959;}
	.st62{clip-path:url(#SVGID_27_);fill:#F1F3F7;}
	.st63{opacity:0.4;clip-path:url(#SVGID_27_);fill:#DCDDE0;}
	.st64{clip-path:url(#SVGID_27_);fill:#0076B7;}
	.st65{clip-path:url(#SVGID_27_);fill:#FFFFFF;}
	.st66{clip-path:url(#SVGID_27_);}
	.st67{clip-path:url(#SVGID_27_);fill:#F7CFA2;}
	.st68{opacity:0.7;fill:#7BCDDB;}
	.st69{fill:none;stroke:#F0BA7A;stroke-width:3;stroke-miterlimit:10;}
	.st70{clip-path:url(#SVGID_41_);fill:#F1F3F7;}
	.st71{opacity:0.4;clip-path:url(#SVGID_41_);fill:#DCDDE0;}
	.st72{clip-path:url(#SVGID_41_);fill:#0076B7;}
	.st73{clip-path:url(#SVGID_41_);fill:#FFFFFF;}
	.st74{clip-path:url(#SVGID_41_);}
	.st75{clip-path:url(#SVGID_41_);fill:#F7CFA2;}
	.st76{fill:#9E9E9E;}
	.st77{fill:#878787;}
	.st78{fill:#DDBD00;}
	.st79{clip-path:url(#SVGID_43_);fill:#F1F3F7;}
	.st80{opacity:0.4;clip-path:url(#SVGID_43_);fill:#DCDDE0;}
	.st81{clip-path:url(#SVGID_43_);fill:#0076B7;}
	.st82{clip-path:url(#SVGID_43_);fill:#FFFFFF;}
	.st83{clip-path:url(#SVGID_43_);}
	.st84{clip-path:url(#SVGID_43_);fill:#F7CFA2;}
	.st85{clip-path:url(#SVGID_45_);}
	.st86{opacity:0.4;fill:#DCDDE0;}
	.st87{fill:#0076B7;}
	.st88{opacity:0.3;}
	.st89{fill:#DCDDE0;}
	.st90{fill:#004868;}
	.st91{fill:#E02B41;}
	.st92{fill:#C69018;}
	.st93{fill:#EFE91B;}
	.st94{fill:#656D60;}
	.st95{clip-path:url(#SVGID_47_);fill:#F0BA7A;}
	.st96{clip-path:url(#SVGID_47_);fill:#F1F3F7;}
	.st97{opacity:0.4;clip-path:url(#SVGID_47_);fill:#DCDDE0;}
	.st98{clip-path:url(#SVGID_47_);fill:#0076B7;}
	.st99{clip-path:url(#SVGID_47_);fill:#FFFFFF;}
	.st100{clip-path:url(#SVGID_47_);}
	.st101{clip-path:url(#SVGID_47_);fill:#F7CFA2;}
	.st102{clip-path:url(#SVGID_49_);fill:#F1F3F7;}
	.st103{clip-path:url(#SVGID_49_);}
	.st104{fill:#B23C18;}
	.st105{fill:#6B2A05;}
	.st106{fill:#B23C18;stroke:#6B2A05;stroke-miterlimit:10;}
	.st107{fill:#DDAA78;}
	.st108{fill:#211205;}
	.st109{fill:none;stroke:#6B2A05;stroke-width:0.729;stroke-miterlimit:10;}
	.st110{fill:#B23C18;stroke:#6B2A05;stroke-width:0.729;stroke-miterlimit:10;}
	.st111{fill:#B72C34;}
	.st112{clip-path:url(#SVGID_51_);fill:#F1F3F7;}
	.st113{clip-path:url(#SVGID_51_);}
	.st114{clip-path:url(#SVGID_51_);fill:#F7CFA2;}
	.st115{fill:#F2C85F;}
	.st116{clip-path:url(#SVGID_53_);fill:#F0BA7A;}
	.st117{clip-path:url(#SVGID_53_);fill:#F1F3F7;}
	.st118{opacity:0.4;clip-path:url(#SVGID_53_);fill:#DCDDE0;}
	.st119{clip-path:url(#SVGID_53_);fill:#0076B7;}
	.st120{clip-path:url(#SVGID_53_);fill:#FFFFFF;}
	.st121{clip-path:url(#SVGID_53_);}
	.st122{clip-path:url(#SVGID_53_);fill:#F7CFA2;}
	.st123{clip-path:url(#SVGID_55_);}
	.st124{fill:#F4F0A6;}
	.st125{fill:#9E921E;}
	.st126{clip-path:url(#SVGID_57_);fill:#F0BA7A;}
	.st127{clip-path:url(#SVGID_57_);fill:#F1F3F7;}
	.st128{clip-path:url(#SVGID_57_);}
	.st129{clip-path:url(#SVGID_57_);fill:#393D47;}
	.st130{clip-path:url(#SVGID_57_);fill:#FFFFFF;}
	.st131{opacity:0.4;clip-path:url(#SVGID_57_);fill:#DCDDE0;}
	.st132{clip-path:url(#SVGID_57_);fill:#0076B7;}
	.st133{fill:#1F74C9;}
	.st134{clip-path:url(#SVGID_59_);}
	.st135{fill:#023142;}
	.st136{clip-path:url(#SVGID_61_);fill:#F7CFA2;}
	.st137{clip-path:url(#SVGID_61_);}
	.st138{opacity:0.3;fill:#E57257;}
	.st139{fill:#777777;}
	.st140{clip-path:url(#SVGID_63_);fill:#F1F3F7;}
	.st141{opacity:0.4;clip-path:url(#SVGID_63_);fill:#DCDDE0;}
	.st142{clip-path:url(#SVGID_63_);fill:#0076B7;}
	.st143{clip-path:url(#SVGID_63_);fill:#FFFFFF;}
	.st144{clip-path:url(#SVGID_63_);}
	.st145{clip-path:url(#SVGID_63_);fill:#F7CFA2;}
	.st146{clip-path:url(#SVGID_65_);fill:#F0BA7A;}
	.st147{clip-path:url(#SVGID_65_);fill:#F1F3F7;}
	.st148{opacity:0.4;clip-path:url(#SVGID_65_);fill:#DCDDE0;}
	.st149{clip-path:url(#SVGID_65_);fill:#0076B7;}
	.st150{clip-path:url(#SVGID_65_);fill:#FFFFFF;}
	.st151{clip-path:url(#SVGID_65_);}
	.st152{clip-path:url(#SVGID_65_);fill:#F7CFA2;}
</style>
<g id="Layer_1">
	<circle class="st0" cx="149.9" cy="217.7" r="99.7"/>
	<g>
		<defs>
			<path id="SVGID_26_" d="M249.6,217.7c0,55.1-44.7,99.7-99.7,99.7s-99.7-44.7-99.7-99.7c0-55.1-18.2-171.1,112.2-162.6
				C217.3,58.6,249.6,162.6,249.6,217.7z"/>
		</defs>
		<clipPath id="SVGID_2_">
			<use xlink:href="#SVGID_26_"  style="overflow:visible;"/>
		</clipPath>
		<path class="st4" d="M207.3,268c0-13.2-0.3-22.2-10.9-26.7c-6.3-2.7-20.5-4.8-28.7-4.4l-32.1,1.5c-9.8,0.5-25.5,3.3-32.4,8
			c-8.4,5.6-7.1,14-7.1,25.5v90.6c0,5.7,1.3,11,3.6,15.8c33.9,0.9,68.2-1.1,102.3-1.6c3.3-5.8,5.3-12.3,5.3-19.2V268z"/>
		<path class="st4" d="M110.6,247.5l3.8,1.3c6.4,1.8,6.3,15.6-0.3,30.8l-11.1,30.4l-11.5,35.6c-3.6,8.3-5.8,15.1-9.9,18.2
			c-3.4,2.6-8.7,2.9-11.6,2.1l-9.4-2.6c-2.4-0.7-6.1-2.9-7-5.5c-1.5-4.4,1.2-11,5.3-20.5c0,0,19.1-48.2,14.7-36s7.6-19.7,15.2-35.9
			C96.5,249.2,104.2,245.8,110.6,247.5z"/>
		<path class="st4" d="M190.2,241.1l-3.8,1.3c-6.4,1.8-6.3,15.6,0.3,30.8l11.1,30.4l11.5,35.6c3.6,8.3,5.8,15.1,9.9,18.2
			c3.4,2.6,8.7,2.9,11.6,2.1l9.4-2.6c2.4-0.7,6.1-2.9,7-5.5c1.5-4.4-1.2-11-5.3-20.5c0,0-19.1-48.2-14.7-36s-7.6-19.7-15.2-35.9
			C204.4,242.8,196.6,239.4,190.2,241.1z"/>
		<polygon class="st5" points="151.7,272.5 151.7,237.6 166.8,244.6 		"/>
		<polygon class="st5" points="151.7,272.5 151.7,237.6 136.7,244.6 		"/>
		<polygon class="st6" points="162.7,243.2 151.5,237.8 142.4,244.7 148.3,253.7 156,253.8 		"/>
		<polygon class="st7" points="151.7,237.6 151.7,238.2 166.2,250.8 172.5,237.8 169.6,232.2 		"/>
		<polygon class="st7" points="151.7,237.6 151.7,238.2 137.3,250.8 131,237.8 133.9,232.2 		"/>
		<g class="st8">
			<polygon class="st9" points="166.3,298.3 178.9,304.7 191.9,298.3 191.9,279.3 166.3,279.3 			"/>
			<rect x="166.3" y="271.2" class="st9" width="25.6" height="6"/>
		</g>
		<path class="st10" d="M56.9,206.6c0,0.3,0,0.5,0,0.8C56.9,207.1,56.9,206.9,56.9,206.6z"/>
	</g>
	<path class="st11" d="M171.9,232.8c-4.4-6.7-9.6-13.1-15.2-19.1l-8.6,6.1c-4.6,3.3-5.7,9.8-2.4,14.4l2.2,3.1
		c3.3,4.6,9.7,5.7,14.3,2.4L171.9,232.8z"/>
	<g>
		<path class="st11" d="M206.4,163.7c0.3,0,0.5-0.1,0.8-0.2C207,163.6,206.7,163.7,206.4,163.7z"/>
		<path class="st11" d="M205.8,163.9c0.2,0,0.4-0.1,0.7-0.1C206.2,163.8,206,163.8,205.8,163.9z"/>
		<path class="st11" d="M203.5,165.4c-0.4,0.8-1,2.5-0.6,3.3l4.3-5.1c-0.3,0.1-0.5,0.1-0.8,0.2c-0.2,0-0.4,0.1-0.7,0.1
			C204.8,164,204,164.3,203.5,165.4z"/>
		
			<ellipse transform="matrix(0.9997 -2.496577e-02 2.496577e-02 0.9997 -4.0228 2.2451)" class="st11" cx="87.9" cy="162.2" rx="16.8" ry="16.8"/>
		
			<ellipse transform="matrix(0.9997 -2.496577e-02 2.496577e-02 0.9997 -4.0228 2.2451)" class="st12" cx="87.9" cy="162.2" rx="11.1" ry="11.1"/>
		
			<ellipse transform="matrix(0.9997 -2.496577e-02 2.496577e-02 0.9997 -3.8953 5.6486)" class="st11" cx="224.3" cy="158.8" rx="16.8" ry="16.8"/>
		
			<ellipse transform="matrix(0.9997 -2.496577e-02 2.496577e-02 0.9997 -3.8953 5.6486)" class="st12" cx="224.3" cy="158.8" rx="11.1" ry="11.1"/>
		<path class="st11" d="M224.9,144c7.8-76.8-32.4-55.9-70.7-54.9c-38.2,1-68.6,27.1-67.8,58.4c0.2,7,0.8,32.8,1,39.8
			c0.8,31.3,47,55.5,70.7,54.9c20.9-0.5,68.6-27.1,67.8-58.4C225.7,176.8,224.2,151,224.9,144z"/>
		<path class="st13" d="M200,127.9c-1.7-1.6,1.5-5,1.5-5c9.9-1.9,12,14.6,21.8,9.4c3.3-1.7,1.5-8.3,1.3-13.3
			c4.2,10.5,6.9,2,12.9-1.1c0.4-5.5,0.9-10.1,0.8-12.8c-0.9-37.4-33.8-59.7-71.2-58.8c-36.5,0.9-56.2,24.1-56.8,60.2
			c28.2-10.3,47.6,3.3,66.8,19.9C184.9,126,191.9,128.1,200,127.9z"/>
		<path class="st13" d="M150.5,78.9c0.6-0.8,0.4-2-0.4-2.6c0,0,0,0,0,0C128.4,62.2,99.4,68.4,85.4,90c-9.7,14.9-9.8,33.4-1.8,48
			c0.5,1,1.8,1.2,2.6,0.6C110.1,121.4,133.2,102.3,150.5,78.9z"/>
		<path class="st20" d="M123.2,216.5c0,0,14.9-9.3,32.7-15.9c19.3-7.2,42.4-19.3,38.4,20.4c0,0-16,8.2-34.8,10.5
			S123.2,216.5,123.2,216.5z"/>
		<path class="st9" d="M143.9,218c0.9,2.6,1.8,5.2,3,7.6c0.1,0.3,0.3,0.5,0.6,0.5c3.2,0.9,6.6,1.3,10.1,1.1c0.5,0,0.9-0.6,0.7-1.1
			c-1.2-2.9-2.5-5.8-3.9-8.7C150.9,217.9,147.4,218.2,143.9,218z"/>
		<path class="st9" d="M155.3,217.3c1.4,2.9,2.7,5.7,3.9,8.7c0.3,0.7,1,1.1,1.7,1c2.2-0.3,4.4-0.7,6.5-1.1c0.6-0.1,1-0.8,0.8-1.4
			c-1-3-2.1-5.9-3.3-8.9C161.7,216.2,158.5,216.9,155.3,217.3z"/>
		<path class="st9" d="M189.1,211.2c-4.3,0.2-8.7,1-13.1,1.9c1.2,2.8,2.2,5.6,3,8.6c0.1,0.5,0.6,0.8,1.1,0.6c4-1.4,6.8-2.6,8-3.1
			c0.3-0.2,0.6-0.5,0.6-0.9C189,215.6,189.2,213.2,189.1,211.2z"/>
		<path class="st9" d="M165.8,215.3c1.3,3,2.5,5.9,3.6,9c0.2,0.6,0.8,0.9,1.4,0.7c2.3-0.6,4.5-1.2,6.5-1.8c0.5-0.2,0.8-0.7,0.7-1.2
			c-0.6-3-1.5-5.9-2.6-8.8C172.1,213.9,168.9,214.6,165.8,215.3z"/>
		<path class="st9" d="M130.3,217.4c2.4,1.8,7.4,5.3,13.7,7.6c0.5,0.2,1.1-0.3,0.8-0.9c-0.8-2.1-1.6-4.2-2.3-6.3
			C138.3,217.6,134.3,217.9,130.3,217.4z"/>
		<path class="st9" d="M141.3,211c0.7,1.8,1.4,3.7,2.1,5.6c3.4,0,6.8-0.2,10.3-0.7c-1.4-2.9-2.9-5.7-4.3-8.5
			c-0.2-0.4-0.7-0.6-1.2-0.4c-2.2,0.9-4.4,1.8-6.3,2.7C141.3,209.9,141.1,210.5,141.3,211z"/>
		<path class="st9" d="M156.5,203.8c-1.8,0.6-3.5,1.2-5.2,1.9c-0.9,0.3-1.2,1.4-0.8,2.2c1.4,2.6,2.8,5.3,4.1,7.9
			c3.3-0.4,6.5-1,9.7-1.7c-1.3-3.3-2.7-6.5-4-9.8c-0.4-0.9-1.4-1.4-2.3-1.1C157.6,203.4,157.1,203.6,156.5,203.8z"/>
		<path class="st9" d="M161.2,204.4c1.3,3.2,2.6,6.4,4,9.5c3.2-0.7,6.4-1.4,9.6-2.1c-1.6-3.9-3.6-7.6-5.8-11c-0.4-0.6-1.2-0.9-2-0.7
			c-1.5,0.5-3,1-4.5,1.5C161.3,202.1,160.8,203.3,161.2,204.4z"/>
		<path class="st9" d="M169.8,201.3c2,3,4.1,7,5.7,10.4c4.5-1,9-1.9,13.5-2.6c-1.1-12.2-9-12.6-18.4-10
			C169.5,199.4,169.2,200.4,169.8,201.3z"/>
		<path class="st9" d="M129.7,215.7c4.1,0.6,8.3,0.9,12.2,0.9c0.1,0,0.2,0,0.2,0c-0.5-1.7-1-3.4-1.4-5.1c-0.1-0.6-0.8-0.9-1.4-0.7
			C134.7,213,131.3,214.9,129.7,215.7z"/>
		<path class="st12" d="M157.6,182.7l-2.9,0.1c-4.7,0.1-8.7-3.6-8.8-8.4l-0.6-24c-0.1-4.7,3.6-8.7,8.4-8.8l2.9-0.1
			c4.7-0.1,8.7,3.6,8.8,8.4l0.6,24C166.1,178.6,162.3,182.6,157.6,182.7z"/>
		<path class="st11" d="M155.5,178.4l-2.9,0.1c-4.7,0.1-8.7-3.6-8.8-8.4l-0.6-24c-0.1-4.7,3.6-8.7,8.4-8.8l2.9-0.1
			c4.7-0.1,8.7,3.6,8.8,8.4l0.6,24C164,174.3,160.2,178.3,155.5,178.4z"/>
		<path class="st13" d="M106.8,105.6c0,0,18.1,7.6,26.9,13c12,7.5,37.2,7.8,37.2,7.8s-18.8-24.1-31.1-27.3S106.8,105.6,106.8,105.6z
			"/>
		<path class="st13" d="M98.7,72c0,0,7.2-0.5,10.9-0.1c5.2,0.5,13.5-3.5,13.5-3.5s-10.1-4.8-14.6-3.9C104,65.5,98.7,72,98.7,72z"/>
		<path class="st13" d="M129.8,49c0,0-1.8,6.9-2.2,10.7c-0.5,5.2-6,12.6-6,12.6s-2.8-10.8-1-15.1C122.4,52.9,129.8,49,129.8,49z"/>
		<path class="st21" d="M86,121l2.3,58l5.4-5.2l3.4-35.2c0,0,8.2-22.9,19.4-27.7c11.2-4.8,33.5-6.6,33.5-6.6l-18.8-8.8L86,121z"/>
		<path class="st21" d="M226.3,114.7l-1.8,53.4l-4.6,2.5l-5.2-35c0,0-9.3-22.5-20.7-26.7c-11.4-4.2-33.8-4.9-33.8-4.9l18.4-9.8
			L226.3,114.7z"/>
		<g class="st23">
			<path class="st11" d="M156.6,58.2c5,1.5,10.4,0.1,15.5,0.5c5,0.3,9.5,2.6,14.5,2.8c0.8,0,0.9-1.2,0.2-1.4
				c-4.6-1.1-9.1-3-13.9-3.5c-4.9-0.4-11.6-0.6-16.3,1C156.4,57.8,156.4,58.1,156.6,58.2L156.6,58.2z"/>
		</g>
		<g>
			
				<ellipse transform="matrix(0.9997 -2.496577e-02 2.496577e-02 0.9997 -4.6354 2.7184)" class="st12" cx="106.6" cy="187" rx="2.5" ry="1.3"/>
			
				<ellipse transform="matrix(0.9997 -2.496577e-02 2.496577e-02 0.9997 -4.6261 2.9667)" class="st12" cx="116.5" cy="186.8" rx="2.5" ry="1.3"/>
			
				<ellipse transform="matrix(0.9997 -2.496577e-02 2.496577e-02 0.9997 -4.7549 2.8472)" class="st12" cx="111.6" cy="191.9" rx="2.5" ry="1.3"/>
			<g>
				<path class="st12" d="M140.4,170.5c-3.3,9.1-7.3,20.1-16.6,25.6c-1.4,1.2-2.8,2.3-4.3,3.4c-1.5,1.1-2.9,2.1-4.4,3.1
					c1.5-2,2.8-4,3.8-6.1c1-2.1,1.8-4.3,2.3-6.8c-2.5,0.9-4.8,1.9-7,2.8c-2.2,0.9-4.4,1.7-6.8,2.2c-3.3,1.5-5.9,2.8-5.9,2.8
					s1.5-1,3.9-2.5c1.7-0.8,3.5-1.6,5.2-2.4c1.7-0.8,3.5-1.6,5.2-2.4c8.3-6.5,20.3-7.5,23.8-19.2"/>
				<g>
					<path class="st15" d="M98.7,161.7c0.3,13.9,6.8,25.1,20.7,24.7s22.4-11.9,22-25.8s-9.4-25-23.3-24.6S98.4,147.8,98.7,161.7z"/>
					
						<ellipse transform="matrix(0.9997 -2.496499e-02 2.496499e-02 0.9997 -4.0151 3.0467)" class="st9" cx="120" cy="162.3" rx="21.9" ry="21.9"/>
					<g>
						
							<ellipse transform="matrix(0.9997 -2.496577e-02 2.496577e-02 0.9997 -4.1058 3.0146)" class="st13" cx="118.7" cy="165.9" rx="6.7" ry="6.7"/>
						
							<ellipse transform="matrix(0.9997 -2.496577e-02 2.496577e-02 0.9997 -4.1058 3.0146)" cx="118.7" cy="165.9" rx="2.6" ry="2.6"/>
						
							<ellipse transform="matrix(0.9997 -2.496577e-02 2.496577e-02 0.9997 -4.0313 2.9698)" class="st16" cx="116.9" cy="162.9" rx="1.9" ry="1.9"/>
					</g>
					<path class="st11" d="M119.5,140.4c-7.6,0.2-14.2,4.2-18,10.2c13.2,3.1,26.9,4.7,40.2,8.7C140.2,148.4,130.7,140.2,119.5,140.4
						z"/>
				</g>
				<path class="st22" d="M111.3,140.3l26.9,12.4c3.8,1.7,8.3,0.1,10-3.7l0,0c1.7-3.8,0.1-8.3-3.7-10l-26.9-12.4
					c-3.8-1.7-8.3-0.1-10,3.7l0,0C105.9,134.1,107.5,138.6,111.3,140.3z"/>
			</g>
			<g>
				<path class="st20" d="M121.5,176.3c0.3,1.5-2.3,1.4-2.8,2.4c-0.2,0.4-0.1,0.4-0.1,0.8c0,0,0,0,0,0c0.4,0.4,0.5,0.9,0.1,1.5
					c-0.1,0.3-0.5,0.5-0.7,0.7c-0.6,0.8,0,1.7-0.5,2.6c-0.1,0.1,0.1,0.3,0.2,0.1c0.4-0.9,0,0,0.3-0.9c-0.1-0.7,0-1.4,0.5-2
					c0.1-0.1,0.3-0.2,0.4-0.4c0.3-0.7,0.3-0.7,0.3-1.3c0.2-1.7-0.1-1.4,1-1.9c0.4-0.2,0.8-0.3,1.1-0.7
					C121.7,176.9,121.7,176.7,121.5,176.3C121.5,176.2,121.5,176.3,121.5,176.3L121.5,176.3z"/>
			</g>
			<g>
				<path class="st20" d="M118.2,176c-0.4,0.3-0.6,0.7-0.5,1.2c0.1,0.7,0.4,1.5,0.7,2.2c0.1,0.2,0.4,0.1,0.3-0.1
					c-0.3-0.9-1.4-2.3-0.5-3.1C118.4,176.1,118.3,175.9,118.2,176L118.2,176z"/>
			</g>
			<g>
				<path class="st20" d="M107.4,164.3c-0.4,0.8-0.9,1.6-1.3,2.4c-0.2,0.4-0.3,1.1-0.6,1.4c-1,1.3-2.3,0.2-3.4,1
					c-0.6,0.4-0.9,1.6-1,2.2c0,0.5,0.2,0.7-0.3,1.1c-0.3,0.2-0.6,0.2-0.8,0.5c-0.1,0.2,0.1,0.4,0.2,0.2c0.5-0.5,1.1-0.3,1.4-0.9
					c0.2-0.4-0.1-1.3,0-1.6c0.3-1.3,1.4-1.4,2.5-1.4c0.7,0,1.1-0.1,1.5-0.7c0.4-0.6,0.5-1.6,0.8-2.2
					C106.9,165.6,107.2,165,107.4,164.3C107.5,164.2,107.5,164.2,107.4,164.3L107.4,164.3z"/>
			</g>
			<g>
				<path class="st20" d="M108.7,166.4C108.7,166.4,108.7,166.3,108.7,166.4C108.6,166.3,108.6,166.4,108.7,166.4L108.7,166.4z"/>
			</g>
			<g>
				<path class="st20" d="M108.5,166.9c-0.4,0.6-0.7,1.1-1.3,1.4c-0.6,0.4-1.2,0.3-1.9,0.4c-0.1,0-0.2,0.2,0,0.3
					C106.5,169.4,108.4,168.2,108.5,166.9C108.6,166.9,108.5,166.9,108.5,166.9L108.5,166.9z"/>
			</g>
			<g>
				<path class="st20" d="M101.6,171.2c0.8,0,1.2,0.7,2,0.7c1,0,1.4-1.2,2.6-0.5c0.4,0.3,0.6,0.8,1.2,1c0.5,0.2,1,0.2,1.6,0
					c0.1,0,0.1-0.2,0-0.2c-0.8,0.1-1.4,0-2.1-0.5c-0.3-0.2-0.5-0.6-0.7-0.8c-0.4-0.3-0.5-0.2-1-0.2c-0.1,0-0.3,0.2-0.5,0.2
					c-1.9,0.5-1.1,0.4-2.1,0c-0.4-0.2-0.6-0.3-0.9,0C101.5,171,101.5,171.2,101.6,171.2L101.6,171.2z"/>
			</g>
			<g>
				<path class="st20" d="M107.9,171c-0.6,0.1-1.1,0.5-1.2,1.2c0,0.1,0.1,0.1,0.1,0c0.1-0.5,0.5-1,1.1-1.1
					C108,171.1,108,171,107.9,171L107.9,171z"/>
			</g>
			<g>
				<path class="st20" d="M133,161.7c0.5,1.1,1.2,4.2,3.1,3.2c0.6-0.3,0.3-0.5,1.2-0.6c1,0,1.4,0.8,2,1.4c0.6,0.6,1.1,0.9,1.9,0.7
					c0.2-0.1,0.1-0.4-0.1-0.3c-1.9,0.5-2.2-2.6-3.9-2.4c-0.9,0.1-1,1.2-2.2,0.9C133.7,164.4,133.5,162.6,133,161.7
					C133,161.5,132.9,161.6,133,161.7L133,161.7z"/>
			</g>
			<g>
				<path class="st20" d="M128.5,166c1.1-0.7,2.4-1.2,3.7-1.1c0.9,0.1,1.6,0.4,2.4-0.1c0.1-0.1,0-0.3-0.1-0.2
					c-1.1,0.7-2.5-0.1-3.8,0.1C129.8,164.9,129,165.3,128.5,166C128.4,166,128.4,166,128.5,166L128.5,166z"/>
			</g>
			<g>
				<path class="st20" d="M132.2,160.9c-0.6-0.6-1.1-1.1-1.7-1.7c0,0,0,0,0,0C131,159.8,131.6,160.4,132.2,160.9
					C132.2,161,132.2,161,132.2,160.9L132.2,160.9z"/>
			</g>
			<g>
				<path class="st20" d="M132.9,161.3c-0.3-0.3-0.1-0.9,0.3-1c0.1,0,0.1-0.1,0.1-0.1c-0.4-0.8-0.9-1.5-1.7-1.9c-0.1,0-0.1,0,0,0.1
					c0.5,0.3,1,0.7,1.3,1.3c0.1,0.1,0.3,0.5,0.2,0.6c0,0-0.2,0.1-0.3,0.2C132.4,160.7,132.5,161.1,132.9,161.3
					C132.9,161.3,132.9,161.3,132.9,161.3L132.9,161.3z"/>
			</g>
			<g>
				<path class="st20" d="M98.5,161.6c0.9,0.1,1.2,0.8,2,0c0.5-0.5,0.7-1.1,1.3-1.5c0.9-0.6,1.8-0.7,2.8-0.5c0.1,0,0.1-0.1,0-0.1
					c-1.1-0.2-2.2,0-3.1,0.6c-0.5,0.3-0.7,0.7-1.1,1.1c-0.7,0.6-1.3,0.2-2,0.3C98.4,161.4,98.4,161.6,98.5,161.6L98.5,161.6z"/>
			</g>
			<g>
				<path class="st20" d="M112.7,175.5c-1,0.5-1.2,1.4-1,2.5c0.1,0.8,0.3,0.9-0.1,1.8c-0.4,0.9-0.3,0.7-1.2,1.1
					c-0.5,0.2-0.7,0.4-1,0.8c-0.1,0.1,0.1,0.2,0.2,0.2c0.7-0.6,2.3-0.8,2.6-1.8c0.1-0.3,0-0.6-0.1-0.9c-0.2-0.8-0.6-1-0.3-2
					C111.9,176.4,112.2,175.9,112.7,175.5C112.7,175.6,112.7,175.5,112.7,175.5L112.7,175.5z"/>
			</g>
			<g>
				<path class="st20" d="M137,172.7c0.1-0.7,0.3-1.5-0.4-2c-0.2-0.2-0.5-0.2-0.8-0.1c-0.3,0.1-0.5,0.3-0.8,0.2
					c-0.4-0.1-0.7-0.4-0.8-0.8c0-0.1-0.1-0.1-0.1,0c0.1,0.5,0.4,0.9,0.9,0.9c0.3,0,0.5-0.1,0.8-0.1C137,170.6,137.1,171.9,137,172.7
					C136.9,172.7,137,172.8,137,172.7L137,172.7z"/>
			</g>
			<g>
				<path class="st20" d="M132.1,175.3c0,0.5,0.2,0.9,0.3,1.3c0.1,0.3,0.2,0.6,0.4,0.8c0.1,0.1,0.1,0,0.1-0.1
					c-0.5-0.5-0.3-1.4-0.7-2C132.2,175.2,132.1,175.3,132.1,175.3L132.1,175.3z"/>
			</g>
			<g>
				<path class="st20" d="M101.9,160.4c0.4,0.3,0.9,0.5,1.4,0.8c0.1,0,0.1,0,0.1-0.1c-0.1-0.1-0.3-0.3-0.4-0.4c0,0-0.1,0-0.1,0.1
					c0.1,0.1,0.3,0.3,0.4,0.4c0,0,0-0.1,0.1-0.1c-0.5-0.3-0.9-0.6-1.4-0.8C101.9,160.3,101.8,160.4,101.9,160.4L101.9,160.4z"/>
			</g>
			<g>
				<path class="st20" d="M106.2,164.3c-0.1,0.2-0.2,0.4-0.1,0.6c0.1,0.4,0.5,0.6,0.3,1.2c0,0.1,0.1,0.1,0.1,0
					c0.1-0.2,0.1-0.4,0-0.6C106.3,165.1,106,164.9,106.2,164.3C106.3,164.3,106.2,164.2,106.2,164.3L106.2,164.3z"/>
			</g>
			<g>
				<path class="st20" d="M105.4,158.2c-0.5-0.1-1.2-0.4-1.6,0.1c-0.2,0.2-0.2,0.5-0.4,0.7c-0.3,0.4-0.9,0.5-1.3,0.8
					c0,0,0,0.1,0,0.1c0.5-0.2,1.2-0.5,1.5-1c0.1-0.1,0.1-0.2,0.1-0.3c0.4-0.7,1-0.4,1.6-0.3C105.5,158.3,105.5,158.2,105.4,158.2
					L105.4,158.2z"/>
			</g>
		</g>
		<g>
			
				<ellipse transform="matrix(2.496577e-02 -0.9997 0.9997 2.496577e-02 21.427 377.9726)" class="st12" cx="204.5" cy="178" rx="1.3" ry="2.5"/>
			
				<ellipse transform="matrix(2.496577e-02 -0.9997 0.9997 2.496577e-02 11.9762 367.786)" class="st12" cx="194.5" cy="177.8" rx="1.3" ry="2.5"/>
			
				<ellipse transform="matrix(2.496577e-02 -0.9997 0.9997 2.496577e-02 11.6083 377.6047)" class="st12" cx="199.4" cy="182.9" rx="1.3" ry="2.5"/>
			<g>
				<path class="st12" d="M170.6,161.5c3.3,9.1,7.3,20.1,16.6,25.6c1.4,1.2,2.8,2.3,4.3,3.4c1.5,1.1,2.9,2.1,4.4,3.1
					c-1.5-2-2.8-4-3.8-6.1c-1-2.1-1.8-4.3-2.3-6.8c2.5,0.9,4.8,1.9,7,2.8c2.2,0.9,4.4,1.7,6.8,2.2c3.3,1.5,5.9,2.8,5.9,2.8
					s-1.5-1-3.9-2.5c-1.7-0.8-3.5-1.6-5.2-2.4c-1.7-0.8-3.5-1.6-5.2-2.4c-8.3-6.5-20.3-7.5-23.8-19.2"/>
				<g>
					<path class="st15" d="M212.3,152.7c-0.3,13.9-6.8,25.1-20.7,24.7s-22.4-11.9-22-25.8c0.3-13.9,9.4-25,23.3-24.6
						S212.7,138.8,212.3,152.7z"/>
					
						<ellipse transform="matrix(2.496499e-02 -0.9997 0.9997 2.496499e-02 32.9692 340.4559)" class="st9" cx="191" cy="153.3" rx="21.9" ry="21.9"/>
					<g>
						
							<ellipse transform="matrix(2.496577e-02 -0.9997 0.9997 2.496577e-02 30.6612 345.3135)" class="st13" cx="192.4" cy="156.9" rx="6.7" ry="6.7"/>
						
							<ellipse transform="matrix(2.496577e-02 -0.9997 0.9997 2.496577e-02 30.6612 345.3135)" cx="192.4" cy="156.9" rx="2.6" ry="2.6"/>
						
							<ellipse transform="matrix(2.496577e-02 -0.9997 0.9997 2.496577e-02 35.3807 344.1396)" class="st16" cx="194.1" cy="153.9" rx="1.9" ry="1.9"/>
					</g>
					<path class="st11" d="M191.6,131.4c7.6,0.2,14.2,4.2,18,10.2c-13.2,3.1-26.9,4.7-40.2,8.7C170.8,139.4,180.3,131.2,191.6,131.4
						z"/>
				</g>
				<path class="st22" d="M199.7,131.3l-26.9,12.4c-3.8,1.7-8.3,0.1-10-3.7l0,0c-1.7-3.8-0.1-8.3,3.7-10l26.9-12.4
					c3.8-1.7,8.3-0.1,10,3.7l0,0C205.2,125.1,203.5,129.6,199.7,131.3z"/>
			</g>
			<g>
				<path class="st20" d="M189.5,167.3c-0.2,0.4-0.2,0.6,0.2,1c0.3,0.3,0.8,0.5,1.1,0.7c1.1,0.5,0.8,0.2,1,1.9
					c0.1,0.6,0,0.7,0.3,1.3c0.1,0.1,0.2,0.3,0.4,0.4c0.5,0.6,0.7,1.3,0.5,2c0.2,0.9-0.2,0,0.3,0.9c0.1,0.1,0.3,0,0.2-0.1
					c-0.4-0.9,0.1-1.7-0.5-2.6c-0.2-0.3-0.5-0.4-0.7-0.7c-1.8-3,0.1-0.5,0.1-1.6c0-0.4,0.1-0.4-0.1-0.8
					C191.8,168.7,189.2,168.8,189.5,167.3C189.6,167.3,189.5,167.2,189.5,167.3L189.5,167.3z"/>
			</g>
			<g>
				<path class="st20" d="M192.7,167.1c0.9,0.8-0.2,2.2-0.5,3.1c-0.1,0.2,0.2,0.3,0.3,0.1c0.3-0.7,0.6-1.5,0.7-2.2
					c0.1-0.5,0-0.9-0.5-1.2C192.8,166.9,192.7,167.1,192.7,167.1L192.7,167.1z"/>
			</g>
			<g>
				<path class="st20" d="M203.5,155.3c0.2,0.6,0.5,1.2,0.8,1.7c0.2,0.3,0.4,0.6,0.5,1c0.2,0.4,0.2,1.2,0.4,1.5
					c0.4,0.6,0.8,0.7,1.5,0.7c1,0,2.1,0,2.5,1.1c0.2,0.6-0.1,1.2,0,1.7c0.2,0.8,0.8,0.4,1.4,1c0.2,0.2,0.4-0.1,0.2-0.2
					c-0.3-0.3-0.5-0.3-0.8-0.5c-0.5-0.4-0.2-0.5-0.3-1c-0.1-0.6-0.4-1.8-1-2.2c-1.1-0.7-2.4,0.4-3.4-1c-0.2-0.3-0.4-1.1-0.6-1.4
					C204.5,156.8,204,156.1,203.5,155.3C203.6,155.2,203.5,155.2,203.5,155.3L203.5,155.3z"/>
			</g>
			<g>
				<path class="st20" d="M202.4,157.4C202.4,157.4,202.4,157.3,202.4,157.4C202.4,157.3,202.4,157.4,202.4,157.4L202.4,157.4z"/>
			</g>
			<g>
				<path class="st20" d="M202.5,157.9c0.2,1.2,2.1,2.5,3.3,2.1c0.1,0,0.1-0.2,0-0.3c-0.7-0.1-1.3,0-1.9-0.4
					C203.2,159,202.9,158.5,202.5,157.9C202.5,157.9,202.5,157.9,202.5,157.9L202.5,157.9z"/>
			</g>
			<g>
				<path class="st20" d="M209.5,162c-0.3-0.2-0.4-0.2-0.8-0.1c-1.2,0.4,0,0.7-2.2,0.1c-0.2,0-0.3-0.2-0.5-0.2
					c-0.5,0-0.4-0.2-0.9,0.1c-0.2,0.1-0.4,0.5-0.5,0.7c-0.6,0.6-1.5,0.8-2.4,0.7c-0.1,0-0.1,0.1,0,0.2c0.5,0.1,1,0.2,1.5,0
					c0.6-0.2,0.7-0.7,1.2-1c1.1-0.8,1.7,0.5,2.6,0.5c0.7,0,1.2-0.7,2-0.7C209.5,162.2,209.5,162,209.5,162L209.5,162z"/>
			</g>
			<g>
				<path class="st20" d="M203.1,162.1c0.6,0.1,0.9,0.5,1.1,1.1c0,0.1,0.1,0,0.1,0c0-0.6-0.5-1.1-1.2-1.2
					C203.1,162,203,162.1,203.1,162.1L203.1,162.1z"/>
			</g>
			<g>
				<path class="st20" d="M178,152.6c-0.4,1-0.7,2.7-1.8,3c-1.2,0.3-1.3-0.8-2.2-0.9c-1.8-0.2-2,2.9-3.9,2.4
					c-0.2-0.1-0.3,0.3-0.1,0.3c0.7,0.2,1.2,0,1.7-0.5c0.5-0.5,0.9-1.4,1.6-1.7c0.8-0.4,1.2,0.3,1.8,0.6
					C176.9,156.9,177.6,153.8,178,152.6C178.1,152.6,178,152.5,178,152.6L178,152.6z"/>
			</g>
			<g>
				<path class="st20" d="M182.6,156.9c-0.6-0.6-1.4-1-2.3-1.2c-1.3-0.2-2.7,0.6-3.8-0.1c-0.1-0.1-0.2,0.1-0.1,0.2
					c0.8,0.5,1.5,0.2,2.4,0.1C180.2,155.8,181.4,156.3,182.6,156.9C182.6,157,182.7,157,182.6,156.9L182.6,156.9z"/>
			</g>
			<g>
				<path class="st20" d="M178.9,152c0.6-0.6,1.1-1.1,1.7-1.7c0,0,0,0,0,0C180,150.8,179.4,151.4,178.9,152
					C178.9,152,178.9,152,178.9,152L178.9,152z"/>
			</g>
			<g>
				<path class="st20" d="M178.1,152.3c0.4-0.2,0.5-0.7,0.2-1c-0.1-0.1-0.2-0.1-0.2-0.1c-0.1-0.2,0,0.3,0-0.1c0-0.1,0.1-0.3,0.2-0.4
					c0.3-0.6,0.8-1,1.3-1.3c0.1,0,0-0.1,0-0.1c-0.8,0.4-1.3,1.1-1.7,1.9c0,0,0,0.1,0.1,0.1C178.2,151.4,178.4,152.1,178.1,152.3
					C178.1,152.3,178.1,152.3,178.1,152.3L178.1,152.3z"/>
			</g>
			<g>
				<path class="st20" d="M212.5,152.4c-0.6-0.1-1.2,0.3-1.8,0c-0.5-0.2-0.8-1-1.3-1.3c-0.9-0.6-2-0.8-3.1-0.6c-0.1,0,0,0.1,0,0.1
					c0.9-0.2,1.9-0.1,2.7,0.4c0.7,0.4,0.9,1,1.5,1.6c0.8,0.8,1.1,0.1,2,0C212.6,152.6,212.6,152.4,212.5,152.4L212.5,152.4z"/>
			</g>
			<g>
				<path class="st20" d="M198.3,166.6c0.4,0.3,0.8,0.8,0.9,1.4c0.1,0.8-0.1,1.3-0.3,2c-0.1,0.3-0.2,0.6-0.1,1
					c0.3,1,1.9,1.2,2.6,1.8c0.1,0.1,0.3,0,0.2-0.2c-0.3-0.4-0.6-0.6-1-0.8c-0.2-0.1-0.6-0.2-0.9-0.4c-1.1-0.9-0.5-1.6-0.4-2.5
					C199.5,168,199.3,167.1,198.3,166.6C198.3,166.5,198.3,166.6,198.3,166.6L198.3,166.6z"/>
			</g>
			<g>
				<path class="st20" d="M174.1,163.7c0-0.3-0.1-0.6,0-0.9c0-0.3,0.1-0.5,0.3-0.7c0.2-0.3,0.5-0.3,0.9-0.2c0.3,0.1,0.5,0.2,0.8,0.1
					c0.5-0.1,0.9-0.4,0.9-0.9c0-0.1-0.1-0.1-0.1,0c-0.1,0.3-0.3,0.7-0.7,0.8c-0.3,0.1-0.6-0.1-0.9-0.2c-0.3-0.1-0.5-0.1-0.8,0.1
					C173.7,162.2,173.9,163,174.1,163.7C174,163.8,174.1,163.7,174.1,163.7L174.1,163.7z"/>
			</g>
			<g>
				<path class="st20" d="M178.8,166.3c-0.4,0.6-0.2,1.5-0.7,2c-0.1,0.1,0,0.1,0.1,0.1c0.2-0.2,0.3-0.5,0.4-0.8
					c0.1-0.4,0.3-0.9,0.3-1.3C178.9,166.3,178.8,166.2,178.8,166.3L178.8,166.3z"/>
			</g>
			<g>
				<path class="st20" d="M209.1,151.3c-0.5,0.2-0.9,0.5-1.4,0.8c0,0,0,0.1,0.1,0.1c0.1-0.1,0.3-0.3,0.4-0.4c0,0,0-0.1-0.1-0.1
					c-0.1,0.1-0.3,0.3-0.4,0.4c0,0,0,0.1,0.1,0.1c0.5-0.3,1-0.5,1.4-0.8C209.2,151.4,209.2,151.3,209.1,151.3L209.1,151.3z"/>
			</g>
			<g>
				<path class="st20" d="M204.8,155.4c0.4,0.7-0.4,1.1-0.2,1.8c0,0.1,0.1,0,0.1,0c-0.2-0.5,0.2-0.7,0.3-1.2
					C205.1,155.7,205,155.5,204.8,155.4C204.8,155.2,204.7,155.3,204.8,155.4L204.8,155.4z"/>
			</g>
			<g>
				<path class="st20" d="M205.6,149.3c0.5-0.1,1.1-0.4,1.5,0.1c0.2,0.2,0.2,0.3,0.3,0.5c0.3,0.5,1,0.8,1.5,1c0.1,0,0.1,0,0-0.1
					c-0.4-0.3-1-0.5-1.3-0.8c-0.2-0.2-0.2-0.5-0.4-0.7c-0.4-0.4-1.1-0.2-1.6-0.1C205.5,149.2,205.5,149.3,205.6,149.3L205.6,149.3z"
					/>
			</g>
		</g>
	</g>
	<g>
		<path class="st68" d="M119.1,173.9c-8.3-3-6.6,4.6-11.1-0.4c-1.5-2.6-3.6-3-5.7-2.6c3,8.1,10.9,13.9,20.1,13.9
			c9.2,0,17.1-5.8,20.1-14C136.6,166.8,127.3,176.9,119.1,173.9z"/>
		<path class="st68" d="M203,164.8c-6.9-6.1-10,1.8-15.1,1.3c-2-0.2-2.8-5.9-5.9-3.3c-4.6,3.8-5.7,3.3-9.4,2.3
			c3.5,7.1,10.8,12.1,19.3,12.1c9.6,0,17.7-6.3,20.4-14.9c-1.5-0.6-3.2-1.8-4.3-1.4C205.9,161.5,205.7,167.2,203,164.8z"/>
	</g>
	<g>
		<path class="st11" d="M88.2,205.9c0,0.2,0,0.5,0,0.7C88.2,206.3,88.2,206.1,88.2,205.9z"/>
		<path class="st11" d="M88.2,205.9c0,0.2,0,0.5,0,0.7C88.2,206.3,88.2,206.1,88.2,205.9z"/>
		<g>
			<g>
				<path class="st48" d="M82.2,226.6c1.5,1.7,2.8,3.1,4.2,4.4c20.9,12,32.9,32,33.7,55.7c0.1,2.1,0,4.2-0.5,6.1
					c-1.4,5.7-5.3,10.1-13.2,11.2c-4,0-7,0-11,0c-3-1-6-1-9-3c-5-4-10-7-14.1-10.9c-1.5-1.3-3-2.6-4.5-4c-8.9-8.1-17.7-17-24.4-25.3
					c-1.7-2.6-2.1-6.6-2.4-9.3c0-1.5,0.3-3.2,0.9-4.9c7.5-11.7,19.5-24.7,35.4-23.9C79.7,224,80.1,224.2,82.2,226.6z"/>
				<path class="st9" d="M86,231c15.3,14,34.3,32,56.3,21c-11,4-21,10-32,13c-2-13-13-22-21.6-30.4C87,232.7,86.1,231.4,86,231z"/>
				<path class="st9" d="M42.3,247.2c-4-6.1-7-13.1-10-20.1c14-3,29-5,39-16c10,13,5,25-10,30c-4,1-9,3-13,4.4
					C46.3,246.1,44.3,246.7,42.3,247.2z"/>
			</g>
		</g>
		<g>
			<g>
				<path class="st11" d="M30.2,187.9c27.3,0.3,57.3-11.7,79.3,10.3c-4,0-12,0-12,0c-8,24-36,44-59.8,47"/>
			</g>
			<g>
				<path class="st12" d="M40.5,192c5,0.2,9,0.2,11,2.2c1.8,2.8,2.9,5.8,3.7,8.9c-0.3,3.8-0.5,8-0.5,12.3
					c-1.2,18.8,8.8,48.8,32.8,42.8c-2,24-38,18-54,10c-6-6-12-14-14-22c0-8-2-18,1.4-26.6c1.1-3.2,2.6-6.3,4.5-9.3
					c1.9-2.9,4.1-5.7,6.6-8.2C33.6,197.9,35.6,194.1,40.5,192z"/>
				<g>
					<path class="st12" d="M115.5,273.6L115.5,273.6c0,5.4-9.8,10.9-14.6,10.9l-25.2-1.4c-4.7,0-11-3.2-11-8.7l-0.1-1.6
						c0-5.4,6.3-9.5,11-9.5l27-5.6C107.5,257.9,115.5,268.2,115.5,273.6z"/>
					<path class="st12" d="M127,218.2c14.5,18,4.5,46-11.5,60c-6,4-14,4-20,0c8-4,2-12,4-16c4-16,4-36,21.9-45.5
						C123.7,216,125.7,216.4,127,218.2z"/>
				</g>
			</g>
			<path class="st12" d="M38,272.7L38,272.7c11,0,20.1-9,20.1-20.1v-58.2c0-11-9-20.1-20.1-20.1h0c-11,0-20.1,9-20.1,20.1l0,58.2
				C18,263.7,27,272.7,38,272.7z"/>
			<path class="st12" d="M106,272.7L106,272.7c11,0,20.1-9,20.1-20.1l-2.4-58.4c0-11-8-19.8-19.1-19.8l-4.9-0.4
				c-11,0-20,6.8-20,17.9l6.2,60.6C86,263.7,95,272.7,106,272.7z"/>
			<path class="st12" d="M72,266.7h0.8c10.8,0,19.7-8.9,19.7-19.7c0,0,0-20.7,0-36.7c0-2.3,0-4.5,0-6.5c0.4-1.7,0.5-3.5,0.6-5.4
				c0-1.9-0.1-3.8-0.4-5.7c-0.2-8.9-7.2-16.7-15.3-18.4c-1.6-0.4-3.3-0.5-4.9-0.3c-19,0-24.8,19.9-23.8,34.2c0,1.3,3.8,5.8,3.8,7.2
				c0,15,0,31.7,0,31.7C52.3,257.9,61.1,266.7,72,266.7z"/>
			<path class="st11" d="M100.7,269.7h0.8c10.8,0,19.7-8.9,19.7-19.7c0,0,0-27,0-43.3c0-2.3,0-4.4,0-6.2c-0.4-6-0.5-11.6-3.8-16.2
				c-1.1-1.5-2.4-2.9-3.8-4.2c-4.2-4.2-9.8-5.8-15.2-5.4c-1.8,0.1-3.6,0.5-5.3,1.1C79.3,180,79.3,196,81,206.8c0,2.3,0,4.9,0,7.5
				c0,15.9,0,35.7,0,35.7C81,260.9,89.8,269.7,100.7,269.7z"/>
			<path class="st11" d="M32.7,269.7h0.8c10.8,0,19.7-8.9,19.7-19.7c0,0,0-16.7,0-31.7c0-1.4,0-2.7,0-4C55.3,200,56.3,180,38.3,176
				c-1.7-0.3-3.3-0.5-5-0.5c-18.7,1.7-19.1,18.2-18.9,35.1c0,2.1,0.1,4.2,0.1,6.3c0.2,1.9,0.3,3.8,0.3,5.8
				C15.3,238,10.3,261,27.5,269C29.1,269.5,30.8,269.7,32.7,269.7z"/>
			<path class="st11" d="M69,269.7h0.8c10.8,0,19.7-8.9,19.7-19.7c0,0,0-20.7,0-36.7c0-2.3,0-4.5,0-6.5c0.4-1.7,0.5-3.5,0.6-5.4
				c0-1.9-0.1-3.8-0.4-5.7c-0.2-8.9-7.2-16.7-15.3-18.4c-1.6-0.4-3.3-0.5-4.9-0.3c-19,0-21,23-20,37.3c0,1.3,0,2.7,0,4
				c0,15,0,31.7,0,31.7C49.3,260.9,58.1,269.7,69,269.7z"/>
		</g>
		<line class="st69" x1="85" y1="266.1" x2="83.9" y2="205.6"/>
		<line class="st69" x1="51" y1="266.1" x2="49.9" y2="205.6"/>
	</g>
	<polygon class="st87" points="166.3,331 153.7,345 139,332.6 148.3,253.7 156,253.8 	"/>
</g>
<g id="Layer_2">
</g>
</svg>
