<svg id="f32b6faf-4b7e-4e55-8b20-6aafd18e8813" data-name="Layer 1" xmlns="http://www.w3.org/2000/svg" xmlns:xlink="http://www.w3.org/1999/xlink" viewBox="0 0 300 450"><defs><clipPath id="bd295df6-b94e-45cb-a768-a5ff3e9e5b61"><path d="M250.65,216.81a99.73,99.73,0,0,1-199.47,0c0-55.08-18.24-171.13,112.17-162.62C218.31,57.77,250.65,161.72,250.65,216.81Z" style="fill:none"/></clipPath></defs><title>juego2_ilust</title><path d="M261,121.1c-7,6-12,16-21,22v-1c-2,5-8,5-11,8-2,3,7,3,3,7,18.84-6.73,32.23-21.61,40.51-39.15a17.49,17.49,0,0,0-3.83-5.91c-1.95-2-4-5.09-6.13-7C263.73,111.43,264.07,117.41,261,121.1Z" style="fill:#fff"/><circle cx="150.91" cy="216.81" r="99.73" style="fill:#b72c34"/><g style="clip-path:url(#bd295df6-b94e-45cb-a768-a5ff3e9e5b61)"><path d="M248.5,229.55c-2.16-9.34-3.88-15.74-12.09-17.2-4.93-.88-15.38-.05-21.11,1.55l-22.58,6.31c-6.92,1.93-17.56,6.56-21.73,11-5,5.38-2.76,11.09-.87,19.28L185,314.84a26.1,26.1,0,0,0,5.18,10.63c24.22-5,48.27-12,72.42-18a27.91,27.91,0,0,0,.58-14.53Z" style="fill:#f1f3f7"/><path d="M138.5,259.55c-2.16-9.34-3.88-15.74-12.09-17.2-4.93-.88-15.38-.05-21.11,1.55l-22.58,6.31c-6.92,1.93-17.56,6.56-21.73,11-5,5.38-2.76,11.09-.87,19.28L75,344.84a26.1,26.1,0,0,0,5.18,10.63c24.22-5,48.27-12,72.42-18a27.91,27.91,0,0,0,.58-14.53Z" style="fill:#f1f3f7"/><path d="M232,213.24l-2.5,1.55c-4.25,2.29-1.88,12.12,5.26,21.84l12.86,19.8,14,23.41c3.91,5.32,6.62,9.79,10,11.33a10.79,10.79,0,0,0,8.55-.41l6.28-3.39c1.59-.86,3.86-3,4.09-5.09.37-3.4-2.65-7.64-7.11-13.71,0,0-21.49-31.09-16.34-23.17s-8.64-12.77-16.71-23S236.23,211,232,213.24Z" style="fill:#f1f3f7"/><polygon points="224.36 257.8 234.38 260.28 242.56 253.6 239.43 240.05 221.23 244.25 224.36 257.8" style="fill:#fff"/><rect x="220.15" y="236.35" width="18.68" height="4.34" transform="translate(-47.78 57.75) rotate(-13)" style="fill:#fff"/><path d="M57.93,205.7c0,.27,0,.53,0,.81C57.91,206.25,57.92,206,57.93,205.7Z" style="fill:#f7cfa2"/></g><path d="M198.66,225.42l.6-5.17c.92-6.09-7.15-12.41-17.93-14l-21-4.94-24.09-7c-5.9-.89-10.53-2.2-13.57-.25-2.51,1.61-4.29,5.83-4.71,8.58l-1.36,9c-.35,2.29-.18,6.39,1.08,8.39,2.1,3.33,6.74,4.13,13.48,5.15,0,0,33.7,6.51,25.31,4.54s13.74,2.85,25.43,4.07S197.74,231.51,198.66,225.42Z" style="fill:#f1f3f7"/><path d="M191.5,210.14c13.13,4.62,11.13,21.62,1.13,28.62-4,2-8,5-13,5.41a48.12,48.12,0,0,1-4.89.77,53.34,53.34,0,0,1-20-2.51c-2.14-.66-4.25-1.43-6.37-2.28-17.73-6.38-47.73-17.38-39.73-39.38,2-7,13-4,21.11-3.59,2.5.38,5.1.87,7.77,1.42,11.66,2.45,24.57,6.31,36,8.8,2.29.5,4.53.94,6.69,1.31s4.21.67,6.13.9S189.94,210.06,191.5,210.14Z" style="fill:#f1f3f7"/><path d="M103.33,130.63c-1.61,9.49-7.53,23.51,6,22.69-1.07-.35,10,1.91,14.37.89s3.3-.89,8.16-14.49c.63-1.77-2.7-7.67-2.11-9.37.39-1.05,4.53-6.79,3.34-6.16-1.67.89-1.28-3.69-.8-5.74,1.94-8.27-9.41-12.1-19.8-9.93-9.22,2.21-5,9.63-9.11,16.16C103.33,125,104.1,126,103.33,130.63Z" style="fill:#f0ba7a"/><path d="M120.1,146.72h0a5.63,5.63,0,0,1-.63-7.91l11.65-13.4,7.17-4.48c2.69-1.59,7.12-2.4,10-.47s1.7,5.54-.31,7.88l-9.14,5.24-12,9.94C124.89,145.88,122.45,148.73,120.1,146.72Z" style="fill:#f0ba7a"/><path d="M98.57,126.83c-1.58,7.07-3.46,19.38,4.91,23.29,2.91,1.83,6.43,2.69,9.41,1.18,6.14-2.23,11.74-6.83,14-13.25.7-1.21,1.39-2.45,2.07-3.71,1-2.73,1.11-6.07,1.33-8.56-.3-.6,0-3.53-.06-3.56-4.42-1.46-11.48-1.63-20.21.2-9.22,2.21-6.78-2.06-10.92,4.46C99.09,127.21,98.53,126.53,98.57,126.83Z" style="fill:#f7cfa2"/><path d="M121.88,117.61h0c-1.34-1.74.47-5.94,2-7.09l8.43-5.75c1.53-1.15,4.32-1.67,5.67.07l.43.5c1.34,1.74.33,4.61-1.21,5.76l-7.31,8.45C128.36,120.71,123.23,119.35,121.88,117.61Z" style="fill:#f7cfa2"/><path d="M132.26,106.9h0c.59-2.26,2.45-3.74,4.14-3.31l11.12,2.87c1.69.44,3.58,2.31,3,4.56l-.15.68a4.42,4.42,0,0,1-5,3l-11.12-2.87C132.58,111.36,131.68,109.15,132.26,106.9Z" style="fill:#f7cfa2"/><path d="M146,108l-.39-2.06c2.44.05,4.71,1.58,5.12,2.71l2.66,7.44c.4,1.13,1.25,2.7-.94,3.48l-.65.25c-2.2.77-5.41-2.43-5.81-3.57l-3.24-4.78C142.29,110.38,143.76,108.82,146,108Z" style="fill:#f7cfa2"/><path d="M121.27,136h0c-3-.77-5-3-4.52-5l3.32-12.84c.51-2,4.46-7.73,7.45-7l-.67,3.85c3,.77,4,2.61,3.46,4.56l-.23,6.34C129.58,127.95,124.26,136.77,121.27,136Z" style="fill:#f7cfa2"/><path d="M115.94,115.73h0c-2.11-.81-1.55-4.3-.94-6.27l2.17-11.66c.6-2,2.61-4.07,4.72-3.26l.64.21c2.11.81,2.92,4,2.31,6l.92,11.6C125.15,114.31,118,116.54,115.94,115.73Z" style="fill:#f7cfa2"/><path d="M118.35,99.79h0c-.81-2.42-.13-4.88,1.52-5.47l10.82-3.9a4,4,0,0,1,5.09,2.43l.27.71a4.75,4.75,0,0,1-2.41,5.64l-10.82,3.9C121.17,103.7,119.16,102.2,118.35,99.79Z" style="fill:#f7cfa2"/><path d="M130.3,92.8l-1.5-1.67c2-1.39,4.79-1.32,5.78-.52L141,95.89c1,.8,2.59,1.75,1.22,3.75l-.39.61c-1.37,2-5.86.94-6.84.14L129.6,97.9C128.62,97.1,128.93,94.81,130.3,92.8Z" style="fill:#f7cfa2"/><path d="M126,133h0c-2.91,1-5.87.19-6.57-1.9l-4.63-13.75c-.71-2.09-.76-9.72,2.15-10.77l1.66,3.93c2.91-1,4.77.07,5.47,2.16l3.45,6C128.22,120.7,128.9,131.93,126,133Z" style="fill:#f7cfa2"/><path d="M105,104.1h0c-2.11-.81-1.55-4.3-.94-6.27l2.17-11.66c.6-2,2.61-4.07,4.72-3.26l.64.21c2.11.81,2.92,4,2.31,6l1.87,15.65C115.14,106.74,107.09,104.91,105,104.1Z" style="fill:#f7cfa2"/><path d="M107.39,88.16h0c-.81-2.42-.13-4.88,1.52-5.47l10.82-3.9a4,4,0,0,1,5.09,2.43l.27.71a4.75,4.75,0,0,1-2.41,5.64l-10.82,3.9C110.21,92.07,108.2,90.58,107.39,88.16Z" style="fill:#f7cfa2"/><path d="M119.34,81.18l-1.5-1.67c2-1.39,4.79-1.32,5.78-.52l6.46,5.27c1,.8,2.59,1.75,1.22,3.75l-.39.61c-1.37,2-5.86.94-6.84.14l-5.42-2.49C117.66,85.48,118,83.18,119.34,81.18Z" style="fill:#f7cfa2"/><path d="M120.85,130.55l-4.53.4c-2.91,1-17.74,1.44-18.44-.65l6.06-28.37c-.71-2.09,1.47-7.54,4.38-8.59l-.73,5.44c2.91-1,4.77.07,5.47,2.16l3.45,6C124,129.08,124.75,130.73,120.85,130.55Z" style="fill:#f7cfa2"/><path d="M133.14,162.28c15.23,41.4,2.2,46.42-5,61.4-2.86,7.18-16.81.42-20.92-7.16-5.55-12.91-11.75-30.46-14.43-44.61-.21-2.46,1-5.54,1.84-7.59,4.71-8.82,27-14.29,35.07-6.85C131.74,159.42,132.09,159.69,133.14,162.28Z" style="fill:#f1f3f7"/><path d="M134.69,167c1,2,3.44,8.55,4,10.61,2.31,8.11.84,7.54,1.68,13.47.08.55,26.69,12.78,26.69,12.78s-28.67-7.64-31.93-5C138.2,184.85,134.38,168.15,134.69,167Z" style="fill:#fff"/><path d="M97.42,161.71c-.76-3.39,0-17,.45-18.18,6.84,3.12,22.26,6.52,31.63,2.95-.35,4.23-1.31,14.64-2,16.11C117.71,165,106.86,164.11,97.42,161.71Z" style="fill:#fff"/><path d="M222.94,211.91a138,138,0,0,0-15.23-19.1l-8.57,6.14a10.31,10.31,0,0,0-2.37,14.35l2.24,3.12a10.31,10.31,0,0,0,14.34,2.37Z" style="fill:#f7cfa2"/><path d="M58,205c0,.23,0,.45,0,.68Q57.95,205.35,58,205Z" style="fill:#f7cfa2"/><polygon points="197.81 245.36 199.95 220.06 210.44 226.06 197.81 245.36" style="fill:#dcdde0;opacity:0.400000005960465"/><polygon points="197.81 245.36 199.95 220.06 188.6 224.21 197.81 245.36" style="fill:#dcdde0;opacity:0.400000005960465"/><polygon points="210.26 223.38 201.29 219.02 194.07 224.42 198.71 231.66 204.81 231.81 210.26 223.38" style="fill:#0076b7"/><polygon points="212.65 293.37 202.52 304.5 190.89 294.52 198.71 231.66 204.81 231.81 212.65 293.37" style="fill:#0076b7"/><polygon points="201.53 218.86 201.53 219.36 213 229.44 218.07 219.08 215.78 214.6 201.53 218.86" style="fill:#fff"/><polygon points="201.53 218.86 201.53 219.36 189.92 229.29 184.98 218.88 187.34 214.42 201.53 218.86" style="fill:#fff"/><path d="M215.13,196.21c-.5.61-2.2,2.63-3.86,4.65-4.3,3.72-5.9,15.65.4,17.38,9.64,1.7,19.93-2.43,29.19,1,3.74,1.55,7.46-.25,11.13-2.18a13.89,13.89,0,0,0,4.11-3c1.45-1,2.84-2.15,4.19-3.32,9.43-8.19,16.38-19.35,23.34-30.5,3.15-6.23,8-31.11,3-32.19C268.24,144.09,236.7,185.54,215.13,196.21Z" style="fill:#f1f3f7"/><path d="M228.33,159.85l.65-.13Z" style="fill:#f7cfa2"/><path d="M227.79,160l.54-.1Z" style="fill:#f7cfa2"/><path d="M226,161.17c-.31.63-.81,2-.47,2.67l3.49-4.12-.65.13-.54.1A2.29,2.29,0,0,0,226,161.17Z" style="fill:#f7cfa2"/><circle cx="132.33" cy="158.64" r="13.6" transform="translate(-3.92 3.35) rotate(-1.43)" style="fill:#f7cfa2"/><circle cx="132.33" cy="158.64" r="8.96" transform="translate(-3.92 3.35) rotate(-1.43)" style="fill:#f0ba7a"/><circle cx="242.78" cy="155.88" r="13.6" transform="translate(-3.82 6.11) rotate(-1.43)" style="fill:#f7cfa2"/><circle cx="242.78" cy="155.88" r="8.96" transform="translate(-3.82 6.11) rotate(-1.43)" style="fill:#f0ba7a"/><path d="M243.29,143.89c6.33-62.18-26.26-45.27-57.24-44.5s-55.58,22-54.95,47.3l.8,32.21c.63,25.35,38.07,45,57.24,44.5,16.9-.42,55.58-22,54.95-47.3C244,170.43,242.72,149.53,243.29,143.89Z" style="fill:#f7cfa2"/><path d="M223.16,130.8c-1.38-1.31,1.24-4.06,1.24-4.06,8-1.54,9.7,11.85,17.66,7.62,2.65-1.41,1.18-6.75,1.07-10.78,3.42,8.47,5.61,1.66,10.44-.91.34-4.47.7-8.2.65-10.37-.76-30.28-27.37-48.4-57.65-47.64-29.53.74-45.54,19.5-46,48.77,22.86-8.36,38.58,2.66,54.07,16.1C210.88,129.33,216.6,131,223.16,130.8Z" style="fill:#601515"/><path d="M183.06,91.14a1.46,1.46,0,0,0-.36-2.08h0a37.89,37.89,0,0,0-53.87,50,1.47,1.47,0,0,0,2.14.48C150.3,125.56,169,110.07,183.06,91.14Z" style="fill:#601515"/><path d="M160.9,202.64a163.69,163.69,0,0,1,26.52-12.89c15.67-5.8,34.34-15.65,31.14,16.52a93,93,0,0,1-28.23,8.48C175.06,216.54,160.9,202.64,160.9,202.64Z" style="fill:#ea6d50"/><path d="M177.67,203.8c.74,2.09,1.5,4.18,2.41,6.18a.78.78,0,0,0,.5.43,25.87,25.87,0,0,0,8.16.93.66.66,0,0,0,.56-.89c-.94-2.38-2-4.73-3.13-7.06A47.39,47.39,0,0,1,177.67,203.8Z" style="fill:#fff"/><path d="M186.94,203.27c1.1,2.32,2.15,4.65,3.17,7a1.29,1.29,0,0,0,1.36.77c1.81-.25,3.57-.57,5.26-.93a.86.86,0,0,0,.63-1.1c-.8-2.42-1.71-4.82-2.66-7.21C192.13,202.37,189.54,202.9,186.94,203.27Z" style="fill:#fff"/><path d="M214.3,198.28a69.1,69.1,0,0,0-10.58,1.51,43.55,43.55,0,0,1,2.4,7,.69.69,0,0,0,.9.5c3.23-1.11,5.54-2.1,6.47-2.52a.87.87,0,0,0,.51-.7A41.79,41.79,0,0,0,214.3,198.28Z" style="fill:#fff"/><path d="M195.39,201.65c1,2.39,2,4.79,2.9,7.26a.93.93,0,0,0,1.09.59c1.89-.47,3.66-1,5.27-1.48a.85.85,0,0,0,.58-1,46.91,46.91,0,0,0-2.12-7.12C200.54,200.47,198,201.08,195.39,201.65Z" style="fill:#fff"/><path d="M166.68,203.3a43.71,43.71,0,0,0,11.06,6.19.53.53,0,0,0,.69-.7c-.67-1.68-1.29-3.36-1.84-5.07C173.15,203.51,169.95,203.74,166.68,203.3Z" style="fill:#fff"/><path d="M175.59,198.12c.6,1.49,1.14,3,1.68,4.56a63.37,63.37,0,0,0,8.3-.53c-1.14-2.31-2.32-4.61-3.49-6.91a.77.77,0,0,0-1-.36c-1.81.74-3.53,1.49-5.12,2.21A.8.8,0,0,0,175.59,198.12Z" style="fill:#fff"/><path d="M187.92,192.31c-1.44.49-2.84,1-4.21,1.54a1.25,1.25,0,0,0-.64,1.76q1.73,3.2,3.28,6.43c2.64-.35,5.27-.84,7.89-1.37-1.07-2.64-2.17-5.28-3.21-7.95a1.46,1.46,0,0,0-1.85-.86Z" style="fill:#fff"/><path d="M191.68,192.81c1,2.62,2.13,5.18,3.23,7.73,2.6-.54,5.19-1.12,7.77-1.69a51.31,51.31,0,0,0-4.73-8.9,1.42,1.42,0,0,0-1.61-.56c-1.2.39-2.42.81-3.63,1.24A1.68,1.68,0,0,0,191.68,192.81Z" style="fill:#fff"/><path d="M198.65,190.27a63.45,63.45,0,0,1,4.59,8.46c3.67-.8,7.33-1.56,11-2.09-.86-9.85-7.28-10.18-14.91-8.13A1.09,1.09,0,0,0,198.65,190.27Z" style="fill:#fff"/><path d="M166.2,202a70.56,70.56,0,0,0,9.87.72h.19c-.42-1.37-.79-2.75-1.1-4.15a.78.78,0,0,0-1.1-.55C170.27,199.76,167.45,201.27,166.2,202Z" style="fill:#fff"/><rect x="179.06" y="141.95" width="16.27" height="33.32" rx="6.95" ry="6.95" transform="translate(-3.9 4.73) rotate(-1.43)" style="fill:#f0ba7a"/><rect x="177.36" y="138.46" width="16.27" height="33.32" rx="6.95" ry="6.95" transform="translate(-3.82 4.68) rotate(-1.43)" style="fill:#f7cfa2"/><path d="M147.67,112.81s14.7,6.12,21.76,10.52c9.76,6.07,30.17,6.35,30.17,6.35s-15.22-19.51-25.17-22.14S147.67,112.81,147.67,112.81Z" style="fill:#601515"/><path d="M141.11,85.58A75.26,75.26,0,0,1,150,85.5c4.19.41,10.92-2.81,10.92-2.81s-8.15-3.93-11.84-3.18S141.11,85.58,141.11,85.58Z" style="fill:#601515"/><path d="M166.27,66.92a75.26,75.26,0,0,0-1.79,8.66c-.41,4.19-4.87,10.17-4.87,10.17s-2.28-8.76-.83-12.23S166.27,66.92,166.27,66.92Z" style="fill:#601515"/><path d="M130.88,125.24l1.89,47,4.4-4.2,2.77-28.51s6.61-18.55,15.69-22.45,27.14-5.32,27.14-5.32l-15.27-7.16Z" style="fill:#601515;opacity:0.300000011920929"/><path d="M244.43,120.13l-1.48,43.29-3.69,2.06-4.19-28.33s-7.53-18.2-16.79-21.63-27.38-4-27.38-4l14.89-7.92Z" style="fill:#601515;opacity:0.300000011920929"/><g style="opacity:0.600000023841858"><path d="M188,74.39c4.17,1.08,8.44,0,12.68.38,4,.32,7.61,2.06,11.6,2.27a.56.56,0,0,0,.15-1.1c-8-1.94-16.12-4.54-24.43-2a.21.21,0,0,0,0,.41Z" style="fill:#f7cfa2"/></g><ellipse cx="147.43" cy="178.71" rx="2.03" ry="1.01" transform="translate(-4.42 3.74) rotate(-1.43)" style="fill:#f0ba7a"/><ellipse cx="155.49" cy="178.5" rx="2.03" ry="1.01" transform="translate(-4.41 3.94) rotate(-1.43)" style="fill:#f0ba7a"/><ellipse cx="151.56" cy="182.63" rx="2.03" ry="1.01" transform="translate(-4.51 3.84) rotate(-1.43)" style="fill:#f0ba7a"/><path d="M174.87,165.35c-2.7,7.39-5.94,16.3-13.44,20.72-1.13.95-2.3,1.87-3.48,2.76s-2.38,1.73-3.6,2.54a28.39,28.39,0,0,0,3-5,23.91,23.91,0,0,0,1.83-5.5c-2,.77-3.86,1.55-5.65,2.27a37.14,37.14,0,0,1-5.48,1.79l-4.78,2.24,3.12-2,4.22-1.92c1.41-.64,2.83-1.3,4.23-2,6.76-5.3,16.48-6.11,19.27-15.56" style="fill:#f0ba7a"/><path d="M141.08,158.2c.28,11.28,5.51,20.29,16.79,20s18.12-9.6,17.84-20.88-7.58-20.24-18.86-20S140.8,146.92,141.08,158.2Z" style="fill:#601515;opacity:0.100000001490116"/><circle cx="158.34" cy="158.72" r="17.73" transform="translate(-3.91 4) rotate(-1.43)" style="fill:#fff"/><circle cx="157.25" cy="161.64" r="5.43" transform="translate(-3.99 3.98) rotate(-1.43)" style="fill:#601515"/><circle cx="157.25" cy="161.64" r="2.1" transform="translate(-3.99 3.98) rotate(-1.43)"/><circle cx="155.83" cy="159.21" r="1.55" transform="translate(-3.93 3.94) rotate(-1.43)" style="fill:#f9f9f9"/><path d="M157.89,141a17.71,17.71,0,0,0-14.57,8.29c10.71,2.54,21.82,3.83,32.58,7A17.73,17.73,0,0,0,157.89,141Z" style="fill:#f7cfa2"/><rect x="146.63" y="134.22" width="36.21" height="12.23" rx="6.11" ry="6.11" transform="translate(255.87 336.61) rotate(-155.33)" style="fill:#5b1010"/><path d="M159.52,170c.25,1.24-1.83,1.12-2.23,2-.17.35-.05.29-.05.64l0,0q.54.46.06,1.24c-.11.21-.43.38-.56.57-.45.67,0,1.36-.38,2.07-.06.12.11.22.17.1.35-.69,0,0,.2-.73a1.91,1.91,0,0,1,.42-1.61,1.71,1.71,0,0,0,.29-.3,1.8,1.8,0,0,0,.26-1.06c.13-1.39-.09-1.14.78-1.56a2.62,2.62,0,0,0,.91-.53.66.66,0,0,0,.14-.85s-.05,0,0,0Z" style="fill:#ea6d50"/><path d="M156.86,169.79a.89.89,0,0,0-.38,1,7.55,7.55,0,0,0,.6,1.77c.07.15.32,0,.27-.11-.25-.72-1.15-1.85-.4-2.53a.07.07,0,0,0-.08-.11Z" style="fill:#ea6d50"/><path d="M148.16,160.28c-.32.66-.74,1.26-1.08,1.91a12.14,12.14,0,0,1-.45,1.14c-.79,1.09-1.89.17-2.77.79a2.81,2.81,0,0,0-.79,1.79c0,.44.19.54-.2.86-.23.19-.46.15-.67.42s.06.31.19.19c.38-.38.89-.27,1.16-.72.17-.3-.09-1,0-1.33.21-1.07,1.13-1.11,2-1.1a1.19,1.19,0,0,0,1.23-.53c.31-.46.38-1.26.67-1.8a15.41,15.41,0,0,0,.76-1.6s0-.05-.06,0Z" style="fill:#ea6d50"/><path d="M149.13,162a0,0,0,0,0,0,0,0,0,0,0,0,0,0Z" style="fill:#ea6d50"/><path d="M149,162.44a3.58,3.58,0,0,1-1.06,1.17,3.36,3.36,0,0,1-1.53.31.1.1,0,0,0,0,.21,2.42,2.42,0,0,0,2.66-1.66,0,0,0,0,0,0,0Z" style="fill:#ea6d50"/><path d="M143.42,165.87c.63,0,1,.56,1.58.57.77,0,1.11-1,2.08-.4.36.21.49.62.94.8a2,2,0,0,0,1.26,0c.07,0,.06-.13,0-.12a2.19,2.19,0,0,1-1.67-.37c-.25-.19-.37-.47-.61-.65s-.4-.15-.77-.13c-.12,0-.26.15-.37.18-1.58.44-.91.36-1.7,0-.32-.16-.47-.23-.76,0a.07.07,0,0,0,0,.13Z" style="fill:#ea6d50"/><path d="M148.52,165.74a1,1,0,0,0-.92.93s.07.06.09,0a1.06,1.06,0,0,1,.86-.86c.06,0,0-.09,0-.08Z" style="fill:#ea6d50"/><path d="M168.84,158.18c.38.89,1,3.43,2.52,2.6.47-.25.28-.42.94-.45.82,0,1.12.63,1.64,1.17a1.39,1.39,0,0,0,1.51.54.14.14,0,0,0-.08-.27c-1.54.43-1.75-2.11-3.18-1.92-.75.1-.78,1-1.79.76s-1.15-1.66-1.5-2.46c0-.05-.1,0-.08,0Z" style="fill:#ea6d50"/><path d="M165.18,161.71a4.88,4.88,0,0,1,3-.86c.7.06,1.34.34,2-.1.09-.06,0-.2-.08-.14-.91.59-2.05-.08-3.07.09a3.32,3.32,0,0,0-1.86,1s0,.07,0,.05Z" style="fill:#ea6d50"/><path d="M168.18,157.6l-1.36-1.36h0l1.36,1.36Z" style="fill:#ea6d50"/><path d="M168.78,157.92a.51.51,0,0,1,.23-.82.07.07,0,0,0,0-.1,3.1,3.1,0,0,0-1.37-1.57,0,0,0,0,0,0,.07,3,3,0,0,1,1,1c.05.1.22.39.18.46s-.2.09-.23.12a.5.5,0,0,0,.13.83Z" style="fill:#ea6d50"/><path d="M140.93,158.12c.72.09.95.63,1.59,0,.39-.38.61-.88,1.08-1.2a3,3,0,0,1,2.31-.42c.06,0,.09-.08,0-.1a3.31,3.31,0,0,0-2.53.46,7.81,7.81,0,0,0-.89.89c-.55.49-1,.14-1.6.23-.09,0-.05.13,0,.14Z" style="fill:#ea6d50"/><path d="M152.38,169.43a1.72,1.72,0,0,0-.79,2c.11.66.25.75-.05,1.43s-.28.58-.94.88a1.88,1.88,0,0,0-.84.62c-.08.1.08.2.17.13.59-.5,1.86-.68,2.11-1.5a1.33,1.33,0,0,0-.06-.77c-.18-.68-.46-.78-.27-1.66a1.9,1.9,0,0,1,.71-1.1s0,0,0,0Z" style="fill:#ea6d50"/><path d="M172.12,167.11c.11-.55.26-1.19-.28-1.58a.72.72,0,0,0-.56-.14c-.24,0-.43.25-.67.26a.86.86,0,0,1-.75-.66s-.1,0-.09,0a.83.83,0,0,0,.71.74,1.41,1.41,0,0,0,.58-.06.57.57,0,0,1,.77.09l.18.3a2.31,2.31,0,0,1,0,1c0,.05.07.08.08,0Z" style="fill:#ea6d50"/><path d="M168.16,169.24a2.73,2.73,0,0,0,.6,1.7s.11,0,.07-.07c-.39-.44-.29-1.15-.58-1.66a0,0,0,0,0-.08,0Z" style="fill:#ea6d50"/><path d="M143.63,157.18a7.41,7.41,0,0,0,1.12.65,0,0,0,0,0,.05-.07l-.35-.34a0,0,0,0,0-.06.06l.17.15c-.18-.16.08,0-.23-.19a4.26,4.26,0,0,0-.65-.36c-.05,0-.1.06-.06.1Z" style="fill:#ea6d50"/><path d="M147.12,160.31a.93.93,0,0,0-.13.44c0,.41.41.54.28,1,0,0,.07.07.08,0,.13-.54-.44-.93-.15-1.44,0-.05-.05-.1-.08,0Z" style="fill:#ea6d50"/><path d="M146.53,155.37c-.41-.09-.93-.28-1.27.06-.18.18-.14.37-.34.58a8.86,8.86,0,0,1-1.07.68,0,0,0,0,0,0,.06,2.78,2.78,0,0,0,1.19-.79c.06-.1,0-.18.1-.28.29-.55.84-.31,1.33-.22.06,0,.08-.08,0-.09Z" style="fill:#ea6d50"/><ellipse cx="226.75" cy="171.42" rx="1.01" ry="2.03" transform="matrix(0.02, -1, 1, 0.02, 49.73, 393.82)" style="fill:#f0ba7a"/><ellipse cx="218.7" cy="171.21" rx="1.01" ry="2.03" transform="translate(42.07 385.57) rotate(-88.57)" style="fill:#f0ba7a"/><ellipse cx="222.62" cy="175.34" rx="1.01" ry="2.03" transform="translate(41.78 393.52) rotate(-88.57)" style="fill:#f0ba7a"/><path d="M199.32,158.06c2.7,7.39,5.94,16.3,13.44,20.72,1.13.95,2.3,1.87,3.48,2.76s2.38,1.73,3.6,2.54a28.39,28.39,0,0,1-3-5,23.91,23.91,0,0,1-1.83-5.5c2,.77,3.86,1.55,5.65,2.27a37.14,37.14,0,0,0,5.48,1.79l4.78,2.24-3.12-2L223.54,176c-1.41-.64-2.83-1.3-4.23-2-6.76-5.3-16.48-6.11-19.27-15.56" style="fill:#f0ba7a"/><path d="M233.1,150.91c-.28,11.28-5.51,20.29-16.79,20s-18.12-9.6-17.84-20.88,7.58-20.24,18.86-20S233.38,139.63,233.1,150.91Z" style="fill:#601515;opacity:0.100000001490116"/><circle cx="215.85" cy="151.43" r="17.73" transform="translate(59.08 363.43) rotate(-88.57)" style="fill:#fff"/><circle cx="216.93" cy="154.35" r="5.43" transform="translate(57.21 367.37) rotate(-88.57)" style="fill:#601515"/><circle cx="216.93" cy="154.35" r="2.1" transform="matrix(0.02, -1, 1, 0.02, 57.21, 367.37)"/><circle cx="218.36" cy="151.92" r="1.55" transform="translate(61.03 366.41) rotate(-88.57)" style="fill:#f9f9f9"/><path d="M216.29,133.7A17.71,17.71,0,0,1,230.86,142c-10.71,2.54-21.82,3.83-32.58,7A17.73,17.73,0,0,1,216.29,133.7Z" style="fill:#f7cfa2"/><rect x="191.35" y="126.93" width="36.21" height="12.23" rx="6.11" ry="6.11" transform="translate(-36.41 99.55) rotate(-24.67)" style="fill:#5b1010"/><path d="M214.62,162.72a.66.66,0,0,0,.14.85,2.62,2.62,0,0,0,.91.53c.87.43.65.17.78,1.56a1.8,1.8,0,0,0,.26,1.06,1.71,1.71,0,0,0,.29.3,1.91,1.91,0,0,1,.42,1.61c.2.72-.15,0,.2.73.06.12.23,0,.17-.1-.35-.72.06-1.39-.38-2.07-.14-.22-.43-.35-.56-.57-1.46-2.45.08-.4.08-1.27,0-.33.1-.32-.05-.64-.41-.83-2.48-.72-2.23-2,0,0,0,0,0,0Z" style="fill:#ea6d50"/><path d="M217.24,162.61c.75.68-.15,1.8-.4,2.53-.05.15.2.26.27.11a7.55,7.55,0,0,0,.6-1.77.89.89,0,0,0-.38-1,.07.07,0,0,0-.08.11Z" style="fill:#ea6d50"/><path d="M226,153a13,13,0,0,0,.66,1.41c.14.26.3.51.42.77s.19,1,.35,1.2a1.18,1.18,0,0,0,1.23.54c.8,0,1.74,0,2,.91.12.47-.09,1,0,1.41.17.62.69.36,1.16.83.13.12.29-.06.19-.19s-.44-.23-.67-.42-.17-.4-.21-.84a2.81,2.81,0,0,0-.79-1.81c-.89-.61-2,.31-2.77-.77a11.37,11.37,0,0,1-.45-1.15c-.34-.65-.76-1.25-1.08-1.91,0,0-.07,0-.06,0Z" style="fill:#ea6d50"/><path d="M225.05,154.69a0,0,0,0,0,0,0,0,0,0,0,0,0,0Z" style="fill:#ea6d50"/><path d="M225.13,155.17a2.42,2.42,0,0,0,2.66,1.66.1.1,0,0,0,0-.21,3.36,3.36,0,0,1-1.53-.31,3.58,3.58,0,0,1-1.06-1.17,0,0,0,0,0,0,0Z" style="fill:#ea6d50"/><path d="M230.8,158.45c-.26-.2-.34-.16-.65,0-1,.36,0,.6-1.81.09-.12,0-.24-.17-.37-.18-.4,0-.32-.16-.71.05-.19.11-.29.41-.43.56a2.24,2.24,0,0,1-1.91.54c-.07,0-.08.11,0,.12a2,2,0,0,0,1.25,0c.51-.19.57-.53.95-.81.87-.62,1.35.42,2.07.41s1-.58,1.6-.58a.07.07,0,0,0,0-.13Z" style="fill:#ea6d50"/><path d="M225.64,158.53a1.06,1.06,0,0,1,.86.86s.09,0,.09,0a1,1,0,0,0-.92-.93c-.05,0-.08.08,0,.08Z" style="fill:#ea6d50"/><path d="M205.28,150.85c-.34.8-.54,2.22-1.5,2.46s-1-.65-1.79-.76c-1.43-.2-1.64,2.36-3.18,1.92a.14.14,0,0,0-.08.27,1.32,1.32,0,0,0,1.38-.39c.43-.4.73-1.1,1.27-1.35s1,.25,1.44.48c1.56.83,2.14-1.72,2.52-2.6,0-.05-.05-.1-.08,0Z" style="fill:#ea6d50"/><path d="M209,154.36a3.32,3.32,0,0,0-1.86-1c-1-.17-2.15.5-3.07-.09-.09-.06-.17.08-.08.14.62.44,1.26.15,2,.1a4.9,4.9,0,0,1,3,.86,0,0,0,0,0,0-.05Z" style="fill:#ea6d50"/><path d="M206,150.32l1.36-1.36h0L206,150.31Z" style="fill:#ea6d50"/><path d="M205.41,150.63a.5.5,0,0,0,.13-.83s-.16-.08-.19-.11,0,.23,0-.11a.93.93,0,0,1,.14-.29,2.91,2.91,0,0,1,1.08-1.09,0,0,0,0,0,0-.07,3.1,3.1,0,0,0-1.37,1.57.07.07,0,0,0,0,.1.51.51,0,0,1,.23.82Z" style="fill:#ea6d50"/><path d="M233.27,150.68c-.46-.07-1,.22-1.44,0s-.66-.84-1.05-1.09a3.31,3.31,0,0,0-2.53-.46c-.06,0,0,.11,0,.1a3,3,0,0,1,2.19.35c.55.34.76.84,1.19,1.27.64.63.86.09,1.59,0,.07,0,.11-.13,0-.14Z" style="fill:#ea6d50"/><path d="M221.78,162.17a1.82,1.82,0,0,1,.71,1.1,3.65,3.65,0,0,1-.27,1.64,1.23,1.23,0,0,0-.07.78c.27.81,1.53,1,2.11,1.5.08.07.24,0,.17-.13a1.9,1.9,0,0,0-.83-.62,3.31,3.31,0,0,1-.7-.31c-.86-.72-.43-1.26-.31-2a1.72,1.72,0,0,0-.79-2s0,0,0,0Z" style="fill:#ea6d50"/><path d="M202.15,159.8a2.31,2.31,0,0,1,0-1l.18-.3a.57.57,0,0,1,.77-.09,1.44,1.44,0,0,0,.58.06.83.83,0,0,0,.71-.74c0-.05-.08-.06-.09,0a.86.86,0,0,1-.75.66c-.25,0-.44-.22-.67-.26a.72.72,0,0,0-.56.14c-.53.39-.38,1-.28,1.58,0,.05.09,0,.08,0Z" style="fill:#ea6d50"/><path d="M205.94,161.93c-.29.51-.19,1.21-.58,1.66,0,0,0,.12.07.07a2.74,2.74,0,0,0,.6-1.7,0,0,0,0,0-.08,0Z" style="fill:#ea6d50"/><path d="M230.5,149.8a4.25,4.25,0,0,0-.65.36l-.17.11c-.34.28,0,0,.11-.08a0,0,0,0,0-.06-.06l-.35.34a0,0,0,0,0,.05.07,7.41,7.41,0,0,0,1.12-.65s0-.12-.06-.1Z" style="fill:#ea6d50"/><path d="M227,153.07c.28.52-.28.9-.15,1.44,0,0,.09,0,.08,0-.13-.49.27-.61.28-1a.94.94,0,0,0-.13-.44c0-.05-.11,0-.08,0Z" style="fill:#ea6d50"/><path d="M227.68,148.17c.39-.07.91-.3,1.2.06a3.67,3.67,0,0,1,.23.44,2.75,2.75,0,0,0,1.19.79,0,0,0,0,0,0-.06,8.46,8.46,0,0,1-1.07-.68c-.16-.17-.17-.41-.34-.58-.33-.35-.87-.15-1.27-.06-.06,0,0,.1,0,.09Z" style="fill:#ea6d50"/><path d="M106.81,262.21l1.69-2.89c1.89-3.5,8.49-3.62,14.68-.28l12.73,5.59L151,270.34c3.39,1.83,6.28,2.95,7.09,5.13.67,1.8,0,4.67-.9,6.25l-2.79,5.17c-.71,1.31-2.38,3.36-3.81,3.9-2.37.9-5.07-.49-8.94-2.57,0,0-19.88-9.7-14.8-7.47s-8.18-3.85-14.67-7.76S104.92,265.7,106.81,262.21Z" style="fill:#f1f3f7"/><path d="M170.89,226.53c.14,6.2,1.14,16.54-7.57,16.2.68-.24-6.43,1.37-9.25.78s-2.14-.52-5.47-9.22c-.43-1.13,1.63-5,1.23-6.07-.27-.67-3-4.31-2.24-3.93,1.09.55.77-2.4.43-3.71-1.37-5.3,5.9-7.93,12.62-6.68,6,1.29,7.14,5.8,9.9,10C170.55,224.07,170.91,226.34,170.89,226.53Z" style="fill:#f0ba7a"/><path d="M155.23,229.81h0a4.47,4.47,0,0,0,3.08-5.5l-4.38-15.52a4.48,4.48,0,0,0-5.51-3.09h0a4.47,4.47,0,0,0-3.08,5.5l4.38,15.52A4.48,4.48,0,0,0,155.23,229.81Z" style="fill:#f0ba7a"/><path d="M162.1,227.29h0a4.35,4.35,0,0,0,2.83-5.43l-4.38-15.52a4.35,4.35,0,0,0-5.26-3.16h0a4.35,4.35,0,0,0-2.83,5.43l4.38,15.52A4.35,4.35,0,0,0,162.1,227.29Z" style="fill:#f0ba7a"/><path d="M167,230.18h0a4.47,4.47,0,0,0,3.81-5l-2.19-16a4.48,4.48,0,0,0-5-3.82h0c-2.43.33-3.1,4.6-2.76,7l1.14,14A4.48,4.48,0,0,0,167,230.18Z" style="fill:#f0ba7a"/><path d="M156.26,238.65h0a3.63,3.63,0,0,0,.29-5.11l-7.7-8.47-4.68-2.79c-1.76-1-4.62-1.45-6.48-.16s-1,3.59.31,5.08l6,3.25,7.18,7.9A3.63,3.63,0,0,0,156.26,238.65Z" style="fill:#f0ba7a"/><path d="M156.87,239.79h0a3.63,3.63,0,0,0,.29-5.11l-7.7-8.47-4.68-2.79c-1.32-1.49-4.86-1.61-6.35-.29l-.15.15c-1.49,1.32-.89,3.16.43,4.65l5.87,3.65,7.18,7.9A3.63,3.63,0,0,0,156.87,239.79Z" style="fill:#ddaa78"/><path d="M170.34,227.37c.14,6.2,2.61,17.42-6.1,17.08.68-.24-6.43,1.37-9.25.78s-2.14-.52-5.47-9.22c-.43-1.13-.3-5-.71-6.11-.7-1.77-1.37-3.56-.7-4.47,0,0,1,.18,1.2-.12s-.23-2.23-.18-2.25c2.83-1,7.61-1.26,13.27-.21,6,1.29,5.17-.22,7.93,3.93A3.28,3.28,0,0,1,170.34,227.37Z" style="fill:#ddaa78"/><path d="M155.34,231.75h0c1.92-.54,2.94-2.91,2.27-5.27L153.24,211c-.67-2.36-2.64-5.16-4.56-4.62l-.58.12c-1.92.54-2.49,4.09-1.83,6.45l4.38,15.52C151.31,230.8,153.43,232.29,155.34,231.75Z" style="fill:#ddaa78"/><path d="M161.82,228.17h0c1.73-.49,2.6-2.82,1.93-5.18l-3.5-15.25c-.67-2.36-2.63-3.9-4.36-3.41h0c-1.73.49-2.6,2.82-1.93,5.18l3.5,15.25C158.13,227.12,160.09,228.66,161.82,228.17Z" style="fill:#ddaa78"/><path d="M167.68,230.7h0c1.71-.1,2.73-1.8,2.59-4.25l-1.85-16c-.14-2.45-1.66-4.37-3.37-4.28h0c-1.71.1-3,2.18-2.86,4.63l2.11,15.57C164.45,228.87,166,230.8,167.68,230.7Z" style="fill:#ddaa78"/><path d="M148.07,248.86c-9.22,26.9-.76,30,4.08,39.5,1.95,4.59,10.84,0,13.38-4.91,3.39-8.4,7.14-19.8,8.66-29a12.11,12.11,0,0,0-1.29-4.86c-3.16-5.62-17.64-8.82-22.7-3.91A6.66,6.66,0,0,0,148.07,248.86Z" style="fill:#f1f3f7"/><path d="M105.54,256.4a13.11,13.11,0,0,0-1.74,13.72c7.61,12.76,20,17.36,33.67,19A56.2,56.2,0,0,1,144,275,272.82,272.82,0,0,0,105.54,256.4Z" style="fill:#fff"/><path d="M116.26,256.73c-1-.24-6.6-1.68-7.51-1.72-5.7.24-6,8.63-4.48,15.67a27.18,27.18,0,0,0,7.29,10.86c9,7.91,21.08,9.2,33.12,10.5,4.5.08,20.29-4.1,19.54-7.26C161.41,272.94,128.51,266.26,116.26,256.73Z" style="fill:#f1f3f7"/><path d="M147.14,251.92c-.59,1.29-1.15,2.57-1.67,3.85-1.9,4.62-1.2,7.92-1.66,11.75,0,.36-7.25-2.83-7.25-2.83s8.59,6.11,10.74,7.74C145.14,263.48,147.35,252.66,147.14,251.92Z" style="fill:#fff"/><path d="M171.88,263.54c-6.27,23.63-20.84,31.38-38,27.08,17,2.74,17.06,1.69,23.77-1.05,8.38-4.87,12.5-13.07,13.85-22.74A26.36,26.36,0,0,0,171.88,263.54Z" style="fill:#fff"/><path d="M170.69,251.42c.44-2.2-.67-8.67-1-9.41-6.17.78-13.09.57-19.18-1.6.29,2.72.32,11.07.75,12C157.66,253.82,164.64,253.1,170.69,251.42Z" style="fill:#fff"/><path d="M171.2,230.89l-.16.57Z" style="fill:#f7cfa2"/><path d="M120.6,226.32l.33-.3Z" style="fill:#f7cfa2"/><path d="M120.32,226.57l.28-.25Z" style="fill:#f7cfa2"/><path d="M119.68,227.92c0,.48.22,1.45.66,1.73l.59-3.63-.33.3-.28.25A1.56,1.56,0,0,0,119.68,227.92Z" style="fill:#f7cfa2"/><rect x="82.18" y="224.21" width="23.87" height="34.4" rx="9.32" ry="9.32" transform="translate(-114.74 88.06) rotate(-32.41)" style="fill:#f0ba7a"/><circle cx="64.11" cy="259.27" r="9.27" transform="translate(-128.99 74.76) rotate(-32.41)" style="fill:#ddaa78"/><circle cx="64.11" cy="259.27" r="6.1" transform="translate(-128.99 74.76) rotate(-32.41)" style="fill:#f0ba7a"/><circle cx="127.65" cy="218.93" r="9.27" transform="translate(-97.47 102.53) rotate(-32.41)" style="fill:#ddaa78"/><circle cx="127.65" cy="218.93" r="6.1" transform="translate(-97.47 102.53) rotate(-32.41)" style="fill:#f0ba7a"/><path d="M123.74,211.75c-18.11-38.53-31.21-17.23-49-5.91s-24.76,32.31-15.5,46.89L71,271.25c9.26,14.58,38,12.92,49,5.91,9.72-6.17,24.76-32.31,15.5-46.89C133.43,227,125.38,215.25,123.74,211.75Z" style="fill:#ddaa78"/><path d="M107.39,211.17c-1.26-.28-.7-2.81-.7-2.81,4.14-3.72,9.82,3.52,13-1.74,1.05-1.75-1.68-4.35-3.15-6.67,5,3.75,3.86-1,5.78-4.19-1.36-2.73-2.47-5-3.26-6.28-11.06-17.41-33-18.66-50.37-7.6-17,10.78-19.76,27.36-9.75,44.61,10.42-12.89,23.46-12,37.22-9.56C99.71,214.61,103.62,213.56,107.39,211.17Z" style="fill:#211205"/><path d="M70.07,202.07a1,1,0,0,0-.94-1.09h0a25.81,25.81,0,0,0-13.93,48.07,1,1,0,0,0,1.42-.47C63,233.65,68.51,218,70.07,202.07Z" style="fill:#211205"/><path d="M122.36,222.1c4.12,6.49,4.58,13.57-1.9,17.69s-13.89,1.44-18-5-3.39-14.33,3.1-18.44S118.24,215.62,122.36,222.1Z" style="fill:#601515;opacity:0.100000001490116"/><circle cx="112.8" cy="228.95" r="12.08" transform="translate(-105.15 96.14) rotate(-32.41)" style="fill:#fff"/><circle cx="117.11" cy="227.43" r="3.79" transform="translate(-103.66 98.21) rotate(-32.41)" style="fill:#601515"/><circle cx="117.11" cy="227.43" r="1.47" transform="translate(-103.66 98.21) rotate(-32.41)"/><circle cx="115.39" cy="226.48" r="1.08" transform="translate(-103.42 97.14) rotate(-32.41)" style="fill:#f9f9f9"/><rect x="93.33" y="228.77" width="11.08" height="31.1" rx="5.54" ry="5.54" transform="translate(-115.56 91.06) rotate(-32.41)" style="fill:#f0ba7a"/><rect x="90.64" y="226.57" width="11.08" height="31.1" rx="5.54" ry="5.54" transform="translate(-114.8 89.28) rotate(-32.41)" style="fill:#ddaa78"/><path d="M57,227.13s10.73-1.58,16.39-1.49c7.83.12,19.84-6.87,19.84-6.87s-15.73-6.05-22.46-4.11S57,227.13,57,227.13Z" style="fill:#211205"/><path d="M43.62,213.53a51.26,51.26,0,0,1,5.13-3.15c2.59-1.23,5.39-5.47,5.39-5.47s-6.14.57-8,2.3S43.62,213.53,43.62,213.53Z" style="fill:#211205"/><path d="M51.78,193.81a51.26,51.26,0,0,0,2,5.68c1.23,2.59.72,7.65.72,7.65s-4.4-4.32-4.77-6.85S51.78,193.81,51.78,193.81Z" style="fill:#211205"/><ellipse cx="79.97" cy="265.69" rx="1.38" ry="0.69" transform="translate(-129.96 84.26) rotate(-32.41)" style="fill:#f0ba7a"/><ellipse cx="84.6" cy="262.75" rx="1.38" ry="0.69" transform="translate(-127.66 86.29) rotate(-32.41)" style="fill:#f0ba7a"/><ellipse cx="83.76" cy="266.54" rx="1.38" ry="0.69" transform="translate(-129.83 86.43) rotate(-32.41)" style="fill:#f0ba7a"/><ellipse cx="121.53" cy="239.31" rx="1.38" ry="0.69" transform="translate(-109.34 102.43) rotate(-32.41)" style="fill:#f0ba7a"/><ellipse cx="126.16" cy="236.36" rx="1.38" ry="0.69" transform="translate(-107.04 104.45) rotate(-32.41)" style="fill:#f0ba7a"/><ellipse cx="125.31" cy="240.15" rx="1.38" ry="0.69" transform="translate(-109.21 104.59) rotate(-32.41)" style="fill:#f0ba7a"/><path d="M51.5,240.32l17.58,26.78,1.1-4L61.8,245.48s-2.64-13.15,1.29-18.61,14-12.63,14-12.63l-11.43,1.17Z" style="fill:#211205"/><path d="M116.07,197.48l14.31,25.8-1.43,2.5L116.57,210.7s-10.78-8-17.39-6.75-17.37,7.29-17.37,7.29l5.92-9.84Z" style="fill:#211205"/><path d="M100,221.79l12-11a4.14,4.14,0,0,0,.23-5.87h0a4.22,4.22,0,0,0-5.91-.23l-12,11a4.14,4.14,0,0,0-.23,5.87h0A4.22,4.22,0,0,0,100,221.79Z" style="fill:#211205"/><g style="opacity:0.600000023841858"><path d="M67,190.65c2.55-.14,4.68-2.25,6.82-3.49,2.67-1.54,5.79-1.79,8.43-3.37a.61.61,0,0,0-.47-1.11c-2.85.73-5.84,1.18-8.43,2.64-2.17,1.22-5.34,2.74-6.56,5a.23.23,0,0,0,.2.34Z" style="fill:#f7cfa2"/></g><path d="M92.86,237c4.12,6.49,4.58,13.57-1.9,17.69s-13.89,1.44-18-5-3.39-14.33,3.1-18.44S88.74,230.54,92.86,237Z" style="fill:#601515;opacity:0.100000001490116"/><circle cx="83.3" cy="243.86" r="12.08" transform="translate(-117.74 82.65) rotate(-32.41)" style="fill:#fff"/><circle cx="87.33" cy="241.18" r="3.79" transform="translate(-115.68 84.39) rotate(-32.41)" style="fill:#601515"/><circle cx="87.33" cy="241.18" r="1.47" transform="translate(-115.68 84.39) rotate(-32.41)"/><circle cx="85.6" cy="240.24" r="1.08" transform="translate(-115.44 83.32) rotate(-32.41)" style="fill:#f9f9f9"/><path d="M68.7,242.56l11.94-11.17a4.2,4.2,0,0,0,0-6h0a4.34,4.34,0,0,0-6.05-.28L62.69,236.31a4.2,4.2,0,0,0,0,6h0A4.34,4.34,0,0,0,68.7,242.56Z" style="fill:#211205"/><path d="M126,255.58c-6.75.41-14.7,2.14-20.72,5.32-5.3,2.8-6.05,8.42-6.28,13.89-.05,1.28,2.86.74,2.91-.32.25-6.1,1-10.93,7.46-13.38a55.86,55.86,0,0,1,16.27-3.76c1.49-.09,2.36-1.87.36-1.75Z" style="fill:#ea6d50"/><path d="M80.26,288.21l3.35-1.63c3.9-2.07,10.09,1.87,13.76,8.77l8.34,13,10.47,14.61c2,3.78,4,6.59,3.4,9.11-.49,2.08-2.91,4.29-4.68,5.23l-5.76,3.06c-1.46.78-4.27,1.64-5.92,1.27-2.75-.62-4.4-3.57-6.69-7.88,0,0-12.42-21.21-9.09-16s-5.2-8.6-8.8-16.21S76.36,290.28,80.26,288.21Z" style="fill:#f1f3f7"/><path d="M161.49,294.63c-3.69,5.82-9.13,16-17,10.33.78.2-6.79-2.69-9-5s-1.66-1.8.62-11.9c.3-1.31,4.57-3.61,4.87-4.86.17-.79-.14-5.85.34-5,.67,1.18,2.19-1.74,2.68-3.16,2-5.75,10.34-3.71,15.79,1.58,4.73,4.87,3,9.76,3,15.3C162.7,292.14,161.63,294.47,161.49,294.63Z" style="fill:#f0ba7a"/><path d="M145,288h0a5,5,0,0,0,6.24-3.19l5.5-17a5,5,0,0,0-3.2-6.24h0a5,5,0,0,0-6.24,3.19l-5.5,17A5,5,0,0,0,145,288Z" style="fill:#f0ba7a"/><path d="M152.9,289.92h0a4.83,4.83,0,0,0,6-3.28l5.5-17a4.84,4.84,0,0,0-2.92-6.15h0a4.83,4.83,0,0,0-6,3.28l-5.5,17A4.84,4.84,0,0,0,152.9,289.92Z" style="fill:#f0ba7a"/><path d="M155.65,295.6h0a5,5,0,0,0,6.62-2.3l7.8-16.13a5,5,0,0,0-2.3-6.62h0c-2.45-1.19-5.7,2.35-6.89,4.81L153.35,289A5,5,0,0,0,155.65,295.6Z" style="fill:#f0ba7a"/><path d="M140.5,296.84h0a4,4,0,0,0,3.41-4.54L142,279.72l-2.62-5.46c-1-2-3.39-4.18-5.89-4.13s-3.15,2.7-2.84,4.89l3.52,6.67L136,293.42A4,4,0,0,0,140.5,296.84Z" style="fill:#f0ba7a"/><path d="M140.37,298.27h0a4,4,0,0,0,3.41-4.54l-1.91-12.58-2.62-5.46c-.31-2.19-3.51-4.48-5.7-4.17l-.23,0c-2.19.31-2.77,2.37-2.46,4.56l3.18,7,1.78,11.73A4,4,0,0,0,140.37,298.27Z" style="fill:#ddaa78"/><path d="M160.47,295.07c-3.69,5.82-8.3,17.72-16.15,12,.78.2-6.79-2.69-9-5s-1.66-1.8.62-11.9c.3-1.31,2.81-4.84,3.11-6.09.44-2.07.92-4.13,2.11-4.57,0,0,.84.8,1.18.62s1.16-2.21,1.22-2.19c3.24.81,7.82,3.52,12.4,8,4.73,4.87,4.92,3,4.92,8.52A3.65,3.65,0,0,1,160.47,295.07Z" style="fill:#ddaa78"/><path d="M143.9,289.89h0c2.1.68,4.51-.88,5.35-3.48l5.5-17c.84-2.59.73-6.4-1.38-7.08l-.62-.25c-2.1-.68-4.82,2.25-5.66,4.85l-5.5,17C140.76,286.53,141.8,289.21,143.9,289.89Z" style="fill:#ddaa78"/><path d="M152.09,290.56h0c1.9.61,4.14-1,5-3.6l6.15-16.27c.84-2.59,0-5.22-1.93-5.84h0c-1.9-.61-4.14,1-5,3.6l-6.15,16.27C149.32,287.32,150.19,289.95,152.09,290.56Z" style="fill:#ddaa78"/><path d="M156,296.51h0c1.64,1,3.64,0,5-2.34l8.11-15.89c1.38-2.35,1.16-5.07-.49-6h0c-1.64-1-4.12.17-5.49,2.52l-7.63,15.71C154.09,292.83,154.31,295.55,156,296.51Z" style="fill:#ddaa78"/><path d="M126.65,301.25c-25.09,19.21-19.13,27.25-20.54,39.05-1,5.44,10,6.7,15.41,3.69,8.31-5.69,18.79-13.93,25.83-21.46,1.07-1.41,1.51-3.74,1.8-5.3.53-7.14-10.89-19-18.6-17.59A7.4,7.4,0,0,0,126.65,301.25Z" style="fill:#f1f3f7"/><path d="M82.66,282.05A14.57,14.57,0,0,0,72.6,293.68c-.82,16.49,7.83,28.38,19.46,38.29a62.44,62.44,0,0,1,14.71-9.09A303.13,303.13,0,0,0,82.66,282.05Z" style="fill:#fff"/><path d="M92.38,289c-.76-.82-5.07-5.62-5.89-6.21-5.42-3.29-10.88,4.27-13.79,11.75A30.2,30.2,0,0,0,72.77,309c3.5,12.88,13.84,21.48,24.17,30.09,4.11,2.84,21.3,8.69,22.55,5.31C124.17,331.74,97.84,305.3,92.38,289Z" style="fill:#f1f3f7"/><path d="M123.9,303.51c-1.34.83-2.65,1.68-3.92,2.53-4.6,3.1-6,6.59-8.77,9.85-.26.3-5-7.08-5-7.08s4.19,10.94,5.17,13.77C114.93,313,123.64,304.32,123.9,303.51Z" style="fill:#fff"/><path d="M146,317.54c1.76-1.76,4.72-8.44,4.89-9.31-6.19-3.08-12.47-7.53-16.76-13.29-1.41,2.7-6.52,10.44-6.7,11.58C132.47,311.73,139.37,315.37,146,317.54Z" style="fill:#fff"/><path d="M236.35,93.69c7.82,5.6,21.91,11.38,11.75,20.3.51-1-5.77,8.41-9.58,10.76s-3,1.7-16-4.54c-1.7-.81-3.49-7.35-5.1-8.14-1-.47-8-1.63-6.72-2,1.81-.55-1.69-3.52-3.47-4.63-7.2-4.5-1.84-15.22,7.06-21,8.1-4.93,10.31,3.34,17.85,5.05C232.38,89.7,232.57,91,236.35,93.69Z" style="fill:#f0ba7a"/><path d="M235.79,116.93h0a5.63,5.63,0,0,0-5.12-6.06L213,109.57l-8.24,1.87c-3,.76-6.75,3.31-7.45,6.74s2.7,5.12,5.77,5.38l10.18-2.72,15.5-1.38C231.79,119.71,235.53,120,235.79,116.93Z" style="fill:#f0ba7a"/><path d="M237.05,87.64c6.11,3.9,16.11,11.32,12.92,20-.78,3.35-2.67,6.44-5.85,7.46-5.93,2.74-13.14,3.42-19.27.46-1.35-.36-2.71-.76-4.08-1.17-2.66-1.2-5.06-3.53-7-5.13-.21-.64-2.5-2.49-2.46-2.57,2.11-4.16,7-9.24,14.48-14.1,8.1-4.93,3.36-6.24,10.89-4.52C237,88.28,236.87,87.4,237.05,87.64Z" style="fill:#f7cfa2"/><path d="M214,97.53h0c-.27-2.18-4.52-3.89-6.42-3.63l-10,1.86c-1.9.26-4.25,1.86-4,4l.05.66c.27,2.18,3,3.5,4.92,3.24l11.14.85C211.6,104.28,214.29,99.71,214,97.53Z" style="fill:#f7cfa2"/><path d="M199.1,97.24h0c-2-1.19-4.38-.93-5.27.57L188,107.68c-.89,1.5-.92,4.16,1.09,5.35l.59.38a4.42,4.42,0,0,0,5.62-1.41l5.87-9.87C202,100.62,201.1,98.42,199.1,97.24Z" style="fill:#f7cfa2"/><path d="M190.19,107.7,189,106c-1.7,1.76-2.23,4.44-1.72,5.53l3.35,7.15c.51,1.09,1,2.8,3.12,1.8l.64-.28c2.11-1,2.12-5.54,1.61-6.63l-1.07-5.68C194.44,106.77,192.3,106.7,190.19,107.7Z" style="fill:#f7cfa2"/><path d="M227.4,110.15h0c1.58-2.65,1.45-5.67-.28-6.7l-11.4-6.77c-1.74-1-8.61-2.34-10.19.31l3.18,2.26c-1.58,2.65-1,4.64.76,5.67l4.63,4.34C215.83,110.29,225.82,112.8,227.4,110.15Z" style="fill:#f7cfa2"/><path d="M216.91,92h0c.93-2.06-1.94-4.14-3.75-5.11l-9.75-6.75c-1.81-1-4.72-1.05-5.65,1l-.31.6c-.93,2.06.78,4.92,2.59,5.89l7.52,8.88C209.37,97.48,216,94.06,216.91,92Z" style="fill:#f7cfa2"/><path d="M204,82.39h0c-1.13-2.29-3.35-3.55-4.93-2.81l-10.43,4.86a4,4,0,0,0-1.9,5.31l.31.7a4.75,4.75,0,0,0,5.68,2.31l10.43-4.86C204.72,87.15,205.09,84.67,204,82.39Z" style="fill:#f7cfa2"/><path d="M190.56,85.85l-.11-2.24c-2.43.45-4.33,2.44-4.46,3.7l-.87,8.29c-.13,1.26-.6,3.06,1.78,3.52l.71.16c2.38.46,4.82-3.46,5-4.72L194.65,89C194.79,87.71,192.95,86.31,190.56,85.85Z" style="fill:#f7cfa2"/><path d="M221.93,111.33h0c2.8-1.31,4.3-4,3.33-6l-6.4-13c-1-2-6.31-7.43-9.11-6.13l1.59,4c-2.8,1.31-3.34,3.41-2.36,5.39l1.75,6.66C211.69,104.18,219.12,112.63,221.93,111.33Z" style="fill:#f7cfa2"/><path d="M216.49,76h0c.93-2.06-1.94-4.14-3.75-5.11L203,64.17c-1.81-1-4.72-1.05-5.65,1l-.31.6c-.93,2.06.78,4.92,2.59,5.89l9.7,12.43C211.14,85.06,215.57,78.09,216.49,76Z" style="fill:#f7cfa2"/><path d="M203.56,66.42h0c-1.13-2.29-3.35-3.55-4.93-2.81L188.2,68.46a4,4,0,0,0-1.9,5.31l.31.7a4.75,4.75,0,0,0,5.68,2.31l10.43-4.86C204.31,71.18,204.68,68.7,203.56,66.42Z" style="fill:#f7cfa2"/><path d="M190.15,69.88,190,67.64c-2.43.45-4.33,2.44-4.46,3.7l-.87,8.29c-.13,1.26-.6,3.06,1.78,3.52l.71.16c2.38.46,4.82-3.46,5-4.72L194.24,73C194.37,71.74,192.53,70.34,190.15,69.88Z" style="fill:#f7cfa2"/><path d="M223.86,106l3.49-2.91c2.8-1.31,13.6-11.47,12.63-13.46L215.7,73.75c-1-2-6.35-4.32-9.16-3l4.36,3.35c-2.8,1.31-3.34,3.41-2.36,5.39l1.75,6.66C220.6,107.14,221.22,108.86,223.86,106Z" style="fill:#f7cfa2"/><path d="M237.49,137.16c18.36,40.11,37.39,57.29,46.14,43.18,1.17-1.89,12.87-14.65,10.44-22.92-5.16-13.07-13.12-29.9-21.19-41.83-1.59-1.89-4.63-3.21-6.65-4.09-9.56-2.94-29.26,8.91-29.72,19.85C236.47,134.14,236.41,134.58,237.49,137.16Z" style="fill:#f1f3f7"/><path d="M239.72,141.6c.72,2.08,3.59,8.49,4.62,10.37,4.07,7.38,4.72,5.95,8.3,10.74.33.45-9.94,27.87-9.94,27.87s15-25.62,19.11-26.07C249.8,156.74,240.75,142.2,239.72,141.6Z" style="fill:#fff"/><path d="M262.45,111.59c-1.85-2.94-12-12.08-13.13-12.58-2.66,7-11.21,20.32-20.37,24.38,3.23,2.76,11.24,9.47,12.74,10.06C250.34,128.21,257.44,119.95,262.45,111.59Z" style="fill:#fff"/><path d="M221.06,137.54c3.23-1.25,6.08-3.61,9-5.45,2.72-1.72,6.07-3,8-5.68a1.24,1.24,0,0,0-1.06-1.85c-3.45.06-6.63,2.59-9.37,4.46s-5.93,4-7.79,6.9c-.49.76.34,2,1.24,1.62Z" style="fill:#efe91b"/><path d="M123.55,192.68c8.76,1.78,17.94,1.88,26.32-1.58a1.06,1.06,0,0,0-.56-2c-8.42,1.26-16.45,2-24.9.47-2-.37-2.93,2.72-.87,3.14Z" style="fill:#efe91b"/><path d="M165.31,243.91c4-7.95,6.58-16.83,5.43-25.79a1.06,1.06,0,0,0-2.11,0c-1,8.45-2.41,16.42-6.13,24.15-.9,1.87,1.86,3.53,2.81,1.64Z" style="fill:#efe91b"/><path d="M247.57,237.26c-7.85-3.83-13.87-9.4-20-15.5a1.06,1.06,0,0,0-1.66,1.28c4.39,7.76,12,13.35,20,17,1.88.87,3.54-1.89,1.64-2.81Z" style="fill:#efe91b"/></svg>