<svg xmlns="http://www.w3.org/2000/svg" xmlns:xlink="http://www.w3.org/1999/xlink" viewBox="0 0 300 450"><defs><clipPath id="606eff81-a43c-4a58-a547-4d4d8c3cec0f"><path d="M249.12,232.46a99.73,99.73,0,0,1-199.47,0c0-55.08-18.24-171.13,112.17-162.62C216.78,73.43,249.12,177.38,249.12,232.46Z" style="fill:none"/></clipPath></defs><title>juego2_ilust</title><g id="3ae55323-2737-4a30-81ad-e6a8f0ad7c9b" data-name="Layer 1"><circle cx="150" cy="217.41" r="99.73" style="fill:#dcffc5"/></g><g id="4bd11462-b9e6-49cc-afc0-6d42a9e3f9a1" data-name="Layer 2"><circle cx="149.38" cy="232.46" r="99.73" style="fill:#dcffc5"/><g style="clip-path:url(#606eff81-a43c-4a58-a547-4d4d8c3cec0f)"><rect x="120.72" y="219.73" width="33.84" height="47.81" rx="12.54" ry="12.54" transform="translate(-11.06 6.59) rotate(-2.64)" style="fill:#f0ba7a"/><path d="M199.89,273.69c-1.59-13.34-3-22.5-14.52-25.74-6.89-1.95-21.95-2.34-30.39-1l-33.25,5.47c-10.18,1.68-28.52.49-35.17,6.07-8.06,6.75-3.31,21.12-1.92,32.8l10.94,91.85a35.8,35.8,0,0,0,5.7,15.57c35.36-3.33,70.83-9.6,106.25-14.35a38.34,38.34,0,0,0,3.15-20.16Z" style="fill:#f1f3f7"/><path d="M96.89,264.9l4.13.85c6.86,1,8.4,15.06,3.43,31.28L96.6,329.26,89,366.78c-2.72,8.88-4.23,16.06-8.11,19.73-3.21,3-8.66,4-11.76,3.55L59,388.6c-2.57-.37-6.7-2.17-8-4.75-2.14-4.3-.1-11.32,3-21.46,0,0,14.07-51.23,10.93-38.34s5.53-21,11.49-38.33S90,263.91,96.89,264.9Z" style="fill:#f1f3f7"/><path d="M178.91,248.53l-3.81,1.8c-6.43,2.57-4.62,16.61,4,31.21L194.32,311l16.23,34.68c4.73,8,7.88,14.62,12.52,17.27,3.83,2.19,9.36,1.85,12.27.69l9.5-3.79c2.41-1,6-3.68,6.65-6.49,1.07-4.69-2.56-11-8-20.15,0,0-25.71-46.49-19.64-34.7s-10.3-19.08-20.18-34.56S185.34,246,178.91,248.53Z" style="fill:#f1f3f7"/><polygon points="142.68 285.07 138.47 249.75 154.95 254.98 142.68 285.07" style="fill:#dcdde0;opacity:0.400000005960465"/><polygon points="142.68 285.07 138.47 249.75 123.69 258.7 142.68 285.07" style="fill:#dcdde0;opacity:0.400000005960465"/><polygon points="150.57 254.06 138.2 249.99 129.64 258.04 136.85 266.48 144.82 265.66 150.57 254.06" style="fill:#0076b7"/><polygon points="164.86 342.61 153.43 358.41 136.68 347.63 136.85 266.48 144.82 265.66 164.86 342.61" style="fill:#0076b7"/><polygon points="138.47 249.75 138.55 250.38 155.12 261.31 160.08 247.33 156.37 242 138.47 249.75" style="fill:#fff"/><polygon points="138.47 249.75 138.55 250.38 125.01 264.9 116.91 252.47 119.27 246.43 138.47 249.75" style="fill:#fff"/><polygon points="157.41 304.11 170.03 310.52 183.03 304.11 183.03 285.04 157.41 285.04 157.41 304.11" style="fill:#fff"/><rect x="157.41" y="276.95" width="25.62" height="5.95" style="fill:#fff"/><path d="M56.4,221.36c0,.27,0,.53,0,.81C56.38,221.91,56.39,221.63,56.4,221.36Z" style="fill:#f7cfa2"/></g><path d="M56.42,220.68c0,.23,0,.45,0,.68Q56.42,221,56.42,220.68Z" style="fill:#f7cfa2"/><path d="M176.67,152c.24-.12.48-.24.72-.38Z" style="fill:#f7cfa2"/><path d="M176.06,152.33l.6-.31Z" style="fill:#f7cfa2"/><path d="M174.32,154.41c-.15.86-.27,2.65.37,3.33l2.7-6.1c-.24.14-.48.26-.72.38l-.6.31A2.82,2.82,0,0,0,174.32,154.41Z" style="fill:#f7cfa2"/><rect x="101.69" y="135.21" width="43.26" height="62.36" rx="16.9" ry="16.9" transform="translate(-45 45.71) rotate(-17.82)" style="fill:#f0ba7a"/><circle cx="62.54" cy="184.02" r="16.79" transform="translate(-53.31 27.96) rotate(-17.82)" style="fill:#f7cfa2"/><circle cx="62.54" cy="184.02" r="11.06" transform="translate(-53.31 27.96) rotate(-17.82)" style="fill:#f0ba7a"/><circle cx="192.4" cy="142.28" r="16.79" transform="translate(-34.31 65.7) rotate(-17.82)" style="fill:#f7cfa2"/><circle cx="192.4" cy="142.28" r="11.06" transform="translate(-34.31 65.7) rotate(-17.82)" style="fill:#f0ba7a"/><path d="M188.83,127.9C174.67,52.05,142,83.43,105.53,95.13S47.34,140.49,56.92,170.3l12.17,37.87c9.58,29.81,60.76,40,83.3,32.77,19.87-6.39,58.19-45.36,48.61-75.17C198.86,159.11,190.11,134.78,188.83,127.9Z" style="fill:#f7cfa2"/><path d="M160.42,119.42c-2.09-1.07.06-5.24.06-5.24,9-4.62,15.62,10.66,23.57,2.88,2.65-2.59-1-8.4-2.48-13.14,7,8.84,7.22,0,12-4.71-1.15-5.41-2-10-2.84-12.5-11.44-35.6-49.28-47.79-84.88-36.35-34.72,11.16-47.15,39-37.47,73.79,24.16-17.86,46.62-10.28,69.65.24C145.37,121.94,152.71,121.89,160.42,119.42Z" style="fill:#601515"/><path d="M99.11,86.41A1.8,1.8,0,0,0,98,84.07h0a46.77,46.77,0,0,0-46.39,78,1.81,1.81,0,0,0,2.71-.17C72.3,138.57,89.09,113.72,99.11,86.41Z" style="fill:#601515"/><path d="M181.68,145.44c4.26,13.26,1.84,25.89-11.42,30.16s-25-3.81-29.29-17.07.6-26.68,13.86-30.94S177.42,132.18,181.68,145.44Z" style="fill:#601515;opacity:0.100000001490116"/><circle cx="161.79" cy="153.07" r="21.89" transform="translate(-39.08 56.85) rotate(-17.82)" style="fill:#fff"/><circle cx="169.59" cy="161.61" r="10.47" transform="translate(-41.32 59.64) rotate(-17.82)" style="fill:#601515"/><circle cx="169.59" cy="161.61" r="4.06" transform="translate(-41.32 59.64) rotate(-17.82)"/><circle cx="165.63" cy="157.88" r="2.99" transform="translate(-40.36 58.25) rotate(-17.82)" style="fill:#f9f9f9"/><path d="M72.75,180.45C77,193.7,86.35,202.56,99.6,198.3s18.12-17.68,13.86-30.94-16-21.33-29.29-17.07S68.49,167.19,72.75,180.45Z" style="fill:#601515;opacity:0.100000001490116"/><circle cx="93.37" cy="175.06" r="21.89" transform="translate(-49.09 36.97) rotate(-17.82)" style="fill:#fff"/><circle cx="103.37" cy="179.06" r="10.47" transform="translate(-49.83 40.22) rotate(-17.82)" style="fill:#601515"/><circle cx="103.37" cy="179.06" r="4.06" transform="translate(-49.83 40.22) rotate(-17.82)"/><circle cx="99.54" cy="175.28" r="2.99" transform="translate(-48.86 38.87) rotate(-17.82)" style="fill:#f9f9f9"/><path d="M168.49,204.22c-7.38,20.45-32.38,29.45-49.38,16.45,15,1,31-3,43.32-12.12C166.27,206,168.49,204.22,168.49,204.22Z" style="fill:#ea6d50"/><rect x="120.29" y="145.48" width="20.08" height="56.37" rx="10.04" ry="10.04" transform="translate(-46.89 48.21) rotate(-17.82)" style="fill:#f0ba7a"/><rect x="116.57" y="140.4" width="20.08" height="56.37" rx="10.04" ry="10.04" transform="matrix(0.95, -0.31, 0.31, 0.95, -45.51, 46.83)" style="fill:#f7cfa2"/><path d="M64.74,124.39s19.54,2.13,29.44,4.88c13.68,3.79,37.95-3,37.95-3s-24.82-17.81-37.52-17.46S64.74,124.39,64.74,124.39Z" style="fill:#601515"/><path d="M47.49,94.43a92.91,92.91,0,0,1,10.44-3.18c5.1-1,12-7.13,12-7.13s-11-1.81-15.13.36S47.49,94.43,47.49,94.43Z" style="fill:#601515"/><path d="M70.8,63.57a92.92,92.92,0,0,0,.9,10.88c1,5.1-2.22,13.74-2.22,13.74S63.72,78.61,64.23,74,70.8,63.57,70.8,63.57Z" style="fill:#601515"/><ellipse cx="87.42" cy="202.53" rx="2.5" ry="1.25" transform="translate(-57.78 36.46) rotate(-17.82)" style="fill:#f0ba7a"/><ellipse cx="96.89" cy="199.48" rx="2.5" ry="1.25" transform="translate(-56.39 39.21) rotate(-17.82)" style="fill:#f0ba7a"/><ellipse cx="93.67" cy="205.74" rx="2.5" ry="1.25" transform="translate(-58.46 38.53) rotate(-17.82)" style="fill:#f0ba7a"/><ellipse cx="172.36" cy="175.23" rx="2.5" ry="1.25" transform="translate(-45.35 61.14) rotate(-17.82)" style="fill:#f0ba7a"/><ellipse cx="181.83" cy="172.18" rx="2.5" ry="1.25" transform="translate(-43.96 63.9) rotate(-17.82)" style="fill:#f0ba7a"/><ellipse cx="178.62" cy="178.44" rx="2.5" ry="1.25" transform="translate(-46.03 63.21) rotate(-17.82)" style="fill:#f0ba7a"/><path d="M49.07,145l18.61,55,3.75-6.51-6.65-34.73s1.37-24.28,10.77-32S105.84,111,105.84,111L85.26,107.8Z" style="fill:#601515;opacity:0.300000011920929"/><path d="M181.9,99.37l13.32,51.79-3.65,3.73-14.83-32.1S161.48,103.85,149.32,103s-33.8,4.85-33.8,4.85l14.88-14.56Z" style="fill:#601515;opacity:0.300000011920929"/><path d="M145.58,148.94c6.53-11.28,33.17-21,25.53-28.28-6.45-9-35,9.89-36,26.89.8,6.22,4,6.11,5.86,6.57A15.46,15.46,0,0,0,145.58,148.94Z" style="fill:#5b1010"/><path d="M77.14,155.13c15.36,4.32,26,9.54,41,8.54a5.5,5.5,0,0,0,5-3c1-8-6.36-7.62-12.36-10.62-12-4-23.64-6.38-36.64-4.38-2,0-3,2-2.57,3.79C70.46,152.82,72.89,155.36,77.14,155.13Z" style="fill:#5b1010"/><g style="opacity:0.600000023841858"><path d="M99.11,64.84c4.93,0,9.49-2.55,14.21-3.7,5.09-1.24,10.36-.4,15.47-1.61a.7.7,0,0,0-.18-1.36c-4.93.25-10-.4-14.91.7S102.91,61.53,99,64.35a.26.26,0,0,0,.13.49Z" style="fill:#f7cfa2"/></g><path d="M105.82,250.48c-9.72-4.82-24.72-3.82-31.62,6.08a17.05,17.05,0,0,0-2.43,5.11,17.82,17.82,0,0,0-.63,6c.06,1.42.19,2.84.38,4.26a56.39,56.39,0,0,0,4.76,16c10.32,20.55,30.74,31.54,51.15,42.53,7.92,3.39,39,7.37,39.9,1.23,2.44-15.83-22.1-37.61-42.5-58l-2.75-2.78c-6-5.22-9-12.22-14.19-16.89A39,39,0,0,1,105.82,250.48Z" style="fill:#f1f3f7"/><path d="M263.88,358.33l-1.26-.91C256,349.87,247,343.87,238,338c-2-1.11-3.94-2.16-5.91-3.18l-2.94-2.34-2.92-2.33q-1.1-1-2.22-1.87a47.09,47.09,0,0,0-15.47-8.67c-2-1.4-3.16-2.34-3.16-2.34l-3.52-3.06a3,3,0,0,0-.87-.52c-7.11-5.62-18.86-13.25-27.33-6.51-3.62,2.21-6.51,5.62-6.48,9.75q-.12,1.09-.18,2.2c0,4.49,1.7,8.15,3.89,11.63.44.7.89,1.38,1.35,2.06,1.72,1.83,3.46,3.66,5.19,5.52l1,1.13c6.47,2.44,7.47,7.44,8.38,13.22a7.5,7.5,0,0,0,.65,1.07,5.05,5.05,0,0,0,5.44,2.14c-2,1,0,3-1,4.55a4.16,4.16,0,0,0,.38,1.19,6.26,6.26,0,0,0,2.83,2.81,10.53,10.53,0,0,0,1.6.41c1.1.2,2.25.29,3.3.42q.62.11,1.22.16a10.15,10.15,0,0,0,4.57.57,6.62,6.62,0,0,0,1.89-.59c4.37-1,6.16-2.53,8.25-6.54q.79-.85,1.51-1.77a31.5,31.5,0,0,0,4.58-8.07c-.18-.15-.18-1.15-.18-1.15,2.6.4,5.12.88,7.58,1.47C241,351.87,250,358.87,260,364.83a7.58,7.58,0,0,0,2.55,0,3.16,3.16,0,0,0,1.95-1.07l.54-.72C266.9,360.72,265,359.41,263.88,358.33Z" style="fill:#f7cfa2"/><path d="M163.44,293c-4.33-2.32-7.33-6.32-11.19-7.34-1.44-.64-2.9-1.25-4.37-1.86-5.9-2.42-12-4.73-18.27-7.34-1.71-.63-3.4-1.29-5.07-2-11.75-4.59-23-9-36-2.28a8.37,8.37,0,0,0-2,3.92c-1.55,6.36,1.17,16.52,6,21.7a343,343,0,0,0,27.24,21.81c1.64,1.17,3.28,2.32,4.93,3.41,9.38,6.61,25.38,14.61,34.5,3.67a42.42,42.42,0,0,0,3.32-3.83c5.26-6.87,8.77-15.94,4.82-24.5C166,295.56,165.81,295.07,163.44,293Z" style="fill:#f1f3f7"/><path d="M165,294.81a32.12,32.12,0,0,0-4.37-4.61,43.09,43.09,0,0,0-4-3.19,50.1,50.1,0,0,0-4.31-2.69c-5.39-1.91-11-3.6-16.43-5.53-1.82-.64-3.63-1.31-5.43-2C120.27,272,108.27,267,103.27,256c2,13,14,19,24.11,23.54,1.9.74,3.83,1.43,5.77,2.08,5.82,2,11.77,3.57,17.19,5.36,1.82.77,3.61,1.59,5.36,2.48s3.46,1.83,5.11,2.87A32.77,32.77,0,0,0,165,294.81Z" style="fill:#fff"/><ellipse cx="226.13" cy="266.32" rx="51.06" ry="42.05" style="fill:#f4f0a6"/><polyline points="180.6 251.87 175.78 227.77 189.62 242.71 269.3 243.68" style="fill:#f4f0a6"/><path d="M168.22,294.06c4.17,1,18.8,9.38,19.84,10.51-7.21,5.84-19.47,21-20.67,33.33-4.49-2.72-15.45-9.51-16.72-11C153.44,314.69,160.37,303.17,168.22,294.06Z" style="fill:#fff"/></g></svg>