<?xml version="1.0" encoding="utf-8"?>
<!-- Generator: Adobe Illustrator 21.1.0, SVG Export Plug-In . SVG Version: 6.00 Build 0)  -->
<svg version="1.1" xmlns="http://www.w3.org/2000/svg" xmlns:xlink="http://www.w3.org/1999/xlink" x="0px" y="0px"
	 viewBox="0 0 300 450" style="enable-background:new 0 0 300 450;" xml:space="preserve">
<style type="text/css">
	.st0{fill:#B27E49;}
	.st1{fill:#ECB8FF;}
	.st2{display:none;opacity:0.3;}
	.st3{fill:#F4E44A;}
	.st4{clip-path:url(#SVGID_2_);fill:#F1F3F7;}
	.st5{opacity:0.4;clip-path:url(#SVGID_2_);fill:#DCDDE0;}
	.st6{clip-path:url(#SVGID_2_);fill:#0076B7;}
	.st7{clip-path:url(#SVGID_2_);fill:#FFFFFF;}
	.st8{clip-path:url(#SVGID_2_);}
	.st9{fill:#FFFFFF;}
	.st10{clip-path:url(#SVGID_2_);fill:#F7CFA2;}
	.st11{fill:#F7CFA2;}
	.st12{fill:#F0BA7A;}
	.st13{fill:#601515;}
	.st14{fill:url(#SVGID_3_);}
	.st15{opacity:0.1;fill:#601515;}
	.st16{fill:#F9F9F9;}
	.st17{fill:url(#SVGID_4_);}
	.st18{fill:url(#SVGID_5_);}
	.st19{fill:url(#SVGID_6_);}
	.st20{fill:#EA6D50;}
	.st21{opacity:0.3;fill:#601515;}
	.st22{fill:#5B1010;}
	.st23{opacity:0.6;}
	.st24{fill:#A52323;}
	.st25{opacity:0.2;}
	.st26{fill:url(#SVGID_7_);}
	.st27{fill:#CE6117;}
	.st28{fill:url(#SVGID_8_);}
	.st29{fill:#8454D1;}
	.st30{clip-path:url(#SVGID_10_);fill:#393D47;}
	.st31{clip-path:url(#SVGID_10_);fill:#F0BA7A;}
	.st32{clip-path:url(#SVGID_10_);fill:#F1F3F7;}
	.st33{clip-path:url(#SVGID_10_);fill:#0076B7;}
	.st34{clip-path:url(#SVGID_10_);fill:#004868;}
	.st35{opacity:0.4;clip-path:url(#SVGID_10_);fill:#DCDDE0;}
	.st36{clip-path:url(#SVGID_10_);fill:#FFFFFF;}
	.st37{clip-path:url(#SVGID_10_);}
	.st38{fill:#393D47;}
	.st39{fill:url(#SVGID_11_);}
	.st40{fill:#EAA56C;}
	.st41{clip-path:url(#SVGID_13_);fill:#F1F3F7;}
	.st42{clip-path:url(#SVGID_13_);fill:#F0BA7A;}
	.st43{opacity:0.4;clip-path:url(#SVGID_13_);fill:#DCDDE0;}
	.st44{clip-path:url(#SVGID_13_);fill:#0076B7;}
	.st45{clip-path:url(#SVGID_13_);fill:#FFFFFF;}
	.st46{clip-path:url(#SVGID_13_);}
	.st47{clip-path:url(#SVGID_13_);fill:#F7CFA2;}
	.st48{fill:#F1F3F7;}
	.st49{fill:none;}
	.st50{fill:#A85848;}
	.st51{fill:#E85646;}
	.st52{fill:#EA4E39;}
	.st53{fill:#DCFFC5;}
	.st54{fill:#8BAA77;}
	.st55{clip-path:url(#SVGID_15_);fill:#F1F3F7;}
	.st56{opacity:0.4;clip-path:url(#SVGID_15_);fill:#DCDDE0;}
	.st57{clip-path:url(#SVGID_15_);fill:#0076B7;}
	.st58{clip-path:url(#SVGID_15_);fill:#FFFFFF;}
	.st59{clip-path:url(#SVGID_15_);}
	.st60{fill:#595959;}
	.st61{opacity:0.3;fill:#595959;}
	.st62{clip-path:url(#SVGID_27_);fill:#F1F3F7;}
	.st63{opacity:0.4;clip-path:url(#SVGID_27_);fill:#DCDDE0;}
	.st64{clip-path:url(#SVGID_27_);fill:#0076B7;}
	.st65{clip-path:url(#SVGID_27_);fill:#FFFFFF;}
	.st66{clip-path:url(#SVGID_27_);}
	.st67{clip-path:url(#SVGID_27_);fill:#F7CFA2;}
	.st68{opacity:0.7;fill:#7BCDDB;}
	.st69{fill:none;stroke:#F0BA7A;stroke-width:3;stroke-miterlimit:10;}
	.st70{clip-path:url(#SVGID_41_);fill:#F1F3F7;}
	.st71{opacity:0.4;clip-path:url(#SVGID_41_);fill:#DCDDE0;}
	.st72{clip-path:url(#SVGID_41_);fill:#0076B7;}
	.st73{clip-path:url(#SVGID_41_);fill:#FFFFFF;}
	.st74{clip-path:url(#SVGID_41_);}
	.st75{clip-path:url(#SVGID_41_);fill:#F7CFA2;}
	.st76{fill:#9E9E9E;}
	.st77{fill:#878787;}
	.st78{fill:#DDBD00;}
	.st79{clip-path:url(#SVGID_43_);fill:#F1F3F7;}
	.st80{opacity:0.4;clip-path:url(#SVGID_43_);fill:#DCDDE0;}
	.st81{clip-path:url(#SVGID_43_);fill:#0076B7;}
	.st82{clip-path:url(#SVGID_43_);fill:#FFFFFF;}
	.st83{clip-path:url(#SVGID_43_);}
	.st84{clip-path:url(#SVGID_43_);fill:#F7CFA2;}
	.st85{clip-path:url(#SVGID_45_);}
	.st86{opacity:0.4;fill:#DCDDE0;}
	.st87{fill:#0076B7;}
	.st88{opacity:0.3;}
	.st89{fill:#DCDDE0;}
	.st90{fill:#004868;}
	.st91{fill:#E02B41;}
	.st92{fill:#C69018;}
	.st93{fill:#EFE91B;}
	.st94{fill:#656D60;}
	.st95{clip-path:url(#SVGID_47_);fill:#F0BA7A;}
	.st96{clip-path:url(#SVGID_47_);fill:#F1F3F7;}
	.st97{opacity:0.4;clip-path:url(#SVGID_47_);fill:#DCDDE0;}
	.st98{clip-path:url(#SVGID_47_);fill:#0076B7;}
	.st99{clip-path:url(#SVGID_47_);fill:#FFFFFF;}
	.st100{clip-path:url(#SVGID_47_);}
	.st101{clip-path:url(#SVGID_47_);fill:#F7CFA2;}
	.st102{clip-path:url(#SVGID_49_);fill:#F1F3F7;}
	.st103{clip-path:url(#SVGID_49_);}
	.st104{fill:#B23C18;}
	.st105{fill:#6B2A05;}
	.st106{fill:#B23C18;stroke:#6B2A05;stroke-miterlimit:10;}
	.st107{fill:#DDAA78;}
	.st108{fill:#211205;}
	.st109{fill:none;stroke:#6B2A05;stroke-width:0.729;stroke-miterlimit:10;}
	.st110{fill:#B23C18;stroke:#6B2A05;stroke-width:0.729;stroke-miterlimit:10;}
	.st111{fill:#B72C34;}
	.st112{clip-path:url(#SVGID_51_);fill:#F1F3F7;}
	.st113{clip-path:url(#SVGID_51_);}
	.st114{clip-path:url(#SVGID_51_);fill:#F7CFA2;}
	.st115{fill:#F2C85F;}
	.st116{clip-path:url(#SVGID_53_);fill:#F0BA7A;}
	.st117{clip-path:url(#SVGID_53_);fill:#F1F3F7;}
	.st118{opacity:0.4;clip-path:url(#SVGID_53_);fill:#DCDDE0;}
	.st119{clip-path:url(#SVGID_53_);fill:#0076B7;}
	.st120{clip-path:url(#SVGID_53_);fill:#FFFFFF;}
	.st121{clip-path:url(#SVGID_53_);}
	.st122{clip-path:url(#SVGID_53_);fill:#F7CFA2;}
	.st123{clip-path:url(#SVGID_55_);}
	.st124{fill:#F4F0A6;}
	.st125{fill:#9E921E;}
	.st126{clip-path:url(#SVGID_57_);fill:#F0BA7A;}
	.st127{clip-path:url(#SVGID_57_);fill:#F1F3F7;}
	.st128{clip-path:url(#SVGID_57_);}
	.st129{clip-path:url(#SVGID_57_);fill:#393D47;}
	.st130{clip-path:url(#SVGID_57_);fill:#FFFFFF;}
	.st131{opacity:0.4;clip-path:url(#SVGID_57_);fill:#DCDDE0;}
	.st132{clip-path:url(#SVGID_57_);fill:#0076B7;}
	.st133{fill:#1F74C9;}
	.st134{clip-path:url(#SVGID_59_);}
	.st135{fill:#023142;}
	.st136{clip-path:url(#SVGID_61_);fill:#F7CFA2;}
	.st137{clip-path:url(#SVGID_61_);}
	.st138{opacity:0.3;fill:#E57257;}
	.st139{fill:#777777;}
	.st140{clip-path:url(#SVGID_63_);fill:#F1F3F7;}
	.st141{opacity:0.4;clip-path:url(#SVGID_63_);fill:#DCDDE0;}
	.st142{clip-path:url(#SVGID_63_);fill:#0076B7;}
	.st143{clip-path:url(#SVGID_63_);fill:#FFFFFF;}
	.st144{clip-path:url(#SVGID_63_);}
	.st145{clip-path:url(#SVGID_63_);fill:#F7CFA2;}
	.st146{clip-path:url(#SVGID_65_);fill:#F0BA7A;}
	.st147{clip-path:url(#SVGID_65_);fill:#F1F3F7;}
	.st148{opacity:0.4;clip-path:url(#SVGID_65_);fill:#DCDDE0;}
	.st149{clip-path:url(#SVGID_65_);fill:#0076B7;}
	.st150{clip-path:url(#SVGID_65_);fill:#FFFFFF;}
	.st151{clip-path:url(#SVGID_65_);}
	.st152{clip-path:url(#SVGID_65_);fill:#F7CFA2;}
</style>
<g id="Layer_1">
	<circle class="st1" cx="149.7" cy="217" r="99.7"/>
	<g>
		<defs>
			<path id="SVGID_24_" d="M248,218.6c0,55.1-44.7,99.7-99.7,99.7s-99.7-44.7-99.7-99.7S93.2,52.8,148.3,52.8
				C203.3,52.8,248,163.5,248,218.6z"/>
		</defs>
		<clipPath id="SVGID_2_">
			<use xlink:href="#SVGID_24_"  style="overflow:visible;"/>
		</clipPath>
	</g>
</g>
<g id="Layer_2">
	<path class="st38" d="M144.3,190.7c-0.2-0.5,8-57.3,7.8-57.8c-0.5-1.4-0.5-3.1-0.8-4.7c-0.3-2.4-0.8-4.7-1.4-7
		c-7.9-29.7-36.9-49.4-68-44.9c-33.5,4.8-56.8,35.9-51.9,69.5c2.4,16.5,25.4,58.2,25.8,60.1c12.2-10.2,30.5,0.1,43.1-9.3
		C116.7,183.2,124.1,200,144.3,190.7z"/>
	<path class="st9" d="M162.4,115.4c-4.5,3.8-7.7,10.2-13.4,14.1v-0.6c-1.3,3.2-5.1,3.2-7,5.1c-1.3,1.9,4.5,1.9,1.9,4.5
		c12.1-4.3,20.6-13.8,25.9-25.1c-0.5-1.3-1.3-2.6-2.4-3.8c-1.2-1.3-2.6-3.3-3.9-4.5C164.1,109.2,164.3,113,162.4,115.4z"/>
	<path class="st135" d="M176.6,176.2c0,0-13.8,36.4-34.7,31.4s-33.6-14.9-33.6-14.9l-29.7,61.7c0,0,38.6,79.3,79.3,31.4
		S176.6,176.2,176.6,176.2z"/>
	<path class="st48" d="M124.8,200.8c-1.2,2.6-2.7,5.1-4.3,7.3c-1.6,2.3-3.5,4.3-5.4,6.3c-2,1.5-4,4.5-6,5.5c-22,10-51,3-68,28
		c-2,4-23,7-23,2c2-31,30-71,69-58.4c3,0.6,6,1.3,8.9,2.3c5.8,1.9,11.3,4.4,16.1,7.5"/>
	<g>
		<defs>
			<path id="SVGID_60_" d="M248.9,217.3c0,55.1-44.7,99.7-99.7,99.7s-99.7-44.7-99.7-99.7c0-55.1,44.7-165.7,99.7-165.7
				S248.9,162.2,248.9,217.3z"/>
		</defs>
		<clipPath id="SVGID_3_">
			<use xlink:href="#SVGID_60_"  style="overflow:visible;"/>
		</clipPath>
		<path style="clip-path:url(#SVGID_3_);fill:#F7CFA2;" d="M139.2,301.6c1.6,7.1,1,15-2.2,20.5c-0.8,1.4-1.7,2.6-2.8,3.7
			c-1,0.7-2.1,1.4-3.3,1.9c-8.9,3.6-19.9,6.6-27.9-0.4c-7-7-1-17-3.6-24.9c-0.1-1.3-0.2-2.6-0.4-3.9c-0.4-3.9-1.1-7.7-1.8-11.7
			c0-1.7,0.1-3.3,0.2-4.9c0.5-1.3,1.2-2.6,1.9-3.8c3.6-6,9.1-10.5,16.6-9.9c7,1,11,5,16.2,9.5c0.9,1.1,1.8,2.2,2.5,3.4
			c0.8,1.2,1.4,2.5,2,3.9c1.7,3.8,2.7,7.8,2.4,13C139.2,299.3,139.2,300.4,139.2,301.6z"/>
		<g style="clip-path:url(#SVGID_3_);">
			<path class="st48" d="M70.2,191.8c1.5-0.6,3-1.1,4.5-1.5c1.2-0.5,2.5-1,3.7-1.5c1.3-0.7,2.6-1.2,3.9-1.5c1.6-0.2,3.3-0.3,5.1-0.4
				c13.3,0.3,29.3,3.3,35.3,16.3c4,11-5,21-9.7,30.4c-0.6,1.6-1.2,3.3-1.6,5c0.1,1.8,0.1,3.6,0.2,5.4s0.2,3.6,0.4,5.5
				c-7,2.9-13.9,6.2-20.4,9.9c-1.3,0.8-2.6,1.5-3.9,2.3c-1.6,1.5-2.6,4.5-5.3,0.6c-1.1-1.2-2.1-2.5-3.2-3.7
				c-6.2-7.5-11.5-15.5-15.7-24.5c-0.7-1-1.4-2.1-2-3.3c-1.9-3.4-3.4-7.2-5-10.9c-0.7-1.5-1.3-3.1-1.8-4.7
				C50.8,203.8,59.9,195.8,70.2,191.8z"/>
			<path class="st87" d="M115.8,262.7l-6.5,13c0,0-0.7-0.5-1.8-1.4c-1.1-0.8-2.5-1.9-3.9-3c-1.5-0.9-3.5-2.9-5.7-4.4
				c0,0-0.1-0.8-0.1-2.2c-0.1-1.4-0.2-3.5-0.4-6c-0.1-1.7-0.2-3.5-0.3-5.5c-0.7-5.4-0.2-10.7,0.5-15.9c0.3-1.8,0.5-3.5,0.8-5.3
				c1.3-10.7,1.3-21.7-3.7-31.7c0-1,3.5-2.5,4.5-2.5c5.3,4.9,9.5,11.5,10.5,18.5c0,6,2,11,0.4,16.6c-0.1,1.4-0.1,2.8-0.1,4.2
				c0,4.2,0.6,8.4,2.3,12.7c0.5,1.9,1,3.6,1.4,5.2C114.9,259.7,115.8,262.7,115.8,262.7z"/>
			<path class="st87" d="M99.3,190.5c-1.6-1.2-3.6-3.2-5.6-3.2c-2.8,2.2-4.8,8.4-4.8,8.4s4.5,2.8,5.8,4.6c2-2,4.6-2.3,4.6-2.3
				L99.3,190.5z"/>
			<path class="st90" d="M72.5,229.9c4.1-3.4,5.6-7.6,5.8-12.2c0.1-1.5,0-3.1,0-4.6c1.2-8.2-5.8-28.2,5.2-23.2c4,2,7,11,13.1,16.5
				c1.1,0.7,2.2,1.2,3.5,1.5c1.2,0.3,2.6,0.5,4,0.4c1.4,0.1,2.9,0.1,4.4,0.1c0.9,1.7,1.7,3.3,2.5,5c8.1,17.5,10.7,37.1,9,56.7
				c-0.1,1.8-0.3,3.6-0.2,5.5c5.2,9.9,17.2,5.9,25.2,6.9c2,1,4,2,5,4c5,10-9,13-16,15c-11,3-21,5-32,4.9c-1.6,0-3.1,0-4.7,0
				c-3.1-0.1-6.3-0.4-9.5-0.9c-1.4-0.5-2.8-1.2-4-2.1c-3.7-2.6-6.5-7-7.7-14c0-3-1-5-1.1-8.3c-0.2-1.8-0.4-3.6-0.6-5.4
				c-0.6-5.4-1.2-10.6-2.9-15c-0.4-1-0.8-2-1.3-3.1c-1.8-3.9-5.2-10.1-6.4-15.8c-0.3-1.4-0.4-2.8-0.4-4.1c0-1.2,0.3-2.3,0.8-3.1
				c0.5-0.9,1.1-1.6,1.8-2.2c1.5-0.5,3.5-2.5,5.5-2.3C71.8,230,72.1,230,72.5,229.9z"/>
			<path class="st9" d="M93.9,186.6l0.1,0.5c0,0-4.6,13-11.9,10.5c-7.4-2.6-7.5-7.8-7.5-7.8l2-5.1L93.9,186.6z"/>
			<path class="st90" d="M106,189.6c0,0,6.5,7.2,5,12.7s-3.8,7.2-3.8,7.2l-15.5,6.8l-0.2,26.5l28-13.2c0,0,1.2-8.7,0.2-20.3
				s-7-16.7-7-16.7L106,189.6z"/>
		</g>
	</g>
	
		<ellipse transform="matrix(0.9897 -0.1429 0.1429 0.9897 -17.8305 20.3245)" class="st11" cx="132.6" cy="134.3" rx="10.5" ry="10.5"/>
	
		<ellipse transform="matrix(0.9897 -0.1429 0.1429 0.9897 -17.9561 20.352)" class="st12" cx="132.8" cy="135.2" rx="6.9" ry="6.9"/>
	<ellipse transform="matrix(0.9897 -0.1429 0.1429 0.9897 -19.8723 8.3178)" class="st11" cx="48" cy="142.6" rx="10.5" ry="10.5"/>
	<ellipse transform="matrix(0.9897 -0.1429 0.1429 0.9897 -19.8723 8.3178)" class="st12" cx="48" cy="142.6" rx="6.9" ry="6.9"/>
	<path class="st11" d="M131.9,125.1c-2.8-19.4-24.3-32.4-48.1-29c-23.7,3.4-40.7,22-37.9,41.4c0.6,4.3,2.9,20.3,3.6,24.7
		c2.8,19.4,33.4,31.1,48.1,29c12.9-1.9,40.7-22,37.9-41.4C134.9,145.4,132.6,129.4,131.9,125.1z"/>
	<path class="st138" d="M130.2,163.2c0-1.1-0.3-2-1.5-2.5c-3.4-1.7-4.3,4.6-3.9,7.1c0,0.2,0,0.3,0.1,0.4c-0.1,0-0.2-0.1-0.3-0.1
		c0-0.5,0-0.9,0-1.4c-1.1-2,0.2-6.7-3.1-6.9c-3.7-0.6-2.7,5.5-1.5,7.8c-0.2,0-0.3,0.1-0.5,0.1c-0.8-2.1-1.1-5.1-3.8-4.8
		c-3.5,0.2-1.8,5.2-0.3,7.6c-0.2,0.4-0.5,0.9-0.6,1.4c-0.1,0.2-0.2,0.5-0.3,0.7c-1.4-1.6-2.9-3.8-5-2.5c-3.4,1.7,1.1,6.3,3.4,7.5
		c0.4,0.2,0.7,0.4,1.1,0.6c0.1,1.8,0.8,3.1,1.8,4.6c6.2-4.7,8.8-7.6,12.2-11.1C130.6,168.6,129,167,130.2,163.2z"/>
	<path class="st38" d="M78.2,95c0.3-0.6,0.1-1.3-0.5-1.6c0,0,0,0,0,0c-14.5-7.2-32.1-1.2-39.3,13.3c-4.9,10-3.6,21.5,2.4,30
		c0.4,0.6,1.2,0.6,1.7,0.2C56.1,124.5,69.1,110.9,78.2,95z"/>
	<path class="st38" d="M124.4,100.7c0.6-0.2,1-0.8,0.8-1.4c0,0,0,0,0,0C120,83.9,103.3,75.7,88,80.9c-10.6,3.6-17.8,12.6-19.5,22.9
		c-0.1,0.7,0.4,1.3,1.1,1.3C88,105.9,106.8,105.5,124.4,100.7z"/>
	<path class="st38" d="M133.9,126.5c0.4,0.2,0.9-0.1,1.2-0.7c0,0,0,0,0,0c7.1-14.6-4.6-31.8-14.2-39.5c-5.9-4.7-25-11.7-32-4.9
		C88.4,82,107,98.3,107.3,98.7C114.9,109.8,123.3,120.1,133.9,126.5z"/>
	<g>
		<path class="st15" d="M125.8,145.9c1.2,8.6-1.6,16.2-10.2,17.4c-8.6,1.2-15.1-5-16.3-13.6c-1.2-8.6,3.2-16.4,11.8-17.7
			S124.6,137.3,125.8,145.9z"/>
		
			<ellipse transform="matrix(0.9897 -0.1429 0.1429 0.9897 -20.0639 17.6267)" class="st9" cx="112.7" cy="148.5" rx="13.7" ry="13.7"/>
		<path class="st38" d="M118.9,137.5l-16.8,7.9c-2.4,1.1-5.2,0.1-6.3-2.3l0,0c-1.1-2.4-0.1-5.2,2.3-6.3l16.8-7.9
			c2.4-1.1,5.2-0.1,6.3,2.3h0C122.3,133.6,121.3,136.4,118.9,137.5z"/>
		
			<ellipse transform="matrix(0.9897 -0.1429 0.1429 0.9897 -20.0639 17.6267)" class="st13" cx="112.7" cy="148.5" rx="6.6" ry="6.6"/>
		<ellipse transform="matrix(0.9897 -0.1429 0.1429 0.9897 -20.0639 17.6267)" cx="112.7" cy="148.5" rx="2.5" ry="2.5"/>
		
			<ellipse transform="matrix(0.9897 -0.1429 0.1429 0.9897 -19.6963 17.3048)" class="st16" cx="110.7" cy="145.8" rx="1.9" ry="1.9"/>
	</g>
	<g>
		<path class="st15" d="M54.7,156.2c1.2,8.6,6.1,15.1,14.7,13.8s13-9,11.8-17.7c-1.2-8.6-7.7-14.9-16.3-13.6
			C56.3,140,53.5,147.5,54.7,156.2z"/>
		
			<ellipse transform="matrix(0.9897 -0.1429 0.1429 0.9897 -21.4431 11.3118)" class="st9" cx="68.1" cy="155" rx="13.7" ry="13.7"/>
		<path class="st38" d="M58.4,145.4l18.4,2.5c2.6,0.4,5-1.5,5.3-4.1l0,0c0.4-2.6-1.5-5-4.1-5.3L59.7,136c-2.6-0.4-5,1.5-5.3,4.1l0,0
			C54,142.7,55.9,145.1,58.4,145.4z"/>
		<ellipse transform="matrix(0.9897 -0.1429 0.1429 0.9897 -21.4431 11.3118)" class="st13" cx="68.1" cy="155" rx="6.6" ry="6.6"/>
		<ellipse transform="matrix(0.9897 -0.1429 0.1429 0.9897 -21.4431 11.3118)" cx="68.1" cy="155" rx="2.5" ry="2.5"/>
		
			<ellipse transform="matrix(0.9897 -0.1429 0.1429 0.9897 -21.0728 11.0024)" class="st16" cx="66.1" cy="152.3" rx="1.9" ry="1.9"/>
	</g>
	<path class="st20" d="M111.1,179.5c0,0-6.4,6.7-15.4,8s-17-3.3-17-3.3s8.1,0.4,17-0.9S111.1,179.5,111.1,179.5z"/>
	<path class="st12" d="M93.9,172.5L93.9,172.5c-2.2,0.3-4.2-1.2-4.5-3.4L87.4,155c-0.3-2.2,1.2-4.2,3.4-4.5h0
		c2.2-0.3,4.2,1.2,4.5,3.4l2.1,14.2C97.6,170.2,96.1,172.2,93.9,172.5z"/>
	<path class="st11" d="M92.9,169.5L92.9,169.5c-2.2,0.3-4.2-1.2-4.5-3.4L86.3,152c-0.3-2.2,1.2-4.2,3.4-4.5h0
		c2.2-0.3,4.2,1.2,4.5,3.4l2.1,14.2C96.6,167.2,95,169.2,92.9,169.5z"/>
	<path class="st38" d="M46.1,116.7l3.1,21.4l48.6-7l-0.4-16.3l5.2,15.6c0,0,7.4-0.1,12.8-0.9c4.5-0.7,16.3,4.6,16.3,4.6l-7.2-32.5
		l-62.9-0.7L46.1,116.7z"/>
	<g class="st23">
		<path class="st11" d="M91.9,83.2c4.1,0.3,8.7,0.4,12.7,1.2c3.8,0.7,7.3,2.2,10.9,3.3c1.1,0.3,3.4-1.2,1.7-1.7
			c-4.2-1.3-8.1-3-12.6-3.6c-3.8-0.5-7.8-0.6-11.7-1C91.7,81.3,89.9,83.1,91.9,83.2L91.9,83.2z"/>
	</g>
	<path class="st11" d="M55.7,202.3c0,0.2,0,0.5,0,0.7C55.7,202.7,55.7,202.5,55.7,202.3z"/>
	<path class="st11" d="M210,119.4l-40.4,70.4c0,0-6.2,13.5,0,21.7c6.2,8.3,93.2-69.4,93.2-69.4L210,119.4z"/>
	<path class="st11" d="M185.1,161.2l-16.4,28.5c0,0-6.2,13.5,0,21.7c3,4.1,25.4-12.5,47.5-30.4C204.7,176.8,193.7,170,185.1,161.2z"
		/>
	<path class="st9" d="M209,119.4l-24,41.8c8.6,8.7,19.7,15.5,31.1,19.8c23-18.7,45.6-38.9,45.6-38.9L209,119.4z"/>
	<path class="st38" d="M277.4,127.6c4.6,12.8-7.4,21.8-18.4,25.8c-6,2-12,3-19,2c-17-3-33-6-48-12c-10-4-18-10-26-17
		c-6-6-10-14-11-23c-1-10,2-19,8-27c2-3,5-6,8-7c41-15,74,23,99.6,48.1C273.7,120.8,276,124.1,277.4,127.6z"/>
	<path class="st38" d="M277.4,127.6c-1.4-3.4-3.8-6.8-6.9-10.1c-4.1-4-8.3-8.3-12.8-12.7c-12.8,4.5-24.2,11.9-36.1,18.3
		c13.3,5,26.1,10.3,39.1,15.7c-0.3-0.1-0.5-0.3-0.8-0.4c0.3,0.1,0.5,0.3,0.8,0.4c0.9,0.4,1.7,0.7,2.6,1.1c1.1,0.3,2.3,0.6,3.7,0.6
		c8.7-0.7,10-6.2,10.5-12.6C277.5,127.7,277.5,127.7,277.4,127.6z"/>
	<path class="st139" d="M281,126c0-10.6-14-11.6-19.6-17.6c-1.1-1-2.1-2.1-3.2-3.2c-23.6-23.3-52.5-48.5-87.2-35.8c-3,1-6,4-8,7
		c-1.6,2.1-3,4.3-4.1,6.6c1.2,3.4,3,6.7,5.1,9.4c3,4,12.2,13.2,17.2,16.2c27.9,20.3,52.1,22.1,82.3,34.3c4.3,0.7,8.1-0.2,10.7-2.2
		c0.9-0.7,1.6-1.5,2.3-2.4c1.5-2.9,3.5-5.9,3.9-10.1C280.7,127.5,280.9,126.7,281,126z"/>
	<path class="st38" d="M252.8,99.9c-22.5-21.6-49.7-42.2-81.8-30.5c-3,1-6,4-8,7c-0.4,0.6-0.9,1.2-1.3,1.8
		c8.2,18.9,25.9,32.5,44.3,39.2c2.6,0.9,5.2,1.8,7.7,2.7c2.7,1,5.3,2,7.9,2.9c1.2-0.6,2.3-1.3,3.5-1.9c2.6-1.5,5.3-3,7.9-4.4
		c8-4.5,16.1-8.9,24.8-12C256.1,103.1,254.5,101.5,252.8,99.9z"/>
	<path class="st38" d="M280.9,120.7c-2.9-8.4-9.9-13.4-16.9-18c-0.7-0.4-1.4-0.8-2.1-1.2c-12.8,4.5-20.9,12.9-32.9,19.3
		c1.5,0.6,2.8,1.1,4.1,1.7c0.4,0.2,0.8,0.4,1.2,0.6c1,0.4,1.9,0.9,2.9,1.4c0.9,0.5,1.9,1,2.8,1.6c8,4.1,22.3,10.4,31.8,8.3
		c1.2-0.3,2.3-0.7,3.3-1.2c3.9-1.9,4.9-5.9,6.4-9.2"/>
	<path class="st90" d="M160.5,200.4c-5.4,5.4-12,9-19.6,7.2c-20.9-5-33.6-14.9-33.6-14.9l-29.7,61.7c0,0,38.6,79.3,79.3,31.4
		c4.3-5,7.8-10.2,10.8-15.4C159,249.5,155.3,223.4,160.5,200.4z"/>
	<g>
		<path class="st11" d="M118.1,244.8c-1.7,1.9-3.5,3.7-5.2,5.6c-2.8,3-5.6,6.1-7.1,9.9c-1.4,3.8-1.1,8.6,1.9,11.4
			c1.8,1.6,4.8,2.3,6.5,0.6c1.2,0.6,2.3,1.5,3.5,2.1c1.2,0.6,2.7,0.9,3.9,0.2c1.2-0.7,1.5-2.7,0.3-3.4c1,1.5,3,2.3,4.7,1.8
			c1.7-0.5,3-2.2,3-4c0-1.2-0.5-2.4-0.6-3.6c-0.4-3.7,2.8-6.7,5.7-9"/>
		<g>
			<path class="st48" d="M108.9,191.5c9.3-12.5,23.3,2.5,30.7,10c1,1.4,1.9,2.6,2.8,3.8c0.9,1.2,1.7,2.2,2.5,3
				c0.7,1.4,1.4,2.9,2.1,4.4c0.7,1.5,1.3,3.1,2,4.6c0.5,1.1,0.9,2.3,1.3,3.4c1.7,5.8,1.3,11.9-0.1,18.8c-0.4,1.6-0.9,3.1-1.4,4.6
				c-0.5,1.5-1.1,3.1-1.6,4.6c-1.7,3.3-12.6,12.7-15.9,10.7c-5.5-3.4-7.3-10.8-8.2-19.1c-0.2-2.1-0.4-4.2-0.5-6.4
				c0-1.1,0-2.2-0.1-3.2c0.1-1.3,0.1-2.6,0.1-3.9c-0.1-1.3-0.2-2.6-0.5-4c-0.3-1.3-0.6-2.6-1-3.9c-0.3-1.3-0.7-2.5-1-3.7
				c-0.6-2.8-1.4-5.4-2.3-7.9c-0.4-1.3-0.9-2.5-1.4-3.7c-0.2-4.6-5.2-6.6-6.3-10.3C109.7,192.5,109.3,191.9,108.9,191.5z"/>
			<g>
				<path class="st48" d="M115.1,244.4c0.7-2,0.1-4.2,1.2-5.5c0.3-0.6,0.6-1.2,0.9-1.8c0.7-1.2,1.4-2.4,2.1-3.6
					c0.7-1.2,1.4-2.5,2.1-3.7c0.9-0.9,1.6-2.1,2.1-3.3c0.5-1.2,0.9-2.5,1.4-3.8c1.2-8.7,11.2-7.7,16.8-3.4c1,0.9,1.8,2,2.2,3.5
					c1.4,1.7,2.4,3.6,2.6,5.1c0,4.5-0.4,9.8-1.2,14.9c-0.1,0.8-0.3,1.7-0.5,2.5c-0.8,4.8-3.7,11.8-12.5,10.2c-1-0.1-2.1-0.3-3.1-0.5
					c-5.3-1.1-10.9-3.5-13.3-7.6C115.3,245.9,115.1,245.7,115.1,244.4z"/>
				<path class="st9" d="M115.4,245.4c-0.2-1-0.3-1.9-0.3-2.8c0-0.7,0.1-1.5,0.2-2.2c0.1-0.7,0.3-1.4,0.5-2.1
					c1.3-2.1,2.9-4.1,4.2-6.2c0.5-0.7,0.9-1.4,1.3-2.1c0.8-1.2,1.4-2.4,1.8-3.6c0.4-1.2,0.6-2.5,0.7-3.7c0.1-1.3,0-2.5,0-3.8
					c-0.1-1.2-0.2-2.5-0.4-3.7c-1.1-3.6-2.2-7.2-3.5-10.6c-0.4-1.1-0.9-2.2-1.4-3.3c-0.4-3.3-2.4-4.3-4.4-6.3c2,2,4,4,4.6,6.3
					c0.6,1.1,1.1,2.2,1.6,3.3c1.5,3.4,2.8,6.9,3.8,10.5c0.3,1.2,0.5,2.4,0.8,3.7c0.2,1.2,0.5,2.5,0.7,3.7c0,1.4-0.1,2.7-0.4,4
					c-0.3,1.3-0.8,2.5-1.5,3.7c-0.4,0.8-0.9,1.5-1.4,2.2c-1.5,2.2-3.2,4.3-4.6,6.4c-0.4,0.7-0.8,1.5-1.1,2.3s-0.6,1.6-0.8,2.3
					C115.6,244.6,115.5,245.3,115.4,245.4z"/>
				<path class="st9" d="M115.3,244.9c-1.2,1.4-3.4,8.2-3.3,8.9c5.7,0.3,15.4,1.7,21.6,5.8c0.6-2.1,4.3-6.5,4.1-7.4
					C130.9,248.6,122.7,246.2,115.3,244.9z"/>
			</g>
		</g>
	</g>
	<g>
		<path class="st93" d="M266,134.6c-17.4,10.9-32.8,26.3-46.3,41.5c-13.8,15.6-26.1,32.5-35.9,50.9c-0.8,1.5,1.4,2.7,2.2,1.3
			c10.9-17.7,23-34.7,36.8-50.2c13.7-15.4,29.2-28.1,44.7-41.5C268.6,135.6,267.2,133.8,266,134.6L266,134.6z"/>
	</g>
	<g>
		<path class="st93" d="M234.6,116.1c-6.4,3.3-12.1,8.3-17.7,12.8c-6.2,5.1-12.2,10.3-18,15.8c-11.1,10.5-21.6,21.6-30.6,34
			c-1.2,1.7,1.4,3.7,2.9,2.2c10.5-10.8,20.8-21.9,31.7-32.3c5.3-5.1,10.8-10.1,16.3-15c5.7-5,12.1-9.6,17.3-15.1
			C237.7,117.3,236.2,115.3,234.6,116.1L234.6,116.1z"/>
	</g>
	<g>
		<path class="st93" d="M200.9,92c-11.3,7.4-20.3,20.1-28.3,30.7c-9,12-16.6,24.9-23,38.4c-0.7,1.4,1.4,2.6,2.1,1.2
			c6.6-12.7,14.2-25,22.6-36.7c4.3-6,8.8-11.8,13.6-17.3c4.5-5.2,9.7-10.1,13.6-15.8C201.6,92.2,201.2,91.8,200.9,92L200.9,92z"/>
	</g>
	<g>
		<path class="st93" d="M148.2,125.5c-3.9,5.3,5.5,12.7,8.9,15.6c7.2,6.1,14.7,11.8,22.5,17c7.9,5.3,16.1,10,24.5,14.3
			c8.3,4.2,17.1,8.6,26.3,10.2c2.2,0.4,3.6-2.5,1.6-3.7c-7.4-4.3-15.6-7.2-23.3-11c-7.7-3.8-15.3-8-22.6-12.5
			c-7.6-4.7-15-9.8-22-15.3c-3-2.4-6-4.7-8.8-7.4c-2.3-2.3-3.8-5.8-6.6-7.5C148.5,125.2,148.3,125.3,148.2,125.5L148.2,125.5z"/>
	</g>
	<g>
		<path class="st11" d="M17.9,250.7c-0.7,2.5-1.4,4.9-2,7.3c-1.1,3.9-2.2,8-1.6,12.1c0.5,4.1,3,8.1,7,9.2c2.3,0.6,5.3-0.2,6-2.5
			c1.8,0.1,3.8,1.1,5.8,0.1s4-3,0-5c3,1,7-1,6-4c-1-6-5-12-1.2-18.2"/>
		<g>
			<path class="st9" d="M18.2,244c-1.2,2.8-1.2,4.8-2.2,7.8c9-2,26,9,23-6c0-1-6,1-9.4-0.7C25.9,244.9,22,244.5,18.2,244z"/>
		</g>
	</g>
</g>
</svg>
