<?xml version="1.0" encoding="utf-8"?>
<!-- Generator: Adobe Illustrator 21.1.0, SVG Export Plug-In . SVG Version: 6.00 Build 0)  -->
<svg version="1.1" xmlns="http://www.w3.org/2000/svg" xmlns:xlink="http://www.w3.org/1999/xlink" x="0px" y="0px"
	 viewBox="0 0 300 450" style="enable-background:new 0 0 300 450;" xml:space="preserve">
<style type="text/css">
	.st0{fill:#B27E49;}
	.st1{fill:#ECB8FF;}
	.st2{display:none;opacity:0.3;}
	.st3{fill:#F4E44A;}
	.st4{clip-path:url(#SVGID_2_);fill:#F1F3F7;}
	.st5{opacity:0.4;clip-path:url(#SVGID_2_);fill:#DCDDE0;}
	.st6{clip-path:url(#SVGID_2_);fill:#0076B7;}
	.st7{clip-path:url(#SVGID_2_);fill:#FFFFFF;}
	.st8{clip-path:url(#SVGID_2_);}
	.st9{fill:#FFFFFF;}
	.st10{clip-path:url(#SVGID_2_);fill:#F7CFA2;}
	.st11{fill:#F7CFA2;}
	.st12{fill:#F0BA7A;}
	.st13{fill:#601515;}
	.st14{fill:url(#SVGID_3_);}
	.st15{opacity:0.1;fill:#601515;}
	.st16{fill:#F9F9F9;}
	.st17{fill:url(#SVGID_4_);}
	.st18{fill:url(#SVGID_5_);}
	.st19{fill:url(#SVGID_6_);}
	.st20{fill:#EA6D50;}
	.st21{opacity:0.3;fill:#601515;}
	.st22{fill:#5B1010;}
	.st23{opacity:0.6;}
	.st24{fill:#A52323;}
	.st25{opacity:0.2;}
	.st26{fill:url(#SVGID_7_);}
	.st27{fill:#CE6117;}
	.st28{fill:url(#SVGID_8_);}
	.st29{fill:#8454D1;}
	.st30{clip-path:url(#SVGID_10_);fill:#393D47;}
	.st31{clip-path:url(#SVGID_10_);fill:#F0BA7A;}
	.st32{clip-path:url(#SVGID_10_);fill:#F1F3F7;}
	.st33{clip-path:url(#SVGID_10_);fill:#0076B7;}
	.st34{clip-path:url(#SVGID_10_);fill:#004868;}
	.st35{opacity:0.4;clip-path:url(#SVGID_10_);fill:#DCDDE0;}
	.st36{clip-path:url(#SVGID_10_);fill:#FFFFFF;}
	.st37{clip-path:url(#SVGID_10_);}
	.st38{fill:#393D47;}
	.st39{fill:url(#SVGID_11_);}
	.st40{fill:#EAA56C;}
	.st41{clip-path:url(#SVGID_13_);fill:#F1F3F7;}
	.st42{clip-path:url(#SVGID_13_);fill:#F0BA7A;}
	.st43{opacity:0.4;clip-path:url(#SVGID_13_);fill:#DCDDE0;}
	.st44{clip-path:url(#SVGID_13_);fill:#0076B7;}
	.st45{clip-path:url(#SVGID_13_);fill:#FFFFFF;}
	.st46{clip-path:url(#SVGID_13_);}
	.st47{clip-path:url(#SVGID_13_);fill:#F7CFA2;}
	.st48{fill:#F1F3F7;}
	.st49{fill:none;}
	.st50{fill:#A85848;}
	.st51{fill:#E85646;}
	.st52{fill:#EA4E39;}
	.st53{fill:#DCFFC5;}
	.st54{fill:#8BAA77;}
	.st55{clip-path:url(#SVGID_15_);fill:#F1F3F7;}
	.st56{opacity:0.4;clip-path:url(#SVGID_15_);fill:#DCDDE0;}
	.st57{clip-path:url(#SVGID_15_);fill:#0076B7;}
	.st58{clip-path:url(#SVGID_15_);fill:#FFFFFF;}
	.st59{clip-path:url(#SVGID_15_);}
	.st60{fill:#595959;}
	.st61{opacity:0.3;fill:#595959;}
	.st62{clip-path:url(#SVGID_27_);fill:#F1F3F7;}
	.st63{opacity:0.4;clip-path:url(#SVGID_27_);fill:#DCDDE0;}
	.st64{clip-path:url(#SVGID_27_);fill:#0076B7;}
	.st65{clip-path:url(#SVGID_27_);fill:#FFFFFF;}
	.st66{clip-path:url(#SVGID_27_);}
	.st67{clip-path:url(#SVGID_27_);fill:#F7CFA2;}
	.st68{opacity:0.7;fill:#7BCDDB;}
	.st69{fill:none;stroke:#F0BA7A;stroke-width:3;stroke-miterlimit:10;}
	.st70{clip-path:url(#SVGID_41_);fill:#F1F3F7;}
	.st71{opacity:0.4;clip-path:url(#SVGID_41_);fill:#DCDDE0;}
	.st72{clip-path:url(#SVGID_41_);fill:#0076B7;}
	.st73{clip-path:url(#SVGID_41_);fill:#FFFFFF;}
	.st74{clip-path:url(#SVGID_41_);}
	.st75{clip-path:url(#SVGID_41_);fill:#F7CFA2;}
	.st76{fill:#9E9E9E;}
	.st77{fill:#878787;}
	.st78{fill:#DDBD00;}
	.st79{clip-path:url(#SVGID_43_);fill:#F1F3F7;}
	.st80{opacity:0.4;clip-path:url(#SVGID_43_);fill:#DCDDE0;}
	.st81{clip-path:url(#SVGID_43_);fill:#0076B7;}
	.st82{clip-path:url(#SVGID_43_);fill:#FFFFFF;}
	.st83{clip-path:url(#SVGID_43_);}
	.st84{clip-path:url(#SVGID_43_);fill:#F7CFA2;}
	.st85{clip-path:url(#SVGID_45_);}
	.st86{opacity:0.4;fill:#DCDDE0;}
	.st87{fill:#0076B7;}
	.st88{opacity:0.3;}
	.st89{fill:#DCDDE0;}
	.st90{fill:#004868;}
	.st91{fill:#E02B41;}
	.st92{fill:#C69018;}
	.st93{fill:#EFE91B;}
	.st94{fill:#656D60;}
	.st95{clip-path:url(#SVGID_47_);fill:#F0BA7A;}
	.st96{clip-path:url(#SVGID_47_);fill:#F1F3F7;}
	.st97{opacity:0.4;clip-path:url(#SVGID_47_);fill:#DCDDE0;}
	.st98{clip-path:url(#SVGID_47_);fill:#0076B7;}
	.st99{clip-path:url(#SVGID_47_);fill:#FFFFFF;}
	.st100{clip-path:url(#SVGID_47_);}
	.st101{clip-path:url(#SVGID_47_);fill:#F7CFA2;}
	.st102{clip-path:url(#SVGID_49_);fill:#F1F3F7;}
	.st103{clip-path:url(#SVGID_49_);}
	.st104{fill:#B23C18;}
	.st105{fill:#6B2A05;}
	.st106{fill:#B23C18;stroke:#6B2A05;stroke-miterlimit:10;}
	.st107{fill:#DDAA78;}
	.st108{fill:#211205;}
	.st109{fill:none;stroke:#6B2A05;stroke-width:0.729;stroke-miterlimit:10;}
	.st110{fill:#B23C18;stroke:#6B2A05;stroke-width:0.729;stroke-miterlimit:10;}
	.st111{fill:#B72C34;}
	.st112{clip-path:url(#SVGID_51_);fill:#F1F3F7;}
	.st113{clip-path:url(#SVGID_51_);}
	.st114{clip-path:url(#SVGID_51_);fill:#F7CFA2;}
	.st115{fill:#F2C85F;}
	.st116{clip-path:url(#SVGID_53_);fill:#F0BA7A;}
	.st117{clip-path:url(#SVGID_53_);fill:#F1F3F7;}
	.st118{opacity:0.4;clip-path:url(#SVGID_53_);fill:#DCDDE0;}
	.st119{clip-path:url(#SVGID_53_);fill:#0076B7;}
	.st120{clip-path:url(#SVGID_53_);fill:#FFFFFF;}
	.st121{clip-path:url(#SVGID_53_);}
	.st122{clip-path:url(#SVGID_53_);fill:#F7CFA2;}
	.st123{clip-path:url(#SVGID_55_);}
	.st124{fill:#F4F0A6;}
	.st125{fill:#9E921E;}
	.st126{clip-path:url(#SVGID_57_);fill:#F0BA7A;}
	.st127{clip-path:url(#SVGID_57_);fill:#F1F3F7;}
	.st128{clip-path:url(#SVGID_57_);}
	.st129{clip-path:url(#SVGID_57_);fill:#393D47;}
	.st130{clip-path:url(#SVGID_57_);fill:#FFFFFF;}
	.st131{opacity:0.4;clip-path:url(#SVGID_57_);fill:#DCDDE0;}
	.st132{clip-path:url(#SVGID_57_);fill:#0076B7;}
	.st133{fill:#1F74C9;}
	.st134{clip-path:url(#SVGID_59_);}
	.st135{fill:#023142;}
	.st136{clip-path:url(#SVGID_61_);fill:#F7CFA2;}
	.st137{clip-path:url(#SVGID_61_);}
	.st138{opacity:0.3;fill:#E57257;}
	.st139{fill:#777777;}
	.st140{clip-path:url(#SVGID_63_);fill:#F1F3F7;}
	.st141{opacity:0.4;clip-path:url(#SVGID_63_);fill:#DCDDE0;}
	.st142{clip-path:url(#SVGID_63_);fill:#0076B7;}
	.st143{clip-path:url(#SVGID_63_);fill:#FFFFFF;}
	.st144{clip-path:url(#SVGID_63_);}
	.st145{clip-path:url(#SVGID_63_);fill:#F7CFA2;}
	.st146{clip-path:url(#SVGID_65_);fill:#F0BA7A;}
	.st147{clip-path:url(#SVGID_65_);fill:#F1F3F7;}
	.st148{opacity:0.4;clip-path:url(#SVGID_65_);fill:#DCDDE0;}
	.st149{clip-path:url(#SVGID_65_);fill:#0076B7;}
	.st150{clip-path:url(#SVGID_65_);fill:#FFFFFF;}
	.st151{clip-path:url(#SVGID_65_);}
	.st152{clip-path:url(#SVGID_65_);fill:#F7CFA2;}
</style>
<g id="Layer_1">
	<g>
		<defs>
			<path id="SVGID_38_" d="M248,218.6c0,55.1-44.7,99.7-99.7,99.7s-99.7-44.7-99.7-99.7S93.2,52.8,148.3,52.8
				C203.3,52.8,248,163.5,248,218.6z"/>
		</defs>
		<clipPath id="SVGID_2_">
			<use xlink:href="#SVGID_38_"  style="overflow:visible;"/>
		</clipPath>
	</g>
</g>
<g id="Layer_2">
	<g>
		<circle class="st53" cx="149.4" cy="232.5" r="99.7"/>
		<g>
			<defs>
				<path id="SVGID_64_" d="M249.1,232.5c0,55.1-44.7,99.7-99.7,99.7s-99.7-44.7-99.7-99.7S31.4,61.3,161.8,69.8
					C216.8,73.4,249.1,177.4,249.1,232.5z"/>
			</defs>
			<clipPath id="SVGID_3_">
				<use xlink:href="#SVGID_64_"  style="overflow:visible;"/>
			</clipPath>
			<path style="clip-path:url(#SVGID_3_);fill:#F0BA7A;" d="M143.1,267.3l-8.7,0.4c-6.9,0.3-12.8-5.1-13.1-12l-1-22.7
				c-0.3-6.9,5.1-12.8,12-13.1l8.7-0.4c6.9-0.3,12.8,5.1,13.1,12l1,22.7C155.4,261.1,150,267,143.1,267.3z"/>
			<path style="clip-path:url(#SVGID_3_);fill:#F1F3F7;" d="M199.9,273.7c-1.6-13.3-3-22.5-14.5-25.7c-6.9-1.9-21.9-2.3-30.4-1
				l-33.2,5.5c-10.2,1.7-28.5,0.5-35.2,6.1c-8.1,6.8-3.3,21.1-1.9,32.8l10.9,91.8c0.7,5.8,2.7,11,5.7,15.6
				c35.4-3.3,70.8-9.6,106.2-14.4c2.8-6.3,4-13.2,3.2-20.2L199.9,273.7z"/>
			<path style="clip-path:url(#SVGID_3_);fill:#F1F3F7;" d="M96.9,264.9l4.1,0.9c6.9,1,8.4,15.1,3.4,31.3l-7.8,32.2L89,366.8
				c-2.7,8.9-4.2,16.1-8.1,19.7c-3.2,3-8.7,4-11.8,3.6L59,388.6c-2.6-0.4-6.7-2.2-8-4.7c-2.1-4.3-0.1-11.3,3-21.5
				c0,0,14.1-51.2,10.9-38.3c-3.1,12.9,5.5-21,11.5-38.3C82.4,268.4,90,263.9,96.9,264.9z"/>
			<path style="clip-path:url(#SVGID_3_);fill:#F1F3F7;" d="M178.9,248.5l-3.8,1.8c-6.4,2.6-4.6,16.6,4,31.2l15.2,29.5l16.2,34.7
				c4.7,8,7.9,14.6,12.5,17.3c3.8,2.2,9.4,1.8,12.3,0.7l9.5-3.8c2.4-1,6-3.7,6.6-6.5c1.1-4.7-2.6-11-8-20.2c0,0-25.7-46.5-19.6-34.7
				c6.1,11.8-10.3-19.1-20.2-34.6C193.8,248.5,185.3,246,178.9,248.5z"/>
			<polygon style="opacity:0.4;clip-path:url(#SVGID_3_);fill:#DCDDE0;" points="142.7,285.1 138.5,249.7 155,255 			"/>
			<polygon style="opacity:0.4;clip-path:url(#SVGID_3_);fill:#DCDDE0;" points="142.7,285.1 138.5,249.7 123.7,258.7 			"/>
			<polygon style="clip-path:url(#SVGID_3_);fill:#0076B7;" points="150.6,254.1 138.2,250 129.6,258 136.8,266.5 144.8,265.7 			
				"/>
			<polygon style="clip-path:url(#SVGID_3_);fill:#0076B7;" points="164.9,342.6 153.4,358.4 136.7,347.6 136.8,266.5 144.8,265.7 
							"/>
			<polygon style="clip-path:url(#SVGID_3_);fill:#FFFFFF;" points="138.5,249.7 138.6,250.4 155.1,261.3 160.1,247.3 156.4,242 			
				"/>
			<polygon style="clip-path:url(#SVGID_3_);fill:#FFFFFF;" points="138.5,249.7 138.6,250.4 125,264.9 116.9,252.5 119.3,246.4 			
				"/>
			<g style="clip-path:url(#SVGID_3_);">
				<polygon class="st9" points="157.4,304.1 170,310.5 183,304.1 183,285 157.4,285 				"/>
				<rect x="157.4" y="276.9" class="st9" width="25.6" height="6"/>
			</g>
			<path style="clip-path:url(#SVGID_3_);fill:#F7CFA2;" d="M56.4,221.4c0,0.3,0,0.5,0,0.8C56.4,221.9,56.4,221.6,56.4,221.4z"/>
		</g>
		<path class="st11" d="M56.4,220.7c0,0.2,0,0.5,0,0.7C56.4,221.1,56.4,220.9,56.4,220.7z"/>
		<g>
			<path class="st11" d="M176.7,152c0.2-0.1,0.5-0.2,0.7-0.4C177.2,151.8,176.9,151.9,176.7,152z"/>
			<path class="st11" d="M176.1,152.3c0.2-0.1,0.4-0.2,0.6-0.3C176.5,152.1,176.3,152.2,176.1,152.3z"/>
			<path class="st11" d="M174.3,154.4c-0.1,0.9-0.3,2.6,0.4,3.3l2.7-6.1c-0.2,0.1-0.5,0.3-0.7,0.4c-0.2,0.1-0.4,0.2-0.6,0.3
				C175.2,152.8,174.5,153.3,174.3,154.4z"/>
			<path class="st12" d="M137.4,194.6l-9,2.9c-8.8,2.8-18.4-2.1-21.3-10.9l-8.7-27.2c-2.8-8.8,2.1-18.4,10.9-21.3l9-2.9
				c8.8-2.8,18.4,2.1,21.3,10.9l8.7,27.2C151.1,182.2,146.2,191.8,137.4,194.6z"/>
			<ellipse transform="matrix(0.952 -0.306 0.306 0.952 -53.3087 27.9615)" class="st11" cx="62.5" cy="184" rx="16.8" ry="16.8"/>
			<ellipse transform="matrix(0.952 -0.306 0.306 0.952 -53.3087 27.9615)" class="st12" cx="62.5" cy="184" rx="11.1" ry="11.1"/>
			
				<ellipse transform="matrix(0.952 -0.306 0.306 0.952 -34.3081 65.6968)" class="st11" cx="192.4" cy="142.3" rx="16.8" ry="16.8"/>
			
				<ellipse transform="matrix(0.952 -0.306 0.306 0.952 -34.3081 65.6968)" class="st12" cx="192.4" cy="142.3" rx="11.1" ry="11.1"/>
			<path class="st11" d="M188.8,127.9c-14.2-75.9-46.9-44.5-83.3-32.8c-36.4,11.7-58.2,45.4-48.6,75.2c2.1,6.7,10,31.2,12.2,37.9
				c9.6,29.8,60.8,40,83.3,32.8c19.9-6.4,58.2-45.4,48.6-75.2C198.9,159.1,190.1,134.8,188.8,127.9z"/>
			<path class="st13" d="M160.4,119.4c-2.1-1.1,0.1-5.2,0.1-5.2c9-4.6,15.6,10.7,23.6,2.9c2.7-2.6-1-8.4-2.5-13.1
				c7,8.8,7.2,0,12-4.7c-1.1-5.4-2-10-2.8-12.5c-11.4-35.6-49.3-47.8-84.9-36.3c-34.7,11.2-47.1,39-37.5,73.8
				c24.2-17.9,46.6-10.3,69.6,0.2C145.4,121.9,152.7,121.9,160.4,119.4z"/>
			<path class="st13" d="M99.1,86.4c0.4-1-0.2-2-1.2-2.3c0,0,0,0,0,0c-24.7-7.4-50.8,6.7-58.2,31.4c-5.1,17.1,0,34.8,11.8,46.5
				c0.8,0.8,2,0.7,2.7-0.2C72.3,138.6,89.1,113.7,99.1,86.4z"/>
			<g>
				<path class="st15" d="M181.7,145.4c4.3,13.3,1.8,25.9-11.4,30.2s-25-3.8-29.3-17.1s0.6-26.7,13.9-30.9
					C168.1,123.3,177.4,132.2,181.7,145.4z"/>
				
					<ellipse transform="matrix(0.952 -0.306 0.306 0.952 -39.0762 56.8462)" class="st9" cx="161.8" cy="153.1" rx="21.9" ry="21.9"/>
				<g>
					
						<ellipse transform="matrix(0.952 -0.306 0.306 0.952 -41.3157 59.645)" class="st13" cx="169.6" cy="161.6" rx="10.5" ry="10.5"/>
					<ellipse transform="matrix(0.952 -0.306 0.306 0.952 -41.3157 59.645)" cx="169.6" cy="161.6" rx="4.1" ry="4.1"/>
					<ellipse transform="matrix(0.952 -0.306 0.306 0.952 -40.3638 58.2541)" class="st16" cx="165.6" cy="157.9" rx="3" ry="3"/>
				</g>
			</g>
			<g>
				<path class="st15" d="M72.8,180.4c4.3,13.3,13.6,22.1,26.9,17.9s18.1-17.7,13.9-30.9s-16-21.3-29.3-17.1
					C70.9,154.6,68.5,167.2,72.8,180.4z"/>
				
					<ellipse transform="matrix(0.952 -0.306 0.306 0.952 -49.0862 36.9659)" class="st9" cx="93.4" cy="175.1" rx="21.9" ry="21.9"/>
				<g>
					
						<ellipse transform="matrix(0.952 -0.306 0.306 0.952 -49.8305 40.2176)" class="st13" cx="103.4" cy="179.1" rx="10.5" ry="10.5"/>
					<ellipse transform="matrix(0.952 -0.306 0.306 0.952 -49.8305 40.2176)" cx="103.4" cy="179.1" rx="4.1" ry="4.1"/>
					<ellipse transform="matrix(0.952 -0.306 0.306 0.952 -48.8589 38.8661)" class="st16" cx="99.5" cy="175.3" rx="3" ry="3"/>
				</g>
			</g>
			<path class="st20" d="M168.5,204.2c-7.4,20.4-32.4,29.4-49.4,16.4c15,1,31-3,43.3-12.1C166.3,206,168.5,204.2,168.5,204.2z"/>
			<path class="st12" d="M139,200.5L139,200.5c-5.3,1.7-10.9-1.2-12.6-6.5l-11.1-34.5c-1.7-5.3,1.2-10.9,6.5-12.6l0,0
				c5.3-1.7,10.9,1.2,12.6,6.5l11.1,34.5C147.1,193.1,144.2,198.8,139,200.5z"/>
			<path class="st11" d="M135.2,195.4L135.2,195.4c-5.3,1.7-10.9-1.2-12.6-6.5l-11.1-34.5c-1.7-5.3,1.2-10.9,6.5-12.6h0
				c5.3-1.7,10.9,1.2,12.6,6.5l11.1,34.5C143.4,188,140.5,193.7,135.2,195.4z"/>
			<path class="st13" d="M64.7,124.4c0,0,19.5,2.1,29.4,4.9c13.7,3.8,37.9-3,37.9-3s-24.8-17.8-37.5-17.5S64.7,124.4,64.7,124.4z"/>
			<path class="st13" d="M47.5,94.4c0,0,6.8-2.5,10.4-3.2c5.1-1,12-7.1,12-7.1s-11-1.8-15.1,0.4S47.5,94.4,47.5,94.4z"/>
			<path class="st13" d="M70.8,63.6c0,0,0.2,7.2,0.9,10.9c1,5.1-2.2,13.7-2.2,13.7s-5.7-9.6-5.2-14.2C64.7,69.4,70.8,63.6,70.8,63.6
				z"/>
			<ellipse transform="matrix(0.952 -0.306 0.306 0.952 -57.7776 36.462)" class="st12" cx="87.4" cy="202.5" rx="2.5" ry="1.3"/>
			<ellipse transform="matrix(0.952 -0.306 0.306 0.952 -56.3916 39.2146)" class="st12" cx="96.9" cy="199.5" rx="2.5" ry="1.3"/>
			<ellipse transform="matrix(0.952 -0.306 0.306 0.952 -58.4609 38.5313)" class="st12" cx="93.7" cy="205.7" rx="2.5" ry="1.3"/>
			<ellipse transform="matrix(0.952 -0.306 0.306 0.952 -45.3496 61.1441)" class="st12" cx="172.4" cy="175.2" rx="2.5" ry="1.3"/>
			<ellipse transform="matrix(0.952 -0.306 0.306 0.952 -43.9636 63.8968)" class="st12" cx="181.8" cy="172.2" rx="2.5" ry="1.3"/>
			<ellipse transform="matrix(0.952 -0.306 0.306 0.952 -46.0329 63.2135)" class="st12" cx="178.6" cy="178.4" rx="2.5" ry="1.3"/>
			<path class="st21" d="M49.1,145l18.6,55l3.7-6.5l-6.6-34.7c0,0,1.4-24.3,10.8-32s30.3-15.8,30.3-15.8l-20.6-3.2L49.1,145z"/>
			<path class="st21" d="M181.9,99.4l13.3,51.8l-3.6,3.7l-14.8-32.1c0,0-15.3-18.9-27.4-19.8c-12.2-0.8-33.8,4.8-33.8,4.8l14.9-14.6
				L181.9,99.4z"/>
			<path class="st22" d="M145.6,148.9c6.5-11.3,33.2-21,25.5-28.3c-6.5-9-35,9.9-36,26.9c0.8,6.2,4,6.1,5.9,6.6
				C142.6,153,144.3,151.2,145.6,148.9z"/>
			<path class="st22" d="M77.1,155.1c15.4,4.3,26,9.5,41,8.5c2,0,4-1,5-3c1-8-6.4-7.6-12.4-10.6c-12-4-23.6-6.4-36.6-4.4
				c-2,0-3,2-2.6,3.8C70.5,152.8,72.9,155.4,77.1,155.1z"/>
			<g class="st23">
				<path class="st11" d="M99.1,64.8c4.9,0,9.5-2.5,14.2-3.7c5.1-1.2,10.4-0.4,15.5-1.6c0.8-0.2,0.6-1.4-0.2-1.4
					c-4.9,0.2-10-0.4-14.9,0.7c-4.7,1.1-10.8,2.7-14.7,5.5C98.8,64.5,98.8,64.8,99.1,64.8L99.1,64.8z"/>
			</g>
		</g>
		<g>
			<path class="st48" d="M105.8,250.5c-9.7-4.8-24.7-3.8-31.6,6.1c-1.1,1.5-1.9,3.3-2.4,5.1c-0.5,1.9-0.8,3.9-0.6,6
				c0.1,1.4,0.2,2.8,0.4,4.3c0.8,5.7,2.5,11.2,4.8,16c10.3,20.5,30.7,31.5,51.2,42.5c7.9,3.4,39,7.4,39.9,1.2
				c2.4-15.8-22.1-37.6-42.5-58c-0.9-0.9-1.8-1.9-2.7-2.8c-6-5.2-9-12.2-14.2-16.9C107.1,252.8,106.4,251.6,105.8,250.5z"/>
			<g>
				<path class="st11" d="M263.9,358.3c0,0-0.5-0.4-1.3-0.9C256,349.9,247,343.9,238,338c-2-1.1-3.9-2.2-5.9-3.2
					c-1-0.8-2-1.6-2.9-2.3c-1-0.8-2-1.6-2.9-2.3c-0.7-0.6-1.5-1.3-2.2-1.9c-4.5-3.7-9.4-6.7-15.5-8.7c-2-1.4-3.2-2.3-3.2-2.3
					l-3.5-3.1c-0.3-0.2-0.6-0.4-0.9-0.5c-7.1-5.6-18.9-13.2-27.3-6.5c-3.6,2.2-6.5,5.6-6.5,9.7c-0.1,0.7-0.1,1.5-0.2,2.2
					c0,4.5,1.7,8.2,3.9,11.6c0.4,0.7,0.9,1.4,1.4,2.1c1.7,1.8,3.5,3.7,5.2,5.5c0.3,0.4,0.7,0.7,1,1.1c6.5,2.4,7.5,7.4,8.4,13.2
					c0.2,0.4,0.4,0.7,0.6,1.1c1.2,1.6,2.9,2.6,5.4,2.1c-2,1,0,3-1,4.6c0.1,0.4,0.2,0.8,0.4,1.2c0.6,1.2,1.6,2.2,2.8,2.8
					c0.5,0.2,1,0.3,1.6,0.4c1.1,0.2,2.2,0.3,3.3,0.4c0.4,0.1,0.8,0.1,1.2,0.2c1.9,0.6,3.3,0.8,4.6,0.6c0.6-0.1,1.3-0.3,1.9-0.6
					c4.4-1,6.2-2.5,8.3-6.5c0.5-0.6,1-1.2,1.5-1.8c1.9-2.4,3.5-5.2,4.6-8.1c-0.2-0.1-0.2-1.1-0.2-1.1c2.6,0.4,5.1,0.9,7.6,1.5
					c11.4,2.5,20.4,9.5,30.4,15.5c0.9,0.1,1.8,0.2,2.5,0c0.8-0.2,1.5-0.5,1.9-1.1l0.5-0.7C266.9,360.7,265,359.4,263.9,358.3z"/>
				<path class="st48" d="M163.4,293c-4.3-2.3-7.3-6.3-11.2-7.3c-1.4-0.6-2.9-1.3-4.4-1.9c-5.9-2.4-12-4.7-18.3-7.3
					c-1.7-0.6-3.4-1.3-5.1-2c-11.8-4.6-23-9-36-2.3c-1,1-1.6,2.3-2,3.9c-1.6,6.4,1.2,16.5,6,21.7c7.8,6.9,17.4,14.8,27.2,21.8
					c1.6,1.2,3.3,2.3,4.9,3.4c9.4,6.6,25.4,14.6,34.5,3.7c1.1-1.2,2.3-2.5,3.3-3.8c5.3-6.9,8.8-15.9,4.8-24.5
					C166,295.6,165.8,295.1,163.4,293z"/>
				<path class="st9" d="M165,294.8c-1.3-1.7-2.8-3.2-4.4-4.6c-1.3-1.2-2.6-2.2-4-3.2c-1.4-1-2.8-1.9-4.3-2.7
					c-5.4-1.9-11-3.6-16.4-5.5c-1.8-0.6-3.6-1.3-5.4-2c-10.1-4.8-22.1-9.8-27.1-20.8c2,13,14,19,24.1,23.5c1.9,0.7,3.8,1.4,5.8,2.1
					c5.8,2,11.8,3.6,17.2,5.4c1.8,0.8,3.6,1.6,5.4,2.5c1.7,0.9,3.5,1.8,5.1,2.9C163.2,293.8,164.6,294.7,165,294.8z"/>
			</g>
		</g>
		<ellipse class="st124" cx="226.1" cy="266.3" rx="51.1" ry="42"/>
		<polyline class="st124" points="180.6,251.9 175.8,227.8 189.6,242.7 269.3,243.7 		"/>
		<g>
			<path class="st12" d="M181.9,305.5c20.2,10.9,40.2,21.6,58.8,35.1c4.5,3.3,9.1,6.7,13.6,10.1c2.5,1.9,5.1,3.7,7.6,5.7
				c3.4,2.7,5.8,9-3.3,6.4c-5.8-1.7-11.7-5.9-17.1-8.7c-6.1-3.1-12.2-6.3-18.3-9.4c-0.4-0.2-3.1,0.3-2.6,1
				c3.9,6.3-6.1,17.4-11.6,19.5c-3.4,1.3-9.3,0.7-12.9-0.4c-7.2-2.2-2.2-6.9,1-10.1c0.8-0.8-1.2-0.7-1.5-0.6c-4.5,1.3-9.2,0.5-8-4.8
				c0.3-1.1,1-1.7,0.8-3c-0.4-2.8-4.1-4.9-6-6.6c-5.7-4.9-11.4-9.7-14.1-16.9c-0.3-0.9-3.2,0-2.9,0.8c1.6,4.2,4,7.7,7.2,10.9
				c3.4,3.5,8,6.1,11.1,9.8c0.9,1.1,1.8,2.5,1.7,4c-0.1,1-1,1.9-1.1,2.9c-0.1,1.7,0.7,2.9,2,3.9c2.8,2,6.6,1,9.6,0.2
				c-0.5-0.2-1-0.4-1.5-0.6c-2.1,2.1-8,7.8-4,10.6c1.9,1.4,5.9,1.3,8.2,1.6c2.9,0.4,6.2,0.9,9.1,0.5c4.6-0.7,7.7-4.4,10.6-7.7
				c3.4-3.9,8.5-9.3,5.2-14.7c-0.9,0.3-1.7,0.7-2.6,1c7.6,3.9,15.1,7.8,22.7,11.6c5.4,2.8,12.1,8,18.5,7.9c2.6,0,5.7-1.2,6.2-4.1
				c0.3-2.2-1.2-4.1-2.7-5.5c-2.9-2.7-6.6-4.9-9.8-7.3c-10.7-8-21.4-16-32.7-23c-12.5-7.8-25.7-14.4-38.6-21.3
				C183.5,303.8,180.8,304.9,181.9,305.5L181.9,305.5z"/>
		</g>
	</g>
	<path class="st9" d="M168.2,294.1c4.2,1,18.8,9.4,19.8,10.5c-7.2,5.8-19.5,21-20.7,33.3c-4.5-2.7-15.5-9.5-16.7-11
		C153.4,314.7,160.4,303.2,168.2,294.1z"/>
</g>
</svg>
