<?xml version="1.0" encoding="utf-8"?>
<!-- Generator: Adobe Illustrator 21.1.0, SVG Export Plug-In . SVG Version: 6.00 Build 0)  -->
<svg version="1.1" xmlns="http://www.w3.org/2000/svg" xmlns:xlink="http://www.w3.org/1999/xlink" x="0px" y="0px"
	 viewBox="0 0 300 450" style="enable-background:new 0 0 300 450;" xml:space="preserve">
<style type="text/css">
	.st0{fill:#B27E49;}
	.st1{fill:#ECB8FF;}
	.st2{display:none;opacity:0.3;}
	.st3{fill:#F4E44A;}
	.st4{clip-path:url(#SVGID_2_);fill:#F1F3F7;}
	.st5{opacity:0.4;clip-path:url(#SVGID_2_);fill:#DCDDE0;}
	.st6{clip-path:url(#SVGID_2_);fill:#0076B7;}
	.st7{clip-path:url(#SVGID_2_);fill:#FFFFFF;}
	.st8{clip-path:url(#SVGID_2_);}
	.st9{fill:#FFFFFF;}
	.st10{clip-path:url(#SVGID_2_);fill:#F7CFA2;}
	.st11{fill:#F7CFA2;}
	.st12{fill:#F0BA7A;}
	.st13{fill:#601515;}
	.st14{fill:url(#SVGID_3_);}
	.st15{opacity:0.1;fill:#601515;}
	.st16{fill:#F9F9F9;}
	.st17{fill:url(#SVGID_4_);}
	.st18{fill:url(#SVGID_5_);}
	.st19{fill:url(#SVGID_6_);}
	.st20{fill:#EA6D50;}
	.st21{opacity:0.3;fill:#601515;}
	.st22{fill:#5B1010;}
	.st23{opacity:0.6;}
	.st24{fill:#A52323;}
	.st25{opacity:0.2;}
	.st26{fill:url(#SVGID_7_);}
	.st27{fill:#CE6117;}
	.st28{fill:url(#SVGID_8_);}
	.st29{fill:#8454D1;}
	.st30{clip-path:url(#SVGID_10_);fill:#393D47;}
	.st31{clip-path:url(#SVGID_10_);fill:#F0BA7A;}
	.st32{clip-path:url(#SVGID_10_);fill:#F1F3F7;}
	.st33{clip-path:url(#SVGID_10_);fill:#0076B7;}
	.st34{clip-path:url(#SVGID_10_);fill:#004868;}
	.st35{opacity:0.4;clip-path:url(#SVGID_10_);fill:#DCDDE0;}
	.st36{clip-path:url(#SVGID_10_);fill:#FFFFFF;}
	.st37{clip-path:url(#SVGID_10_);}
	.st38{fill:#393D47;}
	.st39{fill:url(#SVGID_11_);}
	.st40{fill:#EAA56C;}
	.st41{clip-path:url(#SVGID_13_);fill:#F1F3F7;}
	.st42{clip-path:url(#SVGID_13_);fill:#F0BA7A;}
	.st43{opacity:0.4;clip-path:url(#SVGID_13_);fill:#DCDDE0;}
	.st44{clip-path:url(#SVGID_13_);fill:#0076B7;}
	.st45{clip-path:url(#SVGID_13_);fill:#FFFFFF;}
	.st46{clip-path:url(#SVGID_13_);}
	.st47{clip-path:url(#SVGID_13_);fill:#F7CFA2;}
	.st48{fill:#F1F3F7;}
	.st49{fill:none;}
	.st50{fill:#A85848;}
	.st51{fill:#E85646;}
	.st52{fill:#EA4E39;}
	.st53{fill:#DCFFC5;}
	.st54{fill:#8BAA77;}
	.st55{clip-path:url(#SVGID_15_);fill:#F1F3F7;}
	.st56{opacity:0.4;clip-path:url(#SVGID_15_);fill:#DCDDE0;}
	.st57{clip-path:url(#SVGID_15_);fill:#0076B7;}
	.st58{clip-path:url(#SVGID_15_);fill:#FFFFFF;}
	.st59{clip-path:url(#SVGID_15_);}
	.st60{fill:#595959;}
	.st61{opacity:0.3;fill:#595959;}
	.st62{clip-path:url(#SVGID_27_);fill:#F1F3F7;}
	.st63{opacity:0.4;clip-path:url(#SVGID_27_);fill:#DCDDE0;}
	.st64{clip-path:url(#SVGID_27_);fill:#0076B7;}
	.st65{clip-path:url(#SVGID_27_);fill:#FFFFFF;}
	.st66{clip-path:url(#SVGID_27_);}
	.st67{clip-path:url(#SVGID_27_);fill:#F7CFA2;}
	.st68{opacity:0.7;fill:#7BCDDB;}
	.st69{fill:none;stroke:#F0BA7A;stroke-width:3;stroke-miterlimit:10;}
	.st70{clip-path:url(#SVGID_41_);fill:#F1F3F7;}
	.st71{opacity:0.4;clip-path:url(#SVGID_41_);fill:#DCDDE0;}
	.st72{clip-path:url(#SVGID_41_);fill:#0076B7;}
	.st73{clip-path:url(#SVGID_41_);fill:#FFFFFF;}
	.st74{clip-path:url(#SVGID_41_);}
	.st75{clip-path:url(#SVGID_41_);fill:#F7CFA2;}
	.st76{fill:#9E9E9E;}
	.st77{fill:#878787;}
	.st78{fill:#DDBD00;}
	.st79{clip-path:url(#SVGID_43_);fill:#F1F3F7;}
	.st80{opacity:0.4;clip-path:url(#SVGID_43_);fill:#DCDDE0;}
	.st81{clip-path:url(#SVGID_43_);fill:#0076B7;}
	.st82{clip-path:url(#SVGID_43_);fill:#FFFFFF;}
	.st83{clip-path:url(#SVGID_43_);}
	.st84{clip-path:url(#SVGID_43_);fill:#F7CFA2;}
	.st85{clip-path:url(#SVGID_45_);}
	.st86{opacity:0.4;fill:#DCDDE0;}
	.st87{fill:#0076B7;}
	.st88{opacity:0.3;}
	.st89{fill:#DCDDE0;}
	.st90{fill:#004868;}
	.st91{fill:#E02B41;}
	.st92{fill:#C69018;}
	.st93{fill:#EFE91B;}
	.st94{fill:#656D60;}
	.st95{clip-path:url(#SVGID_47_);fill:#F0BA7A;}
	.st96{clip-path:url(#SVGID_47_);fill:#F1F3F7;}
	.st97{opacity:0.4;clip-path:url(#SVGID_47_);fill:#DCDDE0;}
	.st98{clip-path:url(#SVGID_47_);fill:#0076B7;}
	.st99{clip-path:url(#SVGID_47_);fill:#FFFFFF;}
	.st100{clip-path:url(#SVGID_47_);}
	.st101{clip-path:url(#SVGID_47_);fill:#F7CFA2;}
	.st102{clip-path:url(#SVGID_49_);fill:#F1F3F7;}
	.st103{clip-path:url(#SVGID_49_);}
	.st104{fill:#B23C18;}
	.st105{fill:#6B2A05;}
	.st106{fill:#B23C18;stroke:#6B2A05;stroke-miterlimit:10;}
	.st107{fill:#DDAA78;}
	.st108{fill:#211205;}
	.st109{fill:none;stroke:#6B2A05;stroke-width:0.729;stroke-miterlimit:10;}
	.st110{fill:#B23C18;stroke:#6B2A05;stroke-width:0.729;stroke-miterlimit:10;}
	.st111{fill:#B72C34;}
	.st112{clip-path:url(#SVGID_51_);fill:#F1F3F7;}
	.st113{clip-path:url(#SVGID_51_);}
	.st114{clip-path:url(#SVGID_51_);fill:#F7CFA2;}
	.st115{fill:#F2C85F;}
	.st116{clip-path:url(#SVGID_53_);fill:#F0BA7A;}
	.st117{clip-path:url(#SVGID_53_);fill:#F1F3F7;}
	.st118{opacity:0.4;clip-path:url(#SVGID_53_);fill:#DCDDE0;}
	.st119{clip-path:url(#SVGID_53_);fill:#0076B7;}
	.st120{clip-path:url(#SVGID_53_);fill:#FFFFFF;}
	.st121{clip-path:url(#SVGID_53_);}
	.st122{clip-path:url(#SVGID_53_);fill:#F7CFA2;}
	.st123{clip-path:url(#SVGID_55_);}
	.st124{fill:#F4F0A6;}
	.st125{fill:#9E921E;}
	.st126{clip-path:url(#SVGID_57_);fill:#F0BA7A;}
	.st127{clip-path:url(#SVGID_57_);fill:#F1F3F7;}
	.st128{clip-path:url(#SVGID_57_);}
	.st129{clip-path:url(#SVGID_57_);fill:#393D47;}
	.st130{clip-path:url(#SVGID_57_);fill:#FFFFFF;}
	.st131{opacity:0.4;clip-path:url(#SVGID_57_);fill:#DCDDE0;}
	.st132{clip-path:url(#SVGID_57_);fill:#0076B7;}
	.st133{fill:#1F74C9;}
	.st134{clip-path:url(#SVGID_59_);}
	.st135{fill:#023142;}
	.st136{clip-path:url(#SVGID_61_);fill:#F7CFA2;}
	.st137{clip-path:url(#SVGID_61_);}
	.st138{opacity:0.3;fill:#E57257;}
	.st139{fill:#777777;}
	.st140{clip-path:url(#SVGID_63_);fill:#F1F3F7;}
	.st141{opacity:0.4;clip-path:url(#SVGID_63_);fill:#DCDDE0;}
	.st142{clip-path:url(#SVGID_63_);fill:#0076B7;}
	.st143{clip-path:url(#SVGID_63_);fill:#FFFFFF;}
	.st144{clip-path:url(#SVGID_63_);}
	.st145{clip-path:url(#SVGID_63_);fill:#F7CFA2;}
	.st146{clip-path:url(#SVGID_65_);fill:#F0BA7A;}
	.st147{clip-path:url(#SVGID_65_);fill:#F1F3F7;}
	.st148{opacity:0.4;clip-path:url(#SVGID_65_);fill:#DCDDE0;}
	.st149{clip-path:url(#SVGID_65_);fill:#0076B7;}
	.st150{clip-path:url(#SVGID_65_);fill:#FFFFFF;}
	.st151{clip-path:url(#SVGID_65_);}
	.st152{clip-path:url(#SVGID_65_);fill:#F7CFA2;}
</style>
<g id="Layer_1">
	<circle class="st29" cx="149.9" cy="217.1" r="99.7"/>
	<g>
		<defs>
			<path id="SVGID_9_" d="M249.4,209.9c4.1,54.9-37.1,102.8-92,106.9c-51.4,3.9-96.6-31.9-105.6-81.5c-0.6-3.4-22.2-13.7-22.4-17.3
				c-2.7-36.3-17.8-102.4,11.8-140.8c15.1-19.7,64.7-22.5,109-22.9C205.3,53.7,245.3,154.9,249.4,209.9z"/>
		</defs>
		<clipPath id="SVGID_2_">
			<use xlink:href="#SVGID_9_"  style="overflow:visible;"/>
		</clipPath>
		<path style="clip-path:url(#SVGID_2_);fill:#393D47;" d="M94.9,88.3c17.6-1.3,34.2,4.1,47.2,14.1c1.4,1.1,2.8,2.3,4.1,3.7
			c2.1,2.5,4,5.2,5.6,8.2c1.5,3.3,2.9,6.8,4,10.5c6,13.8,4,29.8-0.1,43.6c-0.9,3.7-1.9,7.4-3,11.1c-4.4,14.8-10.3,29.4-16.4,43.7
			c-10.2-2.2-17.9-7.3-31.6,1.5c-14.9,9.6-34.7-3.4-49.1,7.1c-0.3-2.1-22.9-50.7-24.3-69.4C28.4,124.3,56.9,91.1,94.9,88.3z"/>
		<path style="clip-path:url(#SVGID_2_);fill:#F0BA7A;" d="M107.2,222.1l-6,1.2c-5,1-9.8-2.3-10.8-7.2l-2.8-14
			c-1-5,2.3-9.8,7.2-10.8l6-1.2c5-1,9.8,2.3,10.8,7.2l2.8,14C115.4,216.2,112.1,221.1,107.2,222.1z"/>
		<path class="st4" d="M83.4,221c1.5-0.6,3-1.1,4.5-1.5c1.2-0.5,2.5-1,3.7-1.5c1.3-0.7,2.6-1.2,3.9-1.5c1.6-0.2,3.3-0.3,5.1-0.4
			c13.3,0.3,29.3,3.3,35.3,16.3c4,11-5,21-9.7,30.4c-0.6,1.6-1.2,3.3-1.5,5c0.1,1.8,0.1,3.6,0.2,5.4s0.2,3.6,0.4,5.5
			c-9.6,4-19,8.6-27.5,14.4c-0.6-0.5-1.3-1.1-2-1.6c-1.1-1.2-2.1-2.5-3.1-3.7c-6.2-7.5-11.5-15.5-15.7-24.5c-0.7-1-1.4-2.1-2-3.3
			c-1.9-3.4-3.4-7.2-5-10.9c-0.7-1.5-1.3-3.1-1.8-4.7C64,233,73.1,225,83.4,221z"/>
		<path class="st6" d="M129,291.9l-6.5,13l-11.4-8.8c0,0-0.2-3.2-0.5-8.2c-0.1-1.7-0.2-3.5-0.3-5.5c-0.7-5.4-0.2-10.7,0.5-15.9
			c0.3-1.8,0.5-3.5,0.8-5.3c1.3-10.7,1.3-21.7-3.7-31.7c0-1,3.5-2.5,4.5-2.5c5.3,4.9,9.5,11.5,10.5,18.5c0,6,2,11,0.4,16.6
			c-0.1,1.4-0.1,2.8-0.1,4.2c0,4.2,0.6,8.4,2.3,12.7c0.5,1.9,1,3.6,1.4,5.2C128.2,288.9,129,291.9,129,291.9z"/>
		<path class="st6" d="M112.5,219.6c-1.6-1.2-3.6-3.2-5.6-3.2c-2.8,2.2-4.8,8.4-4.8,8.4s4.5,2.8,5.8,4.6c2-2,4.6-2.3,4.6-2.3
			L112.5,219.6z"/>
		<path style="clip-path:url(#SVGID_2_);fill:#004868;" d="M81.1,246.6c1.2-0.8,2.5-1.5,3.6-2.4c2.3-2,3.4-5,4-7.9
			c0.8-3.9,1.7-8.5,0.7-12.5c-0.2-1-0.6-2-0.4-3c0.3-1.9,8.2-3.8,8.3-3.5c0.6,2.1,1.4,4.2,2.4,6.2c0.5,1,1,2,1.6,2.9
			c2.6,3.9,5.6,8.9,11.9,10.3c1.4,0.3,2.8,0.5,4.2,0.5c1.4,0.1,2.9,0.1,4.4,0.1c0.9,1.7,11,8.6,11.1,10.5c0.5,29.5,1.5,55.5,5.5,85
			c-6.7,2-23.6-3.3-30.6-1.4c-1.4,0.4-2.8,0.7-4.3,1.1c-0.3-1.7-0.6-3.4-0.9-5c-0.7-2.1-0.7-4.1-0.7-4.1
			c-7.5-4.1-25.5,16.2-27.6,9.5c-0.4-1.4-0.8-2.7-1.1-4.2c0.1-6.4,7.9-43.5,5.6-49.3c-2.8-7-2.5-9.8-3.4-17.4
			c-0.7-5.4,0.1-11.2,4.7-14.7C80.4,247.1,80.7,246.9,81.1,246.6z"/>
		<path style="clip-path:url(#SVGID_2_);fill:#F0BA7A;" d="M204.7,232.9l-3.5-1.6c-5.1-2.4-7.3-8.6-4.9-13.7l10.3-21.7
			c2.4-5.1,8.6-7.3,13.7-4.9l3.5,1.6c5.1,2.4,7.3,8.6,4.9,13.7l-10.3,21.7C216,233.2,209.8,235.4,204.7,232.9z"/>
		<path class="st4" d="M240.8,237.3c3.8-17.3-18.3-23.3-32.7-19.3c-3.2,0.5-6.1,1-8.8,1.4c-3,0.4-6.9,1.3-10.5,2.5
			c-3.6,1.1-7,2.5-9,4c-4.9,3.6-4.4,8.2-4.6,14.7l-2.3,54c-0.2,3.6-0.7,26.3,0.5,29.4c21.5,2.4,46.8-16.2,73.3-14.3
			c1.3-2,2.4-4.3,3-6.6c0.7-2.3,1-4.8,1-7.4c0.4-18.7-7-36.5-9.4-53.9C241,239,240.8,237.3,240.8,237.3z"/>
		<path class="st4" d="M229.1,219.9l-2.8,0.8c-4.7,1.1-5.4,9.7-1.5,19.4l6.7,20.5l7.2,25.8c2.5,6.4,4,11.7,7.3,14.6
			c2.8,2.4,7.3,3.3,9.9,3.1l8.6-0.7c2.2-0.2,5.7-1.4,6.7-3.4c1.6-3.3-0.7-8.7-4.1-16.4c0,0-14.6-36-11.4-27.4
			c3.3,8.9-5.5-13.9-10.8-24.9C239.6,220.9,233.9,218.8,229.1,219.9z"/>
		<polygon class="st5" points="209.4,238.9 209.7,218 219.6,221.2 		"/>
		<polygon class="st5" points="209.4,238.9 209.7,218 200,223.1 		"/>
		<polygon class="st6" points="217.1,221.4 210.4,217.5 203.7,220.9 206.3,226.5 211.3,227.2 		"/>
		<polygon class="st6" points="223.6,274.7 215.7,284.8 205,277.5 206.6,227.9 211.5,227 		"/>
		<polygon class="st7" points="210.7,216.9 210.6,217.3 219,226.3 225.4,218.8 224.1,215.1 		"/>
		<polygon class="st7" points="210.7,216.9 210.6,217.3 198.1,223.7 195.4,215.3 198.2,212.2 		"/>
		<g class="st8">
			<polygon class="st9" points="227.4,251.1 235.4,250.6 239.5,244.5 236.7,236.2 223.7,239.5 			"/>
			<polygon class="st9" points="235.6,232.8 222.2,234.7 223.3,238.3 236.4,235.3 			"/>
		</g>
		<path class="st7" d="M107.2,215.8l0.1,0.5c0,0-4.6,13-11.9,10.5c-7.4-2.6-7.5-7.8-7.5-7.8l2-5.1L107.2,215.8z"/>
		<path style="clip-path:url(#SVGID_2_);fill:#004868;" d="M119.2,218.8c0,0,6.5,7.2,5,12.7s-3.8,7.2-3.8,7.2l-15.5,6.8l-0.2,26.5
			l28-13.2c0,0,1.2-8.7,0.2-20.3c-1-11.7-7-16.7-7-16.7L119.2,218.8z"/>
	</g>
	<path class="st9" d="M111.6,216.5c1,2.4,1.9,5.4,2.7,7.4c0.8,1,2.2,2.1,2.9,1.2c2-2.8,2.4-9.7-0.6-12.9c-0.7,0-2.1,0.9-2.5,2.2
		C112.8,215.5,111.6,216.5,111.6,216.5z"/>
	<path class="st11" d="M143.5,149.1c-1.7-22-21.7-38.5-44.7-36.7c-19.2,1.4-31.5,13.7-34.1,30.5c-0.3,1.7-0.4,3.4-0.4,5.2
		c1.8,5.8,2.3,12.1,2.7,18.5c0.1,1.6,0.2,3.2,0.3,4.8c-1,8.6,0.9,16,4.7,22.1c1,1.5,2,3,3.2,4.4c1.9,2.3,4,4.5,6.4,6.4
		c1.2,1,2.4,1.9,3.6,2.7c11.6,9.5,26.6,10.5,41.1,9.4c1.7,0,3.4-0.1,5.1-0.4c11.5-1.3,23.3-8.1,26.4-19.6c1-3,1-7,0-10
		c-2-7-7-13-10.3-19.4c-0.7-1.5-1.5-3-2.3-4.4c-0.4-1.4-0.7-2.9-0.9-4.4c-0.2-1.5-0.3-3-0.3-4.6
		C143.7,151.7,143.6,150.1,143.5,149.1z"/>
	<path class="st12" d="M152,177.9L152,177.9c-2.6,1.5-6.1,0.6-7.6-2c0,0-0.3-0.5-0.7-1.3c-0.4-0.9-0.8-1.8-1.3-2.7
		c-3.5-8.4-18.4-21.6-9-24c8.4-2.6,11.3,14.7,19.9,21.2c0.5,0.8,0.8,1.3,0.8,1.3C155.6,172.9,154.6,176.4,152,177.9z"/>
	<path class="st11" d="M149.4,175.6L149.4,175.6c-1.3,0.8-2.8,0.9-4.2,0.5s-2.6-1.3-3.4-2.6c-0.6-1.1-1.3-2.2-2-3.2
		c-4.8-7.1-17.3-23.7-8.1-25.1s9.7,16.6,19.6,22.8c0.9,1.3,1,2.8,0.7,4.2C151.6,173.6,150.7,174.8,149.4,175.6z"/>
	<path class="st38" d="M104,124.5c0.6-0.5,0.6-1.3,0.2-1.8c0,0,0,0,0,0c-12.2-13.6-33-14.7-46.6-2.5c-9.4,8.4-12.8,20.9-10,32.4
		c0.2,0.7,1,1.2,1.7,0.9C68.7,146,87.9,137.2,104,124.5z"/>
	<path class="st38" d="M136.9,121.1c0.7-0.1,1.2-0.9,1-1.6c0,0,0,0,0,0c-4.7-17.6-22.7-28.1-40.3-23.4
		c-12.2,3.2-20.9,12.8-23.6,24.2c-0.2,0.7,0.3,1.5,1.1,1.6C95.7,124.2,116.8,125.2,136.9,121.1z"/>
	<g>
		<path class="st15" d="M138.5,160.8c0.8,8.9-1.8,16.3-9,16.9s-12.4-6.3-13.2-15.2c-0.8-8.9,3.1-16.4,10.4-17
			C133.9,145,137.8,152,138.5,160.8z"/>
		<path class="st9" d="M138.9,161.6c0.7,7.7-3.9,14.4-10.1,14.8s-11.9-5.4-12.6-13.1c-0.7-7.7,3.9-14.4,10.1-14.8
			C132.6,148,138.2,153.9,138.9,161.6z"/>
		<path class="st13" d="M139,161.6c0.3,3.7-1.8,6.9-4.9,7.1c-3,0.2-5.7-2.6-6-6.3c-0.3-3.7,1.8-6.9,4.9-7.1S138.6,157.9,139,161.6z"
			/>
		<path d="M135.6,161.8c0.1,1.4-0.7,2.7-1.9,2.7s-2.2-1-2.3-2.4c-0.1-1.4,0.7-2.7,1.9-2.7S135.5,160.4,135.6,161.8z"/>
		<path class="st16" d="M133.4,158.9c0.1,1.1-0.5,2-1.4,2c-0.9,0.1-1.6-0.7-1.7-1.8c-0.1-1.1,0.5-2,1.4-2
			C132.6,157.1,133.4,157.9,133.4,158.9z"/>
		<path class="st11" d="M138.3,158.3c-1.8-6-6.6-10.2-12-9.8c-5.3,0.4-9.4,5.3-10.1,11.5C123.5,159.4,130.7,158.4,138.3,158.3z"/>
	</g>
	<path class="st38" d="M94.6,116.8l1.5,19.9l37-2.8l0.3-15l3.4,14.7c0,0,5.6,0.5,9.7,0.1c3.5-0.3,12.1,5.5,12.1,5.5L147.5,109
		l-40.6-5.5L94.6,116.8z"/>
	<g class="st23">
		<path class="st11" d="M71,101.8c8.5-3.2,16.6-6,25.7-6.8c1.5-0.1,2.3-2,0.3-1.8c-9.8,0.8-18.1,3.8-27.3,7.2
			C67.9,101.1,69.6,102.3,71,101.8L71,101.8z"/>
	</g>
	<path class="st38" d="M110.3,135.8c0,0-5.8,0.2-12.3,3.1c-5.7,2.5-6,5.1-9.7,13.5c-3.5,8.1-2.3,20.3,2.3,31.3
		c5.8,13.8,15,28.7,15,28.7L68.1,224c0,0-11.8-83.3-12.3-86c-0.5-2.7,40.4-27.2,40.4-27.2l15.5,4.8L110.3,135.8z"/>
	<path class="st11" d="M92.5,147.5c6.3,0.5,11.3,5.4,12.6,11.8c-9.1,0-18.3-0.2-27.2-0.8C79.8,151.7,85.8,147,92.5,147.5z"/>
	<path class="st38" d="M132.8,152.3l-17.6-6c-2.6-0.9-4.1-3.8-3.2-6.5l0.2-0.5c0.9-2.6,3.8-4.1,6.5-3.2l17.6,6
		c2.6,0.9,4.1,3.8,3.2,6.5l-0.2,0.5C138.3,151.8,135.4,153.3,132.8,152.3z"/>
	<path class="st38" d="M47.6,198.5c6.2-18.2-2-66.9-2-67.3c8.5-2.1,46.5-2.2,51.8-0.4c-8.7,14.8-15.1,48.9-21.6,64.6
		C71.6,196,51.9,198.2,47.6,198.5z"/>
	<g>
		<path class="st20" d="M128.6,201.5l-0.5-1.9c2-0.5,3.8-1,5.5-1.5c4.2-1.2,8.1-2.4,13.1-2.9l1-0.1c3.5-0.4,7.1-0.8,10.8,0.5
			c0.4,0.1,1.4,0.5,1.2,1.4c-0.1,0.4-0.5,0.9-1.3,0.9c-0.5,0-0.9-0.3-1-0.6c-3.1-0.9-6.2-0.6-9.5-0.2l-1,0.1
			c-4.8,0.5-8.5,1.6-12.7,2.8C132.4,200.4,130.6,201,128.6,201.5z M158.5,195.8c-0.2,0-0.6,0.2-0.7,0.6c0,0.1-0.1,0.3,0,0.4l1.6-0.2
			C159.3,196.1,158.8,195.8,158.5,195.8C158.5,195.8,158.5,195.8,158.5,195.8z"/>
	</g>
	<g>
		<path class="st13" d="M251.3,103.9c0,0-5.1,1-7.6,2c-3.5,1.3-10,0.1-10,0.1s6.1-5.3,9.4-5.5C246.4,100.3,251.3,103.9,251.3,103.9z
			"/>
		<g>
			<path class="st11" d="M204,114.2c-4.5,16.4-10,32-16.8,47.1c-1.3,2.4-2.6,4.9-3.8,7.3c-1.2,2.4-2.4,4.9-3.6,7.4
				c-0.4,2.4-0.5,4.7,0,7.1c0.5,2.4,1.4,4.7,3,7.1c10.3,18.8,30.5-6.2,48-5.3c2.5,0.6,4.9,1.6,7.1,3c2.5,0.6,5,0.7,7.5,0.6
				c12.5-0.7,24.9-9.7,30-22c5.2-13.3,10.8-25.3,10.7-39.7c0.5-4.4-3.4-9.4-6.5-13.1c-2.3-2.2-4.9-4.2-7.6-6.1
				c-2.8-1.8-5.7-3.4-8.6-4.7c-2.9-1.3-6-2.2-9-2.9c-2.5-0.3-5.2-0.7-7.9-1c-12.6-2.1-29.3-5.9-38.4,7.4
				C206.5,108.8,205.1,111.3,204,114.2z"/>
			<path class="st12" d="M184.5,160.5L184.5,160.5c3.4,2,7.9,0.9,9.9-2.5c0,0,0.4-0.6,1-1.7c0.5-1.2,1.1-2.4,1.7-3.5
				c4.7-10.8,24.4-27.8,12.2-31.1c-10.8-3.6-14.9,18.9-26.3,27.2c-0.6,1-1,1.7-1,1.7C179.9,154,181.1,158.5,184.5,160.5z"/>
			<path class="st11" d="M187.9,157.5L187.9,157.5c1.7,1,3.7,1.2,5.5,0.8c1.8-0.5,3.4-1.6,4.4-3.3c0.8-1.5,1.7-2.9,2.7-4.2
				c6.3-9.2,22.9-30.6,11-32.5c-11.9-1.9-13,21.4-25.9,29.3c-1.2,1.7-1.4,3.6-1,5.4C185.1,154.9,186.2,156.5,187.9,157.5z"/>
			<path class="st11" d="M191,142.5c-0.2-0.1-0.3-0.2-0.5-0.3C190.7,142.3,190.8,142.4,191,142.5z"/>
			<path class="st11" d="M191.4,142.8c-0.1-0.1-0.3-0.2-0.4-0.3C191.2,142.6,191.3,142.7,191.4,142.8z"/>
			<path class="st12" d="M216,176l6.2,2.7c6.1,2.7,13.3-0.1,16-6.2l8.3-18.8c2.7-6.1-0.1-13.3-6.2-16l-6.2-2.7
				c-6.1-2.7-13.3,0.1-16,6.2l-8.3,18.8C207,166.1,209.8,173.3,216,176z"/>
			<path class="st11" d="M237.8,102.9c2.6,1.4,5.3,2.8,8,4c25.2,11.1,38.3,36.9,29.2,57.5c-0.3,0.8-0.8,1.9-1.4,3.2s-1.3,2.9-2,4.6
				c-1.2,4.1-2.9,7.7-5,11c-1.1,1.6-2.2,3.2-3.5,4.6c-4.6,6.3-10.2,11-16.4,14.2c-1.6,0.8-3.2,1.5-4.8,2.1
				c-5.6,3.3-11.3,4.8-17.1,5.1c-1.5,0.1-2.9,0.1-4.4,0c-4-0.4-8-0.7-12-1.1c-1.3-0.1-2.7-0.3-4-0.4C195,204,185,205,176.5,199
				c-1.6-1-3.1-2.1-4.4-3.4c-2.5-2.5-4-5.6-3.8-9.4c0.1-1.9,0.6-4,1.6-6.2c6-13,20-16,31-22c2-2,5-4,6.4-7.3
				c0.5-1.2,0.9-2.5,1.1-3.8c1.6-9.5-3.1-22.3,1.6-31C213.6,109,232.8,108.9,237.8,102.9z"/>
			
				<radialGradient id="SVGID_3_" cx="-3991.2188" cy="-171.1693" r="9.5429" gradientTransform="matrix(-1.2327 -4.183053e-02 -3.902906e-02 1.2323 -4666.4482 217.4353)" gradientUnits="userSpaceOnUse">
				<stop  offset="0" style="stop-color:#F0BA7A"/>
				<stop  offset="0.9978" style="stop-color:#F0BA7A;stop-opacity:0"/>
			</radialGradient>
			<path class="st14" d="M268.9,180.9c-5.1,7.5-16.4,9.2-25.3,3.8c-1.3-0.8-2.4-1.7-3.5-2.7c9.1-6.7,17.8-13.8,25.8-21.6
				C271.8,166.2,273.2,174.6,268.9,180.9z"/>
			<path class="st13" d="M207.3,107.9c-5.9,0.8-12.2-1.9-15.8-6.7c-0.4-0.6-0.9-1.4-0.5-2c0.2-0.3,0.5-0.5,0.9-0.7
				c2.5-1.5,4.3-4,6-6.3c7.5-10.3,15.3-22.9,29.9-22.9c9,0,19.5,4.2,27.3,8.7c19.4,11.2,24.4,30.6,15.6,52.8
				c-1.4-1.3-2.8-2.4-4.2-3.4c-10.5-10.4-24.9-13.7-39.3-11.3c-6.8,1.1-13.5,2.9-20.4,2.9c-4.4,0-15.1-1.2-17.3-6.1
				c-0.5-1.1-0.5-3.7-0.5-3.7s5.1,0.9,7.1,0.7C199.8,109.4,203.6,109.1,207.3,107.9z"/>
			<path class="st13" d="M245.6,100.8c10.4-4.7,24-1.7,33,5.1c1.1,0.8,2.1,1.6,3.1,2.4c1.3,1.2,2.4,2.5,3.5,3.8
				c3.2,4.1,5.5,9,6.6,14.5c2.4,12.6-2.6,24.9-12,32.4c-0.6,0.5-1.5,0.3-1.9-0.3c-2.8-4.5-5.5-9.1-8.1-13.7
				c-0.9-1.5-1.7-3.1-2.7-4.5c-1-1.1-2-2.3-3-3.4c-1-1.2-2-2.4-2.9-3.7c-7-7.4-19.5-15.6-16.9-27
				C244.7,104.4,245.1,102.6,245.6,100.8z"/>
			<path class="st13" d="M291.1,112.5c0,0-9.3-1.7-14.2-1.8c-6.8-0.1-17.1-6.6-17.1-6.6s13.9-4.8,19.7-2.9
				C285.3,103.2,291.1,112.5,291.1,112.5z"/>
			<path class="st13" d="M273.5,87.1c0,0-0.7,5.1-1.5,7.7c-1.1,3.6,0.6,10,0.6,10s4.8-6.4,4.8-9.8C277.4,91.7,273.5,87.1,273.5,87.1
				z"/>
			<path class="st21" d="M284.3,149.6l-8.2,13.5l-17.3-11.5L241,173.8l-2.2-4.9l7.4-24.4c0,0,0.8-17.5-5.3-23.8
				c-6.1-6.3-20.5-13.6-20.5-13.6l15-0.7L284.3,149.6z"/>
			<g class="st23">
				<path class="st11" d="M253.3,85.5c-2.1-2.4-6-3.6-8.9-4.8c-3.8-1.6-7.9-1.5-12-2c-0.8-0.1-0.9,1.1-0.2,1.4
					c4.1,1.6,8.5,1.4,12.6,3.1c2.6,1.1,5.4,2.8,8.2,2.8C253.4,86,253.5,85.7,253.3,85.5L253.3,85.5z"/>
			</g>
			<path class="st11" d="M267.1,175.2c-3.7,5.6-11.2,7.1-16.8,3.4c-0.8-0.5-1.5-1.2-2.1-1.8c6.3-5,12.3-10.4,17.9-16.2
				C269.6,164.5,270.2,170.5,267.1,175.2z"/>
			<path class="st12" d="M263.7,172.9c-2.4,3.7-7.4,4.7-11,2.2c-0.5-0.3-0.9-0.6-1.2-1c4.1-3.4,8-7,11.8-10.7
				C265.4,166.1,265.6,169.9,263.7,172.9z"/>
			<g>
				<g>
					<path class="st15" d="M229.9,148.6c-4,9.2-11.4,14.8-20.6,10.8c-9.2-4-11.6-14-7.6-23.2c4-9.2,13.1-14.1,22.3-10
						C233.2,130.2,234,139.4,229.9,148.6z"/>
					
						<ellipse transform="matrix(0.4037 -0.9149 0.9149 0.4037 -2.4139 282.6179)" class="st9" cx="215.6" cy="143.2" rx="15.8" ry="15.8"/>
					<g>
						
							<ellipse transform="matrix(0.4037 -0.9149 0.9149 0.4037 -1.3825 274.5937)" class="st13" cx="210" cy="138.4" rx="7.5" ry="7.5"/>
						<ellipse transform="matrix(0.4037 -0.9149 0.9149 0.4037 -1.3825 274.5937)" cx="210" cy="138.4" rx="2.9" ry="2.9"/>
						
							<ellipse transform="matrix(0.4037 -0.9149 0.9149 0.4037 2.6304 275.9186)" class="st16" cx="213" cy="135.9" rx="2.2" ry="2.2"/>
					</g>
				</g>
				
					<ellipse transform="matrix(0.4037 -0.9149 0.9149 0.4037 -20.7719 288.9049)" class="st12" cx="211.2" cy="160.4" rx="0.9" ry="1.8"/>
				
					<ellipse transform="matrix(0.4037 -0.9149 0.9149 0.4037 -18.6133 298.1148)" class="st12" cx="219.4" cy="163.3" rx="0.9" ry="1.8"/>
				
					<ellipse transform="matrix(0.4037 -0.9149 0.9149 0.4037 -23.1055 294.8854)" class="st12" cx="214.7" cy="165.2" rx="0.9" ry="1.8"/>
			</g>
			<g>
				<path class="st20" d="M190.6,180.3c0.2-2.6-0.5-5-1.1-7.5c-0.6-2.1-1.1-4.4-2.6-6.1c-2-2.5-7.5-3.6-8,0.7
					c-0.1,0.7,0.5,1.2,1,1.4c0.9,0.4,2,0.4,2.8,1c1,0.9,1.5,2.6,2,3.8c1.1,2.7,2.1,5.3,4,7.5C189.4,181.8,190.6,181.2,190.6,180.3
					L190.6,180.3z"/>
			</g>
		</g>
		<path class="st11" d="M222,128.7c4.6,2,7.8,6.1,8.9,10.6c-9.9-1.2-19.6-2.4-29.4-3.1C205.1,128.7,214.2,125.3,222,128.7z"/>
		<path class="st22" d="M227.2,130.6l-21.1,3.1c-3,0.4-5.7-1.6-6.2-4.6l0,0c-0.4-3,1.6-5.7,4.6-6.2l21.1-3.1c3-0.4,5.7,1.6,6.2,4.6
			l0,0C232.2,127.4,230.1,130.2,227.2,130.6z"/>
	</g>
	<path class="st11" d="M79.1,174.3c0.5,6.7,6.3,11.6,13,11.1c1-0.1,1.9-0.3,2.8-0.6c-3-7.5-5.7-15.1-7.7-22.9
		C82.1,163.7,78.7,168.7,79.1,174.3z"/>
	<path class="st12" d="M80.5,174.1c0.3,4.4,4.2,7.7,8.5,7.3c0.5,0,1.1-0.1,1.6-0.3c-1.9-5-3.6-10-5.1-15.1
		C82.3,167.4,80.2,170.6,80.5,174.1z"/>
	<g>
		<defs>
			<path id="SVGID_28_" d="M248,218.6c0,55.1-44.7,99.7-99.7,99.7s-99.7-44.7-99.7-99.7S93.2,52.8,148.3,52.8
				C203.3,52.8,248,163.5,248,218.6z"/>
		</defs>
		<clipPath id="SVGID_4_">
			<use xlink:href="#SVGID_28_"  style="overflow:visible;"/>
		</clipPath>
	</g>
</g>
<g id="Layer_2">
	<path class="st11" d="M106.2,249.3c-2.5-0.5-5-0.9-7.5-1.4c-4-0.8-8.2-1.5-12.2-0.7c-4,0.8-7.9,3.7-8.6,7.7c-0.4,2.4,0.6,5.3,3,5.8
		c0.2,1.4,0,2.7,0.1,4.1c0.1,1.4,0.7,2.8,1.9,3.4c1.2,0.6,3.1-0.2,3-1.6c-0.8,1.6-0.3,3.7,1,4.9c1.3,1.2,3.5,1.4,5,0.4
		c1-0.6,1.8-1.7,2.7-2.5c2.9-2.3,7.1-1.2,10.6,0"/>
	<g>
		<path class="st48" d="M133.2,231.1c17.6-0.2,21.8,16.4,13,27c-4.1,6.2-10.2,9.9-18.2,12.9c-1.5,0.5-3.1,0.9-4.7,1.3
			c-1.6,0.4-3.2,0.7-4.8,1.1c-3.7,0.3-17.5-3.9-17.5-7.7c-0.1-6.5,5.2-12,11.8-17.2c1.6-1.3,3.4-2.6,5.1-3.9
			c5.6-3.7,9.5-6.7,14.2-12C132.5,232.1,132.9,231.6,133.2,231.1z"/>
		<g>
			<path class="st48" d="M105.2,244c2-0.4,3.6-2.1,5.3-1.9c0.7-0.1,1.3-0.1,2-0.2c2.7-0.2,5.5-0.2,8.4-0.4c0.8,0,1.6,0,2.3-0.1
				c5.4-0.2,10.6-0.4,15.9,6.2c0.4,0.8,0.6,1.7,0.6,2.7c0.3,4-1.5,9.4-3.9,11.4c-3.8,2.4-8.5,4.9-13.2,7c-0.8,0.3-1.6,0.7-2.4,0.9
				c-4.5,1.9-12,3.2-15.3-5.1c-0.4-0.9-0.8-1.9-1.2-2.9c-1.9-5.1-2.9-11.1-0.7-15.3C103.9,244.9,104,244.7,105.2,244z"/>
			<path class="st9" d="M104.4,244.7c0.7-0.7,1.4-1.3,2.2-1.8c0.6-0.4,1.3-0.7,2-1s1.3-0.5,2-0.7c2.5,0,5,0.2,7.5,0.2
				c0.8,0,1.7,0,2.5,0c4.7-0.7,10.3-1.1,13.1-6.4c-1.6,7.1-7.2,8.1-11.9,8.6c-0.9,0-1.8,0-2.6,0c-2.7-0.1-5.4-0.4-7.8-0.5
				c-0.8,0.1-1.7,0.2-2.5,0.3s-1.6,0.3-2.4,0.6C105.2,244.5,104.6,244.7,104.4,244.7z"/>
			<path class="st9" d="M104.8,244.4c-1.9-0.3-8.8,1.5-9.3,1.9c2.8,4.9,6.8,13.9,6.6,21.3c2.1-0.6,7.8,0.1,8.4-0.5
				C110,259.5,107.7,251.4,104.8,244.4z"/>
		</g>
	</g>
	<g>
		<path class="st48" d="M88.2,226.5c-2-3.4-8.5-5.1-15.4-2c-1.1,0.5-2.1,1.1-3.1,1.8c-1,0.7-1.9,1.5-2.7,2.4
			c-0.6,0.6-1.1,1.2-1.6,1.8c-2,2.5-3.6,5-4.6,7.3c-4.2,10-0.4,17.5,3.4,24.9c1.8,2.5,12.8,8.7,15.7,6.3c7.5-6.2,6.4-18.7,6.5-30.1
			c0-0.5,0-1,0-1.5c-0.3-3,1.4-6.3,1.2-9C87.7,227.7,87.9,227.1,88.2,226.5z"/>
		<g>
			<path class="st48" d="M94.1,252.3c-0.8-1.6-0.4-3.7-1.5-4.6c-0.3-0.5-0.7-0.9-1-1.4c-1.4-1.9-3-3.7-4.4-5.7
				c-0.4-0.5-0.9-1-1.3-1.5c-2.9-3.6-5.7-7-13.7-6.1c-0.8,0.3-1.6,0.7-2.4,1.3c-3.2,2.4-6.3,7-6.5,9.8c0.3,4,1,8.6,2.1,12.9
				c0.2,0.7,0.4,1.4,0.6,2.1c1.1,4.1,4.3,9.7,12.5,6.5c0.9-0.3,1.9-0.7,2.9-1.1c5-2.1,10.1-5.3,12-9.4
				C94.1,253.7,94.2,253.5,94.1,252.3z"/>
			<path class="st9" d="M94,253.3c0.2-0.9,0.2-1.7,0.1-2.5c-0.1-0.7-0.2-1.3-0.3-1.9c-0.2-0.6-0.4-1.2-0.6-1.7
				c-1.4-1.6-3-3.1-4.4-4.7c-0.5-0.5-0.9-1.1-1.4-1.6c-2.1-3.4-5-7.2-2.5-12.5c-4.5,5.7-2.1,9.9,0.2,13.2c0.5,0.6,1,1.1,1.5,1.7
				c1.6,1.6,3.3,3.2,4.8,4.7c0.4,0.6,0.8,1.2,1.2,1.8c0.3,0.6,0.7,1.3,0.9,1.9C93.6,252.6,93.9,253.2,94,253.3z"/>
			<path class="st9" d="M94,252.8c1.3,1,3.8,6.6,3.8,7.2c-5.3,1.4-14.5,4.6-20,9.6c-0.7-1.8-4.5-4.9-4.4-5.7
				C79.5,259.2,87,255.5,94,252.8z"/>
		</g>
		<path class="st11" d="M95.5,259.3c1.1,2.3,2.3,4.5,3.4,6.8c1.8,3.7,3.7,7.4,4,11.5s-1.4,8.6-5.1,10.4c-2.2,1.1-5.3,0.8-6.4-1.3
			c-1.3,0.2-2.6,0.8-4,1c-1.3,0.3-2.9,0.1-3.8-0.9c-0.9-1-0.6-3,0.7-3.3c-1.4,1.2-3.5,1.3-5,0.4c-1.5-1-2.3-3-1.8-4.7
			c0.3-1.2,1.2-2.2,1.6-3.3c1.4-3.4-0.8-7.2-2.9-10.2"/>
	</g>
	<path class="st11" d="M211.8,250.7c3.3-0.2,6.7-0.4,10-0.6c5.4-0.3,10.9-0.7,16,1.1c5.1,1.7,9.7,6.1,10,11.5
		c0.2,3.2-1.7,6.8-4.9,7.1c-0.5,1.7-0.4,3.6-0.8,5.3c-0.4,1.8-1.4,3.6-3.1,4.1c-1.7,0.6-4-0.8-3.7-2.6c0.7,2.2-0.2,4.9-2.1,6.3
		c-1.9,1.3-4.8,1.2-6.6-0.2c-1.3-1-2-2.5-3.2-3.7c-3.4-3.5-9.1-2.7-13.9-1.8"/>
	<g>
		<path class="st48" d="M179.3,226c-23-3.1-31.2,18-21.4,33.2c4.3,8.8,11.8,14.6,21.7,19.8c1.9,0.9,3.9,1.7,5.9,2.5
			c2,0.8,4,1.5,6.1,2.2c4.7,1,23.5-2.3,24.2-7.2c1.2-8.5-4.9-16.5-12.6-24.4c-1.9-2-4-3.9-6-5.9c-6.7-5.7-11.3-10.3-16.7-18
			C180,227.5,179.6,226.7,179.3,226z"/>
		<g>
			<path class="st48" d="M213.9,247.4c-2.6-0.9-4.3-3.4-6.7-3.4c-0.9-0.2-1.7-0.4-2.6-0.5c-3.5-0.7-7.2-1.2-10.9-1.9
				c-1-0.1-2-0.3-3-0.5c-7-1.1-13.8-2.2-21.8,5.6c-0.6,0.9-1,2.1-1.3,3.4c-1.1,5.2,0.4,12.5,3.3,15.5c4.6,3.7,10.3,7.8,16.1,11.2
				c1,0.6,1.9,1.1,2.9,1.6c5.6,3.2,15.1,6.1,20.9-4.2c0.7-1.1,1.4-2.4,2.1-3.6c3.3-6.4,5.6-14.1,3.4-19.9
				C215.4,248.8,215.3,248.5,213.9,247.4z"/>
			<path class="st9" d="M214.8,248.5c-0.8-1.1-1.6-1.9-2.6-2.7c-0.8-0.6-1.6-1.2-2.4-1.6c-0.8-0.5-1.7-0.9-2.6-1.2
				c-3.2-0.4-6.6-0.5-9.9-0.9c-1.1-0.1-2.2-0.3-3.3-0.4c-6.1-1.6-13.2-3-16.1-10.5c1,9.6,8.2,11.8,14.2,13.2
				c1.1,0.2,2.3,0.3,3.5,0.4c3.5,0.3,7.1,0.3,10.3,0.6c1.1,0.2,2.2,0.5,3.2,0.8c1,0.3,2.1,0.7,3,1.2
				C213.7,248.1,214.6,248.5,214.8,248.5z"/>
			<path class="st9" d="M214.3,248c2.5-0.1,11.2,3.4,11.8,4c-4.5,6-11.2,17.1-12.1,26.8c-2.7-1.2-10.2-1.1-11-2
				C205,267,209.4,256.7,214.3,248z"/>
		</g>
	</g>
	<g>
		<path class="st48" d="M238.8,224c5.2-0.3,11.9,5.5,13.5,15.3c0.3,1.5,0.4,3.1,0.3,4.7c0,1.6-0.2,3.2-0.6,4.7
			c-0.2,1-0.5,2.1-0.8,3.1c-1.2,4-2.8,7.6-4.6,10.4c-7.8,12-18.8,13.3-29.8,14.6c-4.1-0.1-18.9-7.7-18.4-12.6
			c1.3-12.7,15.8-20.8,28.2-29.2c0.6-0.4,1.1-0.8,1.7-1.2c3.5-1.9,5.9-6.1,9-7.9C237.8,225.3,238.3,224.7,238.8,224z"/>
		<g>
			<path class="st48" d="M206.2,236.4c2.3-0.3,4.3-2.3,6.2-1.7c0.8,0,1.5,0,2.3,0.1c3.1,0.2,6.2,0.5,9.4,0.7
				c0.9,0.1,1.7,0.2,2.6,0.3c6.1,0.5,11.9,1.1,16.8,10.5c0.3,1.1,0.4,2.3,0.3,3.6c-0.3,5.3-3,12-6,14.3c-4.6,2.6-10.2,5.2-15.7,7.2
				c-0.9,0.3-1.8,0.6-2.8,0.9c-5.3,1.8-13.8,2.4-16.3-9c-0.3-1.3-0.7-2.6-0.9-4c-1.4-7-1.6-15,1.5-20.1
				C204.7,237.5,204.8,237.2,206.2,236.4z"/>
			<path class="st9" d="M205.2,237.3c0.9-0.8,1.8-1.5,2.7-2c0.8-0.4,1.5-0.8,2.3-1c0.8-0.3,1.6-0.4,2.4-0.6c2.8,0.4,5.6,1,8.3,1.4
				c0.9,0.1,1.9,0.3,2.8,0.3c5.3-0.2,11.6,0.1,15.5-6.4c-2.9,9.1-9.3,9.5-14.6,9.5c-1-0.1-2-0.2-2.9-0.4c-2.9-0.5-5.9-1.3-8.7-1.8
				c-0.9,0-1.9,0-2.8,0c-0.9,0.1-1.9,0.2-2.8,0.4C206.2,237.2,205.4,237.4,205.2,237.3z"/>
			<path class="st9" d="M205.7,237c-2.1-0.6-10,0.7-10.6,1.2c2.4,6.8,5.5,19.2,4.2,28.9c2.5-0.5,8.7,1.3,9.5,0.6
				C209.3,257.5,207.9,246.5,205.7,237z"/>
		</g>
		<path class="st11" d="M197.5,240c-3.3,0.4-6.6,0.9-9.9,1.3c-5.3,0.7-10.8,1.4-15.5,4.1c-4.7,2.7-8.4,7.8-7.7,13.2
			c0.4,3.2,3,6.4,6.1,6.1c0.8,1.6,1.1,3.4,1.8,5.1c0.7,1.6,2,3.2,3.8,3.5c1.8,0.3,3.7-1.5,3.1-3.2c-0.3,2.3,1.1,4.8,3.3,5.8
			c2.2,1,4.9,0.3,6.4-1.5c1-1.2,1.5-2.9,2.4-4.2c2.7-4.1,8.4-4.4,13.3-4.4"/>
	</g>
</g>
</svg>
