<svg id="d6d57937-df43-4fed-8545-d38855f911c1" data-name="Layer 1" xmlns="http://www.w3.org/2000/svg" xmlns:xlink="http://www.w3.org/1999/xlink" viewBox="0 0 300 450"><defs><clipPath id="15f9e0af-c25a-4aa9-8f3f-194a20e36ab1"><path d="M248.92,210.61A99.74,99.74,0,0,1,51.35,236c-.62-3.43-22.15-13.72-22.42-17.28C26.21,182.41,11.17,116.31,40.73,77.9,55.85,58.25,105.47,55.41,149.7,55,204.77,54.44,244.8,155.68,248.92,210.61Z" style="fill:none"/></clipPath></defs><title>juego2_ilust</title><circle cx="150" cy="217.41" r="99.73" style="fill:#dcffc5"/><path d="M249.07,113.4c-6.53,6.51-10.77,16.85-19.3,23.51l-.07-1c-1.62,5.14-7.6,5.58-10.37,8.8-1.77,3.14,7.2,2.47,3.52,6.76,18.28-8.12,30.53-24,37.47-42.07a17.49,17.49,0,0,0-4.26-5.6c-2.1-1.87-4.36-4.78-6.63-6.53C251.08,103.55,251.86,109.48,249.07,113.4Z" style="fill:#fff"/><circle cx="149.41" cy="217.83" r="99.73" style="fill:#9e921e"/><g style="clip-path:url(#15f9e0af-c25a-4aa9-8f3f-194a20e36ab1)"><rect x="193.07" y="198.13" width="24.4" height="44.56" rx="10.28" ry="10.28" transform="translate(-12.43 12.26) rotate(-3.32)" style="fill:#f0ba7a"/><path d="M229.24,252.06c6.5-16.48-14.27-26-29.16-24.27-3.19-.06-6.23,0-8.87,0a71.21,71.21,0,0,0-10.73.73,33.52,33.52,0,0,0-9.55,2.53c-5.4,2.74-5.62,7.37-6.95,13.75l-11,52.92c-.72,3.5-5,25.81-4.22,29.12,20.8,5.84,48.76-8.44,74.64-2.35a25,25,0,0,0,4.07-6,24.12,24.12,0,0,0,2.13-7.12c3.36-18.39-1.05-37.11-.64-54.74C229.12,253.77,229.24,252.06,229.24,252.06Z" style="fill:#f1f3f7"/><path d="M115,221.63c11.55-2.92,13.59,11,13.58,19.44a40.06,40.06,0,0,0,1.23,5.05,30,30,0,0,0,2,4.88,20.89,20.89,0,0,0,3.48,4.91c.91,1.94,1.82,3.63,2.42,5.15a6.41,6.41,0,0,1,.52,4.11c-.59,2.06-3.12,4.14-4.93,5l-5.9,2.77c-1.5.7-4.35,1.43-6,1-2.72-.76-4.21-3.79-6.29-8.21l-1.73-3.32a14.9,14.9,0,0,1-3.11-5.52,15.77,15.77,0,0,1-.43-6.78l1,.89c.4-8.05,4.79-16.4,1.38-25.24C112.07,223.62,113.15,222.39,115,221.63Z" style="fill:#f1f3f7"/><path d="M135.4,233.12c-2.19,8.15-7.72,14.59-9,22.33a18,18,0,0,0,.07,5.08,23.24,23.24,0,0,0,1.09,4.22c1.41,3.94,3.59,7.21,5.07,11.41,1.5,5.33,11.94,1.58,15.45-3.51,4.93-8.78,10.69-20.81,13.67-30.68.33-1.74-.31-4-.73-5.55-1-2.49-3.81-4.83-7.26-6.54a27.61,27.61,0,0,0-3.62-1.48c-3.9-.14-9.11-2.76-12.53,1.29A9.65,9.65,0,0,0,135.4,233.12Z" style="fill:#f1f3f7"/><path d="M113.7,215.15c-6.84,9-12,20.46-10.68,32.76a60.55,60.55,0,0,0,1.77,6.17c.67,2,1.37,3.87,2,5.62a52.89,52.89,0,0,0,3.9,4c1.19-.83,2.39-1.65,3.61-2.43a18.59,18.59,0,0,0,6.29-2.07,8.25,8.25,0,0,0,3.26-3.3c.35-3.26.74-6.66.94-10.06.1-1.7.16-3.41.16-5.11-.44-7.85-1.11-16.82-8-22.58C116,217.17,114.88,216.17,113.7,215.15Z" style="fill:#fff"/><path d="M124.44,223.53c-1.78-2.52-4.07-6.36-7.21-8.13-5.14-1.62-8.75,3.66-11.44,7.88a108.25,108.25,0,0,0-7.44,25.11c.31,1.47.83,2.91,1.24,4.33a23.83,23.83,0,0,0,2.06,4.11,28.23,28.23,0,0,0,2.87,3.81c1.08,1.22,2.23,2.4,3.42,3.57,2.36,2.34,4.84,4.62,7.31,6.9,4,3,20.84,9.74,22.25,6.43,1.59-3.73.46-8.84-2-14.6-.83-1.92-1.81-3.92-2.89-6-.82-1.54-1.55-3.13-2.22-4.75a50.88,50.88,0,0,1-2.25-7.64c-.28-1.29-.53-2.6-.74-3.91-.52-3.92-.82-7.91-1.49-11.91A52.26,52.26,0,0,0,124.44,223.53Z" style="fill:#f1f3f7"/><path d="M134,236.36c-3.89,4.14-2.37,11-7.13,14.41-1.84,2.14-4.06-.7-6.21-2.54a16.29,16.29,0,0,0,4,5.09c1.49,1.51,3.09,2.9,4.7,4.28.14-1.51.34-3,.57-4.55.82-3.58.45-8.56,2.85-12.91A38.3,38.3,0,0,0,134,236.36Z" style="fill:#fff"/><path d="M158,222.24c-.17-.53,13.4-63.75,13.24-64.29-.47-1.61-.31-3.51-.5-5.28a69.73,69.73,0,0,0-1.07-8A69,69,0,0,0,33.12,163c1.4,18.69,24,67.29,24.29,69.42,14.43-10.54,34.23,2.47,49.08-7.14C127.57,211.76,134.59,231.14,158,222.24Z" style="fill:#393d47"/><path d="M163.16,210.09c-.73,6.85-2.13,19-11.69,17.38.39-.08-1.43.07-3.72.11a9.3,9.3,0,0,1-5.8-.5,7.52,7.52,0,0,1-3.4-3.46c-.93-3.73-3.22-7.57-1.91-11.69,0-2.13.19-4.25.35-6.17s.36-3.64.47-5a11,11,0,0,1,2.52-3.2,12.86,12.86,0,0,1,12.64-2.24c6.4,2.28,8.17,9.14,10.62,14.11A3.65,3.65,0,0,1,163.16,210.09Z" style="fill:#f0ba7a"/><path d="M144.41,212.1a5,5,0,0,0,3.24-2,4.94,4.94,0,0,0,.93-3.67L146,188.73a5,5,0,0,0-5.63-4.18h0a5,5,0,0,0-4.18,5.62l.41,2.77.9,6.09c1.88,3.67.26,8.81,3.39,12.26A4.56,4.56,0,0,0,144.41,212.1Z" style="fill:#f0ba7a"/><path d="M152.33,210.27h0a4.83,4.83,0,0,0,3.9-5.58L153.61,187a4.84,4.84,0,0,0-5.34-4.23h0a4.83,4.83,0,0,0-3.9,5.58L147,206A4.84,4.84,0,0,0,152.33,210.27Z" style="fill:#f0ba7a"/><path d="M158.31,214.08h0a5,5,0,0,0,4.92-5l-.14-17.91a5,5,0,0,0-5-4.92h0c-2.73,0-4.07,4.63-4,7.36l-.73,15.54A5,5,0,0,0,158.31,214.08Z" style="fill:#f0ba7a"/><path d="M144.35,222.06c2.39-6.59-2.47-12.87-7.84-17.4-1.07-.91-2.17-1.74-3.23-2.5-2.07-.85-4.14-1.7-5.06-.62-3.47,7.28,4.89,11.67,9,16.7a16.17,16.17,0,0,1,2.12,3.22A3.34,3.34,0,0,0,144.35,222.06Z" style="fill:#f0ba7a"/><path d="M144.85,223.38c1.15-5.11-1.8-11.17-5.62-15.39a22,22,0,0,0-4-3.52c-2-2.31-5-3.08-6.86-.93-2.39,8.2,6.81,10.52,9.7,15.49a9.79,9.79,0,0,1,1.68,3.74A3.4,3.4,0,0,0,144.85,223.38Z" style="fill:#f0ba7a"/><path d="M144.28,214.28c2.16-.37,3.62-2.84,3.22-5.53L144.89,191c-.4-2.7-2.51-4.64-4.7-4.32h0c-2.19.32-3.65,2.79-3.26,5.49l.41,2.77c.25,1.66.57,3.88.9,6.1-.82,2.8,1.4,5.64,1.47,9C140.17,212.84,142.18,214.7,144.28,214.28Z" style="fill:#f0ba7a"/><path d="M158,234.94c.66-2.4,1.23-9.1,1-9.95-1.73.09-4.8-.45-6.59-.51s-12.62-3-13.48-1.83c-2.52,2.63-2.52,10.45-2.52,10.45s6.53,2.69,10.89,2.92a50.44,50.44,0,0,0,5.47-.27C154.51,235.56,156.28,235.28,158,234.94Z" style="fill:#fff"/><path d="M128.59,237.79c-1.6-10.13,1.62-18.59-5.68-21.38-4.44-1.69-12.19-1.85-17.61-1.37l-22,3.25c-7,1-18,4.5-22.58,8.86-5.57,5.35,2.86,12.18,4.37,21.73l20,56.5c.74,4.66,3.51,23.23,5.79,26.76,23.59-4.59,18.47-6.5,41-11.92,1.45-5-.59-9.67-1.44-15Z" style="fill:#f1f3f7"/><rect x="78.13" y="188.46" width="24.5" height="32.73" rx="9.21" ry="9.21" transform="translate(-38.43 21.71) rotate(-11.31)" style="fill:#f0ba7a"/><polygon points="102.44 242.64 95.2 214.53 106.45 217.71 102.44 242.64" style="fill:#dcdde0;opacity:0.400000005960465"/><polygon points="102.44 242.64 95.13 214.22 86.81 222.44 102.44 242.64" style="fill:#dcdde0;opacity:0.400000005960465"/><polygon points="118.41 290.07 111.88 303.08 100.51 294.28 96.33 227.68 101.42 226.98 118.41 290.07" style="fill:#0076b7"/><path d="M91.51,214.72l.08.52s-2.71,12.73-8.12,9.85A10.51,10.51,0,0,1,77.76,217l1.2-5Z" style="fill:#fff"/><polygon points="102.05 217.83 96.7 214.37 92.75 220.53 96.48 227.65 101.23 227.01 102.05 217.83" style="fill:#0076b7"/><path d="M96.56,213.93l.08.52s-4.56,13-11.91,10.45-7.45-7.79-7.45-7.79l2-5.09Z" style="fill:#fff"/><path d="M96.69,213.91l.08.52s4.9,11.53,7.48,7.39,1.44-9.2,1.44-9.2l-2-4.47Z" style="fill:#fff"/><g style="opacity:0.300000011920929"><polygon points="109.14 263.7 118.36 267.7 126.15 261.01 123.64 245.14 106.63 247.83 109.14 263.7" style="fill:#dcdde0"/><rect x="105.85" y="239.73" width="17.22" height="5.01" transform="translate(-36.42 20.84) rotate(-8.98)" style="fill:#dcdde0"/></g><path d="M129.22,252.9c.19-4.54.17-8.89.27-13.16q-1.36-.94-2.67-2c-6.53-5.81-9.12-14.29-9.45-22.6a57.84,57.84,0,0,0-7.43-.8,92.4,92.4,0,0,1,1,11.73c.36,2.27-.81,4.38-1.65,6.76a9,9,0,0,1-5.42,4.57c-14.28,4.83-24.34-6.89-28-19.26-4.27,1.06-5.49,1.11-8.72,3,2.72,6.85,2.07,17.81-2.6,25.69C76.2,275,81.2,299.49,82.11,333.42c19.41-4.94,37.42-10.84,54.23-15.83A200.11,200.11,0,0,1,129.22,252.9Z" style="fill:#004868"/><path d="M220.48,233l-2.94.35c-4.79.32-6.85,8.68-4.59,18.92l3.26,21.33,3,26.61c1.44,6.76,2.09,12.23,4.88,15.56a15.27,15.27,0,0,0,9.26,4.69l8.56.7c2.21.18,5.87-.47,7.12-2.25,2.09-3,.69-8.71-1.43-16.85,0,0-8.6-37.92-6.86-28.86,1.8,9.33-3.14-14.64-6.67-26.33C230.66,235.67,225.4,232.64,220.48,233Z" style="fill:#f1f3f7"/><polygon points="198.01 248.58 201.61 227.97 210.94 232.69 198.01 248.58" style="fill:#dcdde0;opacity:0.400000005960465"/><polygon points="198.01 248.58 201.61 227.97 191.28 231.42 198.01 248.58" style="fill:#dcdde0;opacity:0.400000005960465"/><polygon points="208.33 231.68 201.4 228.07 194.89 231.68 197.72 237.21 202.73 237.67 208.33 231.68" style="fill:#0076b7"/><polygon points="216.91 284.7 209.43 295.06 198.5 288.18 198.05 238.6 202.96 237.51 216.91 284.7" style="fill:#0076b7"/><polygon points="201.61 227.97 201.55 228.33 209.94 236.37 215.54 228.83 214.07 225.39 201.61 227.97" style="fill:#fff"/><polygon points="201.61 227.97 201.55 228.33 190.97 235 188.44 227.32 190.83 224.25 201.61 227.97" style="fill:#fff"/><polygon points="213.79 263.5 221.78 264.25 226.75 258.91 225.4 250.34 212.02 251.5 213.79 263.5" style="fill:#fff"/><polygon points="224.83 246.75 211.28 246.48 211.82 250.17 225.25 249.39 224.83 246.75" style="fill:#fff"/></g><circle cx="54.97" cy="165.95" r="11.84" transform="translate(-12.26 4.58) rotate(-4.29)" style="fill:#f7cfa2"/><circle cx="54.97" cy="165.95" r="7.8" transform="translate(-12.26 4.58) rotate(-4.29)" style="fill:#f0ba7a"/><circle cx="139.26" cy="157.46" r="7.8" transform="translate(-11.39 10.86) rotate(-4.29)" style="fill:#f0ba7a"/><path d="M139.18,147c-1.65-22-21.69-38.46-44.75-36.73S58.34,129.36,60,151.38c.37,4.92,1.35,26.13,1.71,31.06,1.65,22,45,35.23,59.26,34.16,12.58-.94,22-19.6,20.31-41.61Z" style="fill:#f7cfa2"/><path d="M99.66,122.38a1.27,1.27,0,0,0,.16-1.83h0a33,33,0,0,0-56.59,29.85,1.28,1.28,0,0,0,1.69.89C64.34,143.91,83.59,135.12,99.66,122.38Z" style="fill:#393d47"/><path d="M132.63,119a1.27,1.27,0,0,0,1-1.56h0a33,33,0,0,0-64,.8,1.28,1.28,0,0,0,1.1,1.56C91.39,122.12,112.52,123.06,132.63,119Z" style="fill:#393d47"/><path d="M141.32,148.76c.4.28,1.05,0,1.41-.64h0c9-15.81-2.72-36.09-13-45.38-6.29-5.71-27.15-15-35.55-7.93-.55.46,19.06,20.25,19.34,20.73C121.22,128.54,129.93,140.8,141.32,148.76Z" style="fill:#393d47"/><path d="M144.23,158.76c.78,8.89-1.79,16.33-9,16.88s-12.41-6.32-13.19-15.21,3.12-16.43,10.36-17S143.44,149.87,144.23,158.76Z" style="fill:#601515;opacity:0.100000001490116"/><path d="M144.61,159.49c.68,7.72-3.86,14.35-10.15,14.83s-11.93-5.4-12.6-13.12,3.86-14.35,10.15-14.83S143.93,151.77,144.61,159.49Z" style="fill:#fff"/><path d="M144.66,159.48c.32,3.69-1.85,6.87-4.85,7.09s-5.71-2.58-6-6.28,1.85-6.87,4.85-7.09S144.34,155.79,144.66,159.48Z" style="fill:#601515"/><path d="M141.33,159.73a2.36,2.36,0,0,1-1.88,2.75,2.43,2.43,0,0,1-2.34-2.43A2.36,2.36,0,0,1,139,157.3,2.43,2.43,0,0,1,141.33,159.73Z"/><path d="M139.14,156.84a1.74,1.74,0,0,1-1.38,2,1.79,1.79,0,0,1-1.72-1.79,1.74,1.74,0,0,1,1.38-2A1.79,1.79,0,0,1,139.14,156.84Z" style="fill:#f9f9f9"/><path d="M144,156.17c-1.76-6-6.63-10.2-12-9.8s-9.42,5.28-10.1,11.48C129.21,157.28,136.4,156.27,144,156.17Z" style="fill:#f7cfa2"/><path d="M72.83,163.85c.73,9.79,5.29,17.44,14.22,16.77s13.94-9,13.2-18.82-6.93-17.31-15.87-16.64S72.09,154.06,72.83,163.85Z" style="fill:#601515;opacity:0.100000001490116"/><ellipse cx="86.54" cy="163.65" rx="14.08" ry="15.44" transform="translate(-12 6.93) rotate(-4.29)" style="fill:#fff"/><ellipse cx="93.52" cy="163.13" rx="6.74" ry="7.39" transform="translate(-11.94 7.45) rotate(-4.29)" style="fill:#601515"/><ellipse cx="93.52" cy="163.13" rx="2.61" ry="2.86" transform="translate(-11.94 7.45) rotate(-4.29)"/><ellipse cx="91.67" cy="159.9" rx="1.92" ry="2.11" transform="matrix(1, -0.07, 0.07, 1, -11.71, 7.31)" style="fill:#f9f9f9"/><rect x="108.52" y="152.39" width="9.79" height="30.12" rx="4.89" ry="4.89" transform="translate(-12.21 8.96) rotate(-4.29)" style="fill:#f0ba7a"/><rect x="107.44" y="148.25" width="9.79" height="30.12" rx="4.89" ry="4.89" transform="translate(-11.9 8.86) rotate(-4.29)" style="fill:#f7cfa2"/><path d="M74.49,117.47l1.82,24.29,37-2.78.07-18.26,3.6,18a59.61,59.61,0,0,0,9.76.28c3.45-.3,12.24,6.88,12.24,6.88l-4.65-37.1-47.69-7.38Z" style="fill:#393d47"/><g style="opacity:0.600000023841858"><path d="M85.15,95c4.23,0,8.62-.1,12.83.07,4.88.2,9.41,1.86,14.07,2.9,1.06.24,3.42-1.35,1.73-1.73-4.31-1-8.37-2.27-12.84-2.79-4.83-.56-9.87-.23-14.72-.28-1.22,0-3,1.82-1.08,1.84Z" style="fill:#f7cfa2"/></g><ellipse cx="116.44" cy="196.85" rx="8.69" ry="10.59" transform="translate(-14.35 9.23) rotate(-4.28)" style="fill:#ea6d50"/><path d="M179.74,100.28a66.9,66.9,0,0,1,7.6,2c3.49,1.33,10,.14,10,.14s-6.08-5.27-9.41-5.49S179.74,100.28,179.74,100.28Z" style="fill:#601515"/><path d="M240.49,181.77h0Z" style="fill:#f7cfa2"/><path d="M240,181.77h0Z" style="fill:#f7cfa2"/><path d="M238.19,182.51c-.38.5-1.05,1.6-.87,2.25l3.75-3H240A2,2,0,0,0,238.19,182.51Z" style="fill:#f7cfa2"/><rect x="186.07" y="150.72" width="31.15" height="44.9" rx="12.17" ry="12.17" transform="translate(32.22 -31.63) rotate(9.74)" style="fill:#f0ba7a"/><circle cx="156.97" cy="164.18" r="12.09" transform="translate(-31.4 291.1) rotate(-80.26)" style="fill:#f7cfa2"/><circle cx="156.97" cy="164.18" r="7.97" transform="translate(-31.4 291.1) rotate(-80.26)" style="fill:#f0ba7a"/><circle cx="253.77" cy="180.8" r="12.09" transform="translate(32.63 400.31) rotate(-80.26)" style="fill:#f7cfa2"/><circle cx="253.77" cy="180.8" r="7.97" transform="matrix(0.17, -0.99, 0.99, 0.17, 32.63, 400.31)" style="fill:#f0ba7a"/><path d="M256.28,170.43c16.23-53.13-15.1-44-42.25-48.67s-52.25,9.57-56.07,31.78l-4.85,28.23c-3.82,22.22,25.45,45.78,42.25,48.67,14.81,2.54,52.25-9.57,56.07-31.78C252.29,193.69,254.81,175.25,256.28,170.43Z" style="fill:#f7cfa2"/><path d="M241,155.55c-1-1.38,1.78-3.33,1.78-3.33,7.26,0,6.42,12,14.09,9.69,2.56-.77,2.19-5.68,2.79-9.21,1.52,8,4.61,2.41,9.26,1,1.07-3.84,2-7,2.35-8.93,4.56-26.53-15.53-46.92-42.07-51.48-25.88-4.44-43.07,9.16-48.5,34.61,21.37-3.35,33.18,9,44.38,23.35C230.53,152.15,235.23,154.56,241,155.55Z" style="fill:#601515"/><path d="M212.84,114.06a1.3,1.3,0,0,0,0-1.88h0a33.68,33.68,0,0,0-55.59,34.31,1.3,1.3,0,0,0,1.78.79C178.35,138.42,197.34,128.14,212.84,114.06Z" style="fill:#601515"/><path d="M245.88,179.24c-1.7,9.88-7.45,17.14-17.34,15.44s-14.7-10.77-13-20.65,9.27-16.83,19.15-15.13S247.58,169.36,245.88,179.24Z" style="fill:#601515;opacity:0.100000001490116"/><circle cx="230.64" cy="177.48" r="15.76" transform="translate(16.68 374.75) rotate(-80.26)" style="fill:#fff"/><circle cx="225.14" cy="174.21" r="7.54" transform="translate(15.33 366.62) rotate(-80.26)" style="fill:#601515"/><circle cx="225.14" cy="174.21" r="2.92" transform="translate(15.33 366.62) rotate(-80.26)"/><circle cx="223.86" cy="170.51" r="2.15" transform="translate(17.91 362.28) rotate(-80.26)" style="fill:#f9f9f9"/><path d="M164.69,165.3c-1.7,9.88,1.31,18.65,11.19,20.34s17.45-5.25,19.15-15.13-3.12-19-13-20.65S166.38,155.42,164.69,165.3Z" style="fill:#601515;opacity:0.100000001490116"/><circle cx="179.64" cy="168.72" r="15.76" transform="translate(-17.06 317.22) rotate(-80.26)" style="fill:#fff"/><circle cx="174" cy="167.84" r="7.54" transform="translate(-20.87 310.92) rotate(-80.26)" style="fill:#601515"/><circle cx="174" cy="167.84" r="2.92" transform="translate(-20.87 310.92) rotate(-80.26)"/><circle cx="172.81" cy="164.15" r="2.15" transform="translate(-18.23 306.69) rotate(-80.26)" style="fill:#f9f9f9"/><rect x="196.47" y="159.86" width="14.46" height="40.58" rx="7.23" ry="7.23" transform="translate(33.43 -31.88) rotate(9.74)" style="fill:#f0ba7a"/><rect x="195.78" y="155.38" width="14.46" height="40.58" rx="7.23" ry="7.23" transform="translate(32.66 -31.83) rotate(9.74)" style="fill:#f7cfa2"/><path d="M178.25,126.85s11.76,7.87,17.16,12.92c7.46,7,25.21,10.74,25.21,10.74s-9.91-19.63-18.13-23.64S178.25,126.85,178.25,126.85Z" style="fill:#601515"/><path d="M202.38,90a66.9,66.9,0,0,0-3.05,7.24c-1.08,3.58-6,8-6,8s-.48-8,1.39-10.81S202.38,90,202.38,90Z" style="fill:#601515"/><ellipse cx="173.75" cy="185.49" rx="0.9" ry="1.8" transform="translate(-38.47 325.34) rotate(-80.26)" style="fill:#f0ba7a"/><ellipse cx="230" cy="195.15" rx="0.9" ry="1.8" transform="translate(-1.26 388.8) rotate(-80.26)" style="fill:#f0ba7a"/><ellipse cx="237.06" cy="196.36" rx="0.9" ry="1.8" transform="translate(3.41 396.77) rotate(-80.26)" style="fill:#f0ba7a"/><ellipse cx="232.93" cy="199.29" rx="0.9" ry="1.8" transform="translate(-2.91 395.12) rotate(-80.26)" style="fill:#f0ba7a"/><path d="M160.38,134.86l-6.45,41.31,4.56-2.91,7.33-24.38s9-15,17.55-16.87S208,132,208,132l-12.08-8.88Z" style="fill:#601515;opacity:0.300000011920929"/><path d="M261.36,149.91l-8.75,37.49L249,188.56l1.23-25.43s-3.43-17.17-10.91-21.76-23.19-8.17-23.19-8.17l14.35-4.34Z" style="fill:#601515;opacity:0.300000011920929"/><path d="M226.13,162.75l19.93,7.51a5.47,5.47,0,0,0,7-3.15h0a5.41,5.41,0,0,0-3.15-7L230,152.62a5.47,5.47,0,0,0-7,3.15h0A5.41,5.41,0,0,0,226.13,162.75Z" style="fill:#5b1010"/><rect x="172.03" y="145.93" width="32.18" height="10.87" rx="5.43" ry="5.43" transform="translate(279.72 374.78) rotate(-151.12)" style="fill:#5b1010"/><g style="opacity:0.600000023841858"><path d="M220,100.35c3.25,2,7.29,1.72,10.91,2.73,3.42,1,6.27,3.13,9.77,3.88.73.16,1.27-.9.53-1.27-3.19-1.61-6.27-3.7-9.75-4.64s-7.94-2-11.4-1.19a.27.27,0,0,0-.06.48Z" style="fill:#f7cfa2"/></g><ellipse cx="198.58" cy="213.35" rx="10.68" ry="9.48" transform="translate(-25.49 399.74) rotate(-86.81)" style="fill:#ea6d50"/><ellipse cx="165.33" cy="183.44" rx="0.9" ry="1.8" transform="translate(-43.45 315.34) rotate(-80.26)" style="fill:#f0ba7a"/><ellipse cx="168.26" cy="187.58" rx="0.9" ry="1.8" transform="matrix(0.17, -0.99, 0.99, 0.17, -45.1, 321.66)" style="fill:#f0ba7a"/><path d="M188.32,247.56a86.65,86.65,0,0,1,7.74-10.73c5.13-5.94,3.71-8.5,11.31-4,12.56,7.51,8.5,21.38,2.69,30.25-5.27,8-25.31,41.36-36,24-2.12-3.44-.64-8.54-.17-12,.55-4,6.49-6,6.85-7.1C182.52,262.63,185.2,252.54,188.32,247.56Z" style="fill:#fff"/><path d="M189.13,239.64c-6.56,14.67-18,28.66-15.92,43.54.52,7,14.41,4.94,20-.5,8.3-9.65,13.61-19.07,19.77-30.56.85-2.07.62-5.06.47-7.06-1.67-8.9-11.29-14-20.24-9.77C191,236.42,190.74,237.68,189.13,239.64Z" style="fill:#f1f3f7"/><path d="M188.24,250.32a78.22,78.22,0,0,0-3.18-11.51c-2.47-6.64-9.94-12.95-15-6.77-7.92,9.65-10.55,16.8-8.5,26,1.89,8.47,11.78,41.54,26.29,30.21,2.87-2.24,3.23-7,3.92-10.08.8-3.58-3.6-7.12-3.56-8.16C188.4,264.9,189.31,255.52,188.24,250.32Z" style="fill:#fff"/><path d="M189.94,237.3c3.28,10.33-.84,21.05.46,31.51.14,1.13.35,2.25.56,3.38.6,3.21,3.78,8.51,1.41,11.4a40.23,40.23,0,0,1-5.31,5.16c-12.22,5.88-18.73-13.53-21.81-21.87-2.73-7.4-2.93-14.33-3.19-22.37-.08-2.65-.74-5.32,0-7.87a14.08,14.08,0,0,1,5-6.58c2-1.53,4.52-1.74,7-2.31,3.25-.76,7.61.72,10.48,2.61C188.21,232.76,188.81,233.75,189.94,237.3Z" style="fill:#f1f3f7"/><path d="M191.54,235.28c-.93,1.09-1.84,2.2-2.72,3.34-3.19,4.1-4,8.89-5.88,13.3-.17.41-4-10.13-4-10.13s3.6,15.48,4.46,19.47C185.49,248,191.39,236.4,191.54,235.28Z" style="fill:#fff"/><path d="M214.07,240.06c.73.33-9.65-7.39-11.46-10s-1.32-2.06,2.69-11.61c.52-1.24,4.11-.65,4.62-1.83,3.64-9,14.63-13.74,20.7-5.32,3.81,5.62,6.4,2.91,5.44,8.36C235.9,219.82,220.81,247,214.07,240.06Z" style="fill:#f0ba7a"/><path d="M214.06,219.91h0a5,5,0,0,0,6.7-2.05L229.15,202a5,5,0,0,0-2.06-6.7h0a5,5,0,0,0-6.7,2.05L212,213.2A5,5,0,0,0,214.06,219.91Z" style="fill:#f0ba7a"/><path d="M221.52,223.15h0A4.83,4.83,0,0,0,228,221l8.39-15.83a4.84,4.84,0,0,0-1.8-6.57h0a4.83,4.83,0,0,0-6.44,2.19l-8.39,15.83A4.84,4.84,0,0,0,221.52,223.15Z" style="fill:#f0ba7a"/><path d="M223.24,229.23h0a5,5,0,0,0,6.92-1.11l10.41-13.89c1.6-2.21,2.61-5.59.4-7.19l-1-.58c-2.21-1.6-6.57,2.79-8.17,5l-9.7,10.83A5,5,0,0,0,223.24,229.23Z" style="fill:#f0ba7a"/><path d="M208.83,227.67h0a4,4,0,0,0,4.15-3.88l.32-12.72-1.62-5.83c-.65-2.14-2.61-4.71-5.08-5.1s-4.26,2.79-4.34,5L204,212.5s.77,6.15.4,7.42a15.73,15.73,0,0,1-.69,2C203.63,224.09,206.63,227.59,208.83,227.67Z" style="fill:#f0ba7a"/><path d="M208.34,228.83h0a4,4,0,0,0,4.15-3.88l.32-12.72-1.62-5.83c-.81-3-2.67-5-4.88-5.1h-.24c-2.21-.08-3.14,1.85-3.22,4.06l1.91,7.44s.86,7.26-.13,9.36S206.13,228.75,208.34,228.83Z" style="fill:#f7cfa2"/><path d="M225.79,219.45c-3.77-5.23-7.75-9.25-11.1-9.41-.66,1.08-1.13,2.4-2.38,1.78v-1.13a8.31,8.31,0,0,0-2.86,4c-.51,1.18-3.6,4.21-4.12,5.45-4,9.54-4.5,9-2.69,11.61s8.76,6.81,8,6.48c6.74,7,13.35-4,18-9a3.64,3.64,0,0,0,.46-.49C230.12,223.25,229.6,225.07,225.79,219.45Z" style="fill:#f7cfa2"/><path d="M213.28,221.2h0c2,1,4.6-.08,5.87-2.49l8.39-15.83c1.28-2.41.72-5.23-1.23-6.27h0c-2-1-4.6.08-5.87,2.49L212,214.93C210.77,217.34,211.33,220.16,213.28,221.2Z" style="fill:#f7cfa2"/><path d="M221.23,223.29h0c1.76.94,4.25-.27,5.53-2.68l8.89-14.94c1.28-2.41.88-5.15-.88-6.08l-.41-.43c-1.76-.94-3.9-.17-5.18,2.24l-8.84,15.8C219.07,219.61,219.47,222.35,221.23,223.29Z" style="fill:#f7cfa2"/><path d="M224,229.82h0c1.45,1.24,4.08.55,5.85-1.53l10.25-14.13c1.77-2.08,2.33-4.85.88-6.08l-.69-.69c-1.45-1.24-3.69.2-5.46,2.28L224.57,223.8C222.8,225.87,222.54,228.58,224,229.82Z" style="fill:#f7cfa2"/><path d="M214.45,247.36c1.76-1.76,4.72-8.44,4.89-9.31-6.19-3.08-12.47-7.53-16.76-13.29-1.41,2.7-6.52,10.44-6.7,11.58C200.92,241.55,207.82,245.19,214.45,247.36Z" style="fill:#fff"/><path d="M61.94,226.29l3.35-1.63c3.9-2.07,10.09,1.87,13.76,8.77l8.34,13L97.85,261c2,3.78,4,6.59,3.4,9.11-.49,2.08-2.91,4.29-4.68,5.23l-5.76,3.06c-1.46.78-4.27,1.64-5.92,1.27-2.75-.62-4.4-3.57-6.69-7.88,0,0-12.42-21.21-9.09-16s-5.2-8.6-8.8-16.21S58,228.37,61.94,226.29Z" style="fill:#f1f3f7"/><path d="M143.17,232.72c-3.69,5.82-9.13,16-17,10.33.78.2-6.79-2.69-9-5s-1.66-1.8.62-11.9c.3-1.31,4.57-3.61,4.87-4.86.17-.79-.14-5.85.34-5,.67,1.18,2.19-1.74,2.68-3.16,2-5.75,10.34-3.71,15.79,1.58,4.73,4.87,3,9.76,3,15.3C144.38,230.23,143.31,232.56,143.17,232.72Z" style="fill:#f0ba7a"/><path d="M126.67,226.12h0a5,5,0,0,0,6.24-3.19l5.5-17a5,5,0,0,0-3.2-6.24h0a5,5,0,0,0-6.24,3.19l-5.5,17A5,5,0,0,0,126.67,226.12Z" style="fill:#f0ba7a"/><path d="M134.58,228h0a4.83,4.83,0,0,0,6-3.28l5.5-17a4.84,4.84,0,0,0-2.92-6.15h0a4.83,4.83,0,0,0-6,3.28l-5.5,17A4.84,4.84,0,0,0,134.58,228Z" style="fill:#f0ba7a"/><path d="M137.33,233.69h0a5,5,0,0,0,6.62-2.3l7.8-16.13a5,5,0,0,0-2.3-6.62h0c-2.45-1.19-5.7,2.35-6.89,4.81L135,227.07A5,5,0,0,0,137.33,233.69Z" style="fill:#f0ba7a"/><path d="M122.18,234.92h0a4,4,0,0,0,3.41-4.54l-1.91-12.58-2.62-5.46c-1-2-3.39-4.18-5.89-4.13s-3.15,2.7-2.84,4.89l3.52,6.67,1.78,11.73A4,4,0,0,0,122.18,234.92Z" style="fill:#f0ba7a"/><path d="M122.05,236.36h0a4,4,0,0,0,3.41-4.54l-1.91-12.58-2.62-5.46c-.31-2.19-3.51-4.48-5.7-4.17l-.23,0c-2.19.31-2.77,2.37-2.46,4.56l3.18,7,1.78,11.73A4,4,0,0,0,122.05,236.36Z" style="fill:#f7cfa2"/><path d="M142.15,233.16c-3.69,5.82-8.3,17.72-16.15,12,.78.2-6.79-2.69-9-5s-1.66-1.8.62-11.9c.3-1.31,2.81-4.84,3.11-6.09.44-2.07.92-4.13,2.11-4.57,0,0,.84.8,1.18.62s1.16-2.21,1.22-2.19c3.24.81,7.82,3.52,12.4,8,4.73,4.87,4.92,3,4.92,8.52A3.65,3.65,0,0,1,142.15,233.16Z" style="fill:#f7cfa2"/><path d="M125.58,228h0c2.1.68,4.51-.88,5.35-3.48l5.5-17c.84-2.59.73-6.4-1.38-7.08l-.62-.25c-2.1-.68-4.82,2.25-5.66,4.85l-5.5,17C122.44,224.62,123.48,227.3,125.58,228Z" style="fill:#f7cfa2"/><path d="M133.77,228.65h0c1.9.61,4.14-1,5-3.6l6.15-16.27c.84-2.59,0-5.22-1.93-5.84h0c-1.9-.61-4.14,1-5,3.6l-6.15,16.27C131,225.41,131.87,228,133.77,228.65Z" style="fill:#f7cfa2"/><path d="M137.64,234.6h0c1.64,1,3.64,0,5-2.34l8.11-15.89c1.38-2.35,1.16-5.07-.49-6h0c-1.64-1-4.12.17-5.49,2.52l-7.63,15.71C135.77,230.92,136,233.64,137.64,234.6Z" style="fill:#f7cfa2"/><path d="M108.33,239.33c-25.09,19.21-19.13,27.25-20.54,39.05-1,5.44,10,6.7,15.41,3.69,8.31-5.69,18.79-13.93,25.83-21.46,1.07-1.41,1.51-3.74,1.8-5.3.53-7.14-10.89-19-18.6-17.59A7.4,7.4,0,0,0,108.33,239.33Z" style="fill:#f1f3f7"/><path d="M64.34,220.14a14.57,14.57,0,0,0-10.06,11.62c-.82,16.49,7.83,28.38,19.46,38.29A62.44,62.44,0,0,1,88.45,261,303.13,303.13,0,0,0,64.34,220.14Z" style="fill:#fff"/><path d="M74.06,227c-.76-.82-5.07-5.62-5.89-6.21-5.42-3.29-10.88,4.27-13.79,11.75a30.2,30.2,0,0,0,.07,14.53c3.5,12.88,13.84,21.48,24.17,30.09,4.11,2.84,21.3,8.69,22.55,5.31C105.85,269.83,79.52,243.39,74.06,227Z" style="fill:#f1f3f7"/><path d="M105.58,241.6c-1.34.83-2.65,1.68-3.92,2.53-4.6,3.1-6,6.59-8.77,9.85-.26.3-5-7.08-5-7.08s4.19,10.94,5.17,13.77C96.62,251.05,105.32,242.41,105.58,241.6Z" style="fill:#fff"/><path d="M127.68,255.63c1.76-1.76,4.72-8.44,4.89-9.31-6.19-3.08-12.47-7.53-16.76-13.29-1.41,2.7-6.52,10.44-6.7,11.58C114.15,249.82,121,253.46,127.68,255.63Z" style="fill:#fff"/><path d="M85.38,148.26c-6.29.47-11.27,5.41-12.59,11.79,9.15,0,18.26-.21,27.19-.78C98.07,152.48,92.09,147.75,85.38,148.26Z" style="fill:#f7cfa2"/><rect x="70.91" y="139.99" width="28.76" height="10.65" rx="5.08" ry="5.08" transform="translate(212.94 255.27) rotate(161.15)" style="fill:#393d47"/><path d="M138.51,149.56l-14.9-2.12a4.47,4.47,0,0,1-3.49-5.16l.06-.43a4.34,4.34,0,0,1,4.67-4l14.9,2.12a4.47,4.47,0,0,1,3.49,5.16l-.06.43A4.34,4.34,0,0,1,138.51,149.56Z" style="fill:#393d47"/><path d="M119,199.21c7.22,2,12-4.3,13.63-10.47,1.46-5.45,2.1-10.36,6.46-14.45,3.88-3.64,9-5.37,13.34-8.3a.78.78,0,0,0-.6-1.41c-6.95,1.29-14.42,5.59-18.1,11.83-2.13,3.61-2.46,7.71-3.33,11.73a17.61,17.61,0,0,1-2.34,6.26c-2.32,3.4-5.49,3.61-9.08,4.25-.3.05-.27.5,0,.57Z" style="fill:#efe91b"/><path d="M137.4,187.82c2-5.17,4.44-12.06,10.2-13.76,2.82-.83,5.62-1.06,7.42-3.64.53-.75-.57-1.43-1.19-.92-3.14,2.63-7.68,2.11-10.74,4.84-3.57,3.19-5.31,8.8-6.32,13.3a.33.33,0,0,0,.63.17Z" style="fill:#efe91b"/><path d="M149.44,179.8c-2,.15-4.21,1.21-4.93,3.18a3.07,3.07,0,0,0,1.58,4.07c.65.25,1-.72.45-1.07a2.23,2.23,0,0,1-.2-3.2c.82-1,2.25-1.48,3.3-2.23.29-.21.23-.78-.2-.74Z" style="fill:#efe91b"/><path d="M126.4,186.49c.52-1.52.09-3.28.52-4.88a10.38,10.38,0,0,1,3.07-4.9c.65-.6-.3-1.5-1-1a10.43,10.43,0,0,0-3.55,5.47c-.44,1.63-.83,4.07.44,5.4a.28.28,0,0,0,.47-.12Z" style="fill:#efe91b"/></svg>