<svg id="4fa81c1f-58bc-4767-b177-185fc9285a26" data-name="Layer 1" xmlns="http://www.w3.org/2000/svg" xmlns:xlink="http://www.w3.org/1999/xlink" viewBox="0 0 300 450"><defs><clipPath id="dd8b645d-163e-473f-9be1-ad59ff8f85ce"><path d="M250,210.18a99.73,99.73,0,0,1-92,106.92c-51.37,3.85-104.52.65-113.53-48.93-.62-3.43-14.19-46.29-14.46-49.85C27.34,182,12.3,115.88,41.86,77.47,57,57.82,106.6,55,150.83,54.55,205.9,54,245.93,155.25,250,210.18Z" style="fill:none"/></clipPath></defs><title>juego2_ilust</title><circle cx="150" cy="217.41" r="99.73" style="fill:#8454d1"/><polyline points="838.89 -29.95 838.89 58.37 266.98 58.37" style="fill:none"/><path d="M138.8,171.81l.33.59Z" style="fill:#f7cfa2"/><path d="M255,115.51c-6.53,6.51-10.77,16.85-19.3,23.51l-.07-1c-1.62,5.14-7.6,5.58-10.37,8.8-1.77,3.14,7.2,2.47,3.52,6.76,18.28-8.12,30.53-24,37.47-42.07a17.49,17.49,0,0,0-4.26-5.6c-2.1-1.87-4.36-4.78-6.63-6.53C257,105.65,257.83,111.59,255,115.51Z" style="fill:#fff"/><g style="clip-path:url(#dd8b645d-163e-473f-9be1-ad59ff8f85ce)"><path d="M180.59,245.33c11-2,15-14,13.66-24.18.36-1.88,8.24-3.74,8.32-3.46a38.62,38.62,0,0,0,2.43,6.24c2.62,6.39,6.62,11.39,13.48,13.24a24.83,24.83,0,0,0,4.23.55c1.45.08,2.92.08,4.39.08q1.34,2.48,2.53,5c11.84,25.45,11.95,55.46,4,83.22l-5.06,1.49c-7,2.79-15,3.79-22,8.79,0-3-3-6-3-6a33.54,33.54,0,0,1-15.27-8.06,31.72,31.72,0,0,1-5-6.1c-9.73-19.83-21.73-51.83-4.09-70.15C179.7,245.76,180.14,245.54,180.59,245.33Z" style="fill:#f1f3f7"/><path d="M225.78,221.35a44.66,44.66,0,0,0-4.47-1.46c-1.24-.52-2.49-1-3.74-1.5a15.77,15.77,0,0,0-3.89-1.49,48.49,48.49,0,0,0-5.06-.38,71.34,71.34,0,0,0-15.42,1.85,44.35,44.35,0,0,0-5,1.52c-3,2-7,2-8.74,4.92a23.24,23.24,0,0,0-3.48,3.57,22.35,22.35,0,0,0-2.69,4.42c-4,11,5,21,9.72,30.4a33.1,33.1,0,0,1,1.55,5c-.06,1.77-.11,3.56-.19,5.37s-.18,3.64-.35,5.48a152,152,0,0,1,27.47,14.38,21.62,21.62,0,0,1,2-1.56q1.61-1.84,3.15-3.72a116.67,116.67,0,0,0,15.74-24.54c.72-1,1.39-2.13,2-3.26,1.9-3.41,3.44-7.23,5-10.86a38.19,38.19,0,0,0,1.81-4.73C245.16,233.31,236.1,225.35,225.78,221.35Z" style="fill:#f1f3f7"/><path d="M180.2,292.22l6.53,13,11.36-8.79.51-8.17.35-5.53a57.45,57.45,0,0,0-.54-15.94c-.26-1.75-.54-3.51-.82-5.26-1.25-10.74-1.25-21.74,3.75-31.74,0-1-3.49-2.49-4.49-2.49-5.28,4.86-9.51,11.49-10.51,18.49,0,6-2,11-.44,16.56.06,1.39.1,2.78.09,4.18a33.77,33.77,0,0,1-2.29,12.73l-1.41,5.22Z" style="fill:#0076b7"/><path d="M196.69,220c1.64-1.17,3.64-3.17,5.64-3.17,2.79,2.23,4.83,8.42,4.83,8.42s-4.51,2.82-5.83,4.58a8.75,8.75,0,0,0-4.58-2.33Z" style="fill:#0076b7"/><path d="M202,216.07l-.08.52s4.56,13,11.91,10.45,7.45-7.79,7.45-7.79l-2-5.09Z" style="fill:#fff"/><path d="M83.67,268a35.73,35.73,0,0,1,3.58-1.17c1-.42,2-.83,3-1.2a12.62,12.62,0,0,1,3.11-1.19,38.8,38.8,0,0,1,4-.3c10.63.22,23.43,2.62,28.23,13,3.2,8.8-4,16.8-7.77,24.32a26.48,26.48,0,0,0-1.24,4c0,1.41.09,2.85.15,4.3s.14,2.91.28,4.38a121.63,121.63,0,0,0-22,11.51,17.29,17.29,0,0,0-1.63-1.24q-1.29-1.47-2.52-3A93.34,93.34,0,0,1,78.32,301.8c-.57-.83-1.11-1.7-1.62-2.61-1.52-2.73-2.76-5.78-4-8.69a30.55,30.55,0,0,1-1.45-3.79C68.16,277.53,75.41,271.15,83.67,268Z" style="fill:#f1f3f7"/><path d="M120.13,324.65l-5.23,10.4-9.09-7-.41-6.53-.28-4.42a46,46,0,0,1,.43-12.75c.2-1.4.43-2.8.66-4.2,1-8.59,1-17.39-3-25.39,0-.8,2.79-2,3.59-2,4.22,3.89,7.61,9.19,8.41,14.79,0,4.8,1.6,8.8.35,13.25,0,1.11-.08,2.22-.07,3.34a27,27,0,0,0,1.84,10.18l1.13,4.17Z" style="fill:#0076b7"/><path d="M106.93,266.85c-1.31-.93-2.91-2.53-4.51-2.53-2.23,1.79-3.87,6.73-3.87,6.73s3.61,2.25,4.67,3.67a7,7,0,0,1,3.67-1.87Z" style="fill:#0076b7"/><path d="M102.65,263.73l.07.41s-3.65,10.42-9.53,8.36-6-6.23-6-6.23l1.58-4.08Z" style="fill:#fff"/></g><path d="M207.29,203.47a28.1,28.1,0,0,1-7.38,2.62c-1.26.28-2.54.49-3.82.69-20.81,9.09-31.81-13.91-48.22-23.45a15.14,15.14,0,0,0-4.78-.36c-3.19.28-6.16,1.64-7.45,4.39-2.05,4.38-.5,8.55,2.14,12.4a46.37,46.37,0,0,0,2.92,3.75c6.58,6.36,11.58,14.36,17.87,22.58,1.1,1.24,2.24,2.44,3.42,3.59s2.41,2.25,3.7,3.29c3.93,3.16,8.56,3.16,13.49,3.36a134.55,134.55,0,0,0,20.71-.94,110.23,110.23,0,0,0,11.33-2.07c1.1-.24,1.95.33,2.73-.88" style="fill:#f1f3f7"/><path d="M172.1,185.33c4.18,3.54,15.18,13.54,14.18,5.54,0-4-5-13-14.36-10.45A3.58,3.58,0,0,0,172.1,185.33Z" style="fill:#5b1010"/><path d="M132.34,191.89l11.53-8.68s-5-5.07-5.27-11.91S141,164.7,141,164.7s-19.72-9.11-19.54-9.22S118.17,172,118.17,172Z" style="fill:#b23c18"/><path d="M139.84,179c5.44-10.16,4.44-19.16-7.56-22.09" style="fill:#b23c18"/><path d="M134.52,189.56a61,61,0,0,1-9.77-3.09c-1.6-.66-3.18-1.4-4.71-2.22-4.88-2.19-10.57-5.53-14.66-10a24.57,24.57,0,0,1-2.73-3.52,22.25,22.25,0,0,1-2.34-11.37,23.1,23.1,0,0,1,1-5.45c4-11.08,14-23.08,27-21.08a23.71,23.71,0,0,1,15,9c2,4,5,8,4,13a14.18,14.18,0,0,1-.46,3.58,16.94,16.94,0,0,1-5.93,8.85,18.92,18.92,0,0,1-3.08,2c-.77,1.29-2.15,1.68-3.72,1.75-3.91.91-8.11.62-11.23-1.17a9.39,9.39,0,0,1-2.7-2.29c-1.88-1.72-1.88-4.72-2.06-8" style="fill:#b23c18"/><path d="M132.34,191.89l11.53-8.68s-3.76-.35-4-7.19A15.94,15.94,0,0,1,143,165.33s-15.51,9.57-26.5-4.22C113.22,157,118.17,172,118.17,172Z" style="fill:#6b2a05"/><path d="M227.62,240.35c-4,9-12,19-23,13-2-2-6-4-7-7a17.67,17.67,0,0,1-1.5-5.87,11.67,11.67,0,0,0-1.5-5.12c-2-3-4-4-7-4-11,0-9,12-9,20-1,5,1,10,4,14,3,3,6,5,9,8a47.89,47.89,0,0,0,4.53,3.37c12.47,8.63,34.47,8.63,40.47-6.37,3-7,5-14,3.9-21.73" style="fill:#f1f3f7"/><path d="M189.91,207.32c-5.92-.44-12.92-5.44-15.92-2.44-1.5,2-1,5-.23,8.34.15.67.32,1.35.48,2a7.27,7.27,0,0,0,.16,1.34c.09.45.21.92.34,1.38a5.39,5.39,0,0,1,.49,2c0,.66,0,1.34,0,2,.09,2.91-.91,5.91.09,7.91,4,7,12,3,15.51-2.43a11.35,11.35,0,0,0,1.13-1.68,10.06,10.06,0,0,0,.8-1.89c.22-.5.42-1,.6-1.51a15.82,15.82,0,0,0,.46-1.52,9.06,9.06,0,0,0,.51-1.92,9.43,9.43,0,0,0-1.4-6.34l.73-1.28a22.94,22.94,0,0,0,1.28-2.59" style="fill:#b23c18;stroke:#6b2a05;stroke-miterlimit:10"/><path d="M249.15,172.43l.51,0Z" style="fill:#f7cfa2"/><path d="M248.72,172.45l.43,0Z" style="fill:#f7cfa2"/><path d="M247.17,173.19c-.31.45-.85,1.45-.66,2l3.14-2.8-.51,0-.43,0A1.78,1.78,0,0,0,247.17,173.19Z" style="fill:#f7cfa2"/><rect x="201.04" y="147.06" width="27.33" height="39.4" rx="10.68" ry="10.68" transform="translate(20.63 -23.61) rotate(6.61)" style="fill:#f0ba7a"/><circle cx="175.14" cy="161.02" r="10.61" transform="translate(-4.98 316.45) rotate(-83.39)" style="fill:#f7cfa2"/><circle cx="175.14" cy="161.02" r="6.99" transform="translate(-4.98 316.45) rotate(-83.39)" style="fill:#f0ba7a"/><circle cx="260.74" cy="170.94" r="10.61" transform="translate(60.91 410.27) rotate(-83.39)" style="fill:#f7cfa2"/><circle cx="260.74" cy="170.94" r="6.99" transform="translate(60.91 410.27) rotate(-83.39)" style="fill:#f0ba7a"/><path d="M262.45,161.74c11.67-47.33-15.34-37.83-39.35-40.61s-45.32,10.89-47.6,30.54L173,173.55c-.15,1.28-.27,2.34-.37,3.07-1.3,15.24,9.7,26.24,22,33.68q2.3,1.44,4.59,2.62A39,39,0,0,0,212,217.24c13.1,1.52,45.32-10.89,47.6-30.54C260.06,182.31,261.39,166,262.45,161.74Z" style="fill:#f7cfa2"/><path d="M248.32,149.43c-.92-1.16,1.4-3,1.4-3,6.37-.32,6.2,10.21,12.81,7.81,2.2-.8,1.64-5.08,2-8.21,1.72,6.91,4.15,1.89,8.16.44.75-3.41,1.44-6.26,1.63-7.93C277,115.08,258.47,98.18,235,95.46c-22.89-2.65-37.3,10.09-40.83,32.65,18.57-4,29.5,6.27,40,18.33C239,147,243.24,148.84,248.32,149.43Z" style="fill:#601515"/><path d="M221.68,114.43a1.14,1.14,0,0,0-.05-1.65h0a29.55,29.55,0,0,0-47.06,32.72,1.14,1.14,0,0,0,1.6.61C192.63,137.43,208.78,127.52,221.68,114.43Z" style="fill:#601515"/><path d="M253.75,170c-1,8.74-5.71,15.38-14.45,14.36s-13.4-8.73-12.38-17.47,7.31-15.19,16.05-14.18S254.77,161.22,253.75,170Z" style="fill:#601515;opacity:0.100000001490116"/><circle cx="240.32" cy="169.15" r="13.83" transform="translate(44.62 388.39) rotate(-83.39)" style="fill:#fff"/><circle cx="234.77" cy="173.87" r="6.62" transform="translate(35.02 387.06) rotate(-83.39)" style="fill:#601515"/><circle cx="234.77" cy="173.87" r="2.56" transform="translate(35.02 387.06) rotate(-83.39)"/><circle cx="233.47" cy="170.69" r="1.89" transform="translate(37.03 382.95) rotate(-83.39)" style="fill:#f9f9f9"/><path d="M254.05,170.74a13.83,13.83,0,0,0-27.29-4.35c9.08,1.47,18.2,2.83,27.28,4.41Z" style="fill:#f7cfa2"/><path d="M232.19,205.38s-9.5-.88-18.54-1.93-13.94-3.52-13.94-3.52a44.65,44.65,0,0,1,15.06-.54C223.81,200.43,232.19,205.38,232.19,205.38Z" style="fill:#ea6d50"/><rect x="210.5" y="154.97" width="12.69" height="35.61" rx="6.34" ry="6.34" transform="translate(21.34 -23.82) rotate(6.61)" style="fill:#f0ba7a"/><rect x="209.68" y="151.08" width="12.69" height="35.61" rx="6.34" ry="6.34" transform="translate(20.88 -23.75) rotate(6.61)" style="fill:#f7cfa2"/><path d="M192,127.3s10.68,6.33,15.66,10.5c6.87,5.76,22.61,8.2,22.61,8.2s-9.63-16.73-17-19.85S192,127.3,192,127.3Z" style="fill:#601515"/><path d="M189.89,105.56a58.7,58.7,0,0,1,6.84.9c3.19.77,8.74-1,8.74-1s-5.87-3.92-8.8-3.75S189.89,105.56,189.89,105.56Z" style="fill:#601515"/><path d="M211.36,93.89a58.7,58.7,0,0,0-2.33,6.49c-.77,3.19-4.87,7.32-4.87,7.32s-.8-7,.7-9.54S211.36,93.89,211.36,93.89Z" style="fill:#601515"/><ellipse cx="184.61" cy="178.17" rx="0.79" ry="1.58" transform="translate(-13.62 341.04) rotate(-83.39)" style="fill:#f0ba7a"/><ellipse cx="190.86" cy="178.89" rx="0.79" ry="1.58" transform="translate(-8.82 347.88) rotate(-83.39)" style="fill:#f0ba7a"/><path d="M188.94,181.83c-.66,1-1.66,2-2.66,0a7,7,0,0,1,1.18-1C188.33,181,189,181.4,188.94,181.83Z" style="fill:#f0ba7a"/><ellipse cx="240.61" cy="184.66" rx="0.79" ry="1.58" transform="translate(29.47 402.4) rotate(-83.39)" style="fill:#f0ba7a"/><ellipse cx="246.85" cy="185.38" rx="0.79" ry="1.58" transform="translate(34.28 409.24) rotate(-83.39)" style="fill:#f0ba7a"/><ellipse cx="243.37" cy="188.14" rx="0.79" ry="1.58" transform="translate(28.46 408.23) rotate(-83.39)" style="fill:#f0ba7a"/><path d="M177.58,135.06l-3.67,36.5,3.86-2.77L183,147.08s7.13-13.61,14.57-15.62,21.54-1.15,21.54-1.15l-11-7.2Z" style="fill:#601515;opacity:0.300000011920929"/><path d="M265.92,143.52,260,176.78,257,178l-.14-22.34s-3.83-14.88-10.61-18.54-20.71-6-20.71-6l12.36-4.49Z" style="fill:#601515;opacity:0.300000011920929"/><path d="M236,155.86l17.63-6.28a4.74,4.74,0,0,0,2.86-6.09h0a4.83,4.83,0,0,0-6.13-2.88l-17.63,6.28a4.74,4.74,0,0,0-2.86,6.09h0A4.83,4.83,0,0,0,236,155.86Z" style="fill:#5b1010"/><g style="opacity:0.600000023841858"><path d="M227.25,102.1c2.82,1.79,6.45,1.27,9.63,2s5.65,2.46,8.78,2.9c.7.1,1.32-.91.53-1.27-2.84-1.3-5.67-3-8.75-3.65s-7.17-1.43-10.13-.42a.27.27,0,0,0-.06.48Z" style="fill:#f7cfa2"/></g><path d="M216.75,162c-1,8.74-5.71,15.38-14.45,14.36s-13.4-8.73-12.38-17.47,7.31-15.19,16.05-14.18S217.77,153.22,216.75,162Z" style="fill:#601515;opacity:0.100000001490116"/><circle cx="203.32" cy="161.15" r="13.83" transform="translate(19.83 344.56) rotate(-83.39)" style="fill:#fff"/><circle cx="197.77" cy="164.87" r="6.62" transform="translate(11.22 342.34) rotate(-83.39)" style="fill:#601515"/><circle cx="197.77" cy="164.87" r="2.56" transform="translate(11.22 342.34) rotate(-83.39)"/><circle cx="196.47" cy="161.69" r="1.89" transform="translate(13.23 338.23) rotate(-83.39)" style="fill:#f9f9f9"/><path d="M217.05,162.74a13.83,13.83,0,0,0-27.29-4.35c9.08,1.47,18.2,2.83,27.28,4.41Z" style="fill:#f7cfa2"/><rect x="192.95" y="141.04" width="28.24" height="9.54" rx="4.77" ry="4.77" transform="translate(363.93 344.64) rotate(-163.42)" style="fill:#5b1010"/><path d="M179.91,235.56q-1.37-1-2.64-2.2A47.18,47.18,0,0,1,173.8,230c-1.11-1.19-2.16-2.44-3.16-3.74A42.88,42.88,0,0,1,168,222.6c-.85-1.29-1.65-2.65-2.39-4.07s-1.61-3.09-2.42-4.85-1.6-3.63-2.32-5.58c-.42-1.54-.89-3.16-1.32-4.81s-.85-3.34-1.17-5c-3-10.4,3-19.4,13-21.4,6-1,11,1,16,4a30.44,30.44,0,0,1,8,8c2,5,6,8,6.08,13.66a30.48,30.48,0,0,1,.33,3.34c1.06,6-3,11.11-8.24,12.67a11.41,11.41,0,0,1-4.06.46,13.63,13.63,0,0,0-3.59-1.11,15,15,0,0,1-3.51-1,11.4,11.4,0,0,0-2.41-2.16,19.8,19.8,0,0,1-3.2-1.75,18.82,18.82,0,0,1-2.85-2.35c-4.53-2.74-4.53-8.74-2.7-14" style="fill:#b23c18"/><path d="M138.46,178.88c1.31,2.06-3.64,5.61-1.16,7.11a2.24,2.24,0,0,0,1.89-.06c.18-.07,1.34-.69.82-1-1.78-1.08,2.59-4.88,1.35-6.82-.53-.84-3.26.21-2.9.78Z" style="fill:#6b2a05"/><path d="M179.37,234.82c1.17,1.69,2.57,1.32,4.06.87,3.43-1,6.08-.34,10.07-.38-1-5.34-3.72-6.47-.6-11.37" style="fill:#b23c18;stroke:#6b2a05;stroke-miterlimit:10"/><path d="M135.8,195.25c2.22-7,10.31-11.78,10.55-11.38.52.86-4.23-6.22-6.46-6-4.67,1.26-8.78,9.47-9.78,11.27-1.37,2.48,2.13,4.17,5.27,6" style="fill:#fff"/><path d="M191.45,224.91a66.69,66.69,0,0,1,1.83-7c-4,1-7,2-10.09-.73a27.44,27.44,0,0,1-3.22-2.56c-2-1.87-3.89-3.95-5.49-5.56a18.75,18.75,0,0,0-3.2-3.15,27.61,27.61,0,0,0,0,4.12,37.34,37.34,0,0,0,4.27,8.33c.86,1.32,1.75,2.62,2.64,3.92.51,1.1,1.08,2.22,1.66,3.35s1.16,2.27,1.72,3.42a7.71,7.71,0,0,0,.73,2.26,27.45,27.45,0,0,1,8.45-3C191,227.16,191.21,226,191.45,224.91Z" style="fill:#6b2a05"/><path d="M180.46,240.48c5.49-4.82,14.91-4.77,14.91-4.31,0,1-.41-7.51-2.41-8.51-4.65-1.33-12.41,3.58-14.19,4.61-2.45,1.42-.33,4.67,1.43,7.84" style="fill:#fff"/><path d="M157.75,237.16l-.11.48Z" style="fill:#f7cfa2"/><path d="M123,261.86c3.7,2.09,7.73,5.05,13.1,5.52,9.48.27,9.84-12.38,11.29-20.45.19-2,.36-4.1.53-6.11.67-1.25,3.25-3.07,5.45-2.69,12.18,5.72,9.53,21.15,8.59,31.88a23.36,23.36,0,0,1-4.67,8.73,25.62,25.62,0,0,1-5.28,3.76,60.32,60.32,0,0,1-5.7,2.69c-3.47,1-6.72,4.12-10.26,6.1" style="fill:#f1f3f7"/><path d="M159.59,240.92l-11.81,1.53a9.07,9.07,0,0,0-2.38-8.21c-3.57-3.48-4.77-1.9-4.77-1.9s1.18-3.78,2.34-7.55c.58-1.89,1.16-3.77,1.58-5.18s.69-2.35.65-2.34,2.56,1.58,5.22,3.14l5.33,3.11Z" style="fill:#b23c18"/><path d="M149.92,239.53a19.06,19.06,0,0,0-5-4c-1-.36-2.14-.53-3.21-.8a16.48,16.48,0,0,1-3.76-1.46,7.08,7.08,0,0,1-2.78-2.36c-.78-1.26,2.81-7,3.43-8.33" style="fill:#b23c18"/><path d="M150.91,239.15a14.7,14.7,0,0,0-4.36-3.67c-2.37-1.26-5.18-1.24-7.58-2.58-.93-.51-2.57-1.43-2.81-2.58a5.4,5.4,0,0,1,.78-2.67c.8-1.81,1.86-3.48,2.74-5.24.19-.38-1.81-.22-2.09.35-1.43,2.85-5.38,7.18-2.16,9.89,2.18,1.84,5,2.24,7.59,3a12.62,12.62,0,0,1,5.9,4.24c.34.43,2.35-.27,2-.74Z" style="fill:#b23c18"/><path d="M157.29,241.22a20.1,20.1,0,0,0,5.63-11.34q.11-.84.16-1.69c0-.6,0-1.21.06-1.84s.07-1.27.11-1.93a18.5,18.5,0,0,0,.22-2,19.63,19.63,0,0,0,0-2A25,25,0,0,0,160,210.15a14.87,14.87,0,0,0-1-1.38c-3.2-4.14-10.39-7.19-16.88-3.17a13.33,13.33,0,0,0-1.52,1,12.22,12.22,0,0,0-4.77,6.95,15.36,15.36,0,0,0-.5,1.78,16,16,0,0,0-.34,3.88,10.81,10.81,0,0,0,.28,2q0,.61.13,1.22a22.22,22.22,0,0,0,.48,2.4c.59,2.33,1.62,4.73,3.64,6a10.41,10.41,0,0,0,4.28,1.29,6.29,6.29,0,0,0,1.91,0,5.88,5.88,0,0,0,3-1c.35-.21.71-.45,1.05-.7a11.83,11.83,0,0,0,2.18-1.9,6.16,6.16,0,0,0,2.64-3.73,7,7,0,0,0,.19-1.48,4,4,0,0,0-.12-1.61c-.14-.63-.31-1.24-.38-1.5s-.23-.73-.36-1.11-.28-.77-.44-1.13a4.16,4.16,0,0,1-1.25-1.28,5.63,5.63,0,0,0-1.73-2.42" style="fill:#b23c18"/><path d="M158.15,241.44c7.58-8.59,9.59-25.22,1-34-7.08-7.24-20.13-4.74-23.93,4.73-3.3,8.22-.09,23.7,11.77,20.39,3.41-1,7.73-4.3,8.64-7.85,1-4.06-1.52-8.1-4.19-10.84-.56-.57-2.56.23-2,.86a16,16,0,0,1,3.87,6.4c1.47,5.6-4.57,11.4-10.42,10.16-8.13-1.73-8.09-15.34-4.79-20.89a12.06,12.06,0,0,1,17.21-3.67c3.6,2.47,5.58,6.74,6.54,10.88,1.85,8,0,17.31-5.42,23.45-.84,1,1.2,1,1.72.43Z" style="fill:#b23c18"/><path d="M141.57,230.82c2.26,3.37,6.11,6,10.43,8.13.86.42,1.75.83,2.64,1.21,1.65.71,2.65,1.71,4.65,2.71,0-1-1-2-1.42-3s-.84-2-1.21-2.94c-2.37-4.06-1.37-8.06-1.37-12.06a10.76,10.76,0,0,1-13,6.57C141.46,231.15,141.57,230.82,141.57,230.82Z" style="fill:#6b2a05"/><path d="M102.48,280.24c-1.89,6.91-2,16.25,7,17.94,2.05-.21,5.23.51,7.18-.72a12.88,12.88,0,0,0,3.56-2.62,8.51,8.51,0,0,1,3.21-2.2c2.51-.77,4.1-.41,5.8,1,6.21,5.08-.46,10.93-4.15,15.44-1.74,3.28-5.18,5.18-8.72,6.05-3.08.31-5.69.05-8.77.36a34.91,34.91,0,0,1-4.11-.19c-11-.89-23.43-11-19.89-22.27,1.54-5.33,3.64-10.21,7.83-14.06" style="fill:#f1f3f7"/><path d="M126.67,234.84l.33-.18Z" style="fill:#f7cfa2"/><path d="M126.39,235l.28-.15Z" style="fill:#f7cfa2"/><path d="M125.6,236c-.06.4-.11,1.22.19,1.53l1.2-2.83-.33.18-.28.15A1.3,1.3,0,0,0,125.6,236Z" style="fill:#f7cfa2"/><rect x="92.23" y="227.46" width="19.92" height="28.72" rx="7.78" ry="7.78" transform="translate(-71.97 45.38) rotate(-18.65)" style="fill:#f0ba7a"/><circle cx="74.32" cy="250.34" r="7.73" transform="translate(-76.16 36.91) rotate(-18.65)" style="fill:#ddaa78"/><circle cx="74.32" cy="250.34" r="5.1" transform="translate(-76.16 36.91) rotate(-18.65)" style="fill:#f0ba7a"/><circle cx="133.85" cy="230.25" r="7.73" transform="translate(-66.6 54.9) rotate(-18.65)" style="fill:#ddaa78"/><circle cx="133.85" cy="230.25" r="5.1" transform="translate(-66.6 54.9) rotate(-18.65)" style="fill:#f0ba7a"/><path d="M132.11,223.65c-7-34.84-21.88-20.17-38.58-14.53S67,230.4,71.65,244.06l5.86,17.36c4.61,13.66,28.25,18,38.58,14.53,9.11-3.07,26.49-21.28,21.88-34.94C136.93,238,132.74,226.81,132.11,223.65Z" style="fill:#ddaa78"/><path d="M119,219.93c-1-.48,0-2.42,0-2.42,4.1-2.19,7.26,4.8,10.87,1.17,1.2-1.21-.5-3.86-1.23-6,3.28,4,3.33,0,5.52-2.25-.56-2.48-1-4.57-1.39-5.74-5.51-16.32-23-21.68-39.33-16.17-15.91,5.37-21.45,18.26-16.76,34.23,11-8.39,21.4-5,32.08-.36C112.05,221.2,115.43,221.13,119,219.93Z" style="fill:#211205"/><path d="M90.51,205.15a.83.83,0,0,0-.55-1.07h0a21.54,21.54,0,0,0-20.84,36.21.83.83,0,0,0,1.24-.1C78.52,229.35,86.08,217.79,90.51,205.15Z" style="fill:#211205"/><path d="M128.93,231.77c2.05,6.08,1,11.91-5.06,14s-11.55-1.59-13.6-7.67.1-12.29,6.17-14.34S126.88,225.7,128.93,231.77Z" style="fill:#601515;opacity:0.100000001490116"/><circle cx="119.82" cy="235.42" r="10.08" transform="translate(-68.99 50.68) rotate(-18.65)" style="fill:#fff"/><circle cx="123.62" cy="235.05" r="3.16" transform="matrix(0.95, -0.32, 0.32, 0.95, -68.68, 51.88)" style="fill:#601515"/><circle cx="123.62" cy="235.05" r="1.23" transform="translate(-68.68 51.88) rotate(-18.65)"/><circle cx="122.41" cy="233.94" r="0.9" transform="translate(-68.38 51.43) rotate(-18.65)" style="fill:#f9f9f9"/><path d="M117,264.4c.51-1.94-.61-5.08,2.51-5.17a8.3,8.3,0,0,1,4.95,1.43,24.58,24.58,0,0,0-3.37.16.8.8,0,0,0-.39.13.82.82,0,0,0-.21.32c-.84,1.82-1.62,4.06-3.26,5.35s-3.81,1.08-5.72.62a4.31,4.31,0,0,1-.94-.1c-.9-.18-1.73-.49-2.69.46-.59.58-1.25,2.1-2.11,2.29-.63.14-2.31-.94-2.38-1.83,0-.37.54-.48.85-.29s.54.54.9.66a1.15,1.15,0,0,0,1.26-.79,13.08,13.08,0,0,0,.34-1.6,2.76,2.76,0,0,1,2.33-2.09,3.11,3.11,0,0,1,1.06,0c2.32,2.69,5.32-1.31,6.87.43" style="fill:#ea6d50"/><rect x="100.85" y="232.14" width="9.25" height="25.96" rx="4.62" ry="4.62" transform="translate(-72.85 46.6) rotate(-18.65)" style="fill:#f0ba7a"/><rect x="99.1" y="229.82" width="9.25" height="25.96" rx="4.62" ry="4.62" transform="translate(-72.2 45.92) rotate(-18.65)" style="fill:#ddaa78"/><path d="M74.94,222.87a117,117,0,0,1,13.59,2c6.32,1.66,17.45-1.63,17.45-1.63s-11.55-8-17.4-7.79S74.94,222.87,74.94,222.87Z" style="fill:#211205"/><path d="M66.79,209.18a42.79,42.79,0,0,1,4.79-1.53c2.34-.48,5.46-3.36,5.46-3.36s-5.09-.76-7,.27S66.79,209.18,66.79,209.18Z" style="fill:#211205"/><path d="M77.32,194.82a42.79,42.79,0,0,0,.49,5c.48,2.34-.93,6.34-.93,6.34s-2.71-4.37-2.51-6.5S77.32,194.82,77.32,194.82Z" style="fill:#211205"/><ellipse cx="85.9" cy="258.7" rx="1.15" ry="0.58" transform="translate(-78.22 41.06) rotate(-18.65)" style="fill:#f0ba7a"/><ellipse cx="90.25" cy="257.23" rx="1.15" ry="0.58" transform="translate(-77.52 42.37) rotate(-18.65)" style="fill:#f0ba7a"/><ellipse cx="88.81" cy="260.14" rx="1.15" ry="0.58" transform="translate(-78.53 42.06) rotate(-18.65)" style="fill:#f0ba7a"/><ellipse cx="124.84" cy="245.56" rx="1.15" ry="0.58" transform="translate(-71.97 52.82) rotate(-18.65)" style="fill:#f0ba7a"/><ellipse cx="129.18" cy="244.09" rx="1.15" ry="0.58" transform="translate(-71.28 54.13) rotate(-18.65)" style="fill:#f0ba7a"/><ellipse cx="127.74" cy="246.99" rx="1.15" ry="0.58" transform="translate(-72.28 53.82) rotate(-18.65)" style="fill:#f0ba7a"/><path d="M67.86,232.47l8.94,25.2,1.68-3L75.18,238.7s.47-11.19,4.74-14.83,13.85-7.46,13.85-7.46l-9.5-1.32Z" style="fill:#211205"/><path d="M128.72,210.56l6.48,23.76-1.66,1.74-7-14.68s-7.15-8.62-12.76-8.92-15.53,2.46-15.53,2.46L105,208.1Z" style="fill:#211205"/><path d="M110.89,227.08l12-6.56a3.46,3.46,0,0,0,1.35-4.71h0a3.52,3.52,0,0,0-4.75-1.36l-12,6.56a3.46,3.46,0,0,0-1.35,4.71h0A3.52,3.52,0,0,0,110.89,227.08Z" style="fill:#211205"/><g style="opacity:0.600000023841858"><path d="M90.36,195.28c2.31.28,4.44-1,6.64-1.61s4.72-.24,7-.93a.51.51,0,0,0-.13-1c-2.44,0-4.92-.19-7.31.45-2.11.57-4.78,1.21-6.37,2.76a.19.19,0,0,0,.14.33Z" style="fill:#f7cfa2"/></g><path d="M102.05,238c2.05,6.08,1,11.91-5.06,14s-11.55-1.59-13.6-7.67S83.49,232,89.57,230,100,231.93,102.05,238Z" style="fill:#601515;opacity:0.100000001490116"/><circle cx="92.94" cy="241.66" r="10.08" transform="translate(-72.4 42.41) rotate(-18.65)" style="fill:#fff"/><circle cx="96.74" cy="240.28" r="3.16" transform="translate(-71.76 43.55) rotate(-18.65)" style="fill:#601515"/><circle cx="96.74" cy="240.28" r="1.23" transform="translate(-71.76 43.55) rotate(-18.65)"/><circle cx="95.52" cy="239.17" r="0.9" transform="translate(-71.47 43.11) rotate(-18.65)" style="fill:#f9f9f9"/><path d="M81.36,237.7,93.26,231a3.5,3.5,0,0,0,1.22-4.84h0a3.62,3.62,0,0,0-4.85-1.43l-11.9,6.69a3.5,3.5,0,0,0-1.22,4.84h0A3.62,3.62,0,0,0,81.36,237.7Z" style="fill:#211205"/><path d="M157.63,240.06c-.92,2-8.43,1.81-9.34,0" style="fill:none;stroke:#6b2a05;stroke-miterlimit:10;stroke-width:0.729px"/><path d="M159.71,244.44c-4.85-2.2-11.41-.18-11.31.14.21.7-1.3-5.33-.11-6.45,3-1.91,9.41-.12,10.88.22,2,.47,1.22,3.19.66,5.77" style="fill:#fff"/><path d="M127.16,289a5,5,0,0,0-.67-3.18c-.52-1-1.22-1.84-1.82-2.76a16.48,16.48,0,0,1-1.78-3.62,7.08,7.08,0,0,1-.44-3.62c.28-1.45,6.8-3.25,8.17-3.81" style="fill:#b23c18"/><line x1="130.08" y1="294.36" x2="131.5" y2="277.46" style="fill:#b23c18;stroke:#6b2a05;stroke-miterlimit:10;stroke-width:0.729px"/><line x1="132.15" y1="276.96" x2="143.96" y2="279.19" style="fill:#b23c18;stroke:#6b2a05;stroke-miterlimit:10;stroke-width:0.729px"/><path d="M124,290.09c-.87,4.43,4.24,2.78,6,5.82l1.13,1.92.61-.42c2.52-1.53,4.52-4.53,8.52-5.53-2-3,1-10-5-8-3,0-5,1-8.06-.41" style="fill:#b23c18"/><path d="M131.76,297.4c2.69-.23,11.52-2.53,15.49-10.1a27.28,27.28,0,0,0,2.74-5.68,24.73,24.73,0,0,0,1.3-6.08c.09-.94.14-1.88.14-2.81s0-1.86-.11-2.78A15.42,15.42,0,0,0,148,263.2a8.66,8.66,0,0,0-1.07-1q-.59-.35-1.21-.68t-1.27-.62a14.12,14.12,0,0,0-16.35,1.87,13.14,13.14,0,0,0-1.28,1.13,10.09,10.09,0,0,0-3,8,13.31,13.31,0,0,0-.24,1.45c-1.32,6.45,2.68,10.45,6.68,12.45,4,3,8,1,11-3a12.17,12.17,0,0,0,.73-6.57" style="fill:#b23c18"/><path d="M133.31,292.36c3.1-3.67,6.5-11.39,5.84-10.77a10.75,10.75,0,0,1-14.51-.8c1.61,3.66,4.13,6.92,3.6,11.59,0,.16,0,.34,0,.5a15.92,15.92,0,0,1,2.57,2.31c.17-.22.35-.44.56-.66C132,293.82,132.69,293.1,133.31,292.36Z" style="fill:#6b2a05"/><path d="M130.58,302.1c-2.68-4.94-9.19-7.28-9.29-6.95-.23.74,2-5.42,3.64-5.65,3.52.2,7.74,5.77,8.73,7,1.36,1.66-.86,3.52-2.81,5.41" style="fill:#fff"/></svg>