<?xml version="1.0" encoding="utf-8"?>
<!-- Generator: Adobe Illustrator 21.1.0, SVG Export Plug-In . SVG Version: 6.00 Build 0)  -->
<svg version="1.1" xmlns="http://www.w3.org/2000/svg" xmlns:xlink="http://www.w3.org/1999/xlink" x="0px" y="0px"
	 viewBox="0 0 300 450" style="enable-background:new 0 0 300 450;" xml:space="preserve">
<style type="text/css">
	.st0{fill:#B27E49;}
	.st1{fill:#ECB8FF;}
	.st2{display:none;opacity:0.3;}
	.st3{fill:#F4E44A;}
	.st4{clip-path:url(#SVGID_2_);fill:#F1F3F7;}
	.st5{opacity:0.4;clip-path:url(#SVGID_2_);fill:#DCDDE0;}
	.st6{clip-path:url(#SVGID_2_);fill:#0076B7;}
	.st7{clip-path:url(#SVGID_2_);fill:#FFFFFF;}
	.st8{clip-path:url(#SVGID_2_);}
	.st9{fill:#FFFFFF;}
	.st10{clip-path:url(#SVGID_2_);fill:#F7CFA2;}
	.st11{fill:#F7CFA2;}
	.st12{fill:#F0BA7A;}
	.st13{fill:#601515;}
	.st14{fill:url(#SVGID_3_);}
	.st15{opacity:0.1;fill:#601515;}
	.st16{fill:#F9F9F9;}
	.st17{fill:url(#SVGID_4_);}
	.st18{fill:url(#SVGID_5_);}
	.st19{fill:url(#SVGID_6_);}
	.st20{fill:#EA6D50;}
	.st21{opacity:0.3;fill:#601515;}
	.st22{fill:#5B1010;}
	.st23{opacity:0.6;}
	.st24{fill:#A52323;}
	.st25{opacity:0.2;}
	.st26{fill:url(#SVGID_7_);}
	.st27{fill:#CE6117;}
	.st28{fill:url(#SVGID_8_);}
	.st29{fill:#8454D1;}
	.st30{clip-path:url(#SVGID_10_);fill:#393D47;}
	.st31{clip-path:url(#SVGID_10_);fill:#F0BA7A;}
	.st32{clip-path:url(#SVGID_10_);fill:#F1F3F7;}
	.st33{clip-path:url(#SVGID_10_);fill:#0076B7;}
	.st34{clip-path:url(#SVGID_10_);fill:#004868;}
	.st35{opacity:0.4;clip-path:url(#SVGID_10_);fill:#DCDDE0;}
	.st36{clip-path:url(#SVGID_10_);fill:#FFFFFF;}
	.st37{clip-path:url(#SVGID_10_);}
	.st38{fill:#393D47;}
	.st39{fill:url(#SVGID_11_);}
	.st40{fill:#EAA56C;}
	.st41{clip-path:url(#SVGID_13_);fill:#F1F3F7;}
	.st42{clip-path:url(#SVGID_13_);fill:#F0BA7A;}
	.st43{opacity:0.4;clip-path:url(#SVGID_13_);fill:#DCDDE0;}
	.st44{clip-path:url(#SVGID_13_);fill:#0076B7;}
	.st45{clip-path:url(#SVGID_13_);fill:#FFFFFF;}
	.st46{clip-path:url(#SVGID_13_);}
	.st47{clip-path:url(#SVGID_13_);fill:#F7CFA2;}
	.st48{fill:#F1F3F7;}
	.st49{fill:none;}
	.st50{fill:#A85848;}
	.st51{fill:#E85646;}
	.st52{fill:#EA4E39;}
	.st53{fill:#DCFFC5;}
	.st54{fill:#8BAA77;}
	.st55{clip-path:url(#SVGID_15_);fill:#F1F3F7;}
	.st56{opacity:0.4;clip-path:url(#SVGID_15_);fill:#DCDDE0;}
	.st57{clip-path:url(#SVGID_15_);fill:#0076B7;}
	.st58{clip-path:url(#SVGID_15_);fill:#FFFFFF;}
	.st59{clip-path:url(#SVGID_15_);}
	.st60{fill:#595959;}
	.st61{opacity:0.3;fill:#595959;}
	.st62{clip-path:url(#SVGID_27_);fill:#F1F3F7;}
	.st63{opacity:0.4;clip-path:url(#SVGID_27_);fill:#DCDDE0;}
	.st64{clip-path:url(#SVGID_27_);fill:#0076B7;}
	.st65{clip-path:url(#SVGID_27_);fill:#FFFFFF;}
	.st66{clip-path:url(#SVGID_27_);}
	.st67{clip-path:url(#SVGID_27_);fill:#F7CFA2;}
	.st68{opacity:0.7;fill:#7BCDDB;}
	.st69{fill:none;stroke:#F0BA7A;stroke-width:3;stroke-miterlimit:10;}
	.st70{clip-path:url(#SVGID_41_);fill:#F1F3F7;}
	.st71{opacity:0.4;clip-path:url(#SVGID_41_);fill:#DCDDE0;}
	.st72{clip-path:url(#SVGID_41_);fill:#0076B7;}
	.st73{clip-path:url(#SVGID_41_);fill:#FFFFFF;}
	.st74{clip-path:url(#SVGID_41_);}
	.st75{clip-path:url(#SVGID_41_);fill:#F7CFA2;}
	.st76{fill:#9E9E9E;}
	.st77{fill:#878787;}
	.st78{fill:#DDBD00;}
	.st79{clip-path:url(#SVGID_43_);fill:#F1F3F7;}
	.st80{opacity:0.4;clip-path:url(#SVGID_43_);fill:#DCDDE0;}
	.st81{clip-path:url(#SVGID_43_);fill:#0076B7;}
	.st82{clip-path:url(#SVGID_43_);fill:#FFFFFF;}
	.st83{clip-path:url(#SVGID_43_);}
	.st84{clip-path:url(#SVGID_43_);fill:#F7CFA2;}
	.st85{clip-path:url(#SVGID_45_);}
	.st86{opacity:0.4;fill:#DCDDE0;}
	.st87{fill:#0076B7;}
	.st88{opacity:0.3;}
	.st89{fill:#DCDDE0;}
	.st90{fill:#004868;}
	.st91{fill:#E02B41;}
	.st92{fill:#C69018;}
	.st93{fill:#EFE91B;}
	.st94{fill:#656D60;}
	.st95{clip-path:url(#SVGID_47_);fill:#F0BA7A;}
	.st96{clip-path:url(#SVGID_47_);fill:#F1F3F7;}
	.st97{opacity:0.4;clip-path:url(#SVGID_47_);fill:#DCDDE0;}
	.st98{clip-path:url(#SVGID_47_);fill:#0076B7;}
	.st99{clip-path:url(#SVGID_47_);fill:#FFFFFF;}
	.st100{clip-path:url(#SVGID_47_);}
	.st101{clip-path:url(#SVGID_47_);fill:#F7CFA2;}
	.st102{clip-path:url(#SVGID_49_);fill:#F1F3F7;}
	.st103{clip-path:url(#SVGID_49_);}
	.st104{fill:#B23C18;}
	.st105{fill:#6B2A05;}
	.st106{fill:#B23C18;stroke:#6B2A05;stroke-miterlimit:10;}
	.st107{fill:#DDAA78;}
	.st108{fill:#211205;}
	.st109{fill:none;stroke:#6B2A05;stroke-width:0.729;stroke-miterlimit:10;}
	.st110{fill:#B23C18;stroke:#6B2A05;stroke-width:0.729;stroke-miterlimit:10;}
	.st111{fill:#B72C34;}
	.st112{clip-path:url(#SVGID_51_);fill:#F1F3F7;}
	.st113{clip-path:url(#SVGID_51_);}
	.st114{clip-path:url(#SVGID_51_);fill:#F7CFA2;}
	.st115{fill:#F2C85F;}
	.st116{clip-path:url(#SVGID_53_);fill:#F0BA7A;}
	.st117{clip-path:url(#SVGID_53_);fill:#F1F3F7;}
	.st118{opacity:0.4;clip-path:url(#SVGID_53_);fill:#DCDDE0;}
	.st119{clip-path:url(#SVGID_53_);fill:#0076B7;}
	.st120{clip-path:url(#SVGID_53_);fill:#FFFFFF;}
	.st121{clip-path:url(#SVGID_53_);}
	.st122{clip-path:url(#SVGID_53_);fill:#F7CFA2;}
	.st123{clip-path:url(#SVGID_55_);}
	.st124{fill:#F4F0A6;}
	.st125{fill:#9E921E;}
	.st126{clip-path:url(#SVGID_57_);fill:#F0BA7A;}
	.st127{clip-path:url(#SVGID_57_);fill:#F1F3F7;}
	.st128{clip-path:url(#SVGID_57_);}
	.st129{clip-path:url(#SVGID_57_);fill:#393D47;}
	.st130{clip-path:url(#SVGID_57_);fill:#FFFFFF;}
	.st131{opacity:0.4;clip-path:url(#SVGID_57_);fill:#DCDDE0;}
	.st132{clip-path:url(#SVGID_57_);fill:#0076B7;}
	.st133{fill:#1F74C9;}
	.st134{clip-path:url(#SVGID_59_);}
	.st135{fill:#023142;}
	.st136{clip-path:url(#SVGID_61_);fill:#F7CFA2;}
	.st137{clip-path:url(#SVGID_61_);}
	.st138{opacity:0.3;fill:#E57257;}
	.st139{fill:#777777;}
	.st140{clip-path:url(#SVGID_63_);fill:#F1F3F7;}
	.st141{opacity:0.4;clip-path:url(#SVGID_63_);fill:#DCDDE0;}
	.st142{clip-path:url(#SVGID_63_);fill:#0076B7;}
	.st143{clip-path:url(#SVGID_63_);fill:#FFFFFF;}
	.st144{clip-path:url(#SVGID_63_);}
	.st145{clip-path:url(#SVGID_63_);fill:#F7CFA2;}
	.st146{clip-path:url(#SVGID_65_);fill:#F0BA7A;}
	.st147{clip-path:url(#SVGID_65_);fill:#F1F3F7;}
	.st148{opacity:0.4;clip-path:url(#SVGID_65_);fill:#DCDDE0;}
	.st149{clip-path:url(#SVGID_65_);fill:#0076B7;}
	.st150{clip-path:url(#SVGID_65_);fill:#FFFFFF;}
	.st151{clip-path:url(#SVGID_65_);}
	.st152{clip-path:url(#SVGID_65_);fill:#F7CFA2;}
</style>
<g id="Layer_1">
	<circle class="st53" cx="150" cy="217.4" r="99.7"/>
	<path class="st54" d="M175.9,200.5c-2-8.1-8.3-16.2-13.6-21.5c-7.1-7.3-17-10.7-26.3-5.1c-10,6-16,13-21,23c-2,4,0,8-1.6,10.8
		c-0.2,2.4-0.2,4.9,0,7.3c0.4,5.5,1.6,10.9,3.5,16c0.6,1.7,1.4,3.3,2.1,4.9c0,10,0,19,0.2,28.7c0,1.6,0,3.2,0,4.8
		c-0.4,2.8-0.7,5.7-0.8,8.4c-0.1,2.7,0,5.4,0.2,8c-0.6,20.1,17.4,34.1,37.4,30.1c4-1,8-2,11-4c5-4,6-9,7-14c1-10,0-19-1.5-28.9
		c-1.2-7.9,1.5-17,1.1-25.2c-0.4-9.4-1.3-19,1-28.3c0.7-2.9,1.7-5.8,1.9-8.7C176.6,204.7,176.4,202.6,175.9,200.5z"/>
	<g>
		<defs>
			<path id="SVGID_14_" d="M248.3,218.5c0,55.1-44.7,99.7-99.7,99.7s-99.7-44.7-99.7-99.7c0-55.1-18.2-171.1,112.2-162.6
				C216,59.5,248.3,163.5,248.3,218.5z"/>
		</defs>
		<clipPath id="SVGID_2_">
			<use xlink:href="#SVGID_14_"  style="overflow:visible;"/>
		</clipPath>
		<path class="st4" d="M179.2,277.1c0-6.7-0.2-11.4-5.6-13.7c-3.2-1.4-10.5-2.5-14.7-2.3l-16.5,0.8c-5,0.2-13.1,1.7-16.6,4.1
			c-4.3,2.9-3.6,7.2-3.6,13.1v46.4c0,2.9,0.7,5.7,1.9,8.1c17.4,0.4,34.9-0.6,52.4-0.8c1.7-2.9,2.7-6.3,2.7-9.8V277.1z"/>
		<path class="st4" d="M129.7,266.6l2,0.7c3.3,0.9,3.2,8-0.1,15.8l-5.7,15.6l-5.9,18.2c-1.8,4.3-3,7.7-5.1,9.3
			c-1.7,1.3-4.4,1.5-5.9,1.1l-4.8-1.3c-1.2-0.3-3.1-1.5-3.6-2.8c-0.8-2.3,0.6-5.6,2.7-10.5c0,0,9.8-24.7,7.5-18.4s3.9-10.1,7.8-18.4
			C122.5,267.4,126.5,265.7,129.7,266.6z"/>
		<path class="st4" d="M170.5,263.3l-2,0.7c-3.3,0.9-3.2,8,0.1,15.8l5.7,15.6l5.9,18.2c1.8,4.3,3,7.7,5.1,9.3
			c1.7,1.3,4.4,1.5,5.9,1.1l4.8-1.3c1.2-0.3,3.1-1.5,3.6-2.8c0.8-2.3-0.6-5.6-2.7-10.5c0,0-9.8-24.7-7.5-18.4s-3.9-10.1-7.8-18.4
			C177.7,264.2,173.8,262.4,170.5,263.3z"/>
		<polygon class="st5" points="150.8,279.3 150.8,261.5 158.5,265.1 		"/>
		<polygon class="st5" points="150.8,279.3 150.8,261.5 143.1,265.1 		"/>
		<polygon class="st6" points="156.4,264.4 150.6,261.6 146,265.1 149,269.7 152.9,269.8 		"/>
		<polygon class="st6" points="158.2,309.3 151.8,316.5 144.3,310.1 149,269.7 152.9,269.8 		"/>
		<polygon class="st7" points="150.8,261.5 150.8,261.8 158.2,268.2 161.4,261.6 159.9,258.7 		"/>
		<polygon class="st7" points="150.8,261.5 150.8,261.8 143.4,268.2 140.2,261.6 141.7,258.7 		"/>
		<g class="st8">
			<polygon class="st9" points="158.2,292.6 164.7,295.9 171.3,292.6 171.3,282.8 158.2,282.8 			"/>
			<rect x="158.2" y="278.7" class="st9" width="13.1" height="3"/>
		</g>
	</g>
	<g>
		<defs>
			<path id="SVGID_16_" d="M248,218.6c0,55.1-44.7,99.7-99.7,99.7s-99.7-44.7-99.7-99.7S93.2,52.8,148.3,52.8
				C203.3,52.8,248,163.5,248,218.6z"/>
		</defs>
		<clipPath id="SVGID_3_">
			<use xlink:href="#SVGID_16_"  style="overflow:visible;"/>
		</clipPath>
	</g>
	<path class="st54" d="M107.3,208.6c-0.6,5.9,3.9,6.8,7.1,9.9c1.2,0.9,2.5,1.7,3.8,2.6c2.6,1.7,5.1,3.5,7,5.8
		c1.6,1.6,2.9,3.2,3.7,4.7c1.7,3.1,1.5,6.2-1.9,8.7c-5,4.4-10.7,2.7-15.8-0.3c-1.7-1-3.3-2.1-4.8-3.2c-6.5-5.3-15.1-8.6-21.4-13.5
		c-1.6-1.2-3-2.5-4.3-4c-3.3-6.6-2.6-12.3,0.5-17.4c1-1.7,2.3-3.3,3.8-4.8c11.6-7.8,26.9-22.2,40.4-15.9c0.9,0.9,1.8,3.6,1.8,5.4
		c-0.9,9.9-10.8,12.6-17.1,18C109.1,205.9,108.1,207.3,107.3,208.6z"/>
	<path class="st60" d="M96,231.7c-1-10.8-2-20.8-7-30.6c-0.8-1.5-1.7-2.9-2.7-4.1c-3-3.6-6.9-5.8-12.4-5.4c-1.8,0.1-3.8,0.5-6,1.3
		c-27,11-22.5,40.5-11.9,61.8c0.9,2.3,3,6.8,4.1,9c5,10.8,13.9,22.1,21.7,27.8c2.7,2,12.6,10.3,12.9,9.5c0.6-1.7,0.9-20.3,0.7-22.2
		c-0.4-3.3,0.6-15.8-0.1-25.1c-0.2-2.3-0.3-4.7-0.3-7.1c0-2.4,0.2-4.8,0.7-7.1C95.9,236.8,96,234.2,96,231.7z"/>
	<path class="st60" d="M43.3,221.3c0.6,1.8,1.5,3.3,2.6,4.6c1.1,1.4,2.4,2.6,3.8,3.7c7.3,5.2,22.3,14.2,14.3,20.2
		c-5.2,4.5-11.3,0.7-15.8-2.7c-2.6-1.9-5.1-4.1-7.9-5.9c-3-1.9-6.2-3.4-9.2-5.2c-3.7-2.3-7.2-5.6-8.2-9.9c-1-4.6,1.1-9.4,4.3-12.8
		c4.6-4.8,38.5-24.4,38.5-7.5c0,3.1-2.8,5.6-5.2,7.2c-2.1,1.3-4.4,2.1-6.7,2.8c-2,0.6-5.3,0.8-7,2C45.2,219,44,220.1,43.3,221.3z"/>
	<path class="st60" d="M100.2,222.1c-0.5,1.4-1.2,2.6-2.1,3.7s-1.9,2-3,2.9c-5.8,4.2-17.8,11.4-11.4,16.2c6.4,5.6,13.6-4,20.4-7.6
		c1.2-0.8,2.5-1.5,3.8-2.2c3-1.7,5.9-3,7.6-6.2c1.5-2.8,1.8-6.3,0.5-9.3c-1.2-2.8-3.6-5-6.2-6.8c-4.2-2.9-27.3-15.7-27.3-3.1
		c0,1.4,0.6,2.5,1.6,3.5c2.9,3.7,8.5,4.5,13.6,6.1C98.7,220.3,99.7,221.2,100.2,222.1z"/>
	<g>
		<path class="st54" d="M171.7,150.5c0.1,0,0.2,0,0.3-0.1C171.9,150.4,171.8,150.4,171.7,150.5z"/>
		<path class="st54" d="M171.4,150.5c0.1,0,0.2,0,0.3-0.1C171.6,150.5,171.5,150.5,171.4,150.5z"/>
		
			<ellipse transform="matrix(0.9997 -2.296130e-02 2.296130e-02 0.9997 -3.4059 2.8664)" class="st54" cx="123.1" cy="149.7" rx="6.9" ry="6.9"/>
		
			<ellipse transform="matrix(0.9997 -2.296130e-02 2.296130e-02 0.9997 -3.3617 4.1486)" class="st54" cx="179" cy="148.5" rx="6.9" ry="6.9"/>
		
			<ellipse transform="matrix(0.9997 -2.296130e-02 2.296130e-02 0.9997 -3.3617 4.1486)" class="st54" cx="179" cy="148.5" rx="4.5" ry="4.5"/>
		<path class="st54" d="M179.2,142.4c3.3-31.4-13.2-22.9-28.9-22.6c-15.7,0.4-28.1,11-27.8,23.9c0.1,2.9,0.3,13.4,0.4,16.3
			c0.3,12.8,19.2,22.8,28.9,22.6c8.5-0.2,28.1-11,27.8-23.9C179.6,155.8,178.9,145.3,179.2,142.4z"/>
		<path class="st54" d="M164.5,151.1c14.4-3.3,23.4-16.3,18-31.7c-0.5-1.4-1.2-2.7-2-3.9c-0.8-1.3-1.7-2.5-2.7-3.7c-7-8-19-10-29-9
			c-3,0-5,3-8,4c-1.5,1-2.5,2.2-3.4,3.5s-1.6,2.5-2.6,3.5c-2,4-1,9-3,13c13,1,14,17,22,25c1,1,3,0,5.2,0.1
			C160.9,152,162.6,151.7,164.5,151.1z"/>
		<path class="st54" d="M148.8,115.7c0.3-0.3,0.2-0.8-0.2-1.1c0,0,0,0,0,0c-8.9-5.8-20.7-3.3-26.5,5.6c-4,6.1-4,13.7-0.8,19.7
			c0.2,0.4,0.7,0.5,1.1,0.2C132.2,133,141.7,125.2,148.8,115.7z"/>
		<path class="st54" d="M141,173.8c0,0,4.7-3.8,10.6-4s10.8,3.5,10.8,3.5s-5.2-0.9-11.1-0.8C145.3,172.7,141,173.8,141,173.8z"/>
	</g>
	<path class="st54" d="M166.4,201.3c-0.6,1.8-1.5,3.3-2.6,4.6c-1.1,1.4-2.4,2.6-3.8,3.7c-7.3,5.2-22.3,14.2-14.3,20.2
		c5.2,4.5,11.3,0.7,15.8-2.7c2.6-1.9,5.1-4.1,7.9-5.9c3-1.9,6.2-3.4,9.2-5.2c3.7-2.3,7.2-5.6,8.2-9.9c1-4.6-1.1-9.4-4.3-12.8
		c-4.6-4.8-38.5-24.4-38.5-7.5c0,3.1,2.8,5.6,5.2,7.2c2.1,1.3,4.4,2.1,6.7,2.8c2,0.6,5.3,0.8,7,2C164.6,199,165.8,200.1,166.4,201.3
		z"/>
	<path class="st54" d="M190.6,209.7c-0.7,2-1.7,3.8-3,5.3c-1.3,1.6-2.7,2.9-4.4,4.2c-8.4,6-25.6,16.4-16.4,23.3
		c9.2,8.1,19.6-5.8,29.3-11c1.8-1.1,3.6-2.2,5.4-3.2c4.3-2.5,8.5-4.4,10.9-9c2.1-4.1,2.6-9.1,0.7-13.3c-1.8-4.1-5.2-7.2-8.9-9.7
		c-6.1-4.1-39.4-22.6-39.4-4.4c0,2,0.9,3.7,2.3,5.1c4.2,5.3,12.3,6.4,19.6,8.8C188.5,206.9,189.8,208.3,190.6,209.7z"/>
	<g>
		<path class="st60" d="M199,186.9c-0.1,0-0.2,0-0.3,0.1C198.8,186.9,198.9,186.9,199,186.9z"/>
		<path class="st60" d="M199.3,186.8c-0.1,0-0.2,0-0.3,0.1C199.1,186.9,199.2,186.9,199.3,186.8z"/>
		<path class="st60" d="M200.4,187.1c0.3,0.2,0.8,0.8,0.7,1.2l-2.4-1.3c0.1,0,0.2,0,0.3-0.1c0.1,0,0.2,0,0.3-0.1
			C199.7,186.8,200,186.8,200.4,187.1z"/>
		
			<ellipse transform="matrix(0.9393 -0.3432 0.3432 0.9393 -43.0192 93.9563)" class="st60" cx="244" cy="168.5" rx="6.9" ry="6.9"/>
		
			<ellipse transform="matrix(0.9393 -0.3432 0.3432 0.9393 -52.7863 77.111)" class="st60" cx="191.5" cy="187.7" rx="6.9" ry="6.9"/>
		<path class="st60" d="M189,182.2c-14.5-28.1,4-26.2,18.7-31.5c14.7-5.4,30.2,0,34.6,12.1c1,2.7,4.6,12.6,5.6,15.3
			c4.4,12-9.6,28.2-18.7,31.5c-8,2.9-30.2,0-34.6-12.1C193.6,194.8,190.3,184.7,189,182.2z"/>
		<path class="st60" d="M196.1,172.3c0.4-0.9-1.3-1.7-1.3-1.7c-4.1,0.8-2.4,7.4-6.9,6.9c-1.5-0.2-1.8-3-2.5-4.9
			c0,4.6-2.3,1.8-5.1,1.5c-1-2-1.8-3.7-2.2-4.8c-5.3-14.4,3.9-27.8,18.3-33.1c14-5.1,25,0.7,30.7,14.4c-12.3,0.3-17.7,8.4-22.5,17.6
			C201.6,169.3,199.2,171.1,196.1,172.3z"/>
		<path class="st60" d="M207.6,146.2c-0.4-0.2-0.5-0.7-0.2-1c0,0,0,0,0,0c6.1-8.6,18.1-10.6,26.7-4.5c5.9,4.2,8.7,11.2,7.9,18
			c-0.1,0.4-0.5,0.7-0.9,0.6C229.4,156.3,217.7,152.5,207.6,146.2z"/>
		<path class="st60" d="M226.3,135.8c0,0-2.8,0.9-4.2,1.6c-1.9,1-5.7,0.7-5.7,0.7s3.1-3.4,5-3.7
			C223.3,134.1,226.3,135.8,226.3,135.8z"/>
		<path class="st60" d="M211,131.7c0,0,1.7,2.4,2.4,3.7c1,1.9,4.2,3.9,4.2,3.9s-0.6-4.5-1.9-5.9C214.4,132,211,131.7,211,131.7z"/>
		
			<ellipse transform="matrix(0.9393 -0.3432 0.3432 0.9393 -47.4254 93.5371)" class="st60" cx="240.6" cy="180.8" rx="1" ry="0.5"/>
		<ellipse transform="matrix(0.9393 -0.3432 0.3432 0.9393 -48.396 93.2789)" class="st60" cx="239.4" cy="183.4" rx="1" ry="0.5"/>
		<ellipse transform="matrix(0.9393 -0.3432 0.3432 0.9393 -54.5264 81.29)" class="st60" cx="202.4" cy="194.7" rx="1" ry="0.5"/>
		<ellipse transform="matrix(0.9393 -0.3432 0.3432 0.9393 -54.7846 82.2607)" class="st60" cx="205" cy="195.9" rx="1" ry="0.5"/>
	</g>
	<path class="st60" d="M201,231.7c1-10.8,2-20.8,7-30.6c0.8-1.5,1.7-2.9,2.7-4.1c3-3.6,6.9-5.8,12.4-5.4c1.8,0.1,3.8,0.5,6,1.3
		c27,11,22.5,40.5,11.9,61.8c-0.9,2.3-3,6.8-4.1,9c-5,10.8-13.9,22.1-21.7,27.8c-2.7,2-12.6,10.3-12.9,9.5
		c-0.6-1.7-0.9-20.3-0.7-22.2c0.4-3.3-0.6-15.8,0.1-25.1c0.2-2.3,0.3-4.7,0.3-7.1c0-2.4-0.2-4.8-0.7-7.1
		C201,236.8,201,234.2,201,231.7z"/>
	<path class="st60" d="M253.6,221.3c-0.6,1.8-1.5,3.3-2.6,4.6c-1.1,1.4-2.4,2.6-3.8,3.7c-7.3,5.2-22.3,14.2-14.3,20.2
		c5.2,4.5,11.3,0.7,15.8-2.7c2.6-1.9,5.1-4.1,7.9-5.9c3-1.9,6.2-3.4,9.2-5.2c3.7-2.3,7.2-5.6,8.2-9.9c1-4.6-1.1-9.4-4.3-12.8
		c-4.6-4.8-38.5-24.4-38.5-7.5c0,3.1,2.8,5.6,5.2,7.2c2.1,1.3,4.4,2.1,6.7,2.8c2,0.6,5.3,0.8,7,2C251.8,219,252.9,220.1,253.6,221.3
		z"/>
	<path class="st60" d="M196.7,222.1c0.5,1.4,1.2,2.6,2.1,3.7s1.9,2,3,2.9c5.8,4.2,17.8,11.4,11.4,16.2c-6.4,5.6-13.6-4-20.4-7.6
		c-1.2-0.8-2.5-1.5-3.8-2.2c-3-1.7-5.9-3-7.6-6.2c-1.5-2.8-1.8-6.3-0.5-9.3c1.2-2.8,3.6-5,6.2-6.8c4.2-2.9,27.3-15.7,27.3-3.1
		c0,1.4-0.6,2.5-1.6,3.5c-2.9,3.7-8.5,4.5-13.6,6.1C198.2,220.3,197.3,221.2,196.7,222.1z"/>
	<g>
		<path class="st11" d="M172.1,230.2c0.1,0,0.2,0,0.3-0.1C172.3,230.2,172.2,230.2,172.1,230.2z"/>
		<path class="st11" d="M171.8,230.3c0.1,0,0.2,0,0.3,0C172,230.3,171.9,230.3,171.8,230.3z"/>
		<path class="st11" d="M170.9,230.9c-0.2,0.3-0.4,1-0.3,1.3l1.8-2c-0.1,0-0.2,0-0.3,0.1c-0.1,0-0.2,0-0.3,0
			C171.5,230.4,171.1,230.5,170.9,230.9z"/>
		<path class="st12" d="M151.5,242l-3.9,0c-3.8,0-6.9-3.1-7-6.9l-0.1-11.7c0-3.8,3.1-6.9,6.9-7l3.9,0c3.8,0,6.9,3.1,7,6.9l0.1,11.7
			C158.4,238.9,155.3,242,151.5,242z"/>
		
			<ellipse transform="matrix(1 -5.523084e-03 5.523084e-03 1 -1.2612 0.6861)" class="st11" cx="123.6" cy="228.7" rx="6.9" ry="6.9"/>
		
			<ellipse transform="matrix(1 -5.523084e-03 5.523084e-03 1 -1.2612 0.6861)" class="st12" cx="123.6" cy="228.7" rx="4.5" ry="4.5"/>
		
			<ellipse transform="matrix(1 -5.523084e-03 5.523084e-03 1 -1.2586 0.9947)" class="st11" cx="179.5" cy="228.4" rx="6.9" ry="6.9"/>
		
			<ellipse transform="matrix(1 -5.523084e-03 5.523084e-03 1 -1.2586 0.9947)" class="st12" cx="179.5" cy="228.4" rx="4.5" ry="4.5"/>
		<path class="st11" d="M179.8,222.3c3.8-31.4-12.8-23.1-28.5-23.1s-28.3,10.6-28.2,23.4c0,2.9,0.1,13.4,0.1,16.3
			c0.1,12.8,18.8,23.1,28.5,23.1c8.5,0,28.3-10.6,28.2-23.4C179.9,235.7,179.5,225.2,179.8,222.3z"/>
		<path class="st13" d="M169.8,215.5c-0.7-0.7,0.7-2,0.7-2c4.1-0.7,4.8,6.1,8.9,4c1.4-0.7,0.7-3.4,0.6-5.4c1.6,4.3,2.8,0.9,5.3-0.4
			c0.2-2.3,0.4-4.1,0.4-5.2c-0.1-15.3-13.4-24.7-28.7-24.7c-14.9,0.1-23.2,9.4-23.7,24.2c11.6-4,19.5,1.7,27.2,8.7
			C163.6,214.6,166.5,215.5,169.8,215.5z"/>
		<path class="st13" d="M149.9,195.1c0.3-0.3,0.2-0.8-0.2-1.1c0,0,0,0,0,0c-8.8-5.9-20.7-3.7-26.6,5.1c-4.1,6-4.3,13.6-1.1,19.6
			c0.2,0.4,0.7,0.5,1.1,0.3C133,212.1,142.6,204.5,149.9,195.1z"/>
		<g>
			<path class="st15" d="M174.9,228.3c0,5.7-2.5,10.3-8.2,10.4c-5.7,0-9.3-4.6-9.3-10.3c0-5.7,3.5-10.3,9.2-10.4
				C172.3,218,174.9,222.6,174.9,228.3z"/>
			<ellipse transform="matrix(1 -5.523084e-03 5.523084e-03 1 -1.2612 0.9213)" class="st9" cx="166.2" cy="228.8" rx="9" ry="9"/>
			<g>
				
					<ellipse transform="matrix(1 -5.523084e-03 5.523084e-03 1 -1.2872 0.9214)" class="st13" cx="166.2" cy="233.5" rx="4.3" ry="4.3"/>
				<ellipse transform="matrix(1 -5.523084e-03 5.523084e-03 1 -1.2872 0.9214)" cx="166.2" cy="233.5" rx="1.7" ry="1.7"/>
				
					<ellipse transform="matrix(1 -5.523084e-03 5.523084e-03 1 -1.2764 0.9154)" class="st16" cx="165.1" cy="231.6" rx="1.2" ry="1.2"/>
			</g>
		</g>
		<g>
			<path class="st15" d="M128,228.5c0,5.7,2.6,10.3,8.3,10.3c5.7,0,9.3-4.7,9.2-10.4c0-5.7-3.6-10.3-9.3-10.3
				C130.5,218.2,128,222.8,128,228.5z"/>
			<ellipse transform="matrix(1 -5.522298e-03 5.522298e-03 1 -1.2624 0.7586)" class="st9" cx="136.7" cy="229" rx="9" ry="9"/>
			
				<ellipse transform="matrix(1 -5.522298e-03 5.522298e-03 1 -1.2888 0.7583)" class="st13" cx="136.7" cy="233.8" rx="4.3" ry="4.3"/>
			<ellipse transform="matrix(1 -5.522298e-03 5.522298e-03 1 -1.2888 0.7583)" cx="136.7" cy="233.8" rx="1.7" ry="1.7"/>
			
				<ellipse transform="matrix(1 -5.522298e-03 5.522298e-03 1 -1.2781 0.7526)" class="st16" cx="135.6" cy="231.8" rx="1.2" ry="1.2"/>
		</g>
		<path class="st20" d="M141,253c0,0,4.8-3.7,10.7-3.8c5.9,0,10.7,3.7,10.7,3.7s-5.2-1-11.1-1C145.4,252,141,253,141,253z"/>
		<path class="st12" d="M151.4,244.5L151.4,244.5c-2.3,0-4.1-1.8-4.1-4.1l-0.1-14.9c0-2.3,1.8-4.1,4.1-4.1h0c2.3,0,4.1,1.8,4.1,4.1
			l0.1,14.9C155.5,242.7,153.7,244.5,151.4,244.5z"/>
		<path class="st11" d="M150.6,242.1L150.6,242.1c-2.3,0-4.1-1.8-4.1-4.1l-0.1-14.9c0-2.3,1.8-4.1,4.1-4.1h0c2.3,0,4.1,1.8,4.1,4.1
			l0.1,14.9C154.7,240.2,152.9,242.1,150.6,242.1z"/>
		<path class="st13" d="M131.8,205.7c0,0,7.4,3.2,10.9,5.5c4.9,3.2,15.2,3.5,15.2,3.5s-7.5-10-12.5-11.4S131.8,205.7,131.8,205.7z"
			/>
		<path class="st13" d="M128.8,191.8c0,0,2.9-0.1,4.5,0c2.1,0.2,5.5-1.3,5.5-1.3s-4.1-2.1-6-1.7S128.8,191.8,128.8,191.8z"/>
		<path class="st13" d="M141.7,182.6c0,0-0.8,2.8-1,4.4c-0.2,2.1-2.6,5.1-2.6,5.1s-1.1-4.5-0.3-6.2
			C138.6,184.2,141.7,182.6,141.7,182.6z"/>
		<ellipse transform="matrix(1 -5.523084e-03 5.523084e-03 1 -1.3179 0.7274)" class="st12" cx="131" cy="239" rx="1" ry="0.5"/>
		<ellipse transform="matrix(1 -5.523084e-03 5.523084e-03 1 -1.3177 0.7499)" class="st12" cx="135.1" cy="239" rx="1" ry="0.5"/>
		<ellipse transform="matrix(1 -5.523084e-03 5.523084e-03 1 -1.3291 0.7387)" class="st12" cx="133.1" cy="241" rx="1" ry="0.5"/>
		
			<ellipse transform="matrix(1 -5.523084e-03 5.523084e-03 1 -1.3162 0.9292)" class="st12" cx="167.6" cy="238.8" rx="1" ry="0.5"/>
		<ellipse transform="matrix(1 -5.523084e-03 5.523084e-03 1 -1.316 0.9517)" class="st12" cx="171.7" cy="238.8" rx="1" ry="0.5"/>
		
			<ellipse transform="matrix(1 -5.523084e-03 5.523084e-03 1 -1.3274 0.9405)" class="st12" cx="169.6" cy="240.8" rx="1" ry="0.5"/>
		<path class="st21" d="M123.1,211.8l0.5,23.8l2.3-2.1l1.7-14.4c0,0,3.5-9.3,8.2-11.2c4.6-1.9,13.8-2.4,13.8-2.4l-7.6-3.8
			L123.1,211.8z"/>
		<path class="st21" d="M180.7,210.3l-1.2,21.9l-1.9,1l-1.8-14.4c0,0-3.6-9.3-8.3-11.1s-13.8-2.3-13.8-2.3l7.6-3.9L180.7,210.3z"/>
		<path class="st22" d="M161.4,221.7l11.8,2.8c1.7,0.4,3.3-0.6,3.7-2.3v0c0.4-1.7-0.6-3.3-2.3-3.7l-11.8-2.8
			c-1.7-0.4-3.3,0.6-3.7,2.3l0,0C158.7,219.7,159.8,221.3,161.4,221.7z"/>
		<path class="st22" d="M131.5,224.7l11.3-4.3c1.6-0.6,2.4-2.4,1.8-4v0c-0.6-1.6-2.4-2.4-4-1.8l-11.3,4.3c-1.6,0.6-2.4,2.4-1.8,4v0
			C128.1,224.5,129.9,225.3,131.5,224.7z"/>
		<g class="st23">
			<path class="st11" d="M152.6,186.6c2.3,0.6,4.7,0,7.1,0.4c1.8,0.3,3.4,1,5.2,1.2c0.3,0,0.4-0.5,0.1-0.6c-4-1.1-8.1-2.5-12.3-1.2
				C152.5,186.5,152.5,186.6,152.6,186.6L152.6,186.6z"/>
		</g>
	</g>
	<g>
		<path class="st60" d="M97.9,186.9c0.1,0,0.2,0,0.3,0.1C98.1,186.9,98,186.9,97.9,186.9z"/>
		<path class="st60" d="M97.7,186.8c0.1,0,0.2,0,0.3,0.1C97.8,186.9,97.7,186.9,97.7,186.8z"/>
		
			<ellipse transform="matrix(0.3432 -0.9393 0.9393 0.3432 -123.4945 160.4547)" class="st60" cx="53" cy="168.5" rx="6.9" ry="6.9"/>
		
			<ellipse transform="matrix(0.3432 -0.9393 0.9393 0.3432 -107.0346 222.341)" class="st60" cx="105.5" cy="187.7" rx="6.9" ry="6.9"/>
		<path class="st60" d="M107.9,182.2c14.5-28.1-4-26.2-18.7-31.5c-14.7-5.4-30.2,0-34.6,12.1c-1,2.7-4.6,12.6-5.6,15.3
			c-4.4,12,9.6,28.2,18.7,31.5c8,2.9,30.2,0,34.6-12.1C103.3,194.8,106.6,184.7,107.9,182.2z"/>
		<path class="st60" d="M100.9,172.3c-0.4-0.9,1.3-1.7,1.3-1.7c4.1,0.8,2.4,7.4,6.9,6.9c1.5-0.2,1.8-3,2.5-4.9
			c0,4.6,2.3,1.8,5.1,1.5c1-2,1.8-3.7,2.2-4.8c5.3-14.4-3.9-27.8-18.3-33.1c-14-5.1-25,0.7-30.7,14.4c12.3,0.3,17.7,8.4,22.5,17.6
			C95.4,169.3,97.8,171.1,100.9,172.3z"/>
		<path class="st60" d="M89.4,146.2c0.4-0.2,0.5-0.7,0.2-1c0,0,0,0,0,0c-6.1-8.6-18.1-10.6-26.7-4.5c-5.9,4.2-8.7,11.2-7.9,18
			c0.1,0.4,0.5,0.7,0.9,0.6C67.6,156.3,79.2,152.5,89.4,146.2z"/>
		<path class="st60" d="M70.7,135.8c0,0,2.8,0.9,4.2,1.6c1.9,1,5.7,0.7,5.7,0.7s-3.1-3.4-5-3.7C73.6,134.1,70.7,135.8,70.7,135.8z"
			/>
		<path class="st60" d="M86,131.7c0,0-1.7,2.4-2.4,3.7c-1,1.9-4.2,3.9-4.2,3.9s0.6-4.5,1.9-5.9S86,131.7,86,131.7z"/>
		<path class="st61" d="M89.3,157.2l8.5-1l15.1,14.9l-8.7,20.1l-2.1,0.3l3.3-14.1c0,0-0.2-10-3.9-13.3"/>
	</g>
</g>
<g id="Layer_2">
	<path class="st68" d="M134.7,234.2c-3.6-1.3-2.8,2-4.8-0.2c-0.7-1.1-1.6-1.3-2.5-1.1c1.3,3.5,4.7,6,8.7,6c4,0,7.4-2.5,8.7-6
		C142.2,231.1,138.2,235.5,134.7,234.2z"/>
	<path class="st68" d="M171.2,233.2c-3-2.6-4.3,0.8-6.5,0.6c-0.9-0.1-1.2-2.5-2.6-1.4c-2,1.6-2.5,1.4-4,1c1.5,3.1,4.7,5.2,8.3,5.2
		c4.1,0,7.6-2.7,8.8-6.4c-0.6-0.3-1.4-0.8-1.9-0.6C172.4,231.8,172.4,234.2,171.2,233.2z"/>
</g>
</svg>
