<svg id="2a46edb0-2897-4403-a498-2a713693ee40" data-name="Layer 1" xmlns="http://www.w3.org/2000/svg" xmlns:xlink="http://www.w3.org/1999/xlink" viewBox="0 0 300 450"><defs><clipPath id="c5a5759b-00e8-4f35-9daa-b88d7f7ad429"><path d="M249.12,217.9a99.73,99.73,0,0,1-199.47,0c0-55.08-18.24-171.13,112.17-162.62C216.79,58.87,249.12,162.82,249.12,217.9Z" style="fill:none"/></clipPath></defs><title>juego2_ilust</title><circle cx="150" cy="217.41" r="99.73" style="fill:#dcffc5"/><polyline points="459.4 -29.95 459.4 58.37 -112.51 58.37" style="fill:none"/><path d="M259.46,122.2c-7,6-12,16-21,22v-1c-2,5-8,5-11,8-2,3,7,3,3,7,18.84-6.73,32.23-21.61,40.51-39.15a17.49,17.49,0,0,0-3.83-5.91c-1.95-2-4-5.09-6.13-7C262.2,112.53,262.54,118.5,259.46,122.2Z" style="fill:#fff"/><circle cx="149.39" cy="217.9" r="99.73" style="fill:#656d60"/><g style="clip-path:url(#c5a5759b-00e8-4f35-9daa-b88d7f7ad429)"><path d="M152.1,240.17l-5,.43a13.43,13.43,0,0,1-14.52-12.19L130,197.3a13.47,13.47,0,0,1,12.27-14.47l5-.43a13.43,13.43,0,0,1,14.52,12.19l2.61,31.11A13.47,13.47,0,0,1,152.1,240.17Z" style="fill:#f0ba7a"/><path d="M203.11,252.93c0-13.15-.33-22.23-10.85-26.72-6.31-2.69-20.54-4.82-28.7-4.45l-32.13,1.47c-9.84.45-25.5,3.34-32.44,8-8.4,5.63-7.11,14-7.11,25.5v90.58a35.8,35.8,0,0,0,3.64,15.8c33.9.86,68.22-1.13,102.33-1.65a38.28,38.28,0,0,0,5.27-19.24Z" style="fill:#f1f3f7"/><path d="M106.48,232.44l3.82,1.31c6.39,1.75,6.26,15.62-.29,30.81L98.93,295,87.46,330.6c-3.58,8.32-5.82,15.13-9.92,18.24-3.39,2.57-8.66,2.88-11.55,2.09l-9.44-2.59c-2.4-.66-6.11-2.88-7-5.54-1.55-4.43,1.18-11,5.27-20.52,0,0,19.12-48.18,14.69-36s7.61-19.74,15.22-35.94S100.09,230.69,106.48,232.44Z" style="fill:#f1f3f7"/><path d="M186.07,226l-3.82,1.31c-6.39,1.75-6.26,15.62.29,30.81l11.08,30.44,11.47,35.6c3.58,8.32,5.82,15.13,9.92,18.24,3.39,2.57,8.66,2.88,11.55,2.09l9.44-2.59c2.4-.66,6.11-2.88,7-5.54,1.55-4.43-1.18-11-5.27-20.52,0,0-19.12-48.18-14.69-36s-7.61-19.74-15.22-35.94S192.46,224.28,186.07,226Z" style="fill:#f1f3f7"/><polygon points="147.6 257.37 147.6 222.53 162.63 229.53 147.6 257.37" style="fill:#dcdde0;opacity:0.400000005960465"/><polygon points="147.6 257.37 147.6 222.53 132.58 229.53 147.6 257.37" style="fill:#dcdde0;opacity:0.400000005960465"/><polygon points="158.59 228.13 147.31 222.73 138.3 229.57 144.17 238.62 151.82 238.75 158.59 228.13" style="fill:#0076b7"/><polygon points="162.13 315.89 149.51 329.93 134.85 317.51 144.17 238.62 151.82 238.75 162.13 315.89" style="fill:#0076b7"/><polygon points="147.6 222.53 147.6 223.16 162.08 235.71 168.36 222.69 165.44 217.08 147.6 222.53" style="fill:#fff"/><polygon points="147.6 222.53 147.6 223.16 133.13 235.71 126.85 222.69 129.77 217.08 147.6 222.53" style="fill:#fff"/><polygon points="162.13 283.24 174.75 289.65 187.75 283.24 187.75 264.16 162.13 264.16 162.13 283.24" style="fill:#fff"/><rect x="162.13" y="256.08" width="25.62" height="5.95" style="fill:#fff"/><path d="M56.4,206.8c0,.27,0,.53,0,.81C56.38,207.35,56.39,207.07,56.4,206.8Z" style="fill:#f7cfa2"/></g><path d="M56.43,206.12c0,.23,0,.45,0,.68Q56.42,206.45,56.43,206.12Z" style="fill:#f7cfa2"/><path d="M188,138.61l.81-.05Z" style="fill:#f7cfa2"/><path d="M187.33,138.64l.68,0Z" style="fill:#f7cfa2"/><path d="M216.75,148.75c-.49.72-1.32,2.31-1,3.19l4.95-4.47-.81.05-.68,0A2.82,2.82,0,0,0,216.75,148.75Z" style="fill:#f7cfa2"/><rect x="143.66" y="107.75" width="43.26" height="62.36" rx="16.9" ry="16.9" transform="translate(16.01 -17.07) rotate(6.21)" style="fill:#f0ba7a"/><circle cx="102.6" cy="130.28" r="16.79" transform="translate(-38.02 218.18) rotate(-83.79)" style="fill:#f7cfa2"/><circle cx="102.6" cy="130.28" r="11.06" transform="translate(-38.02 218.18) rotate(-83.79)" style="fill:#f0ba7a"/><circle cx="206.34" cy="136.12" r="16.79" transform="translate(48.69 326.52) rotate(-83.79)" style="fill:#f7cfa2"/><circle cx="206.34" cy="136.12" r="11.06" transform="translate(48.69 326.52) rotate(-83.79)" style="fill:#f0ba7a"/><path d="M239.67,140.75c17.07-66.87-25.36-53.66-63.39-57.8S105,98,101.93,125.76l-3.84,35.3c-3,27.78,39.85,55.24,63.39,57.8,20.75,2.26,71.32-15,74.35-42.8C236.51,169.84,238.13,146.82,239.67,140.75Z" style="fill:#f7cfa2"/><path d="M218.31,111.13c-1.47-1.83,2.19-4.77,2.19-4.77,10.07-.57,9.93,16.09,20.36,12.23,3.48-1.29,2.55-8.06,3.08-13,2.79,10.93,6.59,2.95,12.92.61,1.16-5.41,2.2-9.92,2.49-12.58,4-37.17-25.55-63.71-62.72-67.76C160.38,21.91,137.71,42.24,132.36,78c29.34-6.47,46.77,9.6,63.51,28.58C203.53,107.31,210.25,110.26,218.31,111.13Z" style="fill:#601515"/><path d="M175.75,56a1.8,1.8,0,0,0-.1-2.61h0a46.77,46.77,0,0,0-74.12,52.31,1.81,1.81,0,0,0,2.54.94C130,92.75,155.48,76.88,175.75,56Z" style="fill:#601515"/><path d="M139.11,199.47s12.58-7.77,26.89-6.22,24.94,11.86,24.94,11.86a157.8,157.8,0,0,0-26.66-5.41A121.34,121.34,0,0,0,139.11,199.47Z" style="fill:#ea6d50"/><path d="M128.9,76.72s17,9.9,24.9,16.44c10.95,9,35.87,12.73,35.87,12.73s-15.42-26.37-27.16-31.23S128.9,76.72,128.9,76.72Z" style="fill:#601515"/><path d="M218.31,141.13c-1.47-1.83,2.19-4.77,2.19-4.77,10.07-.57,9.93,16.09,20.36,12.23,3.48-1.29,2.55-8.06,3.08-13,2.79,10.93,6.59,2.95,12.92.61,1.16-5.41,2.2-9.92,2.49-12.58,4-37.17-25.55-63.71-62.72-67.76-36.25-3.95-58.93,16.39-64.27,52.13,29.34-6.47,46.77,9.6,63.51,28.58C203.53,137.31,210.25,140.26,218.31,141.13Z" style="fill:#601515"/><path d="M128.9,106.72s17,9.9,24.9,16.44c10.95,9,35.87,12.73,35.87,12.73s-15.42-26.37-27.16-31.23S128.9,106.72,128.9,106.72Z" style="fill:#601515"/><path d="M125.34,42.33a92.91,92.91,0,0,1,10.83,1.35C141.23,44.87,150,42,150,42s-9.33-6.14-14-5.83S125.34,42.33,125.34,42.33Z" style="fill:#601515"/><path d="M159.2,23.63a92.92,92.92,0,0,0-3.61,10.3C154.4,39,148,45.58,148,45.58s-1.35-11.09,1-15.1S159.2,23.63,159.2,23.63Z" style="fill:#601515"/><path d="M106.18,89.16l-6.44,60.4,7.12-7,8.07-34.43s11.14-21.61,22.88-24.89,34.09-2.05,34.09-2.05L154.39,69.91Z" style="fill:#601515;opacity:0.300000011920929"/><path d="M246.09,101.57,236,168.11,231.17,170l.67-49.18s-6.23-23.5-17-29.23S182,82.29,182,82.29L201.52,75Z" style="fill:#601515;opacity:0.300000011920929"/><path d="M226,166.64c-.92,8.46-8.08,14.82-22.51,14s-22.82-8-22.36-16.41c.47-8.54,10.08-15.13,24.91-14.39S226.93,158,226,166.64Z" style="fill:#601515;opacity:0.100000001490116"/><path d="M226.57,167.4c-.8,7.35-11.67,12.6-24.19,11.86s-22.11-7.13-21.72-14.39,10.74-9.8,23.57-9.15S227.39,159.92,226.57,167.4Z" style="fill:#fff"/><path d="M214.28,166c-.35,3.57-5.58,6.17-11.67,5.84s-10.75-3.46-10.5-7,5.44-6.25,11.6-5.94S214.63,162.44,214.28,166Z" style="fill:#601515"/><path d="M207.46,165.68c-.12,1.39-2.15,2.4-4.51,2.27s-4.19-1.35-4.07-2.73,2.12-2.41,4.5-2.29S207.58,164.29,207.46,165.68Z"/><path d="M203.79,162.52c-.09,1-1.58,1.78-3.32,1.69s-3.09-1-3-2,1.56-1.79,3.32-1.7S203.88,161.49,203.79,162.52Z" style="fill:#f9f9f9"/><path d="M108.79,160.21c.26,8.21,6.45,15.1,20.05,15.92s22.53-5.27,22.69-13.57c.16-8.47-8.69-15.91-22.92-16.61S108.53,151.84,108.79,160.21Z" style="fill:#601515;opacity:0.100000001490116"/><path d="M108.21,160.88c.23,7.12,9.94,13.37,21.79,14.08s21.8-4.46,21.94-11.67-10.8-9.25-23.11-9.87S108,153.63,108.21,160.88Z" style="fill:#fff"/><path d="M126.26,162.89c0,3.48,4.74,6.54,10.52,6.86s10.57-2.23,10.62-5.73-4.7-6.66-10.6-7S126.23,159.38,126.26,162.89Z" style="fill:#601515"/><path d="M132.71,163.24c0,1.35,1.83,2.55,4.08,2.67s4.1-.88,4.11-2.23-1.83-2.56-4.1-2.68S132.7,161.88,132.71,163.24Z"/><path d="M131.27,160.27c0,1,1.36,1.89,3,2s3-.65,3-1.66-1.35-1.9-3-2S131.26,159.26,131.27,160.27Z" style="fill:#f9f9f9"/><path d="M165.09,186.47h0c-5.49-.34-9.9-3.21-9.82-6.39l.52-21.53c.08-3.38,4.81-5.92,10.52-5.62h0c5.73.29,10.31,3.33,10.14,6.73L175.4,181.3C175.25,184.5,170.6,186.81,165.09,186.47Z" style="fill:#f0ba7a"/><path d="M163.23,182.92h0c-5.5-.34-9.93-3.22-9.86-6.42l.47-21.7c.07-3.4,4.81-6,10.54-5.69h0c5.75.29,10.34,3.35,10.19,6.77l-1,21.82C173.41,180.92,168.75,183.26,163.23,182.92Z" style="fill:#f7cfa2"/><path d="M118.68,175.69c0,.4-1.08.65-2.42.57s-2.44-.47-2.45-.86,1.07-.65,2.41-.57S118.68,175.29,118.68,175.69Z" style="fill:#f0ba7a"/><path d="M128.41,176.27c0,.4-1.09.66-2.44.57s-2.45-.47-2.45-.87,1.09-.66,2.44-.58S128.41,175.87,128.41,176.27Z" style="fill:#f0ba7a"/><path d="M123.58,178.84c0,.4-1.08.65-2.42.57s-2.43-.47-2.44-.86,1.07-.65,2.42-.57S123.57,178.44,123.58,178.84Z" style="fill:#f0ba7a"/><path d="M208.23,181c0,.41-1.22.67-2.65.58s-2.55-.48-2.52-.89,1.22-.67,2.64-.58S208.27,180.64,208.23,181Z" style="fill:#f0ba7a"/><path d="M218.56,181.67c0,.41-1.24.67-2.67.58s-2.56-.49-2.52-.89,1.23-.67,2.67-.58S218.6,181.26,218.56,181.67Z" style="fill:#f0ba7a"/><path d="M213.58,183.83c0,.4-1.17.66-2.57.58s-2.51-.48-2.49-.88,1.17-.66,2.57-.58S213.6,183.43,213.58,183.83Z" style="fill:#f0ba7a"/><path d="M190.36,148.68l31,8.13c4.4,1.15,8.67,0,9.48-2.54h0c.82-2.58-2.16-5.64-6.61-6.8l-31.36-8.13c-4.35-1.13-8.44.07-9.1,2.65h0C183.09,144.55,186.06,147.56,190.36,148.68Z" style="fill:#5b1010"/><path d="M117.12,155.09l28-4.92c4-.7,6.09-3.32,4.62-5.83h0c-1.48-2.52-6-4-10-3.26l-23,4c-3.87.7-10.83,4.38-9.3,6.82h0C108.89,154.34,113.27,155.77,117.12,155.09Z" style="fill:#5b1010"/><g style="opacity:0.600000023841858"><path d="M184.51,36.31c4.89,2.19,10.6,1.47,15.76,2.64,4.67,1.06,8.72,3.73,13.46,4.59a.69.69,0,0,0,.37-1.34c-4.66-1.77-9.08-4.48-14-5.44-4.75-.92-10.77-1.9-15.5-.93a.27.27,0,0,0-.06.48Z" style="fill:#f7cfa2"/></g><path d="M286.06,298.94c.49.33.43,1.87.85.93-1.27-7.66-5.75-15.66-9.08-22.69-4.95-10.43-10.43-20.88-16.06-31.2q-1.2-2.21-2.42-4.42c-12.62-12.32-11.62-31.32-21.62-46.32-1-1-4,0-6,0-11,5-5,17-2,25,4,10,12,18,12.5,28.72a27.87,27.87,0,0,0-2.79,3.84c-5,9.06-5.91,18.62-.85,28.93,3.56,7.26,9.87,11.37,14.14,17.82,5.61,8.46,7.74,19.71,12.07,28.85Z" style="fill:#f0ba7a"/><path d="M244.55,209.88a61.39,61.39,0,0,0-6.81-14.65c-1-1-4,0-6,0a14.39,14.39,0,0,0-1.51.8C233.11,202.56,238,208.42,244.55,209.88Z" style="fill:#f7cfa2"/><path d="M251.73,247.24a22,22,0,0,1-11.14-6,25.47,25.47,0,0,1,1.63,7.68c-.33.6-1,1.1-2,2.57C242.9,248,246.57,245.95,251.73,247.24Z" style="fill:#f7cfa2"/><path d="M238.61,254.37c-.31.62-.6,1.24-.87,1.86a35.59,35.59,0,0,0,12,4C246.5,257,242.43,255.86,238.61,254.37Z" style="fill:#f7cfa2"/><path d="M235.94,261.71q-.31,1.36-.5,2.74a57.88,57.88,0,0,0,10.29,2.79A23.93,23.93,0,0,0,235.94,261.71Z" style="fill:#f7cfa2"/><path d="M220.58,323.45c.39.45-.07,1.91.59,1.12.74-7.73-1.54-16.61-3-24.26-1.35-7.3-2.92-14.66-4.6-22q-.51-2.21-1-4.42c-.57-1.55-1.08-3.16-1.54-4.82s-.87-3.35-1.25-5.07c-6.06-14.75-12-37.28-15.58-46.47a15.89,15.89,0,0,0-8.48,3.72c-10,14,4,27,5,41,1,1-2,3-3.36,4.64q-1.35,1.4-2.51,2.87c-5.42,6.88-7.7,15-5.74,24.87,1.58,7.93,6.62,13.52,9.09,20.85,3.25,9.62,2.42,21,4.26,31Z" style="fill:#f0ba7a"/><path d="M199.64,234c-2.09-6.76-4-12.73-5.43-16.48a15.89,15.89,0,0,0-8.48,3.72,20.59,20.59,0,0,0-1.86,3.17C187.11,231.81,191.37,239.33,199.64,234Z" style="fill:#f7cfa2"/><path d="M218.21,300.31c-1.35-7.3-2.92-14.66-4.6-22q-.51-2.21-1-4.42c-.57-1.55-1.08-3.16-1.54-4.82s-.87-3.35-1.25-5.07c-3.58-8.73-7.11-20.18-10.15-30-8.27,5.33-12.54-2.19-15.77-9.59-6.07,12.81,5.94,24.89,6.86,37.83,1,1-2,3-3.36,4.64q-1.35,1.4-2.51,2.87c-5.42,6.88-7.7,15-5.74,24.87,1.58,7.93,6.62,13.52,9.09,20.85,3.25,9.62,2.42,21,4.26,31l28.11-23c.39.45-.07,1.91.59,1.12C221.91,316.84,219.63,308,218.21,300.31Z" style="fill:#f0ba7a"/><path d="M99.85,85.8c-2,8.86-.8,18.33-.55,27.21a33,33,0,0,0,11.46,1.77c4.5-.31,8.26-2.73,12.21-4.6a42.3,42.3,0,0,1,13.4-3.87c1.61-.16,4.65.53,6.14-.19,3.25-1.59,3.05-8.69,3.2-11.35a132,132,0,0,1,1.54-14.69c.34-2.07,1.2-5.09.54-7.25a7.5,7.5,0,0,0-3.35-3.89c-4-2-12.19-.31-16.43-.31-4.88,0-11.66-1.19-15.66,2.44-2,1.78-2.5,4.47-4.22,6.42-1.45,1.64-4.71,3-2.64,5.65" style="fill:#601515"/><path d="M115.72,301.28a120.35,120.35,0,0,1-15.32,10.14c-9.58,5.2-21.08,7.53-28.73-2.09-12.65-15.91,9-35.33,20.93-44,10.79-7.86,55.66-36.28,61-8.47,1.06,5.5-3.35,11.41-5.64,15.65-2.68,5-11.37,4.63-12.38,5.87C130.64,284.53,122.22,296.33,115.72,301.28Z" style="fill:#fff"/><path d="M104,312.07c10.18-4.21,12-1.4,19.73-11.39.89-1-2.29-9.35-1.5-10.39a25.82,25.82,0,0,1,8.14-9.7c-2-3.9-3.26-8.35-4.77-12.5,2.93,4.58,8.85,6.2,14.63,5.73,1.31-.92,2.61-1.89,3.9-3,3.63-3.74,7.58-5.2,7.81-10.07a24.6,24.6,0,0,0-.72-7.15c-9.49-23.13-37.11.91-53,6.34q-2.56,1.75-5.08,3.56a175.5,175.5,0,0,0-14.55,11.56,43.32,43.32,0,0,0-3.56,4.58c-5.33,7.93-7.58,16.76-1.26,24.71,2.55,3.21,5.08,8.64,8.27,9.52a111.82,111.82,0,0,0,12.29,1.89C96.08,315.73,102.49,312.46,104,312.07Z" style="fill:#f1f3f7"/><path d="M87.79,187.34c4.43-1,3.93-5.75,5.22-9.64-1.19-.39-3.69-1.48-3.77-1.54s-1.85,2.55-2.76,4c-.67,1.08-1.86,4.08-2.48,5.2C85.05,186.51,86,187.69,87.79,187.34Z" style="fill:#f0ba7a"/><path d="M94.42,189a32,32,0,0,0,.75-4.9c.19-1.92.26-4.15-1.17-5.43A3.09,3.09,0,0,0,92.9,178c-1.28,3.89-.79,8.66-5.22,9.64-1.75.35-2.74-.84-3.79-2A84.91,84.91,0,0,0,79,195.9c-1.32,3.35-2.44,6.81-4.39,9.84-1.74,2.7-4.18,5.22-4.42,8.42a11.49,11.49,0,0,0,.86,4.61L79,228.25c1.66-3.92,1.87-8.4,2.89-12.47.24-.48.48-1,.75-1.6.92-7.36,2.82-14.64,7.67-20.45C90.9,192.08,93.34,190.9,94.42,189Z" style="fill:#f7cfa2"/><path d="M125.69,254.3a84.37,84.37,0,0,1,34-12.52,10.1,10.1,0,0,1-1.1,4.11A78.53,78.53,0,0,1,174.86,247a2.92,2.92,0,0,1,1.68.69c.72.76.44,2,0,3a19.76,19.76,0,0,1-.87,1.84c-.11.2-.22.4-.34.59-.65,1.18-4.65,1.18-2,3.88a3.47,3.47,0,0,0,.23.32q.13.17.29.34c.16.13.33.24.51.36,2.31,1.46,6.12,2.22,5.31,6.28,0,0-1,0-.54,0-.06.13-.13.26-.21.4a7.51,7.51,0,0,1-.59.87.84.84,0,0,1-.2.38,1.53,1.53,0,0,1-.46.33,3.73,3.73,0,0,1-1.67-.59l-.62-.36c-.71-.06-1.71-2.06-4.1-1.31a2.81,2.81,0,0,0-.71.26,3.54,3.54,0,0,0-.7.5l-.6.22-.6.27c-3,3,2,5,1,7-3,6-10,0-14.42-3a16.66,16.66,0,0,0-1.69-.83,11.68,11.68,0,0,0-1.73-.58c-.61-.25-1.24-.48-1.87-.69s-1.28-.41-2-.58a19.37,19.37,0,0,0-1.93-.26c-4.48-.4-9.13.72-12.94,1.78a4.74,4.74,0,0,1-1.29-.25,7.55,7.55,0,0,1-2.48-1.62c-3.53-3.15-6.42-8-4.79-12.46" style="fill:#f7cfa2"/><path d="M57.89,243.19c-.16-1-.16-3-1.08-3.73-.17-.58-.32-1.14-.46-1.7a26.88,26.88,0,0,1-.84-5c-.14-.9-.25-1.82-.33-2.74s-.11-1.66-.13-2.49,0-1.67.07-2.5a8.1,8.1,0,0,1,2.67-5.59,14.57,14.57,0,0,1,1.91-1.24c.88-.24,1.74-.5,2.58-.78a15.08,15.08,0,0,0,2.41-1,51.21,51.21,0,0,0,8.53-8.22q.76-.92,1.5-1.92c6.48,7.2,13.48,17,10.91,24.53a9.73,9.73,0,0,1-.95,2c-1.39,1.29-2.75,2.53-4.09,3.71-.67.59-1.34,1.17-2,1.78-.48.62-1,1.33-1.51,2.08a13.43,13.43,0,0,1-1.18,2.53c-4.19,5.38-11.19,9.38-15.38,2.26-.38-.48-.73-.93-1-1.28" style="fill:#f7cfa2"/><path d="M53.9,252.74c-.81-2.22-4.7-3.73-6.32-5.22-2.52-2.33-3.73-4.58-3.62-8,.06-1.93-.36-4.17,0-6.07,1.32-6.44,12.58-8.45,17.92-8.05,7,.52,16.83,3.74,21.33,9.51-.21,0-.68.2-1,.17a7.8,7.8,0,0,1,.18,2.86c-.43,2.71-2.19,5.44-3,8.06s-1.17,5.6-2.27,8.06c-1.46,3.28-5,2.56-7.83,3.91-1.11.53-1.78,1-1.1,2.21a12.83,12.83,0,0,1-4.52.78c-3.33.26-6.68,0-10,.19s-5.16,1.39-7.62,3.74" style="fill:#f1f3f7"/><path d="M32,285.41a.7.7,0,0,0,.36.59c1-3.86,4-7.07,6-10.47,4.76-8.09,6.72-17.27,11.17-25.43,1.28-2.35,3.61-4.84,4.26-7.47.18-.73.08-1.41.3-2.12,1.46.31,3,.42,4.45.87,3.52,1.1,6.23,4.25,8.77,6.8-1.59,2.38-1.72,5.15-2.24,8-1,5.25-1,10.73-2.5,15.82a69.85,69.85,0,0,0-1.91,11.39,36.67,36.67,0,0,0-.26,6.86c.06.81.33,2.34,0,3" style="fill:#f1f3f7"/><path d="M48.73,165.66a11,11,0,0,1-.56,3.6,6.1,6.1,0,0,1-2,2.76,10.15,10.15,0,0,1-3.86,1.79,25.12,25.12,0,0,1-6.25.65,24.64,24.64,0,0,1-6.18-.65A10.15,10.15,0,0,1,26.08,172a6,6,0,0,1-1.94-2.76,11.4,11.4,0,0,1-.54-3.6v-7a1.33,1.33,0,0,1,1.55-1.55h6.25A1.33,1.33,0,0,1,33,158.68v5.26a2,2,0,0,0,.54,1.44A3.66,3.66,0,0,0,36,166c1.23,0,2-.2,2.35-.58a2.14,2.14,0,0,0,.5-1.44v-19.6a1.33,1.33,0,0,1,1.55-1.55h6.76a1.33,1.33,0,0,1,1.55,1.55Z" style="fill:#efe91b"/><path d="M63.25,172.25a1.33,1.33,0,0,1-1.55,1.55H55.36a1.33,1.33,0,0,1-1.55-1.55V160.88a12.68,12.68,0,0,1,.41-3A32.73,32.73,0,0,1,55.49,154l3.75-9.78a2,2,0,0,1,.8-1.08,2.59,2.59,0,0,1,1.4-.35H73a2.48,2.48,0,0,1,1.36.35,2,2,0,0,1,.8,1.08L78.93,154a32.73,32.73,0,0,1,1.27,3.92,12.71,12.71,0,0,1,.41,3v11.38a1.33,1.33,0,0,1-1.55,1.55h-6.5a1.88,1.88,0,0,1-1.27-.36,1.52,1.52,0,0,1-.41-1.19v-6H63.25Zm2.45-20.43-2,6.55h6.76l-2-6.55a1.63,1.63,0,0,0-.36-.56.64.64,0,0,0-.45-.18H66.52a.65.65,0,0,0-.46.18A1.68,1.68,0,0,0,65.7,151.83Z" style="fill:#efe91b"/><path d="M58.1,271a11,11,0,0,1-.56,3.6,6.1,6.1,0,0,1-2,2.76,10.15,10.15,0,0,1-3.86,1.79,25.12,25.12,0,0,1-6.25.65,24.64,24.64,0,0,1-6.18-.65,10.15,10.15,0,0,1-3.84-1.79,6,6,0,0,1-1.94-2.76A11.4,11.4,0,0,1,33,271v-7a1.33,1.33,0,0,1,1.55-1.55h6.25A1.33,1.33,0,0,1,42.33,264v5.26a2,2,0,0,0,.54,1.44,3.66,3.66,0,0,0,2.52.58c1.23,0,2-.2,2.35-.58a2.14,2.14,0,0,0,.5-1.44v-19.6a1.33,1.33,0,0,1,1.55-1.55h6.76a1.33,1.33,0,0,1,1.55,1.55Z" style="fill:#e02b41"/><path d="M72.62,277.55a1.33,1.33,0,0,1-1.55,1.55H64.74a1.33,1.33,0,0,1-1.55-1.55V266.18a12.68,12.68,0,0,1,.41-3,32.73,32.73,0,0,1,1.27-3.92l3.75-9.78a2,2,0,0,1,.8-1.08,2.59,2.59,0,0,1,1.4-.35H82.4a2.48,2.48,0,0,1,1.36.35,2,2,0,0,1,.8,1.08l3.75,9.78a32.73,32.73,0,0,1,1.27,3.92,12.71,12.71,0,0,1,.41,3v11.38a1.33,1.33,0,0,1-1.55,1.55h-6.5a1.88,1.88,0,0,1-1.27-.36,1.52,1.52,0,0,1-.41-1.19v-6H72.62Zm2.45-20.43-2,6.55h6.76l-2-6.55a1.63,1.63,0,0,0-.36-.56.64.64,0,0,0-.45-.18H75.9a.65.65,0,0,0-.46.18A1.68,1.68,0,0,0,75.08,257.13Z" style="fill:#e02b41"/><path d="M90.52,310.68a11,11,0,0,1-.56,3.6A6.1,6.1,0,0,1,88,317a10.15,10.15,0,0,1-3.86,1.79,25.12,25.12,0,0,1-6.25.65,24.64,24.64,0,0,1-6.18-.65A10.15,10.15,0,0,1,67.88,317a6,6,0,0,1-1.94-2.76,11.4,11.4,0,0,1-.54-3.6v-7A1.33,1.33,0,0,1,67,302.15H73.2a1.33,1.33,0,0,1,1.55,1.55V309a2,2,0,0,0,.54,1.44,3.66,3.66,0,0,0,2.52.58c1.23,0,2-.2,2.35-.58a2.14,2.14,0,0,0,.5-1.44v-19.6a1.33,1.33,0,0,1,1.55-1.55H89a1.33,1.33,0,0,1,1.55,1.55Z" style="fill:#c69018"/><path d="M105,317.28a1.33,1.33,0,0,1-1.55,1.55H97.16a1.33,1.33,0,0,1-1.55-1.55V305.9a12.68,12.68,0,0,1,.41-3A32.73,32.73,0,0,1,97.29,299l3.75-9.78a2,2,0,0,1,.8-1.08,2.59,2.59,0,0,1,1.4-.35h11.59a2.48,2.48,0,0,1,1.36.35,2,2,0,0,1,.8,1.08l3.75,9.78a32.73,32.73,0,0,1,1.27,3.92,12.71,12.71,0,0,1,.41,3v11.38a1.33,1.33,0,0,1-1.55,1.55h-6.5a1.88,1.88,0,0,1-1.27-.36,1.52,1.52,0,0,1-.41-1.19v-6H105Zm2.45-20.43-2,6.55h6.76l-2-6.55a1.63,1.63,0,0,0-.36-.56.64.64,0,0,0-.45-.18h-1.08a.65.65,0,0,0-.46.18A1.68,1.68,0,0,0,107.5,296.85Z" style="fill:#c69018"/><path d="M183.22,327.59a11,11,0,0,1-.56,3.6,6.1,6.1,0,0,1-2,2.76,10.15,10.15,0,0,1-3.86,1.79,25.12,25.12,0,0,1-6.25.65,24.64,24.64,0,0,1-6.18-.65,10.15,10.15,0,0,1-3.84-1.79,6,6,0,0,1-1.94-2.76,11.4,11.4,0,0,1-.54-3.6v-7a1.33,1.33,0,0,1,1.55-1.55h6.25a1.33,1.33,0,0,1,1.55,1.55v5.26a2,2,0,0,0,.54,1.44,3.66,3.66,0,0,0,2.52.58c1.23,0,2-.2,2.35-.58a2.14,2.14,0,0,0,.5-1.44v-19.6a1.33,1.33,0,0,1,1.55-1.55h6.76a1.33,1.33,0,0,1,1.55,1.55Z" style="fill:#efe91b"/><path d="M197.74,334.18a1.33,1.33,0,0,1-1.55,1.55h-6.33a1.33,1.33,0,0,1-1.55-1.55V322.81a12.68,12.68,0,0,1,.41-3,32.73,32.73,0,0,1,1.27-3.92l3.75-9.78a2,2,0,0,1,.8-1.08,2.59,2.59,0,0,1,1.4-.35h11.59a2.48,2.48,0,0,1,1.36.35,2,2,0,0,1,.8,1.08l3.75,9.78a32.73,32.73,0,0,1,1.27,3.92,12.71,12.71,0,0,1,.41,3v11.38a1.33,1.33,0,0,1-1.55,1.55H207a1.88,1.88,0,0,1-1.27-.36,1.52,1.52,0,0,1-.41-1.19v-6h-7.63Zm2.45-20.43-2,6.55h6.76l-2-6.55a1.63,1.63,0,0,0-.36-.56.64.64,0,0,0-.45-.18H201a.65.65,0,0,0-.46.18A1.68,1.68,0,0,0,200.19,313.76Z" style="fill:#efe91b"/></svg>