<?xml version="1.0" encoding="utf-8"?>
<!-- Generator: Adobe Illustrator 21.1.0, SVG Export Plug-In . SVG Version: 6.00 Build 0)  -->
<svg version="1.1" xmlns="http://www.w3.org/2000/svg" xmlns:xlink="http://www.w3.org/1999/xlink" x="0px" y="0px"
	 viewBox="0 0 300 450" style="enable-background:new 0 0 300 450;" xml:space="preserve">
<style type="text/css">
	.st0{fill:#B27E49;}
	.st1{fill:#ECB8FF;}
	.st2{display:none;opacity:0.3;}
	.st3{fill:#F4E44A;}
	.st4{clip-path:url(#SVGID_2_);fill:#F1F3F7;}
	.st5{opacity:0.4;clip-path:url(#SVGID_2_);fill:#DCDDE0;}
	.st6{clip-path:url(#SVGID_2_);fill:#0076B7;}
	.st7{clip-path:url(#SVGID_2_);fill:#FFFFFF;}
	.st8{clip-path:url(#SVGID_2_);}
	.st9{fill:#FFFFFF;}
	.st10{clip-path:url(#SVGID_2_);fill:#F7CFA2;}
	.st11{fill:#F7CFA2;}
	.st12{fill:#F0BA7A;}
	.st13{fill:#601515;}
	.st14{fill:url(#SVGID_3_);}
	.st15{opacity:0.1;fill:#601515;}
	.st16{fill:#F9F9F9;}
	.st17{fill:url(#SVGID_4_);}
	.st18{fill:url(#SVGID_5_);}
	.st19{fill:url(#SVGID_6_);}
	.st20{fill:#EA6D50;}
	.st21{opacity:0.3;fill:#601515;}
	.st22{fill:#5B1010;}
	.st23{opacity:0.6;}
	.st24{fill:#A52323;}
	.st25{opacity:0.2;}
	.st26{fill:url(#SVGID_7_);}
	.st27{fill:#CE6117;}
	.st28{fill:url(#SVGID_8_);}
	.st29{fill:#8454D1;}
	.st30{clip-path:url(#SVGID_10_);fill:#393D47;}
	.st31{clip-path:url(#SVGID_10_);fill:#F0BA7A;}
	.st32{clip-path:url(#SVGID_10_);fill:#F1F3F7;}
	.st33{clip-path:url(#SVGID_10_);fill:#0076B7;}
	.st34{clip-path:url(#SVGID_10_);fill:#004868;}
	.st35{opacity:0.4;clip-path:url(#SVGID_10_);fill:#DCDDE0;}
	.st36{clip-path:url(#SVGID_10_);fill:#FFFFFF;}
	.st37{clip-path:url(#SVGID_10_);}
	.st38{fill:#393D47;}
	.st39{fill:url(#SVGID_11_);}
	.st40{fill:#EAA56C;}
	.st41{clip-path:url(#SVGID_13_);fill:#F1F3F7;}
	.st42{clip-path:url(#SVGID_13_);fill:#F0BA7A;}
	.st43{opacity:0.4;clip-path:url(#SVGID_13_);fill:#DCDDE0;}
	.st44{clip-path:url(#SVGID_13_);fill:#0076B7;}
	.st45{clip-path:url(#SVGID_13_);fill:#FFFFFF;}
	.st46{clip-path:url(#SVGID_13_);}
	.st47{clip-path:url(#SVGID_13_);fill:#F7CFA2;}
	.st48{fill:#F1F3F7;}
	.st49{fill:none;}
	.st50{fill:#A85848;}
	.st51{fill:#E85646;}
	.st52{fill:#EA4E39;}
	.st53{fill:#DCFFC5;}
	.st54{fill:#8BAA77;}
	.st55{clip-path:url(#SVGID_15_);fill:#F1F3F7;}
	.st56{opacity:0.4;clip-path:url(#SVGID_15_);fill:#DCDDE0;}
	.st57{clip-path:url(#SVGID_15_);fill:#0076B7;}
	.st58{clip-path:url(#SVGID_15_);fill:#FFFFFF;}
	.st59{clip-path:url(#SVGID_15_);}
	.st60{fill:#595959;}
	.st61{opacity:0.3;fill:#595959;}
	.st62{clip-path:url(#SVGID_27_);fill:#F1F3F7;}
	.st63{opacity:0.4;clip-path:url(#SVGID_27_);fill:#DCDDE0;}
	.st64{clip-path:url(#SVGID_27_);fill:#0076B7;}
	.st65{clip-path:url(#SVGID_27_);fill:#FFFFFF;}
	.st66{clip-path:url(#SVGID_27_);}
	.st67{clip-path:url(#SVGID_27_);fill:#F7CFA2;}
	.st68{opacity:0.7;fill:#7BCDDB;}
	.st69{fill:none;stroke:#F0BA7A;stroke-width:3;stroke-miterlimit:10;}
	.st70{clip-path:url(#SVGID_41_);fill:#F1F3F7;}
	.st71{opacity:0.4;clip-path:url(#SVGID_41_);fill:#DCDDE0;}
	.st72{clip-path:url(#SVGID_41_);fill:#0076B7;}
	.st73{clip-path:url(#SVGID_41_);fill:#FFFFFF;}
	.st74{clip-path:url(#SVGID_41_);}
	.st75{clip-path:url(#SVGID_41_);fill:#F7CFA2;}
	.st76{fill:#9E9E9E;}
	.st77{fill:#878787;}
	.st78{fill:#DDBD00;}
	.st79{clip-path:url(#SVGID_43_);fill:#F1F3F7;}
	.st80{opacity:0.4;clip-path:url(#SVGID_43_);fill:#DCDDE0;}
	.st81{clip-path:url(#SVGID_43_);fill:#0076B7;}
	.st82{clip-path:url(#SVGID_43_);fill:#FFFFFF;}
	.st83{clip-path:url(#SVGID_43_);}
	.st84{clip-path:url(#SVGID_43_);fill:#F7CFA2;}
	.st85{clip-path:url(#SVGID_45_);}
	.st86{opacity:0.4;fill:#DCDDE0;}
	.st87{fill:#0076B7;}
	.st88{opacity:0.3;}
	.st89{fill:#DCDDE0;}
	.st90{fill:#004868;}
	.st91{fill:#E02B41;}
	.st92{fill:#C69018;}
	.st93{fill:#EFE91B;}
	.st94{fill:#656D60;}
	.st95{clip-path:url(#SVGID_47_);fill:#F0BA7A;}
	.st96{clip-path:url(#SVGID_47_);fill:#F1F3F7;}
	.st97{opacity:0.4;clip-path:url(#SVGID_47_);fill:#DCDDE0;}
	.st98{clip-path:url(#SVGID_47_);fill:#0076B7;}
	.st99{clip-path:url(#SVGID_47_);fill:#FFFFFF;}
	.st100{clip-path:url(#SVGID_47_);}
	.st101{clip-path:url(#SVGID_47_);fill:#F7CFA2;}
	.st102{clip-path:url(#SVGID_49_);fill:#F1F3F7;}
	.st103{clip-path:url(#SVGID_49_);}
	.st104{fill:#B23C18;}
	.st105{fill:#6B2A05;}
	.st106{fill:#B23C18;stroke:#6B2A05;stroke-miterlimit:10;}
	.st107{fill:#DDAA78;}
	.st108{fill:#211205;}
	.st109{fill:none;stroke:#6B2A05;stroke-width:0.729;stroke-miterlimit:10;}
	.st110{fill:#B23C18;stroke:#6B2A05;stroke-width:0.729;stroke-miterlimit:10;}
	.st111{fill:#B72C34;}
	.st112{clip-path:url(#SVGID_51_);fill:#F1F3F7;}
	.st113{clip-path:url(#SVGID_51_);}
	.st114{clip-path:url(#SVGID_51_);fill:#F7CFA2;}
	.st115{fill:#F2C85F;}
	.st116{clip-path:url(#SVGID_53_);fill:#F0BA7A;}
	.st117{clip-path:url(#SVGID_53_);fill:#F1F3F7;}
	.st118{opacity:0.4;clip-path:url(#SVGID_53_);fill:#DCDDE0;}
	.st119{clip-path:url(#SVGID_53_);fill:#0076B7;}
	.st120{clip-path:url(#SVGID_53_);fill:#FFFFFF;}
	.st121{clip-path:url(#SVGID_53_);}
	.st122{clip-path:url(#SVGID_53_);fill:#F7CFA2;}
	.st123{clip-path:url(#SVGID_55_);}
	.st124{fill:#F4F0A6;}
	.st125{fill:#9E921E;}
	.st126{clip-path:url(#SVGID_57_);fill:#F0BA7A;}
	.st127{clip-path:url(#SVGID_57_);fill:#F1F3F7;}
	.st128{clip-path:url(#SVGID_57_);}
	.st129{clip-path:url(#SVGID_57_);fill:#393D47;}
	.st130{clip-path:url(#SVGID_57_);fill:#FFFFFF;}
	.st131{opacity:0.4;clip-path:url(#SVGID_57_);fill:#DCDDE0;}
	.st132{clip-path:url(#SVGID_57_);fill:#0076B7;}
	.st133{fill:#1F74C9;}
	.st134{clip-path:url(#SVGID_59_);}
	.st135{fill:#023142;}
	.st136{clip-path:url(#SVGID_61_);fill:#F7CFA2;}
	.st137{clip-path:url(#SVGID_61_);}
	.st138{opacity:0.3;fill:#E57257;}
	.st139{fill:#777777;}
	.st140{clip-path:url(#SVGID_63_);fill:#F1F3F7;}
	.st141{opacity:0.4;clip-path:url(#SVGID_63_);fill:#DCDDE0;}
	.st142{clip-path:url(#SVGID_63_);fill:#0076B7;}
	.st143{clip-path:url(#SVGID_63_);fill:#FFFFFF;}
	.st144{clip-path:url(#SVGID_63_);}
	.st145{clip-path:url(#SVGID_63_);fill:#F7CFA2;}
	.st146{clip-path:url(#SVGID_65_);fill:#F0BA7A;}
	.st147{clip-path:url(#SVGID_65_);fill:#F1F3F7;}
	.st148{opacity:0.4;clip-path:url(#SVGID_65_);fill:#DCDDE0;}
	.st149{clip-path:url(#SVGID_65_);fill:#0076B7;}
	.st150{clip-path:url(#SVGID_65_);fill:#FFFFFF;}
	.st151{clip-path:url(#SVGID_65_);}
	.st152{clip-path:url(#SVGID_65_);fill:#F7CFA2;}
</style>
<g id="Layer_1">
	<circle class="st53" cx="150" cy="217.4" r="99.7"/>
	<g>
		<defs>
			<path id="SVGID_20_" d="M248,218.6c0,55.1-44.7,99.7-99.7,99.7s-99.7-44.7-99.7-99.7S93.2,52.8,148.3,52.8
				C203.3,52.8,248,163.5,248,218.6z"/>
		</defs>
		<clipPath id="SVGID_2_">
			<use xlink:href="#SVGID_20_"  style="overflow:visible;"/>
		</clipPath>
	</g>
	<circle class="st78" cx="150.4" cy="217.5" r="99.7"/>
	<g>
		<defs>
			<path id="SVGID_42_" d="M250.1,217.5c0,55.1-44.7,99.7-99.7,99.7s-99.7-44.7-99.7-99.7S32.4,46.4,162.8,54.9
				C217.8,58.5,250.1,162.5,250.1,217.5z"/>
		</defs>
		<clipPath id="SVGID_3_">
			<use xlink:href="#SVGID_42_"  style="overflow:visible;"/>
		</clipPath>
		<path style="clip-path:url(#SVGID_3_);fill:#F1F3F7;" d="M207.7,267.9c0-13.2-0.3-22.2-10.9-26.7c-6.3-2.7-20.5-4.8-28.7-4.4
			l-32.1,1.5c-9.8,0.5-25.5,3.3-32.4,8c-8.4,5.6-7.1,14-7.1,25.5v90.6c0,5.7,1.3,11,3.6,15.8c33.9,0.9,68.2-1.1,102.3-1.6
			c3.3-5.8,5.3-12.3,5.3-19.2V267.9z"/>
		<path style="clip-path:url(#SVGID_3_);fill:#F1F3F7;" d="M111.1,247.4l3.8,1.3c6.4,1.8,6.3,15.6-0.3,30.8l-11.1,30.4l-11.5,35.6
			c-3.6,8.3-5.8,15.1-9.9,18.2c-3.4,2.6-8.7,2.9-11.6,2.1l-9.4-2.6c-2.4-0.7-6.1-2.9-7-5.5c-1.5-4.4,1.2-11,5.3-20.5
			c0,0,19.1-48.2,14.7-36s7.6-19.7,15.2-35.9C97,249.1,104.7,245.6,111.1,247.4z"/>
		<path style="clip-path:url(#SVGID_3_);fill:#F1F3F7;" d="M190.7,241l-3.8,1.3c-6.4,1.8-6.3,15.6,0.3,30.8l11.1,30.4l11.5,35.6
			c3.6,8.3,5.8,15.1,9.9,18.2c3.4,2.6,8.7,2.9,11.6,2.1l9.4-2.6c2.4-0.7,6.1-2.9,7-5.5c1.5-4.4-1.2-11-5.3-20.5
			c0,0-19.1-48.2-14.7-36s-7.6-19.7-15.2-35.9C204.9,242.7,197.1,239.2,190.7,241z"/>
		<polygon style="opacity:0.4;clip-path:url(#SVGID_3_);fill:#DCDDE0;" points="152.2,272.3 152.2,237.5 167.3,244.5 		"/>
		<polygon style="opacity:0.4;clip-path:url(#SVGID_3_);fill:#DCDDE0;" points="152.2,272.3 152.2,237.5 137.2,244.5 		"/>
		<polygon style="clip-path:url(#SVGID_3_);fill:#0076B7;" points="163.2,243.1 151.9,237.7 142.9,244.5 148.8,253.6 156.5,253.7 		
			"/>
		<polygon style="clip-path:url(#SVGID_3_);fill:#0076B7;" points="166.8,330.8 154.1,344.9 139.5,332.5 148.8,253.6 156.5,253.7 		
			"/>
		<polygon style="clip-path:url(#SVGID_3_);fill:#FFFFFF;" points="152.2,237.5 152.2,238.1 166.7,250.7 173,237.6 170.1,232 		"/>
		<polygon style="clip-path:url(#SVGID_3_);fill:#FFFFFF;" points="152.2,237.5 152.2,238.1 137.8,250.7 131.5,237.6 134.4,232 		
			"/>
		<g style="clip-path:url(#SVGID_3_);">
			<polygon class="st9" points="166.8,298.2 179.4,304.6 192.4,298.2 192.4,279.1 166.8,279.1 			"/>
			<rect x="166.8" y="271" class="st9" width="25.6" height="6"/>
		</g>
		<path style="clip-path:url(#SVGID_3_);fill:#F7CFA2;" d="M57.4,206.4c0,0.3,0,0.5,0,0.8C57.4,207,57.4,206.7,57.4,206.4z"/>
	</g>
	<path class="st11" d="M57.4,205.8c0,0.2,0,0.5,0,0.7C57.4,206.2,57.4,206,57.4,205.8z"/>
	<g>
		<path class="st11" d="M188.7,148.7c0.2-0.1,0.5-0.2,0.7-0.4C189.2,148.5,189,148.6,188.7,148.7z"/>
		<path class="st11" d="M188.1,149.1c0.2-0.1,0.4-0.2,0.6-0.3C188.5,148.8,188.3,149,188.1,149.1z"/>
		<path class="st11" d="M186.4,151.1c-0.1,0.9-0.3,2.6,0.4,3.3l2.7-6.1c-0.2,0.1-0.5,0.3-0.7,0.4c-0.2,0.1-0.4,0.2-0.6,0.3
			C187.3,149.5,186.6,150,186.4,151.1z"/>
		<ellipse transform="matrix(0.952 -0.306 0.306 0.952 -32.7285 69.2305)" class="st11" cx="204.5" cy="139" rx="16.8" ry="16.8"/>
		<ellipse transform="matrix(0.952 -0.306 0.306 0.952 -32.7285 69.2305)" class="st12" cx="204.5" cy="139" rx="11.1" ry="11.1"/>
		<path class="st20" d="M179.9,200.1c0,0-8.3,12.2-22,16.6c-13.7,4.4-27.6-0.7-27.6-0.7s12.8-1.5,26.6-5.9S179.9,200.1,179.9,200.1z
			"/>
		<ellipse transform="matrix(0.952 -0.306 0.306 0.952 -43.7699 64.6778)" class="st12" cx="184.4" cy="172" rx="2.5" ry="1.3"/>
		<ellipse transform="matrix(0.952 -0.306 0.306 0.952 -42.3839 67.4305)" class="st12" cx="193.9" cy="168.9" rx="2.5" ry="1.3"/>
		<ellipse transform="matrix(0.952 -0.306 0.306 0.952 -44.4532 66.7471)" class="st12" cx="190.7" cy="175.2" rx="2.5" ry="1.3"/>
		<g class="st23">
			<path class="st11" d="M111.2,61.6c4.9,0,9.5-2.5,14.2-3.7c5.1-1.2,10.4-0.4,15.5-1.6c0.8-0.2,0.6-1.4-0.2-1.4
				c-4.9,0.2-10-0.4-14.9,0.7c-4.7,1.1-10.8,2.7-14.7,5.5C110.8,61.2,110.9,61.6,111.2,61.6L111.2,61.6z"/>
		</g>
	</g>
	<path class="st9" d="M116.7,300.9c-4.9,3.8-10,7.3-15.3,10.1c-9.6,5.2-21.1,7.5-28.7-2.1c-12.6-15.9,9-35.3,20.9-44
		c10.8-7.9,55.7-36.3,61-8.5c1.1,5.5-3.3,11.4-5.6,15.7c-2.7,5-11.4,4.6-12.4,5.9C131.7,284.2,123.2,296,116.7,300.9z"/>
	<path class="st48" d="M105.1,311.7c10.2-4.2,12-1.4,19.7-11.4c0.9-1-2.3-9.4-1.5-10.4c2-4.2,4.8-7.2,8.1-9.7
		c-2-3.9-3.3-8.4-4.8-12.5c2.9,4.6,8.8,6.2,14.6,5.7c1.3-0.9,2.6-1.9,3.9-3c3.6-3.7,7.6-5.2,7.8-10.1c0.1-2.4-0.1-4.9-0.7-7.1
		c-9.5-23.1-37.1,0.9-53,6.3c-1.7,1.2-3.4,2.4-5.1,3.6c-5,3.6-9.9,7.4-14.5,11.6c-1.3,1.5-2.5,3-3.6,4.6c-5.3,7.9-7.6,16.8-1.3,24.7
		c2.6,3.2,5.1,8.6,8.3,9.5c1.6,0.4,10.6,1.9,12.3,1.9C97.1,315.4,103.5,312.1,105.1,311.7z"/>
	<path class="st38" d="M209.9,236.5c-0.2-0.8,25.2-86.9,25-87.7c-0.5-2.3-0.1-4.9-0.1-7.4c0-3.8-0.2-7.5-0.6-11.2
		c-5.5-47.7-46-84.7-95.2-84.7c-52.9,0-95.8,42.9-95.8,95.8c0,26,26.3,95.7,26.4,98.7c21.1-13.1,47.2,7,68.7-4.8
		C168.9,218.8,176.6,246.4,209.9,236.5z"/>
	<g>
		<defs>
			<path id="SVGID_44_" d="M248.6,220.8c0,55.1-44.7,99.7-99.7,99.7s-99.7-44.7-99.7-99.7S93.8,55.1,148.9,55.1
				C203.9,55.1,248.6,165.7,248.6,220.8z"/>
		</defs>
		<clipPath id="SVGID_4_">
			<use xlink:href="#SVGID_44_"  style="overflow:visible;"/>
		</clipPath>
		<g style="clip-path:url(#SVGID_4_);">
			<path class="st48" d="M184.6,276.7c0-15.4,6.5-27.6-3.3-32.8c-5.9-3.1-16.7-4.5-24.2-4.5l-30,1.7c-9.2,0.5-23.8,3.9-30.3,9.4
				C89,257,98,267.8,98,281.2l13.8,82.7c0,6.7-0.2,33.1,2,38.7c31.6,1,25.2-3.3,57.1-3.9c3.1-6.7,1.3-14.2,1.3-22.3L184.6,276.7z"/>
			<path class="st48" d="M103.5,248.4l3.9,5c6,2,5.8,18.3-0.3,36L96.8,325L86,366.7c-3.3,9.7-5.4,17.7-9.3,21.3
				c-3.2,3-8.1,3.4-10.8,2.4l-8.8-3c-2.2-0.8-5.7-3.4-6.6-6.5c-1.4-5.2,1.1-12.9,4.9-24c0,0,17.9-56.4,13.7-42.1
				c-4.1,14.2,7.1-23.1,14.2-42C90.6,253.8,97.5,246.4,103.5,248.4z"/>
			<path class="st48" d="M178.1,244.4l-3.6,1.5c-6,2-5.8,18.3,0.3,36l10.3,35.6l10.7,41.6c3.3,9.7,5.4,17.7,9.3,21.3
				c3.2,3,8.1,3.4,10.8,2.4l8.8-3c2.2-0.8,5.7-3.4,6.6-6.5c1.4-5.2-1.1-12.9-4.9-24c0,0-17.9-56.4-13.7-42.1s-7.1-23.1-14.2-42
				S184.1,242.3,178.1,244.4z"/>
			<path class="st12" d="M145.5,245.5h-6.9c-6.8,0-12.3-5.5-12.3-12.3v-20.8c0-6.8,5.5-12.3,12.3-12.3h6.9c6.8,0,12.3,5.5,12.3,12.3
				v20.8C157.9,239.9,152.3,245.5,145.5,245.5z"/>
			<polygon class="st86" points="142.2,281 142.2,240.7 156.2,248.9 			"/>
			<polygon class="st86" points="142.2,281 142.2,240.3 128.2,248.4 			"/>
			<polygon class="st87" points="152.4,246.8 142.3,240.9 133.5,248.5 139,259.1 146.1,259.2 			"/>
			<polygon class="st87" points="155.8,349.5 144,365.9 130.3,351.4 139,259.1 146.1,259.2 			"/>
			<path class="st9" d="M142.2,240.3v0.7c0,0-6.5,16.9-13.3,11.8c-6.8-5.1-6.1-12.3-6.1-12.3l2.7-6.6L142.2,240.3z"/>
			<path class="st9" d="M142.5,240.3v0.7c0,0,6.5,16.9,13.3,11.8c6.8-5.1,6.1-12.3,6.1-12.3l-2.7-6.6L142.5,240.3z"/>
			<g class="st88">
				<polygon class="st89" points="155.8,311.3 167.5,318.8 179.7,311.3 179.7,289 155.8,289 				"/>
				<rect x="155.8" y="279.5" class="st89" width="23.9" height="7"/>
			</g>
			<path class="st90" d="M183.7,301.8c1.4-7,2.4-13.8,3.6-20.5c-1.3-1.1-2.5-2.3-3.6-3.6c-8.5-10-10.4-23.4-8.9-36.3
				c-3.5-0.8-7.3-1.5-10.8-1.8c0,6-0.5,12-1.2,18c0,3.5-2.2,6.6-3.9,10.1c-1.7,3.1-5.2,5.2-8.7,6.1c-20.6,5.1-31.3-13.1-33.5-31.2
				c-5.6,1.2-7.2,1.1-11.6,3.5c2,9.9-0.9,25.2-8.2,35.6c8.7,41.3,15.4,81.7,4.6,123.2c25.7,0.4,51.7-1.1,77.5-1.9
				C175.2,369.3,176.4,336.1,183.7,301.8z"/>
		</g>
	</g>
	<path class="st91" d="M183.2,277.5h-4.1c-0.3,0-0.6-0.1-0.7-0.2c-0.1-0.1-0.2-0.4-0.2-0.7v-12.5h-3.7c-0.3,0-0.6-0.1-0.7-0.2
		c-0.1-0.1-0.2-0.4-0.2-0.7v-3.1c0-0.3,0.1-0.6,0.2-0.7c0.1-0.1,0.4-0.2,0.7-0.2h13.4c0.3,0,0.6,0.1,0.7,0.2
		c0.1,0.1,0.2,0.4,0.2,0.7v3.1c0,0.3-0.1,0.6-0.2,0.7c-0.1,0.1-0.4,0.2-0.7,0.2h-3.7l0,12.5c0,0.3-0.1,0.6-0.2,0.7
		C183.8,277.4,183.6,277.5,183.2,277.5z"/>
	<path class="st91" d="M206.6,272.7c0,0.8-0.1,1.5-0.3,2.1c-0.2,0.6-0.6,1.2-1.2,1.6c-0.6,0.4-1.4,0.8-2.4,1.1
		c-1,0.3-2.3,0.4-3.9,0.4s-2.9-0.1-3.9-0.4c-1-0.3-1.8-0.6-2.4-1.1c-0.6-0.4-1-1-1.2-1.6c-0.2-0.6-0.3-1.3-0.3-2.1v-8.6
		c0-0.8,0.1-1.5,0.3-2.1c0.2-0.6,0.6-1.2,1.2-1.6c0.6-0.5,1.4-0.8,2.4-1.1c1-0.3,2.3-0.4,3.9-0.4s2.9,0.1,3.9,0.4
		c1,0.3,1.8,0.6,2.4,1.1c0.6,0.5,1,1,1.2,1.6c0.2,0.6,0.3,1.3,0.3,2.1L206.6,272.7z M196.6,271.8c0,0.3,0.1,0.6,0.4,0.9
		c0.3,0.2,0.8,0.3,1.7,0.3c0.9,0,1.5-0.1,1.7-0.3c0.3-0.2,0.4-0.5,0.4-0.9V265c0-0.3-0.1-0.6-0.4-0.8c-0.3-0.2-0.8-0.3-1.7-0.3
		c-0.9,0-1.5,0.1-1.7,0.3c-0.3,0.2-0.4,0.5-0.4,0.8V271.8z"/>
	<path class="st91" d="M214.5,277.5h-3.8c-0.3,0-0.6-0.1-0.7-0.2c-0.1-0.1-0.2-0.4-0.2-0.7v-16.4c0-0.3,0.1-0.6,0.2-0.7
		c0.1-0.1,0.4-0.2,0.7-0.2h2.6c0.3,0,0.6,0.1,0.8,0.2c0.2,0.1,0.5,0.3,0.7,0.5l4.9,5.6v-5.4c0-0.3,0.1-0.6,0.2-0.7
		c0.1-0.1,0.4-0.2,0.7-0.2h3.8c0.3,0,0.6,0.1,0.7,0.2c0.1,0.1,0.2,0.4,0.2,0.7v16.4c0,0.3-0.1,0.6-0.2,0.7c-0.1,0.1-0.4,0.2-0.7,0.2
		h-3.8c-0.3,0-0.6-0.1-0.7-0.2c-0.1-0.1-0.2-0.4-0.2-0.7v-3.1l-4.3-5.2v8.4c0,0.3-0.1,0.6-0.2,0.7
		C215.1,277.4,214.8,277.5,214.5,277.5z"/>
	<path class="st91" d="M237.5,277.5h-4.1c-0.3,0-0.6-0.1-0.7-0.2c-0.1-0.1-0.2-0.4-0.2-0.7l0-12.5h-3.7c-0.3,0-0.6-0.1-0.7-0.2
		c-0.1-0.1-0.2-0.4-0.2-0.7v-3.1c0-0.3,0.1-0.6,0.2-0.7c0.1-0.1,0.4-0.2,0.7-0.2l13.4,0c0.3,0,0.6,0.1,0.7,0.2
		c0.1,0.1,0.2,0.4,0.2,0.7v3.1c0,0.3-0.1,0.6-0.2,0.7c-0.1,0.1-0.4,0.2-0.7,0.2h-3.7v12.5c0,0.3-0.1,0.6-0.2,0.7
		C238.1,277.4,237.8,277.5,237.5,277.5z"/>
	<path class="st91" d="M249.7,276.6c0,0.3-0.1,0.6-0.2,0.7c-0.1,0.1-0.4,0.2-0.7,0.2h-3.7c-0.3,0-0.6-0.1-0.7-0.2
		c-0.1-0.1-0.2-0.4-0.2-0.7v-6.7c0-0.5,0.1-1.1,0.2-1.7c0.2-0.7,0.4-1.4,0.7-2.3l2.2-5.8c0.1-0.3,0.3-0.5,0.5-0.6
		c0.2-0.1,0.5-0.2,0.8-0.2h6.8c0.3,0,0.6,0.1,0.8,0.2s0.4,0.3,0.5,0.6l2.2,5.8c0.3,0.9,0.6,1.6,0.7,2.3c0.2,0.7,0.2,1.2,0.2,1.7v6.7
		c0,0.3-0.1,0.6-0.2,0.7c-0.1,0.1-0.4,0.2-0.7,0.2h-3.8c-0.3,0-0.6-0.1-0.7-0.2c-0.2-0.1-0.2-0.4-0.2-0.7v-3.5h-4.5V276.6z
		 M251.1,264.6l-1.2,3.9h4l-1.2-3.9c-0.1-0.2-0.1-0.3-0.2-0.3c-0.1-0.1-0.2-0.1-0.3-0.1h-0.6c-0.1,0-0.2,0-0.3,0.1
		C251.3,264.3,251.2,264.4,251.1,264.6z"/>
	<path class="st91" d="M265.9,280.1h-2c-0.3,0-0.6-0.1-0.7-0.2c-0.1-0.1-0.2-0.4-0.2-0.7l0-1c0-0.3,0.1-0.6,0.2-0.7
		c0.1-0.1,0.4-0.2,0.7-0.2h1.7c0.2,0,0.4-0.1,0.5-0.2c0.1-0.1,0.2-0.3,0.2-0.5v-0.4h-2.8c-0.3,0-0.6-0.1-0.7-0.2
		c-0.1-0.1-0.2-0.4-0.2-0.7v-3.8c0-0.3,0.1-0.6,0.2-0.7c0.1-0.1,0.4-0.2,0.7-0.2h5.1c0.3,0,0.6,0.1,0.7,0.2c0.1,0.1,0.2,0.4,0.2,0.7
		v4.8c0,1.3-0.3,2.2-1,2.9C267.9,279.7,267,280.1,265.9,280.1z"/>
	<path class="st92" d="M208.6,301.6l-3.9-0.5c-0.3,0-0.5-0.1-0.7-0.3c-0.1-0.2-0.2-0.4-0.1-0.7l2.2-16.3c0-0.3,0.1-0.5,0.3-0.7
		c0.2-0.1,0.4-0.2,0.7-0.1l11.2,1.5c0.3,0,0.5,0.1,0.7,0.3c0.1,0.2,0.2,0.4,0.1,0.7l-0.4,3c0,0.3-0.1,0.5-0.3,0.7
		c-0.2,0.1-0.4,0.2-0.7,0.1l-6.4-0.9l-0.4,2.6l4.4,0.6c0.3,0,0.5,0.1,0.7,0.3c0.1,0.2,0.2,0.4,0.1,0.7l-0.4,3c0,0.3-0.1,0.5-0.3,0.7
		c-0.2,0.1-0.4,0.2-0.7,0.1l-4.4-0.6l-0.7,5c0,0.3-0.1,0.5-0.3,0.7C209.1,301.6,208.9,301.6,208.6,301.6z"/>
	<path class="st92" d="M231.9,304.7l-11.7-1.6c-0.3,0-0.5-0.1-0.7-0.3c-0.1-0.2-0.2-0.4-0.1-0.7l2.2-16.3c0-0.3,0.1-0.5,0.3-0.7
		c0.2-0.1,0.4-0.2,0.7-0.1l11.7,1.6c0.3,0,0.5,0.1,0.7,0.3c0.1,0.2,0.2,0.4,0.1,0.7l-0.4,2.9c0,0.3-0.1,0.5-0.3,0.7
		c-0.2,0.1-0.4,0.2-0.7,0.1l-6.9-0.9l-0.3,1.9l4.9,0.7c0.3,0,0.5,0.1,0.7,0.3c0.1,0.2,0.2,0.4,0.1,0.7l-0.4,2.7
		c0,0.3-0.1,0.5-0.3,0.7c-0.2,0.1-0.4,0.2-0.7,0.1l-4.9-0.7l-0.3,2.2l6.9,0.9c0.3,0,0.5,0.1,0.7,0.3c0.1,0.2,0.2,0.4,0.1,0.7
		l-0.4,2.9c0,0.3-0.1,0.5-0.3,0.7C232.4,304.7,232.2,304.8,231.9,304.7z"/>
	<path class="st92" d="M241,305c0,0.3-0.1,0.5-0.3,0.7c-0.2,0.1-0.4,0.2-0.7,0.1l-3.7-0.5c-0.3,0-0.5-0.1-0.7-0.3
		c-0.1-0.2-0.2-0.4-0.1-0.7l0.9-6.6c0.1-0.5,0.2-1.1,0.5-1.7c0.2-0.6,0.6-1.4,1-2.2l3-5.4c0.1-0.3,0.3-0.5,0.5-0.6
		c0.2-0.1,0.5-0.1,0.8-0.1l6.8,0.9c0.3,0,0.6,0.1,0.8,0.3c0.2,0.2,0.3,0.4,0.4,0.7l1.4,6c0.2,0.9,0.4,1.7,0.4,2.4
		c0.1,0.7,0.1,1.3,0,1.8l-0.9,6.6c0,0.3-0.1,0.5-0.3,0.7c-0.2,0.1-0.4,0.2-0.7,0.1l-3.8-0.5c-0.3,0-0.6-0.1-0.7-0.3
		c-0.1-0.2-0.2-0.4-0.1-0.7l0.5-3.5l-4.4-0.6L241,305z M244,293.3l-1.7,3.7l3.9,0.5l-0.7-4c0-0.2-0.1-0.3-0.2-0.4
		c-0.1-0.1-0.1-0.1-0.3-0.1l-0.6-0.1c-0.1,0-0.2,0-0.3,0.1C244.2,293.1,244.1,293.2,244,293.3z"/>
	<path class="st92" d="M260.5,301.9l-3.9-0.5c-0.3,0-0.5-0.1-0.7-0.3c-0.1-0.2-0.2-0.4-0.1-0.7l0.9-9.8c0-0.3,0.1-0.5,0.3-0.7
		c0.2-0.1,0.4-0.2,0.7-0.1l4.8,0.6c0.3,0,0.5,0.1,0.6,0.3c0.1,0.2,0.1,0.4,0.1,0.7l-1.7,9.7c-0.1,0.3-0.2,0.5-0.3,0.7
		C261.1,301.9,260.8,301.9,260.5,301.9z M260,308.5l-4.6-0.6c-0.3,0-0.5-0.1-0.7-0.3c-0.1-0.2-0.2-0.4-0.1-0.7l0.4-3.3
		c0-0.3,0.1-0.5,0.3-0.7c0.2-0.1,0.4-0.2,0.7-0.1l4.6,0.6c0.3,0,0.5,0.1,0.7,0.3c0.1,0.2,0.2,0.4,0.1,0.7l-0.4,3.3
		c0,0.3-0.1,0.5-0.3,0.7C260.6,308.5,260.3,308.5,260,308.5z"/>
	<path class="st92" d="M271.2,303.3l-3.9-0.5c-0.3,0-0.5-0.1-0.7-0.3c-0.1-0.2-0.2-0.4-0.1-0.7l0.9-9.8c0-0.3,0.1-0.5,0.3-0.7
		c0.2-0.1,0.4-0.2,0.7-0.1l4.8,0.6c0.3,0,0.5,0.1,0.6,0.3c0.1,0.2,0.1,0.4,0.1,0.7l-1.7,9.7c-0.1,0.3-0.2,0.5-0.3,0.7
		C271.7,303.3,271.5,303.3,271.2,303.3z M270.7,309.9l-4.6-0.6c-0.3,0-0.5-0.1-0.7-0.3c-0.1-0.2-0.2-0.4-0.1-0.7l0.4-3.3
		c0-0.3,0.1-0.5,0.3-0.7c0.2-0.1,0.4-0.2,0.7-0.1l4.6,0.6c0.3,0,0.5,0.1,0.7,0.3c0.1,0.2,0.2,0.4,0.1,0.7l-0.4,3.3
		c0,0.3-0.1,0.5-0.3,0.7C271.2,309.9,271,310,270.7,309.9z"/>
	<path class="st11" d="M92.6,325.6l-3.7,1c-5.5,1.5-11.1-1.7-12.7-7.2l-6.4-23.1c-1.5-5.4,1.7-11.1,7.2-12.7l3.7-1
		c5.5-1.5,11.1,1.7,12.7,7.2l6.4,23.1C101.3,318.4,98.1,324.1,92.6,325.6z"/>
	<path class="st11" d="M134.4,329.8l-3.7,1c-5.5,1.5-11.1-1.7-12.7-7.2l-6.4-23.1c-1.5-5.4,1.7-11.1,7.2-12.7l3.7-1
		c5.5-1.5,11.1,1.7,12.7,7.2l6.4,23.1C143,322.6,139.8,328.3,134.4,329.8z"/>
	<path class="st11" d="M114.6,328l-3.7,1c-5.5,1.5-11.1-1.7-12.7-7.2l-6.4-23.1c-1.5-5.4,1.7-11.1,7.2-12.7l3.7-1
		c5.5-1.5,11.1,1.7,12.7,7.2l6.4,23.1C123.3,320.8,120.1,326.5,114.6,328z"/>
	<circle class="st11" cx="70.8" cy="146.8" r="16.4"/>
	<circle class="st15" cx="70.8" cy="146.8" r="10.8"/>
	<circle class="st11" cx="204.4" cy="146.8" r="16.4"/>
	<circle class="st15" cx="204.4" cy="146.8" r="10.8"/>
	<path class="st11" d="M205.4,132.3c0-30.7-30.4-55.5-67.9-55.5c-37.5,0-67.9,24.9-67.9,55.5c0,6.9,0,32.1,0,39
		c0,30.7,44.7,55.5,67.9,55.5c20.4,0,67.9-24.9,67.9-55.5C205.4,164.4,205.4,139.1,205.4,132.3z"/>
	<path class="st38" d="M128.9,73.8c0.6-0.8,0.5-2-0.4-2.5c0,0,0,0,0,0c-20.9-14.3-49.4-9-63.7,11.9c-9.9,14.4-10.4,32.4-2.9,46.9
		c0.5,0.9,1.7,1.2,2.6,0.6C88.3,114.4,111.4,96.3,128.9,73.8z"/>
	<path class="st38" d="M199.2,92.9c1-0.1,1.7-1.1,1.5-2.1c0,0,0,0,0,0c-4.6-24.9-28.5-41.3-53.4-36.7C130.1,57.3,117,69.7,112,85.2
		c-0.3,1,0.3,2.1,1.4,2.3C141.7,92.8,170.9,96.3,199.2,92.9z"/>
	<path class="st38" d="M208.1,134.9c0.5,0.4,1.5,0.1,2-0.7c0,0,0,0,0,0c14.2-21,0-50.3-13.2-64.2c-8.1-8.6-36-23.7-48.4-14.7
		c-0.8,0.6,24.3,30,24.6,30.7C182.4,104.8,193.2,122.7,208.1,134.9z"/>
	<g>
		<path class="st15" d="M193.5,147.7c0,13.6-6,24.7-19.7,24.7c-13.6,0-22.2-11.1-22.2-24.7s8.6-24.7,22.2-24.7
			C187.4,123,193.5,134,193.5,147.7z"/>
		<path class="st9" d="M194.1,148.8c0,11.8-10.8,12.5-22.6,12.5c-11.8,0-20.3-0.6-20.3-12.5s8.1-11.8,19.9-11.8
			C183,137,194.1,137,194.1,148.8z"/>
		<path class="st38" d="M187,130.7h-29c-4.1,0-7.4-3.3-7.4-7.4v0c0-4.1,3.3-7.4,7.4-7.4h29c4.1,0,7.4,3.3,7.4,7.4v0
			C194.4,127.3,191,130.7,187,130.7z"/>
		<circle class="st13" cx="172.7" cy="148.8" r="10.3"/>
		<circle cx="172.7" cy="148.8" r="4"/>
		<circle class="st16" cx="170.1" cy="144.1" r="2.9"/>
	</g>
	<g>
		<path class="st15" d="M81.3,147.7c0,13.6,6,24.7,19.7,24.7s22.2-11.1,22.2-24.7S114.6,123,101,123S81.3,134,81.3,147.7z"/>
		<ellipse class="st9" cx="102.1" cy="147.7" rx="21.4" ry="12.4"/>
		<path class="st38" d="M87.8,130.7h29c4.1,0,7.4-3.3,7.4-7.4v0c0-4.1-3.3-7.4-7.4-7.4h-29c-4.1,0-7.4,3.3-7.4,7.4v0
			C80.4,127.3,83.8,130.7,87.8,130.7z"/>
		<circle class="st13" cx="102.1" cy="148.8" r="10.3"/>
		<circle cx="102.1" cy="148.8" r="4"/>
		<circle class="st16" cx="99.7" cy="144.1" r="2.9"/>
	</g>
	<path class="st20" d="M169.8,190.2c-22.1-9.3-44.1,4.7-65.1,9.7c20-5,39-29,59.6-12.7C167.8,189.5,169.8,190.2,169.8,190.2z"/>
	<path class="st15" d="M137.1,174.8L137.1,174.8c-3.4,0-6.2-2.8-6.2-6.2v-22.4c0-3.4,2.8-6.2,6.2-6.2h0c3.4,0,6.2,2.8,6.2,6.2v22.4
		C143.3,172,140.5,174.8,137.1,174.8z"/>
	<path class="st11" d="M136.1,170L136.1,170c-3.4,0-6.2-2.8-6.2-6.2v-22.4c0-3.4,2.8-6.2,6.2-6.2h0c3.4,0,6.2,2.8,6.2,6.2v22.4
		C142.3,167.2,139.5,170,136.1,170z"/>
	<path class="st38" d="M76.8,84.6v33.8h76.7l3-25.3l4.6,25.3c0,0,11.5,1.5,20,1.4c7.1-0.1,24.1,10.8,24.1,10.8l-3.9-51.9l-97-15.2
		L76.8,84.6z"/>
	<g class="st23">
		<path class="st11" d="M136.2,53.3c3.1,0.2,6.1,1.1,9.1,1.2c4,0.2,7.8,0,11.7,0.8c2.8,0.6,5.6,1.4,8.4,2.1c2.7,0.7,5.1,2.1,7.8,2.8
			c1.1,0.3,3.4-1.3,1.7-1.7c-2.7-0.7-5-2.2-7.8-2.8c-3.4-0.8-6.7-1.8-10.1-2.4c-3.3-0.6-6.4-0.5-9.7-0.6c-3.4-0.1-6.7-1-10.1-1.3
			C136.1,51.3,134.3,53.1,136.2,53.3L136.2,53.3z"/>
	</g>
	<g>
		<path class="st93" d="M235.2,220.1c0,1.3-0.2,2.5-0.6,3.6c-0.4,1.1-1,2-2,2.8c-0.9,0.8-2.2,1.4-3.9,1.8s-3.7,0.6-6.2,0.6
			c-2.5,0-4.6-0.2-6.2-0.6c-1.6-0.4-2.9-1-3.8-1.8c-0.9-0.8-1.6-1.7-1.9-2.8c-0.4-1.1-0.5-2.3-0.5-3.6v-7c0-0.5,0.1-0.9,0.4-1.2
			c0.2-0.2,0.6-0.4,1.2-0.4h6.2c0.5,0,0.9,0.1,1.2,0.4c0.2,0.2,0.4,0.6,0.4,1.2v5.3c0,0.6,0.2,1.1,0.5,1.4c0.4,0.4,1.2,0.6,2.5,0.6
			c1.2,0,2-0.2,2.3-0.6c0.3-0.4,0.5-0.9,0.5-1.4v-19.6c0-0.5,0.1-0.9,0.4-1.2c0.2-0.2,0.6-0.4,1.2-0.4h6.8c0.5,0,0.9,0.1,1.2,0.4
			c0.2,0.2,0.4,0.6,0.4,1.2V220.1z"/>
		<path class="st93" d="M249.7,226.7c0,0.5-0.1,0.9-0.4,1.2c-0.2,0.2-0.6,0.4-1.2,0.4h-6.3c-0.5,0-0.9-0.1-1.2-0.4
			c-0.2-0.2-0.4-0.6-0.4-1.2v-11.4c0-0.9,0.1-1.9,0.4-3c0.3-1.1,0.7-2.4,1.3-3.9l3.7-9.8c0.2-0.5,0.4-0.8,0.8-1.1
			c0.4-0.2,0.8-0.3,1.4-0.3h11.6c0.5,0,1,0.1,1.4,0.3s0.6,0.6,0.8,1.1l3.7,9.8c0.6,1.5,1,2.8,1.3,3.9c0.3,1.1,0.4,2.1,0.4,3v11.4
			c0,0.5-0.1,0.9-0.4,1.2c-0.2,0.2-0.6,0.4-1.2,0.4H259c-0.6,0-1-0.1-1.3-0.4c-0.3-0.2-0.4-0.6-0.4-1.2v-6h-7.6V226.7z M252.2,206.2
			l-2,6.6h6.8l-2-6.6c-0.1-0.3-0.2-0.4-0.4-0.6c-0.1-0.1-0.3-0.2-0.5-0.2H253c-0.2,0-0.3,0.1-0.5,0.2
			C252.4,205.8,252.3,206,252.2,206.2z"/>
	</g>
</g>
<g id="Layer_2">
</g>
</svg>
