<svg id="8f35a7c6-0e6c-4b65-8962-ae4145fe7612" data-name="Layer 1" xmlns="http://www.w3.org/2000/svg" xmlns:xlink="http://www.w3.org/1999/xlink" viewBox="0 0 300 450"><defs><clipPath id="0397ca9e-dbd5-4880-9917-73736ec400d8"><path d="M250.12,217.9a99.73,99.73,0,0,1-199.47,0c0-55.08-18.24-171.13,112.17-162.62C217.79,58.87,250.12,162.82,250.12,217.9Z" style="fill:none"/></clipPath></defs><title>juego2_ilust</title><circle cx="150" cy="217.41" r="99.73" style="fill:#dcffc5"/><g style="clip-path:url(#0397ca9e-dbd5-4880-9917-73736ec400d8)"><path d="M207.73,268.24c0-13.15-.33-22.23-10.85-26.72-6.31-2.69-20.54-4.82-28.7-4.45L136,238.55c-9.84.45-25.5,3.34-32.44,8-8.4,5.63-7.11,14-7.11,25.5v90.58a35.8,35.8,0,0,0,3.64,15.8c33.9.86,68.22-1.13,102.33-1.65a38.28,38.28,0,0,0,5.27-19.24Z" style="fill:#f1f3f7"/><path d="M111.09,247.75l3.82,1.31c6.39,1.75,6.26,15.62-.29,30.81l-11.08,30.44-11.47,35.6c-3.58,8.32-5.82,15.13-9.92,18.24-3.39,2.57-8.66,2.88-11.55,2.09l-9.44-2.59c-2.4-.66-6.11-2.88-7-5.54-1.55-4.43,1.18-11,5.27-20.52,0,0,19.12-48.18,14.69-36s7.61-19.74,15.22-35.94S104.71,246,111.09,247.75Z" style="fill:#f1f3f7"/><path d="M190.69,241.35l-3.82,1.31c-6.39,1.75-6.26,15.62.29,30.81l11.08,30.44,11.47,35.6c3.58,8.32,5.82,15.13,9.92,18.24,3.39,2.57,8.66,2.88,11.55,2.09l9.44-2.59c2.4-.66,6.11-2.88,7-5.54,1.55-4.43-1.18-11-5.27-20.52,0,0-19.12-48.18-14.69-36s-7.61-19.74-15.22-35.94S197.08,239.59,190.69,241.35Z" style="fill:#f1f3f7"/><polygon points="152.22 272.68 152.22 237.84 167.25 244.84 152.22 272.68" style="fill:#dcdde0;opacity:0.400000005960465"/><polygon points="152.22 272.68 152.22 237.84 137.2 244.84 152.22 272.68" style="fill:#dcdde0;opacity:0.400000005960465"/><polygon points="163.2 243.44 151.93 238.04 142.91 244.88 148.79 253.93 156.44 254.06 163.2 243.44" style="fill:#0076b7"/><polygon points="166.75 331.2 154.13 345.24 139.47 332.82 148.79 253.93 156.44 254.06 166.75 331.2" style="fill:#0076b7"/><polygon points="152.22 237.84 152.22 238.47 166.7 251.02 172.98 238 170.06 232.39 152.22 237.84" style="fill:#fff"/><polygon points="152.22 237.84 152.22 238.47 137.75 251.02 131.47 238 134.39 232.39 152.22 237.84" style="fill:#fff"/><polygon points="166.75 298.55 179.37 304.95 192.37 298.55 192.37 279.47 166.75 279.47 166.75 298.55" style="fill:#fff"/><rect x="166.75" y="271.39" width="25.62" height="5.95" style="fill:#fff"/><path d="M57.4,206.8c0,.27,0,.53,0,.81C57.38,207.35,57.39,207.07,57.4,206.8Z" style="fill:#f7cfa2"/></g><path d="M57.43,206.12c0,.23,0,.45,0,.68Q57.42,206.45,57.43,206.12Z" style="fill:#f7cfa2"/><path d="M196.59,188.63l.8-.14Z" style="fill:#f7cfa2"/><path d="M195.92,188.75l.67-.11Z" style="fill:#f7cfa2"/><path d="M193.63,190.2c-.4.77-1.05,2.44-.64,3.29l4.41-5-.8.14-.67.11A2.82,2.82,0,0,0,193.63,190.2Z" style="fill:#f7cfa2"/><rect x="119.75" y="155.12" width="43.26" height="62.36" rx="16.9" ry="16.9" transform="translate(-1.03 0.78) rotate(-0.32)" style="fill:#f0ba7a"/><circle cx="78.12" cy="184.83" r="16.79" transform="translate(-1.02 0.43) rotate(-0.32)" style="fill:#f7cfa2"/><circle cx="78.12" cy="184.83" r="11.06" transform="translate(-1.02 0.43) rotate(-0.32)" style="fill:#f0ba7a"/><circle cx="214.52" cy="184.08" r="16.79" transform="translate(-1.01 1.19) rotate(-0.32)" style="fill:#f7cfa2"/><circle cx="214.52" cy="184.08" r="11.06" transform="translate(-1.01 1.19) rotate(-0.32)" style="fill:#f0ba7a"/><path d="M215.44,169.29c9.31-76.6-31.33-56.51-69.59-56.3s-69.13,25.76-69,57.07l.22,39.78c.17,31.31,45.91,56.43,69.59,56.3,20.87-.12,69.13-25.76,69-57.07C215.62,202.07,214.6,176.24,215.44,169.29Z" style="fill:#f7cfa2"/><path d="M190.9,152.65c-1.67-1.65,1.63-5,1.63-5,9.94-1.71,11.69,14.86,21.61,9.83,3.31-1.68,1.61-8.3,1.59-13.28,4,10.54,6.88,2.18,12.91-.87.53-5.5,1.06-10.1,1-12.78-.21-37.39-32.63-60.4-70-60.19-36.47.2-56.68,23-57.93,59.1,28.42-9.76,47.55,4.22,66.35,21.17C175.78,150.54,182.8,152.7,190.9,152.65Z" style="fill:#601515"/><path d="M142.35,102.74a1.8,1.8,0,0,0-.4-2.58h0a46.77,46.77,0,0,0-67.69,60.4,1.81,1.81,0,0,0,2.63.65C101.1,144.43,124.58,125.77,142.35,102.74Z" style="fill:#601515"/><path d="M203.35,183.86c.08,13.93-6,25.25-20,25.33S160.67,198,160.59,184.1s8.59-25.26,22.52-25.34S203.27,169.94,203.35,183.86Z" style="fill:#601515;opacity:0.100000001490116"/><circle cx="182.08" cy="185.16" r="21.89" transform="translate(-1.02 1.01) rotate(-0.32)" style="fill:#fff"/><circle cx="182.09" cy="196.62" r="10.47" transform="translate(-1.08 1.01) rotate(-0.32)" style="fill:#601515"/><circle cx="182.09" cy="196.62" r="4.06" transform="translate(-1.08 1.01) rotate(-0.32)"/><circle cx="179.43" cy="191.87" r="2.99" transform="translate(-1.06 0.99) rotate(-0.32)" style="fill:#f9f9f9"/><path d="M88.94,184.5c.08,13.93,6.31,25.18,20.24,25.1s22.59-11.41,22.52-25.34-8.87-25.17-22.8-25.09S88.86,170.57,88.94,184.5Z" style="fill:#601515;opacity:0.100000001490116"/><circle cx="110.22" cy="185.56" r="21.89" transform="translate(-1.02 0.61) rotate(-0.32)" style="fill:#fff"/><circle cx="110.04" cy="197.22" r="10.47" transform="translate(-1.09 0.61) rotate(-0.32)" style="fill:#601515"/><circle cx="110.04" cy="197.22" r="4.06" transform="translate(-1.09 0.61) rotate(-0.32)"/><circle cx="107.53" cy="192.47" r="2.99" transform="translate(-1.06 0.6) rotate(-0.32)" style="fill:#f9f9f9"/><path d="M120.64,244.28s11.63-9.14,26-9.22S172.8,244,172.8,244a158,158,0,0,0-27.11-2.35A121.54,121.54,0,0,0,120.64,244.28Z" style="fill:#ea6d50"/><rect x="135.85" y="167.16" width="20.08" height="56.37" rx="10.04" ry="10.04" transform="translate(-1.08 0.81) rotate(-0.32)" style="fill:#f0ba7a"/><rect x="133.82" y="161.2" width="20.08" height="56.37" rx="10.04" ry="10.04" transform="translate(-1.04 0.8) rotate(-0.32)" style="fill:#f7cfa2"/><path d="M98.15,128.63s18,7.91,26.61,13.5c11.9,7.73,37.09,8.57,37.09,8.57s-18.32-24.45-30.53-27.93S98.15,128.63,98.15,128.63Z" style="fill:#601515"/><path d="M90.71,94.87a92.91,92.91,0,0,1,10.91.11c5.16.6,13.55-3.21,13.55-3.21s-10-5-14.54-4.21S90.71,94.87,90.71,94.87Z" style="fill:#601515"/><path d="M122.22,72.44a92.92,92.92,0,0,0-2.42,10.64c-.6,5.16-6.25,12.44-6.25,12.44s-2.6-10.87-.73-15.12S122.22,72.44,122.22,72.44Z" style="fill:#601515"/><ellipse cx="96.28" cy="209.97" rx="2.5" ry="1.25" transform="translate(-1.16 0.53) rotate(-0.32)" style="fill:#f0ba7a"/><ellipse cx="106.23" cy="209.91" rx="2.5" ry="1.25" transform="translate(-1.16 0.59) rotate(-0.32)" style="fill:#f0ba7a"/><ellipse cx="101.28" cy="214.91" rx="2.5" ry="1.25" transform="translate(-1.19 0.56) rotate(-0.32)" style="fill:#f0ba7a"/><ellipse cx="185.5" cy="209.47" rx="2.5" ry="1.25" transform="translate(-1.15 1.03) rotate(-0.32)" style="fill:#f0ba7a"/><ellipse cx="195.45" cy="209.42" rx="2.5" ry="1.25" transform="translate(-1.15 1.08) rotate(-0.32)" style="fill:#f0ba7a"/><ellipse cx="190.5" cy="214.42" rx="2.5" ry="1.25" transform="translate(-1.18 1.06) rotate(-0.32)" style="fill:#f0ba7a"/><path d="M77,143.58l1.21,58.05,5.53-5.08,4.1-35.12s8.61-22.74,19.91-27.33,33.63-5.92,33.63-5.92L122.71,119Z" style="fill:#601515;opacity:0.300000011920929"/><path d="M217.41,140l-2.87,53.39-4.6,2.46-4.49-35.07s-8.86-22.64-20.21-27.11-33.7-5.54-33.7-5.54l18.57-9.41Z" style="fill:#601515;opacity:0.300000011920929"/><rect x="164.29" y="156.37" width="44.7" height="15.1" rx="7.55" ry="7.55" transform="translate(330.53 366.39) rotate(-166.69)" style="fill:#5b1010"/><rect x="86.21" y="155.27" width="44.7" height="15.1" rx="7.55" ry="7.55" transform="translate(268.13 276.09) rotate(159.06)" style="fill:#5b1010"/><g style="opacity:0.600000023841858"><path d="M148.84,82.17c4.95,1.58,10.36.33,15.47.76,5,.42,9.46,2.76,14.45,3.09a.7.7,0,0,0,.18-1.36c-4.59-1.19-9.06-3.21-13.8-3.73-4.93-.54-11.57-.83-16.31.73a.26.26,0,0,0,0,.51Z" style="fill:#f7cfa2"/></g><path d="M66.91,26q-.6,2.6-1.1,5.24C64.75,36.63,64,42.1,63.51,47.56q-.2,2-.38,4.1a228.66,228.66,0,0,0-1.25,27.62q.14,2.59.32,5.17c2.19,18.19,5,37,8.76,54.87.37,1.2.75,2.39,1.11,3.59a95,95,0,0,1,3.47,14.8c3.14-8,4.36-16.56,5.49-25.17.23-1.72.45-3.45.68-5.17A108.81,108.81,0,0,1,86,106.92q.49-2,1-3.93t1.12-3.91q.58-2,1.22-3.89c3.62-19-4-36.46-12.32-52.38-.72-1.65-1.45-3.31-2.2-5q-2.24-4.94-4.69-9.75-1.59-2-3.36-3.92" style="fill:#9e9e9e"/><path d="M68.78,38.71c.73,10.61,4.15,21.31,7,31.53,2.46,8.7,5,17.17,4.88,26.32q0,1.61-.14,3.22c-.93,12-4.92,24.07-4.56,36.58,0,1,0,2.07,0,3.11a60.25,60.25,0,0,1-.82,9.43c-1.32-3-6.06-37.06-8.79-49.68-.11-1.18-.18-2.38-.24-3.57-.35-7.16-.38-14.33-.75-21.35,0-1.26-.11-5.64-.13-6.59C64.54,59.74,68.78,38.71,68.78,38.71Z" style="fill:#878787"/><path d="M217.68,21.2q.61,2.63,1.11,5.3c1.07,5.43,1.79,11,2.34,16.49q.21,2.07.38,4.14a231.24,231.24,0,0,1,1.27,27.94q-.14,2.62-.32,5.22c-2.22,18.4-5,37.43-8.86,55.49-.38,1.21-.76,2.42-1.12,3.63a96.09,96.09,0,0,0-3.51,15c-3.17-8.11-4.41-16.74-5.55-25.45-.23-1.74-.45-3.49-.69-5.23A110,110,0,0,0,198.39,103q-.5-2-1-4t-1.13-4q-.59-2-1.24-3.94c-3.66-19.25,4.1-36.87,12.46-53,.73-1.67,1.47-3.35,2.22-5q2.26-5,4.74-9.86,1.6-2,3.4-4" style="fill:#9e9e9e"/><path d="M215.78,34c-.73,10.73-4.2,21.55-7.12,31.88-2.49,8.8-5.06,17.36-4.94,26.62q0,1.63.14,3.25c.94,12.18,5,24.34,4.61,37,0,1,0,2.1,0,3.14a60.93,60.93,0,0,0,.83,9.53c1.33-3,6.13-37.48,8.89-50.24.11-1.2.18-2.4.24-3.61.36-7.24.39-14.5.76-21.59,0-1.27.11-5.71.14-6.66C220.08,55.3,215.78,34,215.78,34Z" style="fill:#878787"/><rect x="66.07" y="137.24" width="158" height="18" style="fill:#878787"/><g style="opacity:0.600000023841858"><path d="M194.1,130.85q14.62,9.2,30,17.12c.74.38,3.06-.81,2.73-1q-15.34-7.93-30-17.12c-.69-.43-3.11.75-2.73,1Z" style="fill:#f7cfa2"/></g><g style="opacity:0.600000023841858"><path d="M197.59,139.64l20.49,19.29c.67.63,3.38-.45,2.7-1.09l-20.49-19.29c-.67-.63-3.38.45-2.7,1.09Z" style="fill:#f7cfa2"/></g><g style="opacity:0.600000023841858"><path d="M89.47,135.46l-27.79-3c-.63-.07-3.31,1-1.88,1.18l27.79,3c.63.07,3.31-1,1.88-1.18Z" style="fill:#f7cfa2"/></g><g style="opacity:0.600000023841858"><path d="M85.38,140.25l-20.13-3c-.46-.07-2.4,1-1.36,1.18l20.13,3c.46.07,2.4-1,1.36-1.18Z" style="fill:#f7cfa2"/></g><g style="opacity:0.600000023841858"><path d="M86.56,129.77A126.4,126.4,0,0,0,67,128.23c-1.06,0-3.09,1.59-1.14,1.6a122.22,122.22,0,0,1,18.93,1.48c.89.14,3.4-1.28,1.78-1.54Z" style="fill:#f7cfa2"/></g><path d="M121,222.69a7,7,0,0,0,14.05,0c0-3.88-7-16.86-7-16.86S121,218.81,121,222.69Z" style="fill:#7bcddb;opacity:0.7000000000000001"/><path d="M106.65,197.68c-8.26-3-6.56,4.64-11.09-.41a4.91,4.91,0,0,0-5.68-2.58,21.41,21.41,0,0,0,40.16-.06C124.18,190.55,114.91,200.68,106.65,197.68Z" style="fill:#7bcddb;opacity:0.7000000000000001"/><path d="M193.56,195.27c-6.9-6.11-10,1.81-15.07,1.31-2-.2-2.8-5.88-5.93-3.31-4.63,3.81-5.68,3.28-9.36,2.29a21.43,21.43,0,0,0,39.69-2.86c-1.49-.63-3.15-1.82-4.34-1.43C196.44,192,196.26,197.66,193.56,195.27Z" style="fill:#7bcddb;opacity:0.7000000000000001"/><g style="opacity:0.600000023841858"><path d="M154.31,117c-8.33-1.45-16.16-9.16-22.06-15.71l.74-.67c5.79,6.43,13.46,14,21.48,15.39Z" style="fill:#f7cfa2"/></g><path d="M142.73,134.7c-1.71-5.26-7.12-12.1-11.59-14.65l.49-.87c4.73,2.69,10.25,9.66,12,15.21Z" style="fill:#f7cfa2"/></svg>