<?xml version="1.0" encoding="utf-8"?>
<!-- Generator: Adobe Illustrator 21.1.0, SVG Export Plug-In . SVG Version: 6.00 Build 0)  -->
<svg version="1.1" xmlns="http://www.w3.org/2000/svg" xmlns:xlink="http://www.w3.org/1999/xlink" x="0px" y="0px"
	 viewBox="0 0 300 450" style="enable-background:new 0 0 300 450;" xml:space="preserve">
<style type="text/css">
	.st0{fill:#B27E49;}
	.st1{fill:#ECB8FF;}
	.st2{display:none;opacity:0.3;}
	.st3{fill:#F4E44A;}
	.st4{clip-path:url(#SVGID_2_);fill:#F1F3F7;}
	.st5{opacity:0.4;clip-path:url(#SVGID_2_);fill:#DCDDE0;}
	.st6{clip-path:url(#SVGID_2_);fill:#0076B7;}
	.st7{clip-path:url(#SVGID_2_);fill:#FFFFFF;}
	.st8{clip-path:url(#SVGID_2_);}
	.st9{fill:#FFFFFF;}
	.st10{clip-path:url(#SVGID_2_);fill:#F7CFA2;}
	.st11{fill:#F7CFA2;}
	.st12{fill:#F0BA7A;}
	.st13{fill:#601515;}
	.st14{fill:url(#SVGID_3_);}
	.st15{opacity:0.1;fill:#601515;}
	.st16{fill:#F9F9F9;}
	.st17{fill:url(#SVGID_4_);}
	.st18{fill:url(#SVGID_5_);}
	.st19{fill:url(#SVGID_6_);}
	.st20{fill:#EA6D50;}
	.st21{opacity:0.3;fill:#601515;}
	.st22{fill:#5B1010;}
	.st23{opacity:0.6;}
	.st24{fill:#A52323;}
	.st25{opacity:0.2;}
	.st26{fill:url(#SVGID_7_);}
	.st27{fill:#CE6117;}
	.st28{fill:url(#SVGID_8_);}
	.st29{fill:#8454D1;}
	.st30{clip-path:url(#SVGID_10_);fill:#393D47;}
	.st31{clip-path:url(#SVGID_10_);fill:#F0BA7A;}
	.st32{clip-path:url(#SVGID_10_);fill:#F1F3F7;}
	.st33{clip-path:url(#SVGID_10_);fill:#0076B7;}
	.st34{clip-path:url(#SVGID_10_);fill:#004868;}
	.st35{opacity:0.4;clip-path:url(#SVGID_10_);fill:#DCDDE0;}
	.st36{clip-path:url(#SVGID_10_);fill:#FFFFFF;}
	.st37{clip-path:url(#SVGID_10_);}
	.st38{fill:#393D47;}
	.st39{fill:url(#SVGID_11_);}
	.st40{fill:#EAA56C;}
	.st41{clip-path:url(#SVGID_13_);fill:#F1F3F7;}
	.st42{clip-path:url(#SVGID_13_);fill:#F0BA7A;}
	.st43{opacity:0.4;clip-path:url(#SVGID_13_);fill:#DCDDE0;}
	.st44{clip-path:url(#SVGID_13_);fill:#0076B7;}
	.st45{clip-path:url(#SVGID_13_);fill:#FFFFFF;}
	.st46{clip-path:url(#SVGID_13_);}
	.st47{clip-path:url(#SVGID_13_);fill:#F7CFA2;}
	.st48{fill:#F1F3F7;}
	.st49{fill:none;}
	.st50{fill:#A85848;}
	.st51{fill:#E85646;}
	.st52{fill:#EA4E39;}
	.st53{fill:#DCFFC5;}
	.st54{fill:#8BAA77;}
	.st55{clip-path:url(#SVGID_15_);fill:#F1F3F7;}
	.st56{opacity:0.4;clip-path:url(#SVGID_15_);fill:#DCDDE0;}
	.st57{clip-path:url(#SVGID_15_);fill:#0076B7;}
	.st58{clip-path:url(#SVGID_15_);fill:#FFFFFF;}
	.st59{clip-path:url(#SVGID_15_);}
	.st60{fill:#595959;}
	.st61{opacity:0.3;fill:#595959;}
	.st62{clip-path:url(#SVGID_27_);fill:#F1F3F7;}
	.st63{opacity:0.4;clip-path:url(#SVGID_27_);fill:#DCDDE0;}
	.st64{clip-path:url(#SVGID_27_);fill:#0076B7;}
	.st65{clip-path:url(#SVGID_27_);fill:#FFFFFF;}
	.st66{clip-path:url(#SVGID_27_);}
	.st67{clip-path:url(#SVGID_27_);fill:#F7CFA2;}
	.st68{opacity:0.7;fill:#7BCDDB;}
	.st69{fill:none;stroke:#F0BA7A;stroke-width:3;stroke-miterlimit:10;}
	.st70{clip-path:url(#SVGID_41_);fill:#F1F3F7;}
	.st71{opacity:0.4;clip-path:url(#SVGID_41_);fill:#DCDDE0;}
	.st72{clip-path:url(#SVGID_41_);fill:#0076B7;}
	.st73{clip-path:url(#SVGID_41_);fill:#FFFFFF;}
	.st74{clip-path:url(#SVGID_41_);}
	.st75{clip-path:url(#SVGID_41_);fill:#F7CFA2;}
	.st76{fill:#9E9E9E;}
	.st77{fill:#878787;}
	.st78{fill:#DDBD00;}
	.st79{clip-path:url(#SVGID_43_);fill:#F1F3F7;}
	.st80{opacity:0.4;clip-path:url(#SVGID_43_);fill:#DCDDE0;}
	.st81{clip-path:url(#SVGID_43_);fill:#0076B7;}
	.st82{clip-path:url(#SVGID_43_);fill:#FFFFFF;}
	.st83{clip-path:url(#SVGID_43_);}
	.st84{clip-path:url(#SVGID_43_);fill:#F7CFA2;}
	.st85{clip-path:url(#SVGID_45_);}
	.st86{opacity:0.4;fill:#DCDDE0;}
	.st87{fill:#0076B7;}
	.st88{opacity:0.3;}
	.st89{fill:#DCDDE0;}
	.st90{fill:#004868;}
	.st91{fill:#E02B41;}
	.st92{fill:#C69018;}
	.st93{fill:#EFE91B;}
	.st94{fill:#656D60;}
	.st95{clip-path:url(#SVGID_47_);fill:#F0BA7A;}
	.st96{clip-path:url(#SVGID_47_);fill:#F1F3F7;}
	.st97{opacity:0.4;clip-path:url(#SVGID_47_);fill:#DCDDE0;}
	.st98{clip-path:url(#SVGID_47_);fill:#0076B7;}
	.st99{clip-path:url(#SVGID_47_);fill:#FFFFFF;}
	.st100{clip-path:url(#SVGID_47_);}
	.st101{clip-path:url(#SVGID_47_);fill:#F7CFA2;}
	.st102{clip-path:url(#SVGID_49_);fill:#F1F3F7;}
	.st103{clip-path:url(#SVGID_49_);}
	.st104{fill:#B23C18;}
	.st105{fill:#6B2A05;}
	.st106{fill:#B23C18;stroke:#6B2A05;stroke-miterlimit:10;}
	.st107{fill:#DDAA78;}
	.st108{fill:#211205;}
	.st109{fill:none;stroke:#6B2A05;stroke-width:0.729;stroke-miterlimit:10;}
	.st110{fill:#B23C18;stroke:#6B2A05;stroke-width:0.729;stroke-miterlimit:10;}
	.st111{fill:#B72C34;}
	.st112{clip-path:url(#SVGID_51_);fill:#F1F3F7;}
	.st113{clip-path:url(#SVGID_51_);}
	.st114{clip-path:url(#SVGID_51_);fill:#F7CFA2;}
	.st115{fill:#F2C85F;}
	.st116{clip-path:url(#SVGID_53_);fill:#F0BA7A;}
	.st117{clip-path:url(#SVGID_53_);fill:#F1F3F7;}
	.st118{opacity:0.4;clip-path:url(#SVGID_53_);fill:#DCDDE0;}
	.st119{clip-path:url(#SVGID_53_);fill:#0076B7;}
	.st120{clip-path:url(#SVGID_53_);fill:#FFFFFF;}
	.st121{clip-path:url(#SVGID_53_);}
	.st122{clip-path:url(#SVGID_53_);fill:#F7CFA2;}
	.st123{clip-path:url(#SVGID_55_);}
	.st124{fill:#F4F0A6;}
	.st125{fill:#9E921E;}
	.st126{clip-path:url(#SVGID_57_);fill:#F0BA7A;}
	.st127{clip-path:url(#SVGID_57_);fill:#F1F3F7;}
	.st128{clip-path:url(#SVGID_57_);}
	.st129{clip-path:url(#SVGID_57_);fill:#393D47;}
	.st130{clip-path:url(#SVGID_57_);fill:#FFFFFF;}
	.st131{opacity:0.4;clip-path:url(#SVGID_57_);fill:#DCDDE0;}
	.st132{clip-path:url(#SVGID_57_);fill:#0076B7;}
	.st133{fill:#1F74C9;}
	.st134{clip-path:url(#SVGID_59_);}
	.st135{fill:#023142;}
	.st136{clip-path:url(#SVGID_61_);fill:#F7CFA2;}
	.st137{clip-path:url(#SVGID_61_);}
	.st138{opacity:0.3;fill:#E57257;}
	.st139{fill:#777777;}
	.st140{clip-path:url(#SVGID_63_);fill:#F1F3F7;}
	.st141{opacity:0.4;clip-path:url(#SVGID_63_);fill:#DCDDE0;}
	.st142{clip-path:url(#SVGID_63_);fill:#0076B7;}
	.st143{clip-path:url(#SVGID_63_);fill:#FFFFFF;}
	.st144{clip-path:url(#SVGID_63_);}
	.st145{clip-path:url(#SVGID_63_);fill:#F7CFA2;}
	.st146{clip-path:url(#SVGID_65_);fill:#F0BA7A;}
	.st147{clip-path:url(#SVGID_65_);fill:#F1F3F7;}
	.st148{opacity:0.4;clip-path:url(#SVGID_65_);fill:#DCDDE0;}
	.st149{clip-path:url(#SVGID_65_);fill:#0076B7;}
	.st150{clip-path:url(#SVGID_65_);fill:#FFFFFF;}
	.st151{clip-path:url(#SVGID_65_);}
	.st152{clip-path:url(#SVGID_65_);fill:#F7CFA2;}
</style>
<g id="Layer_1">
	<g>
		<defs>
			<path id="SVGID_30_" d="M248,218.6c0,55.1-44.7,99.7-99.7,99.7s-99.7-44.7-99.7-99.7S93.2,52.8,148.3,52.8
				C203.3,52.8,248,163.5,248,218.6z"/>
		</defs>
		<clipPath id="SVGID_2_">
			<use xlink:href="#SVGID_30_"  style="overflow:visible;"/>
		</clipPath>
	</g>
	<path class="st9" d="M261,121.1c-7,6-12,16-21,22v-1c-2,5-8,5-11,8c-2,3,7,3,3,7c18.8-6.7,32.2-21.6,40.5-39.1
		c-0.8-2.1-2-4-3.8-5.9c-1.9-2-4-5.1-6.1-7C263.7,111.4,264.1,117.4,261,121.1z"/>
	<circle class="st111" cx="150.9" cy="216.8" r="99.7"/>
	<g>
		<defs>
			<path id="SVGID_50_" d="M250.6,217.8c0,55.1-44.7,99.7-99.7,99.7s-99.7-44.7-99.7-99.7S32.9,46.7,163.3,55.2
				C218.3,58.8,250.6,162.7,250.6,217.8z"/>
		</defs>
		<clipPath id="SVGID_3_">
			<use xlink:href="#SVGID_50_"  style="overflow:visible;"/>
		</clipPath>
		<path style="clip-path:url(#SVGID_3_);fill:#F1F3F7;" d="M248.5,230.6c-2.2-9.3-3.9-15.7-12.1-17.2c-4.9-0.9-15.4-0.1-21.1,1.5
			l-22.6,6.3c-6.9,1.9-17.6,6.6-21.7,11c-5,5.4-2.8,11.1-0.9,19.3l14.9,64.3c0.9,4,2.7,7.6,5.2,10.6c24.2-5,48.3-12,72.4-18
			c1.4-4.6,1.7-9.6,0.6-14.5L248.5,230.6z"/>
		<path style="clip-path:url(#SVGID_3_);fill:#F1F3F7;" d="M138.5,260.6c-2.2-9.3-3.9-15.7-12.1-17.2c-4.9-0.9-15.4-0.1-21.1,1.5
			l-22.6,6.3c-6.9,1.9-17.6,6.6-21.7,11c-5,5.4-2.8,11.1-0.9,19.3L75,345.8c0.9,4,2.7,7.6,5.2,10.6c24.2-5,48.3-12,72.4-18
			c1.4-4.6,1.7-9.6,0.6-14.5L138.5,260.6z"/>
		<path style="clip-path:url(#SVGID_3_);fill:#F1F3F7;" d="M232,214.2l-2.5,1.6c-4.2,2.3-1.9,12.1,5.3,21.8l12.9,19.8l14,23.4
			c3.9,5.3,6.6,9.8,10,11.3c2.8,1.3,6.6,0.6,8.5-0.4l6.3-3.4c1.6-0.9,3.9-3,4.1-5.1c0.4-3.4-2.6-7.6-7.1-13.7
			c0,0-21.5-31.1-16.3-23.2c5.1,7.9-8.6-12.8-16.7-23C242.3,213.1,236.2,212,232,214.2z"/>
		<g style="clip-path:url(#SVGID_3_);">
			<polygon class="st9" points="224.4,258.8 234.4,261.3 242.6,254.6 239.4,241.1 221.2,245.3 			"/>
			
				<rect x="220.2" y="237.4" transform="matrix(0.9744 -0.225 0.225 0.9744 -48.0071 57.7769)" class="st9" width="18.7" height="4.3"/>
		</g>
		<path style="clip-path:url(#SVGID_3_);fill:#F7CFA2;" d="M57.9,206.7c0,0.3,0,0.5,0,0.8C57.9,207.3,57.9,207,57.9,206.7z"/>
	</g>
	<g>
		<path class="st48" d="M198.7,225.4l0.6-5.2c0.9-6.1-7.1-12.4-17.9-14l-21-4.9l-24.1-7c-5.9-0.9-10.5-2.2-13.6-0.3
			c-2.5,1.6-4.3,5.8-4.7,8.6l-1.4,9c-0.3,2.3-0.2,6.4,1.1,8.4c2.1,3.3,6.7,4.1,13.5,5.1c0,0,33.7,6.5,25.3,4.5
			c-8.4-2,13.7,2.9,25.4,4.1C193.6,234.9,197.7,231.5,198.7,225.4z"/>
		<path class="st48" d="M191.5,210.1c13.1,4.6,11.1,21.6,1.1,28.6c-4,2-8,5-13,5.4c-1.6,0.3-3.3,0.6-4.9,0.8c-7,0.5-13.6-0.5-20-2.5
			c-2.1-0.7-4.2-1.4-6.4-2.3c-17.7-6.4-47.7-17.4-39.7-39.4c2-7,13-4,21.1-3.6c2.5,0.4,5.1,0.9,7.8,1.4c11.7,2.4,24.6,6.3,36,8.8
			c2.3,0.5,4.5,0.9,6.7,1.3c2.2,0.4,4.2,0.7,6.1,0.9C188.2,209.9,189.9,210.1,191.5,210.1z"/>
		<g>
			<g>
				<path class="st12" d="M103.3,130.6c-1.6,9.5-7.5,23.5,6,22.7c-1.1-0.3,10,1.9,14.4,0.9c4.4-1,3.3-0.9,8.2-14.5
					c0.6-1.8-2.7-7.7-2.1-9.4c0.4-1.1,4.5-6.8,3.3-6.2c-1.7,0.9-1.3-3.7-0.8-5.7c1.9-8.3-9.4-12.1-19.8-9.9c-9.2,2.2-5,9.6-9.1,16.2
					C103.3,125,104.1,126,103.3,130.6z"/>
			</g>
			<g>
				<path class="st12" d="M120.1,146.7L120.1,146.7c-2.3-2-2.6-5.6-0.6-7.9l11.6-13.4l7.2-4.5c2.7-1.6,7.1-2.4,10-0.5
					c2.9,1.9,1.7,5.5-0.3,7.9l-9.1,5.2l-12,9.9C124.9,145.9,122.4,148.7,120.1,146.7z"/>
				<path class="st11" d="M98.6,126.8c-1.6,7.1-3.5,19.4,4.9,23.3c2.9,1.8,6.4,2.7,9.4,1.2c6.1-2.2,11.7-6.8,14-13.2
					c0.7-1.2,1.4-2.4,2.1-3.7c1-2.7,1.1-6.1,1.3-8.6c-0.3-0.6,0-3.5-0.1-3.6c-4.4-1.5-11.5-1.6-20.2,0.2c-9.2,2.2-6.8-2.1-10.9,4.5
					C99.1,127.2,98.5,126.5,98.6,126.8z"/>
				<g>
					<path class="st11" d="M121.9,117.6L121.9,117.6c-1.3-1.7,0.5-5.9,2-7.1l8.4-5.8c1.5-1.2,4.3-1.7,5.7,0.1l0.4,0.5
						c1.3,1.7,0.3,4.6-1.2,5.8l-7.3,8.5C128.4,120.7,123.2,119.4,121.9,117.6z"/>
					<path class="st11" d="M132.3,106.9L132.3,106.9c0.6-2.3,2.5-3.7,4.1-3.3l11.1,2.9c1.7,0.4,3.6,2.3,3,4.6l-0.1,0.7
						c-0.6,2.3-3.3,3.4-5,3l-11.1-2.9C132.6,111.4,131.7,109.2,132.3,106.9z"/>
					<path class="st11" d="M146,108l-0.4-2.1c2.4,0.1,4.7,1.6,5.1,2.7l2.7,7.4c0.4,1.1,1.3,2.7-0.9,3.5l-0.7,0.3
						c-2.2,0.8-5.4-2.4-5.8-3.6l-3.2-4.8C142.3,110.4,143.8,108.8,146,108z"/>
					<path class="st11" d="M121.3,136L121.3,136c-3-0.8-5-3-4.5-5l3.3-12.8c0.5-2,4.5-7.7,7.5-7l-0.7,3.8c3,0.8,4,2.6,3.5,4.6
						l-0.2,6.3C129.6,127.9,124.3,136.8,121.3,136z"/>
				</g>
				<g>
					<path class="st11" d="M115.9,115.7L115.9,115.7c-2.1-0.8-1.5-4.3-0.9-6.3l2.2-11.7c0.6-2,2.6-4.1,4.7-3.3l0.6,0.2
						c2.1,0.8,2.9,4,2.3,6l0.9,11.6C125.1,114.3,118,116.5,115.9,115.7z"/>
					<path class="st11" d="M118.3,99.8L118.3,99.8c-0.8-2.4-0.1-4.9,1.5-5.5l10.8-3.9c1.6-0.6,4.3,0,5.1,2.4l0.3,0.7
						c0.8,2.4-0.8,5-2.4,5.6l-10.8,3.9C121.2,103.7,119.2,102.2,118.3,99.8z"/>
					<path class="st11" d="M130.3,92.8l-1.5-1.7c2-1.4,4.8-1.3,5.8-0.5l6.5,5.3c1,0.8,2.6,1.7,1.2,3.8l-0.4,0.6
						c-1.4,2-5.9,0.9-6.8,0.1l-5.4-2.5C128.6,97.1,128.9,94.8,130.3,92.8z"/>
					<path class="st11" d="M126,133L126,133c-2.9,1-5.9,0.2-6.6-1.9l-4.6-13.7c-0.7-2.1-0.8-9.7,2.2-10.8l1.7,3.9
						c2.9-1,4.8,0.1,5.5,2.2l3.5,6C128.2,120.7,128.9,131.9,126,133z"/>
				</g>
				<g>
					<path class="st11" d="M105,104.1L105,104.1c-2.1-0.8-1.5-4.3-0.9-6.3l2.2-11.7c0.6-2,2.6-4.1,4.7-3.3l0.6,0.2
						c2.1,0.8,2.9,4,2.3,6l1.9,15.7C115.1,106.7,107.1,104.9,105,104.1z"/>
					<path class="st11" d="M107.4,88.2L107.4,88.2c-0.8-2.4-0.1-4.9,1.5-5.5l10.8-3.9c1.6-0.6,4.3,0,5.1,2.4l0.3,0.7
						c0.8,2.4-0.8,5-2.4,5.6l-10.8,3.9C110.2,92.1,108.2,90.6,107.4,88.2z"/>
					<path class="st11" d="M119.3,81.2l-1.5-1.7c2-1.4,4.8-1.3,5.8-0.5l6.5,5.3c1,0.8,2.6,1.7,1.2,3.8l-0.4,0.6
						c-1.4,2-5.9,0.9-6.8,0.1l-5.4-2.5C117.7,85.5,118,83.2,119.3,81.2z"/>
					<path class="st11" d="M120.8,130.5l-4.5,0.4c-2.9,1-17.7,1.4-18.4-0.7l6.1-28.4c-0.7-2.1,1.5-7.5,4.4-8.6l-0.7,5.4
						c2.9-1,4.8,0.1,5.5,2.2l3.5,6C124,129.1,124.7,130.7,120.8,130.5z"/>
				</g>
			</g>
			<path class="st48" d="M133.1,162.3c15.2,41.4,2.2,46.4-5,61.4c-2.9,7.2-16.8,0.4-20.9-7.2c-5.5-12.9-11.8-30.5-14.4-44.6
				c-0.2-2.5,1-5.5,1.8-7.6c4.7-8.8,27-14.3,35.1-6.8C131.7,159.4,132.1,159.7,133.1,162.3z"/>
			<path class="st9" d="M134.7,167c1,2,3.4,8.6,4,10.6c2.3,8.1,0.8,7.5,1.7,13.5c0.1,0.6,26.7,12.8,26.7,12.8s-28.7-7.6-31.9-5
				C138.2,184.8,134.4,168.2,134.7,167z"/>
			<path class="st9" d="M97.4,161.7c-0.8-3.4,0-17,0.5-18.2c6.8,3.1,22.3,6.5,31.6,2.9c-0.3,4.2-1.3,14.6-2,16.1
				C117.7,165,106.9,164.1,97.4,161.7z"/>
		</g>
	</g>
	<path class="st11" d="M222.9,211.9c-4.4-6.7-9.6-13.1-15.2-19.1l-8.6,6.1c-4.6,3.3-5.7,9.8-2.4,14.4l2.2,3.1
		c3.3,4.6,9.7,5.7,14.3,2.4L222.9,211.9z"/>
	<path class="st11" d="M58,205c0,0.2,0,0.5,0,0.7C57.9,205.5,57.9,205.2,58,205z"/>
	<polygon class="st86" points="197.8,245.4 200,220.1 210.4,226.1 	"/>
	<polygon class="st86" points="197.8,245.4 200,220.1 188.6,224.2 	"/>
	<polygon class="st87" points="210.3,223.4 201.3,219 194.1,224.4 198.7,231.7 204.8,231.8 	"/>
	<polygon class="st87" points="212.6,293.4 202.5,304.5 190.9,294.5 198.7,231.7 204.8,231.8 	"/>
	<polygon class="st9" points="201.5,218.9 201.5,219.4 213,229.4 218.1,219.1 215.8,214.6 	"/>
	<polygon class="st9" points="201.5,218.9 201.5,219.4 189.9,229.3 185,218.9 187.3,214.4 	"/>
	<path class="st48" d="M215.1,196.2c-0.5,0.6-2.2,2.6-3.9,4.7c-4.3,3.7-5.9,15.6,0.4,17.4c9.6,1.7,19.9-2.4,29.2,1
		c3.7,1.5,7.5-0.2,11.1-2.2c1.5-0.7,2.9-1.6,4.1-3c1.4-1,2.8-2.1,4.2-3.3c9.4-8.2,16.4-19.3,23.3-30.5c3.1-6.2,8-31.1,3-32.2
		C268.2,144.1,236.7,185.5,215.1,196.2z"/>
	<g>
		<path class="st11" d="M228.3,159.9c0.2,0,0.4-0.1,0.6-0.1C228.8,159.8,228.6,159.8,228.3,159.9z"/>
		<path class="st11" d="M227.8,160c0.2,0,0.4-0.1,0.5-0.1C228.1,159.9,228,159.9,227.8,160z"/>
		<path class="st11" d="M226,161.2c-0.3,0.6-0.8,2-0.5,2.7l3.5-4.1c-0.2,0.1-0.4,0.1-0.6,0.1c-0.2,0-0.4,0.1-0.5,0.1
			C227,160.1,226.4,160.3,226,161.2z"/>
		
			<ellipse transform="matrix(0.9997 -2.496577e-02 2.496577e-02 0.9997 -3.9193 3.3531)" class="st11" cx="132.3" cy="158.6" rx="13.6" ry="13.6"/>
		
			<ellipse transform="matrix(0.9997 -2.496577e-02 2.496577e-02 0.9997 -3.9193 3.3531)" class="st12" cx="132.3" cy="158.6" rx="9" ry="9"/>
		
			<ellipse transform="matrix(0.9997 -2.496577e-02 2.496577e-02 0.9997 -3.816 6.1099)" class="st11" cx="242.8" cy="155.9" rx="13.6" ry="13.6"/>
		
			<ellipse transform="matrix(0.9997 -2.496577e-02 2.496577e-02 0.9997 -3.816 6.1099)" class="st12" cx="242.8" cy="155.9" rx="9" ry="9"/>
		<path class="st11" d="M243.3,143.9c6.3-62.2-26.3-45.3-57.2-44.5s-55.6,22-54.9,47.3c0.1,5.7,0.7,26.5,0.8,32.2
			c0.6,25.4,38.1,45,57.2,44.5c16.9-0.4,55.6-22,54.9-47.3C244,170.4,242.7,149.5,243.3,143.9z"/>
		<path class="st13" d="M223.2,130.8c-1.4-1.3,1.2-4.1,1.2-4.1c8-1.5,9.7,11.9,17.7,7.6c2.7-1.4,1.2-6.7,1.1-10.8
			c3.4,8.5,5.6,1.7,10.4-0.9c0.3-4.5,0.7-8.2,0.6-10.4c-0.8-30.3-27.4-48.4-57.7-47.6c-29.5,0.7-45.5,19.5-46,48.8
			c22.9-8.4,38.6,2.7,54.1,16.1C210.9,129.3,216.6,131,223.2,130.8z"/>
		<path class="st13" d="M183.1,91.1c0.5-0.7,0.3-1.6-0.4-2.1c0,0,0,0,0,0c-17.5-11.4-41-6.4-52.4,11.1c-7.9,12.1-7.9,27-1.5,38.9
			c0.4,0.8,1.4,1,2.1,0.5C150.3,125.6,169,110.1,183.1,91.1z"/>
		<path class="st20" d="M160.9,202.6c0,0,12.1-7.6,26.5-12.9c15.7-5.8,34.3-15.7,31.1,16.5c0,0-13,6.7-28.2,8.5
			C175.1,216.5,160.9,202.6,160.9,202.6z"/>
		<path class="st9" d="M177.7,203.8c0.7,2.1,1.5,4.2,2.4,6.2c0.1,0.2,0.3,0.4,0.5,0.4c2.6,0.7,5.3,1.1,8.2,0.9
			c0.4,0,0.7-0.5,0.6-0.9c-0.9-2.4-2-4.7-3.1-7.1C183.4,203.7,180.5,203.9,177.7,203.8z"/>
		<path class="st9" d="M186.9,203.3c1.1,2.3,2.1,4.7,3.2,7c0.2,0.5,0.8,0.9,1.4,0.8c1.8-0.3,3.6-0.6,5.3-0.9
			c0.5-0.1,0.8-0.6,0.6-1.1c-0.8-2.4-1.7-4.8-2.7-7.2C192.1,202.4,189.5,202.9,186.9,203.3z"/>
		<path class="st9" d="M214.3,198.3c-3.5,0.2-7,0.8-10.6,1.5c1,2.2,1.8,4.6,2.4,7c0.1,0.4,0.5,0.6,0.9,0.5c3.2-1.1,5.5-2.1,6.5-2.5
			c0.3-0.1,0.5-0.4,0.5-0.7C214.2,201.9,214.3,200,214.3,198.3z"/>
		<path class="st9" d="M195.4,201.7c1,2.4,2,4.8,2.9,7.3c0.2,0.4,0.6,0.7,1.1,0.6c1.9-0.5,3.7-1,5.3-1.5c0.4-0.1,0.7-0.6,0.6-1
			c-0.5-2.4-1.2-4.8-2.1-7.1C200.5,200.5,198,201.1,195.4,201.7z"/>
		<path class="st9" d="M166.7,203.3c1.9,1.5,6,4.3,11.1,6.2c0.4,0.2,0.9-0.3,0.7-0.7c-0.7-1.7-1.3-3.4-1.8-5.1
			C173.1,203.5,169.9,203.7,166.7,203.3z"/>
		<path class="st9" d="M175.6,198.1c0.6,1.5,1.1,3,1.7,4.6c2.8,0,5.5-0.2,8.3-0.5c-1.1-2.3-2.3-4.6-3.5-6.9c-0.2-0.4-0.6-0.5-1-0.4
			c-1.8,0.7-3.5,1.5-5.1,2.2C175.6,197.3,175.4,197.7,175.6,198.1z"/>
		<path class="st9" d="M187.9,192.3c-1.4,0.5-2.8,1-4.2,1.5c-0.7,0.3-1,1.1-0.6,1.8c1.2,2.1,2.2,4.3,3.3,6.4
			c2.6-0.4,5.3-0.8,7.9-1.4c-1.1-2.6-2.2-5.3-3.2-7.9c-0.3-0.7-1.1-1.1-1.8-0.9C188.8,192,188.3,192.2,187.9,192.3z"/>
		<path class="st9" d="M191.7,192.8c1,2.6,2.1,5.2,3.2,7.7c2.6-0.5,5.2-1.1,7.8-1.7c-1.3-3.2-2.9-6.2-4.7-8.9
			c-0.4-0.5-1-0.8-1.6-0.6c-1.2,0.4-2.4,0.8-3.6,1.2C191.8,190.9,191.3,191.9,191.7,192.8z"/>
		<path class="st9" d="M198.6,190.3c1.7,2.4,3.3,5.7,4.6,8.5c3.7-0.8,7.3-1.6,11-2.1c-0.9-9.9-7.3-10.2-14.9-8.1
			C198.4,188.7,198.1,189.5,198.6,190.3z"/>
		<path class="st9" d="M166.2,202c3.3,0.5,6.7,0.7,9.9,0.7c0.1,0,0.1,0,0.2,0c-0.4-1.4-0.8-2.8-1.1-4.1c-0.1-0.5-0.6-0.8-1.1-0.5
			C170.3,199.8,167.4,201.3,166.2,202z"/>
		<path class="st12" d="M188.8,175.2l-2.4,0.1c-3.8,0.1-7-3-7.1-6.8l-0.5-19.4c-0.1-3.8,3-7,6.8-7.1l2.4-0.1c3.8-0.1,7,3,7.1,6.8
			l0.5,19.4C195.7,171.9,192.6,175.1,188.8,175.2z"/>
		<path class="st11" d="M187.1,171.7l-2.4,0.1c-3.8,0.1-7-3-7.1-6.8l-0.5-19.4c-0.1-3.8,3-7,6.8-7.1l2.4-0.1c3.8-0.1,7,3,7.1,6.8
			l0.5,19.4C194,168.4,190.9,171.7,187.1,171.7z"/>
		<path class="st13" d="M147.7,112.8c0,0,14.7,6.1,21.8,10.5c9.8,6.1,30.2,6.4,30.2,6.4s-15.2-19.5-25.2-22.1
			S147.7,112.8,147.7,112.8z"/>
		<path class="st13" d="M141.1,85.6c0,0,5.8-0.4,8.8-0.1c4.2,0.4,10.9-2.8,10.9-2.8s-8.2-3.9-11.8-3.2
			C145.3,80.3,141.1,85.6,141.1,85.6z"/>
		<path class="st13" d="M166.3,66.9c0,0-1.5,5.6-1.8,8.7c-0.4,4.2-4.9,10.2-4.9,10.2s-2.3-8.8-0.8-12.2S166.3,66.9,166.3,66.9z"/>
		<path class="st21" d="M130.9,125.2l1.9,47l4.4-4.2l2.8-28.5c0,0,6.6-18.6,15.7-22.4c9.1-3.9,27.1-5.3,27.1-5.3l-15.3-7.2
			L130.9,125.2z"/>
		<path class="st21" d="M244.4,120.1l-1.5,43.3l-3.7,2.1l-4.2-28.3c0,0-7.5-18.2-16.8-21.6c-9.3-3.4-27.4-4-27.4-4l14.9-7.9
			L244.4,120.1z"/>
		<g class="st23">
			<path class="st11" d="M188,74.4c4.2,1.1,8.4,0,12.7,0.4c4,0.3,7.6,2.1,11.6,2.3c0.6,0,0.8-1,0.1-1.1c-8-1.9-16.1-4.5-24.4-2
				C187.8,74,187.8,74.3,188,74.4L188,74.4z"/>
		</g>
		<g>
			
				<ellipse transform="matrix(0.9997 -2.496577e-02 2.496577e-02 0.9997 -4.4156 3.7365)" class="st12" cx="147.4" cy="178.7" rx="2" ry="1"/>
			
				<ellipse transform="matrix(0.9997 -2.496577e-02 2.496577e-02 0.9997 -4.408 3.9376)" class="st12" cx="155.5" cy="178.5" rx="2" ry="1"/>
			
				<ellipse transform="matrix(0.9997 -2.496577e-02 2.496577e-02 0.9997 -4.5124 3.8408)" class="st12" cx="151.6" cy="182.6" rx="2" ry="1"/>
			<g>
				<path class="st12" d="M174.9,165.4c-2.7,7.4-5.9,16.3-13.4,20.7c-1.1,0.9-2.3,1.9-3.5,2.8c-1.2,0.9-2.4,1.7-3.6,2.5
					c1.2-1.6,2.2-3.2,3-5c0.8-1.7,1.4-3.5,1.8-5.5c-2,0.8-3.9,1.6-5.7,2.3c-1.8,0.7-3.6,1.3-5.5,1.8c-2.7,1.2-4.8,2.2-4.8,2.2
					s1.2-0.8,3.1-2c1.4-0.6,2.8-1.3,4.2-1.9c1.4-0.6,2.8-1.3,4.2-2c6.8-5.3,16.5-6.1,19.3-15.6"/>
				<g>
					<path class="st15" d="M141.1,158.2c0.3,11.3,5.5,20.3,16.8,20s18.1-9.6,17.8-20.9c-0.3-11.3-7.6-20.2-18.9-20
						C145.6,137.7,140.8,146.9,141.1,158.2z"/>
					
						<ellipse transform="matrix(0.9997 -2.496499e-02 2.496499e-02 0.9997 -3.9131 4.0023)" class="st9" cx="158.3" cy="158.7" rx="17.7" ry="17.7"/>
					<g>
						
							<ellipse transform="matrix(0.9997 -2.496577e-02 2.496577e-02 0.9997 -3.9866 3.9764)" class="st13" cx="157.3" cy="161.6" rx="5.4" ry="5.4"/>
						
							<ellipse transform="matrix(0.9997 -2.496577e-02 2.496577e-02 0.9997 -3.9866 3.9764)" cx="157.3" cy="161.6" rx="2.1" ry="2.1"/>
						
							<ellipse transform="matrix(0.9997 -2.496577e-02 2.496577e-02 0.9997 -3.9262 3.94)" class="st16" cx="155.8" cy="159.2" rx="1.5" ry="1.5"/>
					</g>
					<path class="st11" d="M157.9,141c-6.2,0.2-11.5,3.4-14.6,8.3c10.7,2.5,21.8,3.8,32.6,7C174.7,147.5,167,140.8,157.9,141z"/>
				</g>
				<path class="st22" d="M151.3,140.9l21.8,10c3.1,1.4,6.7,0.1,8.1-3l0,0c1.4-3.1,0.1-6.7-3-8.1l-21.8-10c-3.1-1.4-6.7-0.1-8.1,3
					l0,0C146.9,135.8,148.2,139.5,151.3,140.9z"/>
			</g>
			<g>
				<path class="st20" d="M159.5,170c0.2,1.2-1.8,1.1-2.2,2c-0.2,0.4-0.1,0.3-0.1,0.6c0,0,0,0,0,0c0.4,0.3,0.4,0.7,0.1,1.2
					c-0.1,0.2-0.4,0.4-0.6,0.6c-0.5,0.7,0,1.4-0.4,2.1c-0.1,0.1,0.1,0.2,0.2,0.1c0.4-0.7,0,0,0.2-0.7c-0.1-0.6,0-1.1,0.4-1.6
					c0.1-0.1,0.2-0.2,0.3-0.3c0.3-0.5,0.2-0.5,0.3-1.1c0.1-1.4-0.1-1.1,0.8-1.6c0.3-0.1,0.7-0.3,0.9-0.5
					C159.7,170.5,159.7,170.4,159.5,170C159.6,170,159.5,170,159.5,170L159.5,170z"/>
			</g>
			<g>
				<path class="st20" d="M156.9,169.8c-0.4,0.2-0.4,0.6-0.4,1c0.1,0.6,0.4,1.2,0.6,1.8c0.1,0.2,0.3,0,0.3-0.1
					c-0.3-0.7-1.2-1.8-0.4-2.5C157,169.8,156.9,169.7,156.9,169.8L156.9,169.8z"/>
			</g>
			<g>
				<path class="st20" d="M148.2,160.3c-0.3,0.7-0.7,1.3-1.1,1.9c-0.2,0.3-0.3,0.9-0.4,1.1c-0.8,1.1-1.9,0.2-2.8,0.8
					c-0.5,0.3-0.7,1.3-0.8,1.8c0,0.4,0.2,0.5-0.2,0.9c-0.2,0.2-0.5,0.1-0.7,0.4c-0.1,0.1,0.1,0.3,0.2,0.2c0.4-0.4,0.9-0.3,1.2-0.7
					c0.2-0.3-0.1-1,0-1.3c0.2-1.1,1.1-1.1,2-1.1c0.6,0,0.9-0.1,1.2-0.5c0.3-0.5,0.4-1.3,0.7-1.8C147.7,161.4,148,160.9,148.2,160.3
					C148.2,160.3,148.2,160.3,148.2,160.3L148.2,160.3z"/>
			</g>
			<g>
				<path class="st20" d="M149.1,162C149.1,162,149.1,162,149.1,162C149.1,162,149.1,162,149.1,162L149.1,162z"/>
			</g>
			<g>
				<path class="st20" d="M149,162.4c-0.3,0.5-0.6,0.9-1.1,1.2c-0.5,0.3-1,0.2-1.5,0.3c-0.1,0-0.1,0.2,0,0.2
					C147.4,164.5,148.9,163.4,149,162.4C149.1,162.4,149,162.4,149,162.4L149,162.4z"/>
			</g>
			<g>
				<path class="st20" d="M143.4,165.9c0.6,0,1,0.6,1.6,0.6c0.8,0,1.1-1,2.1-0.4c0.4,0.2,0.5,0.6,0.9,0.8c0.4,0.2,0.8,0.1,1.3,0
					c0.1,0,0.1-0.1,0-0.1c-0.6,0.1-1.2,0-1.7-0.4c-0.3-0.2-0.4-0.5-0.6-0.6c-0.3-0.2-0.4-0.2-0.8-0.1c-0.1,0-0.3,0.1-0.4,0.2
					c-1.6,0.4-0.9,0.4-1.7,0c-0.3-0.2-0.5-0.2-0.8,0C143.3,165.8,143.3,165.9,143.4,165.9L143.4,165.9z"/>
			</g>
			<g>
				<path class="st20" d="M148.5,165.7c-0.5,0.1-0.9,0.4-0.9,0.9c0,0,0.1,0.1,0.1,0C147.8,166.2,148.1,165.9,148.5,165.7
					C148.6,165.8,148.6,165.7,148.5,165.7L148.5,165.7z"/>
			</g>
			<g>
				<path class="st20" d="M168.8,158.2c0.4,0.9,1,3.4,2.5,2.6c0.5-0.2,0.3-0.4,0.9-0.5c0.8,0,1.1,0.6,1.6,1.2
					c0.4,0.5,0.9,0.7,1.5,0.5c0.2,0,0.1-0.3-0.1-0.3c-1.5,0.4-1.8-2.1-3.2-1.9c-0.8,0.1-0.8,1-1.8,0.8
					C169.4,160.4,169.3,158.9,168.8,158.2C168.9,158.1,168.8,158.1,168.8,158.2L168.8,158.2z"/>
			</g>
			<g>
				<path class="st20" d="M165.2,161.7c0.9-0.6,1.9-1,3-0.9c0.7,0.1,1.3,0.3,2-0.1c0.1-0.1,0-0.2-0.1-0.1c-0.9,0.6-2.1-0.1-3.1,0.1
					C166.3,160.8,165.6,161.1,165.2,161.7C165.1,161.7,165.1,161.7,165.2,161.7L165.2,161.7z"/>
			</g>
			<g>
				<path class="st20" d="M168.2,157.6c-0.5-0.5-0.9-0.9-1.4-1.4c0,0,0,0,0,0C167.3,156.7,167.7,157.2,168.2,157.6
					C168.2,157.6,168.2,157.6,168.2,157.6L168.2,157.6z"/>
			</g>
			<g>
				<path class="st20" d="M168.8,157.9c-0.3-0.2-0.1-0.8,0.2-0.8c0,0,0.1-0.1,0-0.1c-0.3-0.7-0.7-1.2-1.4-1.6c0,0-0.1,0,0,0.1
					c0.4,0.3,0.8,0.6,1,1c0.1,0.1,0.2,0.4,0.2,0.5c0,0-0.2,0.1-0.2,0.1C168.4,157.4,168.5,157.8,168.8,157.9
					C168.8,157.9,168.8,157.9,168.8,157.9L168.8,157.9z"/>
			</g>
			<g>
				<path class="st20" d="M140.9,158.1c0.7,0.1,0.9,0.6,1.6,0c0.4-0.4,0.6-0.9,1.1-1.2c0.7-0.5,1.5-0.6,2.3-0.4c0.1,0,0.1-0.1,0-0.1
					c-0.9-0.2-1.8,0-2.5,0.5c-0.4,0.2-0.6,0.6-0.9,0.9c-0.6,0.5-1,0.1-1.6,0.2C140.8,158,140.9,158.1,140.9,158.1L140.9,158.1z"/>
			</g>
			<g>
				<path class="st20" d="M152.4,169.4c-0.8,0.4-0.9,1.1-0.8,2c0.1,0.7,0.2,0.8-0.1,1.4c-0.3,0.7-0.3,0.6-0.9,0.9
					c-0.4,0.2-0.6,0.3-0.8,0.6c-0.1,0.1,0.1,0.2,0.2,0.1c0.6-0.5,1.9-0.7,2.1-1.5c0.1-0.3,0-0.5-0.1-0.8c-0.2-0.7-0.5-0.8-0.3-1.7
					C151.8,170.1,152,169.7,152.4,169.4C152.4,169.4,152.4,169.4,152.4,169.4L152.4,169.4z"/>
			</g>
			<g>
				<path class="st20" d="M172.1,167.1c0.1-0.6,0.3-1.2-0.3-1.6c-0.2-0.1-0.4-0.2-0.6-0.1c-0.2,0-0.4,0.3-0.7,0.3
					c-0.4,0-0.7-0.3-0.8-0.7c0,0-0.1,0-0.1,0c0,0.4,0.3,0.7,0.7,0.7c0.2,0,0.4,0,0.6-0.1c0.3-0.2,0.5-0.1,0.8,0.1
					c0.1,0.1,0.1,0.2,0.2,0.3C172.1,166.4,172.1,166.8,172.1,167.1C172,167.1,172.1,167.2,172.1,167.1L172.1,167.1z"/>
			</g>
			<g>
				<path class="st20" d="M168.2,169.2c0,0.5,0.2,1.3,0.6,1.7c0,0,0.1,0,0.1-0.1C168.4,170.4,168.5,169.7,168.2,169.2
					C168.2,169.2,168.2,169.2,168.2,169.2L168.2,169.2z"/>
			</g>
			<g>
				<path class="st20" d="M143.6,157.2c0.3,0.3,0.7,0.4,1.1,0.6c0,0,0.1,0,0.1-0.1c-0.1-0.1-0.2-0.2-0.3-0.3c0,0-0.1,0-0.1,0.1
					c0,0,0.4,0.3,0.2,0.2c-0.2-0.2,0.1,0-0.2-0.2C144.1,157.3,143.9,157.2,143.6,157.2C143.6,157.1,143.6,157.1,143.6,157.2
					L143.6,157.2z"/>
			</g>
			<g>
				<path class="st20" d="M147.1,160.3c-0.1,0.1-0.1,0.3-0.1,0.4c0,0.4,0.4,0.5,0.3,1c0,0,0.1,0.1,0.1,0
					C147.5,161.3,146.9,160.9,147.1,160.3C147.2,160.3,147.1,160.3,147.1,160.3L147.1,160.3z"/>
			</g>
			<g>
				<path class="st20" d="M146.5,155.4c-0.4-0.1-0.9-0.3-1.3,0.1c-0.2,0.2-0.1,0.4-0.3,0.6c-0.3,0.3-0.7,0.4-1.1,0.7
					c0,0,0,0.1,0,0.1c0.4-0.2,0.9-0.4,1.2-0.8c0.1-0.1,0-0.2,0.1-0.3C145.5,155.1,146,155.4,146.5,155.4
					C146.6,155.5,146.6,155.4,146.5,155.4L146.5,155.4z"/>
			</g>
		</g>
		<g>
			
				<ellipse transform="matrix(2.496577e-02 -0.9997 0.9997 2.496577e-02 49.73 393.8189)" class="st12" cx="226.8" cy="171.4" rx="1" ry="2"/>
			
				<ellipse transform="matrix(2.496577e-02 -0.9997 0.9997 2.496577e-02 42.0749 385.5678)" class="st12" cx="218.7" cy="171.2" rx="1" ry="2"/>
			
				<ellipse transform="matrix(2.496577e-02 -0.9997 0.9997 2.496577e-02 41.7769 393.521)" class="st12" cx="222.6" cy="175.3" rx="1" ry="2"/>
			<g>
				<path class="st12" d="M199.3,158.1c2.7,7.4,5.9,16.3,13.4,20.7c1.1,0.9,2.3,1.9,3.5,2.8c1.2,0.9,2.4,1.7,3.6,2.5
					c-1.2-1.6-2.2-3.2-3-5c-0.8-1.7-1.4-3.5-1.8-5.5c2,0.8,3.9,1.6,5.7,2.3c1.8,0.7,3.6,1.3,5.5,1.8c2.7,1.2,4.8,2.2,4.8,2.2
					s-1.2-0.8-3.1-2c-1.4-0.6-2.8-1.3-4.2-1.9c-1.4-0.6-2.8-1.3-4.2-2c-6.8-5.3-16.5-6.1-19.3-15.6"/>
				<g>
					<path class="st15" d="M233.1,150.9c-0.3,11.3-5.5,20.3-16.8,20c-11.3-0.3-18.1-9.6-17.8-20.9c0.3-11.3,7.6-20.2,18.9-20
						S233.4,139.6,233.1,150.9z"/>
					
						<ellipse transform="matrix(2.496499e-02 -0.9997 0.9997 2.496499e-02 59.0792 363.4304)" class="st9" cx="215.8" cy="151.4" rx="17.7" ry="17.7"/>
					<g>
						
							<ellipse transform="matrix(2.496577e-02 -0.9997 0.9997 2.496577e-02 57.2097 367.365)" class="st13" cx="216.9" cy="154.4" rx="5.4" ry="5.4"/>
						
							<ellipse transform="matrix(2.496577e-02 -0.9997 0.9997 2.496577e-02 57.2097 367.365)" cx="216.9" cy="154.4" rx="2.1" ry="2.1"/>
						
							<ellipse transform="matrix(2.496577e-02 -0.9997 0.9997 2.496577e-02 61.0325 366.4142)" class="st16" cx="218.4" cy="151.9" rx="1.5" ry="1.5"/>
					</g>
					<path class="st11" d="M216.3,133.7c6.2,0.2,11.5,3.4,14.6,8.3c-10.7,2.5-21.8,3.8-32.6,7C199.5,140.2,207.2,133.5,216.3,133.7z
						"/>
				</g>
				<path class="st22" d="M222.9,133.6l-21.8,10c-3.1,1.4-6.7,0.1-8.1-3l0,0c-1.4-3.1-0.1-6.7,3-8.1l21.8-10c3.1-1.4,6.7-0.1,8.1,3
					l0,0C227.3,128.5,226,132.2,222.9,133.6z"/>
			</g>
			<g>
				<path class="st20" d="M214.6,162.7c-0.2,0.4-0.1,0.5,0.1,0.8c0.2,0.3,0.6,0.4,0.9,0.5c0.9,0.4,0.7,0.2,0.8,1.6
					c0.1,0.5,0,0.5,0.3,1.1c0.1,0.1,0.2,0.2,0.3,0.3c0.4,0.5,0.5,1,0.4,1.6c0.2,0.7-0.1,0,0.2,0.7c0.1,0.1,0.2,0,0.2-0.1
					c-0.3-0.7,0.1-1.4-0.4-2.1c-0.1-0.2-0.4-0.4-0.6-0.6c-1.5-2.5,0.1-0.4,0.1-1.3c0-0.3,0.1-0.3-0.1-0.6
					C216.5,163.9,214.4,164,214.6,162.7C214.7,162.7,214.6,162.7,214.6,162.7L214.6,162.7z"/>
			</g>
			<g>
				<path class="st20" d="M217.2,162.6c0.8,0.7-0.1,1.8-0.4,2.5c-0.1,0.2,0.2,0.3,0.3,0.1c0.2-0.5,0.5-1.2,0.6-1.8
					c0.1-0.4,0-0.7-0.4-1C217.3,162.5,217.2,162.6,217.2,162.6L217.2,162.6z"/>
			</g>
			<g>
				<path class="st20" d="M226,153c0.2,0.5,0.4,0.9,0.7,1.4c0.1,0.3,0.3,0.5,0.4,0.8c0.2,0.4,0.2,1,0.4,1.2c0.3,0.5,0.6,0.6,1.2,0.5
					c0.8,0,1.7,0,2,0.9c0.1,0.5-0.1,1,0,1.4c0.2,0.6,0.7,0.4,1.2,0.8c0.1,0.1,0.3-0.1,0.2-0.2c-0.2-0.3-0.4-0.2-0.7-0.4
					c-0.4-0.3-0.2-0.4-0.2-0.8c0-0.5-0.3-1.5-0.8-1.8c-0.9-0.6-2,0.3-2.8-0.8c-0.2-0.2-0.3-0.9-0.5-1.1
					C226.8,154.3,226.4,153.7,226,153C226,153,226,153,226,153L226,153z"/>
			</g>
			<g>
				<path class="st20" d="M225.1,154.7C225.1,154.7,225.1,154.7,225.1,154.7C225,154.7,225,154.7,225.1,154.7L225.1,154.7z"/>
			</g>
			<g>
				<path class="st20" d="M225.1,155.2c0.2,1,1.7,2,2.7,1.7c0.1,0,0.1-0.2,0-0.2c-0.6-0.1-1,0-1.5-0.3
					C225.7,156,225.5,155.6,225.1,155.2C225.2,155.1,225.1,155.1,225.1,155.2L225.1,155.2z"/>
			</g>
			<g>
				<path class="st20" d="M230.8,158.4c-0.3-0.2-0.3-0.2-0.6,0c-1,0.4,0,0.6-1.8,0.1c-0.1,0-0.2-0.2-0.4-0.2c-0.4,0-0.3-0.2-0.7,0.1
					c-0.2,0.1-0.3,0.4-0.4,0.6c-0.5,0.5-1.2,0.6-1.9,0.5c-0.1,0-0.1,0.1,0,0.1c0.4,0.1,0.8,0.1,1.3,0c0.5-0.2,0.6-0.5,0.9-0.8
					c0.9-0.6,1.3,0.4,2.1,0.4c0.6,0,1-0.6,1.6-0.6C230.8,158.6,230.9,158.5,230.8,158.4L230.8,158.4z"/>
			</g>
			<g>
				<path class="st20" d="M225.6,158.5c0.5,0.1,0.8,0.4,0.9,0.9c0,0,0.1,0,0.1,0C226.5,158.9,226.2,158.5,225.6,158.5
					C225.6,158.4,225.6,158.5,225.6,158.5L225.6,158.5z"/>
			</g>
			<g>
				<path class="st20" d="M205.3,150.8c-0.3,0.8-0.5,2.2-1.5,2.5c-1,0.3-1-0.7-1.8-0.8c-1.4-0.2-1.6,2.4-3.2,1.9
					c-0.2,0-0.3,0.2-0.1,0.3c0.6,0.2,0.9,0,1.4-0.4c0.4-0.4,0.7-1.1,1.3-1.3c0.7-0.3,1,0.2,1.4,0.5
					C204.4,154.3,205,151.8,205.3,150.8C205.4,150.8,205.3,150.8,205.3,150.8L205.3,150.8z"/>
			</g>
			<g>
				<path class="st20" d="M209,154.4c-0.5-0.5-1.2-0.8-1.9-1c-1-0.2-2.2,0.5-3.1-0.1c-0.1-0.1-0.2,0.1-0.1,0.1
					c0.6,0.4,1.3,0.2,2,0.1C207.1,153.5,208.1,153.8,209,154.4C209,154.4,209.1,154.4,209,154.4L209,154.4z"/>
			</g>
			<g>
				<path class="st20" d="M206,150.3c0.5-0.5,0.9-0.9,1.4-1.4c0,0,0,0,0,0C206.9,149.4,206.5,149.9,206,150.3
					C206,150.3,206,150.3,206,150.3L206,150.3z"/>
			</g>
			<g>
				<path class="st20" d="M205.4,150.6c0.3-0.2,0.4-0.6,0.1-0.8c0,0-0.2-0.1-0.2-0.1c-0.1-0.1,0,0.2,0-0.1c0-0.1,0.1-0.2,0.1-0.3
					c0.2-0.5,0.6-0.8,1.1-1.1c0,0,0-0.1,0-0.1c-0.7,0.3-1.1,0.9-1.4,1.6c0,0,0,0.1,0,0.1C205.5,149.9,205.7,150.4,205.4,150.6
					C205.4,150.6,205.4,150.6,205.4,150.6L205.4,150.6z"/>
			</g>
			<g>
				<path class="st20" d="M233.3,150.7c-0.5-0.1-1,0.2-1.4,0c-0.4-0.2-0.7-0.8-1.1-1.1c-0.8-0.5-1.6-0.6-2.5-0.5c-0.1,0,0,0.1,0,0.1
					c0.8-0.1,1.5-0.1,2.2,0.4c0.5,0.3,0.8,0.8,1.2,1.3c0.6,0.6,0.9,0.1,1.6,0C233.3,150.8,233.4,150.7,233.3,150.7L233.3,150.7z"/>
			</g>
			<g>
				<path class="st20" d="M221.8,162.2c0.3,0.3,0.6,0.7,0.7,1.1c0.1,0.6-0.1,1.1-0.3,1.6c-0.1,0.3-0.2,0.5-0.1,0.8
					c0.3,0.8,1.5,1,2.1,1.5c0.1,0.1,0.2,0,0.2-0.1c-0.2-0.3-0.5-0.5-0.8-0.6c-0.2-0.1-0.5-0.2-0.7-0.3c-0.9-0.7-0.4-1.3-0.3-2
					C222.7,163.3,222.6,162.6,221.8,162.2C221.8,162.1,221.8,162.2,221.8,162.2L221.8,162.2z"/>
			</g>
			<g>
				<path class="st20" d="M202.1,159.8c0-0.3-0.1-0.7,0-1c0.1-0.1,0.1-0.2,0.2-0.3c0.2-0.2,0.5-0.3,0.8-0.1c0.2,0,0.4,0.1,0.6,0.1
					c0.4-0.1,0.7-0.4,0.7-0.7c0-0.1-0.1-0.1-0.1,0c-0.1,0.3-0.4,0.7-0.8,0.7c-0.2,0-0.4-0.2-0.7-0.3c-0.2,0-0.4,0-0.6,0.1
					C201.8,158.6,202,159.3,202.1,159.8C202.1,159.9,202.2,159.9,202.1,159.8L202.1,159.8z"/>
			</g>
			<g>
				<path class="st20" d="M205.9,161.9c-0.3,0.5-0.2,1.2-0.6,1.7c0,0,0,0.1,0.1,0.1C205.8,163.2,206,162.5,205.9,161.9
					C206,161.9,206,161.9,205.9,161.9L205.9,161.9z"/>
			</g>
			<g>
				<path class="st20" d="M230.5,149.8c-0.2,0.1-0.4,0.2-0.7,0.4c-0.1,0-0.1,0.1-0.2,0.1c-0.3,0.3,0,0,0.1-0.1c0,0,0-0.1-0.1-0.1
					c-0.1,0.1-0.2,0.2-0.3,0.3c0,0,0,0.1,0.1,0.1C229.8,150.3,230.2,150.2,230.5,149.8C230.6,149.9,230.5,149.8,230.5,149.8
					L230.5,149.8z"/>
			</g>
			<g>
				<path class="st20" d="M227,153.1c0.3,0.5-0.3,0.9-0.2,1.4c0,0,0.1,0,0.1,0c-0.1-0.5,0.3-0.6,0.3-1
					C227.2,153.3,227.1,153.2,227,153.1C227,153,227,153,227,153.1L227,153.1z"/>
			</g>
			<g>
				<path class="st20" d="M227.7,148.2c0.4-0.1,0.9-0.3,1.2,0.1c0.1,0.2,0.1,0.3,0.2,0.4c0.2,0.4,0.8,0.6,1.2,0.8c0,0,0.1,0,0-0.1
					c-0.3-0.2-0.8-0.4-1.1-0.7c-0.2-0.2-0.2-0.4-0.3-0.6C228.6,147.8,228.1,148,227.7,148.2C227.6,148.1,227.6,148.2,227.7,148.2
					L227.7,148.2z"/>
			</g>
		</g>
	</g>
	<g>
		<path class="st48" d="M106.8,262.2l1.7-2.9c1.9-3.5,8.5-3.6,14.7-0.3l12.7,5.6l15.1,5.7c3.4,1.8,6.3,2.9,7.1,5.1
			c0.7,1.8,0,4.7-0.9,6.2l-2.8,5.2c-0.7,1.3-2.4,3.4-3.8,3.9c-2.4,0.9-5.1-0.5-8.9-2.6c0,0-19.9-9.7-14.8-7.5
			c5.1,2.2-8.2-3.9-14.7-7.8C105.7,269.1,104.9,265.7,106.8,262.2z"/>
		<g>
			<path class="st12" d="M170.9,226.5c0.1,6.2,1.1,16.5-7.6,16.2c0.7-0.2-6.4,1.4-9.3,0.8s-2.1-0.5-5.5-9.2c-0.4-1.1,1.6-5,1.2-6.1
				c-0.3-0.7-3-4.3-2.2-3.9c1.1,0.5,0.8-2.4,0.4-3.7c-1.4-5.3,5.9-7.9,12.6-6.7c6,1.3,7.1,5.8,9.9,10
				C170.6,224.1,170.9,226.3,170.9,226.5z"/>
			<path class="st12" d="M155.2,229.8L155.2,229.8c2.4-0.7,3.7-3.1,3.1-5.5l-4.4-15.5c-0.7-2.4-3.1-3.7-5.5-3.1h0
				c-2.4,0.7-3.7,3.1-3.1,5.5l4.4,15.5C150.4,229.1,152.9,230.5,155.2,229.8z"/>
			<path class="st12" d="M162.1,227.3L162.1,227.3c2.2-0.6,3.5-3.1,2.8-5.4l-4.4-15.5c-0.7-2.4-3-3.8-5.3-3.2h0
				c-2.2,0.6-3.5,3.1-2.8,5.4l4.4,15.5C157.5,226.5,159.9,227.9,162.1,227.3z"/>
			<path class="st12" d="M167,230.2L167,230.2c2.4-0.3,4.1-2.6,3.8-5l-2.2-16c-0.3-2.4-2.6-4.1-5-3.8l0,0c-2.4,0.3-3.1,4.6-2.8,7
				l1.1,14C162.3,228.8,164.6,230.5,167,230.2z"/>
		</g>
		<g>
			<path class="st12" d="M156.3,238.6L156.3,238.6c1.5-1.3,1.6-3.6,0.3-5.1l-7.7-8.5l-4.7-2.8c-1.8-1-4.6-1.4-6.5-0.2
				c-1.9,1.3-1,3.6,0.3,5.1l6,3.2l7.2,7.9C152.5,239.8,154.8,240,156.3,238.6z"/>
			<path class="st107" d="M156.9,239.8L156.9,239.8c1.5-1.3,1.6-3.6,0.3-5.1l-7.7-8.5l-4.7-2.8c-1.3-1.5-4.9-1.6-6.3-0.3l-0.2,0.2
				c-1.5,1.3-0.9,3.2,0.4,4.6l5.9,3.7l7.2,7.9C153.1,241,155.4,241.1,156.9,239.8z"/>
			<path class="st107" d="M170.3,227.4c0.1,6.2,2.6,17.4-6.1,17.1c0.7-0.2-6.4,1.4-9.3,0.8c-2.8-0.6-2.1-0.5-5.5-9.2
				c-0.4-1.1-0.3-5-0.7-6.1c-0.7-1.8-1.4-3.6-0.7-4.5c0,0,1,0.2,1.2-0.1c0.2-0.4-0.2-2.2-0.2-2.3c2.8-1,7.6-1.3,13.3-0.2
				c6,1.3,5.2-0.2,7.9,3.9C170.4,227,170.4,227.2,170.3,227.4z"/>
			<path class="st107" d="M155.3,231.8L155.3,231.8c1.9-0.5,2.9-2.9,2.3-5.3l-4.4-15.5c-0.7-2.4-2.6-5.2-4.6-4.6l-0.6,0.1
				c-1.9,0.5-2.5,4.1-1.8,6.5l4.4,15.5C151.3,230.8,153.4,232.3,155.3,231.8z"/>
			<path class="st107" d="M161.8,228.2L161.8,228.2c1.7-0.5,2.6-2.8,1.9-5.2l-3.5-15.3c-0.7-2.4-2.6-3.9-4.4-3.4v0
				c-1.7,0.5-2.6,2.8-1.9,5.2l3.5,15.3C158.1,227.1,160.1,228.7,161.8,228.2z"/>
			<path class="st107" d="M167.7,230.7L167.7,230.7c1.7-0.1,2.7-1.8,2.6-4.3l-1.8-16c-0.1-2.4-1.7-4.4-3.4-4.3h0
				c-1.7,0.1-3,2.2-2.9,4.6l2.1,15.6C164.4,228.9,166,230.8,167.7,230.7z"/>
		</g>
		<path class="st48" d="M148.1,248.9c-9.2,26.9-0.8,30,4.1,39.5c1.9,4.6,10.8,0,13.4-4.9c3.4-8.4,7.1-19.8,8.7-29
			c0.1-1.6-0.7-3.6-1.3-4.9c-3.2-5.6-17.6-8.8-22.7-3.9C148.9,247,148.7,247.2,148.1,248.9z"/>
		<path class="st9" d="M105.5,256.4c-0.8,1-1.5,2.1-1.9,3.2c-0.9,1.8-1.8,6,0.2,10.5c7.6,12.8,20,17.4,33.7,19
			c1.7-5,3.5-9.8,6.5-14.1C131.7,267.8,118.8,261.6,105.5,256.4z"/>
		<path class="st48" d="M116.3,256.7c-1-0.2-6.6-1.7-7.5-1.7c-5.7,0.2-6,8.6-4.5,15.7c1.4,4.2,4.3,8,7.3,10.9
			c9,7.9,21.1,9.2,33.1,10.5c4.5,0.1,20.3-4.1,19.5-7.3C161.4,272.9,128.5,266.3,116.3,256.7z"/>
		<path class="st9" d="M147.1,251.9c-0.6,1.3-1.1,2.6-1.7,3.9c-1.9,4.6-1.2,7.9-1.7,11.8c0,0.4-7.2-2.8-7.2-2.8s8.6,6.1,10.7,7.7
			C145.1,263.5,147.4,252.7,147.1,251.9z"/>
		<path class="st9" d="M171.9,263.5c-6.3,23.6-20.8,31.4-38,27.1c17,2.7,17.1,1.7,23.8-1.1c8.4-4.9,12.5-13.1,13.8-22.7
			C171.8,264.9,171.9,263.8,171.9,263.5z"/>
		<path class="st9" d="M170.7,251.4c0.4-2.2-0.7-8.7-1-9.4c-6.2,0.8-13.1,0.6-19.2-1.6c0.3,2.7,0.3,11.1,0.8,12
			C157.7,253.8,164.6,253.1,170.7,251.4z"/>
	</g>
	<g>
		<path class="st11" d="M171.2,230.9c-0.1,0.2-0.1,0.4-0.2,0.6C171.1,231.3,171.2,231.1,171.2,230.9z"/>
		<g>
			<g>
				<path class="st11" d="M120.6,226.3c0.1-0.1,0.2-0.2,0.3-0.3C120.8,226.1,120.7,226.2,120.6,226.3z"/>
				<path class="st11" d="M120.3,226.6c0.1-0.1,0.2-0.2,0.3-0.2C120.5,226.4,120.4,226.5,120.3,226.6z"/>
				<path class="st11" d="M119.7,227.9c0,0.5,0.2,1.5,0.7,1.7l0.6-3.6c-0.1,0.1-0.2,0.2-0.3,0.3c-0.1,0.1-0.2,0.2-0.3,0.2
					C119.9,226.9,119.6,227.3,119.7,227.9z"/>
				<path class="st12" d="M105.5,254.5l-4.4,2.8c-4.3,2.7-10.1,1.5-12.9-2.9l-8.4-13.3c-2.7-4.3-1.5-10.1,2.9-12.9l4.4-2.8
					c4.3-2.7,10.1-1.5,12.9,2.9l8.4,13.3C111.2,246,109.9,251.8,105.5,254.5z"/>
				
					<ellipse transform="matrix(0.8442 -0.536 0.536 0.8442 -128.991 74.7632)" class="st107" cx="64.1" cy="259.3" rx="9.3" ry="9.3"/>
				
					<ellipse transform="matrix(0.8442 -0.536 0.536 0.8442 -128.991 74.7632)" class="st12" cx="64.1" cy="259.3" rx="6.1" ry="6.1"/>
				
					<ellipse transform="matrix(0.8442 -0.536 0.536 0.8442 -97.4671 102.5343)" class="st107" cx="127.6" cy="218.9" rx="9.3" ry="9.3"/>
				
					<ellipse transform="matrix(0.8442 -0.536 0.536 0.8442 -97.4671 102.5343)" class="st12" cx="127.6" cy="218.9" rx="6.1" ry="6.1"/>
				<path class="st107" d="M123.7,211.8c-18.1-38.5-31.2-17.2-49-5.9c-17.8,11.3-24.8,32.3-15.5,46.9c2.1,3.3,9.7,15.3,11.8,18.5
					c9.3,14.6,38,12.9,49,5.9c9.7-6.2,24.8-32.3,15.5-46.9C133.4,227,125.4,215.2,123.7,211.8z"/>
				<path class="st108" d="M107.4,211.2c-1.3-0.3-0.7-2.8-0.7-2.8c4.1-3.7,9.8,3.5,13-1.7c1.1-1.8-1.7-4.4-3.2-6.7
					c5,3.7,3.9-1,5.8-4.2c-1.4-2.7-2.5-5-3.3-6.3c-11.1-17.4-33-18.7-50.4-7.6c-17,10.8-19.8,27.4-9.7,44.6
					c10.4-12.9,23.5-12,37.2-9.6C99.7,214.6,103.6,213.6,107.4,211.2z"/>
				<path class="st108" d="M70.1,202.1c0.1-0.6-0.4-1.1-0.9-1.1c0,0,0,0,0,0c-14.2-0.5-26.2,10.6-26.7,24.9
					c-0.4,9.8,4.8,18.6,12.8,23.2c0.5,0.3,1.2,0.1,1.4-0.5C63,233.7,68.5,218,70.1,202.1z"/>
				<g>
					<path class="st15" d="M122.4,222.1c4.1,6.5,4.6,13.6-1.9,17.7c-6.5,4.1-13.9,1.4-18-5c-4.1-6.5-3.4-14.3,3.1-18.4
						C112,212.2,118.2,215.6,122.4,222.1z"/>
					
						<ellipse transform="matrix(0.8442 -0.536 0.536 0.8442 -105.1483 96.1363)" class="st9" cx="112.8" cy="228.9" rx="12.1" ry="12.1"/>
					<g>
						
							<ellipse transform="matrix(0.8442 -0.536 0.536 0.8442 -103.6623 98.2117)" class="st13" cx="117.1" cy="227.4" rx="3.8" ry="3.8"/>
						<ellipse transform="matrix(0.8442 -0.536 0.536 0.8442 -103.6623 98.2117)" cx="117.1" cy="227.4" rx="1.5" ry="1.5"/>
						
							<ellipse transform="matrix(0.8442 -0.536 0.536 0.8442 -103.4244 97.1381)" class="st16" cx="115.4" cy="226.5" rx="1.1" ry="1.1"/>
					</g>
				</g>
				<path class="st12" d="M107.2,257.4L107.2,257.4c-2.6,1.6-6,0.9-7.6-1.7l-10.7-16.9c-1.6-2.6-0.9-6,1.7-7.6h0
					c2.6-1.6,6-0.9,7.6,1.7l10.7,16.9C110.5,252.4,109.8,255.8,107.2,257.4z"/>
				<path class="st107" d="M104.5,255.2L104.5,255.2c-2.6,1.6-6,0.9-7.6-1.7l-10.7-16.9c-1.6-2.6-0.9-6,1.7-7.6h0
					c2.6-1.6,6-0.9,7.6,1.7l10.7,16.9C107.9,250.2,107.1,253.6,104.5,255.2z"/>
				<path class="st108" d="M57,227.1c0,0,10.7-1.6,16.4-1.5c7.8,0.1,19.8-6.9,19.8-6.9s-15.7-6.1-22.5-4.1
					C64,216.6,57,227.1,57,227.1z"/>
				<path class="st108" d="M43.6,213.5c0,0,3.3-2.3,5.1-3.1c2.6-1.2,5.4-5.5,5.4-5.5s-6.1,0.6-8,2.3
					C44.2,208.9,43.6,213.5,43.6,213.5z"/>
				<path class="st108" d="M51.8,193.8c0,0,1.1,3.8,2,5.7c1.2,2.6,0.7,7.6,0.7,7.6s-4.4-4.3-4.8-6.9S51.8,193.8,51.8,193.8z"/>
				
					<ellipse transform="matrix(0.8442 -0.536 0.536 0.8442 -129.9621 84.2634)" class="st12" cx="80" cy="265.7" rx="1.4" ry="0.7"/>
				
					<ellipse transform="matrix(0.8442 -0.536 0.536 0.8442 -127.6626 86.2892)" class="st12" cx="84.6" cy="262.8" rx="1.4" ry="0.7"/>
				
					<ellipse transform="matrix(0.8442 -0.536 0.536 0.8442 -129.8252 86.426)" class="st12" cx="83.8" cy="266.5" rx="1.4" ry="0.7"/>
				
					<ellipse transform="matrix(0.8442 -0.536 0.536 0.8442 -109.3427 102.428)" class="st12" cx="121.5" cy="239.3" rx="1.4" ry="0.7"/>
				
					<ellipse transform="matrix(0.8442 -0.536 0.536 0.8442 -107.0432 104.4538)" class="st12" cx="126.2" cy="236.4" rx="1.4" ry="0.7"/>
				
					<ellipse transform="matrix(0.8442 -0.536 0.536 0.8442 -109.2058 104.5907)" class="st12" cx="125.3" cy="240.2" rx="1.4" ry="0.7"/>
				<path class="st108" d="M51.5,240.3l17.6,26.8l1.1-4l-8.4-17.6c0,0-2.6-13.2,1.3-18.6c3.9-5.5,14-12.6,14-12.6l-11.4,1.2
					L51.5,240.3z"/>
				<path class="st108" d="M116.1,197.5l14.3,25.8l-1.4,2.5l-12.4-15.1c0,0-10.8-8-17.4-6.7s-17.4,7.3-17.4,7.3l5.9-9.8L116.1,197.5
					z"/>
				<path class="st108" d="M100,221.8l12-11c1.7-1.5,1.8-4.2,0.2-5.9l0,0c-1.6-1.7-4.2-1.8-5.9-0.2l-12,11c-1.7,1.5-1.8,4.2-0.2,5.9
					l0,0C95.7,223.2,98.3,223.3,100,221.8z"/>
				<g class="st23">
					<path class="st11" d="M67,190.6c2.6-0.1,4.7-2.2,6.8-3.5c2.7-1.5,5.8-1.8,8.4-3.4c0.6-0.4,0.2-1.3-0.5-1.1
						c-2.8,0.7-5.8,1.2-8.4,2.6c-2.2,1.2-5.3,2.7-6.6,5C66.8,190.4,66.9,190.7,67,190.6L67,190.6z"/>
				</g>
				<g>
					<path class="st15" d="M92.9,237c4.1,6.5,4.6,13.6-1.9,17.7c-6.5,4.1-13.9,1.4-18-5c-4.1-6.5-3.4-14.3,3.1-18.4
						S88.7,230.5,92.9,237z"/>
					
						<ellipse transform="matrix(0.8442 -0.536 0.536 0.8442 -117.7416 82.6472)" class="st9" cx="83.3" cy="243.9" rx="12.1" ry="12.1"/>
					<g>
						
							<ellipse transform="matrix(0.8442 -0.536 0.536 0.8442 -115.6763 84.3885)" class="st13" cx="87.3" cy="241.2" rx="3.8" ry="3.8"/>
						<ellipse transform="matrix(0.8442 -0.536 0.536 0.8442 -115.6763 84.3885)" cx="87.3" cy="241.2" rx="1.5" ry="1.5"/>
						
							<ellipse transform="matrix(0.8442 -0.536 0.536 0.8442 -115.4385 83.315)" class="st16" cx="85.6" cy="240.2" rx="1.1" ry="1.1"/>
					</g>
				</g>
				<path class="st108" d="M68.7,242.6l11.9-11.2c1.7-1.6,1.7-4.3,0-6l0,0c-1.7-1.7-4.4-1.8-6.1-0.3l-11.9,11.2
					c-1.7,1.6-1.7,4.3,0,6l0,0C64.3,244,67,244.1,68.7,242.6z"/>
				<g>
					<path class="st20" d="M126,255.6c-6.7,0.4-14.7,2.1-20.7,5.3c-5.3,2.8-6.1,8.4-6.3,13.9c-0.1,1.3,2.9,0.7,2.9-0.3
						c0.2-6.1,1-10.9,7.5-13.4c5.2-2,10.7-3.4,16.3-3.8C127.2,257.2,128,255.5,126,255.6L126,255.6z"/>
				</g>
			</g>
		</g>
	</g>
	<g>
		<path class="st48" d="M80.3,288.2l3.3-1.6c3.9-2.1,10.1,1.9,13.8,8.8l8.3,13l10.5,14.6c2,3.8,4,6.6,3.4,9.1
			c-0.5,2.1-2.9,4.3-4.7,5.2l-5.8,3.1c-1.5,0.8-4.3,1.6-5.9,1.3c-2.8-0.6-4.4-3.6-6.7-7.9c0,0-12.4-21.2-9.1-16s-5.2-8.6-8.8-16.2
			C75,293.9,76.4,290.3,80.3,288.2z"/>
		<g>
			<path class="st12" d="M161.5,294.6c-3.7,5.8-9.1,16-17,10.3c0.8,0.2-6.8-2.7-9-5c-2.2-2.3-1.7-1.8,0.6-11.9
				c0.3-1.3,4.6-3.6,4.9-4.9c0.2-0.8-0.1-5.8,0.3-5c0.7,1.2,2.2-1.7,2.7-3.2c2-5.7,10.3-3.7,15.8,1.6c4.7,4.9,3,9.8,3,15.3
				C162.7,292.1,161.6,294.5,161.5,294.6z"/>
			<path class="st12" d="M145,288L145,288c2.6,0.8,5.4-0.6,6.2-3.2l5.5-17c0.8-2.6-0.6-5.4-3.2-6.2h0c-2.6-0.8-5.4,0.6-6.2,3.2
				l-5.5,17C141,284.4,142.4,287.2,145,288z"/>
			<path class="st12" d="M152.9,289.9L152.9,289.9c2.4,0.8,5.1-0.7,6-3.3l5.5-17c0.8-2.6-0.5-5.4-2.9-6.2l0,0
				c-2.4-0.8-5.1,0.7-6,3.3l-5.5,17C149.1,286.4,150.5,289.1,152.9,289.9z"/>
			<path class="st12" d="M155.6,295.6L155.6,295.6c2.5,1.2,5.4,0.2,6.6-2.3l7.8-16.1c1.2-2.5,0.2-5.4-2.3-6.6l0,0
				c-2.5-1.2-5.7,2.4-6.9,4.8l-7.5,13.6C152.2,291.4,153.2,294.4,155.6,295.6z"/>
		</g>
		<g>
			<path class="st12" d="M140.5,296.8L140.5,296.8c2.2-0.3,3.7-2.4,3.4-4.5l-1.9-12.6l-2.6-5.5c-1-2-3.4-4.2-5.9-4.1
				c-2.5,0.1-3.1,2.7-2.8,4.9l3.5,6.7l1.8,11.7C136.3,295.6,138.3,297.1,140.5,296.8z"/>
			<path class="st107" d="M140.4,298.3L140.4,298.3c2.2-0.3,3.7-2.4,3.4-4.5l-1.9-12.6l-2.6-5.5c-0.3-2.2-3.5-4.5-5.7-4.2l-0.2,0
				c-2.2,0.3-2.8,2.4-2.5,4.6l3.2,7l1.8,11.7C136.1,297,138.2,298.6,140.4,298.3z"/>
			<path class="st107" d="M160.5,295.1c-3.7,5.8-8.3,17.7-16.2,12c0.8,0.2-6.8-2.7-9-5c-2.2-2.3-1.7-1.8,0.6-11.9
				c0.3-1.3,2.8-4.8,3.1-6.1c0.4-2.1,0.9-4.1,2.1-4.6c0,0,0.8,0.8,1.2,0.6c0.4-0.2,1.2-2.2,1.2-2.2c3.2,0.8,7.8,3.5,12.4,8
				c4.7,4.9,4.9,3,4.9,8.5C160.7,294.7,160.6,294.9,160.5,295.1z"/>
			<path class="st107" d="M143.9,289.9L143.9,289.9c2.1,0.7,4.5-0.9,5.3-3.5l5.5-17c0.8-2.6,0.7-6.4-1.4-7.1l-0.6-0.2
				c-2.1-0.7-4.8,2.3-5.7,4.8l-5.5,17C140.8,286.5,141.8,289.2,143.9,289.9z"/>
			<path class="st107" d="M152.1,290.6L152.1,290.6c1.9,0.6,4.1-1,5-3.6l6.1-16.3c0.8-2.6,0-5.2-1.9-5.8h0c-1.9-0.6-4.1,1-5,3.6
				l-6.1,16.3C149.3,287.3,150.2,289.9,152.1,290.6z"/>
			<path class="st107" d="M156,296.5L156,296.5c1.6,1,3.6,0,5-2.3l8.1-15.9c1.4-2.4,1.2-5.1-0.5-6v0c-1.6-1-4.1,0.2-5.5,2.5
				l-7.6,15.7C154.1,292.8,154.3,295.5,156,296.5z"/>
		</g>
		<path class="st48" d="M126.6,301.2c-25.1,19.2-19.1,27.2-20.5,39.1c-1,5.4,10,6.7,15.4,3.7c8.3-5.7,18.8-13.9,25.8-21.5
			c1.1-1.4,1.5-3.7,1.8-5.3c0.5-7.1-10.9-19-18.6-17.6C128.6,300.1,128.3,300.1,126.6,301.2z"/>
		<path class="st9" d="M82.7,282.1c-1.3,0.4-2.6,1-3.8,1.8c-1.9,1.1-5.3,4.5-6.3,9.8c-0.8,16.5,7.8,28.4,19.5,38.3
			c4.6-3.6,9.3-6.9,14.7-9.1C99.9,308.7,91.7,295,82.7,282.1z"/>
		<path class="st48" d="M92.4,289c-0.8-0.8-5.1-5.6-5.9-6.2c-5.4-3.3-10.9,4.3-13.8,11.7c-1.3,4.7-1,10.1,0.1,14.5
			c3.5,12.9,13.8,21.5,24.2,30.1c4.1,2.8,21.3,8.7,22.5,5.3C124.2,331.7,97.8,305.3,92.4,289z"/>
		<path class="st9" d="M123.9,303.5c-1.3,0.8-2.6,1.7-3.9,2.5c-4.6,3.1-6,6.6-8.8,9.9c-0.3,0.3-5-7.1-5-7.1s4.2,10.9,5.2,13.8
			C114.9,313,123.6,304.3,123.9,303.5z"/>
		<path class="st9" d="M146,317.5c1.8-1.8,4.7-8.4,4.9-9.3c-6.2-3.1-12.5-7.5-16.8-13.3c-1.4,2.7-6.5,10.4-6.7,11.6
			C132.5,311.7,139.4,315.4,146,317.5z"/>
	</g>
	<g>
		<g>
			<g>
				<path class="st12" d="M236.4,93.7c7.8,5.6,21.9,11.4,11.7,20.3c0.5-1-5.8,8.4-9.6,10.8s-3,1.7-16-4.5c-1.7-0.8-3.5-7.3-5.1-8.1
					c-1-0.5-8-1.6-6.7-2c1.8-0.5-1.7-3.5-3.5-4.6c-7.2-4.5-1.8-15.2,7.1-21c8.1-4.9,10.3,3.3,17.8,5.1
					C232.4,89.7,232.6,91,236.4,93.7z"/>
			</g>
			<g>
				<path class="st12" d="M235.8,116.9L235.8,116.9c0.3-3.1-2-5.8-5.1-6.1l-17.7-1.3l-8.2,1.9c-3,0.8-6.7,3.3-7.5,6.7
					c-0.7,3.4,2.7,5.1,5.8,5.4l10.2-2.7l15.5-1.4C231.8,119.7,235.5,120,235.8,116.9z"/>
				<path class="st11" d="M237.1,87.6c6.1,3.9,16.1,11.3,12.9,20c-0.8,3.3-2.7,6.4-5.8,7.5c-5.9,2.7-13.1,3.4-19.3,0.5
					c-1.3-0.4-2.7-0.8-4.1-1.2c-2.7-1.2-5.1-3.5-7-5.1c-0.2-0.6-2.5-2.5-2.5-2.6c2.1-4.2,7-9.2,14.5-14.1c8.1-4.9,3.4-6.2,10.9-4.5
					C237,88.3,236.9,87.4,237.1,87.6z"/>
				<g>
					<path class="st11" d="M214,97.5L214,97.5c-0.3-2.2-4.5-3.9-6.4-3.6l-10,1.9c-1.9,0.3-4.2,1.9-4,4l0.1,0.7
						c0.3,2.2,3,3.5,4.9,3.2l11.1,0.8C211.6,104.3,214.3,99.7,214,97.5z"/>
					<path class="st11" d="M199.1,97.2L199.1,97.2c-2-1.2-4.4-0.9-5.3,0.6l-5.9,9.9c-0.9,1.5-0.9,4.2,1.1,5.3l0.6,0.4
						c2,1.2,4.7,0.1,5.6-1.4l5.9-9.9C202,100.6,201.1,98.4,199.1,97.2z"/>
					<path class="st11" d="M190.2,107.7L189,106c-1.7,1.8-2.2,4.4-1.7,5.5l3.4,7.1c0.5,1.1,1,2.8,3.1,1.8l0.6-0.3
						c2.1-1,2.1-5.5,1.6-6.6l-1.1-5.7C194.4,106.8,192.3,106.7,190.2,107.7z"/>
					<path class="st11" d="M227.4,110.1L227.4,110.1c1.6-2.7,1.5-5.7-0.3-6.7l-11.4-6.8c-1.7-1-8.6-2.3-10.2,0.3l3.2,2.3
						c-1.6,2.7-1,4.6,0.8,5.7l4.6,4.3C215.8,110.3,225.8,112.8,227.4,110.1z"/>
				</g>
				<g>
					<path class="st11" d="M216.9,92L216.9,92c0.9-2.1-1.9-4.1-3.7-5.1l-9.8-6.7c-1.8-1-4.7-1.1-5.6,1l-0.3,0.6
						c-0.9,2.1,0.8,4.9,2.6,5.9l7.5,8.9C209.4,97.5,216,94.1,216.9,92z"/>
					<path class="st11" d="M204,82.4L204,82.4c-1.1-2.3-3.3-3.6-4.9-2.8l-10.4,4.9c-1.6,0.7-3,3-1.9,5.3l0.3,0.7
						c1.1,2.3,4.1,3,5.7,2.3l10.4-4.9C204.7,87.1,205.1,84.7,204,82.4z"/>
					<path class="st11" d="M190.6,85.8l-0.1-2.2c-2.4,0.5-4.3,2.4-4.5,3.7l-0.9,8.3c-0.1,1.3-0.6,3.1,1.8,3.5l0.7,0.2
						c2.4,0.5,4.8-3.5,5-4.7l2.1-5.6C194.8,87.7,192.9,86.3,190.6,85.8z"/>
					<path class="st11" d="M221.9,111.3L221.9,111.3c2.8-1.3,4.3-4,3.3-6l-6.4-13c-1-2-6.3-7.4-9.1-6.1l1.6,4
						c-2.8,1.3-3.3,3.4-2.4,5.4l1.7,6.7C211.7,104.2,219.1,112.6,221.9,111.3z"/>
				</g>
				<g>
					<path class="st11" d="M216.5,76L216.5,76c0.9-2.1-1.9-4.1-3.7-5.1l-9.8-6.7c-1.8-1-4.7-1.1-5.6,1l-0.3,0.6
						c-0.9,2.1,0.8,4.9,2.6,5.9l9.7,12.4C211.1,85.1,215.6,78.1,216.5,76z"/>
					<path class="st11" d="M203.6,66.4L203.6,66.4c-1.1-2.3-3.3-3.6-4.9-2.8l-10.4,4.9c-1.6,0.7-3,3-1.9,5.3l0.3,0.7
						c1.1,2.3,4.1,3,5.7,2.3l10.4-4.9C204.3,71.2,204.7,68.7,203.6,66.4z"/>
					<path class="st11" d="M190.2,69.9l-0.1-2.2c-2.4,0.5-4.3,2.4-4.5,3.7l-0.9,8.3c-0.1,1.3-0.6,3.1,1.8,3.5l0.7,0.2
						c2.4,0.5,4.8-3.5,5-4.7l2.1-5.6C194.4,71.7,192.5,70.3,190.2,69.9z"/>
					<path class="st11" d="M223.9,106l3.5-2.9c2.8-1.3,13.6-11.5,12.6-13.5l-24.3-15.9c-1-2-6.4-4.3-9.2-3l4.4,3.3
						c-2.8,1.3-3.3,3.4-2.4,5.4l1.7,6.7C220.6,107.1,221.2,108.9,223.9,106z"/>
				</g>
			</g>
			<path class="st48" d="M237.5,137.2c18.4,40.1,37.4,57.3,46.1,43.2c1.2-1.9,12.9-14.6,10.4-22.9c-5.2-13.1-13.1-29.9-21.2-41.8
				c-1.6-1.9-4.6-3.2-6.7-4.1c-9.6-2.9-29.3,8.9-29.7,19.8C236.5,134.1,236.4,134.6,237.5,137.2z"/>
			<path class="st9" d="M239.7,141.6c0.7,2.1,3.6,8.5,4.6,10.4c4.1,7.4,4.7,5.9,8.3,10.7c0.3,0.4-9.9,27.9-9.9,27.9
				s15-25.6,19.1-26.1C249.8,156.7,240.7,142.2,239.7,141.6z"/>
			<path class="st9" d="M262.4,111.6c-1.8-2.9-12-12.1-13.1-12.6c-2.7,7-11.2,20.3-20.4,24.4c3.2,2.8,11.2,9.5,12.7,10.1
				C250.3,128.2,257.4,119.9,262.4,111.6z"/>
		</g>
	</g>
	<g>
		<path class="st93" d="M221.1,137.5c3.2-1.3,6.1-3.6,9-5.5c2.7-1.7,6.1-3,8-5.7c0.6-0.8-0.2-1.9-1.1-1.9c-3.5,0.1-6.6,2.6-9.4,4.5
			c-2.8,1.9-5.9,4-7.8,6.9C219.3,136.7,220.2,137.9,221.1,137.5L221.1,137.5z"/>
	</g>
	<g>
		<path class="st93" d="M123.5,192.7c8.8,1.8,17.9,1.9,26.3-1.6c1.3-0.5,0.8-2.2-0.6-2c-8.4,1.3-16.4,2-24.9,0.5
			C122.4,189.2,121.5,192.3,123.5,192.7L123.5,192.7z"/>
	</g>
	<g>
		<path class="st93" d="M165.3,243.9c4-7.9,6.6-16.8,5.4-25.8c-0.2-1.3-1.9-1.4-2.1,0c-1,8.4-2.4,16.4-6.1,24.1
			C161.6,244.1,164.4,245.8,165.3,243.9L165.3,243.9z"/>
	</g>
	<g>
		<path class="st93" d="M247.6,237.3c-7.8-3.8-13.9-9.4-20-15.5c-0.9-0.8-2.2,0.2-1.7,1.3c4.4,7.8,12,13.4,20,17
			C247.8,240.9,249.5,238.2,247.6,237.3L247.6,237.3z"/>
	</g>
</g>
<g id="Layer_2">
</g>
</svg>
