<svg id="348f8052-4024-465f-82c8-f9dfa561e507" data-name="Layer 1" xmlns="http://www.w3.org/2000/svg" xmlns:xlink="http://www.w3.org/1999/xlink" viewBox="0 0 300 450"><defs><clipPath id="b86439ac-575f-4a7d-a8f4-b23dbfc45d41"><path d="M250.13,217.54a99.73,99.73,0,0,1-199.47,0c0-55.08-18.24-171.13,112.17-162.62C217.8,58.5,250.13,162.46,250.13,217.54Z" style="fill:none"/></clipPath><clipPath id="f1fd70fb-3a2b-4835-bb42-45635f1ba4a0"><path d="M248.6,220.82a99.73,99.73,0,0,1-199.47,0c0-55.08,44.65-165.73,99.73-165.73S248.6,165.74,248.6,220.82Z" style="fill:none"/></clipPath></defs><title>juego2_ilust</title><circle cx="150" cy="217.41" r="99.73" style="fill:#dcffc5"/><polyline points="66.36 -29.95 66.36 58.37 -505.56 58.37" style="fill:none"/><circle cx="150.4" cy="217.54" r="99.73" style="fill:#ddbd00"/><g style="clip-path:url(#b86439ac-575f-4a7d-a8f4-b23dbfc45d41)"><path d="M207.75,267.87c0-13.15-.33-22.23-10.85-26.72-6.31-2.69-20.54-4.82-28.7-4.45l-32.13,1.47c-9.84.45-25.5,3.34-32.44,8-8.4,5.63-7.11,14-7.11,25.5v90.58a35.8,35.8,0,0,0,3.64,15.8c33.9.86,68.22-1.13,102.33-1.65a38.28,38.28,0,0,0,5.27-19.24Z" style="fill:#f1f3f7"/><path d="M111.11,247.39l3.82,1.31c6.39,1.75,6.26,15.62-.29,30.81l-11.08,30.44-11.47,35.6c-3.58,8.32-5.82,15.13-9.92,18.24-3.39,2.57-8.66,2.88-11.55,2.09l-9.44-2.59c-2.4-.66-6.11-2.88-7-5.54-1.55-4.43,1.18-11,5.27-20.52,0,0,19.12-48.18,14.69-36s7.61-19.74,15.22-35.94S104.72,245.64,111.11,247.39Z" style="fill:#f1f3f7"/><path d="M190.7,241l-3.82,1.31c-6.39,1.75-6.26,15.62.29,30.81l11.08,30.44,11.47,35.6c3.58,8.32,5.82,15.13,9.92,18.24,3.39,2.57,8.66,2.88,11.55,2.09l9.44-2.59c2.4-.66,6.11-2.88,7-5.54,1.55-4.43-1.18-11-5.27-20.52,0,0-19.12-48.18-14.69-36s-7.61-19.74-15.22-35.94S197.09,239.23,190.7,241Z" style="fill:#f1f3f7"/><polygon points="152.24 272.32 152.24 237.48 167.27 244.47 152.24 272.32" style="fill:#dcdde0;opacity:0.400000005960465"/><polygon points="152.24 272.32 152.24 237.48 137.21 244.47 152.24 272.32" style="fill:#dcdde0;opacity:0.400000005960465"/><polygon points="163.22 243.07 151.95 237.68 142.93 244.51 148.81 253.56 156.46 253.69 163.22 243.07" style="fill:#0076b7"/><polygon points="166.76 330.84 154.14 344.88 139.48 332.46 148.81 253.56 156.46 253.69 166.76 330.84" style="fill:#0076b7"/><polygon points="152.24 237.48 152.24 238.1 166.71 250.65 172.99 237.63 170.07 232.02 152.24 237.48" style="fill:#fff"/><polygon points="152.24 237.48 152.24 238.1 137.76 250.65 131.49 237.63 134.41 232.02 152.24 237.48" style="fill:#fff"/><polygon points="166.76 298.18 179.38 304.59 192.38 298.18 192.38 279.11 166.76 279.11 166.76 298.18" style="fill:#fff"/><rect x="166.76" y="271.02" width="25.62" height="5.95" style="fill:#fff"/><path d="M57.42,206.43c0,.27,0,.53,0,.81C57.4,207,57.41,206.71,57.42,206.43Z" style="fill:#f7cfa2"/></g><path d="M57.44,205.75c0,.23,0,.45,0,.68Q57.43,206.08,57.44,205.75Z" style="fill:#f7cfa2"/><path d="M188.73,148.75c.24-.12.48-.24.72-.38Z" style="fill:#f7cfa2"/><path d="M188.13,149.06l.6-.31Z" style="fill:#f7cfa2"/><path d="M186.38,151.13c-.15.86-.27,2.65.37,3.33l2.7-6.1c-.24.14-.48.26-.72.38l-.6.31A2.82,2.82,0,0,0,186.38,151.13Z" style="fill:#f7cfa2"/><circle cx="204.46" cy="139.01" r="16.79" transform="translate(-32.73 69.23) rotate(-17.82)" style="fill:#f7cfa2"/><circle cx="204.46" cy="139.01" r="11.06" transform="translate(-32.73 69.23) rotate(-17.82)" style="fill:#f0ba7a"/><path d="M179.92,200.05s-8.33,12.22-22,16.63-27.6-.67-27.6-.67a157.87,157.87,0,0,0,26.55-5.91A121.43,121.43,0,0,0,179.92,200.05Z" style="fill:#ea6d50"/><ellipse cx="184.42" cy="171.95" rx="2.5" ry="1.25" transform="translate(-43.77 64.68) rotate(-17.82)" style="fill:#f0ba7a"/><ellipse cx="193.89" cy="168.91" rx="2.5" ry="1.25" transform="translate(-42.38 67.43) rotate(-17.82)" style="fill:#f0ba7a"/><ellipse cx="190.68" cy="175.17" rx="2.5" ry="1.25" transform="translate(-44.45 66.75) rotate(-17.82)" style="fill:#f0ba7a"/><g style="opacity:0.600000023841858"><path d="M111.17,61.57c4.93,0,9.49-2.55,14.21-3.7,5.09-1.24,10.36-.4,15.47-1.61a.7.7,0,0,0-.18-1.36c-4.93.25-10-.4-14.91.7S115,58.26,111,61.08a.26.26,0,0,0,.13.49Z" style="fill:#f7cfa2"/></g><path d="M116.73,300.91a120.35,120.35,0,0,1-15.32,10.14c-9.58,5.2-21.08,7.53-28.73-2.09-12.65-15.91,9-35.33,20.93-44,10.79-7.86,55.66-36.28,61-8.47,1.06,5.5-3.35,11.41-5.64,15.65-2.68,5-11.37,4.63-12.38,5.87C131.66,284.16,123.23,296,116.73,300.91Z" style="fill:#fff"/><path d="M105.05,311.7c10.18-4.21,12-1.4,19.73-11.39.89-1-2.29-9.35-1.5-10.39a25.82,25.82,0,0,1,8.14-9.7c-2-3.9-3.26-8.35-4.77-12.5,2.93,4.58,8.85,6.2,14.63,5.73,1.31-.92,2.61-1.89,3.9-3,3.63-3.74,7.58-5.2,7.81-10.07a24.6,24.6,0,0,0-.72-7.15c-9.49-23.13-37.11.91-53,6.34q-2.56,1.75-5.08,3.56a175.5,175.5,0,0,0-14.55,11.56,43.32,43.32,0,0,0-3.56,4.58c-5.33,7.93-7.58,16.76-1.26,24.71,2.55,3.21,5.08,8.64,8.27,9.52a111.82,111.82,0,0,0,12.29,1.89C97.09,315.37,103.5,312.09,105.05,311.7Z" style="fill:#f1f3f7"/><path d="M209.92,236.48c-.18-.76,25.19-86.9,25-87.66-.48-2.27-.06-4.9-.14-7.36a96.84,96.84,0,0,0-.64-11.18,95.85,95.85,0,0,0-191,11.18c0,26,26.26,95.69,26.43,98.68,21.08-13.1,47.15,7,68.72-4.78C168.87,218.81,176.58,246.38,209.92,236.48Z" style="fill:#393d47"/><g style="clip-path:url(#f1fd70fb-3a2b-4835-bb42-45635f1ba4a0)"><path d="M184.56,276.65c0-15.39,6.54-27.55-3.28-32.8-5.89-3.15-16.66-4.46-24.2-4.49l-30,1.72c-9.19.53-23.8,3.91-30.28,9.35C89,257,98,267.77,98,281.25l13.78,82.66c0,6.66-.21,33.14,2,38.71,31.64,1,25.24-3.33,57.08-3.94,3.12-6.74,1.31-14.23,1.31-22.31Z" style="fill:#f1f3f7"/><path d="M103.48,248.4l3.88,5c6,2,5.84,18.27-.27,36L96.76,325,86,366.66c-3.35,9.73-5.43,17.7-9.26,21.34A11.53,11.53,0,0,1,66,390.44l-8.81-3c-2.24-.77-5.7-3.37-6.57-6.48-1.44-5.19,1.11-12.89,4.92-24,0,0,17.85-56.36,13.72-42.13s7.11-23.09,14.21-42S97.52,246.35,103.48,248.4Z" style="fill:#f1f3f7"/><path d="M178.1,244.36l-3.56,1.53c-6,2-5.84,18.27.27,36l10.34,35.6,10.71,41.64c3.35,9.73,5.43,17.7,9.26,21.34a11.53,11.53,0,0,0,10.78,2.44l8.81-3c2.24-.77,5.7-3.37,6.57-6.48,1.44-5.19-1.11-12.89-4.92-24,0,0-17.85-56.36-13.72-42.13s-7.11-23.09-14.21-42S184.06,242.31,178.1,244.36Z" style="fill:#f1f3f7"/><rect x="126.33" y="200.01" width="31.54" height="45.46" rx="12.32" ry="12.32" style="fill:#f0ba7a"/><polygon points="142.19 281.01 142.19 240.7 156.22 248.88 142.19 281.01" style="fill:#dcdde0;opacity:0.400000005960465"/><polygon points="142.19 281.01 142.19 240.26 128.16 248.44 142.19 281.01" style="fill:#dcdde0;opacity:0.400000005960465"/><polygon points="152.44 246.81 142.34 240.89 133.5 248.49 138.99 259.07 146.13 259.22 152.44 246.81" style="fill:#0076b7"/><polygon points="155.75 349.46 143.97 365.88 130.29 351.35 138.99 259.07 146.13 259.22 155.75 349.46" style="fill:#0076b7"/><path d="M142.19,240.26V241s-6.48,16.88-13.28,11.75a14.6,14.6,0,0,1-6.09-12.3l2.72-6.56Z" style="fill:#fff"/><path d="M142.48,240.26V241s6.48,16.88,13.28,11.75a14.6,14.6,0,0,0,6.09-12.3l-2.72-6.56Z" style="fill:#fff"/><g style="opacity:0.300000011920929"><polygon points="155.75 311.26 167.53 318.76 179.67 311.26 179.67 288.95 155.75 288.95 155.75 311.26" style="fill:#dcdde0"/><rect x="155.75" y="279.49" width="23.92" height="6.96" style="fill:#dcdde0"/></g><path d="M183.67,301.76c1.41-7,2.44-13.81,3.63-20.47q-1.88-1.7-3.63-3.59c-8.54-10-10.42-23.4-8.94-36.31a79.54,79.54,0,0,0-10.83-1.83,148.09,148.09,0,0,1-1.23,18c0,3.5-2.19,6.56-3.94,10.06a14.12,14.12,0,0,1-8.75,6.12c-20.58,5.06-31.33-13.15-33.46-31.22-5.65,1.18-7.19,1.15-11.59,3.52,2,9.91-.93,25.25-8.16,35.57,8.75,41.27,15.37,81.67,4.64,123.23,25.72.4,51.66-1.12,77.52-1.86A315.16,315.16,0,0,1,183.67,301.76Z" style="fill:#004868"/></g><path d="M183.23,277.52h-4.11a.78.78,0,0,1-.91-.91V264.15h-3.73a.78.78,0,0,1-.91-.91v-3.07a.78.78,0,0,1,.91-.91h13.39a.78.78,0,0,1,.91.91v3.07a.78.78,0,0,1-.91.91h-3.73v12.45a.78.78,0,0,1-.91.91Z" style="fill:#e02b41"/><path d="M206.59,272.73a6.26,6.26,0,0,1-.34,2.12,3.55,3.55,0,0,1-1.22,1.62,6.53,6.53,0,0,1-2.41,1.05,16.54,16.54,0,0,1-3.89.38,16.71,16.71,0,0,1-3.9-.38,6.54,6.54,0,0,1-2.42-1.05,3.54,3.54,0,0,1-1.22-1.62,6.21,6.21,0,0,1-.34-2.12v-8.65a6.17,6.17,0,0,1,.34-2.12,3.62,3.62,0,0,1,1.22-1.64,6.47,6.47,0,0,1,2.42-1.06,16.83,16.83,0,0,1,3.9-.38,16.65,16.65,0,0,1,3.89.38,6.46,6.46,0,0,1,2.41,1.06,3.64,3.64,0,0,1,1.22,1.64,6.22,6.22,0,0,1,.34,2.12Zm-10-.91a1.1,1.1,0,0,0,.38.85,4.67,4.67,0,0,0,3.5,0,1.1,1.1,0,0,0,.38-.85V265a1.07,1.07,0,0,0-.38-.83,4.64,4.64,0,0,0-3.5,0,1.08,1.08,0,0,0-.38.83Z" style="fill:#e02b41"/><path d="M214.52,277.52h-3.8a.78.78,0,0,1-.91-.91V260.17a.78.78,0,0,1,.91-.91h2.64a1.75,1.75,0,0,1,1.5.69l4.92,5.63v-5.4a.78.78,0,0,1,.91-.91h3.81a.78.78,0,0,1,.91.91v16.43a.78.78,0,0,1-.91.91h-3.81a.78.78,0,0,1-.91-.91v-3.12l-4.34-5.25v8.37a.78.78,0,0,1-.91.91Z" style="fill:#e02b41"/><path d="M237.52,277.52h-4.11a.78.78,0,0,1-.91-.91V264.15h-3.73a.78.78,0,0,1-.91-.91v-3.07a.78.78,0,0,1,.91-.91h13.39a.78.78,0,0,1,.91.91v3.07a.78.78,0,0,1-.91.91h-3.73v12.45a.78.78,0,0,1-.91.91Z" style="fill:#e02b41"/><path d="M249.69,276.61a.78.78,0,0,1-.91.91h-3.73a.78.78,0,0,1-.91-.91v-6.69a7.46,7.46,0,0,1,.24-1.75,19.26,19.26,0,0,1,.75-2.31l2.21-5.76a1.19,1.19,0,0,1,.47-.63,1.52,1.52,0,0,1,.83-.2h6.82a1.46,1.46,0,0,1,.8.2,1.19,1.19,0,0,1,.47.63l2.21,5.76a19.26,19.26,0,0,1,.75,2.31,7.48,7.48,0,0,1,.24,1.75v6.69a.78.78,0,0,1-.91.91h-3.83a1.11,1.11,0,0,1-.75-.21.89.89,0,0,1-.24-.7v-3.55h-4.49Zm1.44-12-1.19,3.85h4l-1.19-3.85a1,1,0,0,0-.21-.33.38.38,0,0,0-.27-.1h-.63a.38.38,0,0,0-.27.1A1,1,0,0,0,251.14,264.59Z" style="fill:#e02b41"/><path d="M265.87,280.05h-2a.78.78,0,0,1-.91-.91v-1a1,1,0,0,1,.21-.7,1,1,0,0,1,.7-.22h1.75a.66.66,0,0,0,.51-.19.73.73,0,0,0,.18-.52v-.38h-2.77a.78.78,0,0,1-.91-.91v-3.75a.78.78,0,0,1,.91-.91h5.12a.78.78,0,0,1,.91.91v4.77a3.73,3.73,0,0,1-1,2.88A3.86,3.86,0,0,1,265.87,280.05Z" style="fill:#e02b41"/><path d="M208.58,301.6l-3.9-.52a.78.78,0,0,1-.78-1l2.18-16.29a.78.78,0,0,1,1-.78l11.21,1.5a.78.78,0,0,1,.78,1l-.4,3a.78.78,0,0,1-1,.78l-6.41-.86-.35,2.61,4.37.59a.78.78,0,0,1,.78,1l-.4,3a.78.78,0,0,1-1,.78l-4.37-.59-.66,5a.78.78,0,0,1-1,.78Z" style="fill:#c69018"/><path d="M231.87,304.72l-11.66-1.56a.78.78,0,0,1-.78-1l2.18-16.29a.78.78,0,0,1,1-.78l11.66,1.56a.78.78,0,0,1,.78,1l-.39,2.94a.78.78,0,0,1-1,.78l-6.94-.93-.26,1.93,4.9.66a.78.78,0,0,1,.78,1l-.36,2.69a.78.78,0,0,1-1,.78l-4.9-.66-.29,2.16,6.94.93a.78.78,0,0,1,.78,1l-.39,2.94a.78.78,0,0,1-1,.78Z" style="fill:#c69018"/><path d="M241,305a.78.78,0,0,1-1,.78l-3.69-.49a.78.78,0,0,1-.78-1l.89-6.63a7.46,7.46,0,0,1,.47-1.7,19.26,19.26,0,0,1,1-2.19l3-5.41a1.19,1.19,0,0,1,.55-.57,1.52,1.52,0,0,1,.85-.09l6.76.91a1.46,1.46,0,0,1,.76.31,1.19,1.19,0,0,1,.38.69l1.42,6A19.26,19.26,0,0,1,252,298a7.48,7.48,0,0,1,0,1.77l-.89,6.63a.78.78,0,0,1-1,.78l-3.79-.51a1.11,1.11,0,0,1-.71-.31.89.89,0,0,1-.14-.72l.47-3.52-4.45-.6Zm3-11.72L242.33,297l3.95.53-.67-4a1,1,0,0,0-.17-.35.38.38,0,0,0-.25-.14l-.63-.08a.38.38,0,0,0-.28.07A1,1,0,0,0,244,293.3Z" style="fill:#c69018"/><path d="M260.53,301.86l-3.9-.52A1,1,0,0,1,256,301a1,1,0,0,1-.15-.72l.92-9.75a.74.74,0,0,1,1-.79l4.8.64a.74.74,0,0,1,.73,1l-1.65,9.65a.83.83,0,0,1-1.07.78Zm-.51,6.64-4.62-.62a.78.78,0,0,1-.78-1l.44-3.29a.78.78,0,0,1,1-.78l4.62.62a.78.78,0,0,1,.78,1l-.44,3.29a.78.78,0,0,1-1,.78Z" style="fill:#c69018"/><path d="M271.18,303.28l-3.9-.52a1,1,0,0,1-.66-.31,1,1,0,0,1-.15-.72l.92-9.75a.74.74,0,0,1,1-.79l4.8.64a.74.74,0,0,1,.73,1l-1.65,9.65a.83.83,0,0,1-1.07.78Zm-.51,6.64-4.62-.62a.78.78,0,0,1-.78-1l.44-3.29a.78.78,0,0,1,1-.78l4.62.62a.78.78,0,0,1,.78,1l-.44,3.29a.78.78,0,0,1-1,.78Z" style="fill:#c69018"/><rect x="72.61" y="282.34" width="24.4" height="44.56" rx="10.28" ry="10.28" transform="translate(-78.49 33.85) rotate(-15.54)" style="fill:#f7cfa2"/><rect x="114.35" y="286.57" width="24.4" height="44.56" rx="10.28" ry="10.28" transform="translate(-78.1 45.18) rotate(-15.54)" style="fill:#f7cfa2"/><rect x="94.61" y="284.76" width="24.4" height="44.56" rx="10.28" ry="10.28" transform="translate(-78.34 39.83) rotate(-15.54)" style="fill:#f7cfa2"/><circle cx="70.76" cy="146.76" r="16.45" style="fill:#f7cfa2"/><circle cx="70.76" cy="146.76" r="10.84" style="fill:#601515;opacity:0.100000001490116"/><circle cx="204.37" cy="146.76" r="16.45" style="fill:#f7cfa2"/><circle cx="204.37" cy="146.76" r="10.84" style="fill:#601515;opacity:0.100000001490116"/><path d="M205.35,132.28c0-30.67-30.38-55.53-67.86-55.53s-67.86,24.86-67.86,55.53v39c0,30.67,44.66,55.53,67.86,55.53,20.44,0,67.86-24.86,67.86-55.53Z" style="fill:#f7cfa2"/><path d="M128.92,73.84a1.76,1.76,0,0,0-.38-2.53h0A45.82,45.82,0,0,0,61.9,130.1a1.77,1.77,0,0,0,2.58.65C88.29,114.45,111.39,96.3,128.92,73.84Z" style="fill:#393d47"/><path d="M199.19,92.86a1.76,1.76,0,0,0,1.52-2.06h0A45.82,45.82,0,0,0,112,85.25a1.77,1.77,0,0,0,1.36,2.28C141.74,92.84,170.92,96.34,199.19,92.86Z" style="fill:#393d47"/><path d="M208.13,134.92c.53.43,1.46.1,2-.74v0c14.16-21,0-50.27-13.23-64.2-8.12-8.57-36-23.65-48.42-14.67-.81.59,24.29,30,24.63,30.72C182.4,104.83,193.19,122.71,208.13,134.92Z" style="fill:#393d47"/><path d="M193.49,147.66c0,13.64-6,24.7-19.69,24.7s-22.19-11.06-22.19-24.7,8.55-24.7,22.19-24.7S193.49,134,193.49,147.66Z" style="fill:#601515;opacity:0.100000001490116"/><path d="M194.1,148.82c0,11.84-10.79,12.48-22.63,12.48s-20.26-.64-20.26-12.48S159.31,137,171.15,137,194.1,137,194.1,148.82Z" style="fill:#fff"/><rect x="150.58" y="115.89" width="43.78" height="14.79" rx="7.39" ry="7.39" style="fill:#393d47"/><circle cx="172.65" cy="148.82" r="10.26" style="fill:#601515"/><circle cx="172.65" cy="148.82" r="3.97"/><circle cx="170.08" cy="144.15" r="2.93" style="fill:#f9f9f9"/><path d="M81.3,147.66c0,13.64,6,24.7,19.69,24.7s22.19-11.06,22.19-24.7S114.63,123,101,123,81.3,134,81.3,147.66Z" style="fill:#601515;opacity:0.100000001490116"/><ellipse cx="102.14" cy="147.74" rx="21.44" ry="12.35" style="fill:#fff"/><rect x="80.43" y="115.89" width="43.78" height="14.79" rx="7.39" ry="7.39" transform="translate(204.64 246.56) rotate(180)" style="fill:#393d47"/><circle cx="102.14" cy="148.82" r="10.26" style="fill:#601515"/><circle cx="102.14" cy="148.82" r="3.97"/><circle cx="99.7" cy="144.15" r="2.93" style="fill:#f9f9f9"/><path d="M169.81,190.19c-22.06-9.32-44.06,4.68-65.06,9.68,20-5,39-29,59.59-12.66A31.39,31.39,0,0,0,169.81,190.19Z" style="fill:#ea6d50"/><rect x="130.88" y="139.99" width="12.42" height="34.86" rx="6.21" ry="6.21" style="fill:#601515;opacity:0.100000001490116"/><rect x="129.9" y="135.11" width="12.42" height="34.86" rx="6.21" ry="6.21" style="fill:#f7cfa2"/><path d="M76.8,84.64v33.83h76.67l3-25.29,4.63,25.29a180.85,180.85,0,0,0,20,1.41c7.15-.06,24.13,10.79,24.13,10.79l-3.85-51.86-97-15.18Z" style="fill:#393d47"/><g style="opacity:0.600000023841858"><path d="M136.24,53.26c3.09.23,6.05,1.09,9.15,1.22,4,.17,7.77,0,11.74.82,2.82.56,5.6,1.35,8.38,2.09s5.11,2.13,7.81,2.83c1.06.27,3.42-1.29,1.73-1.73-2.72-.71-5-2.16-7.81-2.83-3.37-.81-6.68-1.78-10.09-2.43s-6.36-.46-9.72-.55-6.71-1-10.11-1.25c-1.24-.09-3,1.69-1.08,1.84Z" style="fill:#f7cfa2"/></g><path d="M235.2,220.08a11,11,0,0,1-.56,3.6,6.1,6.1,0,0,1-2,2.76,10.15,10.15,0,0,1-3.86,1.79,25.12,25.12,0,0,1-6.25.65,24.64,24.64,0,0,1-6.18-.65,10.15,10.15,0,0,1-3.84-1.79,6,6,0,0,1-1.94-2.76,11.4,11.4,0,0,1-.54-3.6v-7a1.33,1.33,0,0,1,1.55-1.55h6.25a1.33,1.33,0,0,1,1.55,1.55v5.26a2,2,0,0,0,.54,1.44,3.66,3.66,0,0,0,2.52.58c1.23,0,2-.2,2.35-.58a2.14,2.14,0,0,0,.5-1.44v-19.6a1.33,1.33,0,0,1,1.55-1.55h6.76a1.33,1.33,0,0,1,1.55,1.55Z" style="fill:#efe91b"/><path d="M249.72,226.67a1.33,1.33,0,0,1-1.55,1.55h-6.33a1.33,1.33,0,0,1-1.55-1.55V215.29a12.68,12.68,0,0,1,.41-3A32.73,32.73,0,0,1,242,208.4l3.75-9.78a2,2,0,0,1,.8-1.08,2.59,2.59,0,0,1,1.4-.35H259.5a2.48,2.48,0,0,1,1.36.35,2,2,0,0,1,.8,1.08l3.75,9.78a32.73,32.73,0,0,1,1.27,3.92,12.71,12.71,0,0,1,.41,3v11.38a1.33,1.33,0,0,1-1.55,1.55H259a1.88,1.88,0,0,1-1.27-.36,1.52,1.52,0,0,1-.41-1.19v-6h-7.63Zm2.45-20.43-2,6.55h6.76l-2-6.55a1.63,1.63,0,0,0-.36-.56.64.64,0,0,0-.45-.18H253a.65.65,0,0,0-.46.18A1.68,1.68,0,0,0,252.17,206.24Z" style="fill:#efe91b"/></svg>