<?xml version="1.0" encoding="utf-8"?>
<!-- Generator: Adobe Illustrator 21.1.0, SVG Export Plug-In . SVG Version: 6.00 Build 0)  -->
<svg version="1.1" xmlns="http://www.w3.org/2000/svg" xmlns:xlink="http://www.w3.org/1999/xlink" x="0px" y="0px"
	 viewBox="0 0 300 450" style="enable-background:new 0 0 300 450;" xml:space="preserve">
<style type="text/css">
	.st0{fill:#B27E49;}
	.st1{fill:#ECB8FF;}
	.st2{display:none;opacity:0.3;}
	.st3{fill:#F4E44A;}
	.st4{clip-path:url(#SVGID_2_);fill:#F1F3F7;}
	.st5{opacity:0.4;clip-path:url(#SVGID_2_);fill:#DCDDE0;}
	.st6{clip-path:url(#SVGID_2_);fill:#0076B7;}
	.st7{clip-path:url(#SVGID_2_);fill:#FFFFFF;}
	.st8{clip-path:url(#SVGID_2_);}
	.st9{fill:#FFFFFF;}
	.st10{clip-path:url(#SVGID_2_);fill:#F7CFA2;}
	.st11{fill:#F7CFA2;}
	.st12{fill:#F0BA7A;}
	.st13{fill:#601515;}
	.st14{fill:url(#SVGID_3_);}
	.st15{opacity:0.1;fill:#601515;}
	.st16{fill:#F9F9F9;}
	.st17{fill:url(#SVGID_4_);}
	.st18{fill:url(#SVGID_5_);}
	.st19{fill:url(#SVGID_6_);}
	.st20{fill:#EA6D50;}
	.st21{opacity:0.3;fill:#601515;}
	.st22{fill:#5B1010;}
	.st23{opacity:0.6;}
	.st24{fill:#A52323;}
	.st25{opacity:0.2;}
	.st26{fill:url(#SVGID_7_);}
	.st27{fill:#CE6117;}
	.st28{fill:url(#SVGID_8_);}
	.st29{fill:#8454D1;}
	.st30{clip-path:url(#SVGID_10_);fill:#393D47;}
	.st31{clip-path:url(#SVGID_10_);fill:#F0BA7A;}
	.st32{clip-path:url(#SVGID_10_);fill:#F1F3F7;}
	.st33{clip-path:url(#SVGID_10_);fill:#0076B7;}
	.st34{clip-path:url(#SVGID_10_);fill:#004868;}
	.st35{opacity:0.4;clip-path:url(#SVGID_10_);fill:#DCDDE0;}
	.st36{clip-path:url(#SVGID_10_);fill:#FFFFFF;}
	.st37{clip-path:url(#SVGID_10_);}
	.st38{fill:#393D47;}
	.st39{fill:url(#SVGID_11_);}
	.st40{fill:#EAA56C;}
	.st41{clip-path:url(#SVGID_13_);fill:#F1F3F7;}
	.st42{clip-path:url(#SVGID_13_);fill:#F0BA7A;}
	.st43{opacity:0.4;clip-path:url(#SVGID_13_);fill:#DCDDE0;}
	.st44{clip-path:url(#SVGID_13_);fill:#0076B7;}
	.st45{clip-path:url(#SVGID_13_);fill:#FFFFFF;}
	.st46{clip-path:url(#SVGID_13_);}
	.st47{clip-path:url(#SVGID_13_);fill:#F7CFA2;}
	.st48{fill:#F1F3F7;}
	.st49{fill:none;}
	.st50{fill:#A85848;}
	.st51{fill:#E85646;}
	.st52{fill:#EA4E39;}
	.st53{fill:#DCFFC5;}
	.st54{fill:#8BAA77;}
	.st55{clip-path:url(#SVGID_15_);fill:#F1F3F7;}
	.st56{opacity:0.4;clip-path:url(#SVGID_15_);fill:#DCDDE0;}
	.st57{clip-path:url(#SVGID_15_);fill:#0076B7;}
	.st58{clip-path:url(#SVGID_15_);fill:#FFFFFF;}
	.st59{clip-path:url(#SVGID_15_);}
	.st60{fill:#595959;}
	.st61{opacity:0.3;fill:#595959;}
	.st62{clip-path:url(#SVGID_27_);fill:#F1F3F7;}
	.st63{opacity:0.4;clip-path:url(#SVGID_27_);fill:#DCDDE0;}
	.st64{clip-path:url(#SVGID_27_);fill:#0076B7;}
	.st65{clip-path:url(#SVGID_27_);fill:#FFFFFF;}
	.st66{clip-path:url(#SVGID_27_);}
	.st67{clip-path:url(#SVGID_27_);fill:#F7CFA2;}
	.st68{opacity:0.7;fill:#7BCDDB;}
	.st69{fill:none;stroke:#F0BA7A;stroke-width:3;stroke-miterlimit:10;}
	.st70{clip-path:url(#SVGID_41_);fill:#F1F3F7;}
	.st71{opacity:0.4;clip-path:url(#SVGID_41_);fill:#DCDDE0;}
	.st72{clip-path:url(#SVGID_41_);fill:#0076B7;}
	.st73{clip-path:url(#SVGID_41_);fill:#FFFFFF;}
	.st74{clip-path:url(#SVGID_41_);}
	.st75{clip-path:url(#SVGID_41_);fill:#F7CFA2;}
	.st76{fill:#9E9E9E;}
	.st77{fill:#878787;}
	.st78{fill:#DDBD00;}
	.st79{clip-path:url(#SVGID_43_);fill:#F1F3F7;}
	.st80{opacity:0.4;clip-path:url(#SVGID_43_);fill:#DCDDE0;}
	.st81{clip-path:url(#SVGID_43_);fill:#0076B7;}
	.st82{clip-path:url(#SVGID_43_);fill:#FFFFFF;}
	.st83{clip-path:url(#SVGID_43_);}
	.st84{clip-path:url(#SVGID_43_);fill:#F7CFA2;}
	.st85{clip-path:url(#SVGID_45_);}
	.st86{opacity:0.4;fill:#DCDDE0;}
	.st87{fill:#0076B7;}
	.st88{opacity:0.3;}
	.st89{fill:#DCDDE0;}
	.st90{fill:#004868;}
	.st91{fill:#E02B41;}
	.st92{fill:#C69018;}
	.st93{fill:#EFE91B;}
	.st94{fill:#656D60;}
	.st95{clip-path:url(#SVGID_47_);fill:#F0BA7A;}
	.st96{clip-path:url(#SVGID_47_);fill:#F1F3F7;}
	.st97{opacity:0.4;clip-path:url(#SVGID_47_);fill:#DCDDE0;}
	.st98{clip-path:url(#SVGID_47_);fill:#0076B7;}
	.st99{clip-path:url(#SVGID_47_);fill:#FFFFFF;}
	.st100{clip-path:url(#SVGID_47_);}
	.st101{clip-path:url(#SVGID_47_);fill:#F7CFA2;}
	.st102{clip-path:url(#SVGID_49_);fill:#F1F3F7;}
	.st103{clip-path:url(#SVGID_49_);}
	.st104{fill:#B23C18;}
	.st105{fill:#6B2A05;}
	.st106{fill:#B23C18;stroke:#6B2A05;stroke-miterlimit:10;}
	.st107{fill:#DDAA78;}
	.st108{fill:#211205;}
	.st109{fill:none;stroke:#6B2A05;stroke-width:0.729;stroke-miterlimit:10;}
	.st110{fill:#B23C18;stroke:#6B2A05;stroke-width:0.729;stroke-miterlimit:10;}
	.st111{fill:#B72C34;}
	.st112{clip-path:url(#SVGID_51_);fill:#F1F3F7;}
	.st113{clip-path:url(#SVGID_51_);}
	.st114{clip-path:url(#SVGID_51_);fill:#F7CFA2;}
	.st115{fill:#F2C85F;}
	.st116{clip-path:url(#SVGID_53_);fill:#F0BA7A;}
	.st117{clip-path:url(#SVGID_53_);fill:#F1F3F7;}
	.st118{opacity:0.4;clip-path:url(#SVGID_53_);fill:#DCDDE0;}
	.st119{clip-path:url(#SVGID_53_);fill:#0076B7;}
	.st120{clip-path:url(#SVGID_53_);fill:#FFFFFF;}
	.st121{clip-path:url(#SVGID_53_);}
	.st122{clip-path:url(#SVGID_53_);fill:#F7CFA2;}
	.st123{clip-path:url(#SVGID_55_);}
	.st124{fill:#F4F0A6;}
	.st125{fill:#9E921E;}
	.st126{clip-path:url(#SVGID_57_);fill:#F0BA7A;}
	.st127{clip-path:url(#SVGID_57_);fill:#F1F3F7;}
	.st128{clip-path:url(#SVGID_57_);}
	.st129{clip-path:url(#SVGID_57_);fill:#393D47;}
	.st130{clip-path:url(#SVGID_57_);fill:#FFFFFF;}
	.st131{opacity:0.4;clip-path:url(#SVGID_57_);fill:#DCDDE0;}
	.st132{clip-path:url(#SVGID_57_);fill:#0076B7;}
	.st133{fill:#1F74C9;}
	.st134{clip-path:url(#SVGID_59_);}
	.st135{fill:#023142;}
	.st136{clip-path:url(#SVGID_61_);fill:#F7CFA2;}
	.st137{clip-path:url(#SVGID_61_);}
	.st138{opacity:0.3;fill:#E57257;}
	.st139{fill:#777777;}
	.st140{clip-path:url(#SVGID_63_);fill:#F1F3F7;}
	.st141{opacity:0.4;clip-path:url(#SVGID_63_);fill:#DCDDE0;}
	.st142{clip-path:url(#SVGID_63_);fill:#0076B7;}
	.st143{clip-path:url(#SVGID_63_);fill:#FFFFFF;}
	.st144{clip-path:url(#SVGID_63_);}
	.st145{clip-path:url(#SVGID_63_);fill:#F7CFA2;}
	.st146{clip-path:url(#SVGID_65_);fill:#F0BA7A;}
	.st147{clip-path:url(#SVGID_65_);fill:#F1F3F7;}
	.st148{opacity:0.4;clip-path:url(#SVGID_65_);fill:#DCDDE0;}
	.st149{clip-path:url(#SVGID_65_);fill:#0076B7;}
	.st150{clip-path:url(#SVGID_65_);fill:#FFFFFF;}
	.st151{clip-path:url(#SVGID_65_);}
	.st152{clip-path:url(#SVGID_65_);fill:#F7CFA2;}
</style>
<g id="Layer_1">
	<circle class="st53" cx="150" cy="217.4" r="99.7"/>
	<path class="st9" d="M259.5,122.2c-7,6-12,16-21,22v-1c-2,5-8,5-11,8c-2,3,7,3,3,7c18.8-6.7,32.2-21.6,40.5-39.1
		c-0.8-2.1-2-4-3.8-5.9c-1.9-2-4-5.1-6.1-7C262.2,112.5,262.5,118.5,259.5,122.2z"/>
	<circle class="st94" cx="149.4" cy="217.9" r="99.7"/>
	<g>
		<defs>
			<path id="SVGID_46_" d="M249.1,217.9c0,55.1-44.7,99.7-99.7,99.7S49.7,273,49.7,217.9c0-55.1-18.2-171.1,112.2-162.6
				C216.8,58.9,249.1,162.8,249.1,217.9z"/>
		</defs>
		<clipPath id="SVGID_2_">
			<use xlink:href="#SVGID_46_"  style="overflow:visible;"/>
		</clipPath>
		<path style="clip-path:url(#SVGID_2_);fill:#F0BA7A;" d="M152.1,240.2l-5,0.4c-7.4,0.6-13.9-4.9-14.5-12.2l-2.6-31.1
			c-0.6-7.3,4.9-13.8,12.3-14.5l5-0.4c7.4-0.6,13.9,4.9,14.5,12.2l2.6,31.1C165,233,159.5,239.5,152.1,240.2z"/>
		<path class="st4" d="M203.1,252.9c0-13.2-0.3-22.2-10.9-26.7c-6.3-2.7-20.5-4.8-28.7-4.4l-32.1,1.5c-9.8,0.5-25.5,3.3-32.4,8
			c-8.4,5.6-7.1,14-7.1,25.5v90.6c0,5.7,1.3,11,3.6,15.8c33.9,0.9,68.2-1.1,102.3-1.6c3.3-5.8,5.3-12.3,5.3-19.2V252.9z"/>
		<path class="st4" d="M106.5,232.4l3.8,1.3c6.4,1.8,6.3,15.6-0.3,30.8L98.9,295l-11.5,35.6c-3.6,8.3-5.8,15.1-9.9,18.2
			c-3.4,2.6-8.7,2.9-11.6,2.1l-9.4-2.6c-2.4-0.7-6.1-2.9-7-5.5c-1.5-4.4,1.2-11,5.3-20.5c0,0,19.1-48.2,14.7-36s7.6-19.7,15.2-35.9
			C92.3,234.1,100.1,230.7,106.5,232.4z"/>
		<path class="st4" d="M186.1,226l-3.8,1.3c-6.4,1.8-6.3,15.6,0.3,30.8l11.1,30.4l11.5,35.6c3.6,8.3,5.8,15.1,9.9,18.2
			c3.4,2.6,8.7,2.9,11.6,2.1l9.4-2.6c2.4-0.7,6.1-2.9,7-5.5c1.5-4.4-1.2-11-5.3-20.5c0,0-19.1-48.2-14.7-36s-7.6-19.7-15.2-35.9
			C200.2,227.7,192.5,224.3,186.1,226z"/>
		<polygon class="st5" points="147.6,257.4 147.6,222.5 162.6,229.5 		"/>
		<polygon class="st5" points="147.6,257.4 147.6,222.5 132.6,229.5 		"/>
		<polygon class="st6" points="158.6,228.1 147.3,222.7 138.3,229.6 144.2,238.6 151.8,238.7 		"/>
		<polygon class="st6" points="162.1,315.9 149.5,329.9 134.9,317.5 144.2,238.6 151.8,238.7 		"/>
		<polygon class="st7" points="147.6,222.5 147.6,223.2 162.1,235.7 168.4,222.7 165.4,217.1 		"/>
		<polygon class="st7" points="147.6,222.5 147.6,223.2 133.1,235.7 126.9,222.7 129.8,217.1 		"/>
		<g class="st8">
			<polygon class="st9" points="162.1,283.2 174.7,289.6 187.7,283.2 187.7,264.2 162.1,264.2 			"/>
			<rect x="162.1" y="256.1" class="st9" width="25.6" height="6"/>
		</g>
		<path class="st10" d="M56.4,206.8c0,0.3,0,0.5,0,0.8C56.4,207.4,56.4,207.1,56.4,206.8z"/>
	</g>
	<path class="st11" d="M56.4,206.1c0,0.2,0,0.5,0,0.7C56.4,206.6,56.4,206.3,56.4,206.1z"/>
	<g>
		<path class="st11" d="M188,138.6c0.3,0,0.5,0,0.8-0.1C188.6,138.6,188.3,138.6,188,138.6z"/>
		<path class="st11" d="M187.3,138.6c0.2,0,0.5,0,0.7,0C187.8,138.6,187.6,138.6,187.3,138.6z"/>
		<path class="st11" d="M216.8,148.8c-0.5,0.7-1.3,2.3-1,3.2l4.9-4.5c-0.3,0-0.5,0-0.8,0.1c-0.2,0-0.4,0-0.7,0
			C218.2,147.6,217.4,147.8,216.8,148.8z"/>
		<path class="st12" d="M166.6,170.4l-9.4-1c-9.2-1-16-9.4-15-18.6l3.1-28.4c1-9.2,9.4-16,18.6-15l9.4,1c9.2,1,16,9.4,15,18.6
			l-3.1,28.4C184.2,164.7,175.9,171.4,166.6,170.4z"/>
		
			<ellipse transform="matrix(0.1082 -0.9941 0.9941 0.1082 -38.0212 218.177)" class="st11" cx="102.6" cy="130.3" rx="16.8" ry="16.8"/>
		
			<ellipse transform="matrix(0.1082 -0.9941 0.9941 0.1082 -38.0212 218.177)" class="st12" cx="102.6" cy="130.3" rx="11.1" ry="11.1"/>
		
			<ellipse transform="matrix(0.1082 -0.9941 0.9941 0.1082 48.6913 326.5233)" class="st11" cx="206.3" cy="136.1" rx="16.8" ry="16.8"/>
		
			<ellipse transform="matrix(0.1082 -0.9941 0.9941 0.1082 48.6913 326.5233)" class="st12" cx="206.3" cy="136.1" rx="11.1" ry="11.1"/>
		<path class="st11" d="M239.7,140.8c17.1-66.9-25.4-53.7-63.4-57.8c-38-4.1-71.3,15-74.3,42.8c-0.7,6.2-3.2,29.1-3.8,35.3
			c-3,27.8,39.9,55.2,63.4,57.8c20.7,2.3,71.3-15,74.3-42.8C236.5,169.8,238.1,146.8,239.7,140.8z"/>
		<path class="st13" d="M218.3,111.1c-1.5-1.8,2.2-4.8,2.2-4.8c10.1-0.6,9.9,16.1,20.4,12.2c3.5-1.3,2.5-8.1,3.1-13
			c2.8,10.9,6.6,2.9,12.9,0.6c1.2-5.4,2.2-9.9,2.5-12.6c4-37.2-25.5-63.7-62.7-67.8c-36.3-3.9-58.9,16.4-64.3,52.1
			c29.3-6.5,46.8,9.6,63.5,28.6C203.5,107.3,210.3,110.3,218.3,111.1z"/>
		<path class="st13" d="M175.8,56c0.7-0.7,0.7-1.9-0.1-2.6c0,0,0,0,0,0c-19.6-16.8-49.1-14.6-66,5c-11.6,13.5-14.2,31.8-8.2,47.3
			c0.4,1,1.6,1.5,2.5,0.9C130,92.7,155.5,76.9,175.8,56z"/>
		<path class="st20" d="M139.1,199.5c0,0,12.6-7.8,26.9-6.2c14.3,1.6,24.9,11.9,24.9,11.9s-12.3-3.9-26.7-5.4
			C150,198.1,139.1,199.5,139.1,199.5z"/>
		<path class="st13" d="M128.9,76.7c0,0,17,9.9,24.9,16.4c10.9,9,35.9,12.7,35.9,12.7s-15.4-26.4-27.2-31.2
			C150.8,69.8,128.9,76.7,128.9,76.7z"/>
		<path class="st13" d="M218.3,141.1c-1.5-1.8,2.2-4.8,2.2-4.8c10.1-0.6,9.9,16.1,20.4,12.2c3.5-1.3,2.5-8.1,3.1-13
			c2.8,10.9,6.6,2.9,12.9,0.6c1.2-5.4,2.2-9.9,2.5-12.6c4-37.2-25.5-63.7-62.7-67.8c-36.3-3.9-58.9,16.4-64.3,52.1
			c29.3-6.5,46.8,9.6,63.5,28.6C203.5,137.3,210.3,140.3,218.3,141.1z"/>
		<path class="st13" d="M128.9,106.7c0,0,17,9.9,24.9,16.4c10.9,9,35.9,12.7,35.9,12.7s-15.4-26.4-27.2-31.2
			C150.8,99.8,128.9,106.7,128.9,106.7z"/>
		<path class="st13" d="M125.3,42.3c0,0,7.2,0.5,10.8,1.4C141.2,44.9,150,42,150,42s-9.3-6.1-14-5.8S125.3,42.3,125.3,42.3z"/>
		<path class="st13" d="M159.2,23.6c0,0-2.8,6.6-3.6,10.3c-1.2,5.1-7.6,11.6-7.6,11.6s-1.3-11.1,1-15.1
			C151.3,26.5,159.2,23.6,159.2,23.6z"/>
		<path class="st21" d="M106.2,89.2l-6.4,60.4l7.1-7l8.1-34.4c0,0,11.1-21.6,22.9-24.9c11.7-3.3,34.1-2.1,34.1-2.1l-17.5-11.3
			L106.2,89.2z"/>
		<path class="st21" d="M246.1,101.6L236,168.1l-4.9,1.9l0.7-49.2c0,0-6.2-23.5-17-29.2c-10.8-5.7-32.8-9.3-32.8-9.3l19.5-7.2
			L246.1,101.6z"/>
		<g>
			<g>
				<path class="st15" d="M226,166.6c-0.9,8.5-8.1,14.8-22.5,14c-14.3-0.9-22.8-8-22.4-16.4c0.5-8.5,10.1-15.1,24.9-14.4
					C221,150.5,226.9,158,226,166.6z"/>
				<path class="st9" d="M226.6,167.4c-0.8,7.3-11.7,12.6-24.2,11.9c-12.4-0.7-22.1-7.1-21.7-14.4c0.4-7.4,10.7-9.8,23.6-9.1
					C217.2,156.4,227.4,159.9,226.6,167.4z"/>
				<g>
					<path class="st13" d="M214.3,166c-0.4,3.6-5.6,6.2-11.7,5.8c-6.1-0.3-10.8-3.5-10.5-7c0.3-3.6,5.4-6.3,11.6-5.9
						C209.9,159.2,214.6,162.4,214.3,166z"/>
					<path d="M207.5,165.7c-0.1,1.4-2.1,2.4-4.5,2.3c-2.4-0.1-4.2-1.3-4.1-2.7c0.1-1.4,2.1-2.4,4.5-2.3
						C205.8,163.1,207.6,164.3,207.5,165.7z"/>
					<path class="st16" d="M203.8,162.5c-0.1,1-1.6,1.8-3.3,1.7c-1.7-0.1-3.1-1-3-2c0.1-1,1.6-1.8,3.3-1.7
						C202.5,160.6,203.9,161.5,203.8,162.5z"/>
				</g>
			</g>
			<g>
				<path class="st15" d="M108.8,160.2c0.3,8.2,6.5,15.1,20.1,15.9c13.7,0.8,22.5-5.3,22.7-13.6c0.2-8.5-8.7-15.9-22.9-16.6
					C114.5,145.2,108.5,151.8,108.8,160.2z"/>
				<path class="st9" d="M108.2,160.9c0.2,7.1,9.9,13.4,21.8,14.1c11.9,0.7,21.8-4.5,21.9-11.7c0.1-7.3-10.8-9.3-23.1-9.9
					C116.6,152.8,108,153.6,108.2,160.9z"/>
				<path class="st13" d="M126.3,162.9c0,3.5,4.7,6.5,10.5,6.9c5.8,0.3,10.6-2.2,10.6-5.7c0.1-3.5-4.7-6.7-10.6-7
					C130.9,156.8,126.2,159.4,126.3,162.9z"/>
				<path d="M132.7,163.2c0,1.4,1.8,2.5,4.1,2.7c2.3,0.1,4.1-0.9,4.1-2.2c0-1.4-1.8-2.6-4.1-2.7
					C134.5,160.9,132.7,161.9,132.7,163.2z"/>
				<path class="st16" d="M131.3,160.3c0,1,1.4,1.9,3,2c1.7,0.1,3-0.7,3-1.7c0-1-1.4-1.9-3-2C132.6,158.5,131.3,159.3,131.3,160.3z"
					/>
			</g>
			<path class="st12" d="M165.1,186.5L165.1,186.5c-5.5-0.3-9.9-3.2-9.8-6.4l0.5-21.5c0.1-3.4,4.8-5.9,10.5-5.6h0
				c5.7,0.3,10.3,3.3,10.1,6.7l-1.1,21.6C175.2,184.5,170.6,186.8,165.1,186.5z"/>
			<path class="st11" d="M163.2,182.9L163.2,182.9c-5.5-0.3-9.9-3.2-9.9-6.4l0.5-21.7c0.1-3.4,4.8-6,10.5-5.7h0
				c5.8,0.3,10.3,3.3,10.2,6.8l-1,21.8C173.4,180.9,168.8,183.3,163.2,182.9z"/>
			<path class="st12" d="M118.7,175.7c0,0.4-1.1,0.7-2.4,0.6c-1.3-0.1-2.4-0.5-2.4-0.9c0-0.4,1.1-0.7,2.4-0.6
				C117.6,174.9,118.7,175.3,118.7,175.7z"/>
			<path class="st12" d="M128.4,176.3c0,0.4-1.1,0.7-2.4,0.6c-1.4-0.1-2.4-0.5-2.5-0.9c0-0.4,1.1-0.7,2.4-0.6
				C127.3,175.5,128.4,175.9,128.4,176.3z"/>
			<path class="st12" d="M123.6,178.8c0,0.4-1.1,0.6-2.4,0.6c-1.3-0.1-2.4-0.5-2.4-0.9c0-0.4,1.1-0.6,2.4-0.6
				C122.5,178.1,123.6,178.4,123.6,178.8z"/>
			<path class="st12" d="M208.2,181c0,0.4-1.2,0.7-2.6,0.6c-1.4-0.1-2.5-0.5-2.5-0.9c0-0.4,1.2-0.7,2.6-0.6
				C207.1,180.2,208.3,180.6,208.2,181z"/>
			<path class="st12" d="M218.6,181.7c0,0.4-1.2,0.7-2.7,0.6c-1.4-0.1-2.6-0.5-2.5-0.9c0-0.4,1.2-0.7,2.7-0.6
				C217.5,180.9,218.6,181.3,218.6,181.7z"/>
			<path class="st12" d="M213.6,183.8c0,0.4-1.2,0.7-2.6,0.6c-1.4-0.1-2.5-0.5-2.5-0.9c0-0.4,1.2-0.7,2.6-0.6
				C212.5,183,213.6,183.4,213.6,183.8z"/>
			<path class="st22" d="M190.4,148.7l31,8.1c4.4,1.2,8.7,0,9.5-2.5v0c0.8-2.6-2.2-5.6-6.6-6.8l-31.4-8.1c-4.3-1.1-8.4,0.1-9.1,2.6
				l0,0C183.1,144.6,186.1,147.6,190.4,148.7z"/>
			<path class="st22" d="M117.1,155.1l28-4.9c4-0.7,6.1-3.3,4.6-5.8l0,0c-1.5-2.5-6-4-10-3.3l-23,4c-3.9,0.7-10.8,4.4-9.3,6.8v0
				C108.9,154.3,113.3,155.8,117.1,155.1z"/>
		</g>
		<g class="st23">
			<path class="st11" d="M184.5,36.3c4.9,2.2,10.6,1.5,15.8,2.6c4.7,1.1,8.7,3.7,13.5,4.6c0.9,0.2,1.2-1,0.4-1.3
				c-4.7-1.8-9.1-4.5-14-5.4c-4.7-0.9-10.8-1.9-15.5-0.9C184.4,35.9,184.3,36.2,184.5,36.3L184.5,36.3z"/>
		</g>
		<path class="st12" d="M286.1,298.9c0.5,0.3,0.4,1.9,0.9,0.9c-1.3-7.7-5.7-15.7-9.1-22.7c-4.9-10.4-10.4-20.9-16.1-31.2
			c-0.8-1.5-1.6-2.9-2.4-4.4c-12.6-12.3-11.6-31.3-21.6-46.3c-1-1-4,0-6,0c-11,5-5,17-2,25c4,10,12,18,12.5,28.7
			c-0.4,0.8-1.4,1.3-2.8,3.8c-5,9.1-5.9,18.6-0.9,28.9c3.6,7.3,9.9,11.4,14.1,17.8c5.6,8.5,7.7,19.7,12.1,28.8L286.1,298.9z"/>
		<path class="st11" d="M244.5,209.9c-1.7-5.1-3.7-10-6.8-14.6c-1-1-4,0-6,0c-0.5,0.2-1,0.5-1.5,0.8
			C233.1,202.6,238,208.4,244.5,209.9z"/>
		<path class="st11" d="M251.7,247.2c-4.4-0.9-8.1-3-11.1-6c0.9,2.4,1.5,5,1.6,7.7c-0.3,0.6-1,1.1-2,2.6
			C242.9,248,246.6,245.9,251.7,247.2z"/>
		<path class="st11" d="M238.6,254.4c-0.3,0.6-0.6,1.2-0.9,1.9c3.6,2,7.6,3.4,12,4C246.5,257,242.4,255.9,238.6,254.4z"/>
		<path class="st11" d="M235.9,261.7c-0.2,0.9-0.4,1.8-0.5,2.7c3.2,1.2,6.6,2.2,10.3,2.8C242.9,264.4,239.5,262.9,235.9,261.7z"/>
		<path class="st12" d="M220.6,323.5c0.4,0.4-0.1,1.9,0.6,1.1c0.7-7.7-1.5-16.6-3-24.3c-1.4-7.3-2.9-14.7-4.6-22
			c-0.3-1.5-0.7-2.9-1-4.4c-0.6-1.6-1.1-3.2-1.5-4.8s-0.9-3.3-1.3-5.1c-6.1-14.7-12-37.3-15.6-46.5c-2,0-6.5,1.7-8.5,3.7
			c-10,14,4,27,5,41c1,1-2,3-3.4,4.6c-0.9,0.9-1.7,1.9-2.5,2.9c-5.4,6.9-7.7,15-5.7,24.9c1.6,7.9,6.6,13.5,9.1,20.9
			c3.2,9.6,2.4,21,4.3,31L220.6,323.5z"/>
		<path class="st11" d="M199.6,234c-2.1-6.8-4-12.7-5.4-16.5c-2,0-6.5,1.7-8.5,3.7c-0.8,1.1-1.4,2.1-1.9,3.2
			C187.1,231.8,191.4,239.3,199.6,234z"/>
		<path class="st12" d="M218.2,300.3c-1.4-7.3-2.9-14.7-4.6-22c-0.3-1.5-0.7-2.9-1-4.4c-0.6-1.6-1.1-3.2-1.5-4.8
			c-0.5-1.7-0.9-3.3-1.3-5.1c-3.6-8.7-7.1-20.2-10.1-30c-8.3,5.3-12.5-2.2-15.8-9.6c-6.1,12.8,5.9,24.9,6.9,37.8c1,1-2,3-3.4,4.6
			c-0.9,0.9-1.7,1.9-2.5,2.9c-5.4,6.9-7.7,15-5.7,24.9c1.6,7.9,6.6,13.5,9.1,20.9c3.2,9.6,2.4,21,4.3,31l28.1-23
			c0.4,0.4-0.1,1.9,0.6,1.1C221.9,316.8,219.6,308,218.2,300.3z"/>
		<path class="st13" d="M99.8,85.8c-2,8.9-0.8,18.3-0.5,27.2c3.3,1.1,7.9,2,11.5,1.8c4.5-0.3,8.3-2.7,12.2-4.6
			c4-1.9,8.8-3.4,13.4-3.9c1.6-0.2,4.7,0.5,6.1-0.2c3.2-1.6,3.1-8.7,3.2-11.4c0.3-5,0.7-9.8,1.5-14.7c0.3-2.1,1.2-5.1,0.5-7.2
			c-0.5-1.5-2-3.2-3.3-3.9c-4-2-12.2-0.3-16.4-0.3c-4.9,0-11.7-1.2-15.7,2.4c-2,1.8-2.5,4.5-4.2,6.4c-1.4,1.6-4.7,3-2.6,5.7"/>
	</g>
	<path class="st9" d="M115.7,301.3c-4.9,3.8-10,7.3-15.3,10.1c-9.6,5.2-21.1,7.5-28.7-2.1c-12.6-15.9,9-35.3,20.9-44
		c10.8-7.9,55.7-36.3,61-8.5c1.1,5.5-3.3,11.4-5.6,15.7c-2.7,5-11.4,4.6-12.4,5.9C130.6,284.5,122.2,296.3,115.7,301.3z"/>
	<path class="st48" d="M104,312.1c10.2-4.2,12-1.4,19.7-11.4c0.9-1-2.3-9.4-1.5-10.4c2-4.2,4.8-7.2,8.1-9.7c-2-3.9-3.3-8.4-4.8-12.5
		c2.9,4.6,8.8,6.2,14.6,5.7c1.3-0.9,2.6-1.9,3.9-3c3.6-3.7,7.6-5.2,7.8-10.1c0.1-2.4-0.1-4.9-0.7-7.1c-9.5-23.1-37.1,0.9-53,6.3
		c-1.7,1.2-3.4,2.4-5.1,3.6c-5,3.6-9.9,7.4-14.5,11.6c-1.3,1.5-2.5,3-3.6,4.6c-5.3,7.9-7.6,16.8-1.3,24.7c2.6,3.2,5.1,8.6,8.3,9.5
		c1.6,0.4,10.6,1.9,12.3,1.9C96.1,315.7,102.5,312.5,104,312.1z"/>
	<path class="st12" d="M87.8,187.3c4.4-1,3.9-5.7,5.2-9.6c-1.2-0.4-3.7-1.5-3.8-1.5c-0.2-0.1-1.9,2.5-2.8,4
		c-0.7,1.1-1.9,4.1-2.5,5.2C85.1,186.5,86,187.7,87.8,187.3z"/>
	<path class="st11" d="M94.4,189c0.4-1.6,0.6-3.3,0.7-4.9c0.2-1.9,0.3-4.1-1.2-5.4c-0.3-0.3-0.7-0.5-1.1-0.6
		c-1.3,3.9-0.8,8.7-5.2,9.6c-1.8,0.4-2.7-0.8-3.8-2c-1.8,3.3-3.5,6.7-4.8,10.2c-1.3,3.3-2.4,6.8-4.4,9.8c-1.7,2.7-4.2,5.2-4.4,8.4
		c-0.1,1.6,0.3,3.1,0.9,4.6l7.9,9.5c1.7-3.9,1.9-8.4,2.9-12.5c0.2-0.5,0.5-1,0.7-1.6c0.9-7.4,2.8-14.6,7.7-20.5
		C90.9,192.1,93.3,190.9,94.4,189z"/>
	<path class="st11" d="M125.7,254.3c10.3-6.6,22-10.9,34-12.5c-0.1,1.4-0.5,2.8-1.1,4.1c5.4-0.2,10.9,0.2,16.3,1.1
		c0.6,0.1,1.3,0.2,1.7,0.7c0.7,0.8,0.4,2,0,3c-0.3,0.6-0.6,1.2-0.9,1.8c-0.1,0.2-0.2,0.4-0.3,0.6c-0.6,1.2-4.6,1.2-2,3.9
		c0.1,0.1,0.1,0.2,0.2,0.3c0.1,0.1,0.2,0.2,0.3,0.3c0.2,0.1,0.3,0.2,0.5,0.4c2.3,1.5,6.1,2.2,5.3,6.3c0,0-1,0-0.5,0
		c-0.1,0.1-0.1,0.3-0.2,0.4c-0.2,0.3-0.4,0.6-0.6,0.9c0,0.1-0.1,0.3-0.2,0.4c-0.1,0.1-0.3,0.2-0.5,0.3c-0.5,0-1.1-0.2-1.7-0.6
		c-0.2-0.1-0.4-0.2-0.6-0.4c-0.7-0.1-1.7-2.1-4.1-1.3c-0.2,0.1-0.5,0.1-0.7,0.3c-0.2,0.1-0.5,0.3-0.7,0.5c-0.2,0.1-0.4,0.1-0.6,0.2
		s-0.4,0.2-0.6,0.3c-3,3,2,5,1,7c-3,6-10,0-14.4-3c-0.6-0.3-1.1-0.6-1.7-0.8c-0.6-0.2-1.1-0.4-1.7-0.6c-0.6-0.2-1.2-0.5-1.9-0.7
		c-0.6-0.2-1.3-0.4-2-0.6c-0.6-0.1-1.3-0.2-1.9-0.3c-4.5-0.4-9.1,0.7-12.9,1.8c-0.4,0-0.9-0.1-1.3-0.2c-0.9-0.3-1.7-1-2.5-1.6
		c-3.5-3.1-6.4-8-4.8-12.5"/>
	<path class="st11" d="M57.9,243.2c-0.2-1-0.2-3-1.1-3.7c-0.2-0.6-0.3-1.1-0.5-1.7c-0.4-1.6-0.7-3.3-0.8-5c-0.1-0.9-0.2-1.8-0.3-2.7
		c-0.1-0.8-0.1-1.7-0.1-2.5c0-0.8,0-1.7,0.1-2.5c0.2-2.5,1.2-4.3,2.7-5.6c0.6-0.5,1.2-0.9,1.9-1.2c0.9-0.2,1.7-0.5,2.6-0.8
		c0.8-0.3,1.7-0.6,2.4-1c3.4-2.6,6-5.1,8.5-8.2c0.5-0.6,1-1.3,1.5-1.9c6.5,7.2,13.5,17,10.9,24.5c-0.2,0.7-0.5,1.4-0.9,2
		c-1.4,1.3-2.7,2.5-4.1,3.7c-0.7,0.6-1.3,1.2-2,1.8c-0.5,0.6-1,1.3-1.5,2.1c-0.3,0.9-0.7,1.7-1.2,2.5c-4.2,5.4-11.2,9.4-15.4,2.3
		c-0.4-0.5-0.7-0.9-1-1.3"/>
	<path class="st48" d="M53.9,252.7c-0.8-2.2-4.7-3.7-6.3-5.2c-2.5-2.3-3.7-4.6-3.6-8c0.1-1.9-0.4-4.2,0-6.1
		c1.3-6.4,12.6-8.5,17.9-8.1c7,0.5,16.8,3.7,21.3,9.5c-0.2,0-0.7,0.2-1,0.2c0.2,0.9,0.3,1.9,0.2,2.9c-0.4,2.7-2.2,5.4-3,8.1
		c-0.8,2.6-1.2,5.6-2.3,8.1c-1.5,3.3-5,2.6-7.8,3.9c-1.1,0.5-1.8,1-1.1,2.2c-1.4,0.7-3,0.7-4.5,0.8c-3.3,0.3-6.7,0-10,0.2
		c-3.4,0.2-5.2,1.4-7.6,3.7"/>
	<path class="st48" d="M32,285.4c0,0.3,0.1,0.5,0.4,0.6c1-3.9,4-7.1,6-10.5c4.8-8.1,6.7-17.3,11.2-25.4c1.3-2.3,3.6-4.8,4.3-7.5
		c0.2-0.7,0.1-1.4,0.3-2.1c1.5,0.3,3,0.4,4.4,0.9c3.5,1.1,6.2,4.3,8.8,6.8c-1.6,2.4-1.7,5.1-2.2,8c-1,5.3-1,10.7-2.5,15.8
		c-1.1,3.7-1.5,7.6-1.9,11.4c-0.3,2.3-0.4,4.6-0.3,6.9c0.1,0.8,0.3,2.3,0,3"/>
	<path class="st93" d="M48.7,165.7c0,1.3-0.2,2.5-0.6,3.6c-0.4,1.1-1,2-2,2.8c-0.9,0.8-2.2,1.4-3.9,1.8c-1.6,0.4-3.7,0.6-6.2,0.6
		c-2.5,0-4.6-0.2-6.2-0.6c-1.6-0.4-2.9-1-3.8-1.8c-0.9-0.8-1.6-1.7-1.9-2.8c-0.4-1.1-0.5-2.3-0.5-3.6v-7c0-0.5,0.1-0.9,0.4-1.2
		c0.2-0.2,0.6-0.4,1.2-0.4h6.2c0.5,0,0.9,0.1,1.2,0.4c0.2,0.2,0.4,0.6,0.4,1.2v5.3c0,0.6,0.2,1.1,0.5,1.4c0.4,0.4,1.2,0.6,2.5,0.6
		c1.2,0,2-0.2,2.3-0.6c0.3-0.4,0.5-0.9,0.5-1.4v-19.6c0-0.5,0.1-0.9,0.4-1.2c0.2-0.2,0.6-0.4,1.2-0.4h6.8c0.5,0,0.9,0.1,1.2,0.4
		c0.2,0.2,0.4,0.6,0.4,1.2V165.7z"/>
	<path class="st93" d="M63.2,172.3c0,0.5-0.1,0.9-0.4,1.2c-0.2,0.2-0.6,0.4-1.2,0.4h-6.3c-0.5,0-0.9-0.1-1.2-0.4
		c-0.2-0.2-0.4-0.6-0.4-1.2v-11.4c0-0.9,0.1-1.9,0.4-3c0.3-1.1,0.7-2.4,1.3-3.9l3.7-9.8c0.2-0.5,0.4-0.8,0.8-1.1
		c0.4-0.2,0.8-0.3,1.4-0.3H73c0.5,0,1,0.1,1.4,0.3c0.4,0.2,0.6,0.6,0.8,1.1l3.7,9.8c0.6,1.5,1,2.8,1.3,3.9c0.3,1.1,0.4,2.1,0.4,3
		v11.4c0,0.5-0.1,0.9-0.4,1.2c-0.2,0.2-0.6,0.4-1.2,0.4h-6.5c-0.6,0-1-0.1-1.3-0.4c-0.3-0.2-0.4-0.6-0.4-1.2v-6h-7.6V172.3z
		 M65.7,151.8l-2,6.6h6.8l-2-6.6c-0.1-0.3-0.2-0.4-0.4-0.6c-0.1-0.1-0.3-0.2-0.5-0.2h-1.1c-0.2,0-0.3,0.1-0.5,0.2
		C65.9,151.4,65.8,151.6,65.7,151.8z"/>
	<path class="st91" d="M58.1,271c0,1.3-0.2,2.5-0.6,3.6c-0.4,1.1-1,2-2,2.8c-0.9,0.8-2.2,1.4-3.9,1.8c-1.6,0.4-3.7,0.6-6.2,0.6
		c-2.5,0-4.6-0.2-6.2-0.6c-1.6-0.4-2.9-1-3.8-1.8c-0.9-0.8-1.6-1.7-1.9-2.8c-0.4-1.1-0.5-2.3-0.5-3.6v-7c0-0.5,0.1-0.9,0.4-1.2
		c0.2-0.2,0.6-0.4,1.2-0.4h6.2c0.5,0,0.9,0.1,1.2,0.4c0.2,0.2,0.4,0.6,0.4,1.2v5.3c0,0.6,0.2,1.1,0.5,1.4c0.4,0.4,1.2,0.6,2.5,0.6
		c1.2,0,2-0.2,2.3-0.6c0.3-0.4,0.5-0.9,0.5-1.4v-19.6c0-0.5,0.1-0.9,0.4-1.2c0.2-0.2,0.6-0.4,1.2-0.4h6.8c0.5,0,0.9,0.1,1.2,0.4
		c0.2,0.2,0.4,0.6,0.4,1.2V271z"/>
	<path class="st91" d="M72.6,277.6c0,0.5-0.1,0.9-0.4,1.2c-0.2,0.2-0.6,0.4-1.2,0.4h-6.3c-0.5,0-0.9-0.1-1.2-0.4
		c-0.2-0.2-0.4-0.6-0.4-1.2v-11.4c0-0.9,0.1-1.9,0.4-3c0.3-1.1,0.7-2.4,1.3-3.9l3.7-9.8c0.2-0.5,0.4-0.8,0.8-1.1
		c0.4-0.2,0.8-0.3,1.4-0.3h11.6c0.5,0,1,0.1,1.4,0.3c0.4,0.2,0.6,0.6,0.8,1.1l3.7,9.8c0.6,1.5,1,2.8,1.3,3.9c0.3,1.1,0.4,2.1,0.4,3
		v11.4c0,0.5-0.1,0.9-0.4,1.2c-0.2,0.2-0.6,0.4-1.2,0.4h-6.5c-0.6,0-1-0.1-1.3-0.4c-0.3-0.2-0.4-0.6-0.4-1.2v-6h-7.6V277.6z
		 M75.1,257.1l-2,6.6h6.8l-2-6.6c-0.1-0.3-0.2-0.4-0.4-0.6c-0.1-0.1-0.3-0.2-0.5-0.2h-1.1c-0.2,0-0.3,0.1-0.5,0.2
		C75.3,256.7,75.2,256.9,75.1,257.1z"/>
	<path class="st92" d="M90.5,310.7c0,1.3-0.2,2.5-0.6,3.6c-0.4,1.1-1,2-2,2.8c-0.9,0.8-2.2,1.4-3.9,1.8c-1.6,0.4-3.7,0.6-6.2,0.6
		c-2.5,0-4.6-0.2-6.2-0.6s-2.9-1-3.8-1.8c-0.9-0.8-1.6-1.7-1.9-2.8c-0.4-1.1-0.5-2.3-0.5-3.6v-7c0-0.5,0.1-0.9,0.4-1.2
		c0.2-0.2,0.6-0.4,1.2-0.4h6.2c0.5,0,0.9,0.1,1.2,0.4c0.2,0.2,0.4,0.6,0.4,1.2v5.3c0,0.6,0.2,1.1,0.5,1.4c0.4,0.4,1.2,0.6,2.5,0.6
		c1.2,0,2-0.2,2.3-0.6c0.3-0.4,0.5-0.9,0.5-1.4v-19.6c0-0.5,0.1-0.9,0.4-1.2c0.2-0.2,0.6-0.4,1.2-0.4H89c0.5,0,0.9,0.1,1.2,0.4
		c0.2,0.2,0.4,0.6,0.4,1.2V310.7z"/>
	<path class="st92" d="M105,317.3c0,0.5-0.1,0.9-0.4,1.2c-0.2,0.2-0.6,0.4-1.2,0.4h-6.3c-0.5,0-0.9-0.1-1.2-0.4
		c-0.2-0.2-0.4-0.6-0.4-1.2v-11.4c0-0.9,0.1-1.9,0.4-3c0.3-1.1,0.7-2.4,1.3-3.9l3.7-9.8c0.2-0.5,0.4-0.8,0.8-1.1
		c0.4-0.2,0.8-0.3,1.4-0.3h11.6c0.5,0,1,0.1,1.4,0.3c0.4,0.2,0.6,0.6,0.8,1.1l3.7,9.8c0.6,1.5,1,2.8,1.3,3.9c0.3,1.1,0.4,2.1,0.4,3
		v11.4c0,0.5-0.1,0.9-0.4,1.2c-0.2,0.2-0.6,0.4-1.2,0.4h-6.5c-0.6,0-1-0.1-1.3-0.4c-0.3-0.2-0.4-0.6-0.4-1.2v-6H105V317.3z
		 M107.5,296.9l-2,6.6h6.8l-2-6.6c-0.1-0.3-0.2-0.4-0.4-0.6c-0.1-0.1-0.3-0.2-0.5-0.2h-1.1c-0.2,0-0.3,0.1-0.5,0.2
		C107.7,296.4,107.6,296.6,107.5,296.9z"/>
	<path class="st93" d="M183.2,327.6c0,1.3-0.2,2.5-0.6,3.6c-0.4,1.1-1,2-2,2.8c-0.9,0.8-2.2,1.4-3.9,1.8s-3.7,0.6-6.2,0.6
		c-2.5,0-4.6-0.2-6.2-0.6s-2.9-1-3.8-1.8c-0.9-0.8-1.6-1.7-1.9-2.8c-0.4-1.1-0.5-2.3-0.5-3.6v-7c0-0.5,0.1-0.9,0.4-1.2
		c0.2-0.2,0.6-0.4,1.2-0.4h6.2c0.5,0,0.9,0.1,1.2,0.4c0.2,0.2,0.4,0.6,0.4,1.2v5.3c0,0.6,0.2,1.1,0.5,1.4c0.4,0.4,1.2,0.6,2.5,0.6
		c1.2,0,2-0.2,2.3-0.6c0.3-0.4,0.5-0.9,0.5-1.4v-19.6c0-0.5,0.1-0.9,0.4-1.2c0.2-0.2,0.6-0.4,1.2-0.4h6.8c0.5,0,0.9,0.1,1.2,0.4
		c0.2,0.2,0.4,0.6,0.4,1.2V327.6z"/>
	<path class="st93" d="M197.7,334.2c0,0.5-0.1,0.9-0.4,1.2c-0.2,0.2-0.6,0.4-1.2,0.4h-6.3c-0.5,0-0.9-0.1-1.2-0.4
		c-0.2-0.2-0.4-0.6-0.4-1.2v-11.4c0-0.9,0.1-1.9,0.4-3c0.3-1.1,0.7-2.4,1.3-3.9l3.7-9.8c0.2-0.5,0.4-0.8,0.8-1.1
		c0.4-0.2,0.8-0.3,1.4-0.3h11.6c0.5,0,1,0.1,1.4,0.3c0.4,0.2,0.6,0.6,0.8,1.1l3.7,9.8c0.6,1.5,1,2.8,1.3,3.9c0.3,1.1,0.4,2.1,0.4,3
		v11.4c0,0.5-0.1,0.9-0.4,1.2c-0.2,0.2-0.6,0.4-1.2,0.4H207c-0.6,0-1-0.1-1.3-0.4c-0.3-0.2-0.4-0.6-0.4-1.2v-6h-7.6V334.2z
		 M200.2,313.8l-2,6.6h6.8l-2-6.6c-0.1-0.3-0.2-0.4-0.4-0.6c-0.1-0.1-0.3-0.2-0.5-0.2H201c-0.2,0-0.3,0.1-0.5,0.2
		C200.4,313.3,200.3,313.5,200.2,313.8z"/>
</g>
<g id="Layer_2">
</g>
</svg>
