<svg id="25c826b0-1f4e-437d-a677-f907b809a494" data-name="Layer 1" xmlns="http://www.w3.org/2000/svg" xmlns:xlink="http://www.w3.org/1999/xlink" viewBox="0 0 300 450"><defs><clipPath id="f491e579-995b-4100-b799-2c6497bc44c1"><path d="M249.65,217.68a99.73,99.73,0,0,1-199.47,0c0-55.08-18.24-171.13,112.17-162.62C217.31,58.65,249.65,162.6,249.65,217.68Z" style="fill:none"/></clipPath></defs><title>juego2_ilust</title><circle cx="150" cy="217.41" r="99.73" style="fill:#dcffc5"/><circle cx="149.91" cy="217.68" r="99.73" style="fill:#b27e49"/><g style="clip-path:url(#f491e579-995b-4100-b799-2c6497bc44c1)"><path d="M207.26,268c0-13.15-.33-22.23-10.85-26.72-6.31-2.69-20.54-4.82-28.7-4.45l-32.13,1.47c-9.84.45-25.5,3.34-32.44,8-8.4,5.63-7.11,14-7.11,25.5v90.58a35.8,35.8,0,0,0,3.64,15.8c33.9.86,68.22-1.13,102.33-1.65a38.28,38.28,0,0,0,5.27-19.24Z" style="fill:#f1f3f7"/><path d="M110.62,247.54l3.82,1.31c6.39,1.75,6.26,15.62-.29,30.81l-11.08,30.44L91.6,345.69C88,354,85.78,360.82,81.68,363.93,78.3,366.51,73,366.82,70.13,366l-9.44-2.59c-2.4-.66-6.11-2.88-7-5.54-1.55-4.43,1.18-11,5.27-20.52,0,0,19.12-48.18,14.69-36s7.61-19.74,15.22-35.94S104.23,245.78,110.62,247.54Z" style="fill:#f1f3f7"/><path d="M190.21,241.13l-3.82,1.31c-6.39,1.75-6.26,15.62.29,30.81l11.08,30.44,11.47,35.6c3.58,8.32,5.82,15.13,9.92,18.24,3.39,2.57,8.66,2.88,11.55,2.09l9.44-2.59c2.4-.66,6.11-2.88,7-5.54,1.55-4.43-1.18-11-5.27-20.52,0,0-19.12-48.18-14.69-36S219.59,275.21,212,259,196.6,239.38,190.21,241.13Z" style="fill:#f1f3f7"/><polygon points="151.75 272.46 151.75 237.63 166.78 244.62 151.75 272.46" style="fill:#dcdde0;opacity:0.400000005960465"/><polygon points="151.75 272.46 151.75 237.63 136.72 244.62 151.75 272.46" style="fill:#dcdde0;opacity:0.400000005960465"/><polygon points="162.73 243.22 151.46 237.82 142.44 244.66 148.32 253.71 155.97 253.84 162.73 243.22" style="fill:#0076b7"/><polygon points="151.75 237.63 151.75 238.25 166.22 250.8 172.5 237.78 169.58 232.17 151.75 237.63" style="fill:#fff"/><polygon points="151.75 237.63 151.75 238.25 137.27 250.8 131 237.78 133.92 232.17 151.75 237.63" style="fill:#fff"/><polygon points="166.27 298.33 178.89 304.74 191.89 298.33 191.89 279.25 166.27 279.25 166.27 298.33" style="fill:#fff"/><rect x="166.27" y="271.17" width="25.62" height="5.95" style="fill:#fff"/><path d="M56.93,206.58c0,.27,0,.53,0,.81C56.91,207.13,56.92,206.85,56.93,206.58Z" style="fill:#f7cfa2"/></g><path d="M171.94,232.78a138,138,0,0,0-15.23-19.1l-8.57,6.14a10.31,10.31,0,0,0-2.37,14.35l2.24,3.12a10.31,10.31,0,0,0,14.34,2.37Z" style="fill:#f7cfa2"/><path d="M206.43,163.72l.8-.16Z" style="fill:#f7cfa2"/><path d="M205.76,163.85l.67-.13Z" style="fill:#f7cfa2"/><path d="M203.5,165.35c-.39.78-1,2.46-.58,3.3l4.31-5.09-.8.16-.67.13A2.82,2.82,0,0,0,203.5,165.35Z" style="fill:#f7cfa2"/><circle cx="87.9" cy="162.23" r="16.79" transform="translate(-4.02 2.25) rotate(-1.43)" style="fill:#f7cfa2"/><circle cx="87.9" cy="162.23" r="11.06" transform="translate(-4.02 2.25) rotate(-1.43)" style="fill:#f0ba7a"/><circle cx="224.27" cy="158.82" r="16.79" transform="translate(-3.9 5.65) rotate(-1.43)" style="fill:#f7cfa2"/><circle cx="224.27" cy="158.82" r="11.06" transform="translate(-3.9 5.65) rotate(-1.43)" style="fill:#f0ba7a"/><path d="M224.9,144c7.81-76.76-32.42-55.89-70.67-54.94s-68.62,27.1-67.84,58.4l1,39.76c.78,31.3,47,55.53,70.67,54.94,20.86-.52,68.62-27.1,67.84-58.4C225.72,176.79,224.19,151,224.9,144Z" style="fill:#f7cfa2"/><path d="M200,127.86c-1.7-1.62,1.53-5,1.53-5,9.91-1.91,12,14.63,21.8,9.41,3.27-1.74,1.45-8.33,1.33-13.3,4.22,10.46,6.93,2,12.89-1.12.43-5.51.87-10.12.8-12.8-.93-37.38-33.8-59.75-71.17-58.82-36.46.91-56.22,24.08-56.77,60.22,28.22-10.32,47.63,3.29,66.75,19.88C184.88,126,191.94,128.07,200,127.86Z" style="fill:#601515"/><path d="M150.53,78.9a1.8,1.8,0,0,0-.45-2.57h0A46.77,46.77,0,0,0,83.56,138a1.81,1.81,0,0,0,2.64.6C110.09,121.38,133.21,102.27,150.53,78.9Z" style="fill:#601515"/><path d="M123.17,216.55a202.09,202.09,0,0,1,32.74-15.92c19.35-7.16,42.39-19.32,38.45,20.39a114.79,114.79,0,0,1-34.85,10.47C140.66,233.71,123.17,216.55,123.17,216.55Z" style="fill:#ea6d50"/><path d="M143.89,218c.91,2.58,1.85,5.16,3,7.63a1,1,0,0,0,.62.53,31.94,31.94,0,0,0,10.07,1.15.81.81,0,0,0,.7-1.1c-1.16-2.94-2.48-5.84-3.87-8.72A58.5,58.5,0,0,1,143.89,218Z" style="fill:#fff"/><path d="M155.33,217.32c1.36,2.86,2.65,5.74,3.91,8.66a1.6,1.6,0,0,0,1.68,1c2.23-.31,4.4-.7,6.49-1.15a1.06,1.06,0,0,0,.78-1.36c-1-3-2.11-5.95-3.29-8.9C161.73,216.22,158.54,216.87,155.33,217.32Z" style="fill:#fff"/><path d="M189.11,211.17A85.3,85.3,0,0,0,176,213a53.77,53.77,0,0,1,3,8.59.86.86,0,0,0,1.11.61c4-1.37,6.84-2.6,8-3.11a1.08,1.08,0,0,0,.63-.86A51.6,51.6,0,0,0,189.11,211.17Z" style="fill:#fff"/><path d="M165.76,215.33c1.26,3,2.49,5.92,3.58,9a1.15,1.15,0,0,0,1.35.73c2.33-.58,4.52-1.2,6.51-1.83a1.05,1.05,0,0,0,.71-1.22,57.92,57.92,0,0,0-2.62-8.78C172.12,213.87,168.94,214.62,165.76,215.33Z" style="fill:#fff"/><path d="M130.32,217.37A54,54,0,0,0,144,225a.66.66,0,0,0,.85-.86c-.82-2.07-1.59-4.15-2.28-6.25C138.3,217.62,134.35,217.9,130.32,217.37Z" style="fill:#fff"/><path d="M141.32,211c.74,1.84,1.41,3.73,2.08,5.63a78.24,78.24,0,0,0,10.25-.66c-1.4-2.86-2.86-5.69-4.31-8.53a1,1,0,0,0-1.2-.44c-2.24.92-4.36,1.84-6.32,2.73A1,1,0,0,0,141.32,211Z" style="fill:#fff"/><path d="M156.54,203.8c-1.77.61-3.51,1.25-5.2,1.9a1.54,1.54,0,0,0-.79,2.18q2.13,4,4.05,7.94c3.26-.44,6.5-1,9.74-1.69-1.32-3.26-2.68-6.52-4-9.81a1.81,1.81,0,0,0-2.28-1.06Z" style="fill:#fff"/><path d="M161.18,204.41c1.25,3.24,2.63,6.39,4,9.54,3.21-.66,6.4-1.38,9.59-2.09a63.34,63.34,0,0,0-5.84-11,1.75,1.75,0,0,0-2-.69c-1.48.48-3,1-4.49,1.53A2.08,2.08,0,0,0,161.18,204.41Z" style="fill:#fff"/><path d="M169.78,201.27a78.34,78.34,0,0,1,5.67,10.45c4.53-1,9-1.93,13.55-2.59-1.07-12.17-9-12.57-18.41-10A1.34,1.34,0,0,0,169.78,201.27Z" style="fill:#fff"/><path d="M129.73,215.71a87.11,87.11,0,0,0,12.18.89h.23c-.52-1.69-1-3.4-1.36-5.12a1,1,0,0,0-1.35-.67C134.75,213,131.26,214.86,129.73,215.71Z" style="fill:#fff"/><rect x="145.6" y="141.62" width="20.08" height="41.14" rx="8.58" ry="8.58" transform="translate(-4 3.94) rotate(-1.43)" style="fill:#f0ba7a"/><rect x="143.5" y="137.32" width="20.08" height="41.14" rx="8.58" ry="8.58" transform="translate(-3.9 3.88) rotate(-1.43)" style="fill:#f7cfa2"/><path d="M106.84,105.64s18.14,7.55,26.87,13c12,7.5,37.24,7.84,37.24,7.84s-18.79-24.09-31.07-27.34S106.84,105.64,106.84,105.64Z" style="fill:#601515"/><path d="M98.75,72a92.91,92.91,0,0,1,10.91-.1c5.17.5,13.48-3.47,13.48-3.47s-10.07-4.85-14.62-3.92S98.75,72,98.75,72Z" style="fill:#601515"/><path d="M129.81,49a92.92,92.92,0,0,0-2.21,10.69c-.5,5.17-6,12.56-6,12.56s-2.81-10.82-1-15.1S129.81,49,129.81,49Z" style="fill:#601515"/><path d="M86,121l2.33,58,5.43-5.19,3.42-35.19s8.17-22.9,19.37-27.71,33.51-6.57,33.51-6.57l-18.85-8.84Z" style="fill:#601515;opacity:0.300000011920929"/><path d="M226.3,114.69l-1.83,53.44-4.55,2.55-5.17-35S205.45,113.23,194,109s-33.8-4.89-33.8-4.89l18.39-9.77Z" style="fill:#601515;opacity:0.300000011920929"/><g style="opacity:0.600000023841858"><path d="M156.62,58.21c5,1.49,10.36.13,15.47.46,5,.32,9.52,2.57,14.51,2.81a.7.7,0,0,0,.18-1.36c-4.61-1.1-9.11-3-13.86-3.46-4.94-.45-11.6-.6-16.31,1a.26.26,0,0,0,0,.51Z" style="fill:#f7cfa2"/></g><ellipse cx="106.55" cy="187" rx="2.5" ry="1.25" transform="matrix(1, -0.02, 0.02, 1, -4.64, 2.72)" style="fill:#f0ba7a"/><ellipse cx="116.5" cy="186.75" rx="2.5" ry="1.25" transform="translate(-4.63 2.97) rotate(-1.43)" style="fill:#f0ba7a"/><ellipse cx="111.65" cy="191.85" rx="2.5" ry="1.25" transform="translate(-4.75 2.85) rotate(-1.43)" style="fill:#f0ba7a"/><path d="M140.42,170.52c-3.34,9.13-7.34,20.13-16.6,25.58-1.4,1.17-2.84,2.31-4.29,3.4s-2.94,2.14-4.44,3.14a35,35,0,0,0,3.75-6.12,29.52,29.52,0,0,0,2.26-6.79c-2.5.95-4.76,1.92-7,2.8a45.85,45.85,0,0,1-6.77,2.21l-5.9,2.77,3.86-2.53,5.21-2.38c1.74-.8,3.49-1.6,5.23-2.42,8.34-6.55,20.34-7.55,23.79-19.2" style="fill:#f0ba7a"/><path d="M98.71,161.68c.35,13.92,6.8,25.05,20.72,24.71s22.37-11.85,22-25.77-9.36-25-23.28-24.64S98.37,147.76,98.71,161.68Z" style="fill:#601515;opacity:0.100000001490116"/><circle cx="120.01" cy="162.33" r="21.89" transform="matrix(1, -0.02, 0.02, 1, -4.02, 3.05)" style="fill:#fff"/><circle cx="118.68" cy="165.94" r="6.7" transform="translate(-4.11 3.01) rotate(-1.43)" style="fill:#601515"/><circle cx="118.68" cy="165.94" r="2.6" transform="translate(-4.11 3.01) rotate(-1.43)"/><circle cx="116.92" cy="162.93" r="1.91" transform="translate(-4.03 2.97) rotate(-1.43)" style="fill:#f9f9f9"/><path d="M119.47,140.44a21.87,21.87,0,0,0-18,10.24c13.22,3.14,26.94,4.73,40.23,8.69A21.89,21.89,0,0,0,119.47,140.44Z" style="fill:#f7cfa2"/><rect x="105.56" y="132.08" width="44.7" height="15.1" rx="7.55" ry="7.55" transform="translate(185.88 319.89) rotate(-155.33)" style="fill:#5b1010"/><path d="M121.48,176.29c.31,1.53-2.25,1.39-2.76,2.42-.21.44-.07.35-.06.79l0,0q.66.57.08,1.53c-.14.26-.53.47-.69.71-.56.83,0,1.68-.47,2.56-.07.14.14.27.21.13.43-.85,0,0,.25-.9a2.35,2.35,0,0,1,.52-2,2.11,2.11,0,0,0,.36-.37,2.22,2.22,0,0,0,.32-1.31c.16-1.72-.11-1.4,1-1.93a3.23,3.23,0,0,0,1.12-.66.81.81,0,0,0,.17-1s-.06,0-.06,0Z" style="fill:#ea6d50"/><path d="M118.19,176a1.1,1.1,0,0,0-.47,1.21,9.32,9.32,0,0,0,.74,2.19c.08.19.4.05.33-.14-.31-.89-1.43-2.28-.49-3.12a.08.08,0,0,0-.1-.13Z" style="fill:#ea6d50"/><path d="M107.44,164.26c-.39.81-.91,1.56-1.34,2.36a15,15,0,0,1-.55,1.4c-1,1.34-2.33.21-3.42,1a3.46,3.46,0,0,0-1,2.22c0,.55.24.67-.25,1.06-.28.23-.56.18-.83.52-.13.16.08.39.23.23.47-.47,1.1-.33,1.43-.89.22-.37-.11-1.28,0-1.65.26-1.32,1.4-1.37,2.52-1.36a1.47,1.47,0,0,0,1.52-.66c.38-.57.47-1.55.83-2.22a19,19,0,0,0,.94-2s-.05-.07-.07,0Z" style="fill:#ea6d50"/><path d="M108.65,166.36h0a0,0,0,0,0,0,0Z" style="fill:#ea6d50"/><path d="M108.5,166.92a4.43,4.43,0,0,1-1.31,1.44,4.15,4.15,0,0,1-1.89.38.13.13,0,0,0,0,.25,3,3,0,0,0,3.29-2.06,0,0,0,0,0-.06,0Z" style="fill:#ea6d50"/><path d="M101.6,171.16c.77,0,1.22.69,2,.71,1,0,1.37-1.21,2.57-.5.44.26.6.77,1.16,1a2.42,2.42,0,0,0,1.56,0c.08,0,.07-.16,0-.15a2.71,2.71,0,0,1-2.06-.46c-.31-.23-.46-.58-.75-.8s-.5-.19-1-.16c-.15,0-.32.18-.46.22-1.95.55-1.12.45-2.1,0-.39-.2-.58-.28-.94,0a.09.09,0,0,0,0,.17Z" style="fill:#ea6d50"/><path d="M107.91,171a1.25,1.25,0,0,0-1.15,1.15.05.05,0,0,0,.11,0,1.28,1.28,0,0,1,1.06-1.06c.06,0,0-.11,0-.11Z" style="fill:#ea6d50"/><path d="M133,161.66c.47,1.1,1.19,4.24,3.11,3.21.57-.3.35-.52,1.16-.56,1,0,1.39.78,2,1.45a1.72,1.72,0,0,0,1.86.66.18.18,0,0,0-.09-.34c-1.9.53-2.16-2.61-3.93-2.38-.93.12-1,1.23-2.21.93s-1.42-2-1.85-3c0-.06-.12,0-.09.05Z" style="fill:#ea6d50"/><path d="M128.46,166a6,6,0,0,1,3.73-1.07c.86.07,1.65.41,2.42-.12.11-.08,0-.25-.1-.18-1.13.73-2.53-.1-3.79.11a4.1,4.1,0,0,0-2.3,1.19s0,.09.05.07Z" style="fill:#ea6d50"/><path d="M132.17,160.95l-1.68-1.68h0l1.68,1.68Z" style="fill:#ea6d50"/><path d="M132.91,161.33a.64.64,0,0,1,.28-1,.09.09,0,0,0,.05-.13,3.82,3.82,0,0,0-1.69-1.94,0,0,0,0,0,0,.08,3.66,3.66,0,0,1,1.29,1.26c.06.11.27.48.23.56s-.24.11-.29.15a.61.61,0,0,0,.16,1Z" style="fill:#ea6d50"/><path d="M98.52,161.58c.89.11,1.17.77,2,0,.48-.47.75-1.08,1.33-1.48a3.71,3.71,0,0,1,2.85-.52c.08,0,.11-.1,0-.12a4.09,4.09,0,0,0-3.12.56,9.64,9.64,0,0,0-1.1,1.09c-.68.6-1.26.17-2,.28-.11,0-.07.16,0,.17Z" style="fill:#ea6d50"/><path d="M112.66,175.55a2.12,2.12,0,0,0-1,2.46c.14.82.31.93-.06,1.77s-.34.71-1.16,1.09a2.32,2.32,0,0,0-1,.77c-.09.13.1.25.21.16.72-.62,2.29-.84,2.61-1.85a1.65,1.65,0,0,0-.08-.95c-.22-.83-.57-1-.34-2a2.35,2.35,0,0,1,.87-1.36s0-.06,0,0Z" style="fill:#ea6d50"/><path d="M137,172.69c.14-.71.32-1.54-.41-2a.86.86,0,0,0-.78-.08c-.27.09-.49.28-.78.24a1.07,1.07,0,0,1-.82-.79c0-.06-.12-.05-.11,0a1,1,0,0,0,.92.92,1.81,1.81,0,0,0,.76-.12c1.14-.3,1.25,1,1.12,1.78,0,.06.09.09.1,0Z" style="fill:#ea6d50"/><path d="M132.14,175.31a3.8,3.8,0,0,0,.3,1.31,2,2,0,0,0,.44.79c.06.06.14,0,.09-.09-.49-.54-.35-1.43-.72-2a.06.06,0,0,0-.1,0Z" style="fill:#ea6d50"/><path d="M101.86,160.43a8.74,8.74,0,0,0,1.38.8.05.05,0,0,0,.06-.08l-.43-.42a0,0,0,0,0-.07.07l.42.43.06-.08a8.78,8.78,0,0,0-1.36-.83.07.07,0,0,0-.07.12Z" style="fill:#ea6d50"/><path d="M106.17,164.3a1,1,0,0,0-.15.64c.1.45.49.63.34,1.17a0,0,0,0,0,.09,0,1,1,0,0,0,0-.58c-.15-.45-.5-.65-.19-1.2,0-.06-.07-.12-.1-.06Z" style="fill:#ea6d50"/><path d="M105.44,158.19c-.51-.11-1.15-.35-1.57.07-.22.23-.17.46-.42.71a10.94,10.94,0,0,1-1.32.84,0,0,0,0,0,0,.08,3.43,3.43,0,0,0,1.47-1c.08-.12.06-.22.12-.34.36-.68,1-.39,1.64-.28.07,0,.1-.09,0-.11Z" style="fill:#ea6d50"/><ellipse cx="204.48" cy="178" rx="1.25" ry="2.5" transform="translate(21.43 377.97) rotate(-88.57)" style="fill:#f0ba7a"/><ellipse cx="194.53" cy="177.75" rx="1.25" ry="2.5" transform="translate(11.98 367.79) rotate(-88.57)" style="fill:#f0ba7a"/><ellipse cx="199.38" cy="182.85" rx="1.25" ry="2.5" transform="translate(11.61 377.6) rotate(-88.57)" style="fill:#f0ba7a"/><path d="M170.61,161.52c3.34,9.13,7.34,20.13,16.6,25.58,1.4,1.17,2.84,2.31,4.29,3.4s2.94,2.14,4.44,3.14a35,35,0,0,1-3.75-6.12,29.52,29.52,0,0,1-2.26-6.79c2.5.95,4.76,1.92,7,2.8a45.85,45.85,0,0,0,6.77,2.21l5.9,2.77L205.72,186l-5.21-2.38c-1.74-.8-3.49-1.6-5.23-2.42-8.34-6.55-20.34-7.55-23.79-19.2" style="fill:#f0ba7a"/><path d="M212.32,152.68c-.35,13.92-6.8,25.05-20.72,24.71s-22.37-11.85-22-25.77,9.36-25,23.28-24.64S212.66,138.76,212.32,152.68Z" style="fill:#601515;opacity:0.100000001490116"/><circle cx="191.02" cy="153.33" r="21.89" transform="translate(32.97 340.46) rotate(-88.57)" style="fill:#fff"/><circle cx="192.35" cy="156.94" r="6.7" transform="translate(30.66 345.31) rotate(-88.57)" style="fill:#601515"/><circle cx="192.35" cy="156.94" r="2.6" transform="translate(30.66 345.31) rotate(-88.57)"/><circle cx="194.11" cy="153.93" r="1.91" transform="translate(35.38 344.14) rotate(-88.57)" style="fill:#f9f9f9"/><path d="M191.56,131.44a21.87,21.87,0,0,1,18,10.24c-13.22,3.14-26.94,4.73-40.23,8.69A21.89,21.89,0,0,1,191.56,131.44Z" style="fill:#f7cfa2"/><rect x="160.77" y="123.08" width="44.7" height="15.1" rx="7.55" ry="7.55" transform="matrix(0.91, -0.42, 0.42, 0.91, -37.81, 88.34)" style="fill:#5b1010"/><path d="M189.5,167.27a.81.81,0,0,0,.17,1,3.23,3.23,0,0,0,1.12.66c1.08.53.8.21,1,1.93a2.22,2.22,0,0,0,.32,1.31,2.11,2.11,0,0,0,.36.37,2.35,2.35,0,0,1,.52,2c.24.89-.18,0,.25.9.07.14.28,0,.21-.13-.43-.88.08-1.72-.47-2.56-.18-.27-.53-.44-.69-.71-1.8-3,.1-.5.1-1.57,0-.41.13-.4-.06-.79-.5-1-3.06-.89-2.76-2.42,0,0,0-.06-.06,0Z" style="fill:#ea6d50"/><path d="M192.74,167.13c.93.84-.18,2.23-.49,3.12-.07.19.25.33.33.14a9.32,9.32,0,0,0,.74-2.19,1.1,1.1,0,0,0-.47-1.21.08.08,0,0,0-.1.13Z" style="fill:#ea6d50"/><path d="M203.52,155.29a16.07,16.07,0,0,0,.81,1.74c.18.32.37.62.52,1s.23,1.17.44,1.49a1.45,1.45,0,0,0,1.52.67c1,0,2.15,0,2.45,1.13.15.58-.12,1.21,0,1.74.21.76.85.45,1.43,1,.15.15.36-.07.23-.23-.27-.34-.54-.29-.83-.52-.46-.37-.21-.5-.25-1a3.47,3.47,0,0,0-1-2.24c-1.1-.75-2.42.38-3.42-1a14,14,0,0,1-.56-1.42c-.42-.8-.94-1.55-1.34-2.36,0,0-.08,0-.07,0Z" style="fill:#ea6d50"/><path d="M202.38,157.36a0,0,0,0,0,0,0Z" style="fill:#ea6d50"/><path d="M202.47,157.94a3,3,0,0,0,3.29,2.06.13.13,0,0,0,0-.25,4.15,4.15,0,0,1-1.89-.38,4.42,4.42,0,0,1-1.31-1.44,0,0,0,0,0-.06,0Z" style="fill:#ea6d50"/><path d="M209.48,162c-.33-.25-.41-.2-.8-.05-1.2.45,0,.74-2.24.11-.15,0-.3-.21-.46-.22-.49,0-.4-.2-.87.06-.23.13-.35.51-.53.69a2.77,2.77,0,0,1-2.36.66c-.09,0-.1.13,0,.15a2.44,2.44,0,0,0,1.54,0c.63-.24.7-.66,1.17-1,1.07-.77,1.66.52,2.55.5s1.19-.71,2-.71a.09.09,0,0,0,0-.17Z" style="fill:#ea6d50"/><path d="M203.11,162.1a1.28,1.28,0,0,1,1.06,1.06.05.05,0,0,0,.11,0,1.25,1.25,0,0,0-1.15-1.15c-.06,0-.07.1,0,.11Z" style="fill:#ea6d50"/><path d="M178,152.61c-.42,1-.67,2.74-1.85,3s-1.28-.8-2.21-.93c-1.77-.25-2,2.91-3.93,2.38a.18.18,0,0,0-.09.34,1.63,1.63,0,0,0,1.7-.49c.54-.49.91-1.36,1.57-1.66s1.22.3,1.78.6c1.93,1,2.64-2.13,3.11-3.21,0-.06-.07-.12-.09-.05Z" style="fill:#ea6d50"/><path d="M182.62,156.95a4.1,4.1,0,0,0-2.3-1.19c-1.26-.21-2.66.62-3.79-.11-.11-.07-.21.1-.1.18.77.54,1.55.19,2.42.12a6.06,6.06,0,0,1,3.73,1.07,0,0,0,0,0,.05-.07Z" style="fill:#ea6d50"/><path d="M178.87,152l1.68-1.68h0l-1.68,1.68Z" style="fill:#ea6d50"/><path d="M178.12,152.34a.61.61,0,0,0,.16-1c-.05-.05-.2-.09-.24-.14s0,.28,0-.13a1.15,1.15,0,0,1,.17-.36,3.59,3.59,0,0,1,1.33-1.34,0,0,0,0,0,0-.08,3.82,3.82,0,0,0-1.69,1.94.09.09,0,0,0,.05.13.63.63,0,0,1,.28,1Z" style="fill:#ea6d50"/><path d="M212.53,152.41c-.57-.09-1.2.27-1.78,0s-.82-1-1.3-1.35a4.09,4.09,0,0,0-3.12-.56c-.08,0,0,.13,0,.12a3.67,3.67,0,0,1,2.7.43c.68.42.94,1,1.47,1.57.79.77,1.06.11,2,0,.09,0,.13-.16,0-.17Z" style="fill:#ea6d50"/><path d="M198.34,166.59a2.25,2.25,0,0,1,.87,1.36,4.5,4.5,0,0,1-.33,2,1.52,1.52,0,0,0-.08,1c.33,1,1.88,1.23,2.61,1.85.1.09.3,0,.21-.16a2.35,2.35,0,0,0-1-.76,4.09,4.09,0,0,1-.86-.38c-1.06-.88-.53-1.56-.38-2.49a2.12,2.12,0,0,0-1-2.46s-.06,0,0,0Z" style="fill:#ea6d50"/><path d="M174.1,163.66a3.56,3.56,0,0,1,0-.92,1.11,1.11,0,0,1,.29-.71.68.68,0,0,1,.86-.15,2,2,0,0,0,.76.12,1,1,0,0,0,.92-.92c0-.06-.09-.07-.11,0a1.14,1.14,0,0,1-.69.77c-.34.12-.6-.11-.9-.22a.86.86,0,0,0-.8.08c-.73.46-.55,1.29-.41,2,0,.07.11,0,.1,0Z" style="fill:#ea6d50"/><path d="M178.78,166.29c-.38.62-.23,1.5-.72,2-.05.06,0,.14.09.09a2,2,0,0,0,.44-.79,3.8,3.8,0,0,0,.3-1.31.06.06,0,0,0-.1,0Z" style="fill:#ea6d50"/><path d="M209.1,151.31a8.75,8.75,0,0,0-1.36.83l.06.08.42-.43a0,0,0,0,0-.07-.07l-.43.42a.05.05,0,0,0,.06.08,8.77,8.77,0,0,0,1.38-.8.07.07,0,0,0-.07-.12Z" style="fill:#ea6d50"/><path d="M204.77,155.35c.38.67-.36,1.1-.19,1.78a0,0,0,0,0,.09,0c-.15-.54.24-.72.34-1.17a1,1,0,0,0-.15-.64c0-.06-.13,0-.1.06Z" style="fill:#ea6d50"/><path d="M205.62,149.3c.48-.09,1.13-.36,1.48.07a4.53,4.53,0,0,1,.29.55,3.39,3.39,0,0,0,1.47,1,0,0,0,0,0,0-.08,10.45,10.45,0,0,1-1.32-.84c-.2-.21-.21-.5-.42-.71-.41-.43-1.07-.18-1.57-.07-.07,0,0,.12,0,.11Z" style="fill:#ea6d50"/><path d="M119.05,173.92c-8.26-3-6.56,4.64-11.09-.41a4.91,4.91,0,0,0-5.68-2.58,21.41,21.41,0,0,0,40.16-.06C136.58,166.78,127.31,176.91,119.05,173.92Z" style="fill:#7bcddb;opacity:0.7000000000000001"/><path d="M203,164.76c-6.9-6.11-10,1.81-15.07,1.31-2-.2-2.8-5.88-5.93-3.31-4.63,3.81-5.68,3.28-9.36,2.29a21.43,21.43,0,0,0,39.69-2.86c-1.49-.63-3.15-1.82-4.34-1.43C205.87,161.47,205.69,167.15,203,164.76Z" style="fill:#7bcddb;opacity:0.7000000000000001"/><path d="M88.17,205.9c0,.23,0,.45,0,.68Q88.18,206.23,88.17,205.9Z" style="fill:#f7cfa2"/><path d="M88.17,205.9c0,.23,0,.45,0,.68Q88.18,206.23,88.17,205.9Z" style="fill:#f7cfa2"/><path d="M82.2,226.56c1.54,1.73,2.82,3.09,4.15,4.45,20.93,12,32.93,32,33.66,55.72a19.92,19.92,0,0,1-.51,6.09c-1.4,5.72-5.34,10.08-13.21,11.21h-11c-3-1-6-1-9-3-5-4-10-7-14.06-10.86q-2.25-1.95-4.48-4A241.58,241.58,0,0,1,43.3,260.93c-1.67-2.55-2.13-6.62-2.45-9.32a14.49,14.49,0,0,1,.93-4.9C49.29,235,61.29,222,77.15,222.86,79.7,224,80.13,224.17,82.2,226.56Z" style="fill:#f1f3f7"/><path d="M86,231c15.27,14,34.27,32,56.27,21-11,4-21,10-32,13-2-13-13-22-21.65-30.37A19.87,19.87,0,0,1,86,231Z" style="fill:#fff"/><path d="M42.32,247.17c-4-6.15-7-13.15-10-20.15,14-3,29-5,39-16,10,13,5,25-10,30-4,1-9,3-13,4.44Q45.25,246.43,42.32,247.17Z" style="fill:#fff"/><path d="M30.23,187.87c27.27.34,57.27-11.66,79.27,10.34h-12c-8,24-36,44-59.79,47" style="fill:#f7cfa2"/><path d="M40.51,192c5,.19,9,.19,11,2.19a30,30,0,0,1,3.73,8.92c-.29,3.85-.53,8-.54,12.26-1.19,18.82,8.81,48.82,32.81,42.82-2,24-38,18-54,10-6-6-12-14-14-22,0-8-2-18,1.4-26.58a44.44,44.44,0,0,1,4.48-9.25A45.48,45.48,0,0,1,32,202.2C33.56,197.89,35.55,194.15,40.51,192Z" style="fill:#f0ba7a"/><path d="M115.54,273.64h0c0,5.43-9.83,10.95-14.57,10.9l-25.16-1.38c-4.74,0-11-3.22-11-8.65l-.08-1.63c0-5.43,6.27-9.52,11-9.48l27-5.59C107.5,257.85,115.52,268.2,115.54,273.64Z" style="fill:#f0ba7a"/><path d="M127,218.2c14.49,18,4.49,46-11.51,60a18.17,18.17,0,0,1-20,0c8-4,2-12,4-16,4-16,4-36,21.88-45.46C123.67,216,125.74,216.35,127,218.2Z" style="fill:#f0ba7a"/><rect x="17.97" y="174.37" width="40.16" height="98.36" rx="20.08" ry="20.08" transform="translate(76.09 447.1) rotate(-180)" style="fill:#f0ba7a"/><path d="M106,272.73h0a20.14,20.14,0,0,0,20.08-20.08l-2.4-58.38c0-11-8-19.77-19.07-19.77l-4.9-.36c-11,0-20,6.83-20,17.88L86,252.65A20.14,20.14,0,0,0,106,272.73Z" style="fill:#f0ba7a"/><path d="M72,266.73h.79A19.74,19.74,0,0,0,92.43,247V210.31c0-2.29,0-4.49,0-6.52a28.11,28.11,0,0,0,.57-5.4,32.39,32.39,0,0,0-.44-5.65,19.93,19.93,0,0,0-15.3-18.42,16,16,0,0,0-4.95-.3c-19,0-24.82,19.89-23.84,34.17,0,1.32,3.81,5.79,3.81,7.15V247A19.74,19.74,0,0,0,72,266.73Z" style="fill:#f0ba7a"/><path d="M100.65,269.73h.79A19.74,19.74,0,0,0,121.13,250V206.79c0-2.32,0-4.41,0-6.18-.37-6-.46-11.61-3.77-16.22a24,24,0,0,0-3.84-4.18,19,19,0,0,0-15.17-5.41,20.55,20.55,0,0,0-5.26,1.13C79.29,180,79.29,196,81,206.79c0,2.32,0,4.85,0,7.5V250A19.74,19.74,0,0,0,100.65,269.73Z" style="fill:#f7cfa2"/><path d="M32.65,269.73h.79A19.74,19.74,0,0,0,53.13,250V214.3C55.29,200,56.29,180,38.29,176a25.74,25.74,0,0,0-5-.5c-18.69,1.67-19.14,18.23-18.94,35.15,0,2.12.06,4.24.08,6.33a44,44,0,0,1,.28,5.8C15.29,238,10.29,261,27.49,269A18.91,18.91,0,0,0,32.65,269.73Z" style="fill:#f7cfa2"/><path d="M69,269.73h.79A19.74,19.74,0,0,0,89.43,250V213.31c0-2.29,0-4.49,0-6.52a28.11,28.11,0,0,0,.57-5.4,32.39,32.39,0,0,0-.44-5.65,19.93,19.93,0,0,0-15.3-18.42,16,16,0,0,0-4.95-.3c-19,0-21,23-20,37.28V250A19.74,19.74,0,0,0,69,269.73Z" style="fill:#f7cfa2"/><line x1="84.96" y1="266.07" x2="83.92" y2="205.61" style="fill:none;stroke:#f0ba7a;stroke-miterlimit:10;stroke-width:3px"/><line x1="50.96" y1="266.07" x2="49.92" y2="205.61" style="fill:none;stroke:#f0ba7a;stroke-miterlimit:10;stroke-width:3px"/><polygon points="166.27 330.98 153.65 345.02 138.99 332.6 148.32 253.71 155.97 253.84 166.27 330.98" style="fill:#0076b7"/></svg>