<?xml version="1.0" encoding="utf-8"?>
<!-- Generator: Adobe Illustrator 21.1.0, SVG Export Plug-In . SVG Version: 6.00 Build 0)  -->
<svg version="1.1" xmlns="http://www.w3.org/2000/svg" xmlns:xlink="http://www.w3.org/1999/xlink" x="0px" y="0px"
	 viewBox="0 0 300 450" style="enable-background:new 0 0 300 450;" xml:space="preserve">
<style type="text/css">
	.st0{fill:#B27E49;}
	.st1{fill:#ECB8FF;}
	.st2{display:none;opacity:0.3;}
	.st3{fill:#F4E44A;}
	.st4{clip-path:url(#SVGID_2_);fill:#F1F3F7;}
	.st5{opacity:0.4;clip-path:url(#SVGID_2_);fill:#DCDDE0;}
	.st6{clip-path:url(#SVGID_2_);fill:#0076B7;}
	.st7{clip-path:url(#SVGID_2_);fill:#FFFFFF;}
	.st8{clip-path:url(#SVGID_2_);}
	.st9{fill:#FFFFFF;}
	.st10{clip-path:url(#SVGID_2_);fill:#F7CFA2;}
	.st11{fill:#F7CFA2;}
	.st12{fill:#F0BA7A;}
	.st13{fill:#601515;}
	.st14{fill:url(#SVGID_3_);}
	.st15{opacity:0.1;fill:#601515;}
	.st16{fill:#F9F9F9;}
	.st17{fill:url(#SVGID_4_);}
	.st18{fill:url(#SVGID_5_);}
	.st19{fill:url(#SVGID_6_);}
	.st20{fill:#EA6D50;}
	.st21{opacity:0.3;fill:#601515;}
	.st22{fill:#5B1010;}
	.st23{opacity:0.6;}
	.st24{fill:#A52323;}
	.st25{opacity:0.2;}
	.st26{fill:url(#SVGID_7_);}
	.st27{fill:#CE6117;}
	.st28{fill:url(#SVGID_8_);}
	.st29{fill:#8454D1;}
	.st30{clip-path:url(#SVGID_10_);fill:#393D47;}
	.st31{clip-path:url(#SVGID_10_);fill:#F0BA7A;}
	.st32{clip-path:url(#SVGID_10_);fill:#F1F3F7;}
	.st33{clip-path:url(#SVGID_10_);fill:#0076B7;}
	.st34{clip-path:url(#SVGID_10_);fill:#004868;}
	.st35{opacity:0.4;clip-path:url(#SVGID_10_);fill:#DCDDE0;}
	.st36{clip-path:url(#SVGID_10_);fill:#FFFFFF;}
	.st37{clip-path:url(#SVGID_10_);}
	.st38{fill:#393D47;}
	.st39{fill:url(#SVGID_11_);}
	.st40{fill:#EAA56C;}
	.st41{clip-path:url(#SVGID_13_);fill:#F1F3F7;}
	.st42{clip-path:url(#SVGID_13_);fill:#F0BA7A;}
	.st43{opacity:0.4;clip-path:url(#SVGID_13_);fill:#DCDDE0;}
	.st44{clip-path:url(#SVGID_13_);fill:#0076B7;}
	.st45{clip-path:url(#SVGID_13_);fill:#FFFFFF;}
	.st46{clip-path:url(#SVGID_13_);}
	.st47{clip-path:url(#SVGID_13_);fill:#F7CFA2;}
	.st48{fill:#F1F3F7;}
	.st49{fill:none;}
	.st50{fill:#A85848;}
	.st51{fill:#E85646;}
	.st52{fill:#EA4E39;}
	.st53{fill:#DCFFC5;}
	.st54{fill:#8BAA77;}
	.st55{clip-path:url(#SVGID_15_);fill:#F1F3F7;}
	.st56{opacity:0.4;clip-path:url(#SVGID_15_);fill:#DCDDE0;}
	.st57{clip-path:url(#SVGID_15_);fill:#0076B7;}
	.st58{clip-path:url(#SVGID_15_);fill:#FFFFFF;}
	.st59{clip-path:url(#SVGID_15_);}
	.st60{fill:#595959;}
	.st61{opacity:0.3;fill:#595959;}
	.st62{clip-path:url(#SVGID_27_);fill:#F1F3F7;}
	.st63{opacity:0.4;clip-path:url(#SVGID_27_);fill:#DCDDE0;}
	.st64{clip-path:url(#SVGID_27_);fill:#0076B7;}
	.st65{clip-path:url(#SVGID_27_);fill:#FFFFFF;}
	.st66{clip-path:url(#SVGID_27_);}
	.st67{clip-path:url(#SVGID_27_);fill:#F7CFA2;}
	.st68{opacity:0.7;fill:#7BCDDB;}
	.st69{fill:none;stroke:#F0BA7A;stroke-width:3;stroke-miterlimit:10;}
	.st70{clip-path:url(#SVGID_41_);fill:#F1F3F7;}
	.st71{opacity:0.4;clip-path:url(#SVGID_41_);fill:#DCDDE0;}
	.st72{clip-path:url(#SVGID_41_);fill:#0076B7;}
	.st73{clip-path:url(#SVGID_41_);fill:#FFFFFF;}
	.st74{clip-path:url(#SVGID_41_);}
	.st75{clip-path:url(#SVGID_41_);fill:#F7CFA2;}
	.st76{fill:#9E9E9E;}
	.st77{fill:#878787;}
	.st78{fill:#DDBD00;}
	.st79{clip-path:url(#SVGID_43_);fill:#F1F3F7;}
	.st80{opacity:0.4;clip-path:url(#SVGID_43_);fill:#DCDDE0;}
	.st81{clip-path:url(#SVGID_43_);fill:#0076B7;}
	.st82{clip-path:url(#SVGID_43_);fill:#FFFFFF;}
	.st83{clip-path:url(#SVGID_43_);}
	.st84{clip-path:url(#SVGID_43_);fill:#F7CFA2;}
	.st85{clip-path:url(#SVGID_45_);}
	.st86{opacity:0.4;fill:#DCDDE0;}
	.st87{fill:#0076B7;}
	.st88{opacity:0.3;}
	.st89{fill:#DCDDE0;}
	.st90{fill:#004868;}
	.st91{fill:#E02B41;}
	.st92{fill:#C69018;}
	.st93{fill:#EFE91B;}
	.st94{fill:#656D60;}
	.st95{clip-path:url(#SVGID_47_);fill:#F0BA7A;}
	.st96{clip-path:url(#SVGID_47_);fill:#F1F3F7;}
	.st97{opacity:0.4;clip-path:url(#SVGID_47_);fill:#DCDDE0;}
	.st98{clip-path:url(#SVGID_47_);fill:#0076B7;}
	.st99{clip-path:url(#SVGID_47_);fill:#FFFFFF;}
	.st100{clip-path:url(#SVGID_47_);}
	.st101{clip-path:url(#SVGID_47_);fill:#F7CFA2;}
	.st102{clip-path:url(#SVGID_49_);fill:#F1F3F7;}
	.st103{clip-path:url(#SVGID_49_);}
	.st104{fill:#B23C18;}
	.st105{fill:#6B2A05;}
	.st106{fill:#B23C18;stroke:#6B2A05;stroke-miterlimit:10;}
	.st107{fill:#DDAA78;}
	.st108{fill:#211205;}
	.st109{fill:none;stroke:#6B2A05;stroke-width:0.729;stroke-miterlimit:10;}
	.st110{fill:#B23C18;stroke:#6B2A05;stroke-width:0.729;stroke-miterlimit:10;}
	.st111{fill:#B72C34;}
	.st112{clip-path:url(#SVGID_51_);fill:#F1F3F7;}
	.st113{clip-path:url(#SVGID_51_);}
	.st114{clip-path:url(#SVGID_51_);fill:#F7CFA2;}
	.st115{fill:#F2C85F;}
	.st116{clip-path:url(#SVGID_53_);fill:#F0BA7A;}
	.st117{clip-path:url(#SVGID_53_);fill:#F1F3F7;}
	.st118{opacity:0.4;clip-path:url(#SVGID_53_);fill:#DCDDE0;}
	.st119{clip-path:url(#SVGID_53_);fill:#0076B7;}
	.st120{clip-path:url(#SVGID_53_);fill:#FFFFFF;}
	.st121{clip-path:url(#SVGID_53_);}
	.st122{clip-path:url(#SVGID_53_);fill:#F7CFA2;}
	.st123{clip-path:url(#SVGID_55_);}
	.st124{fill:#F4F0A6;}
	.st125{fill:#9E921E;}
	.st126{clip-path:url(#SVGID_57_);fill:#F0BA7A;}
	.st127{clip-path:url(#SVGID_57_);fill:#F1F3F7;}
	.st128{clip-path:url(#SVGID_57_);}
	.st129{clip-path:url(#SVGID_57_);fill:#393D47;}
	.st130{clip-path:url(#SVGID_57_);fill:#FFFFFF;}
	.st131{opacity:0.4;clip-path:url(#SVGID_57_);fill:#DCDDE0;}
	.st132{clip-path:url(#SVGID_57_);fill:#0076B7;}
	.st133{fill:#1F74C9;}
	.st134{clip-path:url(#SVGID_59_);}
	.st135{fill:#023142;}
	.st136{clip-path:url(#SVGID_61_);fill:#F7CFA2;}
	.st137{clip-path:url(#SVGID_61_);}
	.st138{opacity:0.3;fill:#E57257;}
	.st139{fill:#777777;}
	.st140{clip-path:url(#SVGID_63_);fill:#F1F3F7;}
	.st141{opacity:0.4;clip-path:url(#SVGID_63_);fill:#DCDDE0;}
	.st142{clip-path:url(#SVGID_63_);fill:#0076B7;}
	.st143{clip-path:url(#SVGID_63_);fill:#FFFFFF;}
	.st144{clip-path:url(#SVGID_63_);}
	.st145{clip-path:url(#SVGID_63_);fill:#F7CFA2;}
	.st146{clip-path:url(#SVGID_65_);fill:#F0BA7A;}
	.st147{clip-path:url(#SVGID_65_);fill:#F1F3F7;}
	.st148{opacity:0.4;clip-path:url(#SVGID_65_);fill:#DCDDE0;}
	.st149{clip-path:url(#SVGID_65_);fill:#0076B7;}
	.st150{clip-path:url(#SVGID_65_);fill:#FFFFFF;}
	.st151{clip-path:url(#SVGID_65_);}
	.st152{clip-path:url(#SVGID_65_);fill:#F7CFA2;}
</style>
<g id="Layer_1">
	<g>
		<circle class="st40" cx="147.8" cy="218.2" r="99.7"/>
		<g>
			<defs>
				<path id="SVGID_12_" d="M247.5,218.2c0,55.1-44.7,99.7-99.7,99.7S48,273.3,48,218.2S29.8,47.1,160.2,55.6
					C215.2,59.2,247.5,163.1,247.5,218.2z"/>
			</defs>
			<clipPath id="SVGID_2_">
				<use xlink:href="#SVGID_12_"  style="overflow:visible;"/>
			</clipPath>
			<path class="st4" d="M197.9,262.9c-0.3-3.3-0.6-6.3-1.1-9c-0.5-2.7-1.1-5.2-2-7.4c-1.1-1.4-2.4-2.8-3.7-4
				c-1.9-1.6-3.8-3.1-5.8-4.4c-2-1.4-4-2.6-6.1-3.8c-12.2-6.5-26.2-9.8-39.9-9.2c-3.4,0.1-6.8,0.5-10.2,1.2
				c-19.6,4.1-56.6,3.1-53.6,31.1c2,11,7,21,12.8,29.7c0.5,2.9,0.8,6.3,1.2,10.1c2.6,26.5,6.9,70.7,6.9,70.7
				c0.6,5.7,2.4,10.9,5.2,15.4c33.8-2.5,67.8-7.8,101.7-11.6c2.8-6.1,4-12.8,3.4-19.7L197.9,262.9z"/>
			<path style="clip-path:url(#SVGID_2_);fill:#F0BA7A;" d="M156.9,225.1c-1.7-11,2.2-23.2-4.8-32.7c-1.7-2.3-3.5-3.6-6.5-4
				c-16.8-2.6-23,17.7-24.4,30.8c-0.2,2.3-0.2,4.5-0.1,6.5c0,0.4,0,0.9,0,1.3C133,230.2,145.5,230.3,156.9,225.1z"/>
			<path class="st4" d="M178.3,237.8l-3.7,1.7c-6.2,2.4-4.7,16.2,3.3,30.6l14,29.2l14.9,34.3c4.4,7.9,7.3,14.5,11.6,17.2
				c3.6,2.2,8.9,2,11.7,1l9.1-3.5c2.3-0.9,5.8-3.5,6.5-6.2c1.1-4.6-2.3-10.9-7.3-19.9c0,0-23.7-46.1-18.1-34.4
				c5.6,11.7-9.5-18.9-18.7-34.3S184.5,235.4,178.3,237.8z"/>
			<polygon class="st5" points="137.6,263.7 138.6,228.8 153.4,236.3 			"/>
			<polygon class="st5" points="137.6,263.7 138.6,228.8 123.4,235.4 			"/>
			<polygon class="st6" points="149.4,234.8 138.3,229 129.1,235.6 134.7,244.8 142.3,245.2 			"/>
			<polygon class="st6" points="160.4,321.2 149.2,336.4 133.4,325.5 134.7,244.8 142.6,245.4 			"/>
			<polygon class="st7" points="138.6,228.8 138.6,229.5 152.7,242.4 159.3,229.6 156.6,223.9 			"/>
			<polygon class="st7" points="138.8,228.8 138.8,229.5 122.9,242.4 116.6,228.3 119.9,222.4 			"/>
			<g class="st8">
				<polygon class="st9" points="160,297 173.2,302.2 185.5,294.5 183.7,275.5 158.2,278 				"/>
				
					<rect x="157.6" y="268.7" transform="matrix(0.9952 -9.756288e-02 9.756288e-02 0.9952 -25.6958 17.9238)" class="st9" width="25.6" height="6"/>
			</g>
			<path class="st10" d="M54.8,207.1c0,0.3,0,0.5,0,0.8C54.7,207.7,54.8,207.4,54.8,207.1z"/>
		</g>
		<path class="st11" d="M54.8,206.4c0,0.2,0,0.5,0,0.7C54.8,206.9,54.8,206.6,54.8,206.4z"/>
		<g>
			<path class="st11" d="M182,156.2c0.3,0,0.5,0,0.8-0.1C182.6,156.2,182.3,156.2,182,156.2z"/>
			<path class="st11" d="M181.4,156.2c0.2,0,0.5,0,0.7,0C181.8,156.2,181.6,156.2,181.4,156.2z"/>
			<path class="st11" d="M178.9,157.4c-0.5,0.7-1.3,2.3-1,3.2l4.9-4.5c-0.3,0-0.5,0-0.8,0.1c-0.2,0-0.4,0-0.7,0
				C180.4,156.3,179.6,156.5,178.9,157.4z"/>
			<path class="st12" d="M128.9,179.4l-9.4-1c-9.2-1-16-9.3-15.1-18.5l2.9-28.4c1-9.2,9.3-16,18.5-15.1l9.4,1
				c9.2,1,16,9.3,15.1,18.5l-2.9,28.4C146.5,173.6,138.2,180.4,128.9,179.4z"/>
			
				<ellipse transform="matrix(0.1028 -0.9947 0.9947 0.1028 -80.8292 189.5874)" class="st11" cx="64.7" cy="139.6" rx="16.8" ry="16.8"/>
			
				<ellipse transform="matrix(0.1028 -0.9947 0.9947 0.1028 -80.8292 189.5875)" class="st12" cx="64.7" cy="139.6" rx="11.1" ry="11.1"/>
			
				<ellipse transform="matrix(0.1028 -0.9947 0.9947 0.1028 26.96 337.1365)" class="st11" cx="200.4" cy="153.6" rx="16.8" ry="16.8"/>
			
				<ellipse transform="matrix(0.1028 -0.9947 0.9947 0.1028 26.96 337.1365)" class="st12" cx="200.4" cy="153.6" rx="11.1" ry="11.1"/>
			<path class="st11" d="M202.9,139c17.5-75.1-25-59.6-63.1-63.5c-38.1-3.9-71.5,18.1-74.7,49.3c-0.7,7-3.4,32.6-4.1,39.6
				c-3.2,31.1,39.5,61.1,63.1,63.5c20.8,2.1,71.5-18.1,74.7-49.3C199.5,171.6,201.3,145.8,202.9,139z"/>
			<path class="st13" d="M180.3,119.8c-1.5-1.8,2.2-4.8,2.2-4.8c10.1-0.6,10,16,20.4,12.1c3.5-1.3,2.5-8.1,3-13
				c2.9,10.9,6.6,2.9,12.9,0.5c1.1-5.4,2.1-9.9,2.4-12.6c3.8-37.2-25.9-63.6-63.1-67.4c-36.3-3.7-58.8,16.7-64,52.5
				c29.3-6.6,46.8,9.3,63.7,28.2C165.5,116.1,172.2,119,180.3,119.8z"/>
			<path class="st13" d="M137.4,64.9c0.7-0.7,0.7-1.9-0.1-2.6c0,0,0,0,0,0C117.6,45.6,88.1,48,71.4,67.7
				c-11.5,13.6-14,31.9-7.9,47.4c0.4,1,1.6,1.4,2.5,0.9C91.9,101.9,117.3,85.9,137.4,64.9z"/>
			<g>
				<path class="st15" d="M189.3,152.2c-1.4,13.9-8.7,24.4-22.6,23c-13.9-1.4-21.4-13.6-19.9-27.4s11.3-24.2,25.1-22.8
					S190.7,138.3,189.3,152.2z"/>
				
					<ellipse transform="matrix(0.1028 -0.9947 0.9947 0.1028 0.3493 302.7503)" class="st9" cx="168" cy="151.2" rx="21.9" ry="21.9"/>
				<g>
					
						<ellipse transform="matrix(0.1028 -0.9947 0.9947 0.1028 -8.2313 290.4716)" class="st13" cx="156.9" cy="149.8" rx="10.5" ry="10.5"/>
					<ellipse transform="matrix(0.1028 -0.9947 0.9947 0.1028 -8.2313 290.4716)" cx="156.9" cy="149.8" rx="4.1" ry="4.1"/>
					
						<ellipse transform="matrix(0.1028 -0.9947 0.9947 0.1028 -5.1547 283.8633)" class="st16" cx="154.8" cy="144.8" rx="3" ry="3"/>
				</g>
			</g>
			<g>
				<path class="st15" d="M75.5,140.4c-1.4,13.9,3.5,25.7,17.4,27.1s23.7-8.9,25.1-22.8c1.4-13.9-6.1-26-19.9-27.4
					C84.2,116,76.9,126.6,75.5,140.4z"/>
				
					<ellipse transform="matrix(0.1028 -0.9947 0.9947 0.1028 -56.4378 225.0166)" class="st9" cx="96.5" cy="143.8" rx="21.9" ry="21.9"/>
				
					<ellipse transform="matrix(0.1028 -0.9947 0.9947 0.1028 -48.5899 238.7431)" class="st13" cx="108" cy="146.3" rx="10.5" ry="10.5"/>
				<ellipse transform="matrix(0.1028 -0.9947 0.9947 0.1028 -48.5899 238.7431)" cx="108" cy="146.3" rx="4.1" ry="4.1"/>
				
					<ellipse transform="matrix(0.1028 -0.9947 0.9947 0.1028 -45.4012 232.2884)" class="st16" cx="106.1" cy="141.3" rx="3" ry="3"/>
			</g>
			<path class="st12" d="M128,185.4L128,185.4c-5.5-0.6-9.5-5.5-9-11l3.7-36.1c0.6-5.5,5.5-9.5,11-9h0c5.5,0.6,9.5,5.5,9,11
				l-3.7,36.1C138.5,182,133.5,186,128,185.4z"/>
			<path class="st11" d="M126.7,179.3L126.7,179.3c-5.5-0.6-9.5-5.5-9-11l3.7-36.1c0.6-5.5,5.5-9.5,11-9h0c5.5,0.6,9.5,5.5,9,11
				l-3.7,36.1C137.1,175.8,132.1,179.8,126.7,179.3z"/>
			<path class="st13" d="M90.7,85.9c0,0,17,9.8,25,16.3c11,9,35.9,12.5,35.9,12.5s-15.6-26.3-27.3-31.1S90.7,85.9,90.7,85.9z"/>
			<path class="st13" d="M86.9,51.5c0,0,7.2,0.5,10.8,1.3c5.1,1.2,13.8-1.7,13.8-1.7s-9.4-6.1-14-5.8C93,45.7,86.9,51.5,86.9,51.5z"
				/>
			<path class="st13" d="M120.7,32.6c0,0-2.7,6.7-3.6,10.3c-1.2,5.1-7.6,11.7-7.6,11.7s-1.4-11.1,0.9-15.1
				C112.8,35.5,120.7,32.6,120.7,32.6z"/>
			
				<ellipse transform="matrix(0.1028 -0.9947 0.9947 0.1028 -93.8771 229.0204)" class="st12" cx="80" cy="166.5" rx="1.3" ry="2.5"/>
			
				<ellipse transform="matrix(0.1028 -0.9947 0.9947 0.1028 -86.0143 239.7836)" class="st12" cx="89.9" cy="167.6" rx="1.3" ry="2.5"/>
			
				<ellipse transform="matrix(0.1028 -0.9947 0.9947 0.1028 -95.3273 238.3334)" class="st12" cx="84.5" cy="172" rx="1.3" ry="2.5"/>
			
				<ellipse transform="matrix(0.1028 -0.9947 0.9947 0.1028 -23.3737 325.5302)" class="st12" cx="168.8" cy="175.7" rx="1.3" ry="2.5"/>
			
				<ellipse transform="matrix(0.1028 -0.9947 0.9947 0.1028 -15.5109 336.2934)" class="st12" cx="178.7" cy="176.7" rx="1.3" ry="2.5"/>
			
				<ellipse transform="matrix(0.1028 -0.9947 0.9947 0.1028 -24.8239 334.8432)" class="st12" cx="173.2" cy="181.2" rx="1.3" ry="2.5"/>
			<path class="st21" d="M68,98.5L63,156.3l6.1-4.5l7.9-34.5c0,0,11-21.7,22.7-25c11.7-3.3,34.1-2.2,34.1-2.2L116.1,79L68,98.5z"/>
			<path class="st21" d="M208,110.1l-8.6,52.8l-4.8,1.9l-0.7-35.4c0,0-6.4-23.5-17.2-29.1c-10.8-5.7-32.9-9.2-32.9-9.2l19.5-7.3
				L208,110.1z"/>
			<path class="st22" d="M150,137.6l29.4,3c4.1,0.4,7.9-2.6,8.3-6.7v0c0.4-4.1-2.6-7.9-6.7-8.3l-29.4-3c-4.1-0.4-7.9,2.6-8.3,6.7
				l0,0C142.8,133.4,145.8,137.1,150,137.6z"/>
			<path class="st22" d="M84.9,132.1l28.6-7.5c4-1.1,6.4-5.2,5.4-9.2v0c-1.1-4-5.2-6.4-9.2-5.4l-28.6,7.5c-4,1.1-6.4,5.2-5.4,9.2
				l0,0C76.8,130.7,80.9,133.1,84.9,132.1z"/>
			<g class="st23">
				<path class="st11" d="M146.1,45.2c4.9,2.2,10.6,1.4,15.8,2.6c4.7,1,8.7,3.7,13.5,4.5c0.9,0.2,1.2-1,0.4-1.3
					c-4.7-1.7-9.1-4.4-14-5.4c-4.7-0.9-10.8-1.8-15.5-0.8C145.9,44.7,145.9,45.1,146.1,45.2L146.1,45.2z"/>
			</g>
		</g>
		<path class="st9" d="M96.6,230.6c1.3,4.6,3.6,9.1,5.8,13.6c1.2,2.7,2.3,5.4,3.5,8c0.7,1.7,1.3,3.3,1.7,5
			c1.7,6.8,0.8,13.6-5.4,18.9c-6.7,5.7-14.3,5-21.5,1.4c-1.4-0.7-2.9-1.6-4.3-2.5c-7.3-5.9-14.7-11.9-21.2-18.6
			c-1.6-1.7-3.2-3.4-4.7-5.1c-11.6-14.6-24.9-38.9-8.7-55c1.6-1.5,5.8-1.7,8-1.3c14.7,4.1,21.8,17.6,34.1,25
			c1.7,1.3,3.3,2.5,5.1,3.7c1.7,1.2,3.5,2.3,5.3,3.4C95.2,228.2,96,229.4,96.6,230.6z"/>
		<path class="st48" d="M108.1,253.9c-0.8-3.7-2.4-7.1-4-10.4c-1.6-3.4-3.2-6.7-4-10.5c-1.2-2.7-3-5-8.1-8.7
			c-1-0.9-9.3,2.6-10.3,1.8c-2.1-0.9-4-2.1-5.6-3.4s-3-2.8-4.4-4.4c-3.8,2.1-8.2,3.5-12.3,5.2c4.5-3.1,5.9-9,5.3-14.8
			c-1-1.3-2-2.6-3.1-3.8c-3.8-3.5-5.4-7.4-10.3-7.5c-2.4,0-4.9,0.3-7.1,0.9c-11.4,5.1-10.9,14.4-6.8,24.3c1.4,3.3,3.1,6.7,5,10.1
			c1.2,3.1,2.6,6.3,4.1,9.4c1.5,3.1,3.1,6.2,4.9,9.2c9.6,18.5,30.2,36.2,50.7,21c3.7-3.3,5.6-6.1,5.8-11.2
			C108,257.9,108.2,254.8,108.1,253.9z"/>
		<path class="st9" d="M207.7,279.1c1.3-2,2.6-4,3.9-6.1c2-3.5,4-7.2,6.6-10.2c0.5-0.9,1-2,1.3-3.1c-0.3-1.6-0.4-3.1-0.6-4.7
			c-0.1-1.6-0.2-3.1-0.2-4.7c-1.6-10.6,4.3-21.6-1-31.8c-0.9-1.4-3.4-3.6-5.4-3.8c-20.9-0.7-31.2,19.2-35.3,33.2
			c-0.4,1.7-0.8,3.5-1.1,5.3c-0.3,1.8-0.6,3.7-0.7,5.6c8.3,9.6,17.2,19.1,29.2,24.6c0.2-0.2,0.4-0.4,0.6-0.6
			C206,281.6,206.9,280.4,207.7,279.1z"/>
		<path class="st48" d="M217.2,230c0.4-3.9,2.3-6.8-0.3-9.6c-1.3-1.4-3-2.5-4.7-3.5c-13.6-5-20.6,5.7-26.2,16.7
			c-1.4,2.8-2.7,5.5-4,8.1c-5,7.3-3.1,16.1-5.2,24.2c-0.9,0.2-3.6,0.8-3.5,1.5c6.6,8.6,15,16.7,27.5,17.1
			c11.7,1.3,18.6-10.9,19.6-19.5c0.1-8.5-6.8-13.9-8.5-21.9c-1.7-3.5-5.7-4.2-9.6-4.7c2.4,0.5,4.9,0.1,7.3-0.8"/>
		<path class="st49" d="M207.8,210.5c-0.2-2.1,0.1-8.5,0.9-11.6c1.5-5.8,6.8-7.9,9.9-12.5c4-5.9,5.3-13.4,2.4-19.9
			c-1.8-4.1-7.4-9.3,0.3-11.1c5.9-1.3,12.2,2.8,15.2,7.4c3.1,4.6,0,10.3,2.2,14.3"/>
		<g>
			<g>
				<path class="st11" d="M247.2,158.2c-0.7-3.1-3.4-5.9-6.6-5.7c-0.6,0-1.2,0.3-1.6,0.7c0.2-1.4,0.2-2.9-0.1-4.3
					c-0.7-3.1-3.4-5.9-6.6-5.7c-3.5,0.3-4.2,7.1-5.8,10.2c-1.6,2.9-3.1,6-4.8,8.8c1.8-6.7,1.1-13-5.6-18c-1.8-0.4-3.5-0.8-5.8-0.6
					s-3.9,1-3.8,2.1c4.1,11.3,0.3,22.1-5.2,31.3c-0.3,0.3-0.6,0.6-0.9,0.9c-3.4,6.7-13,12.1-11.3,20.1c0,0.7,0,1.4,0,2.2
					c0,0.2,0.1,0.5,0.2,0.7c-8.9-6.9-18.4-13.3-27.3-4.3c-2.7,2,1,3.9,2.9,5.5c5.8,3.1,16.5,10.4,23.1,16.7
					c0.1,4.1,1.5,7.8,5.4,10.4c1.2,1.4,2.2,1.5,2.4,1.9c4.3,2.2,9.5,1.4,13.4-1.1c0.4-0.3,0.8-0.6,1.2-0.9c2-2.8,3.4-5.7,4.8-8.7
					c6.4-6.4,11.4-14.2,14.5-22.7c0.9-2.4,1.6-4.9,1.5-7.4c6.4-6.5,11.5-14.3,14.7-22.8C247,164.5,247.9,161.3,247.2,158.2z
					 M192.3,203.3c-0.4-0.3-0.9-0.7-1.3-1C192.8,202.2,192.8,202.6,192.3,203.3z"/>
				<path class="st12" d="M223.2,161.9c1.2-5.4,0.8-10.6-2.9-15.2c-2.6-3.2-5.1-4.3-9.2-4.1c-2,0.1-5.3,0.6-5.5,3.2
					c-0.2,2.5,1.6,6,1.7,8.6c0.1,3.2-0.5,6.5-1,9.7c-2,12.6-8.1,14.4-11.8,19.8c-0.7,1-1.6,3.6,4.5-1.5c6.4-5.2,8.3-14.7,9.6-22.9
					c0.6-3.6-0.1-7-0.3-10.6c-0.1-1.3-0.8-3.1,0.6-4.2c0.9-0.7,4.4-0.2,5.5,0.1c2.3,0.7,4.2,3,5.4,5.1c2.6,4.7,1.7,10-0.1,15
					C221,164.1,222.2,163.1,223.2,161.9z"/>
			</g>
			<g>
				<path class="st11" d="M195.3,184.8c-3,2.8-6.1,6-6.3,10.1c-0.1,2,0.6,4,1.6,5.8c1.2,2.3,2.8,4.4,4.7,6.2"/>
				<g>
					<path class="st12" d="M194.6,184c-3.6,2.8-7,6.8-6.8,11.7c0.2,4.6,3.4,9,6.9,11.8c0.9,0.7,2-0.4,1.3-1.3
						c-2.4-2.8-5.1-6.2-5.4-10c-0.4-4.6,2.8-7.5,5.6-10.6C197.1,184.5,195.7,183.1,194.6,184L194.6,184z"/>
				</g>
			</g>
			<g>
				<path class="st12" d="M198.5,207.5c-6.2-5.2-12.7-11.8-20.4-14.9c-5.3-2.1-14.7-1.9-17.6,4.3c-2.1,4.4,7.5,8,10.1,9.7
					c7.5,4.8,15.2,10,20.5,17.2c0.8,1.1,2.4-0.1,1.5-1.2c-7.3-9.4-18.6-14.8-27.9-21.8c-4.4-3.3,1-6.4,4.7-7.2
					c3.9-0.8,7.8,0.7,11.2,2.6c6.2,3.4,11.3,8.5,17.6,11.7C198.4,208,198.7,207.7,198.5,207.5L198.5,207.5z"/>
			</g>
			<path class="st12" d="M246.1,153.9c-4.5-4.7-8.6-1.3-10.3,3.6c-3.3,9.6-8.1,20-17.6,24.8c-1.1,0.6-0.1,2.3,1,1.7
				c5.5-2.9,8.8-7.7,11.9-13c1.6-2.8,3.5-5.7,4.8-8.7c0.9-2,1.2-5.1,2.5-6.8c4.8-6,7.9,3,7.8,5.8c-0.1,2-0.8,4-1.5,5.9
				c-1.4,3.9-3.3,7.6-5.4,11.2c-2.2,3.6-4.7,6.9-7.5,9.9c-0.6,0.7-1.2,1.3-1.9,2c-1.9,2-3.9,4-6,5.9c-0.2,0.2,0.1,0.5,0.3,0.4
				c2-1.2,3.9-2.6,5.7-4.2c-0.5,6.2-5,13.2-7.7,17.5c-4,6.4-9,11.4-14.5,16.5c-0.2,0.2,0.1,0.5,0.3,0.4c7.9-4.9,14.4-12.5,18.9-20.6
				c2.5-4.6,5.6-10.4,5.2-15.8c4.4-4.2,8.1-9.2,11-14.4C246.5,170,251.9,159.9,246.1,153.9z"/>
			<g>
				<path class="st12" d="M237.8,144.6c-4.5-4.7-8.6-1.3-10.3,3.6c-3.3,9.6-8.1,20-17.6,24.8c-1.1,0.6-0.1,2.3,1,1.7
					c5.5-2.9,8.8-7.7,11.9-13c1.6-2.8,3.5-5.7,4.8-8.7c0.9-2,1.2-5.1,2.5-6.8c4.8-6,7.9,3,7.8,5.8c0,0.9-0.2,1.8-0.4,2.7
					c0.9-0.8,1.8-1.6,2.7-2.3C240.5,149.6,239.9,146.9,237.8,144.6z"/>
			</g>
		</g>
		<g>
			<g>
				<path class="st11" d="M42.6,178.5c-3.8-14.5-22.6-33.7-6.4-45.9c1.8-0.4,3.5-0.8,5.8-0.6c2.3,0.2,3.9,1,3.8,2.1
					c-4.8,13.3,3.8,28.5,10.6,38.7"/>
				<g>
					<path class="st12" d="M42.8,178.5c-2.4-12.7-19.6-30.6-8.4-42.7c1.8-2,4.7-3.2,7.4-2.6c3.2,0.8,2.3,2.8,2,5.5
						c-0.5,3.9-0.2,7.9,0.9,11.7c2.3,8.2,6.3,15.9,10.9,23c0.7,1,2.4,0.1,1.7-1c-6.9-10.1-14.3-22.1-11.5-34.9
						c0.6-2.8,1.7-4.5-1.4-5.8c-3.4-1.4-8-0.9-10.7,1.6c-13.7,12.8,3.7,32.6,8.6,45.4C42.5,178.9,42.9,178.8,42.8,178.5L42.8,178.5z
						"/>
				</g>
			</g>
			<path class="st11" d="M58.3,217.2c8.5-5.7,5.9-16.3,2.6-24.6c-1-1.2-2.3-2.2,0.6-2.1c0.7,0,1.6-1.3,1.6-2c0-0.7,0-1.4,0-2.2
				c1.7-8-8-13.3-11.3-20.1c-0.6-0.7-1.3-1.3-2-1.9c-0.7-0.6-1.4-1.2-2.1-1.8c-1.7-1.4-3.6-2.8-4.8-4.8c-1.1-1.8-1.6-4-2.9-5.5
				c-4.4-5-11.6-1.6-14,3.3c-1.7,3.4-2.5,7.1-3.2,10.8c-0.1,0.5-0.2,0.9-0.2,1.4c0.3,2.1,0.1,4.1-0.1,6.1c-0.1,0.5-0.1,1-0.1,1.5
				c-0.1,0.9,0,1.8,0,2.6c0,0.4,0.1,0.8,0.2,1.3c0,4.9,3.4,8.3,5.9,12.1c0.3,0.4,0.5,0.8,0.8,1.3c0.7,1.2,1.3,2.5,1.9,3.8
				c0.2,0.4,0.4,0.9,0.6,1.3c4.1,6.1,5.7,13.4,10.2,19.5c0.4,0.3,0.8,0.6,1.2,0.9c3.8,2.5,9,3.4,13.4,1.1
				C56.7,219.2,57.1,218.6,58.3,217.2z"/>
			<g>
				<path class="st11" d="M36.4,175.5c-9.8-7.3-17.4-17.5-21.7-28.9c-1.1-3-2-6.2-1.3-9.3c0.7-3.1,3.4-5.9,6.6-5.7
					c3.5,0.3,4.2,7.1,5.8,10.2c4.2,7.9,10.6,20.6,18.7,24.5"/>
				<g>
					<path class="st12" d="M36.6,175.3c-6.3-5.8-11.9-11.7-16.1-19.2c-2.3-4-4.5-8.3-5.6-12.8c-0.6-2.5-1-5.7,0.6-7.9
						c5.2-7,7.2,0.2,8.1,2.7c2,5.7,5.2,10.9,8.4,15.9c3.2,5.1,6.6,10.1,12,13.1c1.1,0.6,2.1-1.1,1-1.7c-9-4.6-14.4-15.2-18.4-24
						c-2-4.4-3.2-13.8-10.2-9.8c-7.9,4.5-3,15.4,0,21.4c4.4,8.9,11.4,17.4,20,22.7C36.5,175.8,36.8,175.5,36.6,175.3L36.6,175.3z"/>
				</g>
			</g>
			<g>
				<path class="st11" d="M20.6,183.4c-3.8-11.6-4.1-24.3-1-36.1c0.8-3.1,1.9-6.2,4.3-8.3c2.3-2.1,6.2-2.9,8.7-0.9
					c2.7,2.2-0.7,8.2-1.1,11.7c-1.1,8.9-3,18.2,1.4,26"/>
				<g>
					<path class="st12" d="M20.9,183.3c-1.6-8.2-2.8-16-2.1-24.3c0.4-4.3,1-8.8,2.4-13c0.7-2.2,1.7-4.7,3.6-6.3
						c2.9-2.4,8.6-1.8,7.7,2.9c-1,5.3-2.2,10.1-2.7,15.5c-0.6,6.3-0.6,12.3,2.3,18.1c0.6,1.1,2.3,0.1,1.7-1
						c-5.1-9.8-2.5-20.9,0.2-30.9c1.3-5-0.5-9.5-6.6-8.2c-7.7,1.6-9.3,11.9-10.1,18.2c-1.3,9.6-0.5,20.2,3.3,29.2
						C20.5,183.8,20.9,183.6,20.9,183.3L20.9,183.3z"/>
				</g>
			</g>
			<g>
				<path class="st11" d="M51.3,163.6c3,2.8,7.9,9.1,8,13.2c0.1,2,3.3,10.4,2.4,12.2c-1.2,2.3-2.8,4.4-4.7,6.2"/>
				<g>
					<path class="st12" d="M50.5,164.4c4,4.4,6.5,8.6,7.8,14.4c0.5,2.1,1.3,4.1,1.7,6.2c1,4.2-0.9,6.4-3.7,9.6
						c-0.8,0.9,0.4,2,1.3,1.3c2-1.7,4.9-4.5,5.4-7.3c0.5-2.7-1-6-1.7-8.6c-0.7-2.7-0.9-5.3-2.1-7.9c-1.7-3.5-4.2-6.8-7.2-9.3
						C51,161.9,49.5,163.3,50.5,164.4L50.5,164.4z"/>
				</g>
			</g>
			<g>
				<path class="st11" d="M55,185.8c1.3,1.9,2.6,3.8,3.9,5.8c3.3,4.9,6.8,10.5,5.3,16.2c-1.3,5.2-6.2,8.4-9.7,12.5"/>
				<g>
					<path class="st12" d="M54.4,186.2c3,5.8,8.8,11.6,8.9,18.5c0.1,6.5-6.2,10.2-9.2,15.3c-0.3,0.5,0.3,1.2,0.8,0.8
						c5-3.8,10.8-8.5,11-15.3c0.2-7.5-5.7-14.9-10.3-20.2C55,184.6,54,185.5,54.4,186.2L54.4,186.2z"/>
				</g>
			</g>
			<g>
				<path class="st11" d="M51.8,189.3c8.5-0.2,26.4-16.4,38.5-4.3c2.7,2-1,3.9-2.9,5.5c-4.1,2.2-14.7,4.6-19.2,12.1
					c-4.1,6.9-6.8,10-12.9,11.2"/>
				<g>
					<path class="st12" d="M51.8,189.5c5.4,0.2,11-3.4,15.9-5.2c3.4-1.3,7-2.5,10.7-2.7c2.6-0.1,12.7,1.5,11,5.9
						c-0.9,2.3-6.5,3.9-8.5,4.7c-3.1,1.3-6.2,2.8-8.8,4.9c-6.5,5.3-7.8,13.8-17.1,15.7c-1.2,0.3-0.7,2.2,0.5,1.9
						c10-2.3,11.8-13,20.1-17.9c3.2-1.9,16.9-5,16.7-10.4c-0.1-2.7-4.7-5.1-6.9-5.9c-3.4-1.3-7.2-1.2-10.8-0.5
						c-8.1,1.7-14.8,7.7-22.9,9.1C51.5,189.1,51.5,189.5,51.8,189.5L51.8,189.5z"/>
				</g>
			</g>
			<g>
				<path class="st11" d="M44.3,214.9c-9.8-7.3-16-18.1-21.7-28.9c-3.8-7.3-4.7-17.7-5-19.3"/>
				<g>
					<path class="st12" d="M44.5,214.8c-8.2-7.2-13.9-16-19-25.6c-3.9-7.4-5.5-14.6-6.7-22.7c-0.2-1.4-2.4-0.8-2.2,0.6
						c1.3,8.6,3.2,16.2,7.5,23.9c5.2,9.1,11.3,18.2,20.1,24.2C44.4,215.3,44.7,214.9,44.5,214.8L44.5,214.8z"/>
				</g>
			</g>
		</g>
		
			<ellipse transform="matrix(1.510440e-02 -0.9999 0.9999 1.510440e-02 -76.3764 326.0202)" class="st50" cx="127.3" cy="201.8" rx="13.3" ry="17.3"/>
		<g>
			<path class="st51" d="M136.7,204.8C136.8,204.8,136.8,204.8,136.7,204.8c7.8,2.9,5.9,14,4.5,20.2c-0.1,0.5-0.2,1-0.4,1.4
				c-1,2.3-4.2,3.8-6.5,4.5c-4.2,1.3-9.5,1.9-13.5-0.3c-5.6-3.1-4.2-10.2-4-15.6c0.1-1.8-0.1-3.6-0.2-5.4c-0.1-1.4-0.2-2.9,0.8-4.1
				c0.6-0.6,1.4-1,2.2-1.2c1.1-0.2,2.7-0.4,3.9-0.3c0.4,0,4.3,3,4.7,3.2c0.3,0.1,2.8-1.5,3.1-1.7c1.4-0.7,3-1.2,4.6-0.9
				C136.2,204.6,136.5,204.7,136.7,204.8z"/>
			<g>
				<path class="st52" d="M127.8,208.1c1,4.6-0.2,9.3,0.9,13.9c0.1,0.6,1.1,0.5,1.1-0.1c-0.3-4.6,1.5-10-0.9-14.2
					C128.5,207,127.6,207.5,127.8,208.1L127.8,208.1z"/>
			</g>
		</g>
	</g>
	<g>
		<defs>
			<path id="SVGID_36_" d="M248,218.6c0,55.1-44.7,99.7-99.7,99.7s-99.7-44.7-99.7-99.7S93.2,52.8,148.3,52.8
				C203.3,52.8,248,163.5,248,218.6z"/>
		</defs>
		<clipPath id="SVGID_3_">
			<use xlink:href="#SVGID_36_"  style="overflow:visible;"/>
		</clipPath>
	</g>
</g>
<g id="Layer_2">
</g>
</svg>
