<?xml version="1.0" encoding="utf-8"?>
<!-- Generator: Adobe Illustrator 21.1.0, SVG Export Plug-In . SVG Version: 6.00 Build 0)  -->
<svg version="1.1" xmlns="http://www.w3.org/2000/svg" xmlns:xlink="http://www.w3.org/1999/xlink" x="0px" y="0px"
	 viewBox="0 0 300 450" style="enable-background:new 0 0 300 450;" xml:space="preserve">
<style type="text/css">
	.st0{fill:#B27E49;}
	.st1{fill:#ECB8FF;}
	.st2{display:none;opacity:0.3;}
	.st3{fill:#F4E44A;}
	.st4{clip-path:url(#SVGID_2_);fill:#F1F3F7;}
	.st5{opacity:0.4;clip-path:url(#SVGID_2_);fill:#DCDDE0;}
	.st6{clip-path:url(#SVGID_2_);fill:#0076B7;}
	.st7{clip-path:url(#SVGID_2_);fill:#FFFFFF;}
	.st8{clip-path:url(#SVGID_2_);}
	.st9{fill:#FFFFFF;}
	.st10{clip-path:url(#SVGID_2_);fill:#F7CFA2;}
	.st11{fill:#F7CFA2;}
	.st12{fill:#F0BA7A;}
	.st13{fill:#601515;}
	.st14{fill:url(#SVGID_3_);}
	.st15{opacity:0.1;fill:#601515;}
	.st16{fill:#F9F9F9;}
	.st17{fill:url(#SVGID_4_);}
	.st18{fill:url(#SVGID_5_);}
	.st19{fill:url(#SVGID_6_);}
	.st20{fill:#EA6D50;}
	.st21{opacity:0.3;fill:#601515;}
	.st22{fill:#5B1010;}
	.st23{opacity:0.6;}
	.st24{fill:#A52323;}
	.st25{opacity:0.2;}
	.st26{fill:url(#SVGID_7_);}
	.st27{fill:#CE6117;}
	.st28{fill:url(#SVGID_8_);}
	.st29{fill:#8454D1;}
	.st30{clip-path:url(#SVGID_10_);fill:#393D47;}
	.st31{clip-path:url(#SVGID_10_);fill:#F0BA7A;}
	.st32{clip-path:url(#SVGID_10_);fill:#F1F3F7;}
	.st33{clip-path:url(#SVGID_10_);fill:#0076B7;}
	.st34{clip-path:url(#SVGID_10_);fill:#004868;}
	.st35{opacity:0.4;clip-path:url(#SVGID_10_);fill:#DCDDE0;}
	.st36{clip-path:url(#SVGID_10_);fill:#FFFFFF;}
	.st37{clip-path:url(#SVGID_10_);}
	.st38{fill:#393D47;}
	.st39{fill:url(#SVGID_11_);}
	.st40{fill:#EAA56C;}
	.st41{clip-path:url(#SVGID_13_);fill:#F1F3F7;}
	.st42{clip-path:url(#SVGID_13_);fill:#F0BA7A;}
	.st43{opacity:0.4;clip-path:url(#SVGID_13_);fill:#DCDDE0;}
	.st44{clip-path:url(#SVGID_13_);fill:#0076B7;}
	.st45{clip-path:url(#SVGID_13_);fill:#FFFFFF;}
	.st46{clip-path:url(#SVGID_13_);}
	.st47{clip-path:url(#SVGID_13_);fill:#F7CFA2;}
	.st48{fill:#F1F3F7;}
	.st49{fill:none;}
	.st50{fill:#A85848;}
	.st51{fill:#E85646;}
	.st52{fill:#EA4E39;}
	.st53{fill:#DCFFC5;}
	.st54{fill:#8BAA77;}
	.st55{clip-path:url(#SVGID_15_);fill:#F1F3F7;}
	.st56{opacity:0.4;clip-path:url(#SVGID_15_);fill:#DCDDE0;}
	.st57{clip-path:url(#SVGID_15_);fill:#0076B7;}
	.st58{clip-path:url(#SVGID_15_);fill:#FFFFFF;}
	.st59{clip-path:url(#SVGID_15_);}
	.st60{fill:#595959;}
	.st61{opacity:0.3;fill:#595959;}
	.st62{clip-path:url(#SVGID_27_);fill:#F1F3F7;}
	.st63{opacity:0.4;clip-path:url(#SVGID_27_);fill:#DCDDE0;}
	.st64{clip-path:url(#SVGID_27_);fill:#0076B7;}
	.st65{clip-path:url(#SVGID_27_);fill:#FFFFFF;}
	.st66{clip-path:url(#SVGID_27_);}
	.st67{clip-path:url(#SVGID_27_);fill:#F7CFA2;}
	.st68{opacity:0.7;fill:#7BCDDB;}
	.st69{fill:none;stroke:#F0BA7A;stroke-width:3;stroke-miterlimit:10;}
	.st70{clip-path:url(#SVGID_41_);fill:#F1F3F7;}
	.st71{opacity:0.4;clip-path:url(#SVGID_41_);fill:#DCDDE0;}
	.st72{clip-path:url(#SVGID_41_);fill:#0076B7;}
	.st73{clip-path:url(#SVGID_41_);fill:#FFFFFF;}
	.st74{clip-path:url(#SVGID_41_);}
	.st75{clip-path:url(#SVGID_41_);fill:#F7CFA2;}
	.st76{fill:#9E9E9E;}
	.st77{fill:#878787;}
	.st78{fill:#DDBD00;}
	.st79{clip-path:url(#SVGID_43_);fill:#F1F3F7;}
	.st80{opacity:0.4;clip-path:url(#SVGID_43_);fill:#DCDDE0;}
	.st81{clip-path:url(#SVGID_43_);fill:#0076B7;}
	.st82{clip-path:url(#SVGID_43_);fill:#FFFFFF;}
	.st83{clip-path:url(#SVGID_43_);}
	.st84{clip-path:url(#SVGID_43_);fill:#F7CFA2;}
	.st85{clip-path:url(#SVGID_45_);}
	.st86{opacity:0.4;fill:#DCDDE0;}
	.st87{fill:#0076B7;}
	.st88{opacity:0.3;}
	.st89{fill:#DCDDE0;}
	.st90{fill:#004868;}
	.st91{fill:#E02B41;}
	.st92{fill:#C69018;}
	.st93{fill:#EFE91B;}
	.st94{fill:#656D60;}
	.st95{clip-path:url(#SVGID_47_);fill:#F0BA7A;}
	.st96{clip-path:url(#SVGID_47_);fill:#F1F3F7;}
	.st97{opacity:0.4;clip-path:url(#SVGID_47_);fill:#DCDDE0;}
	.st98{clip-path:url(#SVGID_47_);fill:#0076B7;}
	.st99{clip-path:url(#SVGID_47_);fill:#FFFFFF;}
	.st100{clip-path:url(#SVGID_47_);}
	.st101{clip-path:url(#SVGID_47_);fill:#F7CFA2;}
	.st102{clip-path:url(#SVGID_49_);fill:#F1F3F7;}
	.st103{clip-path:url(#SVGID_49_);}
	.st104{fill:#B23C18;}
	.st105{fill:#6B2A05;}
	.st106{fill:#B23C18;stroke:#6B2A05;stroke-miterlimit:10;}
	.st107{fill:#DDAA78;}
	.st108{fill:#211205;}
	.st109{fill:none;stroke:#6B2A05;stroke-width:0.729;stroke-miterlimit:10;}
	.st110{fill:#B23C18;stroke:#6B2A05;stroke-width:0.729;stroke-miterlimit:10;}
	.st111{fill:#B72C34;}
	.st112{clip-path:url(#SVGID_51_);fill:#F1F3F7;}
	.st113{clip-path:url(#SVGID_51_);}
	.st114{clip-path:url(#SVGID_51_);fill:#F7CFA2;}
	.st115{fill:#F2C85F;}
	.st116{clip-path:url(#SVGID_53_);fill:#F0BA7A;}
	.st117{clip-path:url(#SVGID_53_);fill:#F1F3F7;}
	.st118{opacity:0.4;clip-path:url(#SVGID_53_);fill:#DCDDE0;}
	.st119{clip-path:url(#SVGID_53_);fill:#0076B7;}
	.st120{clip-path:url(#SVGID_53_);fill:#FFFFFF;}
	.st121{clip-path:url(#SVGID_53_);}
	.st122{clip-path:url(#SVGID_53_);fill:#F7CFA2;}
	.st123{clip-path:url(#SVGID_55_);}
	.st124{fill:#F4F0A6;}
	.st125{fill:#9E921E;}
	.st126{clip-path:url(#SVGID_57_);fill:#F0BA7A;}
	.st127{clip-path:url(#SVGID_57_);fill:#F1F3F7;}
	.st128{clip-path:url(#SVGID_57_);}
	.st129{clip-path:url(#SVGID_57_);fill:#393D47;}
	.st130{clip-path:url(#SVGID_57_);fill:#FFFFFF;}
	.st131{opacity:0.4;clip-path:url(#SVGID_57_);fill:#DCDDE0;}
	.st132{clip-path:url(#SVGID_57_);fill:#0076B7;}
	.st133{fill:#1F74C9;}
	.st134{clip-path:url(#SVGID_59_);}
	.st135{fill:#023142;}
	.st136{clip-path:url(#SVGID_61_);fill:#F7CFA2;}
	.st137{clip-path:url(#SVGID_61_);}
	.st138{opacity:0.3;fill:#E57257;}
	.st139{fill:#777777;}
	.st140{clip-path:url(#SVGID_63_);fill:#F1F3F7;}
	.st141{opacity:0.4;clip-path:url(#SVGID_63_);fill:#DCDDE0;}
	.st142{clip-path:url(#SVGID_63_);fill:#0076B7;}
	.st143{clip-path:url(#SVGID_63_);fill:#FFFFFF;}
	.st144{clip-path:url(#SVGID_63_);}
	.st145{clip-path:url(#SVGID_63_);fill:#F7CFA2;}
	.st146{clip-path:url(#SVGID_65_);fill:#F0BA7A;}
	.st147{clip-path:url(#SVGID_65_);fill:#F1F3F7;}
	.st148{opacity:0.4;clip-path:url(#SVGID_65_);fill:#DCDDE0;}
	.st149{clip-path:url(#SVGID_65_);fill:#0076B7;}
	.st150{clip-path:url(#SVGID_65_);fill:#FFFFFF;}
	.st151{clip-path:url(#SVGID_65_);}
	.st152{clip-path:url(#SVGID_65_);fill:#F7CFA2;}
</style>
<g id="Layer_1">
	<g>
		<defs>
			<path id="SVGID_32_" d="M248,218.6c0,55.1-44.7,99.7-99.7,99.7s-99.7-44.7-99.7-99.7S93.2,52.8,148.3,52.8
				C203.3,52.8,248,163.5,248,218.6z"/>
		</defs>
		<clipPath id="SVGID_2_">
			<use xlink:href="#SVGID_32_"  style="overflow:visible;"/>
		</clipPath>
	</g>
	<g>
		<path class="st9" d="M249.1,113.4c-6.5,6.5-10.8,16.9-19.3,23.5l-0.1-1c-1.6,5.1-7.6,5.6-10.4,8.8c-1.8,3.1,7.2,2.5,3.5,6.8
			c18.3-8.1,30.5-24,37.5-42.1c-0.9-2-2.3-3.9-4.3-5.6c-2.1-1.9-4.4-4.8-6.6-6.5C251.1,103.5,251.9,109.5,249.1,113.4z"/>
		<circle class="st125" cx="149.4" cy="217.8" r="99.7"/>
		<g>
			<defs>
				<path id="SVGID_56_" d="M248.9,210.6c4.1,54.9-37.1,102.8-92,106.9c-51.4,3.9-96.6-31.9-105.6-81.5
					c-0.6-3.4-22.2-13.7-22.4-17.3c-2.7-36.3-17.8-102.4,11.8-140.8c15.1-19.7,64.7-22.5,109-22.9
					C204.8,54.4,244.8,155.7,248.9,210.6z"/>
			</defs>
			<clipPath id="SVGID_3_">
				<use xlink:href="#SVGID_56_"  style="overflow:visible;"/>
			</clipPath>
			<path style="clip-path:url(#SVGID_3_);fill:#F0BA7A;" d="M208.5,242.5l-3.8,0.2c-5.6,0.3-10.5-4-10.9-9.7l-1.4-24
				c-0.3-5.6,4-10.5,9.7-10.9l3.8-0.2c5.6-0.3,10.5,4,10.9,9.7l1.4,24C218.5,237.3,214.1,242.2,208.5,242.5z"/>
			<path style="clip-path:url(#SVGID_3_);fill:#F1F3F7;" d="M229.2,252.1c6.5-16.5-14.3-26-29.2-24.3c-3.2-0.1-6.2,0-8.9,0
				c-3.1,0-7,0.2-10.7,0.7c-3.7,0.5-7.3,1.4-9.5,2.5c-5.4,2.7-5.6,7.4-6.9,13.7l-11,52.9c-0.7,3.5-5,25.8-4.2,29.1
				c20.8,5.8,48.8-8.4,74.6-2.4c1.6-1.8,3-3.8,4.1-6c1.1-2.2,1.8-4.6,2.1-7.1c3.4-18.4-1.1-37.1-0.6-54.7
				C229.1,253.8,229.2,252.1,229.2,252.1z"/>
			<g style="clip-path:url(#SVGID_3_);">
				<path class="st48" d="M115,221.6c11.5-2.9,13.6,11,13.6,19.4c0.3,1.7,0.7,3.4,1.2,5.1s1.2,3.3,2,4.9c1,1.9,2.1,3.5,3.5,4.9
					c0.9,1.9,1.8,3.6,2.4,5.2c0.6,1.5,0.9,2.9,0.5,4.1c-0.6,2.1-3.1,4.1-4.9,5l-5.9,2.8c-1.5,0.7-4.3,1.4-6,1
					c-2.7-0.8-4.2-3.8-6.3-8.2c0,0-0.7-1.4-1.7-3.3c-1.5-1.7-2.5-3.5-3.1-5.5c-0.6-2-0.8-4.3-0.4-6.8c0,0,1,0.9,1,0.9
					c0.4-8.1,4.8-16.4,1.4-25.2C112.1,223.6,113.2,222.4,115,221.6z"/>
				<path class="st48" d="M135.4,233.1c-2.2,8.2-7.7,14.6-9,22.3c-0.2,1.6-0.2,3.3,0.1,5.1c0.2,1.5,0.6,2.9,1.1,4.2
					c1.4,3.9,3.6,7.2,5.1,11.4c1.5,5.3,11.9,1.6,15.4-3.5c4.9-8.8,10.7-20.8,13.7-30.7c0.3-1.7-0.3-4-0.7-5.5
					c-1-2.5-3.8-4.8-7.3-6.5c-1.1-0.6-2.4-1.1-3.6-1.5c-3.9-0.1-9.1-2.8-12.5,1.3C136.4,231.1,136.2,231.3,135.4,233.1z"/>
				<path class="st9" d="M113.7,215.2c-6.8,9-12,20.5-10.7,32.8c0.5,2.1,1.1,4.2,1.8,6.2c0.7,2,1.4,3.9,2,5.6c1.2,1.4,2.5,2.7,3.9,4
					c1.2-0.8,2.4-1.7,3.6-2.4c2.7-0.5,4.7-1.2,6.3-2.1s2.6-2,3.3-3.3c0.4-3.3,0.7-6.7,0.9-10.1c0.1-1.7,0.2-3.4,0.2-5.1
					c-0.4-7.8-1.1-16.8-8-22.6C116,217.2,114.9,216.2,113.7,215.2z"/>
				<path class="st48" d="M124.4,223.5c-1.8-2.5-4.1-6.4-7.2-8.1c-5.1-1.6-8.8,3.7-11.4,7.9c-3.4,8.3-5.9,15.5-7.4,25.1
					c0.3,1.5,0.8,2.9,1.2,4.3c0.5,1.4,1.2,2.8,2.1,4.1c0.8,1.3,1.8,2.6,2.9,3.8c1.1,1.2,2.2,2.4,3.4,3.6c2.4,2.3,4.8,4.6,7.3,6.9
					c4,3,20.8,9.7,22.3,6.4c1.6-3.7,0.5-8.8-2-14.6c-0.8-1.9-1.8-3.9-2.9-6c-0.8-1.5-1.5-3.1-2.2-4.8c-1-2.5-1.7-5-2.2-7.6
					c-0.3-1.3-0.5-2.6-0.7-3.9c-0.5-3.9-0.8-7.9-1.5-11.9C125.5,227,125,225.2,124.4,223.5z"/>
				<path class="st9" d="M134,236.4c-3.9,4.1-2.4,11-7.1,14.4c-1.8,2.1-4.1-0.7-6.2-2.5c1.1,1.9,2.3,3.8,4,5.1
					c1.5,1.5,3.1,2.9,4.7,4.3c0.1-1.5,0.3-3,0.6-4.5c0.8-3.6,0.4-8.6,2.8-12.9C133.5,238,134,236.6,134,236.4z"/>
			</g>
			<path style="clip-path:url(#SVGID_3_);fill:#393D47;" d="M158,222.2c-0.2-0.5,13.4-63.7,13.2-64.3c-0.5-1.6-0.3-3.5-0.5-5.3
				c-0.2-2.7-0.6-5.4-1.1-8c-6.5-33.9-37.6-58.3-72.9-55.7c-38,2.9-66.5,36-63.6,74c1.4,18.7,24,67.3,24.3,69.4
				c14.4-10.5,34.2,2.5,49.1-7.1C127.6,211.8,134.6,231.1,158,222.2z"/>
			<g style="clip-path:url(#SVGID_3_);">
				<path class="st12" d="M163.2,210.1c-0.7,6.9-2.1,19-11.7,17.4c0.4-0.1-1.4,0.1-3.7,0.1c-2.4,0.4-4.3,0.2-5.8-0.5
					c-1.5-0.7-2.6-1.9-3.4-3.5c-0.9-3.7-3.2-7.6-1.9-11.7c0-2.1,0.2-4.2,0.4-6.2c0.2-1.9,0.4-3.6,0.5-5c0.6-1.2,1.5-2.3,2.5-3.2
					c3.1-2.7,7.7-3.8,12.6-2.2c6.4,2.3,8.2,9.1,10.6,14.1C163.2,209.7,163.2,209.9,163.2,210.1z"/>
				<path class="st12" d="M144.4,212.1c1.3-0.2,2.5-1,3.2-2c0.8-1,1.1-2.3,0.9-3.7l-2.6-17.7c-0.4-2.7-2.9-4.6-5.6-4.2h0
					c-2.7,0.4-4.6,2.9-4.2,5.6c0,0,0.2,1.1,0.4,2.8c0.2,1.7,0.6,3.9,0.9,6.1c1.9,3.7,0.3,8.8,3.4,12.3
					C141.8,212,143.1,212.3,144.4,212.1z"/>
				<path class="st12" d="M152.3,210.3L152.3,210.3c2.5-0.4,4.3-2.9,3.9-5.6l-2.6-17.7c-0.4-2.7-2.8-4.6-5.3-4.2h0
					c-2.5,0.4-4.3,2.9-3.9,5.6L147,206C147.4,208.7,149.8,210.6,152.3,210.3z"/>
				<path class="st12" d="M158.3,214.1L158.3,214.1c2.7,0,4.9-2.3,4.9-5l-0.1-17.9c0-2.7-2.3-4.9-5-4.9h0c-2.7,0-4.1,4.6-4,7.4
					l-0.7,15.5C153.3,211.9,155.6,214.1,158.3,214.1z"/>
			</g>
			<g style="clip-path:url(#SVGID_3_);">
				<path class="st12" d="M144.3,222.1c2.4-6.6-2.5-12.9-7.8-17.4c-1.1-0.9-2.2-1.7-3.2-2.5c-2.1-0.8-4.1-1.7-5.1-0.6
					c-3.5,7.3,4.9,11.7,9,16.7c0.9,1.1,1.6,2.1,2.1,3.2C140.4,223.2,142.6,223.4,144.3,222.1z"/>
				<path class="st12" d="M144.8,223.4c1.2-5.1-1.8-11.2-5.6-15.4c-1.3-1.4-2.6-2.6-4-3.5c-2-2.3-5-3.1-6.9-0.9
					c-2.4,8.2,6.8,10.5,9.7,15.5c0.8,1.2,1.4,2.4,1.7,3.7C140.8,224.5,143.1,224.7,144.8,223.4z"/>
				<path class="st12" d="M144.3,214.3c2.2-0.4,3.6-2.8,3.2-5.5l-2.6-17.7c-0.4-2.7-2.5-4.6-4.7-4.3h0c-2.2,0.3-3.7,2.8-3.3,5.5
					c0,0,0.2,1.1,0.4,2.8c0.2,1.7,0.6,3.9,0.9,6.1c-0.8,2.8,1.4,5.6,1.5,9C140.2,212.8,142.2,214.7,144.3,214.3z"/>
			</g>
			<path style="clip-path:url(#SVGID_3_);fill:#FFFFFF;" d="M158,234.9c0.7-2.4,1.2-9.1,1-9.9c-1.7,0.1-4.8-0.4-6.6-0.5
				c-1.8-0.1-12.6-3-13.5-1.8c-2.5,2.6-2.5,10.4-2.5,10.4s6.5,2.7,10.9,2.9c1.8,0,3.7-0.1,5.5-0.3
				C154.5,235.6,156.3,235.3,158,234.9z"/>
			<g style="clip-path:url(#SVGID_3_);">
				<g>
					<path class="st48" d="M128.6,237.8c-1.6-10.1,1.6-18.6-5.7-21.4c-4.4-1.7-12.2-1.9-17.6-1.4l-22,3.3c-7,1-18,4.5-22.6,8.9
						c-5.6,5.3,2.9,12.2,4.4,21.7l20,56.5c0.7,4.7,3.5,23.2,5.8,26.8c23.6-4.6,18.5-6.5,41-11.9c1.4-5-0.6-9.7-1.4-15L128.6,237.8z"
						/>
					<path class="st12" d="M96.6,220.3l-6,1.2c-5,1-9.8-2.3-10.8-7.2l-2.8-14c-1-5,2.3-9.8,7.2-10.8l6-1.2c5-1,9.8,2.3,10.8,7.2
						l2.8,14C104.8,214.4,101.5,219.3,96.6,220.3z"/>
					<polygon class="st86" points="102.4,242.6 95.2,214.5 106.5,217.7 					"/>
					<polygon class="st86" points="102.4,242.6 95.1,214.2 86.8,222.4 					"/>
					<polygon class="st87" points="118.4,290.1 111.9,303.1 100.5,294.3 96.3,227.7 101.4,227 					"/>
					<path class="st9" d="M91.5,214.7l0.1,0.5c0,0-2.7,12.7-8.1,9.9c-5.4-2.9-5.7-8.1-5.7-8.1l1.2-5L91.5,214.7z"/>
					<polygon class="st87" points="102,217.8 96.7,214.4 92.7,220.5 96.5,227.7 101.2,227 					"/>
					<path class="st9" d="M96.6,213.9l0.1,0.5c0,0-4.6,13-11.9,10.5c-7.4-2.6-7.5-7.8-7.5-7.8l2-5.1L96.6,213.9z"/>
					<path class="st9" d="M96.7,213.9l0.1,0.5c0,0,4.9,11.5,7.5,7.4c2.6-4.1,1.4-9.2,1.4-9.2l-2-4.5L96.7,213.9z"/>
					<g class="st88">
						<polygon class="st89" points="109.1,263.7 118.4,267.7 126.1,261 123.6,245.1 106.6,247.8 						"/>
						
							<rect x="105.9" y="239.7" transform="matrix(0.9877 -0.1561 0.1561 0.9877 -36.4184 20.8431)" class="st89" width="17.2" height="5"/>
					</g>
					<path class="st90" d="M129.2,252.9c0.2-4.5,0.2-8.9,0.3-13.2c-0.9-0.6-1.8-1.3-2.7-2c-6.5-5.8-9.1-14.3-9.5-22.6
						c-2.4-0.4-5-0.7-7.4-0.8c0.6,3.9,0.9,7.8,1,11.7c0.4,2.3-0.8,4.4-1.6,6.8c-0.9,2.1-3.1,3.8-5.4,4.6c-14.3,4.8-24.3-6.9-28-19.3
						c-4.3,1.1-5.5,1.1-8.7,3c2.7,6.9,2.1,17.8-2.6,25.7c11.6,28.2,16.6,52.7,17.5,86.7c19.4-4.9,37.4-10.8,54.2-15.8
						C130.6,296.7,128,275.4,129.2,252.9z"/>
				</g>
			</g>
			<path style="clip-path:url(#SVGID_3_);fill:#F1F3F7;" d="M220.5,233l-2.9,0.4c-4.8,0.3-6.9,8.7-4.6,18.9l3.3,21.3l3,26.6
				c1.4,6.8,2.1,12.2,4.9,15.6c2.3,2.8,6.7,4.5,9.3,4.7l8.6,0.7c2.2,0.2,5.9-0.5,7.1-2.2c2.1-3,0.7-8.7-1.4-16.9
				c0,0-8.6-37.9-6.9-28.9c1.8,9.3-3.1-14.6-6.7-26.3C230.7,235.7,225.4,232.6,220.5,233z"/>
			<polygon style="opacity:0.4;clip-path:url(#SVGID_3_);fill:#DCDDE0;" points="198,248.6 201.6,228 210.9,232.7 			"/>
			<polygon style="opacity:0.4;clip-path:url(#SVGID_3_);fill:#DCDDE0;" points="198,248.6 201.6,228 191.3,231.4 			"/>
			<polygon style="clip-path:url(#SVGID_3_);fill:#0076B7;" points="208.3,231.7 201.4,228.1 194.9,231.7 197.7,237.2 202.7,237.7 
							"/>
			<polygon style="clip-path:url(#SVGID_3_);fill:#0076B7;" points="216.9,284.7 209.4,295.1 198.5,288.2 198,238.6 203,237.5 			
				"/>
			<polygon style="clip-path:url(#SVGID_3_);fill:#FFFFFF;" points="201.6,228 201.5,228.3 209.9,236.4 215.5,228.8 214.1,225.4 			
				"/>
			<polygon style="clip-path:url(#SVGID_3_);fill:#FFFFFF;" points="201.6,228 201.5,228.3 191,235 188.4,227.3 190.8,224.3 			"/>
			<g style="clip-path:url(#SVGID_3_);">
				<polygon class="st9" points="213.8,263.5 221.8,264.3 226.7,258.9 225.4,250.3 212,251.5 				"/>
				<polygon class="st9" points="224.8,246.8 211.3,246.5 211.8,250.2 225.2,249.4 				"/>
			</g>
		</g>
		<g>
			
				<ellipse transform="matrix(0.9972 -7.482192e-02 7.482192e-02 0.9972 -12.2625 4.5783)" class="st11" cx="55" cy="165.9" rx="11.8" ry="11.8"/>
			
				<ellipse transform="matrix(0.9972 -7.482192e-02 7.482192e-02 0.9972 -12.2625 4.5783)" class="st12" cx="55" cy="165.9" rx="7.8" ry="7.8"/>
			
				<ellipse transform="matrix(0.9972 -7.482192e-02 7.482192e-02 0.9972 -11.391 10.8609)" class="st12" cx="139.3" cy="157.5" rx="7.8" ry="7.8"/>
			<path class="st11" d="M139.2,147c-1.7-22-21.7-38.5-44.7-36.7C71.4,112,58.3,129.4,60,151.4c0.4,4.9,1.3,26.1,1.7,31.1
				c1.7,22,45,35.2,59.3,34.2c12.6-0.9,22-19.6,20.3-41.6C140.9,170.1,139.5,151.9,139.2,147z"/>
			<path class="st38" d="M99.7,122.4c0.6-0.5,0.6-1.3,0.2-1.8c0,0,0,0,0,0c-12.2-13.6-33-14.7-46.6-2.5c-9.4,8.4-12.8,20.9-10,32.4
				c0.2,0.7,1,1.2,1.7,0.9C64.3,143.9,83.6,135.1,99.7,122.4z"/>
			<path class="st38" d="M132.6,119c0.7-0.1,1.2-0.9,1-1.6c0,0,0,0,0,0c-4.7-17.6-22.7-28.1-40.3-23.4
				c-12.2,3.2-20.9,12.8-23.6,24.2c-0.2,0.7,0.3,1.5,1.1,1.6C91.4,122.1,112.5,123.1,132.6,119z"/>
			<path class="st38" d="M141.3,148.8c0.4,0.3,1.1,0,1.4-0.6c0,0,0,0,0,0c9-15.8-2.7-36.1-13-45.4c-6.3-5.7-27.2-15-35.6-7.9
				c-0.5,0.5,19.1,20.3,19.3,20.7C121.2,128.5,129.9,140.8,141.3,148.8z"/>
			<g>
				<path class="st15" d="M144.2,158.8c0.8,8.9-1.8,16.3-9,16.9c-7.2,0.5-12.4-6.3-13.2-15.2c-0.8-8.9,3.1-16.4,10.4-17
					S143.4,149.9,144.2,158.8z"/>
				<path class="st9" d="M144.6,159.5c0.7,7.7-3.9,14.4-10.1,14.8c-6.3,0.5-11.9-5.4-12.6-13.1c-0.7-7.7,3.9-14.4,10.1-14.8
					C138.3,145.9,143.9,151.8,144.6,159.5z"/>
				<path class="st13" d="M144.7,159.5c0.3,3.7-1.8,6.9-4.9,7.1c-3,0.2-5.7-2.6-6-6.3c-0.3-3.7,1.8-6.9,4.9-7.1
					C141.6,153,144.3,155.8,144.7,159.5z"/>
				<path d="M141.3,159.7c0.1,1.4-0.7,2.7-1.9,2.7s-2.2-1-2.3-2.4c-0.1-1.4,0.7-2.7,1.9-2.7S141.2,158.3,141.3,159.7z"/>
				<path class="st16" d="M139.1,156.8c0.1,1.1-0.5,2-1.4,2c-0.9,0.1-1.6-0.7-1.7-1.8c-0.1-1.1,0.5-2,1.4-2
					C138.3,155,139,155.8,139.1,156.8z"/>
				<path class="st11" d="M144,156.2c-1.8-6-6.6-10.2-12-9.8c-5.3,0.4-9.4,5.3-10.1,11.5C129.2,157.3,136.4,156.3,144,156.2z"/>
			</g>
			<g>
				<path class="st15" d="M72.8,163.8c0.7,9.8,5.3,17.4,14.2,16.8s13.9-9,13.2-18.8c-0.7-9.8-6.9-17.3-15.9-16.6
					C75.5,145.8,72.1,154.1,72.8,163.8z"/>
				
					<ellipse transform="matrix(0.9972 -7.482192e-02 7.482192e-02 0.9972 -12.0023 6.9337)" class="st9" cx="86.5" cy="163.7" rx="14.1" ry="15.4"/>
				
					<ellipse transform="matrix(0.9972 -7.482192e-02 7.482192e-02 0.9972 -11.9435 7.4545)" class="st13" cx="93.5" cy="163.1" rx="6.7" ry="7.4"/>
				
					<ellipse transform="matrix(0.9972 -7.482192e-02 7.482192e-02 0.9972 -11.9435 7.4545)" cx="93.5" cy="163.1" rx="2.6" ry="2.9"/>
				
					<ellipse transform="matrix(0.9972 -7.482192e-02 7.482192e-02 0.9972 -11.7069 7.3073)" class="st16" cx="91.7" cy="159.9" rx="1.9" ry="2.1"/>
			</g>
			<path class="st12" d="M114.5,182.5L114.5,182.5c-2.7,0.2-5-1.8-5.3-4.5l-1.5-20.3c-0.2-2.7,1.8-5,4.5-5.2l0,0
				c2.7-0.2,5,1.8,5.2,4.5l1.5,20.3C119.3,179.9,117.2,182.3,114.5,182.5z"/>
			<path class="st11" d="M113.5,178.3L113.5,178.3c-2.7,0.2-5-1.8-5.3-4.5l-1.5-20.3c-0.2-2.7,1.8-5,4.5-5.2l0,0
				c2.7-0.2,5,1.8,5.2,4.5l1.5,20.3C118.2,175.8,116.1,178.1,113.5,178.3z"/>
			<path class="st38" d="M74.5,117.5l1.8,24.3l37-2.8l0.1-18.3l3.6,18c0,0,5.6,0.6,9.8,0.3c3.5-0.3,12.2,6.9,12.2,6.9l-4.7-37.1
				l-47.7-7.4L74.5,117.5z"/>
			<g class="st23">
				<path class="st11" d="M85.2,95c4.2,0,8.6-0.1,12.8,0.1c4.9,0.2,9.4,1.9,14.1,2.9c1.1,0.2,3.4-1.4,1.7-1.7
					c-4.3-1-8.4-2.3-12.8-2.8c-4.8-0.6-9.9-0.2-14.7-0.3C85,93.1,83.2,94.9,85.2,95L85.2,95z"/>
			</g>
			
				<ellipse transform="matrix(0.9972 -7.456664e-02 7.456664e-02 0.9972 -14.3542 9.2307)" class="st20" cx="116.4" cy="196.8" rx="8.7" ry="10.6"/>
			<path class="st13" d="M179.7,100.3c0,0,5.1,1,7.6,2c3.5,1.3,10,0.1,10,0.1s-6.1-5.3-9.4-5.5C184.6,96.7,179.7,100.3,179.7,100.3z
				"/>
			<g>
				<path class="st11" d="M240.5,181.8c0.2,0,0.4,0,0.6,0C240.9,181.8,240.7,181.8,240.5,181.8z"/>
				<path class="st11" d="M240,181.8c0.2,0,0.3,0,0.5,0C240.3,181.8,240.2,181.8,240,181.8z"/>
				<path class="st11" d="M238.2,182.5c-0.4,0.5-1.1,1.6-0.9,2.3l3.8-3c-0.2,0-0.4,0-0.6,0c-0.2,0-0.3,0-0.5,0
					C239.3,181.8,238.7,181.9,238.2,182.5z"/>
				<path class="st12" d="M201.2,195.9l-6.7-1.2c-6.6-1.1-11.1-7.5-9.9-14.1l3.5-20.3c1.1-6.6,7.5-11.1,14.1-9.9l6.7,1.2
					c6.6,1.1,11.1,7.5,9.9,14.1l-3.5,20.3C214.1,192.5,207.8,197,201.2,195.9z"/>
				
					<ellipse transform="matrix(0.1693 -0.9856 0.9856 0.1693 -31.4028 291.0953)" class="st11" cx="157" cy="164.2" rx="12.1" ry="12.1"/>
				<ellipse transform="matrix(0.1693 -0.9856 0.9856 0.1693 -31.4028 291.0953)" class="st12" cx="157" cy="164.2" rx="8" ry="8"/>
				
					<ellipse transform="matrix(0.1693 -0.9856 0.9856 0.1693 32.6265 400.3063)" class="st11" cx="253.8" cy="180.8" rx="12.1" ry="12.1"/>
				
					<ellipse transform="matrix(0.1693 -0.9856 0.9856 0.1693 32.6265 400.3063)" class="st12" cx="253.8" cy="180.8" rx="8" ry="8"/>
				<path class="st11" d="M256.3,170.4c16.2-53.1-15.1-44-42.3-48.7c-27.1-4.7-52.3,9.6-56.1,31.8c-0.9,5-4,23.3-4.8,28.2
					c-3.8,22.2,25.4,45.8,42.3,48.7c14.8,2.5,52.3-9.6,56.1-31.8C252.3,193.7,254.8,175.3,256.3,170.4z"/>
				<path class="st13" d="M241,155.5c-1-1.4,1.8-3.3,1.8-3.3c7.3,0,6.4,12,14.1,9.7c2.6-0.8,2.2-5.7,2.8-9.2c1.5,8,4.6,2.4,9.3,1
					c1.1-3.8,2-7,2.3-8.9c4.6-26.5-15.5-46.9-42.1-51.5c-25.9-4.4-43.1,9.2-48.5,34.6c21.4-3.3,33.2,9,44.4,23.4
					C230.5,152.1,235.2,154.6,241,155.5z"/>
				<path class="st13" d="M212.8,114.1c0.5-0.5,0.6-1.4,0-1.9c0,0,0,0,0,0c-13.3-13-34.6-12.7-47.6,0.7c-8.9,9.2-11.6,22.2-8,33.6
					c0.2,0.7,1.1,1.1,1.8,0.8C178.3,138.4,197.3,128.1,212.8,114.1z"/>
				<g>
					<path class="st15" d="M245.9,179.2c-1.7,9.9-7.5,17.1-17.3,15.4s-14.7-10.8-13-20.7c1.7-9.9,9.3-16.8,19.2-15.1
						C244.6,160.6,247.6,169.4,245.9,179.2z"/>
					
						<ellipse transform="matrix(0.1693 -0.9856 0.9856 0.1693 16.677 374.751)" class="st9" cx="230.6" cy="177.5" rx="15.8" ry="15.8"/>
					<g>
						
							<ellipse transform="matrix(0.1693 -0.9856 0.9856 0.1693 15.3341 366.6186)" class="st13" cx="225.1" cy="174.2" rx="7.5" ry="7.5"/>
						<ellipse transform="matrix(0.1693 -0.9856 0.9856 0.1693 15.3341 366.6186)" cx="225.1" cy="174.2" rx="2.9" ry="2.9"/>
						
							<ellipse transform="matrix(0.1693 -0.9856 0.9856 0.1693 17.9148 362.2776)" class="st16" cx="223.9" cy="170.5" rx="2.2" ry="2.2"/>
					</g>
				</g>
				<g>
					<path class="st15" d="M164.7,165.3c-1.7,9.9,1.3,18.6,11.2,20.3c9.9,1.7,17.5-5.2,19.2-15.1s-3.1-19-13-20.7
						C172.1,148.2,166.4,155.4,164.7,165.3z"/>
					
						<ellipse transform="matrix(0.1693 -0.9856 0.9856 0.1693 -17.0559 317.215)" class="st9" cx="179.6" cy="168.7" rx="15.8" ry="15.8"/>
					
						<ellipse transform="matrix(0.1693 -0.9856 0.9856 0.1693 -20.8724 310.9154)" class="st13" cx="174" cy="167.8" rx="7.5" ry="7.5"/>
					<ellipse transform="matrix(0.1693 -0.9856 0.9856 0.1693 -20.8724 310.9154)" cx="174" cy="167.8" rx="2.9" ry="2.9"/>
					
						<ellipse transform="matrix(0.1693 -0.9856 0.9856 0.1693 -18.225 306.6881)" class="st16" cx="172.8" cy="164.2" rx="2.2" ry="2.2"/>
				</g>
				<path class="st12" d="M200.3,200.1L200.3,200.1c-3.9-0.7-6.6-4.4-5.9-8.3l4.4-25.7c0.7-3.9,4.4-6.6,8.3-5.9h0
					c3.9,0.7,6.6,4.4,5.9,8.3l-4.4,25.7C207.9,198.2,204.2,200.8,200.3,200.1z"/>
				<path class="st11" d="M199.6,195.7L199.6,195.7c-3.9-0.7-6.6-4.4-5.9-8.3l4.4-25.7c0.7-3.9,4.4-6.6,8.3-5.9h0
					c3.9,0.7,6.6,4.4,5.9,8.3l-4.4,25.7C207.3,193.7,203.5,196.3,199.6,195.7z"/>
				<path class="st13" d="M178.2,126.8c0,0,11.8,7.9,17.2,12.9c7.5,7,25.2,10.7,25.2,10.7s-9.9-19.6-18.1-23.6
					C194.3,122.9,178.2,126.8,178.2,126.8z"/>
				<path class="st13" d="M202.4,90c0,0-2.3,4.7-3.1,7.2c-1.1,3.6-6,8-6,8s-0.5-8,1.4-10.8S202.4,90,202.4,90z"/>
				
					<ellipse transform="matrix(0.1693 -0.9856 0.9856 0.1693 -38.4712 325.3353)" class="st12" cx="173.7" cy="185.5" rx="0.9" ry="1.8"/>
				
					<ellipse transform="matrix(0.1693 -0.9856 0.9856 0.1693 -1.2613 388.8021)" class="st12" cx="230" cy="195.1" rx="0.9" ry="1.8"/>
				
					<ellipse transform="matrix(0.1693 -0.9856 0.9856 0.1693 3.4094 396.7687)" class="st12" cx="237.1" cy="196.4" rx="0.9" ry="1.8"/>
				
					<ellipse transform="matrix(0.1693 -0.9856 0.9856 0.1693 -2.9092 395.1208)" class="st12" cx="232.9" cy="199.3" rx="0.9" ry="1.8"/>
				<path class="st21" d="M160.4,134.9l-6.4,41.3l4.6-2.9l7.3-24.4c0,0,9-15,17.5-16.9c8.6-1.8,24.6,0,24.6,0l-12.1-8.9L160.4,134.9
					z"/>
				<path class="st21" d="M261.4,149.9l-8.8,37.5l-3.6,1.2l1.2-25.4c0,0-3.4-17.2-10.9-21.8c-7.5-4.6-23.2-8.2-23.2-8.2l14.4-4.3
					L261.4,149.9z"/>
				<path class="st22" d="M226.1,162.8l19.9,7.5c2.8,1.1,6-0.4,7-3.2v0c1.1-2.8-0.4-5.9-3.1-7l-19.9-7.5c-2.8-1.1-6,0.4-7,3.2l0,0
					C221.9,158.6,223.3,161.7,226.1,162.8z"/>
				<path class="st22" d="M176.2,151l18.7,10.3c2.6,1.4,5.9,0.5,7.4-2.1v0c1.4-2.6,0.5-5.9-2.1-7.4l-18.7-10.3
					c-2.6-1.4-5.9-0.5-7.4,2.1h0C172.6,146.2,173.5,149.5,176.2,151z"/>
				<g class="st23">
					<path class="st11" d="M220,100.3c3.2,2,7.3,1.7,10.9,2.7c3.4,1,6.3,3.1,9.8,3.9c0.7,0.2,1.3-0.9,0.5-1.3
						c-3.2-1.6-6.3-3.7-9.7-4.6c-3.4-0.9-7.9-2-11.4-1.2C219.8,99.9,219.8,100.2,220,100.3L220,100.3z"/>
				</g>
				
					<ellipse transform="matrix(5.568786e-02 -0.9984 0.9984 5.568786e-02 -25.4929 399.7369)" class="st20" cx="198.6" cy="213.3" rx="10.7" ry="9.5"/>
				
					<ellipse transform="matrix(0.1693 -0.9856 0.9856 0.1693 -43.4496 315.3417)" class="st12" cx="165.3" cy="183.4" rx="0.9" ry="1.8"/>
				
					<ellipse transform="matrix(0.1693 -0.9856 0.9856 0.1693 -45.0975 321.6603)" class="st12" cx="168.3" cy="187.6" rx="0.9" ry="1.8"/>
			</g>
		</g>
		<path class="st9" d="M188.3,247.6c2.4-3.8,4.9-7.4,7.7-10.7c5.1-5.9,3.7-8.5,11.3-4c12.6,7.5,8.5,21.4,2.7,30.2
			c-5.3,8-25.3,41.4-36,24c-2.1-3.4-0.6-8.5-0.2-12c0.5-4,6.5-6,6.9-7.1C182.5,262.6,185.2,252.5,188.3,247.6z"/>
		<path class="st48" d="M189.1,239.6c-6.6,14.7-18,28.7-15.9,43.5c0.5,7,14.4,4.9,20-0.5c8.3-9.6,13.6-19.1,19.8-30.6
			c0.8-2.1,0.6-5.1,0.5-7.1c-1.7-8.9-11.3-14-20.2-9.8C191,236.4,190.7,237.7,189.1,239.6z"/>
		<path class="st9" d="M188.2,250.3c-0.8-4-1.8-7.8-3.2-11.5c-2.5-6.6-9.9-12.9-15-6.8c-7.9,9.7-10.6,16.8-8.5,26
			c1.9,8.5,11.8,41.5,26.3,30.2c2.9-2.2,3.2-7,3.9-10.1c0.8-3.6-3.6-7.1-3.6-8.2C188.4,264.9,189.3,255.5,188.2,250.3z"/>
		<path class="st48" d="M189.9,237.3c3.3,10.3-0.8,21.1,0.5,31.5c0.1,1.1,0.4,2.3,0.6,3.4c0.6,3.2,3.8,8.5,1.4,11.4
			c-1,1.2-4,4.3-5.3,5.2c-12.2,5.9-18.7-13.5-21.8-21.9c-2.7-7.4-2.9-14.3-3.2-22.4c-0.1-2.6-0.7-5.3,0-7.9c0.7-2.5,2.9-5,5-6.6
			c2-1.5,4.5-1.7,7-2.3c3.3-0.8,7.6,0.7,10.5,2.6C188.2,232.8,188.8,233.7,189.9,237.3z"/>
		<path class="st9" d="M191.5,235.3c-0.9,1.1-1.8,2.2-2.7,3.3c-3.2,4.1-4,8.9-5.9,13.3c-0.2,0.4-4-10.1-4-10.1s3.6,15.5,4.5,19.5
			C185.5,248,191.4,236.4,191.5,235.3z"/>
		<g>
			<g>
				<path class="st12" d="M214.1,240.1c0.7,0.3-9.7-7.4-11.5-10s-1.3-2.1,2.7-11.6c0.5-1.2,4.1-0.6,4.6-1.8
					c3.6-9,14.6-13.7,20.7-5.3c3.8,5.6,6.4,2.9,5.4,8.4C235.9,219.8,220.8,247,214.1,240.1z"/>
				<path class="st12" d="M214.1,219.9L214.1,219.9c2.4,1.3,5.4,0.4,6.7-2.1l8.4-15.8c1.3-2.4,0.4-5.4-2.1-6.7l0,0
					c-2.4-1.3-5.4-0.4-6.7,2.1l-8.4,15.8C210.7,215.6,211.7,218.6,214.1,219.9z"/>
				<path class="st12" d="M221.5,223.2L221.5,223.2c2.3,1.2,5.2,0.2,6.4-2.2l8.4-15.8c1.3-2.4,0.5-5.4-1.8-6.6l0,0
					c-2.3-1.2-5.2-0.2-6.4,2.2l-8.4,15.8C218.4,219,219.3,221.9,221.5,223.2z"/>
				<path class="st12" d="M223.2,229.2L223.2,229.2c2.2,1.6,5.3,1.1,6.9-1.1l10.4-13.9c1.6-2.2,2.6-5.6,0.4-7.2l-1-0.6
					c-2.2-1.6-6.6,2.8-8.2,5l-9.7,10.8C220.5,224.5,221,227.6,223.2,229.2z"/>
			</g>
			<g>
				<path class="st12" d="M208.8,227.7L208.8,227.7c2.2,0.1,4.1-1.7,4.2-3.9l0.3-12.7l-1.6-5.8c-0.7-2.1-2.6-4.7-5.1-5.1
					c-2.5-0.4-4.3,2.8-4.3,5l1.7,7.4c0,0,0.8,6.2,0.4,7.4c-0.4,1.3-0.7,2-0.7,2C203.6,224.1,206.6,227.6,208.8,227.7z"/>
				<path class="st11" d="M208.3,228.8L208.3,228.8c2.2,0.1,4.1-1.7,4.2-3.9l0.3-12.7l-1.6-5.8c-0.8-3-2.7-5-4.9-5.1l-0.2,0
					c-2.2-0.1-3.1,1.9-3.2,4.1l1.9,7.4c0,0,0.9,7.3-0.1,9.4C203.6,224.3,206.1,228.8,208.3,228.8z"/>
				<path class="st11" d="M225.8,219.5c-3.8-5.2-7.8-9.3-11.1-9.4c-0.7,1.1-1.1,2.4-2.4,1.8c0,0,0-0.5,0-1.1c-1.1,0.7-2,2-2.9,4
					c-0.5,1.2-3.6,4.2-4.1,5.5c-4,9.5-4.5,9-2.7,11.6c1.8,2.6,8.8,6.8,8,6.5c6.7,7,13.4-4,18-9c0.2-0.1,0.3-0.3,0.5-0.5
					C230.1,223.2,229.6,225.1,225.8,219.5z"/>
				<path class="st11" d="M213.3,221.2L213.3,221.2c2,1,4.6-0.1,5.9-2.5l8.4-15.8c1.3-2.4,0.7-5.2-1.2-6.3h0c-2-1-4.6,0.1-5.9,2.5
					l-8.4,15.8C210.8,217.3,211.3,220.2,213.3,221.2z"/>
				<path class="st11" d="M221.2,223.3L221.2,223.3c1.8,0.9,4.2-0.3,5.5-2.7l8.9-14.9c1.3-2.4,0.9-5.1-0.9-6.1l-0.4-0.4
					c-1.8-0.9-3.9-0.2-5.2,2.2l-8.8,15.8C219.1,219.6,219.5,222.4,221.2,223.3z"/>
				<path class="st11" d="M224,229.8L224,229.8c1.5,1.2,4.1,0.5,5.8-1.5l10.3-14.1c1.8-2.1,2.3-4.8,0.9-6.1l-0.7-0.7
					c-1.5-1.2-3.7,0.2-5.5,2.3l-10.3,14.1C222.8,225.9,222.5,228.6,224,229.8z"/>
			</g>
		</g>
		<path class="st9" d="M214.4,247.4c1.8-1.8,4.7-8.4,4.9-9.3c-6.2-3.1-12.5-7.5-16.8-13.3c-1.4,2.7-6.5,10.4-6.7,11.6
			C200.9,241.6,207.8,245.2,214.4,247.4z"/>
		<g>
			<path class="st48" d="M61.9,226.3l3.3-1.6c3.9-2.1,10.1,1.9,13.8,8.8l8.3,13L97.9,261c2,3.8,4,6.6,3.4,9.1
				c-0.5,2.1-2.9,4.3-4.7,5.2l-5.8,3.1c-1.5,0.8-4.3,1.6-5.9,1.3c-2.8-0.6-4.4-3.6-6.7-7.9c0,0-12.4-21.2-9.1-16s-5.2-8.6-8.8-16.2
				C56.7,232,58,228.4,61.9,226.3z"/>
			<g>
				<path class="st12" d="M143.2,232.7c-3.7,5.8-9.1,16-17,10.3c0.8,0.2-6.8-2.7-9-5c-2.2-2.3-1.7-1.8,0.6-11.9
					c0.3-1.3,4.6-3.6,4.9-4.9c0.2-0.8-0.1-5.8,0.3-5c0.7,1.2,2.2-1.7,2.7-3.2c2-5.7,10.3-3.7,15.8,1.6c4.7,4.9,3,9.8,3,15.3
					C144.4,230.2,143.3,232.6,143.2,232.7z"/>
				<path class="st12" d="M126.7,226.1L126.7,226.1c2.6,0.8,5.4-0.6,6.2-3.2l5.5-17c0.8-2.6-0.6-5.4-3.2-6.2l0,0
					c-2.6-0.8-5.4,0.6-6.2,3.2l-5.5,17C122.6,222.5,124.1,225.3,126.7,226.1z"/>
				<path class="st12" d="M134.6,228L134.6,228c2.4,0.8,5.1-0.7,6-3.3l5.5-17c0.8-2.6-0.5-5.4-2.9-6.2h0c-2.4-0.8-5.1,0.7-6,3.3
					l-5.5,17C130.8,224.5,132.1,227.2,134.6,228z"/>
				<path class="st12" d="M137.3,233.7L137.3,233.7c2.5,1.2,5.4,0.2,6.6-2.3l7.8-16.1c1.2-2.5,0.2-5.4-2.3-6.6l0,0
					c-2.5-1.2-5.7,2.4-6.9,4.8l-7.5,13.6C133.8,229.5,134.9,232.5,137.3,233.7z"/>
			</g>
			<g>
				<path class="st12" d="M122.2,234.9L122.2,234.9c2.2-0.3,3.7-2.4,3.4-4.5l-1.9-12.6l-2.6-5.5c-1-2-3.4-4.2-5.9-4.1
					s-3.1,2.7-2.8,4.9l3.5,6.7l1.8,11.7C117.9,233.7,120,235.2,122.2,234.9z"/>
				<path class="st11" d="M122.1,236.4L122.1,236.4c2.2-0.3,3.7-2.4,3.4-4.5l-1.9-12.6l-2.6-5.5c-0.3-2.2-3.5-4.5-5.7-4.2l-0.2,0
					c-2.2,0.3-2.8,2.4-2.5,4.6l3.2,7l1.8,11.7C117.8,235.1,119.9,236.7,122.1,236.4z"/>
				<path class="st11" d="M142.1,233.2c-3.7,5.8-8.3,17.7-16.2,12c0.8,0.2-6.8-2.7-9-5c-2.2-2.3-1.7-1.8,0.6-11.9
					c0.3-1.3,2.8-4.8,3.1-6.1c0.4-2.1,0.9-4.1,2.1-4.6c0,0,0.8,0.8,1.2,0.6c0.4-0.2,1.2-2.2,1.2-2.2c3.2,0.8,7.8,3.5,12.4,8
					c4.7,4.9,4.9,3,4.9,8.5C142.4,232.8,142.3,233,142.1,233.2z"/>
				<path class="st11" d="M125.6,228L125.6,228c2.1,0.7,4.5-0.9,5.3-3.5l5.5-17c0.8-2.6,0.7-6.4-1.4-7.1l-0.6-0.2
					c-2.1-0.7-4.8,2.3-5.7,4.8l-5.5,17C122.4,224.6,123.5,227.3,125.6,228z"/>
				<path class="st11" d="M133.8,228.7L133.8,228.7c1.9,0.6,4.1-1,5-3.6l6.1-16.3c0.8-2.6,0-5.2-1.9-5.8l0,0c-1.9-0.6-4.1,1-5,3.6
					l-6.1,16.3C131,225.4,131.9,228,133.8,228.7z"/>
				<path class="st11" d="M137.6,234.6L137.6,234.6c1.6,1,3.6,0,5-2.3l8.1-15.9c1.4-2.4,1.2-5.1-0.5-6v0c-1.6-1-4.1,0.2-5.5,2.5
					l-7.6,15.7C135.8,230.9,136,233.6,137.6,234.6z"/>
			</g>
			<path class="st48" d="M108.3,239.3c-25.1,19.2-19.1,27.2-20.5,39.1c-1,5.4,10,6.7,15.4,3.7c8.3-5.7,18.8-13.9,25.8-21.5
				c1.1-1.4,1.5-3.7,1.8-5.3c0.5-7.1-10.9-19-18.6-17.6C110.3,238.1,110,238.2,108.3,239.3z"/>
			<path class="st9" d="M64.3,220.1c-1.3,0.4-2.6,1-3.8,1.8c-1.9,1.1-5.3,4.5-6.3,9.8c-0.8,16.5,7.8,28.4,19.5,38.3
				c4.6-3.6,9.3-6.9,14.7-9.1C81.6,246.8,73.4,233.1,64.3,220.1z"/>
			<path class="st48" d="M74.1,227c-0.8-0.8-5.1-5.6-5.9-6.2c-5.4-3.3-10.9,4.3-13.8,11.7c-1.3,4.7-1,10.1,0.1,14.5
				c3.5,12.9,13.8,21.5,24.2,30.1c4.1,2.8,21.3,8.7,22.5,5.3C105.9,269.8,79.5,243.4,74.1,227z"/>
			<path class="st9" d="M105.6,241.6c-1.3,0.8-2.6,1.7-3.9,2.5c-4.6,3.1-6,6.6-8.8,9.9c-0.3,0.3-5-7.1-5-7.1s4.2,10.9,5.2,13.8
				C96.6,251.1,105.3,242.4,105.6,241.6z"/>
			<path class="st9" d="M127.7,255.6c1.8-1.8,4.7-8.4,4.9-9.3c-6.2-3.1-12.5-7.5-16.8-13.3c-1.4,2.7-6.5,10.4-6.7,11.6
				C114.1,249.8,121,253.5,127.7,255.6z"/>
		</g>
		<path class="st11" d="M85.4,148.3c-6.3,0.5-11.3,5.4-12.6,11.8c9.1,0,18.3-0.2,27.2-0.8C98.1,152.5,92.1,147.8,85.4,148.3z"/>
		<path class="st38" d="M78.2,153.4l17.6-6c2.6-0.9,4.1-3.8,3.2-6.5l-0.2-0.5c-0.9-2.6-3.8-4.1-6.5-3.2l-17.6,6
			c-2.6,0.9-4.1,3.8-3.2,6.5l0.2,0.5C72.7,152.8,75.6,154.3,78.2,153.4z"/>
		<path class="st38" d="M138.5,149.6l-14.9-2.1c-2.2-0.3-3.8-2.6-3.5-5.2l0.1-0.4c0.3-2.5,2.4-4.3,4.7-4l14.9,2.1
			c2.2,0.3,3.8,2.6,3.5,5.2l-0.1,0.4C142.9,148.1,140.8,149.9,138.5,149.6z"/>
		<g>
			<g>
				<path class="st93" d="M119,199.2c7.2,2,12-4.3,13.6-10.5c1.5-5.5,2.1-10.4,6.5-14.5c3.9-3.6,9-5.4,13.3-8.3
					c0.7-0.5,0.3-1.6-0.6-1.4c-6.9,1.3-14.4,5.6-18.1,11.8c-2.1,3.6-2.5,7.7-3.3,11.7c-0.5,2.2-1.1,4.4-2.3,6.3
					c-2.3,3.4-5.5,3.6-9.1,4.3C118.8,198.7,118.8,199.1,119,199.2L119,199.2z"/>
			</g>
			<g>
				<path class="st93" d="M137.4,187.8c2-5.2,4.4-12.1,10.2-13.8c2.8-0.8,5.6-1.1,7.4-3.6c0.5-0.8-0.6-1.4-1.2-0.9
					c-3.1,2.6-7.7,2.1-10.7,4.8c-3.6,3.2-5.3,8.8-6.3,13.3C136.7,188.1,137.2,188.2,137.4,187.8L137.4,187.8z"/>
			</g>
			<g>
				<path class="st93" d="M149.4,179.8c-2,0.1-4.2,1.2-4.9,3.2c-0.6,1.6-0.1,3.4,1.6,4.1c0.6,0.3,1-0.7,0.5-1.1
					c-1.1-0.7-0.9-2.3-0.2-3.2c0.8-1,2.3-1.5,3.3-2.2C149.9,180.3,149.9,179.8,149.4,179.8L149.4,179.8z"/>
			</g>
			<g>
				<path class="st93" d="M126.4,186.5c0.5-1.5,0.1-3.3,0.5-4.9c0.5-1.9,1.6-3.6,3.1-4.9c0.7-0.6-0.3-1.5-1-1
					c-1.8,1.4-3,3.3-3.5,5.5c-0.4,1.6-0.8,4.1,0.4,5.4C126.1,186.8,126.3,186.7,126.4,186.5L126.4,186.5z"/>
			</g>
		</g>
	</g>
</g>
<g id="Layer_2">
</g>
</svg>
