<?xml version="1.0" encoding="utf-8"?>
<!-- Generator: Adobe Illustrator 21.1.0, SVG Export Plug-In . SVG Version: 6.00 Build 0)  -->
<svg version="1.1" xmlns="http://www.w3.org/2000/svg" xmlns:xlink="http://www.w3.org/1999/xlink" x="0px" y="0px"
	 viewBox="0 0 300 450" style="enable-background:new 0 0 300 450;" xml:space="preserve">
<style type="text/css">
	.st0{fill:#B27E49;}
	.st1{fill:#ECB8FF;}
	.st2{display:none;opacity:0.3;}
	.st3{fill:#F4E44A;}
	.st4{clip-path:url(#SVGID_2_);fill:#F1F3F7;}
	.st5{opacity:0.4;clip-path:url(#SVGID_2_);fill:#DCDDE0;}
	.st6{clip-path:url(#SVGID_2_);fill:#0076B7;}
	.st7{clip-path:url(#SVGID_2_);fill:#FFFFFF;}
	.st8{clip-path:url(#SVGID_2_);}
	.st9{fill:#FFFFFF;}
	.st10{clip-path:url(#SVGID_2_);fill:#F7CFA2;}
	.st11{fill:#F7CFA2;}
	.st12{fill:#F0BA7A;}
	.st13{fill:#601515;}
	.st14{fill:url(#SVGID_3_);}
	.st15{opacity:0.1;fill:#601515;}
	.st16{fill:#F9F9F9;}
	.st17{fill:url(#SVGID_4_);}
	.st18{fill:url(#SVGID_5_);}
	.st19{fill:url(#SVGID_6_);}
	.st20{fill:#EA6D50;}
	.st21{opacity:0.3;fill:#601515;}
	.st22{fill:#5B1010;}
	.st23{opacity:0.6;}
	.st24{fill:#A52323;}
	.st25{opacity:0.2;}
	.st26{fill:url(#SVGID_7_);}
	.st27{fill:#CE6117;}
	.st28{fill:url(#SVGID_8_);}
	.st29{fill:#8454D1;}
	.st30{clip-path:url(#SVGID_10_);fill:#393D47;}
	.st31{clip-path:url(#SVGID_10_);fill:#F0BA7A;}
	.st32{clip-path:url(#SVGID_10_);fill:#F1F3F7;}
	.st33{clip-path:url(#SVGID_10_);fill:#0076B7;}
	.st34{clip-path:url(#SVGID_10_);fill:#004868;}
	.st35{opacity:0.4;clip-path:url(#SVGID_10_);fill:#DCDDE0;}
	.st36{clip-path:url(#SVGID_10_);fill:#FFFFFF;}
	.st37{clip-path:url(#SVGID_10_);}
	.st38{fill:#393D47;}
	.st39{fill:url(#SVGID_11_);}
	.st40{fill:#EAA56C;}
	.st41{clip-path:url(#SVGID_13_);fill:#F1F3F7;}
	.st42{clip-path:url(#SVGID_13_);fill:#F0BA7A;}
	.st43{opacity:0.4;clip-path:url(#SVGID_13_);fill:#DCDDE0;}
	.st44{clip-path:url(#SVGID_13_);fill:#0076B7;}
	.st45{clip-path:url(#SVGID_13_);fill:#FFFFFF;}
	.st46{clip-path:url(#SVGID_13_);}
	.st47{clip-path:url(#SVGID_13_);fill:#F7CFA2;}
	.st48{fill:#F1F3F7;}
	.st49{fill:none;}
	.st50{fill:#A85848;}
	.st51{fill:#E85646;}
	.st52{fill:#EA4E39;}
	.st53{fill:#DCFFC5;}
	.st54{fill:#8BAA77;}
	.st55{clip-path:url(#SVGID_15_);fill:#F1F3F7;}
	.st56{opacity:0.4;clip-path:url(#SVGID_15_);fill:#DCDDE0;}
	.st57{clip-path:url(#SVGID_15_);fill:#0076B7;}
	.st58{clip-path:url(#SVGID_15_);fill:#FFFFFF;}
	.st59{clip-path:url(#SVGID_15_);}
	.st60{fill:#595959;}
	.st61{opacity:0.3;fill:#595959;}
	.st62{clip-path:url(#SVGID_27_);fill:#F1F3F7;}
	.st63{opacity:0.4;clip-path:url(#SVGID_27_);fill:#DCDDE0;}
	.st64{clip-path:url(#SVGID_27_);fill:#0076B7;}
	.st65{clip-path:url(#SVGID_27_);fill:#FFFFFF;}
	.st66{clip-path:url(#SVGID_27_);}
	.st67{clip-path:url(#SVGID_27_);fill:#F7CFA2;}
	.st68{opacity:0.7;fill:#7BCDDB;}
	.st69{fill:none;stroke:#F0BA7A;stroke-width:3;stroke-miterlimit:10;}
	.st70{clip-path:url(#SVGID_41_);fill:#F1F3F7;}
	.st71{opacity:0.4;clip-path:url(#SVGID_41_);fill:#DCDDE0;}
	.st72{clip-path:url(#SVGID_41_);fill:#0076B7;}
	.st73{clip-path:url(#SVGID_41_);fill:#FFFFFF;}
	.st74{clip-path:url(#SVGID_41_);}
	.st75{clip-path:url(#SVGID_41_);fill:#F7CFA2;}
	.st76{fill:#9E9E9E;}
	.st77{fill:#878787;}
	.st78{fill:#DDBD00;}
	.st79{clip-path:url(#SVGID_43_);fill:#F1F3F7;}
	.st80{opacity:0.4;clip-path:url(#SVGID_43_);fill:#DCDDE0;}
	.st81{clip-path:url(#SVGID_43_);fill:#0076B7;}
	.st82{clip-path:url(#SVGID_43_);fill:#FFFFFF;}
	.st83{clip-path:url(#SVGID_43_);}
	.st84{clip-path:url(#SVGID_43_);fill:#F7CFA2;}
	.st85{clip-path:url(#SVGID_45_);}
	.st86{opacity:0.4;fill:#DCDDE0;}
	.st87{fill:#0076B7;}
	.st88{opacity:0.3;}
	.st89{fill:#DCDDE0;}
	.st90{fill:#004868;}
	.st91{fill:#E02B41;}
	.st92{fill:#C69018;}
	.st93{fill:#EFE91B;}
	.st94{fill:#656D60;}
	.st95{clip-path:url(#SVGID_47_);fill:#F0BA7A;}
	.st96{clip-path:url(#SVGID_47_);fill:#F1F3F7;}
	.st97{opacity:0.4;clip-path:url(#SVGID_47_);fill:#DCDDE0;}
	.st98{clip-path:url(#SVGID_47_);fill:#0076B7;}
	.st99{clip-path:url(#SVGID_47_);fill:#FFFFFF;}
	.st100{clip-path:url(#SVGID_47_);}
	.st101{clip-path:url(#SVGID_47_);fill:#F7CFA2;}
	.st102{clip-path:url(#SVGID_49_);fill:#F1F3F7;}
	.st103{clip-path:url(#SVGID_49_);}
	.st104{fill:#B23C18;}
	.st105{fill:#6B2A05;}
	.st106{fill:#B23C18;stroke:#6B2A05;stroke-miterlimit:10;}
	.st107{fill:#DDAA78;}
	.st108{fill:#211205;}
	.st109{fill:none;stroke:#6B2A05;stroke-width:0.729;stroke-miterlimit:10;}
	.st110{fill:#B23C18;stroke:#6B2A05;stroke-width:0.729;stroke-miterlimit:10;}
	.st111{fill:#B72C34;}
	.st112{clip-path:url(#SVGID_51_);fill:#F1F3F7;}
	.st113{clip-path:url(#SVGID_51_);}
	.st114{clip-path:url(#SVGID_51_);fill:#F7CFA2;}
	.st115{fill:#F2C85F;}
	.st116{clip-path:url(#SVGID_53_);fill:#F0BA7A;}
	.st117{clip-path:url(#SVGID_53_);fill:#F1F3F7;}
	.st118{opacity:0.4;clip-path:url(#SVGID_53_);fill:#DCDDE0;}
	.st119{clip-path:url(#SVGID_53_);fill:#0076B7;}
	.st120{clip-path:url(#SVGID_53_);fill:#FFFFFF;}
	.st121{clip-path:url(#SVGID_53_);}
	.st122{clip-path:url(#SVGID_53_);fill:#F7CFA2;}
	.st123{clip-path:url(#SVGID_55_);}
	.st124{fill:#F4F0A6;}
	.st125{fill:#9E921E;}
	.st126{clip-path:url(#SVGID_57_);fill:#F0BA7A;}
	.st127{clip-path:url(#SVGID_57_);fill:#F1F3F7;}
	.st128{clip-path:url(#SVGID_57_);}
	.st129{clip-path:url(#SVGID_57_);fill:#393D47;}
	.st130{clip-path:url(#SVGID_57_);fill:#FFFFFF;}
	.st131{opacity:0.4;clip-path:url(#SVGID_57_);fill:#DCDDE0;}
	.st132{clip-path:url(#SVGID_57_);fill:#0076B7;}
	.st133{fill:#1F74C9;}
	.st134{clip-path:url(#SVGID_59_);}
	.st135{fill:#023142;}
	.st136{clip-path:url(#SVGID_61_);fill:#F7CFA2;}
	.st137{clip-path:url(#SVGID_61_);}
	.st138{opacity:0.3;fill:#E57257;}
	.st139{fill:#777777;}
	.st140{clip-path:url(#SVGID_63_);fill:#F1F3F7;}
	.st141{opacity:0.4;clip-path:url(#SVGID_63_);fill:#DCDDE0;}
	.st142{clip-path:url(#SVGID_63_);fill:#0076B7;}
	.st143{clip-path:url(#SVGID_63_);fill:#FFFFFF;}
	.st144{clip-path:url(#SVGID_63_);}
	.st145{clip-path:url(#SVGID_63_);fill:#F7CFA2;}
	.st146{clip-path:url(#SVGID_65_);fill:#F0BA7A;}
	.st147{clip-path:url(#SVGID_65_);fill:#F1F3F7;}
	.st148{opacity:0.4;clip-path:url(#SVGID_65_);fill:#DCDDE0;}
	.st149{clip-path:url(#SVGID_65_);fill:#0076B7;}
	.st150{clip-path:url(#SVGID_65_);fill:#FFFFFF;}
	.st151{clip-path:url(#SVGID_65_);}
	.st152{clip-path:url(#SVGID_65_);fill:#F7CFA2;}
</style>
<g id="Layer_1">
	<circle class="st29" cx="150" cy="217.4" r="99.7"/>
	<g>
		<defs>
			<path id="SVGID_22_" d="M248,218.6c0,55.1-44.7,99.7-99.7,99.7s-99.7-44.7-99.7-99.7S93.2,52.8,148.3,52.8
				C203.3,52.8,248,163.5,248,218.6z"/>
		</defs>
		<clipPath id="SVGID_2_">
			<use xlink:href="#SVGID_22_"  style="overflow:visible;"/>
		</clipPath>
	</g>
	<path class="st11" d="M138.8,171.8c0.1,0.2,0.2,0.4,0.3,0.6C139,172.2,138.9,172,138.8,171.8z"/>
	<path class="st9" d="M255,115.5c-6.5,6.5-10.8,16.9-19.3,23.5l-0.1-1c-1.6,5.1-7.6,5.6-10.4,8.8c-1.8,3.1,7.2,2.5,3.5,6.8
		c18.3-8.1,30.5-24,37.5-42.1c-0.9-2-2.3-3.9-4.3-5.6c-2.1-1.9-4.4-4.8-6.6-6.5C257,105.7,257.8,111.6,255,115.5z"/>
	<g>
		<defs>
			<path id="SVGID_48_" d="M250,210.2c4.1,54.9-37.1,102.8-92,106.9c-51.4,3.9-104.5,0.6-113.5-48.9c-0.6-3.4-14.2-46.3-14.5-49.8
				C27.3,182,12.3,115.9,41.9,77.5C57,57.8,106.6,55,150.8,54.5C205.9,54,245.9,155.3,250,210.2z"/>
		</defs>
		<clipPath id="SVGID_3_">
			<use xlink:href="#SVGID_48_"  style="overflow:visible;"/>
		</clipPath>
		<path style="clip-path:url(#SVGID_3_);fill:#F1F3F7;" d="M180.6,245.3c11-2,15-14,13.7-24.2c0.4-1.9,8.2-3.7,8.3-3.5
			c0.6,2.1,1.4,4.2,2.4,6.2c2.6,6.4,6.6,11.4,13.5,13.2c1.4,0.3,2.8,0.5,4.2,0.5c1.4,0.1,2.9,0.1,4.4,0.1c0.9,1.7,1.7,3.3,2.5,5
			c11.8,25.4,11.9,55.5,4,83.2c-1.7,0.5-3.4,1-5.1,1.5c-7,2.8-15,3.8-22,8.8c0-3-3-6-3-6c-6.4-1.6-11.4-4.4-15.3-8.1
			c-1.9-1.8-3.6-3.9-5-6.1c-9.7-19.8-21.7-51.8-4.1-70.2C179.7,245.8,180.1,245.5,180.6,245.3z"/>
		<g style="clip-path:url(#SVGID_3_);">
			<path class="st48" d="M225.8,221.4c-1.5-0.6-3-1.1-4.5-1.5c-1.2-0.5-2.5-1-3.7-1.5c-1.3-0.7-2.6-1.2-3.9-1.5
				c-1.6-0.2-3.3-0.3-5.1-0.4c-5,0.1-10.3,0.6-15.4,1.8c-1.7,0.4-3.4,0.9-5,1.5c-3,2-7,2-8.7,4.9c-1.3,1.1-2.4,2.2-3.5,3.6
				c-1,1.3-1.9,2.8-2.7,4.4c-4,11,5,21,9.7,30.4c0.6,1.6,1.2,3.3,1.5,5c-0.1,1.8-0.1,3.6-0.2,5.4c-0.1,1.8-0.2,3.6-0.4,5.5
				c9.6,4,19,8.6,27.5,14.4c0.6-0.5,1.3-1.1,2-1.6c1.1-1.2,2.1-2.5,3.1-3.7c6.2-7.5,11.5-15.5,15.7-24.5c0.7-1,1.4-2.1,2-3.3
				c1.9-3.4,3.4-7.2,5-10.9c0.7-1.5,1.3-3.1,1.8-4.7C245.2,233.3,236.1,225.3,225.8,221.4z"/>
			<path class="st87" d="M180.2,292.2l6.5,13l11.4-8.8c0,0,0.2-3.2,0.5-8.2c0.1-1.7,0.2-3.5,0.3-5.5c0.7-5.4,0.2-10.7-0.5-15.9
				c-0.3-1.8-0.5-3.5-0.8-5.3c-1.3-10.7-1.3-21.7,3.7-31.7c0-1-3.5-2.5-4.5-2.5c-5.3,4.9-9.5,11.5-10.5,18.5c0,6-2,11-0.4,16.6
				c0.1,1.4,0.1,2.8,0.1,4.2c0,4.2-0.6,8.4-2.3,12.7c-0.5,1.9-1,3.6-1.4,5.2C181,289.2,180.2,292.2,180.2,292.2z"/>
			<path class="st87" d="M196.7,220c1.6-1.2,3.6-3.2,5.6-3.2c2.8,2.2,4.8,8.4,4.8,8.4s-4.5,2.8-5.8,4.6c-2-2-4.6-2.3-4.6-2.3
				L196.7,220z"/>
			<path class="st9" d="M202,216.1l-0.1,0.5c0,0,4.6,13,11.9,10.5s7.5-7.8,7.5-7.8l-2-5.1L202,216.1z"/>
		</g>
		<g style="clip-path:url(#SVGID_3_);">
			<path class="st48" d="M83.7,268c1.2-0.5,2.4-0.8,3.6-1.2c1-0.4,2-0.8,3-1.2c1.1-0.6,2.1-1,3.1-1.2c1.3-0.2,2.7-0.3,4-0.3
				c10.6,0.2,23.4,2.6,28.2,13c3.2,8.8-4,16.8-7.8,24.3c-0.5,1.3-0.9,2.6-1.2,4c0,1.4,0.1,2.8,0.2,4.3c0.1,1.4,0.1,2.9,0.3,4.4
				c-7.7,3.2-15.2,6.9-22,11.5c-0.5-0.4-1-0.8-1.6-1.2c-0.9-1-1.7-2-2.5-3c-4.9-6-9.2-12.4-12.6-19.6c-0.6-0.8-1.1-1.7-1.6-2.6
				c-1.5-2.7-2.8-5.8-4-8.7c-0.6-1.2-1.1-2.5-1.5-3.8C68.2,277.5,75.4,271.2,83.7,268z"/>
			<path class="st87" d="M120.1,324.7l-5.2,10.4l-9.1-7c0,0-0.2-2.5-0.4-6.5c-0.1-1.3-0.2-2.8-0.3-4.4c-0.6-4.3-0.2-8.5,0.4-12.8
				c0.2-1.4,0.4-2.8,0.7-4.2c1-8.6,1-17.4-3-25.4c0-0.8,2.8-2,3.6-2c4.2,3.9,7.6,9.2,8.4,14.8c0,4.8,1.6,8.8,0.4,13.2
				c0,1.1-0.1,2.2-0.1,3.3c0,3.4,0.4,6.7,1.8,10.2c0.4,1.5,0.8,2.9,1.1,4.2C119.5,322.2,120.1,324.7,120.1,324.7z"/>
			<path class="st87" d="M106.9,266.8c-1.3-0.9-2.9-2.5-4.5-2.5c-2.2,1.8-3.9,6.7-3.9,6.7s3.6,2.3,4.7,3.7c1.6-1.6,3.7-1.9,3.7-1.9
				L106.9,266.8z"/>
			<path class="st9" d="M102.6,263.7l0.1,0.4c0,0-3.6,10.4-9.5,8.4c-5.9-2.1-6-6.2-6-6.2l1.6-4.1L102.6,263.7z"/>
		</g>
	</g>
	<path class="st48" d="M207.3,203.5c-2.4,1.3-4.9,2.1-7.4,2.6c-1.3,0.3-2.5,0.5-3.8,0.7c-20.8,9.1-31.8-13.9-48.2-23.5
		c-1.5-0.4-3.2-0.5-4.8-0.4c-3.2,0.3-6.2,1.6-7.4,4.4c-2.1,4.4-0.5,8.5,2.1,12.4c0.9,1.3,1.9,2.5,2.9,3.8
		c6.6,6.4,11.6,14.4,17.9,22.6c1.1,1.2,2.2,2.4,3.4,3.6s2.4,2.3,3.7,3.3c3.9,3.2,8.6,3.2,13.5,3.4c7,0.3,13.7-0.2,20.7-0.9
		c3.8-0.4,7.6-1.2,11.3-2.1c1.1-0.2,1.9,0.3,2.7-0.9"/>
	<path class="st22" d="M172.1,185.3c4.2,3.5,15.2,13.5,14.2,5.5c0-4-5-13-14.4-10.4C170.7,181.9,170.8,184.1,172.1,185.3z"/>
	<path class="st104" d="M132.3,191.9l11.5-8.7c0,0-5-5.1-5.3-11.9c-0.3-6.8,2.4-6.6,2.4-6.6s-19.7-9.1-19.5-9.2s-3.3,16.5-3.3,16.5
		L132.3,191.9z"/>
	<g>
		<path class="st104" d="M139.8,179c5.4-10.2,4.4-19.2-7.6-22.1"/>
		<g>
			<path class="st105" d="M141.2,179.1c2.3-4.4,4.3-9.7,2.7-14.6c-1.6-4.8-6.2-7.1-10.8-8.3c-1-0.3-3.4,1.2-1.8,1.6
				c4.4,1.2,8.7,3.5,9.9,8.3c1,4.4-0.8,9-2.8,12.9C137.8,180.2,140.7,180,141.2,179.1L141.2,179.1z"/>
		</g>
	</g>
	<g>
		<path class="st104" d="M134.5,189.6c-3.2-0.7-6.6-1.8-9.8-3.1c-1.6-0.7-3.2-1.4-4.7-2.2c-4.9-2.2-10.6-5.5-14.7-10
			c-1-1.1-1.9-2.3-2.7-3.5c-1.9-3.8-2.6-7.6-2.3-11.4c0.1-1.9,0.5-3.7,1-5.5c4-11.1,14-23.1,27-21.1c6,1,11,4,15,9c2,4,5,8,4,13
			c0,1.2-0.2,2.4-0.5,3.6c-0.9,3.5-3.1,6.6-5.9,8.9c-1,0.8-2,1.4-3.1,2c-0.8,1.3-2.2,1.7-3.7,1.8c-3.9,0.9-8.1,0.6-11.2-1.2
			c-1-0.6-2-1.4-2.7-2.3c-1.9-1.7-1.9-4.7-2.1-8"/>
		<g>
			<path class="st105" d="M135.4,188.7c-11.1-2.7-27.9-9.1-32.3-20.7c-4.4-11.5,3.1-25.7,13.1-31.8c11.7-7.1,28.5,2.4,29.8,15.9
				c0.7,7.8-4.2,15.6-11.7,18.1c-3.6,1.2-9.1,0.5-12-2.3c-2.5-2.4-2.6-5.4-2.8-8.7c-0.1-1.1-3-0.5-2.9,0.8c0.3,5.7,1.7,9.8,7.5,11.7
				c4.2,1.4,10.1,1.2,13.9-1c11.4-6.8,14.1-20.2,5.5-30.6c-6.8-8.2-18.8-10.6-28.1-5.6c-9.6,5.2-17.5,17.5-16.6,28.6
				c1.4,16,21.2,24.1,34.8,27.4C134.7,190.7,137.1,189.1,135.4,188.7L135.4,188.7z"/>
		</g>
	</g>
	<path class="st48" d="M227.6,240.4c-4,9-12,19-23,13c-2-2-6-4-7-7c-1-2-1.3-4-1.5-5.9s-0.5-3.6-1.5-5.1c-2-3-4-4-7-4
		c-11,0-9,12-9,20c-1,5,1,10,4,14c3,3,6,5,9,8c1.5,1.2,3,2.4,4.5,3.4c12.5,8.6,34.5,8.6,40.5-6.4c3-7,5-14,3.9-21.7"/>
	<path class="st106" d="M189.9,207.3c-5.9-0.4-12.9-5.4-15.9-2.4c-1.5,2-1,5-0.2,8.3c0.2,0.7,0.3,1.3,0.5,2c0,0.4,0.1,0.9,0.2,1.3
		s0.2,0.9,0.3,1.4c0.3,0.4,0.4,1.2,0.5,2c0,0.7,0,1.3,0,2c0.1,2.9-0.9,5.9,0.1,7.9c4,7,12,3,15.5-2.4c0.4-0.5,0.8-1.1,1.1-1.7
		c0.3-0.6,0.6-1.2,0.8-1.9c0.2-0.5,0.4-1,0.6-1.5c0.2-0.5,0.3-1,0.5-1.5c0.2-0.6,0.4-1.3,0.5-1.9c0.3-2-0.1-4.1-1.4-6.3
		c0.2-0.4,0.5-0.9,0.7-1.3c0.5-0.8,0.9-1.7,1.3-2.6"/>
	<g>
		<g>
			<path class="st11" d="M249.1,172.4c0.2,0,0.3,0,0.5,0C249.5,172.4,249.3,172.4,249.1,172.4z"/>
			<path class="st11" d="M248.7,172.5c0.1,0,0.3,0,0.4,0C249,172.4,248.9,172.4,248.7,172.5z"/>
			<path class="st11" d="M247.2,173.2c-0.3,0.5-0.8,1.5-0.7,2l3.1-2.8c-0.2,0-0.3,0-0.5,0c-0.1,0-0.3,0-0.4,0
				C248.1,172.5,247.6,172.6,247.2,173.2z"/>
			<path class="st12" d="M215.4,186.7l-5.9-0.7c-5.8-0.7-10.1-6-9.4-11.8l2.1-17.9c0.7-5.8,6-10.1,11.8-9.4l5.9,0.7
				c5.8,0.7,10.1,6,9.4,11.8l-2.1,17.9C226.6,183.1,221.2,187.4,215.4,186.7z"/>
			
				<ellipse transform="matrix(0.1151 -0.9933 0.9933 0.1151 -4.9789 316.4517)" class="st11" cx="175.1" cy="161" rx="10.6" ry="10.6"/>
			<ellipse transform="matrix(0.1151 -0.9933 0.9933 0.1151 -4.9789 316.4517)" class="st12" cx="175.1" cy="161" rx="7" ry="7"/>
			
				<ellipse transform="matrix(0.1151 -0.9933 0.9933 0.1151 60.9135 410.2695)" class="st11" cx="260.7" cy="170.9" rx="10.6" ry="10.6"/>
			<ellipse transform="matrix(0.1151 -0.9933 0.9933 0.1151 60.9135 410.2695)" class="st12" cx="260.7" cy="170.9" rx="7" ry="7"/>
			<path class="st11" d="M262.4,161.7c11.7-47.3-15.3-37.8-39.4-40.6c-24-2.8-45.3,10.9-47.6,30.5c-0.4,3.7-1.8,15.5-2.5,21.9
				c-0.1,1.3-0.3,2.3-0.4,3.1c-1.3,15.2,9.7,26.2,22,33.7c1.5,1,3.1,1.8,4.6,2.6c4.6,2.4,9,3.9,12.7,4.3
				c13.1,1.5,45.3-10.9,47.6-30.5C260.1,182.3,261.4,166,262.4,161.7z"/>
			<path class="st13" d="M248.3,149.4c-0.9-1.2,1.4-3,1.4-3c6.4-0.3,6.2,10.2,12.8,7.8c2.2-0.8,1.6-5.1,2-8.2
				c1.7,6.9,4.2,1.9,8.2,0.4c0.8-3.4,1.4-6.3,1.6-7.9c2.7-23.5-15.9-40.4-39.3-43.1c-22.9-2.7-37.3,10.1-40.8,32.7
				c18.6-4,29.5,6.3,40,18.3C239,147,243.2,148.8,248.3,149.4z"/>
			<path class="st13" d="M221.7,114.4c0.5-0.5,0.4-1.2-0.1-1.6c0,0,0,0,0,0c-12.3-10.7-31-9.4-41.7,2.9c-7.4,8.5-9.1,20-5.4,29.9
				c0.2,0.6,1,0.9,1.6,0.6C192.6,137.4,208.8,127.5,221.7,114.4z"/>
			<g>
				<path class="st15" d="M253.8,170c-1,8.7-5.7,15.4-14.4,14.4s-13.4-8.7-12.4-17.5s7.3-15.2,16.1-14.2
					C251.7,153.7,254.8,161.2,253.8,170z"/>
				
					<ellipse transform="matrix(0.1151 -0.9933 0.9933 0.1151 44.6223 388.3879)" class="st9" cx="240.3" cy="169.1" rx="13.8" ry="13.8"/>
				<g>
					
						<ellipse transform="matrix(0.1151 -0.9933 0.9933 0.1151 35.0218 387.0593)" class="st13" cx="234.8" cy="173.9" rx="6.6" ry="6.6"/>
					<ellipse transform="matrix(0.1151 -0.9933 0.9933 0.1151 35.0218 387.0593)" cx="234.8" cy="173.9" rx="2.6" ry="2.6"/>
					
						<ellipse transform="matrix(0.1151 -0.9933 0.9933 0.1151 37.0289 382.9498)" class="st16" cx="233.5" cy="170.7" rx="1.9" ry="1.9"/>
				</g>
				<path class="st11" d="M254.1,170.7c0.9-7.6-4.6-14.5-12.1-15.3c-7.2-0.8-13.7,4-15.1,11C235.8,167.9,245,169.2,254.1,170.7
					C254,170.8,254.1,170.8,254.1,170.7z"/>
			</g>
			<path class="st20" d="M232.2,205.4c0,0-9.5-0.9-18.5-1.9c-9-1-13.9-3.5-13.9-3.5s6-1.6,15.1-0.5
				C223.8,200.4,232.2,205.4,232.2,205.4z"/>
			<path class="st12" d="M214.8,190.5L214.8,190.5c-3.5-0.4-6-3.6-5.6-7l2.6-22.8c0.4-3.5,3.6-6,7-5.6h0c3.5,0.4,6,3.6,5.6,7
				l-2.6,22.8C221.4,188.4,218.3,190.9,214.8,190.5z"/>
			<path class="st11" d="M214,186.6L214,186.6c-3.5-0.4-6-3.6-5.6-7l2.6-22.8c0.4-3.5,3.6-6,7-5.6h0c3.5,0.4,6,3.6,5.6,7L221,181
				C220.6,184.5,217.4,187,214,186.6z"/>
			<path class="st13" d="M192,127.3c0,0,10.7,6.3,15.7,10.5c6.9,5.8,22.6,8.2,22.6,8.2s-9.6-16.7-17-19.8
				C205.8,123,192,127.3,192,127.3z"/>
			<path class="st13" d="M189.9,105.6c0,0,4.5,0.3,6.8,0.9c3.2,0.8,8.7-1,8.7-1s-5.9-3.9-8.8-3.7
				C193.7,101.9,189.9,105.6,189.9,105.6z"/>
			<path class="st13" d="M211.4,93.9c0,0-1.8,4.2-2.3,6.5c-0.8,3.2-4.9,7.3-4.9,7.3s-0.8-7,0.7-9.5S211.4,93.9,211.4,93.9z"/>
			
				<ellipse transform="matrix(0.1151 -0.9933 0.9933 0.1151 -13.6247 341.0357)" class="st12" cx="184.6" cy="178.2" rx="0.8" ry="1.6"/>
			
				<ellipse transform="matrix(0.1151 -0.9933 0.9933 0.1151 -8.8181 347.8794)" class="st12" cx="190.9" cy="178.9" rx="0.8" ry="1.6"/>
			<path class="st12" d="M188.9,181.8c-0.7,1-1.7,2-2.7,0c0,0,1-1,1.2-1C188.3,181,189,181.4,188.9,181.8z"/>
			
				<ellipse transform="matrix(0.1151 -0.9933 0.9933 0.1151 29.4745 402.4007)" class="st12" cx="240.6" cy="184.7" rx="0.8" ry="1.6"/>
			
				<ellipse transform="matrix(0.1151 -0.9933 0.9933 0.1151 34.2812 409.2444)" class="st12" cx="246.9" cy="185.4" rx="0.8" ry="1.6"/>
			
				<ellipse transform="matrix(0.1151 -0.9933 0.9933 0.1151 28.456 408.2258)" class="st12" cx="243.4" cy="188.1" rx="0.8" ry="1.6"/>
			<path class="st21" d="M177.6,135.1l-3.7,36.5l3.9-2.8l5.3-21.7c0,0,7.1-13.6,14.6-15.6c7.4-2,21.5-1.1,21.5-1.1l-11-7.2
				L177.6,135.1z"/>
			<path class="st21" d="M265.9,143.5l-5.9,33.3L257,178l-0.1-22.3c0,0-3.8-14.9-10.6-18.5s-20.7-6-20.7-6l12.4-4.5L265.9,143.5z"/>
			<path class="st22" d="M236,155.9l17.6-6.3c2.5-0.9,3.8-3.6,2.9-6.1l0,0c-0.9-2.5-3.7-3.8-6.1-2.9l-17.6,6.3
				c-2.5,0.9-3.8,3.6-2.9,6.1v0C230.7,155.4,233.5,156.7,236,155.9z"/>
			<g class="st23">
				<path class="st11" d="M227.2,102.1c2.8,1.8,6.5,1.3,9.6,2c3.1,0.7,5.6,2.5,8.8,2.9c0.7,0.1,1.3-0.9,0.5-1.3
					c-2.8-1.3-5.7-3-8.8-3.7c-3.1-0.7-7.2-1.4-10.1-0.4C227.1,101.7,227.1,102,227.2,102.1L227.2,102.1z"/>
			</g>
			<g>
				<path class="st15" d="M216.8,162c-1,8.7-5.7,15.4-14.4,14.4s-13.4-8.7-12.4-17.5s7.3-15.2,16.1-14.2
					C214.7,145.7,217.8,153.2,216.8,162z"/>
				
					<ellipse transform="matrix(0.1151 -0.9933 0.9933 0.1151 19.8294 344.5552)" class="st9" cx="203.3" cy="161.1" rx="13.8" ry="13.8"/>
				<g>
					
						<ellipse transform="matrix(0.1151 -0.9933 0.9933 0.1151 11.2223 342.3417)" class="st13" cx="197.8" cy="164.9" rx="6.6" ry="6.6"/>
					<ellipse transform="matrix(0.1151 -0.9933 0.9933 0.1151 11.2223 342.3417)" cx="197.8" cy="164.9" rx="2.6" ry="2.6"/>
					
						<ellipse transform="matrix(0.1151 -0.9933 0.9933 0.1151 13.2294 338.2322)" class="st16" cx="196.5" cy="161.7" rx="1.9" ry="1.9"/>
				</g>
				<path class="st11" d="M217.1,162.7c0.9-7.6-4.6-14.5-12.1-15.3c-7.2-0.8-13.7,4-15.1,11C198.8,159.9,208,161.2,217.1,162.7
					C217,162.8,217.1,162.8,217.1,162.7z"/>
			</g>
			<path class="st22" d="M196.7,147.7l17.9,5.3c2.5,0.7,5.2-0.7,5.9-3.2v0c0.7-2.5-0.7-5.2-3.2-5.9l-17.9-5.3
				c-2.5-0.7-5.2,0.7-5.9,3.2v0C192.8,144.3,194.2,147,196.7,147.7z"/>
		</g>
	</g>
	<g>
		<path class="st104" d="M179.9,235.6c-0.9-0.7-1.8-1.4-2.6-2.2c-1.2-1-2.4-2.2-3.5-3.4c-1.1-1.2-2.2-2.4-3.2-3.7
			c-0.9-1.1-1.8-2.4-2.7-3.7c-0.9-1.3-1.6-2.7-2.4-4.1c-0.8-1.5-1.6-3.1-2.4-4.8c-0.8-1.8-1.6-3.6-2.3-5.6c-0.4-1.5-0.9-3.2-1.3-4.8
			c-0.4-1.7-0.8-3.3-1.2-5c-3-10.4,3-19.4,13-21.4c6-1,11,1,16,4c3,2,6,5,8,8c2,5,6,8,6.1,13.7c0.2,1.1,0.3,2.2,0.3,3.3
			c1.1,6-3,11.1-8.2,12.7c-1.3,0.4-2.7,0.6-4.1,0.5c-1.1-0.6-2.3-0.8-3.6-1.1c-1.3-0.3-2.5-0.5-3.5-1c-0.7-0.8-1.5-1.5-2.4-2.2
			c-1.1-0.5-2.2-1.1-3.2-1.7c-1-0.7-2-1.5-2.9-2.3c-4.5-2.7-4.5-8.7-2.7-14"/>
		<g>
			<path class="st105" d="M181,234.8c-1.2-1-2.4-2-3.5-3.2c-1.1-1.1-2.1-2.3-3.1-3.6c-1.3-1.4-2.4-2.9-3.4-4.5
				c-1-1.6-1.9-3.3-2.6-5.1c-0.6-1.3-1.3-2.8-2-4.4c-7.1-10.2-12.6-27.1-0.4-35c1.1-0.7,2.5-1.1,3.8-1.3c4-0.9,8.5-0.4,12.5,1.1
				c3,1,6,3,8,5c1,1,1.8,2,2.4,3c0.7,1,1.3,1.9,1.9,2.7c0.6,1,1.2,2.1,1.7,3.2c1.6,3.3,2.8,6.9,3.7,10.5c0.1,0.6,0.2,1.1,0.2,1.7
				c1,7-3,16-12.3,13.2c-0.6-0.1-1.2-0.3-1.8-0.5c-1.7-0.6-3.4-1.6-4.9-2.8c-0.7-0.6-1.3-1.2-1.9-1.9c-1.2-1.4-6.4-5.2-7.1-12.9
				c0.2,1.3,0.3,5.9,1.9,8.4c0.3,0.5,0.7,1,1,1.5c1.2,2.4,3.1,4.7,5.3,6.4c0.6,0.4,2.9,2.4,3.5,2.7c1.4,0.6,6.5,2.4,7.9,2.1
				c8.1-0.8,10.4-6.7,10.5-13.8c0.1-9.9-6-18.5-8.8-21.8c-1-1.2-2.2-2.2-3.5-3.2c-5.5-4.7-13.7-7-20.4-5.9c-1.3,0.2-2.6,0.6-3.8,1.1
				c-14.6,7.5-7.6,27.5-1.1,39c0.5,1.5,1,3,1.5,4.5c1,1,1.5,2.5,2.1,3.9c0.6,1.4,1.2,2.6,2.5,3.1c1.1,1.6,2.3,3.1,3.6,4.5
				c1.3,1.4,2.8,2.7,4.3,4C179.6,237,182.2,235.8,181,234.8L181,234.8z"/>
		</g>
	</g>
	<g>
		<path class="st105" d="M138.5,178.9c1.3,2.1-3.6,5.6-1.2,7.1c0.6,0.3,1.3,0.2,1.9-0.1c0.2-0.1,1.3-0.7,0.8-1
			c-1.8-1.1,2.6-4.9,1.4-6.8C140.8,177.3,138.1,178.3,138.5,178.9L138.5,178.9z"/>
	</g>
	<g>
		<path class="st105" d="M137.2,170.9c0.9,0,3.1-1.4,1.2-1.4C137.4,169.5,135.2,170.9,137.2,170.9L137.2,170.9z"/>
	</g>
	<path class="st106" d="M179.4,234.8c1.2,1.7,2.6,1.3,4.1,0.9c3.4-1,6.1-0.3,10.1-0.4c-1-5.3-3.7-6.5-0.6-11.4"/>
	<g>
		<path class="st9" d="M135.8,195.2c2.2-7,10.3-11.8,10.5-11.4c0.5,0.9-4.2-6.2-6.5-6c-4.7,1.3-8.8,9.5-9.8,11.3
			c-1.4,2.5,2.1,4.2,5.3,6"/>
	</g>
	<g>
		<path class="st9" d="M180.5,240.5c5.5-4.8,14.9-4.8,14.9-4.3c0,1-0.4-7.5-2.4-8.5c-4.7-1.3-12.4,3.6-14.2,4.6
			c-2.5,1.4-0.3,4.7,1.4,7.8"/>
	</g>
	<g>
		<path class="st11" d="M166.8,248.6c-0.1,0.1-0.2,0.3-0.2,0.4C166.6,248.9,166.7,248.7,166.8,248.6z"/>
		<path class="st48" d="M126.4,262.2c2.9,3.1,5.9,7.1,10.9,9.1c9,3,13-9,16.7-16.3c0.8-1.9,1.5-3.8,2.3-5.7c1-1,4-2,6-1
			c10,9,3,23-1,33c-2,3-4,5-7,7c-2,1-4.1,1.6-6.1,2.1c-2.1,0.4-4.2,0.7-6.2,0.9c-3.6,0-7.6,2-11.6,2.9"/>
		<path class="st104" d="M167.5,252.7l-11.7-2c0,0,2.5-4.2,0.1-8.5c-2.4-4.4-4-3.2-4-3.2s2.2-3.3,4.4-6.6c1.1-1.6,2.2-3.3,3-4.5
			c0.8-1.2,1.3-2,1.3-2c-0.1,0,2,2.3,4.1,4.5c2.1,2.3,4.2,4.5,4.2,4.5L167.5,252.7z"/>
		<g>
			<path class="st104" d="M158.6,248.6c-0.3-1.1-2.7-4.6-3.6-5.3c-0.9-0.6-1.9-1.1-2.8-1.7c-1.2-0.7-2.2-1.5-3.2-2.5
				c-0.9-0.9-1.7-1.9-2-3.1c-0.4-1.4,4.7-5.9,5.7-7"/>
			<g>
				<path class="st105" d="M159.7,248.3c-0.6-1.6-1.7-3.3-2.9-4.5c-1.6-1.8-4-2.5-5.8-4.1c-2.9-2.5-3.6-4-1.2-6.7
					c1.2-1.4,2.6-2.6,3.9-4c0.5-0.5-1.5-0.3-1.9,0.1c-1.9,2-6.9,5.2-5.3,8.3c1.3,2.7,4.3,4.1,6.7,5.6c2,1.3,3.6,3.6,4.5,5.8
					C157.8,249.4,159.8,248.8,159.7,248.3L159.7,248.3z"/>
			</g>
		</g>
		<g>
			<path class="st104" d="M165.2,252.4c4.3-2.4,7-5.6,8.7-9.2c0.2-0.5,0.4-1,0.6-1.6c0.2-0.6,0.4-1.2,0.6-1.7
				c0.2-0.6,0.4-1.2,0.7-1.8c0.3-0.6,0.6-1.2,0.8-1.8s0.4-1.3,0.6-1.9c0.6-3.7,0.6-7.5-0.4-10.9c-0.2-0.6-0.4-1.1-0.6-1.6
				c-1.9-4.9-7.9-9.9-15.2-7.9c-0.6,0.1-1.2,0.3-1.7,0.5c-2.8,1-5.2,2.9-6.6,5.3c-0.4,0.5-0.7,1-1,1.6c-0.6,1.1-1.1,2.3-1.4,3.6
				c-0.2,0.7-0.3,1.3-0.3,2c-0.1,0.4-0.2,0.8-0.2,1.2c-0.1,0.8-0.2,1.6-0.2,2.4c-0.1,2.4,0.2,5,1.7,6.8c1,1.1,2.4,1.8,3.7,2.5
				c0.6,0.3,1.2,0.5,1.8,0.6c0.8,0.3,2,0.2,3.2-0.1c0.4-0.1,0.8-0.2,1.2-0.4c0.5-0.1,0.9-0.3,1.4-0.5c0.4-0.2,0.9-0.4,1.3-0.7
				c1.7-0.5,2.9-1.5,3.6-2.8c0.2-0.4,0.5-0.9,0.6-1.4c0.2-0.3,0.3-0.9,0.3-1.6c0.1-0.6,0.1-1.3,0.1-1.5c0-0.4,0-0.8,0-1.2
				c0-0.4,0-0.8-0.1-1.2c-0.5-0.5-0.7-1.1-0.8-1.6c-0.1-0.5-0.1-1.5-1-2.8"/>
			<g>
				<path class="st105" d="M165.8,252.7c9.8-6,16.5-21.3,10.9-32.3c-4.7-9.2-17.8-10.2-24.2-2.2c-5.4,6.7-7.2,23,5.2,22.9
					c3.5,0,8.7-2.1,10.6-5.2c2.2-3.6,0.9-8.2-0.8-11.6c-0.4-0.8-2.5-0.1-2.1,0.6c1.1,2,1.9,5,1.9,7.2c0,6-8.1,9.1-12.9,6.4
					c-7.8-4.3-3.2-18.8,2.9-22.5c12.2-7.7,20.3,6.3,19.1,16.5c-0.9,7.7-5.2,15.4-11.8,19.5C163.3,252.7,165.1,253.2,165.8,252.7
					L165.8,252.7z"/>
			</g>
		</g>
		<path class="st48" d="M102.5,280.2c-1.9,6.9-2,16.2,7,17.9c2.1-0.2,5.2,0.5,7.2-0.7c1.5-0.7,2.6-1.7,3.6-2.6c1-0.9,2-1.8,3.2-2.2
			c2.5-0.8,4.1-0.4,5.8,1c6.2,5.1-0.5,10.9-4.2,15.4c-1.7,3.3-5.2,5.2-8.7,6.1c-3.1,0.3-5.7,0.1-8.8,0.4c-1.4,0-2.8,0-4.1-0.2
			c-11-0.9-23.4-11-19.9-22.3c1.5-5.3,3.6-10.2,7.8-14.1"/>
		<g>
			<g>
				<path class="st11" d="M126.7,234.8c0.1-0.1,0.2-0.1,0.3-0.2C126.9,234.7,126.8,234.8,126.7,234.8z"/>
				<path class="st11" d="M126.4,235c0.1,0,0.2-0.1,0.3-0.1C126.6,234.9,126.5,234.9,126.4,235z"/>
				<path class="st11" d="M125.6,236c-0.1,0.4-0.1,1.2,0.2,1.5l1.2-2.8c-0.1,0.1-0.2,0.1-0.3,0.2c-0.1,0-0.2,0.1-0.3,0.1
					C126,235.2,125.7,235.4,125.6,236z"/>
				<path class="st12" d="M108.9,254.7l-4.1,1.4c-4.1,1.4-8.5-0.8-9.9-4.9l-4.2-12.5c-1.4-4.1,0.8-8.5,4.9-9.9l4.1-1.4
					c4.1-1.4,8.5,0.8,9.9,4.9l4.2,12.5C115.1,248.9,112.9,253.4,108.9,254.7z"/>
				
					<ellipse transform="matrix(0.9475 -0.3198 0.3198 0.9475 -76.1555 36.9143)" class="st107" cx="74.3" cy="250.3" rx="7.7" ry="7.7"/>
				
					<ellipse transform="matrix(0.9475 -0.3198 0.3198 0.9475 -76.1555 36.9143)" class="st12" cx="74.3" cy="250.3" rx="5.1" ry="5.1"/>
				
					<ellipse transform="matrix(0.9475 -0.3198 0.3198 0.9475 -66.6045 54.8954)" class="st107" cx="133.8" cy="230.3" rx="7.7" ry="7.7"/>
				
					<ellipse transform="matrix(0.9475 -0.3198 0.3198 0.9475 -66.6045 54.8954)" class="st12" cx="133.8" cy="230.3" rx="5.1" ry="5.1"/>
				<path class="st107" d="M132.1,223.7c-7-34.8-21.9-20.2-38.6-14.5c-16.7,5.6-26.5,21.3-21.9,34.9c1,3.1,4.8,14.3,5.9,17.4
					c4.6,13.7,28.2,18,38.6,14.5c9.1-3.1,26.5-21.3,21.9-34.9C136.9,238,132.7,226.8,132.1,223.7z"/>
				<path class="st108" d="M119,219.9c-1-0.5,0-2.4,0-2.4c4.1-2.2,7.3,4.8,10.9,1.2c1.2-1.2-0.5-3.9-1.2-6c3.3,4,3.3,0,5.5-2.2
					c-0.6-2.5-1-4.6-1.4-5.7c-5.5-16.3-23-21.7-39.3-16.2c-15.9,5.4-21.5,18.3-16.8,34.2c11-8.4,21.4-5,32.1-0.4
					C112.1,221.2,115.4,221.1,119,219.9z"/>
				<path class="st108" d="M90.5,205.1c0.2-0.4-0.1-0.9-0.5-1.1l0,0c-11.4-3.2-23.4,3.4-26.6,14.9c-2.2,7.9,0.2,16,5.8,21.4
					c0.4,0.3,0.9,0.3,1.2-0.1C78.5,229.3,86.1,217.8,90.5,205.1z"/>
				<g>
					<path class="st15" d="M128.9,231.8c2.1,6.1,1,11.9-5.1,14c-6.1,2.1-11.5-1.6-13.6-7.7c-2.1-6.1,0.1-12.3,6.2-14.3
						C122.5,221.7,126.9,225.7,128.9,231.8z"/>
					
						<ellipse transform="matrix(0.9475 -0.3198 0.3198 0.9475 -68.9947 50.6813)" class="st9" cx="119.8" cy="235.4" rx="10.1" ry="10.1"/>
					<g>
						
							<ellipse transform="matrix(0.9475 -0.3198 0.3198 0.9475 -68.6754 51.8765)" class="st13" cx="123.6" cy="235" rx="3.2" ry="3.2"/>
						<ellipse transform="matrix(0.9475 -0.3198 0.3198 0.9475 -68.6754 51.8765)" cx="123.6" cy="235" rx="1.2" ry="1.2"/>
						
							<ellipse transform="matrix(0.9475 -0.3198 0.3198 0.9475 -68.3841 51.4303)" class="st16" cx="122.4" cy="233.9" rx="0.9" ry="0.9"/>
					</g>
				</g>
				<path class="st20" d="M117,264.4c0.5-1.9-0.6-5.1,2.5-5.2c1.8-0.1,3.5,0.4,4.9,1.4c-1.1,0-2.2,0-3.4,0.2c-0.1,0-0.3,0-0.4,0.1
					c-0.1,0.1-0.2,0.2-0.2,0.3c-0.8,1.8-1.6,4.1-3.3,5.3c-1.6,1.3-3.8,1.1-5.7,0.6c-0.3,0-0.6,0-0.9-0.1c-0.9-0.2-1.7-0.5-2.7,0.5
					c-0.6,0.6-1.2,2.1-2.1,2.3c-0.6,0.1-2.3-0.9-2.4-1.8c0-0.4,0.5-0.5,0.9-0.3c0.3,0.2,0.5,0.5,0.9,0.7c0.5,0.2,1.1-0.3,1.3-0.8
					c0.2-0.5,0.2-1.1,0.3-1.6c0.3-1.2,1.3-1.9,2.3-2.1c0.3,0,0.7,0,1.1,0C112.5,266.7,115.5,262.7,117,264.4"/>
				<path class="st12" d="M109.6,257.4L109.6,257.4c-2.4,0.8-5-0.5-5.9-2.9l-5.3-15.8c-0.8-2.4,0.5-5,2.9-5.9h0
					c2.4-0.8,5,0.5,5.9,2.9l5.3,15.8C113.3,254,112,256.6,109.6,257.4z"/>
				<path class="st107" d="M107.9,255.1L107.9,255.1c-2.4,0.8-5-0.5-5.9-2.9l-5.3-15.8c-0.8-2.4,0.5-5,2.9-5.9h0
					c2.4-0.8,5,0.5,5.9,2.9l5.3,15.8C111.6,251.7,110.3,254.3,107.9,255.1z"/>
				<path class="st108" d="M74.9,222.9c0,0,9,0.8,13.6,2c6.3,1.7,17.5-1.6,17.5-1.6s-11.6-8-17.4-7.8
					C82.7,215.7,74.9,222.9,74.9,222.9z"/>
				<path class="st108" d="M66.8,209.2c0,0,3.1-1.2,4.8-1.5c2.3-0.5,5.5-3.4,5.5-3.4s-5.1-0.8-7,0.3
					C68.2,205.6,66.8,209.2,66.8,209.2z"/>
				<path class="st108" d="M77.3,194.8c0,0,0.1,3.3,0.5,5c0.5,2.3-0.9,6.3-0.9,6.3s-2.7-4.4-2.5-6.5
					C74.6,197.5,77.3,194.8,77.3,194.8z"/>
				
					<ellipse transform="matrix(0.9475 -0.3198 0.3198 0.9475 -78.2192 41.0568)" class="st12" cx="85.9" cy="258.7" rx="1.2" ry="0.6"/>
				
					<ellipse transform="matrix(0.9475 -0.3198 0.3198 0.9475 -77.5225 42.3684)" class="st12" cx="90.2" cy="257.2" rx="1.2" ry="0.6"/>
				
					<ellipse transform="matrix(0.9475 -0.3198 0.3198 0.9475 -78.5267 42.061)" class="st12" cx="88.8" cy="260.1" rx="1.2" ry="0.6"/>
				
					<ellipse transform="matrix(0.9475 -0.3198 0.3198 0.9475 -71.972 52.818)" class="st12" cx="124.8" cy="245.6" rx="1.2" ry="0.6"/>
				
					<ellipse transform="matrix(0.9475 -0.3198 0.3198 0.9475 -71.2753 54.1296)" class="st12" cx="129.2" cy="244.1" rx="1.2" ry="0.6"/>
				
					<ellipse transform="matrix(0.9475 -0.3198 0.3198 0.9475 -72.2795 53.8222)" class="st12" cx="127.7" cy="247" rx="1.2" ry="0.6"/>
				<path class="st108" d="M67.9,232.5l8.9,25.2l1.7-3l-3.3-15.9c0,0,0.5-11.2,4.7-14.8c4.3-3.6,13.8-7.5,13.8-7.5l-9.5-1.3
					L67.9,232.5z"/>
				<path class="st108" d="M128.7,210.6l6.5,23.8l-1.7,1.7l-7-14.7c0,0-7.2-8.6-12.8-8.9c-5.6-0.3-15.5,2.5-15.5,2.5l6.8-6.8
					L128.7,210.6z"/>
				<path class="st108" d="M110.9,227.1l12-6.6c1.7-0.9,2.3-3,1.4-4.7h0c-0.9-1.7-3.1-2.3-4.7-1.4l-12,6.6c-1.7,0.9-2.3,3-1.4,4.7h0
					C107.1,227.4,109.2,228,110.9,227.1z"/>
				<g class="st23">
					<path class="st11" d="M90.4,195.3c2.3,0.3,4.4-1,6.6-1.6c2.3-0.6,4.7-0.2,7-0.9c0.5-0.2,0.4-1-0.1-1c-2.4,0-4.9-0.2-7.3,0.4
						c-2.1,0.6-4.8,1.2-6.4,2.8C90.1,195.1,90.2,195.3,90.4,195.3L90.4,195.3z"/>
				</g>
				<g>
					<path class="st15" d="M102.1,238c2.1,6.1,1,11.9-5.1,14c-6.1,2.1-11.5-1.6-13.6-7.7c-2.1-6.1,0.1-12.3,6.2-14.3
						C95.6,227.9,100,231.9,102.1,238z"/>
					
						<ellipse transform="matrix(0.9475 -0.3198 0.3198 0.9475 -72.401 42.412)" class="st9" cx="92.9" cy="241.7" rx="10.1" ry="10.1"/>
					<g>
						
							<ellipse transform="matrix(0.9475 -0.3198 0.3198 0.9475 -71.7619 43.5546)" class="st13" cx="96.7" cy="240.3" rx="3.2" ry="3.2"/>
						<ellipse transform="matrix(0.9475 -0.3198 0.3198 0.9475 -71.7619 43.5546)" cx="96.7" cy="240.3" rx="1.2" ry="1.2"/>
						
							<ellipse transform="matrix(0.9475 -0.3198 0.3198 0.9475 -71.4706 43.1084)" class="st16" cx="95.5" cy="239.2" rx="0.9" ry="0.9"/>
					</g>
				</g>
				<path class="st108" d="M81.4,237.7l11.9-6.7c1.7-0.9,2.2-3.1,1.2-4.8l0,0c-1-1.7-3.2-2.4-4.9-1.4l-11.9,6.7
					c-1.7,0.9-2.2,3.1-1.2,4.8l0,0C77.5,238,79.7,238.6,81.4,237.7z"/>
			</g>
		</g>
		<g>
			<path class="st105" d="M155,240.4c0.7,0,2.3-1,0.9-1C155.2,239.4,153.6,240.4,155,240.4L155,240.4z"/>
		</g>
		<path class="st109" d="M165.8,251.3c-1.4,1.6-8.6-0.7-8.9-2.7"/>
		<g>
			<path class="st9" d="M166.6,256.1c-4-3.5-10.9-3.5-10.9-3.1c0,0.7,0.3-5.5,1.8-6.2c3.4-1,9,2.6,10.3,3.4c1.8,1,0.2,3.4-1,5.7"/>
		</g>
		<g>
			<g>
				<path class="st104" d="M127.2,289c0.2-1.1-0.2-2.2-0.7-3.2c-0.5-1-1.2-1.8-1.8-2.8c-0.7-1.1-1.3-2.3-1.8-3.6
					c-0.4-1.2-0.7-2.4-0.4-3.6c0.3-1.4,6.8-3.2,8.2-3.8"/>
				<g>
					<path class="st105" d="M127.9,288.9c0.1-4.3-4.4-6.7-4.6-10.9c-0.1-2,0.4-2.9,2-3.7c0.7-0.3,1.4-0.6,2.2-0.8
						c1.1-0.4,2.3-0.7,3.4-1.2c1-0.4,0.1-0.9-0.6-0.7c-2.3,0.9-6.9,1.5-8.3,3.7c-2.7,4,4.5,9.8,4.4,13.7
						C126.4,289.7,127.9,289.4,127.9,288.9L127.9,288.9z"/>
				</g>
			</g>
			<line class="st110" x1="130.1" y1="294.4" x2="131.5" y2="277.5"/>
			<line class="st110" x1="132.2" y1="277" x2="144" y2="279.2"/>
			<path class="st104" d="M127.2,285.4c-0.9,4.4,1.1,7.4,2.9,10.5c0.6,1.1,1.1,1.9,1.1,1.9s0.2-0.2,0.6-0.4c2.5-1.5,4.5-4.5,8.5-5.5
				c-2-3,1-10-5-8c-3,0-5,1-8.1-0.4"/>
		</g>
		<g>
			<path class="st104" d="M133.2,295.5c1.1-3.7,5.1,0.3,7.5-1.3c0.5-0.1,1-0.3,1.5-0.6c0.5-0.3,0.9-0.7,1.4-1.3
				c0.5-0.5,1-0.9,1.4-1.4c4.9-5.5,6.9-13.5,6.3-20.9c-0.6-2.5-1.6-5-3.3-6.8c-0.3-0.4-0.7-0.7-1.1-1c-0.4-0.2-0.8-0.5-1.2-0.7
				c-0.4-0.2-0.8-0.4-1.3-0.6c-5.2-3.1-12.2-2.1-16.3,1.9c-0.5,0.4-0.9,0.7-1.3,1.1c-2,2-3.2,4.7-3,8c-0.1,0.5-0.2,1-0.2,1.5
				c-0.1,0.7-0.1,1.3-0.1,2c0.1,3.3,1.5,6.4,4.8,8.6c0.3,0.3,0.8,0.6,1.2,0.9c0.4,0.2,0.9,0.4,1.3,0.5c1.4,1.5,3.4,0.5,5.7,0.2
				c0.4-0.1,0.7-0.2,1-0.3c3-2,5.5-5.2,4.4-9"/>
			<g>
				<path class="st105" d="M134.2,295.6c0.7-1.4,4.5-0.2,5.8-0.4c1.9-0.3,3.2-1.4,4.4-2.7c4.2-4.1,6.7-9.4,7.7-15.2
					c0.8-5.4,0.5-12.1-4.3-15.6c-4.2-3.1-9.8-4-14.7-2.5c-4.2,1.3-8.5,4.7-9.9,9c-1.5,4.8-1.4,11.1,2.5,14.9
					c3.3,3.2,7.1,4.7,11.6,2.9c4.1-1.7,6.6-5.8,5.8-10.1c-0.2-0.8-2.3-0.3-2.1,0.6c1.4,7.3-6.3,10.6-11.8,6.9
					c-3.7-2.5-4.7-5.9-4.5-10.1c0.3-6.1,3-11.4,9.4-13.1c5.3-1.4,11.9,0.9,14.6,5.8c4.1,7.4,0.9,19.1-4.8,24.9c-2,2-3.3,2.9-6.2,2.6
					c-0.8-0.1-1.5-0.4-2.4-0.3c-1.6,0.2-2.3,0.8-3,2.2C131.7,296.4,133.8,296.3,134.2,295.6L134.2,295.6z"/>
			</g>
		</g>
	</g>
	<g>
		<path class="st11" d="M166.8,248.6c-0.1,0.1-0.2,0.3-0.2,0.4C166.6,248.9,166.7,248.7,166.8,248.6z"/>
		<path class="st48" d="M126.4,262.2c2.9,3.1,5.9,7.1,10.9,9.1c9,3,13-9,16.7-16.3c0.8-1.9,1.5-3.8,2.3-5.7c1-1,4-2,6-1
			c10,9,3,23-1,33c-2,3-4,5-7,7c-2,1-4.1,1.6-6.1,2.1c-2.1,0.4-4.2,0.7-6.2,0.9c-3.6,0-7.6,2-11.6,2.9"/>
		<path class="st104" d="M167.5,252.7l-11.7-2c0,0,2.5-4.2,0.1-8.5c-2.4-4.4-4-3.2-4-3.2s2.2-3.3,4.4-6.6c1.1-1.6,2.2-3.3,3-4.5
			c0.8-1.2,1.3-2,1.3-2c-0.1,0,2,2.3,4.1,4.5c2.1,2.3,4.2,4.5,4.2,4.5L167.5,252.7z"/>
		<g>
			<path class="st104" d="M158.6,248.6c-0.3-1.1-2.7-4.6-3.6-5.3c-0.9-0.6-1.9-1.1-2.8-1.7c-1.2-0.7-2.2-1.5-3.2-2.5
				c-0.9-0.9-1.7-1.9-2-3.1c-0.4-1.4,4.7-5.9,5.7-7"/>
			<g>
				<path class="st105" d="M159.7,248.3c-0.6-1.6-1.7-3.3-2.9-4.5c-1.6-1.8-4-2.5-5.8-4.1c-2.9-2.5-3.6-4-1.2-6.7
					c1.2-1.4,2.6-2.6,3.9-4c0.5-0.5-1.5-0.3-1.9,0.1c-1.9,2-6.9,5.2-5.3,8.3c1.3,2.7,4.3,4.1,6.7,5.6c2,1.3,3.6,3.6,4.5,5.8
					C157.8,249.4,159.8,248.8,159.7,248.3L159.7,248.3z"/>
			</g>
		</g>
		<g>
			<path class="st104" d="M165.2,252.4c4.3-2.4,7-5.6,8.7-9.2c0.2-0.5,0.4-1,0.6-1.6c0.2-0.6,0.4-1.2,0.6-1.7
				c0.2-0.6,0.4-1.2,0.7-1.8c0.3-0.6,0.6-1.2,0.8-1.8s0.4-1.3,0.6-1.9c0.6-3.7,0.6-7.5-0.4-10.9c-0.2-0.6-0.4-1.1-0.6-1.6
				c-1.9-4.9-7.9-9.9-15.2-7.9c-0.6,0.1-1.2,0.3-1.7,0.5c-2.8,1-5.2,2.9-6.6,5.3c-0.4,0.5-0.7,1-1,1.6c-0.6,1.1-1.1,2.3-1.4,3.6
				c-0.2,0.7-0.3,1.3-0.3,2c-0.1,0.4-0.2,0.8-0.2,1.2c-0.1,0.8-0.2,1.6-0.2,2.4c-0.1,2.4,0.2,5,1.7,6.8c1,1.1,2.4,1.8,3.7,2.5
				c0.6,0.3,1.2,0.5,1.8,0.6c0.8,0.3,2,0.2,3.2-0.1c0.4-0.1,0.8-0.2,1.2-0.4c0.5-0.1,0.9-0.3,1.4-0.5c0.4-0.2,0.9-0.4,1.3-0.7
				c1.7-0.5,2.9-1.5,3.6-2.8c0.2-0.4,0.5-0.9,0.6-1.4c0.2-0.3,0.3-0.9,0.3-1.6c0.1-0.6,0.1-1.3,0.1-1.5c0-0.4,0-0.8,0-1.2
				c0-0.4,0-0.8-0.1-1.2c-0.5-0.5-0.7-1.1-0.8-1.6c-0.1-0.5-0.1-1.5-1-2.8"/>
			<g>
				<path class="st105" d="M165.8,252.7c9.8-6,16.5-21.3,10.9-32.3c-4.7-9.2-17.8-10.2-24.2-2.2c-5.4,6.7-7.2,23,5.2,22.9
					c3.5,0,8.7-2.1,10.6-5.2c2.2-3.6,0.9-8.2-0.8-11.6c-0.4-0.8-2.5-0.1-2.1,0.6c1.1,2,1.9,5,1.9,7.2c0,6-8.1,9.1-12.9,6.4
					c-7.8-4.3-3.2-18.8,2.9-22.5c12.2-7.7,20.3,6.3,19.1,16.5c-0.9,7.7-5.2,15.4-11.8,19.5C163.3,252.7,165.1,253.2,165.8,252.7
					L165.8,252.7z"/>
			</g>
		</g>
		<path class="st48" d="M102.5,280.2c-1.9,6.9-2,16.2,7,17.9c2.1-0.2,5.2,0.5,7.2-0.7c1.5-0.7,2.6-1.7,3.6-2.6c1-0.9,2-1.8,3.2-2.2
			c2.5-0.8,4.1-0.4,5.8,1c6.2,5.1-0.5,10.9-4.2,15.4c-1.7,3.3-5.2,5.2-8.7,6.1c-3.1,0.3-5.7,0.1-8.8,0.4c-1.4,0-2.8,0-4.1-0.2
			c-11-0.9-23.4-11-19.9-22.3c1.5-5.3,3.6-10.2,7.8-14.1"/>
		<g>
			<g>
				<path class="st11" d="M126.7,234.8c0.1-0.1,0.2-0.1,0.3-0.2C126.9,234.7,126.8,234.8,126.7,234.8z"/>
				<path class="st11" d="M126.4,235c0.1,0,0.2-0.1,0.3-0.1C126.6,234.9,126.5,234.9,126.4,235z"/>
				<path class="st11" d="M125.6,236c-0.1,0.4-0.1,1.2,0.2,1.5l1.2-2.8c-0.1,0.1-0.2,0.1-0.3,0.2c-0.1,0-0.2,0.1-0.3,0.1
					C126,235.2,125.7,235.4,125.6,236z"/>
				<path class="st12" d="M108.9,254.7l-4.1,1.4c-4.1,1.4-8.5-0.8-9.9-4.9l-4.2-12.5c-1.4-4.1,0.8-8.5,4.9-9.9l4.1-1.4
					c4.1-1.4,8.5,0.8,9.9,4.9l4.2,12.5C115.1,248.9,112.9,253.4,108.9,254.7z"/>
				
					<ellipse transform="matrix(0.9475 -0.3198 0.3198 0.9475 -76.1555 36.9143)" class="st107" cx="74.3" cy="250.3" rx="7.7" ry="7.7"/>
				
					<ellipse transform="matrix(0.9475 -0.3198 0.3198 0.9475 -76.1555 36.9143)" class="st12" cx="74.3" cy="250.3" rx="5.1" ry="5.1"/>
				
					<ellipse transform="matrix(0.9475 -0.3198 0.3198 0.9475 -66.6045 54.8954)" class="st107" cx="133.8" cy="230.3" rx="7.7" ry="7.7"/>
				
					<ellipse transform="matrix(0.9475 -0.3198 0.3198 0.9475 -66.6045 54.8954)" class="st12" cx="133.8" cy="230.3" rx="5.1" ry="5.1"/>
				<path class="st107" d="M132.1,223.7c-7-34.8-21.9-20.2-38.6-14.5c-16.7,5.6-26.5,21.3-21.9,34.9c1,3.1,4.8,14.3,5.9,17.4
					c4.6,13.7,28.2,18,38.6,14.5c9.1-3.1,26.5-21.3,21.9-34.9C136.9,238,132.7,226.8,132.1,223.7z"/>
				<path class="st108" d="M119,219.9c-1-0.5,0-2.4,0-2.4c4.1-2.2,7.3,4.8,10.9,1.2c1.2-1.2-0.5-3.9-1.2-6c3.3,4,3.3,0,5.5-2.2
					c-0.6-2.5-1-4.6-1.4-5.7c-5.5-16.3-23-21.7-39.3-16.2c-15.9,5.4-21.5,18.3-16.8,34.2c11-8.4,21.4-5,32.1-0.4
					C112.1,221.2,115.4,221.1,119,219.9z"/>
				<path class="st108" d="M90.5,205.1c0.2-0.4-0.1-0.9-0.5-1.1l0,0c-11.4-3.2-23.4,3.4-26.6,14.9c-2.2,7.9,0.2,16,5.8,21.4
					c0.4,0.3,0.9,0.3,1.2-0.1C78.5,229.3,86.1,217.8,90.5,205.1z"/>
				<g>
					<path class="st15" d="M128.9,231.8c2.1,6.1,1,11.9-5.1,14c-6.1,2.1-11.5-1.6-13.6-7.7c-2.1-6.1,0.1-12.3,6.2-14.3
						C122.5,221.7,126.9,225.7,128.9,231.8z"/>
					
						<ellipse transform="matrix(0.9475 -0.3198 0.3198 0.9475 -68.9947 50.6813)" class="st9" cx="119.8" cy="235.4" rx="10.1" ry="10.1"/>
					<g>
						
							<ellipse transform="matrix(0.9475 -0.3198 0.3198 0.9475 -68.6754 51.8765)" class="st13" cx="123.6" cy="235" rx="3.2" ry="3.2"/>
						<ellipse transform="matrix(0.9475 -0.3198 0.3198 0.9475 -68.6754 51.8765)" cx="123.6" cy="235" rx="1.2" ry="1.2"/>
						
							<ellipse transform="matrix(0.9475 -0.3198 0.3198 0.9475 -68.3841 51.4303)" class="st16" cx="122.4" cy="233.9" rx="0.9" ry="0.9"/>
					</g>
				</g>
				<path class="st20" d="M117,264.4c0.5-1.9-0.6-5.1,2.5-5.2c1.8-0.1,3.5,0.4,4.9,1.4c-1.1,0-2.2,0-3.4,0.2c-0.1,0-0.3,0-0.4,0.1
					c-0.1,0.1-0.2,0.2-0.2,0.3c-0.8,1.8-1.6,4.1-3.3,5.3c-1.6,1.3-3.8,1.1-5.7,0.6c-0.3,0-0.6,0-0.9-0.1c-0.9-0.2-1.7-0.5-2.7,0.5
					c-0.6,0.6-1.2,2.1-2.1,2.3c-0.6,0.1-2.3-0.9-2.4-1.8c0-0.4,0.5-0.5,0.9-0.3c0.3,0.2,0.5,0.5,0.9,0.7c0.5,0.2,1.1-0.3,1.3-0.8
					c0.2-0.5,0.2-1.1,0.3-1.6c0.3-1.2,1.3-1.9,2.3-2.1c0.3,0,0.7,0,1.1,0C112.5,266.7,115.5,262.7,117,264.4"/>
				<path class="st12" d="M109.6,257.4L109.6,257.4c-2.4,0.8-5-0.5-5.9-2.9l-5.3-15.8c-0.8-2.4,0.5-5,2.9-5.9h0
					c2.4-0.8,5,0.5,5.9,2.9l5.3,15.8C113.3,254,112,256.6,109.6,257.4z"/>
				<path class="st107" d="M107.9,255.1L107.9,255.1c-2.4,0.8-5-0.5-5.9-2.9l-5.3-15.8c-0.8-2.4,0.5-5,2.9-5.9h0
					c2.4-0.8,5,0.5,5.9,2.9l5.3,15.8C111.6,251.7,110.3,254.3,107.9,255.1z"/>
				<path class="st108" d="M74.9,222.9c0,0,9,0.8,13.6,2c6.3,1.7,17.5-1.6,17.5-1.6s-11.6-8-17.4-7.8
					C82.7,215.7,74.9,222.9,74.9,222.9z"/>
				<path class="st108" d="M66.8,209.2c0,0,3.1-1.2,4.8-1.5c2.3-0.5,5.5-3.4,5.5-3.4s-5.1-0.8-7,0.3
					C68.2,205.6,66.8,209.2,66.8,209.2z"/>
				<path class="st108" d="M77.3,194.8c0,0,0.1,3.3,0.5,5c0.5,2.3-0.9,6.3-0.9,6.3s-2.7-4.4-2.5-6.5
					C74.6,197.5,77.3,194.8,77.3,194.8z"/>
				
					<ellipse transform="matrix(0.9475 -0.3198 0.3198 0.9475 -78.2192 41.0568)" class="st12" cx="85.9" cy="258.7" rx="1.2" ry="0.6"/>
				
					<ellipse transform="matrix(0.9475 -0.3198 0.3198 0.9475 -77.5225 42.3684)" class="st12" cx="90.2" cy="257.2" rx="1.2" ry="0.6"/>
				
					<ellipse transform="matrix(0.9475 -0.3198 0.3198 0.9475 -78.5267 42.061)" class="st12" cx="88.8" cy="260.1" rx="1.2" ry="0.6"/>
				
					<ellipse transform="matrix(0.9475 -0.3198 0.3198 0.9475 -71.972 52.818)" class="st12" cx="124.8" cy="245.6" rx="1.2" ry="0.6"/>
				
					<ellipse transform="matrix(0.9475 -0.3198 0.3198 0.9475 -71.2753 54.1296)" class="st12" cx="129.2" cy="244.1" rx="1.2" ry="0.6"/>
				
					<ellipse transform="matrix(0.9475 -0.3198 0.3198 0.9475 -72.2795 53.8222)" class="st12" cx="127.7" cy="247" rx="1.2" ry="0.6"/>
				<path class="st108" d="M67.9,232.5l8.9,25.2l1.7-3l-3.3-15.9c0,0,0.5-11.2,4.7-14.8c4.3-3.6,13.8-7.5,13.8-7.5l-9.5-1.3
					L67.9,232.5z"/>
				<path class="st108" d="M128.7,210.6l6.5,23.8l-1.7,1.7l-7-14.7c0,0-7.2-8.6-12.8-8.9c-5.6-0.3-15.5,2.5-15.5,2.5l6.8-6.8
					L128.7,210.6z"/>
				<path class="st108" d="M110.9,227.1l12-6.6c1.7-0.9,2.3-3,1.4-4.7h0c-0.9-1.7-3.1-2.3-4.7-1.4l-12,6.6c-1.7,0.9-2.3,3-1.4,4.7h0
					C107.1,227.4,109.2,228,110.9,227.1z"/>
				<g class="st23">
					<path class="st11" d="M90.4,195.3c2.3,0.3,4.4-1,6.6-1.6c2.3-0.6,4.7-0.2,7-0.9c0.5-0.2,0.4-1-0.1-1c-2.4,0-4.9-0.2-7.3,0.4
						c-2.1,0.6-4.8,1.2-6.4,2.8C90.1,195.1,90.2,195.3,90.4,195.3L90.4,195.3z"/>
				</g>
				<g>
					<path class="st15" d="M102.1,238c2.1,6.1,1,11.9-5.1,14c-6.1,2.1-11.5-1.6-13.6-7.7c-2.1-6.1,0.1-12.3,6.2-14.3
						C95.6,227.9,100,231.9,102.1,238z"/>
					
						<ellipse transform="matrix(0.9475 -0.3198 0.3198 0.9475 -72.401 42.412)" class="st9" cx="92.9" cy="241.7" rx="10.1" ry="10.1"/>
					<g>
						
							<ellipse transform="matrix(0.9475 -0.3198 0.3198 0.9475 -71.7619 43.5546)" class="st13" cx="96.7" cy="240.3" rx="3.2" ry="3.2"/>
						<ellipse transform="matrix(0.9475 -0.3198 0.3198 0.9475 -71.7619 43.5546)" cx="96.7" cy="240.3" rx="1.2" ry="1.2"/>
						
							<ellipse transform="matrix(0.9475 -0.3198 0.3198 0.9475 -71.4706 43.1084)" class="st16" cx="95.5" cy="239.2" rx="0.9" ry="0.9"/>
					</g>
				</g>
				<path class="st108" d="M81.4,237.7l11.9-6.7c1.7-0.9,2.2-3.1,1.2-4.8l0,0c-1-1.7-3.2-2.4-4.9-1.4l-11.9,6.7
					c-1.7,0.9-2.2,3.1-1.2,4.8l0,0C77.5,238,79.7,238.6,81.4,237.7z"/>
			</g>
		</g>
		<g>
			<path class="st105" d="M155,240.4c0.7,0,2.3-1,0.9-1C155.2,239.4,153.6,240.4,155,240.4L155,240.4z"/>
		</g>
		<path class="st109" d="M165.8,251.3c-1.4,1.6-8.6-0.7-8.9-2.7"/>
		<g>
			<path class="st9" d="M166.9,255.8c-4.3-3.2-12-3.2-12-3.2s0.8-4.6,2.2-5.4c3.3-1.2,9.2,1.9,10.6,2.5c1.9,0.9,0.5,3.4-0.6,5.8"/>
		</g>
		<g>
			<g>
				<path class="st104" d="M127.2,289c0.2-1.1-0.2-2.2-0.7-3.2c-0.5-1-1.2-1.8-1.8-2.8c-0.7-1.1-1.3-2.3-1.8-3.6
					c-0.4-1.2-0.7-2.4-0.4-3.6c0.3-1.4,6.8-3.2,8.2-3.8"/>
				<g>
					<path class="st105" d="M127.9,288.9c0.1-4.3-4.4-6.7-4.6-10.9c-0.1-2,0.4-2.9,2-3.7c0.7-0.3,1.4-0.6,2.2-0.8
						c1.1-0.4,2.3-0.7,3.4-1.2c1-0.4,0.1-0.9-0.6-0.7c-2.3,0.9-6.9,1.5-8.3,3.7c-2.7,4,4.5,9.8,4.4,13.7
						C126.4,289.7,127.9,289.4,127.9,288.9L127.9,288.9z"/>
				</g>
			</g>
			<line class="st110" x1="130.1" y1="294.4" x2="131.5" y2="277.5"/>
			<line class="st110" x1="132.2" y1="277" x2="144" y2="279.2"/>
			<path class="st104" d="M127.2,285.4c-0.9,4.4,1.1,7.4,2.9,10.5c0.6,1.1,1.1,1.9,1.1,1.9s0.2-0.2,0.6-0.4c2.5-1.5,4.5-4.5,8.5-5.5
				c-2-3,1-10-5-8c-3,0-5,1-8.1-0.4"/>
		</g>
		<g>
			<path class="st104" d="M133.2,295.5c1.1-3.7,5.1,0.3,7.5-1.3c0.5-0.1,1-0.3,1.5-0.6c0.5-0.3,0.9-0.7,1.4-1.3
				c0.5-0.5,1-0.9,1.4-1.4c4.9-5.5,6.9-13.5,6.3-20.9c-0.6-2.5-1.6-5-3.3-6.8c-0.3-0.4-0.7-0.7-1.1-1c-0.4-0.2-0.8-0.5-1.2-0.7
				c-0.4-0.2-0.8-0.4-1.3-0.6c-5.2-3.1-12.2-2.1-16.3,1.9c-0.5,0.4-0.9,0.7-1.3,1.1c-2,2-3.2,4.7-3,8c-0.1,0.5-0.2,1-0.2,1.5
				c-0.1,0.7-0.1,1.3-0.1,2c0.1,3.3,1.5,6.4,4.8,8.6c0.3,0.3,0.8,0.6,1.2,0.9c0.4,0.2,0.9,0.4,1.3,0.5c1.4,1.5,3.4,0.5,5.7,0.2
				c0.4-0.1,0.7-0.2,1-0.3c3-2,5.5-5.2,4.4-9"/>
			<g>
				<path class="st105" d="M134.2,295.6c0.7-1.4,4.5-0.2,5.8-0.4c1.9-0.3,3.2-1.4,4.4-2.7c4.2-4.1,6.7-9.4,7.7-15.2
					c0.8-5.4,0.5-12.1-4.3-15.6c-4.2-3.1-9.8-4-14.7-2.5c-4.2,1.3-8.5,4.7-9.9,9c-1.5,4.8-1.4,11.1,2.5,14.9
					c3.3,3.2,7.1,4.7,11.6,2.9c4.1-1.7,6.6-5.8,5.8-10.1c-0.2-0.8-2.3-0.3-2.1,0.6c1.4,7.3-6.3,10.6-11.8,6.9
					c-3.7-2.5-4.7-5.9-4.5-10.1c0.3-6.1,3-11.4,9.4-13.1c5.3-1.4,11.9,0.9,14.6,5.8c4.1,7.4,0.9,19.1-4.8,24.9c-2,2-3.3,2.9-6.2,2.6
					c-0.8-0.1-1.5-0.4-2.4-0.3c-1.6,0.2-2.3,0.8-3,2.2C131.7,296.4,133.8,296.3,134.2,295.6L134.2,295.6z"/>
			</g>
		</g>
		<g>
			<path class="st9" d="M129.6,301.6c-0.3-3.7-3.3-4.7-5.5-7.1c-0.9-0.6-1.6-0.8-1.7-0.7c-0.3,0.5,1.5-2.2,3.2-4.2
				c0.4-0.5,0.9-0.9,1.3-1.3c7.4,0.6,9.4,9.6,3,13"/>
		</g>
	</g>
</g>
<g id="Layer_2">
</g>
</svg>
