<svg xmlns="http://www.w3.org/2000/svg" xmlns:xlink="http://www.w3.org/1999/xlink" viewBox="0 0 300 450"><defs><clipPath id="0faea218-f8c0-4049-832f-8a5258e71ff0"><path d="M248.33,218.54a99.73,99.73,0,0,1-199.47,0C48.87,163.46,30.63,47.41,161,55.92,216,59.5,248.33,163.46,248.33,218.54Z" style="fill:none"/></clipPath></defs><title>juego2_ilust</title><g id="cce963cc-eb1e-44a4-a4c1-22667b82236d" data-name="Layer 1"><circle cx="150" cy="217.41" r="99.73" style="fill:#dcffc5"/><path d="M175.88,200.52c-2-8.08-8.33-16.16-13.6-21.54-7.11-7.25-17-10.71-26.33-5.11-10,6-16,13-21,23-2,4,0,8-1.64,10.79a51.94,51.94,0,0,0,0,7.29,56.46,56.46,0,0,0,3.5,16c.64,1.69,1.36,3.34,2.15,4.94,0,10,0,19,.22,28.67,0,1.6,0,3.22,0,4.84a75.29,75.29,0,0,0-.77,8.41,63.24,63.24,0,0,0,.23,8c-.64,20.07,17.36,34.07,37.36,30.07,4-1,8-2,11-4,5-4,6-9,7-14,1-10,0-19-1.53-28.86-1.22-7.87,1.47-17,1.15-25.19-.37-9.44-1.3-19,1-28.32.71-2.91,1.72-5.76,1.95-8.74A19.72,19.72,0,0,0,175.88,200.52Z" style="fill:#8baa77"/><g style="clip-path:url(#0faea218-f8c0-4049-832f-8a5258e71ff0)"><path d="M179.21,277.06c0-6.73-.17-11.38-5.56-13.68-3.23-1.38-10.52-2.47-14.69-2.28l-16.45.75c-5,.23-13.05,1.71-16.61,4.09-4.3,2.88-3.64,7.16-3.64,13.06v46.38a18.33,18.33,0,0,0,1.86,8.09c17.36.44,34.93-.58,52.39-.84a19.6,19.6,0,0,0,2.7-9.85Z" style="fill:#f1f3f7"/><path d="M129.73,266.57l2,.67c3.27.9,3.2,8-.15,15.78l-5.67,15.58L120,316.83c-1.83,4.26-3,7.75-5.08,9.34a7.58,7.58,0,0,1-5.91,1.07l-4.83-1.33c-1.23-.34-3.13-1.48-3.6-2.84-.79-2.27.61-5.64,2.7-10.51,0,0,9.79-24.67,7.52-18.44s3.9-10.11,7.79-18.4S126.46,265.68,129.73,266.57Z" style="fill:#f1f3f7"/><path d="M170.48,263.29l-2,.67c-3.27.9-3.2,8,.15,15.78l5.67,15.58,5.87,18.23c1.83,4.26,3,7.75,5.08,9.34a7.58,7.58,0,0,0,5.91,1.07l4.83-1.33c1.23-.34,3.13-1.48,3.6-2.84.79-2.27-.61-5.64-2.7-10.51,0,0-9.79-24.67-7.52-18.44s-3.9-10.11-7.79-18.4S173.75,262.4,170.48,263.29Z" style="fill:#f1f3f7"/><polygon points="150.79 279.34 150.79 261.5 158.48 265.08 150.79 279.34" style="fill:#dcdde0;opacity:0.400000005960465"/><polygon points="150.79 279.34 150.79 261.5 143.09 265.08 150.79 279.34" style="fill:#dcdde0;opacity:0.400000005960465"/><polygon points="156.41 264.37 150.64 261.6 146.02 265.1 149.03 269.73 152.94 269.8 156.41 264.37" style="fill:#0076b7"/><polygon points="158.22 309.3 151.76 316.49 144.26 310.13 149.03 269.73 152.94 269.8 158.22 309.3" style="fill:#0076b7"/><polygon points="150.79 261.5 150.79 261.82 158.2 268.25 161.41 261.58 159.92 258.71 150.79 261.5" style="fill:#fff"/><polygon points="150.79 261.5 150.79 261.82 143.38 268.25 140.16 261.58 141.66 258.71 150.79 261.5" style="fill:#fff"/><polygon points="158.22 292.58 164.68 295.86 171.34 292.58 171.34 282.81 158.22 282.81 158.22 292.58" style="fill:#fff"/><rect x="158.22" y="278.67" width="13.12" height="3.05" style="fill:#fff"/></g><path d="M107.28,208.61c-.59,5.91,3.91,6.81,7.11,9.93,1.22.88,2.51,1.72,3.78,2.57a33,33,0,0,1,7,5.77,21.32,21.32,0,0,1,3.72,4.73c1.69,3.13,1.55,6.16-1.91,8.75-5,4.4-10.72,2.69-15.76-.29a56.32,56.32,0,0,1-4.76-3.22c-6.49-5.29-15.05-8.65-21.37-13.5a27.45,27.45,0,0,1-4.25-4c-3.33-6.59-2.59-12.33.51-17.42a27.45,27.45,0,0,1,3.81-4.84c11.57-7.8,26.87-22.2,40.37-15.9a9.65,9.65,0,0,1,1.8,5.4c-.9,9.9-10.8,12.6-17.13,18A29.22,29.22,0,0,0,107.28,208.61Z" style="fill:#8baa77"/><path d="M96,231.71c-1-10.84-2-20.84-7-30.61A24.65,24.65,0,0,0,86.34,197,13.94,13.94,0,0,0,74,191.61a24.18,24.18,0,0,0-6,1.26c-27,11-22.46,40.49-11.92,61.8.92,2.27,3,6.76,4.12,9,5,10.84,13.95,22.15,21.74,27.84,2.72,2,12.62,10.27,12.88,9.51.59-1.71.9-20.31.68-22.15-.41-3.29.64-15.76-.11-25.14-.19-2.34-.32-4.7-.29-7.07a40.32,40.32,0,0,1,.68-7.14C95.9,236.84,96,234.18,96,231.71Z" style="fill:#595959"/><path d="M43.31,221.32A15.34,15.34,0,0,0,45.9,226a23.85,23.85,0,0,0,3.78,3.68c7.26,5.24,22.26,14.24,14.26,20.24-5.17,4.52-11.26.67-15.83-2.71-2.62-1.94-5.12-4.09-7.86-5.86-3-1.92-6.23-3.36-9.23-5.24-3.74-2.34-7.25-5.61-8.23-9.9-1-4.58,1.06-9.42,4.3-12.83,4.6-4.83,38.51-24.37,38.51-7.46,0,3.12-2.78,5.63-5.24,7.15a29.32,29.32,0,0,1-6.71,2.83c-2,.63-5.31.84-7,2A11.36,11.36,0,0,0,43.31,221.32Z" style="fill:#595959"/><path d="M100.22,222.14a12.27,12.27,0,0,1-2.07,3.71,19.08,19.08,0,0,1-3,2.94C89.31,233,77.31,240.19,83.71,245c6.4,5.6,13.6-4,20.36-7.64,1.24-.76,2.49-1.51,3.76-2.24,3-1.73,5.88-3,7.56-6.23a10.9,10.9,0,0,0,.52-9.25,16.4,16.4,0,0,0-6.19-6.75c-4.24-2.87-27.34-15.69-27.34-3.08A4.85,4.85,0,0,0,84,213.32c2.94,3.67,8.54,4.47,13.58,6.09A9.09,9.09,0,0,1,100.22,222.14Z" style="fill:#595959"/><path d="M171.66,150.46l.33-.06Z" style="fill:#8baa77"/><path d="M171.39,150.51l.27-.05Z" style="fill:#8baa77"/><circle cx="123.12" cy="149.75" r="6.88" transform="translate(-3.41 2.87) rotate(-1.32)" style="fill:#8baa77"/><circle cx="178.98" cy="148.46" r="6.88" transform="translate(-3.36 4.15) rotate(-1.32)" style="fill:#8baa77"/><circle cx="178.98" cy="148.46" r="4.53" transform="translate(-3.36 4.15) rotate(-1.32)" style="fill:#8baa77"/><path d="M179.25,142.4c3.26-31.44-13.23-22.92-28.9-22.56s-28.13,11-27.84,23.86l.37,16.29c.29,12.82,19.2,22.78,28.9,22.56,8.55-.2,28.13-11,27.84-23.86C179.55,155.82,178.95,145.25,179.25,142.4Z" style="fill:#8baa77"/><path d="M164.55,151.15c14.4-3.28,23.4-16.28,18-31.68a25.88,25.88,0,0,0-2-3.94,28.07,28.07,0,0,0-2.66-3.66c-7-8-19-10-29-9-3,0-5,3-8,4a12.74,12.74,0,0,0-3.37,3.5,25.56,25.56,0,0,1-2.62,3.5c-2,4-1,9-3,13,13,1,14,17,22,25,1,1,3,0,5.25.14A19.34,19.34,0,0,0,164.55,151.15Z" style="fill:#8baa77"/><path d="M148.84,115.67a.74.74,0,0,0-.18-1.05h0a19.16,19.16,0,0,0-27.29,25.22.74.74,0,0,0,1.08.25C132.24,133,141.72,125.22,148.84,115.67Z" style="fill:#8baa77"/><path d="M141,173.79a19.46,19.46,0,0,1,10.59-4,19.45,19.45,0,0,1,10.76,3.48,64.72,64.72,0,0,0-11.12-.77A49.78,49.78,0,0,0,141,173.79Z" style="fill:#8baa77"/><path d="M166.45,201.32a15.34,15.34,0,0,1-2.59,4.64,23.85,23.85,0,0,1-3.78,3.68c-7.26,5.24-22.26,14.24-14.26,20.24,5.17,4.52,11.26.67,15.83-2.71,2.62-1.94,5.12-4.09,7.86-5.86,3-1.92,6.23-3.36,9.23-5.24,3.74-2.34,7.25-5.61,8.23-9.9,1-4.58-1.06-9.42-4.3-12.83-4.6-4.83-38.51-24.37-38.51-7.46,0,3.12,2.78,5.63,5.24,7.15a29.32,29.32,0,0,0,6.71,2.83c2,.63,5.31.84,7,2A11.36,11.36,0,0,1,166.45,201.32Z" style="fill:#8baa77"/><path d="M190.63,209.66a17.67,17.67,0,0,1-3,5.35,27.48,27.48,0,0,1-4.36,4.23c-8.37,6-25.65,16.4-16.43,23.31,9.22,8.06,19.58-5.76,29.31-11,1.79-1.09,3.58-2.18,5.41-3.23,4.3-2.49,8.46-4.37,10.89-9a15.7,15.7,0,0,0,.75-13.32c-1.76-4.1-5.22-7.22-8.91-9.72-6.11-4.13-39.36-22.59-39.36-4.43a7,7,0,0,0,2.29,5.08c4.24,5.29,12.3,6.44,19.55,8.78A13.09,13.09,0,0,1,190.63,209.66Z" style="fill:#8baa77"/><path d="M199,186.89l-.33.06Z" style="fill:#595959"/><path d="M199.29,186.84l-.27.05Z" style="fill:#595959"/><path d="M200.38,187.07c.26.24.75.79.72,1.17l-2.41-1.29.33-.06.27-.05A1.16,1.16,0,0,1,200.38,187.07Z" style="fill:#595959"/><circle cx="243.96" cy="168.53" r="6.88" transform="translate(-43.02 93.96) rotate(-20.07)" style="fill:#595959"/><circle cx="191.48" cy="187.7" r="6.88" transform="translate(-52.79 77.11) rotate(-20.07)" style="fill:#595959"/><path d="M189,182.15c-14.5-28.08,4-26.17,18.68-31.55s30.22,0,34.62,12.07l5.59,15.3c4.4,12-9.57,28.22-18.68,31.55-8,2.93-30.22,0-34.62-12.07C193.63,194.77,190.33,184.7,189,182.15Z" style="fill:#595959"/><path d="M196.07,172.27c.4-.87-1.34-1.68-1.34-1.68-4.06.76-2.37,7.37-6.9,6.86-1.51-.17-1.8-3-2.5-4.87,0,4.62-2.33,1.82-5.08,1.51-1-2-1.85-3.73-2.23-4.76-5.26-14.38,3.91-27.84,18.29-33.1,14-5.13,25,.74,30.67,14.43-12.3.31-17.66,8.4-22.45,17.6C201.57,169.3,199.18,171.13,196.07,172.27Z" style="fill:#595959"/><path d="M207.58,146.17a.74.74,0,0,1-.21-1h0A19.16,19.16,0,0,1,242,158.65a.74.74,0,0,1-.92.62C229.37,156.29,217.69,152.48,207.58,146.17Z" style="fill:#595959"/><path d="M226.29,135.78a38.06,38.06,0,0,0-4.17,1.6c-1.89,1-5.66.7-5.66.7s3.11-3.36,5-3.69S226.29,135.78,226.29,135.78Z" style="fill:#595959"/><path d="M211,131.67a38.06,38.06,0,0,1,2.45,3.74c1,1.89,4.18,3.88,4.18,3.88s-.55-4.54-1.88-5.91S211,131.67,211,131.67Z" style="fill:#595959"/><ellipse cx="240.57" cy="180.77" rx="1.02" ry="0.51" transform="translate(-47.43 93.54) rotate(-20.07)" style="fill:#595959"/><ellipse cx="239.36" cy="183.38" rx="1.02" ry="0.51" transform="translate(-48.4 93.28) rotate(-20.07)" style="fill:#595959"/><ellipse cx="202.42" cy="194.71" rx="1.02" ry="0.51" transform="translate(-54.53 81.29) rotate(-20.07)" style="fill:#595959"/><ellipse cx="205.03" cy="195.92" rx="1.02" ry="0.51" transform="translate(-54.78 82.26) rotate(-20.07)" style="fill:#595959"/><path d="M201,231.71c1-10.84,2-20.84,7-30.61A24.65,24.65,0,0,1,210.6,197,13.94,13.94,0,0,1,223,191.61a24.18,24.18,0,0,1,6,1.26c27,11,22.46,40.49,11.92,61.8-.92,2.27-3,6.76-4.12,9-5,10.84-13.95,22.15-21.74,27.84-2.72,2-12.62,10.27-12.88,9.51-.59-1.71-.9-20.31-.68-22.15.41-3.29-.64-15.76.11-25.14.19-2.34.32-4.7.29-7.07a40.32,40.32,0,0,0-.68-7.14C201,236.84,201,234.18,201,231.71Z" style="fill:#595959"/><path d="M253.63,221.32A15.34,15.34,0,0,1,251,226a23.85,23.85,0,0,1-3.78,3.68C240,234.87,225,243.87,233,249.87c5.17,4.52,11.26.67,15.83-2.71,2.62-1.94,5.12-4.09,7.86-5.86,3-1.92,6.23-3.36,9.23-5.24,3.74-2.34,7.25-5.61,8.23-9.9,1-4.58-1.06-9.42-4.3-12.83-4.6-4.83-38.51-24.37-38.51-7.46,0,3.12,2.78,5.63,5.24,7.15a29.32,29.32,0,0,0,6.71,2.83c2,.63,5.31.84,7,2A11.36,11.36,0,0,1,253.63,221.32Z" style="fill:#595959"/><path d="M196.72,222.14a12.27,12.27,0,0,0,2.07,3.71,19.08,19.08,0,0,0,3,2.94c5.81,4.19,17.81,11.39,11.41,16.19-6.4,5.6-13.6-4-20.36-7.64-1.24-.76-2.49-1.51-3.76-2.24-3-1.73-5.88-3-7.56-6.23a10.9,10.9,0,0,1-.52-9.25,16.4,16.4,0,0,1,6.19-6.75c4.24-2.87,27.34-15.69,27.34-3.08a4.85,4.85,0,0,1-1.59,3.53c-2.94,3.67-8.54,4.47-13.58,6.09A9.09,9.09,0,0,0,196.72,222.14Z" style="fill:#595959"/><path d="M172.12,230.24l.33-.06Z" style="fill:#f7cfa2"/><path d="M171.85,230.29l.27,0Z" style="fill:#f7cfa2"/><path d="M170.91,230.88c-.16.32-.43,1-.26,1.35l1.8-2-.33.06-.27,0A1.16,1.16,0,0,0,170.91,230.88Z" style="fill:#f7cfa2"/><rect x="140.65" y="216.52" width="17.72" height="25.54" rx="6.92" ry="6.92" transform="translate(-1.26 0.83) rotate(-0.32)" style="fill:#f0ba7a"/><circle cx="123.6" cy="228.69" r="6.88" transform="translate(-1.26 0.69) rotate(-0.32)" style="fill:#f7cfa2"/><circle cx="123.6" cy="228.69" r="4.53" transform="translate(-1.26 0.69) rotate(-0.32)" style="fill:#f0ba7a"/><circle cx="179.47" cy="228.38" r="6.88" transform="translate(-1.26 0.99) rotate(-0.32)" style="fill:#f7cfa2"/><circle cx="179.47" cy="228.38" r="4.53" transform="translate(-1.26 0.99) rotate(-0.32)" style="fill:#f0ba7a"/><path d="M179.84,222.32c3.81-31.37-12.83-23.15-28.5-23.06S123,209.81,123.09,222.63l.09,16.29c.07,12.82,18.8,23.12,28.5,23.06,8.55,0,28.32-10.55,28.25-23.38C179.92,235.75,179.5,225.17,179.84,222.32Z" style="fill:#f7cfa2"/><path d="M169.79,215.5c-.68-.68.67-2,.67-2,4.07-.7,4.79,6.09,8.85,4,1.35-.69.66-3.4.65-5.44,1.65,4.32,2.82.89,5.29-.36.22-2.25.44-4.14.43-5.23-.08-15.31-13.36-24.74-28.68-24.65-14.94.08-23.22,9.41-23.73,24.21,11.64-4,19.48,1.73,27.18,8.67C163.6,214.64,166.47,215.52,169.79,215.5Z" style="fill:#601515"/><path d="M149.91,195.06a.74.74,0,0,0-.16-1.06h0A19.16,19.16,0,0,0,122,218.74a.74.74,0,0,0,1.08.26C133,212.13,142.63,204.49,149.91,195.06Z" style="fill:#601515"/><path d="M174.89,228.29c0,5.7-2.47,10.34-8.18,10.37s-9.31-4.57-9.34-10.28S160.9,218,166.6,218,174.86,222.58,174.89,228.29Z" style="fill:#601515;opacity:0.100000001490116"/><circle cx="166.18" cy="228.82" r="8.97" transform="translate(-1.26 0.92) rotate(-0.32)" style="fill:#fff"/><circle cx="166.18" cy="233.51" r="4.29" transform="translate(-1.29 0.92) rotate(-0.32)" style="fill:#601515"/><circle cx="166.18" cy="233.51" r="1.66" transform="translate(-1.29 0.92) rotate(-0.32)"/><circle cx="165.1" cy="231.57" r="1.22" transform="translate(-1.28 0.92) rotate(-0.32)" style="fill:#f9f9f9"/><path d="M128,228.55c0,5.7,2.59,10.31,8.29,10.28s9.25-4.68,9.22-10.38-3.63-10.31-9.34-10.28S128,222.84,128,228.55Z" style="fill:#601515;opacity:0.100000001490116"/><circle cx="136.74" cy="228.98" r="8.97" transform="translate(-1.26 0.76) rotate(-0.32)" style="fill:#fff"/><circle cx="136.67" cy="233.76" r="4.29" transform="translate(-1.29 0.76) rotate(-0.32)" style="fill:#601515"/><circle cx="136.67" cy="233.76" r="1.66" transform="translate(-1.29 0.76) rotate(-0.32)"/><circle cx="135.64" cy="231.81" r="1.22" transform="translate(-1.28 0.75) rotate(-0.32)" style="fill:#f9f9f9"/><path d="M141,253a19.46,19.46,0,0,1,10.66-3.78,19.46,19.46,0,0,1,10.7,3.66,64.72,64.72,0,0,0-11.1-1A49.78,49.78,0,0,0,141,253Z" style="fill:#ea6d50"/><rect x="147.24" y="221.45" width="8.23" height="23.09" rx="4.11" ry="4.11" transform="translate(-1.28 0.84) rotate(-0.32)" style="fill:#f0ba7a"/><rect x="146.41" y="219" width="8.23" height="23.09" rx="4.11" ry="4.11" transform="translate(-1.27 0.83) rotate(-0.32)" style="fill:#f7cfa2"/><path d="M131.8,205.66a104,104,0,0,1,10.9,5.53c4.87,3.17,15.19,3.51,15.19,3.51s-7.5-10-12.51-11.44S131.8,205.66,131.8,205.66Z" style="fill:#601515"/><path d="M128.75,191.83a38.06,38.06,0,0,1,4.47,0c2.11.25,5.55-1.31,5.55-1.31s-4.08-2.07-6-1.72S128.75,191.83,128.75,191.83Z" style="fill:#601515"/><path d="M141.66,182.65a38.06,38.06,0,0,0-1,4.36c-.25,2.11-2.56,5.1-2.56,5.1s-1.06-4.45-.3-6.19S141.66,182.65,141.66,182.65Z" style="fill:#601515"/><ellipse cx="131.03" cy="238.98" rx="1.02" ry="0.51" transform="translate(-1.32 0.73) rotate(-0.32)" style="fill:#f0ba7a"/><ellipse cx="135.11" cy="238.96" rx="1.02" ry="0.51" transform="translate(-1.32 0.75) rotate(-0.32)" style="fill:#f0ba7a"/><ellipse cx="133.08" cy="241.01" rx="1.02" ry="0.51" transform="translate(-1.33 0.74) rotate(-0.32)" style="fill:#f0ba7a"/><ellipse cx="167.58" cy="238.78" rx="1.02" ry="0.51" transform="translate(-1.32 0.93) rotate(-0.32)" style="fill:#f0ba7a"/><ellipse cx="171.66" cy="238.75" rx="1.02" ry="0.51" transform="translate(-1.32 0.95) rotate(-0.32)" style="fill:#f0ba7a"/><ellipse cx="169.63" cy="240.8" rx="1.02" ry="0.51" transform="translate(-1.33 0.94) rotate(-0.32)" style="fill:#f0ba7a"/><path d="M123.14,211.79l.49,23.78,2.27-2.08,1.68-14.39s3.53-9.31,8.15-11.19,13.78-2.42,13.78-2.42l-7.65-3.77Z" style="fill:#601515;opacity:0.300000011920929"/><path d="M180.65,210.32l-1.18,21.87-1.88,1-1.84-14.37s-3.63-9.27-8.28-11.1-13.8-2.27-13.8-2.27l7.61-3.86Z" style="fill:#601515;opacity:0.300000011920929"/><rect x="158.89" y="217.02" width="18.31" height="6.18" rx="3.09" ry="3.09" transform="translate(280.92 473) rotate(-166.69)" style="fill:#5b1010"/><rect x="126.91" y="216.58" width="18.31" height="6.18" rx="3.09" ry="3.09" transform="translate(341.64 376.2) rotate(159.06)" style="fill:#5b1010"/><g style="opacity:0.600000023841858"><path d="M152.57,186.64c2.3.65,4.72,0,7.06.41,1.77.29,3.39,1,5.2,1.17.32,0,.38-.48.08-.56-4-1.06-8.1-2.45-12.33-1.23a.11.11,0,0,0,0,.21Z" style="fill:#f7cfa2"/></g><path d="M97.92,186.89l.33.06Z" style="fill:#595959"/><path d="M97.65,186.84l.27.05Z" style="fill:#595959"/><circle cx="52.98" cy="168.53" r="6.88" transform="translate(-123.49 160.45) rotate(-69.93)" style="fill:#595959"/><circle cx="105.46" cy="187.7" r="6.88" transform="translate(-107.03 222.34) rotate(-69.93)" style="fill:#595959"/><path d="M107.92,182.15c14.5-28.08-4-26.17-18.68-31.55s-30.22,0-34.62,12.07L49,178c-4.4,12,9.57,28.22,18.68,31.55,8,2.93,30.22,0,34.62-12.07C103.31,194.77,106.61,184.7,107.92,182.15Z" style="fill:#595959"/><path d="M100.87,172.27c-.4-.87,1.34-1.68,1.34-1.68,4.06.76,2.37,7.37,6.9,6.86,1.51-.17,1.8-3,2.5-4.87,0,4.62,2.33,1.82,5.08,1.51,1-2,1.85-3.73,2.23-4.76,5.26-14.38-3.91-27.84-18.29-33.1-14-5.13-25,.74-30.67,14.43,12.3.31,17.66,8.4,22.45,17.6C95.37,169.3,97.76,171.13,100.87,172.27Z" style="fill:#595959"/><path d="M89.36,146.17a.74.74,0,0,0,.21-1h0A19.16,19.16,0,0,0,55,158.65a.74.74,0,0,0,.92.62C67.57,156.29,79.25,152.48,89.36,146.17Z" style="fill:#595959"/><path d="M70.65,135.78a38.06,38.06,0,0,1,4.17,1.6c1.89,1,5.66.7,5.66.7s-3.11-3.36-5-3.69S70.65,135.78,70.65,135.78Z" style="fill:#595959"/><path d="M86,131.67a38.06,38.06,0,0,0-2.45,3.74c-1,1.89-4.18,3.88-4.18,3.88s.55-4.54,1.88-5.91S86,131.67,86,131.67Z" style="fill:#595959"/><path d="M89.27,157.23l8.47-1,15.12,14.92-8.72,20.09-2.12.29,3.28-14.11s-.17-10-3.89-13.29" style="fill:#595959;opacity:0.300000011920929"/></g><g id="4e0ecb36-5ff4-48a5-8dc7-337d2c797c9e" data-name="Layer 2"><path d="M134.65,234.22c-3.57-1.29-2.83,2-4.79-.18a2.12,2.12,0,0,0-2.45-1.12,9.25,9.25,0,0,0,17.35,0C142.23,231.14,138.22,235.52,134.65,234.22Z" style="fill:#7bcddb;opacity:0.7000000000000001"/><path d="M171.19,233.18c-3-2.64-4.32.78-6.51.57-.86-.09-1.21-2.54-2.56-1.43-2,1.65-2.45,1.42-4,1a9.26,9.26,0,0,0,17.15-1.23c-.64-.27-1.36-.79-1.87-.62C172.44,231.76,172.36,234.21,171.19,233.18Z" style="fill:#7bcddb;opacity:0.7000000000000001"/></g></svg>