<svg id="1d0abf00-8a19-4a15-b6c2-3bbd75dd955e" data-name="Layer 1" xmlns="http://www.w3.org/2000/svg" xmlns:xlink="http://www.w3.org/1999/xlink" viewBox="0 0 300 450"><defs><clipPath id="966fe86b-4145-4624-88d9-70721cc3bb7d"><path d="M250.82,215.45a99.73,99.73,0,0,1-199.47,0c0-55.08-18.24-171.13,112.17-162.62C218.48,56.41,250.82,160.37,250.82,215.45Z" style="fill:none"/></clipPath><radialGradient id="ccc29ade-639b-49dd-8cb2-5f665c445979" cx="200.3" cy="144.21" r="25" gradientUnits="userSpaceOnUse"><stop offset="0" stop-color="#830027" stop-opacity="0.6"/><stop offset="1" stop-color="#795acc" stop-opacity="0"/></radialGradient><radialGradient id="2e10f4df-069a-48f4-a6f4-1129c421ae20" cx="110.3" cy="174.21" r="25" gradientUnits="userSpaceOnUse"><stop offset="0" stop-color="#795acc"/><stop offset="1" stop-color="#795acc" stop-opacity="0"/></radialGradient><radialGradient id="63f73950-d634-4778-9be5-5b2f7a7c9581" cx="-339.95" cy="-265.03" r="25" gradientTransform="translate(596.02 525.09) scale(1.4 1.4)" xlink:href="#ccc29ade-639b-49dd-8cb2-5f665c445979"/><radialGradient id="79e98ce3-477e-484b-b67e-f29cfb458c54" cx="120.51" cy="157.22" r="21.89" gradientTransform="translate(267.89 24.85) rotate(85.54)" xlink:href="#ccc29ade-639b-49dd-8cb2-5f665c445979"/><radialGradient id="6839c5a0-b12a-48d6-a92f-5c3674922eb0" cx="120.51" cy="143.79" r="25.11" gradientUnits="userSpaceOnUse"><stop offset="0" stop-color="#dfb8aa"/><stop offset="0.47" stop-color="#8b6ac6"/><stop offset="0.84" stop-color="#795acc"/><stop offset="1" stop-color="#f7cfa2"/></radialGradient><radialGradient id="e93fa2dd-c405-4a6a-beef-9ff3d4ae31ab" cx="121.84" cy="171.09" r="44.44" xlink:href="#6839c5a0-b12a-48d6-a92f-5c3674922eb0"/></defs><title>juego2_ilust</title><circle cx="151.09" cy="215.45" r="99.73" style="fill:#f4e44a"/><g style="clip-path:url(#966fe86b-4145-4624-88d9-70721cc3bb7d)"><path d="M208.43,265.79c0-13.15-.33-22.23-10.85-26.72-6.31-2.69-20.54-4.82-28.7-4.45l-32.13,1.47c-9.84.45-25.5,3.34-32.44,8-8.4,5.63-7.11,14-7.11,25.5v90.58a35.8,35.8,0,0,0,3.64,15.8c33.9.86,68.22-1.13,102.33-1.65a38.28,38.28,0,0,0,5.27-19.24Z" style="fill:#f1f3f7"/><path d="M111.79,245.3l3.82,1.31c6.39,1.75,6.26,15.62-.29,30.81l-11.08,30.44-11.47,35.6c-3.58,8.32-5.82,15.13-9.92,18.24-3.39,2.57-8.66,2.88-11.55,2.09l-9.44-2.59c-2.4-.66-6.11-2.88-7-5.54-1.55-4.43,1.18-11,5.27-20.52,0,0,19.12-48.18,14.69-36S82.42,279.38,90,263.18,105.41,243.55,111.79,245.3Z" style="fill:#f1f3f7"/><path d="M191.39,238.89l-3.82,1.31c-6.39,1.75-6.26,15.62.29,30.81l11.08,30.44L210.41,337c3.58,8.32,5.82,15.13,9.92,18.24,3.39,2.57,8.66,2.88,11.55,2.09l9.44-2.59c2.4-.66,6.11-2.88,7-5.54,1.55-4.43-1.18-11-5.27-20.52,0,0-19.12-48.18-14.69-36s-7.61-19.74-15.22-35.94S197.77,237.14,191.39,238.89Z" style="fill:#f1f3f7"/><polygon points="152.92 270.23 152.92 235.39 167.95 242.38 152.92 270.23" style="fill:#dcdde0;opacity:0.400000005960465"/><polygon points="152.92 270.23 152.92 235.39 137.89 242.38 152.92 270.23" style="fill:#dcdde0;opacity:0.400000005960465"/><polygon points="163.9 240.99 152.63 235.59 143.61 242.43 149.49 251.47 157.14 251.6 163.9 240.99" style="fill:#0076b7"/><polygon points="152.92 235.39 152.92 236.01 167.4 248.56 173.67 235.54 170.76 229.93 152.92 235.39" style="fill:#fff"/><polygon points="152.92 235.39 152.92 236.01 138.45 248.56 132.17 235.54 135.09 229.93 152.92 235.39" style="fill:#fff"/><polygon points="167.45 296.09 180.06 302.5 193.07 296.09 193.07 277.02 167.45 277.02 167.45 296.09" style="fill:#fff"/><rect x="167.45" y="268.93" width="25.62" height="5.95" style="fill:#fff"/><path d="M58.1,204.34c0,.27,0,.53,0,.81C58.08,204.9,58.09,204.62,58.1,204.34Z" style="fill:#f7cfa2"/></g><path d="M173.11,230.55a138,138,0,0,0-15.23-19.1l-8.57,6.14a10.31,10.31,0,0,0-2.37,14.35l2.24,3.12a10.31,10.31,0,0,0,14.34,2.37Z" style="fill:#f7cfa2"/><path d="M58.13,203.66c0,.23,0,.45,0,.68Q58.12,204,58.13,203.66Z" style="fill:#f7cfa2"/><path d="M206.33,167.48l.81-.08Z" style="fill:#f7cfa2"/><path d="M205.65,167.54l.68-.06Z" style="fill:#f7cfa2"/><path d="M203.25,168.8c-.46.74-1.25,2.35-.92,3.22l4.81-4.62-.81.08-.68.06A2.82,2.82,0,0,0,203.25,168.8Z" style="fill:#f7cfa2"/><rect x="129.88" y="129.38" width="43.26" height="62.36" rx="16.9" ry="16.9" transform="translate(12.94 -11.29) rotate(4.46)" style="fill:#f0ba7a"/><circle cx="88.58" cy="153.83" r="16.79" transform="matrix(0.08, -1, 1, 0.08, -71.67, 230.18)" style="fill:#f7cfa2"/><circle cx="88.58" cy="153.83" r="11.06" transform="translate(-71.67 230.18) rotate(-85.54)" style="fill:#f0ba7a"/><circle cx="224.58" cy="164.43" r="16.79" transform="matrix(0.08, -1, 1, 0.08, 43.18, 375.55)" style="fill:#f7cfa2"/><circle cx="224.58" cy="164.43" r="11.06" transform="translate(43.18 375.55) rotate(-85.54)" style="fill:#f0ba7a"/><path d="M226.72,149.77c15.65-75.56-26.52-58.93-64.66-61.9S91,107.79,88.59,139L85.5,178.66c-2.43,31.21,41.05,60.06,64.66,61.9,20.81,1.62,71-19.92,73.47-51.13C224.17,182.45,225.3,156.63,226.72,149.77Z" style="fill:#f7cfa2"/><path d="M203.65,131.15c-1.52-1.78,2-4.83,2-4.83,10-.88,10.41,15.78,20.72,11.6,3.44-1.4,2.3-8.14,2.68-13.1,3.13,10.83,6.68,2.74,12.93.21,1-5.44,1.9-10,2.11-12.65,2.91-37.28-27.49-62.9-64.76-65.81C143,43.74,121,64.75,116.73,100.64c29.13-7.37,47,8.16,64.36,26.62C188.76,127.78,195.57,130.52,203.65,131.15Z" style="fill:#601515"/><path d="M159.43,77.37a1.8,1.8,0,0,0-.18-2.6h0a46.77,46.77,0,0,0-72.48,54.56,1.81,1.81,0,0,0,2.57.86C114.85,115.48,139.8,98.83,159.43,77.37Z" style="fill:#601515"/><ellipse cx="200.3" cy="144.21" rx="24.54" ry="25.45" style="fill:url(#ccc29ade-639b-49dd-8cb2-5f665c445979)"/><path d="M213.46,163.29c-1.08,13.88-8.12,24.66-22,23.58s-21.71-13-20.63-26.9,10.67-24.46,24.55-23.38S214.54,149.4,213.46,163.29Z" style="fill:#601515;opacity:0.100000001490116"/><circle cx="192.16" cy="162.81" r="21.89" transform="translate(14.91 341.73) rotate(-85.54)" style="fill:#fff"/><circle cx="190.95" cy="159.55" r="10.47" transform="translate(17.04 337.52) rotate(-85.54)" style="fill:#601515"/><circle cx="190.95" cy="159.55" r="4.06" transform="translate(17.04 337.52) rotate(-85.54)"/><circle cx="188.7" cy="154.6" r="2.99" transform="matrix(0.08, -1, 1, 0.08, 19.9, 330.71)" style="fill:#f9f9f9"/><ellipse cx="110.3" cy="174.21" rx="24.54" ry="25.45" style="fill:url(#2e10f4df-069a-48f4-a6f4-1129c421ae20)"/><ellipse cx="120.3" cy="154.21" rx="34.34" ry="35.62" style="fill:url(#63f73950-d634-4778-9be5-5b2f7a7c9581)"/><path d="M99.39,154.39c-1.08,13.88,4.19,25.62,18.08,26.7s23.47-9.49,24.55-23.38-6.74-25.82-20.63-26.9S100.47,140.51,99.39,154.39Z" style="fill:#601515;opacity:0.100000001490116"/><circle cx="120.51" cy="157.22" r="21.89" transform="translate(-45.6 265.14) rotate(-85.54)" style="fill:#fff"/><circle cx="120.51" cy="157.22" r="21.89" transform="translate(-45.6 265.14) rotate(-85.54)" style="fill:#fff"/><circle cx="120.51" cy="157.22" r="21.89" transform="translate(-45.6 265.14) rotate(-85.54)" style="fill:url(#79e98ce3-477e-484b-b67e-f29cfb458c54)"/><circle cx="121" cy="156.48" r="10.47" transform="translate(-44.41 264.95) rotate(-85.54)" style="fill:#601515"/><circle cx="121" cy="156.48" r="4.06" transform="translate(-44.41 264.95) rotate(-85.54)"/><circle cx="118.89" cy="151.54" r="2.99" transform="translate(-41.43 258.29) rotate(-85.54)" style="fill:#f9f9f9"/><path d="M126,216.62s12.34-8.14,26.7-7S178,220.67,178,220.67a157.94,157.94,0,0,0-26.81-4.59A121.49,121.49,0,0,0,126,216.62Z" style="fill:#ea6d50"/><rect x="145.2" y="141.76" width="20.08" height="56.37" rx="10.04" ry="10.04" transform="translate(13.68 -11.55) rotate(4.46)" style="fill:#f0ba7a"/><rect x="143.68" y="135.65" width="20.08" height="56.37" rx="10.04" ry="10.04" transform="translate(13.2 -11.45) rotate(4.46)" style="fill:#f7cfa2"/><path d="M113.23,99.48s17.27,9.38,25.39,15.67c11.22,8.7,36.24,11.62,36.24,11.62s-16.22-25.89-28.1-30.38S113.23,99.48,113.23,99.48Z" style="fill:#601515"/><path d="M108.62,65.22a92.91,92.91,0,0,1,10.87,1c5.09,1,13.77-2.07,13.77-2.07s-9.52-5.86-14.14-5.4S108.62,65.22,108.62,65.22Z" style="fill:#601515"/><path d="M141.89,45.5a92.92,92.92,0,0,0-3.29,10.41c-1,5.09-7.27,11.88-7.27,11.88s-1.69-11,.53-15.13S141.89,45.5,141.89,45.5Z" style="fill:#601515"/><ellipse cx="104.59" cy="180.38" rx="1.25" ry="2.5" transform="translate(-83.38 270.63) rotate(-85.54)" style="fill:#f0ba7a"/><ellipse cx="114.51" cy="181.16" rx="1.25" ry="2.5" transform="translate(-75 281.24) rotate(-85.54)" style="fill:#f0ba7a"/><ellipse cx="109.16" cy="185.73" rx="1.25" ry="2.5" transform="translate(-84.49 280.12) rotate(-85.54)" style="fill:#f0ba7a"/><ellipse cx="193.54" cy="187.32" rx="1.25" ry="2.5" transform="translate(-8.26 365.71) rotate(-85.54)" style="fill:#f0ba7a"/><ellipse cx="203.46" cy="188.09" rx="1.25" ry="2.5" transform="translate(0.12 376.32) rotate(-85.54)" style="fill:#f0ba7a"/><ellipse cx="198.12" cy="192.67" rx="1.25" ry="2.5" transform="translate(-9.37 375.21) rotate(-85.54)" style="fill:#f0ba7a"/><path d="M90.9,112.62l-3.63,58L93.21,166l7-34.66s10.47-21.94,22.11-25.58,34-3.1,34-3.1L138.5,91.9Z" style="fill:#601515;opacity:0.300000011920929"/><path d="M231.13,120.74l-7.3,53L219,175.78l-1.56-35.33s-6.95-23.3-17.88-28.7-33.12-8.33-33.12-8.33l19.29-7.84Z" style="fill:#601515;opacity:0.300000011920929"/><rect x="173.13" y="122.17" width="44.7" height="15.1" rx="7.55" ry="7.55" transform="translate(380.29 274.24) rotate(-175.54)" style="fill:#5b1010"/><g style="opacity:0.600000023841858"><path d="M167.63,57.42c5.17,2.13,11.1,1,16.5,2.28,4.42,1,8.33,3.35,12.85,4a.69.69,0,0,0,.37-1.34c-4.72-1.63-9.2-4.18-14.17-5-4.72-.78-10.87-1.58-15.55-.47-.28.07-.22.42,0,.51Z" style="fill:#f7cfa2"/></g><circle cx="120.61" cy="99.13" r="18.07" style="fill:#f7cfa2"/><circle cx="120.61" cy="99.13" r="18.07" style="fill:#f7cfa2"/><path d="M98.12,201.22a15.26,15.26,0,0,0,4.07,6.41c1.58,1.47,4-.89,2.37-2.37a11.77,11.77,0,0,1-3.2-4.93c-.68-2-3.92-1.17-3.23.89Z" style="fill:#a52323"/><path d="M131.14,91.85a18.79,18.79,0,0,0-9.67-7.12c-.48-.15-.68.6-.21.75a17.92,17.92,0,0,1,9.2,6.76c.29.41,1,0,.67-.39Z" style="fill:#a52323"/><path d="M126.63,93.55a14.65,14.65,0,0,0-6.79-4.63c-.75-.25-1.07.93-.33,1.18a13.51,13.51,0,0,1,6.25,4.32c.5.61,1.36-.26.87-.87Z" style="fill:#a52323"/><path d="M125.37,82.57a36.5,36.5,0,0,0-5.21,10.49c-.1.31.39.44.48.13a36,36,0,0,1,5.16-10.37c.19-.26-.25-.51-.43-.25Z" style="fill:#a52323"/><path d="M126,84.57A46.53,46.53,0,0,0,121.66,97c-.11.56.75.8.86.24A45.64,45.64,0,0,1,126.77,85c.26-.51-.5-1-.77-.45Z" style="fill:#a52323"/><path d="M207.5,199.41a52,52,0,0,1-6.58,12.43c-.33.46.43.9.76.44a52.89,52.89,0,0,0,6.67-12.64c.19-.53-.65-.76-.85-.23Z" style="fill:#a52323"/><path d="M199.44,199.63l-5,11.67c-.16.38.39.71.56.33L200,200c.16-.38-.39-.71-.56-.33Z" style="fill:#a52323"/><path d="M211.57,203q-11.15,2.3-22.37,4.14c-.78.13-.45,1.31.33,1.18q11.23-1.84,22.37-4.14c.77-.16.45-1.34-.33-1.18Z" style="fill:#a52323"/><path d="M140.69,148.74a21.89,21.89,0,0,0-40.37,0C115.86,154.75,128.22,151.9,140.69,148.74Z" style="fill:url(#6839c5a0-b12a-48d6-a92f-5c3674922eb0)"/><g style="opacity:0.600000023841858"><path d="M138.24,164.53c-4.58,2.2-5.06,7.6-7.05,11.74a19.74,19.74,0,0,1-5.2,6.5c-2,1.62-4.34,2.65-6,4.58-.82,1-.65,2.77.81,3.06,5.24,1,10.27-3.27,13.21-7.2,3.65-4.86,4.64-11.09,6.92-16.61.67-1.63-1.42-2.67-2.69-2.06Z" style="fill:#ce6117"/></g><path d="M118.81,179a21.9,21.9,0,0,0,22.8-16c-13.25.9-26.38,3.33-39.53,5.94A21.86,21.86,0,0,0,118.81,179Z" style="fill:url(#e93fa2dd-c405-4a6a-beef-9ff3d4ae31ab)"/><path d="M193.86,141a21.84,21.84,0,0,0-18.44,7.73c10.87-.14,21.6-.52,32.36-1.23A21.8,21.8,0,0,0,193.86,141Z" style="fill:#f7cfa2"/><path d="M170.4,160.48c0,.21,0,.41-.06.62a21.89,21.89,0,0,0,40.44,13.23C196.94,171.85,183.48,166.47,170.4,160.48Z" style="fill:#f7cfa2"/><rect x="98.4" y="126.87" width="44.7" height="15.1" rx="7.55" ry="7.55" transform="translate(274.15 229.92) rotate(163.84)" style="fill:#5b1010"/><polygon points="167.45 328.75 154.83 342.79 140.17 330.37 149.49 251.47 157.14 251.6 167.45 328.75" style="fill:#0076b7"/></svg>