<?xml version="1.0" encoding="utf-8"?>
<!-- Generator: Adobe Illustrator 21.1.0, SVG Export Plug-In . SVG Version: 6.00 Build 0)  -->
<svg version="1.1" xmlns="http://www.w3.org/2000/svg" xmlns:xlink="http://www.w3.org/1999/xlink" x="0px" y="0px"
	 viewBox="0 0 300 450" style="enable-background:new 0 0 300 450;" xml:space="preserve">
<style type="text/css">
	.st0{fill:#B27E49;}
	.st1{fill:#ECB8FF;}
	.st2{display:none;opacity:0.3;}
	.st3{fill:#F4E44A;}
	.st4{clip-path:url(#SVGID_2_);fill:#F1F3F7;}
	.st5{opacity:0.4;clip-path:url(#SVGID_2_);fill:#DCDDE0;}
	.st6{clip-path:url(#SVGID_2_);fill:#0076B7;}
	.st7{clip-path:url(#SVGID_2_);fill:#FFFFFF;}
	.st8{clip-path:url(#SVGID_2_);}
	.st9{fill:#FFFFFF;}
	.st10{clip-path:url(#SVGID_2_);fill:#F7CFA2;}
	.st11{fill:#F7CFA2;}
	.st12{fill:#F0BA7A;}
	.st13{fill:#601515;}
	.st14{fill:url(#SVGID_3_);}
	.st15{opacity:0.1;fill:#601515;}
	.st16{fill:#F9F9F9;}
	.st17{fill:url(#SVGID_4_);}
	.st18{fill:url(#SVGID_5_);}
	.st19{fill:url(#SVGID_6_);}
	.st20{fill:#EA6D50;}
	.st21{opacity:0.3;fill:#601515;}
	.st22{fill:#5B1010;}
	.st23{opacity:0.6;}
	.st24{fill:#A52323;}
	.st25{opacity:0.2;}
	.st26{fill:url(#SVGID_7_);}
	.st27{fill:#CE6117;}
	.st28{fill:url(#SVGID_8_);}
	.st29{fill:#8454D1;}
	.st30{clip-path:url(#SVGID_10_);fill:#393D47;}
	.st31{clip-path:url(#SVGID_10_);fill:#F0BA7A;}
	.st32{clip-path:url(#SVGID_10_);fill:#F1F3F7;}
	.st33{clip-path:url(#SVGID_10_);fill:#0076B7;}
	.st34{clip-path:url(#SVGID_10_);fill:#004868;}
	.st35{opacity:0.4;clip-path:url(#SVGID_10_);fill:#DCDDE0;}
	.st36{clip-path:url(#SVGID_10_);fill:#FFFFFF;}
	.st37{clip-path:url(#SVGID_10_);}
	.st38{fill:#393D47;}
	.st39{fill:url(#SVGID_11_);}
	.st40{fill:#EAA56C;}
	.st41{clip-path:url(#SVGID_13_);fill:#F1F3F7;}
	.st42{clip-path:url(#SVGID_13_);fill:#F0BA7A;}
	.st43{opacity:0.4;clip-path:url(#SVGID_13_);fill:#DCDDE0;}
	.st44{clip-path:url(#SVGID_13_);fill:#0076B7;}
	.st45{clip-path:url(#SVGID_13_);fill:#FFFFFF;}
	.st46{clip-path:url(#SVGID_13_);}
	.st47{clip-path:url(#SVGID_13_);fill:#F7CFA2;}
	.st48{fill:#F1F3F7;}
	.st49{fill:none;}
	.st50{fill:#A85848;}
	.st51{fill:#E85646;}
	.st52{fill:#EA4E39;}
	.st53{fill:#DCFFC5;}
	.st54{fill:#8BAA77;}
	.st55{clip-path:url(#SVGID_15_);fill:#F1F3F7;}
	.st56{opacity:0.4;clip-path:url(#SVGID_15_);fill:#DCDDE0;}
	.st57{clip-path:url(#SVGID_15_);fill:#0076B7;}
	.st58{clip-path:url(#SVGID_15_);fill:#FFFFFF;}
	.st59{clip-path:url(#SVGID_15_);}
	.st60{fill:#595959;}
	.st61{opacity:0.3;fill:#595959;}
	.st62{clip-path:url(#SVGID_27_);fill:#F1F3F7;}
	.st63{opacity:0.4;clip-path:url(#SVGID_27_);fill:#DCDDE0;}
	.st64{clip-path:url(#SVGID_27_);fill:#0076B7;}
	.st65{clip-path:url(#SVGID_27_);fill:#FFFFFF;}
	.st66{clip-path:url(#SVGID_27_);}
	.st67{clip-path:url(#SVGID_27_);fill:#F7CFA2;}
	.st68{opacity:0.7;fill:#7BCDDB;}
	.st69{fill:none;stroke:#F0BA7A;stroke-width:3;stroke-miterlimit:10;}
	.st70{clip-path:url(#SVGID_41_);fill:#F1F3F7;}
	.st71{opacity:0.4;clip-path:url(#SVGID_41_);fill:#DCDDE0;}
	.st72{clip-path:url(#SVGID_41_);fill:#0076B7;}
	.st73{clip-path:url(#SVGID_41_);fill:#FFFFFF;}
	.st74{clip-path:url(#SVGID_41_);}
	.st75{clip-path:url(#SVGID_41_);fill:#F7CFA2;}
	.st76{fill:#9E9E9E;}
	.st77{fill:#878787;}
	.st78{fill:#DDBD00;}
	.st79{clip-path:url(#SVGID_43_);fill:#F1F3F7;}
	.st80{opacity:0.4;clip-path:url(#SVGID_43_);fill:#DCDDE0;}
	.st81{clip-path:url(#SVGID_43_);fill:#0076B7;}
	.st82{clip-path:url(#SVGID_43_);fill:#FFFFFF;}
	.st83{clip-path:url(#SVGID_43_);}
	.st84{clip-path:url(#SVGID_43_);fill:#F7CFA2;}
	.st85{clip-path:url(#SVGID_45_);}
	.st86{opacity:0.4;fill:#DCDDE0;}
	.st87{fill:#0076B7;}
	.st88{opacity:0.3;}
	.st89{fill:#DCDDE0;}
	.st90{fill:#004868;}
	.st91{fill:#E02B41;}
	.st92{fill:#C69018;}
	.st93{fill:#EFE91B;}
	.st94{fill:#656D60;}
	.st95{clip-path:url(#SVGID_47_);fill:#F0BA7A;}
	.st96{clip-path:url(#SVGID_47_);fill:#F1F3F7;}
	.st97{opacity:0.4;clip-path:url(#SVGID_47_);fill:#DCDDE0;}
	.st98{clip-path:url(#SVGID_47_);fill:#0076B7;}
	.st99{clip-path:url(#SVGID_47_);fill:#FFFFFF;}
	.st100{clip-path:url(#SVGID_47_);}
	.st101{clip-path:url(#SVGID_47_);fill:#F7CFA2;}
	.st102{clip-path:url(#SVGID_49_);fill:#F1F3F7;}
	.st103{clip-path:url(#SVGID_49_);}
	.st104{fill:#B23C18;}
	.st105{fill:#6B2A05;}
	.st106{fill:#B23C18;stroke:#6B2A05;stroke-miterlimit:10;}
	.st107{fill:#DDAA78;}
	.st108{fill:#211205;}
	.st109{fill:none;stroke:#6B2A05;stroke-width:0.729;stroke-miterlimit:10;}
	.st110{fill:#B23C18;stroke:#6B2A05;stroke-width:0.729;stroke-miterlimit:10;}
	.st111{fill:#B72C34;}
	.st112{clip-path:url(#SVGID_51_);fill:#F1F3F7;}
	.st113{clip-path:url(#SVGID_51_);}
	.st114{clip-path:url(#SVGID_51_);fill:#F7CFA2;}
	.st115{fill:#F2C85F;}
	.st116{clip-path:url(#SVGID_53_);fill:#F0BA7A;}
	.st117{clip-path:url(#SVGID_53_);fill:#F1F3F7;}
	.st118{opacity:0.4;clip-path:url(#SVGID_53_);fill:#DCDDE0;}
	.st119{clip-path:url(#SVGID_53_);fill:#0076B7;}
	.st120{clip-path:url(#SVGID_53_);fill:#FFFFFF;}
	.st121{clip-path:url(#SVGID_53_);}
	.st122{clip-path:url(#SVGID_53_);fill:#F7CFA2;}
	.st123{clip-path:url(#SVGID_55_);}
	.st124{fill:#F4F0A6;}
	.st125{fill:#9E921E;}
	.st126{clip-path:url(#SVGID_57_);fill:#F0BA7A;}
	.st127{clip-path:url(#SVGID_57_);fill:#F1F3F7;}
	.st128{clip-path:url(#SVGID_57_);}
	.st129{clip-path:url(#SVGID_57_);fill:#393D47;}
	.st130{clip-path:url(#SVGID_57_);fill:#FFFFFF;}
	.st131{opacity:0.4;clip-path:url(#SVGID_57_);fill:#DCDDE0;}
	.st132{clip-path:url(#SVGID_57_);fill:#0076B7;}
	.st133{fill:#1F74C9;}
	.st134{clip-path:url(#SVGID_59_);}
	.st135{fill:#023142;}
	.st136{clip-path:url(#SVGID_61_);fill:#F7CFA2;}
	.st137{clip-path:url(#SVGID_61_);}
	.st138{opacity:0.3;fill:#E57257;}
	.st139{fill:#777777;}
	.st140{clip-path:url(#SVGID_63_);fill:#F1F3F7;}
	.st141{opacity:0.4;clip-path:url(#SVGID_63_);fill:#DCDDE0;}
	.st142{clip-path:url(#SVGID_63_);fill:#0076B7;}
	.st143{clip-path:url(#SVGID_63_);fill:#FFFFFF;}
	.st144{clip-path:url(#SVGID_63_);}
	.st145{clip-path:url(#SVGID_63_);fill:#F7CFA2;}
	.st146{clip-path:url(#SVGID_65_);fill:#F0BA7A;}
	.st147{clip-path:url(#SVGID_65_);fill:#F1F3F7;}
	.st148{opacity:0.4;clip-path:url(#SVGID_65_);fill:#DCDDE0;}
	.st149{clip-path:url(#SVGID_65_);fill:#0076B7;}
	.st150{clip-path:url(#SVGID_65_);fill:#FFFFFF;}
	.st151{clip-path:url(#SVGID_65_);}
	.st152{clip-path:url(#SVGID_65_);fill:#F7CFA2;}
</style>
<g id="Layer_1">
	<circle class="st53" cx="150" cy="217.4" r="99.7"/>
</g>
<g id="Layer_2">
	<g>
		<defs>
			<path id="SVGID_62_" d="M249.6,218c0,55.1-44.7,99.7-99.7,99.7S50.2,273.1,50.2,218c0-55.1-18.2-171.1,112.2-162.6
				C217.3,58.9,249.6,162.9,249.6,218z"/>
		</defs>
		<clipPath id="SVGID_2_">
			<use xlink:href="#SVGID_62_"  style="overflow:visible;"/>
		</clipPath>
		<path class="st4" d="M207.2,268.3c0-13.2-0.3-22.2-10.9-26.7c-6.3-2.7-20.5-4.8-28.7-4.4l-32.1,1.5c-9.8,0.5-25.5,3.3-32.4,8
			c-8.4,5.6-7.1,14-7.1,25.5v90.6c0,5.7,1.3,11,3.6,15.8c33.9,0.9,68.2-1.1,102.3-1.6c3.3-5.8,5.3-12.3,5.3-19.2V268.3z"/>
		<path class="st4" d="M110.6,247.8l3.8,1.3c6.4,1.8,6.3,15.6-0.3,30.8l-11.1,30.4L91.6,346c-3.6,8.3-5.8,15.1-9.9,18.2
			c-3.4,2.6-8.7,2.9-11.6,2.1l-9.4-2.6c-2.4-0.7-6.1-2.9-7-5.5c-1.5-4.4,1.2-11,5.3-20.5c0,0,19.1-48.2,14.7-36s7.6-19.7,15.2-35.9
			C96.5,249.5,104.2,246.1,110.6,247.8z"/>
		<polygon class="st5" points="151.7,272.8 151.7,237.9 166.8,244.9 		"/>
		<polygon class="st5" points="151.7,272.8 151.7,237.9 136.7,244.9 		"/>
		<polygon class="st6" points="162.7,243.5 151.4,238.1 142.4,245 148.3,254 156,254.1 		"/>
		<polygon class="st7" points="151.7,237.9 151.7,238.5 166.2,251.1 172.5,238.1 169.6,232.5 		"/>
		<polygon class="st7" points="151.7,237.9 151.7,238.5 137.3,251.1 131,238.1 133.9,232.5 		"/>
		<g class="st8">
			<path class="st9" d="M166.3,298.8c0.4-0.2,0.8-0.1,1.3,0.2c0.5,0.3,1,0.7,1.5,1.1c0.5,0.3,1.1,0.6,1.7,0.9
				c3.6,1.8,8.2,4.2,8.2,4.2l13-6.4v-19.1c0,0-14.4,0-21.6,0c-0.6,0-1.2,0-1.6,0c-0.3-0.1-1-0.2-1.6-0.2c-0.6,0-1.1,0-1.1,0
				c0,6,0,12,0.3,18.3C166.3,298.3,166.3,298.8,166.3,298.8z"/>
			<path class="st9" d="M191.9,271.5h-25.6c0,0,0,1.5,0,3c0,0.5,0,1,0,1.4c-0.3,1.4-0.3,1.4,1.1,1.5c0.4,0,0.8,0,1.3,0
				c6.3,0,23.3,0,23.3,0V271.5z"/>
		</g>
		<path class="st10" d="M56.9,206.9c0,0.3,0,0.5,0,0.8C56.9,207.4,56.9,207.2,56.9,206.9z"/>
	</g>
	<path class="st11" d="M171.9,233.1c-4.4-6.7-9.6-13.1-15.2-19.1l-8.6,6.1c-4.6,3.3-5.7,9.8-2.4,14.4l2.2,3.1
		c3.3,4.6,9.7,5.7,14.3,2.4L171.9,233.1z"/>
	<path class="st11" d="M56.9,206.2c0,0.2,0,0.5,0,0.7C56.9,206.6,56.9,206.4,56.9,206.2z"/>
	<g>
		<g>
			<path class="st11" d="M214.4,168.8c0.3,0,0.5,0,0.8,0C214.9,168.7,214.6,168.7,214.4,168.8z"/>
			<path class="st11" d="M213.7,168.8c0.2,0,0.5,0,0.7,0C214.1,168.8,213.9,168.8,213.7,168.8z"/>
			<path class="st11" d="M211.2,170c-0.5,0.7-1.3,2.3-1,3.2l5-4.4c-0.3,0-0.5,0-0.8,0c-0.2,0-0.4,0-0.7,0
				C212.7,168.8,211.9,169,211.2,170z"/>
			<path class="st12" d="M160.9,191.3l-9.4-1.1c-9.2-1.1-15.9-9.5-14.8-18.7l3.3-28.4c1.1-9.2,9.5-15.9,18.7-14.8l9.4,1.1
				c9.2,1.1,15.9,9.5,14.8,18.7l-3.3,28.4C178.6,185.7,170.2,192.4,160.9,191.3z"/>
			
				<ellipse transform="matrix(0.1151 -0.9933 0.9933 0.1151 -63.6728 229.8949)" class="st11" cx="97.2" cy="150.7" rx="16.8" ry="16.8"/>
			
				<ellipse transform="matrix(0.1151 -0.9933 0.9933 0.1151 -63.6728 229.8949)" class="st12" cx="97.2" cy="150.7" rx="11.1" ry="11.1"/>
			
				<ellipse transform="matrix(0.1151 -0.9933 0.9933 0.1151 40.6245 378.3938)" class="st11" cx="232.7" cy="166.4" rx="16.8" ry="16.8"/>
			
				<ellipse transform="matrix(0.1151 -0.9933 0.9933 0.1151 40.6245 378.3938)" class="st12" cx="232.7" cy="166.4" rx="11.1" ry="11.1"/>
			<path class="st11" d="M235.4,151.8c18.5-74.9-24.3-59.9-62.3-64.3c-38-4.4-71.7,17.2-75.3,48.3c-0.8,7-3.8,32.6-4.6,39.5
				c-3.6,31.1,38.8,61.6,62.3,64.3c20.7,2.4,71.7-17.2,75.3-48.3C231.6,184.4,233.7,158.6,235.4,151.8z"/>
			<path class="st13" d="M213,132.3c-1.5-1.8,2.2-4.8,2.2-4.8c10.1-0.5,9.8,16.2,20.3,12.4c3.5-1.3,2.6-8,3.2-13
				c2.7,10.9,6.6,3,12.9,0.7c1.2-5.4,2.3-9.9,2.6-12.6c4.3-37.1-25.1-63.9-62.2-68.2c-36.2-4.2-59,16-64.6,51.7
				c29.4-6.3,46.7,9.9,63.3,29C198.3,128.4,205,131.4,213,132.3z"/>
			<path class="st13" d="M170.9,76.9c0.7-0.7,0.7-1.9-0.1-2.6c0,0,0,0,0,0c-19.5-17-49-14.9-66,4.5c-11.7,13.4-14.4,31.7-8.5,47.3
				c0.4,1,1.6,1.5,2.5,1C124.9,113.3,150.5,97.7,170.9,76.9z"/>
			<g>
				<path class="st15" d="M221.6,164.8c-1.6,13.8-9,24.3-22.9,22.7c-13.8-1.6-21.2-13.8-19.6-27.7c1.6-13.8,11.6-24,25.4-22.4
					C218.4,139.1,223.2,151,221.6,164.8z"/>
				
					<ellipse transform="matrix(0.1151 -0.9933 0.9933 0.1151 14.8381 343.7587)" class="st9" cx="200.4" cy="163.6" rx="21.9" ry="21.9"/>
				<g>
					
						<ellipse transform="matrix(0.1151 -0.9933 0.9933 0.1151 8.2173 348.1166)" class="st13" cx="199.5" cy="169.4" rx="10.5" ry="10.5"/>
					<ellipse transform="matrix(0.1151 -0.9933 0.9933 0.1151 8.2173 348.1166)" cx="199.5" cy="169.4" rx="4.1" ry="4.1"/>
					
						<ellipse transform="matrix(0.1151 -0.9933 0.9933 0.1151 11.3942 341.612)" class="st16" cx="197.4" cy="164.4" rx="3" ry="3"/>
				</g>
				<path class="st11" d="M222.1,166.1c1.4-12-7.2-22.9-19.2-24.3c-11.4-1.3-21.7,6.4-24,17.4C193.3,161.5,207.7,163.7,222.1,166.1
					C222.1,166.1,222.1,166.1,222.1,166.1z"/>
			</g>
			<path class="st20" d="M187.5,220.9c0,0-15-1.4-29.3-3.1c-14.3-1.7-22.1-5.6-22.1-5.6s9.5-2.5,23.8-0.8S187.5,220.9,187.5,220.9z"
				/>
			<path class="st12" d="M160,197.3L160,197.3c-5.5-0.6-9.5-5.6-8.8-11.1l4.2-36c0.6-5.5,5.6-9.5,11.1-8.8h0
				c5.5,0.6,9.5,5.6,8.8,11.1l-4.2,36C170.5,194,165.5,197.9,160,197.3z"/>
			<path class="st11" d="M158.7,191.1L158.7,191.1c-5.5-0.6-9.5-5.6-8.8-11.1l4.2-36c0.6-5.5,5.6-9.5,11.1-8.8h0
				c5.5,0.6,9.5,5.6,8.8,11.1l-4.2,36C169.2,187.8,164.2,191.8,158.7,191.1z"/>
			<path class="st13" d="M123.9,97.3c0,0,16.9,10,24.8,16.6c10.9,9.1,35.8,13,35.8,13s-15.2-26.5-26.9-31.4
				C145.8,90.5,123.9,97.3,123.9,97.3z"/>
			<path class="st13" d="M120.6,62.9c0,0,7.2,0.5,10.8,1.4c5,1.2,13.8-1.5,13.8-1.5s-9.3-6.2-13.9-5.9
				C126.7,57.1,120.6,62.9,120.6,62.9z"/>
			<path class="st13" d="M154.5,44.4c0,0-2.8,6.6-3.7,10.3c-1.2,5-7.7,11.6-7.7,11.6s-1.3-11.1,1.1-15.1S154.5,44.4,154.5,44.4z"/>
			
				<ellipse transform="matrix(0.1151 -0.9933 0.9933 0.1151 -77.3578 268.8076)" class="st12" cx="112.2" cy="177.8" rx="1.3" ry="2.5"/>
			
				<ellipse transform="matrix(0.1151 -0.9933 0.9933 0.1151 -69.7497 279.64)" class="st12" cx="122.1" cy="179" rx="1.3" ry="2.5"/>
			
				<ellipse transform="matrix(0.1151 -0.9933 0.9933 0.1151 -78.97 278.0278)" class="st12" cx="116.6" cy="183.3" rx="1.3" ry="2.5"/>
			
				<ellipse transform="matrix(0.1151 -0.9933 0.9933 0.1151 -9.1384 365.9387)" class="st12" cx="200.8" cy="188.1" rx="1.3" ry="2.5"/>
			
				<ellipse transform="matrix(0.1151 -0.9933 0.9933 0.1151 -1.5303 376.7711)" class="st12" cx="210.7" cy="189.2" rx="1.3" ry="2.5"/>
			
				<ellipse transform="matrix(0.1151 -0.9933 0.9933 0.1151 -10.7506 375.159)" class="st12" cx="205.2" cy="193.6" rx="1.3" ry="2.5"/>
			<path class="st21" d="M101.1,109.6l-5.8,57.8l6.1-4.4l8.3-34.4c0,0,11.3-21.5,23.1-24.7c11.8-3.2,34.1-1.8,34.1-1.8l-17.4-11.4
				L101.1,109.6z"/>
			<path class="st21" d="M240.9,123l-9.3,52.7l-4.9,1.9l-0.2-35.4c0,0-6.1-23.5-16.8-29.3s-32.8-9.6-32.8-9.6l19.6-7.1L240.9,123z"
				/>
			<path class="st22" d="M193.5,142.5l27.9-9.9c3.9-1.4,6-5.7,4.5-9.6l0,0c-1.4-3.9-5.8-6-9.7-4.6l-27.9,9.9c-3.9,1.4-6,5.7-4.5,9.6
				v0C185.2,141.9,189.6,143.9,193.5,142.5z"/>
			<g>
				<path class="st15" d="M161.6,154.8c-1.6,13.8-9,24.3-22.9,22.7c-13.8-1.6-21.2-13.8-19.6-27.7c1.6-13.8,11.6-24,25.4-22.4
					C158.4,129.1,163.2,141,161.6,154.8z"/>
				
					<ellipse transform="matrix(0.1151 -0.9933 0.9933 0.1151 -28.3197 275.3092)" class="st9" cx="140.4" cy="153.6" rx="21.9" ry="21.9"/>
				<g>
					
						<ellipse transform="matrix(0.1151 -0.9933 0.9933 0.1151 -34.9406 279.6672)" class="st13" cx="139.5" cy="159.4" rx="10.5" ry="10.5"/>
					<ellipse transform="matrix(0.1151 -0.9933 0.9933 0.1151 -34.9406 279.6672)" cx="139.5" cy="159.4" rx="4.1" ry="4.1"/>
					
						<ellipse transform="matrix(0.1151 -0.9933 0.9933 0.1151 -31.7636 273.1625)" class="st16" cx="137.4" cy="154.4" rx="3" ry="3"/>
				</g>
				<path class="st11" d="M162.1,156.1c1.4-12-7.2-22.9-19.2-24.3c-11.4-1.3-21.7,6.4-24,17.4C133.3,151.5,147.7,153.7,162.1,156.1
					C162.1,156.1,162.1,156.1,162.1,156.1z"/>
			</g>
			<path class="st22" d="M131.4,129.6l28.4,8.4c4,1.2,8.2-1.1,9.4-5.1v0c1.2-4-1.1-8.2-5.1-9.4l-28.4-8.4c-4-1.2-8.2,1.1-9.4,5.1v0
				C125.1,124.2,127.4,128.4,131.4,129.6z"/>
			<g class="st23">
				<path class="st11" d="M179.8,57.3c4.9,2.2,10.6,1.5,15.7,2.8c4.7,1.1,8.7,3.8,13.4,4.7c0.9,0.2,1.2-1,0.4-1.3
					c-4.7-1.8-9-4.5-14-5.5c-4.7-1-10.8-2-15.5-1C179.6,56.9,179.6,57.2,179.8,57.3L179.8,57.3z"/>
			</g>
		</g>
	</g>
	<path class="st9" d="M153.8,287.9c0.5,0.2,1,0.4,1.4,0.7s0.8,0.6,1.1,1c1.7,0.7,1.7,3.7,3.7,4.7c8,1,4-10,4.8-14.9
		c0-0.5,0.1-1.1,0.2-1.6s0.3-1,0.5-1.6c0.1-0.5,0.2-1,0.3-1.6s0.2-1,0.3-1.6c-3.1-1.2-6.1-2.6-9-4.2c-0.6,2.6-1.2,5.2-1.6,7.8
		c-0.1,0.5-0.2,1-0.3,1.6c0.8,2.9-2.2,4.9-1.2,7.9C154,286.8,153.9,287.3,153.8,287.9z"/>
	<polygon class="st48" points="243,266.4 199.4,243 206.1,288.5 243.5,283.5 	"/>
	<g>
		<path class="st12" d="M188,256.2c-3.6-2-6.2-5.8-6.8-9.9c-0.3-2.7-0.2-6.2-2.7-7.3c-0.9-0.4-2-0.3-3-0.1c-3.2,0.9-5.5,4-5.5,7.3"
			/>
		<path class="st48" d="M243,266.4c5.8,1.9,10.6,11.1,8.2,22.5c-0.4,1.8-0.9,3.5-1.6,5.3c-0.7,1.7-1.6,3.4-2.7,4.9
			c-0.7,1-1.5,2-2.2,3c-3,3.9-6.4,7.1-9.5,9.4c-13.7,9.7-26.2,6.5-38.8,3.2c-4.5-1.9-17.3-16.5-14.7-21.7
			c6.8-13.4,26.1-16,43.3-19.9c0.8-0.2,1.6-0.4,2.3-0.5c4.7-0.6,9.1-4.2,13.2-4.8C241.5,267.4,242.3,266.9,243,266.4z"/>
		<g>
			<path class="st48" d="M202.2,266c2.7,0.7,5.7-0.6,7.5,0.8c0.8,0.3,1.6,0.7,2.4,1.1c3.3,1.5,6.6,3.2,10,4.8
				c0.9,0.5,1.8,0.9,2.7,1.4c6.4,3.2,12.5,6.3,13.8,18.7c-0.1,1.3-0.6,2.7-1.2,4.1c-2.6,5.7-8.5,11.9-12.7,13
				c-6.1,0.8-13.3,1.3-20.2,1.1c-1.1,0-2.3-0.1-3.4-0.2c-6.5-0.3-16.1-3.3-14-16.8c0.2-1.5,0.4-3.1,0.7-4.8
				c1.5-8.2,4.7-17,10.2-21.3C200,266.5,200.3,266.2,202.2,266z"/>
			<path class="st9" d="M200.7,266.5c1.3-0.6,2.6-0.9,3.8-1c1-0.1,2-0.2,3-0.1c1,0.1,1.9,0.2,2.8,0.4c2.8,1.6,5.6,3.5,8.5,5.1
				c1,0.5,1.9,1.1,2.9,1.5c5.9,2.1,12.6,5.1,19.7-0.4c-7,8.7-14.2,6.5-20,4.2c-1-0.5-2-1.1-3.1-1.7c-3-1.8-5.9-4-8.7-5.7
				c-1-0.4-2-0.8-3.1-1.2c-1-0.3-2.1-0.6-3.2-0.7C201.9,266.8,200.9,266.7,200.7,266.5z"/>
			<path class="st9" d="M201.4,266.4c-2-1.6-11.2-3.6-12.1-3.3c-0.3,8.5-2.2,23.4-7.8,33.4c2.9,0.5,8.9,5.1,10.1,4.7
				C196.5,290.4,199.7,277.7,201.4,266.4z"/>
		</g>
		<path class="st11" d="M196.8,263.4c-6.8-8.1-12.8-17.1-23.1-22c-1.5-0.6-3.1-1.1-4.7-1.3c-1.7-0.2-3.5-0.3-5.4,0
			c-2.1,0.2-4.3,0.6-6.6,1.2c-1,1-3,2-3,4c0,2.5,1.5,4.5,3.2,6.2s3.8,3.2,4.7,4.8c1,1.2,1.9,2.4,2.6,3.7c0.8,1.3,1.4,2.6,1.9,3.9
			c1.4,5.4,3.4,11.4,4.5,16.4c0.3,1.4,0.6,2.7,0.9,4.1c0.1,0.5,0.2,0.9,0.2,1.4c-0.3,1.5-0.3,2.5,0.4,2.7c0.1,0.5,0.1,0.9,0.2,1.4
			c0.1,0.5,0.1,0.9,0.1,1.4c0,1.5,1.3,2.5,3.1,3.1c1.8,0.6,4.1,0.8,6.3,0.7c1.9,0.4,3.7,1.1,5.5,2.1"/>
	</g>
	<path class="st87" d="M166.3,331.3l-12.6,14L139,332.9l9.3-78.9l7.7,0.1c0,0,1.3,9.8,3,22.4c0.1,0.5,0.1,1,0.2,1.5
		c0.1,0.6,0.1,1.2,0.2,1.8c0.1,0.6,0.1,1.2,0.2,1.8c0.5,5.8,1.5,10.8,2.3,17.2c0.1,0.6,0.2,1.1,0.3,1.7c0.1,0.6,0.2,1.1,0.3,1.7
		c0.1,0.4,0.1,0.9,0.2,1.3C164.6,318.6,166.3,331.3,166.3,331.3z"/>
	<g>
		<path class="st48" d="M75.1,257.7c-5.7,2.2-11.9,16.8-10.9,28.4c0.2,1.8,0.5,3.6,1,5.4c0.5,1.8,1.2,3.5,2.1,5.2
			c0.6,1.1,1.2,2.2,1.9,3.2c2.6,4.2,5.5,7.7,8.4,10.5c12.5,11.2,25.3,9.4,38.2,7.6c4.6-1.4,19.1-14.4,17.1-19.9
			c-5.3-14.1-24.1-18.8-40.8-24.7c-0.8-0.3-1.5-0.5-2.2-0.8c-4.6-1.1,20.1-25.7,16.1-26.7C105.1,245.3,88.5,252.5,75.1,257.7z"/>
		<path class="st11" d="M125.6,300.5c1.2-0.5,2.5-0.8,2.4-0.2c1.6-0.2,3.2-0.2,4.7,0c0.8-0.2,1.5-0.5,2.3-0.6
			c0.8-0.2,1.6-0.3,2.4-0.5c3-1,6.5-0.8,9.9-1c0.5,0,1,0,1.4-0.1c1.3,0.1,2.8,0,4.2-0.1c0.5,0,0.9-0.1,1.4-0.2
			c1.1-0.1,2.2-0.2,3.2-0.4c0.5-0.1,1-0.2,1.6-0.3c5.8-0.8,11.8-5.8,11.8-13.1c0-0.4,0-0.8-0.1-1.3c-0.1-1.3-0.4-2.5-0.7-3.7
			c-0.1-0.5-0.3-1.1-0.5-1.6c-0.6-1.5-1-3.1-1.3-4.6c-0.1-0.5-0.2-1-0.3-1.5c-2.2-6-5.2-14-11.8-15c-0.4-0.1-0.8-0.1-1.2-0.1
			c-0.4,0-0.8,0-1.2,0.1c-4.5,0.5-8,3.8-11.7,6.9c-1.2,1-2.5,2.1-3.8,3c-1.3,0.9-2.7,1.7-4.2,2.3c-1.5,0.6-3.1,0.9-4.9,0.9
			c-2,0.4-3.9,0.6-5.8,0.9c-1.6,9,0.4,19,1.8,27.9C125.5,299.6,125.6,300.5,125.6,300.5z"/>
		<g>
			<path class="st48" d="M115.6,268.9c-2.7,0.4-5.6-1.3-7.6-0.1c-0.9,0.2-1.7,0.5-2.6,0.8c-3.4,1.1-6.9,2.5-10.5,3.6
				c-1,0.4-1.9,0.7-2.9,1.1c-6.7,2.4-13.1,4.8-15.9,17c0,1.3,0.3,2.7,0.7,4.2c1.9,6,7.1,12.7,11.1,14.4c6,1.5,13.1,2.8,20,3.4
				c1.1,0.1,2.3,0.2,3.4,0.2c6.5,0.4,16.4-1.5,15.8-15.1c0-1.5,0-3.2-0.1-4.8c-0.6-8.3-2.7-17.5-7.8-22.3
				C117.7,269.7,117.4,269.3,115.6,268.9z"/>
			<path class="st9" d="M116.9,269.6c-1.2-0.7-2.5-1.2-3.7-1.4c-1-0.3-2-0.4-2.9-0.5c-1-0.1-1.9,0-2.9,0.1c-3,1.3-6,2.8-9,4.1
				c-1,0.4-2,0.8-3.1,1.2c-6.1,1.4-13.1,3.6-19.5-2.6c6,9.5,13.4,8,19.4,6.4c1.1-0.4,2.2-0.8,3.2-1.3c3.2-1.5,6.3-3.3,9.3-4.7
				c1.1-0.3,2.1-0.6,3.2-0.8c1.1-0.2,2.2-0.3,3.3-0.4C115.8,269.7,116.8,269.7,116.9,269.6z"/>
			<path class="st9" d="M116.3,269.4c2.1-1.4,11.5-2.3,12.4-1.9c-0.7,8.5-0.5,23.5,3.9,34.1c-2.9,0.2-9.4,4.1-10.6,3.5
				C118.4,293.8,116.7,280.8,116.3,269.4z"/>
		</g>
	</g>
	<g>
		<path class="st12" d="M161.7,296.8c1.5,0.3,3,0,4.3-0.9c1.2-0.8,2-2,2.9-3.1c1.2-1.4-1.6-1.8-2.4-0.8c-0.6,0.7-1.2,1.5-1.8,2.2
			c-0.6,0.6-1.1,0.7-1.9,0.6C161.3,294.4,159.7,296.4,161.7,296.8L161.7,296.8z"/>
	</g>
	<g>
		<path class="st12" d="M158.9,264.6c5.8,1.1,8,6.2,8.7,11.4c0.4-0.4,0.8-0.7,1.3-1.1c-1.3,0.3-3.6-0.6-4.9-0.8
			c-0.9-0.2-3.4,1.2-1.8,1.5c7.5,1.7,11.6,18.4,0.4,18c-1.1,0-3.1,1.5-1.1,1.6c5,0.2,9.9-2.2,10.8-7.6c1-5.7-2.6-12.2-8.3-13.5
			c-0.6,0.5-1.2,1-1.8,1.5c2.3,0.4,4.7,1.3,7,0.7c0.4-0.1,1.4-0.5,1.3-1.1c-0.9-5.9-3.6-11.1-9.8-12.2
			C159.8,263,157.3,264.4,158.9,264.6L158.9,264.6z"/>
	</g>
	<g>
		<path class="st12" d="M165.5,265.8c-1.7-3.5-4-8.7-8-10c-3.4-1.1-6.4,0.8-8.8,3c-1.2,1.1,1.6,1,2.3,0.4c1.7-1.5,4.1-2.6,6.1-1
			c0.6,0.5,1.2,1.1,1.7,1.8c1.5,2,2.8,4.3,3.9,6.6C163.1,267.6,165.9,266.6,165.5,265.8L165.5,265.8z"/>
	</g>
	<g>
		<path class="st12" d="M183,260.9c-4.1-7.1-10-13.5-17.3-17.5c-3.3-1.8-9.7-4-12.4,0.1c-3.4,5.3,7.1,12.9,10,15.4
			c0.9,0.8,3.6-0.4,2.7-1.2c-2.9-2.5-10.8-8.2-10.3-12.7c0.6-4.9,11.1,2.1,13.1,3.7c4.7,3.7,8.4,8.3,11.5,13.5
			C180.8,263,183.6,262,183,260.9L183,260.9z"/>
	</g>
	<g>
		<path class="st12" d="M160.1,242.3c5.5-3.4,11.4,2.5,15.2,6c0.9,0.8,3.6-0.4,2.7-1.2c-5.5-5.1-12.3-10.4-19.7-5.9
			C156.6,242.2,159,242.9,160.1,242.3L160.1,242.3z"/>
	</g>
</g>
</svg>
