<?xml version="1.0" encoding="utf-8"?>
<!-- Generator: Adobe Illustrator 21.1.0, SVG Export Plug-In . SVG Version: 6.00 Build 0)  -->
<svg version="1.1" xmlns="http://www.w3.org/2000/svg" xmlns:xlink="http://www.w3.org/1999/xlink" x="0px" y="0px"
	 viewBox="0 0 300 450" style="enable-background:new 0 0 300 450;" xml:space="preserve">
<style type="text/css">
	.st0{fill:#B27E49;}
	.st1{fill:#ECB8FF;}
	.st2{display:none;opacity:0.3;}
	.st3{fill:#F4E44A;}
	.st4{clip-path:url(#SVGID_2_);fill:#F1F3F7;}
	.st5{opacity:0.4;clip-path:url(#SVGID_2_);fill:#DCDDE0;}
	.st6{clip-path:url(#SVGID_2_);fill:#0076B7;}
	.st7{clip-path:url(#SVGID_2_);fill:#FFFFFF;}
	.st8{clip-path:url(#SVGID_2_);}
	.st9{fill:#FFFFFF;}
	.st10{clip-path:url(#SVGID_2_);fill:#F7CFA2;}
	.st11{fill:#F7CFA2;}
	.st12{fill:#F0BA7A;}
	.st13{fill:#601515;}
	.st14{fill:url(#SVGID_3_);}
	.st15{opacity:0.1;fill:#601515;}
	.st16{fill:#F9F9F9;}
	.st17{fill:url(#SVGID_4_);}
	.st18{fill:url(#SVGID_5_);}
	.st19{fill:url(#SVGID_6_);}
	.st20{fill:#EA6D50;}
	.st21{opacity:0.3;fill:#601515;}
	.st22{fill:#5B1010;}
	.st23{opacity:0.6;}
	.st24{fill:#A52323;}
	.st25{opacity:0.2;}
	.st26{fill:url(#SVGID_7_);}
	.st27{fill:#CE6117;}
	.st28{fill:url(#SVGID_8_);}
	.st29{fill:#8454D1;}
	.st30{clip-path:url(#SVGID_10_);fill:#393D47;}
	.st31{clip-path:url(#SVGID_10_);fill:#F0BA7A;}
	.st32{clip-path:url(#SVGID_10_);fill:#F1F3F7;}
	.st33{clip-path:url(#SVGID_10_);fill:#0076B7;}
	.st34{clip-path:url(#SVGID_10_);fill:#004868;}
	.st35{opacity:0.4;clip-path:url(#SVGID_10_);fill:#DCDDE0;}
	.st36{clip-path:url(#SVGID_10_);fill:#FFFFFF;}
	.st37{clip-path:url(#SVGID_10_);}
	.st38{fill:#393D47;}
	.st39{fill:url(#SVGID_11_);}
	.st40{fill:#EAA56C;}
	.st41{clip-path:url(#SVGID_13_);fill:#F1F3F7;}
	.st42{clip-path:url(#SVGID_13_);fill:#F0BA7A;}
	.st43{opacity:0.4;clip-path:url(#SVGID_13_);fill:#DCDDE0;}
	.st44{clip-path:url(#SVGID_13_);fill:#0076B7;}
	.st45{clip-path:url(#SVGID_13_);fill:#FFFFFF;}
	.st46{clip-path:url(#SVGID_13_);}
	.st47{clip-path:url(#SVGID_13_);fill:#F7CFA2;}
	.st48{fill:#F1F3F7;}
	.st49{fill:none;}
	.st50{fill:#A85848;}
	.st51{fill:#E85646;}
	.st52{fill:#EA4E39;}
	.st53{fill:#DCFFC5;}
	.st54{fill:#8BAA77;}
	.st55{clip-path:url(#SVGID_15_);fill:#F1F3F7;}
	.st56{opacity:0.4;clip-path:url(#SVGID_15_);fill:#DCDDE0;}
	.st57{clip-path:url(#SVGID_15_);fill:#0076B7;}
	.st58{clip-path:url(#SVGID_15_);fill:#FFFFFF;}
	.st59{clip-path:url(#SVGID_15_);}
	.st60{fill:#595959;}
	.st61{opacity:0.3;fill:#595959;}
	.st62{clip-path:url(#SVGID_27_);fill:#F1F3F7;}
	.st63{opacity:0.4;clip-path:url(#SVGID_27_);fill:#DCDDE0;}
	.st64{clip-path:url(#SVGID_27_);fill:#0076B7;}
	.st65{clip-path:url(#SVGID_27_);fill:#FFFFFF;}
	.st66{clip-path:url(#SVGID_27_);}
	.st67{clip-path:url(#SVGID_27_);fill:#F7CFA2;}
	.st68{opacity:0.7;fill:#7BCDDB;}
	.st69{fill:none;stroke:#F0BA7A;stroke-width:3;stroke-miterlimit:10;}
	.st70{clip-path:url(#SVGID_41_);fill:#F1F3F7;}
	.st71{opacity:0.4;clip-path:url(#SVGID_41_);fill:#DCDDE0;}
	.st72{clip-path:url(#SVGID_41_);fill:#0076B7;}
	.st73{clip-path:url(#SVGID_41_);fill:#FFFFFF;}
	.st74{clip-path:url(#SVGID_41_);}
	.st75{clip-path:url(#SVGID_41_);fill:#F7CFA2;}
	.st76{fill:#9E9E9E;}
	.st77{fill:#878787;}
	.st78{fill:#DDBD00;}
	.st79{clip-path:url(#SVGID_43_);fill:#F1F3F7;}
	.st80{opacity:0.4;clip-path:url(#SVGID_43_);fill:#DCDDE0;}
	.st81{clip-path:url(#SVGID_43_);fill:#0076B7;}
	.st82{clip-path:url(#SVGID_43_);fill:#FFFFFF;}
	.st83{clip-path:url(#SVGID_43_);}
	.st84{clip-path:url(#SVGID_43_);fill:#F7CFA2;}
	.st85{clip-path:url(#SVGID_45_);}
	.st86{opacity:0.4;fill:#DCDDE0;}
	.st87{fill:#0076B7;}
	.st88{opacity:0.3;}
	.st89{fill:#DCDDE0;}
	.st90{fill:#004868;}
	.st91{fill:#E02B41;}
	.st92{fill:#C69018;}
	.st93{fill:#EFE91B;}
	.st94{fill:#656D60;}
	.st95{clip-path:url(#SVGID_47_);fill:#F0BA7A;}
	.st96{clip-path:url(#SVGID_47_);fill:#F1F3F7;}
	.st97{opacity:0.4;clip-path:url(#SVGID_47_);fill:#DCDDE0;}
	.st98{clip-path:url(#SVGID_47_);fill:#0076B7;}
	.st99{clip-path:url(#SVGID_47_);fill:#FFFFFF;}
	.st100{clip-path:url(#SVGID_47_);}
	.st101{clip-path:url(#SVGID_47_);fill:#F7CFA2;}
	.st102{clip-path:url(#SVGID_49_);fill:#F1F3F7;}
	.st103{clip-path:url(#SVGID_49_);}
	.st104{fill:#B23C18;}
	.st105{fill:#6B2A05;}
	.st106{fill:#B23C18;stroke:#6B2A05;stroke-miterlimit:10;}
	.st107{fill:#DDAA78;}
	.st108{fill:#211205;}
	.st109{fill:none;stroke:#6B2A05;stroke-width:0.729;stroke-miterlimit:10;}
	.st110{fill:#B23C18;stroke:#6B2A05;stroke-width:0.729;stroke-miterlimit:10;}
	.st111{fill:#B72C34;}
	.st112{clip-path:url(#SVGID_51_);fill:#F1F3F7;}
	.st113{clip-path:url(#SVGID_51_);}
	.st114{clip-path:url(#SVGID_51_);fill:#F7CFA2;}
	.st115{fill:#F2C85F;}
	.st116{clip-path:url(#SVGID_53_);fill:#F0BA7A;}
	.st117{clip-path:url(#SVGID_53_);fill:#F1F3F7;}
	.st118{opacity:0.4;clip-path:url(#SVGID_53_);fill:#DCDDE0;}
	.st119{clip-path:url(#SVGID_53_);fill:#0076B7;}
	.st120{clip-path:url(#SVGID_53_);fill:#FFFFFF;}
	.st121{clip-path:url(#SVGID_53_);}
	.st122{clip-path:url(#SVGID_53_);fill:#F7CFA2;}
	.st123{clip-path:url(#SVGID_55_);}
	.st124{fill:#F4F0A6;}
	.st125{fill:#9E921E;}
	.st126{clip-path:url(#SVGID_57_);fill:#F0BA7A;}
	.st127{clip-path:url(#SVGID_57_);fill:#F1F3F7;}
	.st128{clip-path:url(#SVGID_57_);}
	.st129{clip-path:url(#SVGID_57_);fill:#393D47;}
	.st130{clip-path:url(#SVGID_57_);fill:#FFFFFF;}
	.st131{opacity:0.4;clip-path:url(#SVGID_57_);fill:#DCDDE0;}
	.st132{clip-path:url(#SVGID_57_);fill:#0076B7;}
	.st133{fill:#1F74C9;}
	.st134{clip-path:url(#SVGID_59_);}
	.st135{fill:#023142;}
	.st136{clip-path:url(#SVGID_61_);fill:#F7CFA2;}
	.st137{clip-path:url(#SVGID_61_);}
	.st138{opacity:0.3;fill:#E57257;}
	.st139{fill:#777777;}
	.st140{clip-path:url(#SVGID_63_);fill:#F1F3F7;}
	.st141{opacity:0.4;clip-path:url(#SVGID_63_);fill:#DCDDE0;}
	.st142{clip-path:url(#SVGID_63_);fill:#0076B7;}
	.st143{clip-path:url(#SVGID_63_);fill:#FFFFFF;}
	.st144{clip-path:url(#SVGID_63_);}
	.st145{clip-path:url(#SVGID_63_);fill:#F7CFA2;}
	.st146{clip-path:url(#SVGID_65_);fill:#F0BA7A;}
	.st147{clip-path:url(#SVGID_65_);fill:#F1F3F7;}
	.st148{opacity:0.4;clip-path:url(#SVGID_65_);fill:#DCDDE0;}
	.st149{clip-path:url(#SVGID_65_);fill:#0076B7;}
	.st150{clip-path:url(#SVGID_65_);fill:#FFFFFF;}
	.st151{clip-path:url(#SVGID_65_);}
	.st152{clip-path:url(#SVGID_65_);fill:#F7CFA2;}
</style>
<g id="Layer_1">
	<g>
		<path class="st11" d="M56.8,206.1c0,0.2,0,0.5,0,0.7C56.7,206.6,56.7,206.4,56.8,206.1z"/>
		<circle class="st115" cx="149.7" cy="217.9" r="99.7"/>
		<g>
			<defs>
				<path id="SVGID_52_" d="M249.4,217.9c0,55.1-44.7,99.7-99.7,99.7S50,273,50,217.9c0-55.1-18.2-171.1,112.2-162.6
					C217.1,58.9,249.4,162.8,249.4,217.9z"/>
			</defs>
			<clipPath id="SVGID_2_">
				<use xlink:href="#SVGID_52_"  style="overflow:visible;"/>
			</clipPath>
			<path style="clip-path:url(#SVGID_2_);fill:#F0BA7A;" d="M88,227.1l-8.7,0.4c-6.9,0.3-12.8-5.1-13.1-12l-1-22.7
				c-0.3-6.9,5.1-12.8,12-13.1l8.7-0.4c6.9-0.3,12.8,5.1,13.1,12l1,22.7C100.2,220.8,94.9,226.7,88,227.1z"/>
			<path class="st4" d="M144.8,233.4c-1.6-13.3-3-22.5-14.5-25.7c-6.9-1.9-21.9-2.3-30.4-1l-33.2,5.5c-10.2,1.7-28.5,0.5-35.2,6.1
				c-8.1,6.8-3.3,21.1-1.9,32.8l10.9,91.8c0.7,5.8,2.7,11,5.7,15.6c35.4-3.3,70.8-9.6,106.2-14.4c2.8-6.3,4-13.2,3.2-20.2
				L144.8,233.4z"/>
			<path class="st4" d="M41.8,224.6l4.1,0.9c6.9,1,8.4,15.1,3.4,31.3L41.5,289l-7.6,37.5c-2.7,8.9-4.2,16.1-8.1,19.7
				c-3.2,3-8.7,4-11.8,3.6l-10.1-1.5c-2.6-0.4-6.7-2.2-8-4.7c-2.1-4.3-0.1-11.3,3-21.5c0,0,14.1-51.2,10.9-38.3
				c-3.1,12.9,5.5-21,11.5-38.3S34.9,223.7,41.8,224.6z"/>
			<path class="st4" d="M123.8,208.3l-3.8,1.8c-6.4,2.6-4.6,16.6,4,31.2l15.2,29.5l16.2,34.7c4.7,8,7.9,14.6,12.5,17.3
				c3.8,2.2,9.4,1.8,12.3,0.7l9.5-3.8c2.4-1,6-3.7,6.6-6.5c1.1-4.7-2.6-11-8-20.2c0,0-25.7-46.5-19.6-34.7
				c6.1,11.8-10.3-19.1-20.2-34.6C138.7,208.2,130.2,205.7,123.8,208.3z"/>
			<polygon class="st5" points="87.6,244.8 83.3,209.5 99.8,214.7 			"/>
			<polygon class="st5" points="87.6,244.8 83.3,209.5 68.6,218.4 			"/>
			<polygon class="st6" points="95.4,213.8 83.1,209.7 74.5,217.8 81.7,226.2 89.7,225.4 			"/>
			<polygon class="st6" points="109.7,302.4 98.3,318.2 81.5,307.4 81.7,226.2 89.7,225.4 			"/>
			<polygon class="st7" points="83.3,209.5 83.4,210.1 100,221.1 104.9,207.1 101.2,201.8 			"/>
			<polygon class="st7" points="83.3,209.5 83.4,210.1 69.9,224.6 61.8,212.2 64.1,206.2 			"/>
			<g class="st8">
				<polygon class="st9" points="102.3,263.9 114.9,270.3 127.9,263.9 127.9,244.8 102.3,244.8 				"/>
				<rect x="102.3" y="236.7" class="st9" width="25.6" height="6"/>
			</g>
			<path class="st10" d="M56.7,206.8c0,0.3,0,0.5,0,0.8C56.7,207.4,56.7,207.1,56.7,206.8z"/>
		</g>
		<g>
			<path class="st11" d="M110.4,139.3c0.2-0.1,0.3-0.2,0.5-0.2C110.7,139.1,110.6,139.2,110.4,139.3z"/>
			<path class="st11" d="M110,139.5c0.1-0.1,0.3-0.1,0.4-0.2C110.3,139.3,110.2,139.4,110,139.5z"/>
			<path class="st11" d="M108.9,140.8c-0.1,0.5-0.2,1.7,0.2,2.1l1.7-3.9c-0.2,0.1-0.3,0.2-0.5,0.2c-0.1,0.1-0.3,0.1-0.4,0.2
				C109.5,139.8,109,140.1,108.9,140.8z"/>
			<path class="st12" d="M85.3,166.5l-5.8,1.9c-5.7,1.8-11.8-1.3-13.6-7L60.3,144c-1.8-5.7,1.3-11.8,7-13.6l5.8-1.9
				c5.7-1.8,11.8,1.3,13.6,7l5.6,17.4C94.1,158.6,90.9,164.7,85.3,166.5z"/>
			
				<ellipse transform="matrix(0.952 -0.306 0.306 0.952 -47.0873 19.1003)" class="st11" cx="37.4" cy="159.7" rx="10.7" ry="10.7"/>
			<ellipse transform="matrix(0.952 -0.306 0.306 0.952 -47.0873 19.1003)" class="st12" cx="37.4" cy="159.7" rx="7.1" ry="7.1"/>
			<ellipse transform="matrix(0.952 -0.306 0.306 0.952 -34.927 43.2509)" class="st11" cx="120.5" cy="133" rx="10.7" ry="10.7"/>
			<ellipse transform="matrix(0.952 -0.306 0.306 0.952 -34.927 43.2509)" class="st12" cx="120.5" cy="133" rx="7.1" ry="7.1"/>
			<path class="st11" d="M118.2,123.8c-9.1-48.5-30-28.5-53.3-21c-23.3,7.5-37.2,29-31.1,48.1c1.4,4.3,6.4,20,7.8,24.2
				c6.1,19.1,38.9,25.6,53.3,21c12.7-4.1,37.2-29,31.1-48.1C124.6,143.8,119,128.2,118.2,123.8z"/>
			<path class="st13" d="M100,118.4c-1.3-0.7,0-3.4,0-3.4c5.7-3,10,6.8,15.1,1.8c1.7-1.7-0.6-5.4-1.6-8.4c4.5,5.7,4.6,0,7.7-3
				c-0.7-3.5-1.3-6.4-1.8-8c-7.3-22.8-31.5-30.6-54.3-23.3c-22.2,7.1-30.2,24.9-24,47.2c15.5-11.4,29.8-6.6,44.6,0.2
				C90.4,120,95.1,120,100,118.4z"/>
			<path class="st13" d="M60.8,97.3c0.2-0.6-0.1-1.3-0.7-1.5c0,0,0,0,0,0C44.2,91,27.5,100,22.8,115.9c-3.3,10.9,0,22.3,7.6,29.8
				c0.5,0.5,1.3,0.4,1.7-0.1C43.6,130.7,54.4,114.8,60.8,97.3z"/>
			<g>
				<path class="st15" d="M113.6,135.1c2.7,8.5,1.2,16.6-7.3,19.3s-16-2.4-18.7-10.9c-2.7-8.5,0.4-17.1,8.9-19.8
					S110.9,126.6,113.6,135.1z"/>
				<ellipse transform="matrix(0.952 -0.306 0.306 0.952 -37.9785 37.5865)" class="st9" cx="100.9" cy="139.9" rx="14" ry="14"/>
				<g>
					
						<ellipse transform="matrix(0.952 -0.306 0.306 0.952 -39.4118 39.3777)" class="st13" cx="105.9" cy="145.4" rx="6.7" ry="6.7"/>
					<ellipse transform="matrix(0.952 -0.306 0.306 0.952 -39.4118 39.3777)" cx="105.9" cy="145.4" rx="2.6" ry="2.6"/>
					<ellipse transform="matrix(0.952 -0.306 0.306 0.952 -38.8026 38.4876)" class="st16" cx="103.4" cy="143" rx="1.9" ry="1.9"/>
				</g>
			</g>
			<g>
				<path class="st15" d="M43.9,157.5c2.7,8.5,8.7,14.2,17.2,11.4s11.6-11.3,8.9-19.8s-10.3-13.7-18.7-10.9
					C42.7,140.9,41.2,149,43.9,157.5z"/>
				<ellipse transform="matrix(0.952 -0.306 0.306 0.952 -44.3849 24.8631)" class="st9" cx="57.1" cy="154" rx="14" ry="14"/>
				<g>
					
						<ellipse transform="matrix(0.952 -0.306 0.306 0.952 -44.8613 26.9442)" class="st13" cx="63.5" cy="156.6" rx="6.7" ry="6.7"/>
					<ellipse transform="matrix(0.952 -0.306 0.306 0.952 -44.8613 26.9442)" cx="63.5" cy="156.6" rx="2.6" ry="2.6"/>
					
						<ellipse transform="matrix(0.952 -0.306 0.306 0.952 -44.2394 26.0792)" class="st16" cx="61.1" cy="154.2" rx="1.9" ry="1.9"/>
				</g>
			</g>
			<path class="st12" d="M86.3,170.3L86.3,170.3c-3.4,1.1-7-0.8-8.1-4.2L71.1,144c-1.1-3.4,0.8-7,4.2-8.1h0c3.4-1.1,7,0.8,8.1,4.2
				l7.1,22.1C91.5,165.6,89.7,169.2,86.3,170.3z"/>
			<path class="st11" d="M83.9,167L83.9,167c-3.4,1.1-7-0.8-8.1-4.2l-7.1-22.1c-1.1-3.4,0.8-7,4.2-8.1h0c3.4-1.1,7,0.8,8.1,4.2
				l7.1,22.1C89.1,162.3,87.3,166,83.9,167z"/>
			<path class="st13" d="M38.8,121.6c0,0,12.5,1.4,18.8,3.1c8.8,2.4,24.3-1.9,24.3-1.9s-15.9-11.4-24-11.2S38.8,121.6,38.8,121.6z"
				/>
			<path class="st13" d="M27.8,102.4c0,0,4.3-1.6,6.7-2c3.3-0.6,7.7-4.6,7.7-4.6S35,94.7,32.4,96S27.8,102.4,27.8,102.4z"/>
			<path class="st13" d="M42.7,82.7c0,0,0.1,4.6,0.6,7c0.6,3.3-1.4,8.8-1.4,8.8s-3.7-6.1-3.4-9.1C38.8,86.4,42.7,82.7,42.7,82.7z"/>
			<ellipse transform="matrix(0.952 -0.306 0.306 0.952 -49.9474 24.5406)" class="st12" cx="53.3" cy="171.6" rx="1.6" ry="0.8"/>
			<ellipse transform="matrix(0.952 -0.306 0.306 0.952 -49.0604 26.3023)" class="st12" cx="59.4" cy="169.6" rx="1.6" ry="0.8"/>
			<ellipse transform="matrix(0.952 -0.306 0.306 0.952 -50.3847 25.865)" class="st12" cx="57.3" cy="173.6" rx="1.6" ry="0.8"/>
			<ellipse transform="matrix(0.952 -0.306 0.306 0.952 -41.9935 40.3372)" class="st12" cx="107.7" cy="154.1" rx="1.6" ry="0.8"/>
			<ellipse transform="matrix(0.952 -0.306 0.306 0.952 -41.1064 42.0989)" class="st12" cx="113.7" cy="152.2" rx="1.6" ry="0.8"/>
			<ellipse transform="matrix(0.952 -0.306 0.306 0.952 -42.4308 41.6616)" class="st12" cx="111.7" cy="156.2" rx="1.6" ry="0.8"/>
			<path class="st21" d="M28.8,134.8L40.7,170l2.4-4.2l-4.3-22.2c0,0,0.9-15.5,6.9-20.5c6-5,19.4-10.1,19.4-10.1l-13.2-2L28.8,134.8
				z"/>
			<path class="st21" d="M116.1,114.7l6.2,24l-2.3,2.4l-9.5-20.5c0,0-9.8-12.1-17.6-12.7S71.3,111,71.3,111l9.5-9.3l33,3.9
				L116.1,114.7"/>
			<path class="st22" d="M89.8,135.4l18.5-4.3c2.6-0.6,4.2-3.2,3.6-5.8v0c-0.6-2.6-3.2-4.2-5.8-3.6L87.6,126
				c-2.6,0.6-4.2,3.2-3.6,5.8l0,0C84.6,134.4,87.2,136,89.8,135.4z"/>
			<path class="st22" d="M44.3,148l18-6c2.5-0.8,3.9-3.6,3.1-6.1l0,0c-0.8-2.5-3.6-3.9-6.1-3.1l-18,6c-2.5,0.8-3.9,3.6-3.1,6.1l0,0
				C39,147.5,41.7,148.9,44.3,148z"/>
			<g class="st23">
				<path class="st11" d="M60.8,83.6c3.2,0.4,6.2-1.4,9.3-2.1c3.2-0.8,6.6-0.2,9.8-1.1c0.8-0.2,0.6-1.4-0.2-1.4
					c-3.4,0-6.8-0.4-10.2,0.5c-2.9,0.7-6.6,1.6-8.9,3.7C60.4,83.3,60.6,83.5,60.8,83.6L60.8,83.6z"/>
			</g>
			<path class="st20" d="M90.3,186.8c-4.3,0.7-8.5-1.2-10.8-4.7c6.5-2.6,13-5.5,19.7-7.8C100.1,180.2,96.2,185.8,90.3,186.8z"/>
		</g>
		<g>
			<path class="st9" d="M172.8,128.1c-5.6,1.9-10.9,6.6-17.7,8.1l0.2-0.6c-2.4,2.5-5.9,1.1-8.4,2.1c-1.9,1.3,3.4,3.5,0.1,4.9
				c12.8,0.5,24.3-5.1,33.4-13.6c0-1.4-0.2-2.9-0.9-4.4c-0.7-1.7-1.2-4-2-5.6C176.8,123,175.5,126.6,172.8,128.1z"/>
			<path class="st38" d="M219.1,231.7c0.1-0.5,35.7-45.6,35.8-46.1c0.3-1.5,1.1-2.9,1.7-4.4c0.9-2.2,1.7-4.5,2.3-6.8
				c8.1-29.6-7.2-61.3-36.3-73c-31.4-12.6-67.2,2.6-79.8,34.1c-6.2,15.5-7.2,63.1-7.8,64.9c15.6-2.7,26.3,15.4,42,13.5
				C199,211.4,197,229.7,219.1,231.7z"/>
			<g>
				<defs>
					<path id="SVGID_54_" d="M257.8,205.8c0,35.3-28.9,87.4-64,102.6c-13.6,5.9-35.6,13.1-39.2,3.4c-9-24.2-24.5-85.5-24.5-106
						c0-35.3,28.6-106.1,63.8-106.1S257.8,170.6,257.8,205.8z"/>
				</defs>
				<clipPath id="SVGID_3_">
					<use xlink:href="#SVGID_54_"  style="overflow:visible;"/>
				</clipPath>
				<g style="clip-path:url(#SVGID_3_);">
					<path class="st48" d="M216.8,241.6c0-9.8,4.2-17.6-2.1-21c-3.8-2-10.7-2.9-15.5-2.9l-19.2,1.1c-5.9,0.3-15.2,2.5-19.4,6
						c-5,4.2,0.7,11.1,0.7,19.7l8.8,52.9c0,4.3-0.1,21.2,1.3,24.8c20.3,0.6,16.2-2.1,36.5-2.5c2-4.3,0.8-9.1,0.8-14.3L216.8,241.6z"
						/>
					<path class="st48" d="M164.9,223.5l2.5,3.2c3.8,1.3,3.7,11.7-0.2,23.1l-6.6,22.8l-6.9,26.6c-2.1,6.2-3.5,11.3-5.9,13.7
						c-2,1.9-5.2,2.2-6.9,1.6l-5.6-1.9c-1.4-0.5-3.6-2.2-4.2-4.2c-0.9-3.3,0.7-8.3,3.2-15.4c0,0,11.4-36.1,8.8-27
						c-2.6,9.1,4.5-14.8,9.1-26.9C156.6,227,161.1,222.2,164.9,223.5z"/>
					<path class="st48" d="M212.6,220.9l-2.3,1c-3.8,1.3-3.7,11.7,0.2,23.1l6.6,22.8l6.9,26.6c2.1,6.2,3.5,11.3,5.9,13.7
						c2,1.9,5.2,2.2,6.9,1.6l5.6-1.9c1.4-0.5,3.6-2.2,4.2-4.2c0.9-3.3-0.7-8.3-3.2-15.4c0,0-11.4-36.1-8.8-27
						c2.6,9.1-4.5-14.8-9.1-26.9C221.1,222.2,216.5,219.6,212.6,220.9z"/>
					<path class="st12" d="M191.8,221.6h-4.4c-4.3,0-7.9-3.5-7.9-7.9v-13.3c0-4.3,3.5-7.9,7.9-7.9h4.4c4.3,0,7.9,3.5,7.9,7.9v13.3
						C199.7,218.1,196.1,221.6,191.8,221.6z"/>
					<polygon class="st86" points="189.7,244.4 189.7,218.6 198.6,223.8 					"/>
					<polygon class="st86" points="189.7,244.4 189.7,218.3 180.7,223.5 					"/>
					<polygon class="st87" points="196.2,222.5 189.8,218.7 184.1,223.5 187.6,230.3 192.2,230.4 					"/>
					<polygon class="st87" points="198.3,288.2 190.8,298.7 182,289.4 187.6,230.3 192.2,230.4 					"/>
					<path class="st9" d="M189.7,218.3v0.5c0,0-4.1,10.8-8.5,7.5c-4.4-3.3-3.9-7.9-3.9-7.9l1.7-4.2L189.7,218.3z"/>
					<path class="st9" d="M189.8,218.3v0.5c0,0,4.1,10.8,8.5,7.5c4.4-3.3,3.9-7.9,3.9-7.9l-1.7-4.2L189.8,218.3z"/>
					<g class="st88">
						<polygon class="st89" points="198.3,263.7 205.9,268.5 213.6,263.7 213.6,249.4 198.3,249.4 						"/>
						<rect x="198.3" y="243.4" class="st89" width="15.3" height="4.5"/>
					</g>
					<path class="st90" d="M216.2,257.6c0.9-4.5,1.6-8.8,2.3-13.1c-0.8-0.7-1.6-1.5-2.3-2.3c-5.5-6.4-6.7-15-5.7-23.2
						c-2.2-0.5-4.7-1-6.9-1.2c0,3.8-0.3,7.7-0.8,11.5c0,2.2-1.4,4.2-2.5,6.4c-1.1,2-3.4,3.4-5.6,3.9c-13.2,3.2-20.1-8.4-21.4-20
						c-3.6,0.8-4.6,0.7-7.4,2.3c1.3,6.3-0.6,16.2-5.2,22.8c5.6,26.4,9.8,52.3,3,78.9c16.5,0.3,33.1-0.7,49.6-1.2
						C210.8,300.9,211.6,279.6,216.2,257.6z"/>
				</g>
			</g>
			
				<ellipse transform="matrix(0.3727 -0.928 0.928 0.3727 -35.7327 237.6282)" class="st11" cx="157.9" cy="145.2" rx="10.5" ry="10.5"/>
			
				<ellipse transform="matrix(0.3727 -0.928 0.928 0.3727 -35.7328 237.6282)" class="st12" cx="157.9" cy="145.2" rx="6.9" ry="6.9"/>
			
				<ellipse transform="matrix(0.3727 -0.928 0.928 0.3727 -15.5253 331.258)" class="st11" cx="237.2" cy="177.1" rx="10.5" ry="10.5"/>
			
				<ellipse transform="matrix(0.3727 -0.928 0.928 0.3727 -15.5253 331.258)" class="st12" cx="237.2" cy="177.1" rx="6.9" ry="6.9"/>
			<path class="st11" d="M241.3,168.7c7.3-18.2-4.8-40.2-27.1-49.2s-46.2-1.4-53.5,16.8c-1.6,4.1-7.7,19.1-9.3,23.1
				c-7.3,18.2,13.3,43.6,27.1,49.2c12.1,4.9,46.2,1.4,53.5-16.8C233.6,187.8,239.6,172.8,241.3,168.7z"/>
			<path class="st38" d="M209.8,115.8c0.6-0.3,0.7-1.1,0.4-1.6c0,0,0,0,0,0c-9-13.5-27.2-17.1-40.7-8.2
				c-9.3,6.2-13.9,16.8-12.9,27.2c0.1,0.7,0.7,1.1,1.4,1C176,130.2,194.1,125,209.8,115.8z"/>
			<path class="st38" d="M247,143.9c0.6,0.2,1.3-0.2,1.4-0.9c0,0,0,0,0,0c3.2-15.9-7.1-31.3-23-34.5c-11-2.2-21.7,2-28.4,10.1
				c-0.4,0.5-0.3,1.3,0.3,1.7C212.9,130.2,229.4,139.2,247,143.9z"/>
			<path class="st38" d="M242.3,171c0.2,0.4,0.8,0.4,1.4,0c0,0,0,0,0,0c13.4-9.1,12-29.9,7.5-41.3c-2.8-7-15.8-22.6-25.3-20.3
				c-0.6,0.2,7.3,23.6,7.3,24.1C234.2,147,236.3,160.2,242.3,171z"/>
			<g>
				<path class="st15" d="M230.6,175.1c-3.3,8.1-9.5,13.2-17.6,10c-8.1-3.3-10.5-11.9-7.3-20s11-12.6,19.1-9.4
					C232.9,158.9,233.8,167,230.6,175.1z"/>
				
					<ellipse transform="matrix(0.3727 -0.928 0.928 0.3727 -21.7661 309.3416)" class="st9" cx="217.9" cy="170.8" rx="13.7" ry="13.7"/>
				<path class="st38" d="M228,167.9l-16.9-7.7c-2.4-1.1-3.4-3.9-2.3-6.3l0,0c1.1-2.4,3.9-3.4,6.3-2.3l16.9,7.7
					c2.4,1.1,3.4,3.9,2.3,6.3l0,0C233.2,167.9,230.3,168.9,228,167.9z"/>
				<ellipse transform="matrix(0.3727 -0.928 0.928 0.3727 -25.6653 316.19)" class="st13" cx="221" cy="177.1" rx="6.6" ry="6.6"/>
				<ellipse transform="matrix(0.3727 -0.928 0.928 0.3727 -25.6653 316.19)" cx="221" cy="177.1" rx="2.5" ry="2.5"/>
				
					<ellipse transform="matrix(0.3727 -0.928 0.928 0.3727 -22.7844 313.6799)" class="st16" cx="220.6" cy="173.7" rx="1.9" ry="1.9"/>
			</g>
			<g>
				<path class="st15" d="M163.9,148.3c-3.3,8.1-2.3,16.1,5.8,19.4s15.8-1.3,19.1-9.4s0.8-16.7-7.3-20
					C173.4,135.1,167.2,140.2,163.9,148.3z"/>
				
					<ellipse transform="matrix(0.3727 -0.928 0.928 0.3727 -32.4306 259.9283)" class="st9" cx="176" cy="154" rx="13.7" ry="13.7"/>
				<path class="st38" d="M170.3,141.9l17.2,6.9c2.4,1,5.2-0.2,6.2-2.6h0c1-2.4-0.2-5.2-2.6-6.2l-17.2-6.9c-2.4-1-5.2,0.2-6.2,2.6v0
					C166.7,138.2,167.9,141,170.3,141.9z"/>
				<g>
					
						<ellipse transform="matrix(0.3727 -0.928 0.928 0.3727 -32.937 267.8021)" class="st13" cx="181.6" cy="158.3" rx="6.6" ry="6.6"/>
					<ellipse transform="matrix(0.3727 -0.928 0.928 0.3727 -32.937 267.8021)" cx="181.6" cy="158.3" rx="2.5" ry="2.5"/>
					
						<ellipse transform="matrix(0.3727 -0.928 0.928 0.3727 -30.035 265.3895)" class="st16" cx="181.3" cy="154.9" rx="1.9" ry="1.9"/>
				</g>
			</g>
			<path class="st12" d="M190.6,177.7L190.6,177.7c-2-0.8-3-3.1-2.2-5.2l5.4-13.3c0.8-2,3.1-3,5.2-2.2h0c2,0.8,3,3.1,2.2,5.2
				l-5.4,13.3C194.9,177.6,192.6,178.6,190.6,177.7z"/>
			<path class="st11" d="M191.2,174.6L191.2,174.6c-2-0.8-3-3.1-2.2-5.2l5.4-13.3c0.8-2,3.1-3,5.2-2.2h0c2,0.8,3,3.1,2.2,5.2
				l-5.4,13.3C195.5,174.4,193.2,175.4,191.2,174.6z"/>
			<path class="st38" d="M176.3,109.8l-8.1,20.1l45.5,18.3l7.8-14.3l-3.3,16.1c0,0,6.5,3.6,11.6,5.6c4.3,1.7,11.8,12.2,11.8,12.2
				l10.1-31.7l-54-32.2L176.3,109.8z"/>
			<g class="st23">
				<path class="st11" d="M218.2,106.3c2,1,3.7,2.3,5.7,3.2c2,0.9,3.8,1.5,5.6,2.7c3.4,2.2,6.1,4.8,9.2,7.3c0.8,0.7,3.5-0.6,2.3-1.5
					c-3.1-2.5-5.8-5.1-9.2-7.3c-1.4-0.9-2.7-1.5-4.2-2.1c-2.6-1-4.7-2.4-7.2-3.7C219.6,104.3,216.9,105.6,218.2,106.3L218.2,106.3z"
					/>
			</g>
			<path class="st20" d="M188.5,196.8c4.3,0.7,8.5-1.2,10.8-4.7c-6.5-2.6-13-5.5-19.7-7.8C178.7,190.2,182.6,195.8,188.5,196.8z"/>
		</g>
		<g>
			<path class="st48" d="M164.9,220.9c-6.2-3.1-15.8-2.4-20.2,3.9c-0.7,1-1.2,2.1-1.6,3.3c-0.3,1.2-0.5,2.5-0.4,3.8
				c0,0.9,0.1,1.8,0.2,2.7c0.5,3.6,1.6,7.2,3,10.3c6.6,13.1,18.7,22.3,32.7,27.2c13.4,4.7,21.6-0.5,22.2-4.4
				c1.6-10.1-10.8-18.9-23.9-32c-0.6-0.6-1.2-1.2-1.8-1.8c-3.8-3.3-5.7-7.8-9.1-10.8C165.7,222.4,165.3,221.7,164.9,220.9z"/>
			<g>
				<g>
					<path class="st11" d="M226.5,261.9c-4.4-3.6-12.5-9.3-18.2-4.7c-2.3,1.4-4.2,3.6-4.1,6.2c-0.6,5.1,0.7,10.7,4.4,14.6
						c0.6,0.9,1.2,1.8,1.9,2.8c1.6,1.7,3.9,2.9,5.6,4c0.5,0,2.5,1.3,2.5,1.2c2.6-2.6,5.2-7.5,7-14.4c1.7-7.3,3.8-4.1,0.7-9.3
						C226.1,262.2,226.8,262,226.5,261.9z"/>
					<g>
						<path class="st11" d="M234.1,270.1L234.1,270.1c1.7-0.3,4,2.4,4.3,3.9l1.1,8c0.3,1.5-0.3,3.6-2,4l-0.5,0.1
							c-1.7,0.3-3.4-1.4-3.6-2.9l-3.4-8.1C229.6,273.6,232.4,270.4,234.1,270.1z"/>
						<path class="st11" d="M238,281.2L238,281.2c1.4,1.2,1.8,3.1,0.9,4.1l-5.9,6.9c-0.9,1-2.9,1.7-4.3,0.5l-0.4-0.3
							c-1.4-1.2-1.2-3.5-0.3-4.6l5.9-6.9C234.7,279.8,236.6,280,238,281.2z"/>
						<path class="st11" d="M232.4,290.5l1.6,0.5c-0.9,1.7-2.8,2.8-3.7,2.7l-6.2-0.7c-0.9-0.1-2.4-0.1-2.1-1.9l0.1-0.5
							c0.2-1.8,3.6-3,4.6-2.9l4.5-0.6C232,287,232.6,288.6,232.4,290.5z"/>
						<path class="st11" d="M221.3,263.2L221.3,263.2c1.6-1.8,3.9-2.5,5.1-1.4l7.9,6.9c1.2,1,3.9,5.9,2.3,7.7l-2.5-1.8
							c-1.6,1.8-3.2,1.9-4.4,0.8l-4.4-2.4C224.1,271.9,219.7,265,221.3,263.2z"/>
					</g>
					<g>
						<path class="st11" d="M239.4,272.4l1.3,0.9c0,0,3.3,1.7,4.5,2.8l7.5,5.6c1.2,1.1,2,3.3,0.6,4.5l-0.4,0.4
							c-1.3,1.2-3,1.8-4.1,0.7l-12.6-5.4C234.9,280.7,238,273.6,239.4,272.4z"/>
						<path class="st11" d="M247.8,282.8L247.8,282.8c1-1.6,2.8-2.4,4-1.7l7.8,4.6c1.2,0.7,2.2,2.6,1.1,4.2l-0.3,0.5
							c-1,1.6-2.8,0.8-3.9,0.1l-8.4-3.5C246.9,286.3,246.8,284.4,247.8,282.8z"/>
						<path class="st11" d="M257.3,287.8l-1.1-1.4c1.7-1,3.9-0.8,4.6-0.1l5.2,3.6c0.7,0.7,1.9,1.5,0.7,3l-0.3,0.5
							c-1.2,1.5-4.7,0.4-5.4-0.3l-3.9-2.5C256.4,290,256.1,289.3,257.3,287.8z"/>
						<path class="st11" d="M216.1,276.4l-0.7-5.3c0.3-2.4,7.3-11.1,9-10.9l17.9,14.3c1.7,0.2,4.8,3.7,4.5,6.1l-3.6-2.4
							c-0.3,2.4-1.7,3.3-3.5,3.1l-5.4,0.3C216,279.1,214.5,279.1,216.1,276.4z"/>
					</g>
					<path class="st11" d="M227.5,276.8c1.7,0.2,7.1,2.9,6.9,5.3l-3.4-0.2c-0.3,2.4-1.7,3.3-3.5,3.1l-5.4,0.3
						c-1.7-0.2-9.9-3.7-9.6-6.1h0"/>
					<g>
						<path class="st11" d="M238.4,274.2L238.4,274.2c1.3,1.2-0.2,3.6-1.3,4.8l-5.2,7.8c-1,1.2-3.2,2.1-4.4,0.9l-0.4-0.4
							c-1.3-1.2-0.9-3.8,0.2-5.1l2.9-8.7C231.3,272.4,237.1,273,238.4,274.2z"/>
						<path class="st11" d="M231.7,285L231.7,285c-0.2,2-1.4,3.6-2.8,3.5l-9.1-0.5c-1.4-0.1-3.1-1.3-2.9-3.3l0-0.6
							c0.2-2,2.1-3.4,3.5-3.4l9.1,0.5C230.9,281.3,231.9,283,231.7,285z"/>
						<path class="st11" d="M220.9,286.4l0.6,1.7c-1.9,0.4-3.9-0.5-4.4-1.4l-3.1-5.8c-0.5-0.9-1.3-2.1,0.3-3.1l0.5-0.3
							c1.6-1,4.5,1.1,5,2l3.2,3.5C223.4,283.8,222.5,285.4,220.9,286.4z"/>
					</g>
				</g>
				<path class="st48" d="M201.8,248.1c-2.8-1.5-4.7-4-7.2-4.7c-0.9-0.4-1.9-0.8-2.8-1.2c-3.8-1.6-7.7-3-11.7-4.7
					c-1.1-0.4-2.2-0.8-3.2-1.2c-7.5-2.9-14.7-5.7-23-1.5c-0.6,0.6-1,1.5-1.3,2.5c-1,4.1,0.7,10.6,3.9,13.9c5,4.4,11.1,9.5,17.4,14
					c1,0.8,2.1,1.5,3.2,2.2c6,4.2,16.2,9.3,22.1,2.3c0.7-0.8,1.5-1.6,2.1-2.5c3.4-4.4,5.6-10.2,3.1-15.7
					C203.4,249.8,203.3,249.5,201.8,248.1z"/>
				<path class="st9" d="M202.7,249.3c-0.9-1.1-1.8-2.1-2.8-3c-0.8-0.7-1.7-1.4-2.6-2s-1.8-1.2-2.8-1.7c-3.5-1.2-7-2.3-10.5-3.5
					c-1.2-0.4-2.3-0.8-3.5-1.3c-6.5-3.1-14.2-6.3-17.4-13.3c1.3,8.3,9,12.2,15.4,15.1c1.2,0.5,2.4,0.9,3.7,1.3
					c3.7,1.2,7.5,2.3,11,3.4c1.2,0.5,2.3,1,3.4,1.6s2.2,1.2,3.3,1.8C201.6,248.7,202.5,249.3,202.7,249.3z"/>
				<path class="st9" d="M178.2,271.9c-9.8-8.8-23.8-14.8-33.5-24c-1.2-1.1-2.3-2.2-3.4-3.3c-2.2-2.3-4.2-4.8-5.9-7.5
					c0.8,2,1.8,3.9,3,5.7c1.1,1.8,2.4,3.5,3.8,5.1c9.2,10.3,20.2,16.3,32.3,22.1C176.7,271.2,177.9,271.8,178.2,271.9z"/>
				<path class="st9" d="M202.3,248.8c2.7,0.7,12,6,12.7,6.7c-4.6,3.7-9.8,9.4-10.6,17.3c-2.9-1.7-9.9-6.1-10.7-7.1
					C195.5,258,197.2,254.7,202.3,248.8z"/>
			</g>
		</g>
		<ellipse class="st124" cx="132.6" cy="218.7" rx="35.3" ry="29.1"/>
		<g>
			<path class="st48" d="M67.6,216.3c-6.2-3.1-15.8-2.4-20.2,3.9c-0.7,1-1.2,2.1-1.6,3.3c-0.3,1.2-0.5,2.5-0.4,3.8
				c0,0.9,0.1,1.8,0.2,2.7c0.5,3.6,1.6,7.2,3,10.3c6.6,13.1,19.7,20.2,32.7,27.2c5.1,2.2,24.9,4.7,25.5,0.8
				c1.6-10.1-14.1-24.1-27.2-37.1c-0.6-0.6-1.2-1.2-1.8-1.8c-3.8-3.3-5.7-7.8-9.1-10.8C68.4,217.7,68,217,67.6,216.3z"/>
			<g>
				<g>
					<path class="st11" d="M129.3,257.3c-4.4-3.6-12.5-9.3-18.2-4.7c-2.3,1.4-4.2,3.6-4.1,6.2c-0.6,5.1,0.7,10.7,4.4,14.6
						c0.6,0.9,1.2,1.8,1.9,2.8c1.6,1.7,3.9,2.9,5.6,4c0.5,0,2.5,1.3,2.5,1.2c2.6-2.6,5.2-7.5,7-14.4c1.7-7.3,3.8-4.1,0.7-9.3
						C128.8,257.5,129.5,257.3,129.3,257.3z"/>
					<g>
						<path class="st11" d="M136.8,265.4L136.8,265.4c1.7-0.3,4,2.4,4.3,3.9l1.1,8c0.3,1.5-0.3,3.6-2,4l-0.5,0.1
							c-1.7,0.3-3.4-1.4-3.6-2.9l-3.4-8.1C132.3,268.9,135.1,265.7,136.8,265.4z"/>
						<path class="st11" d="M140.7,276.5L140.7,276.5c1.4,1.2,1.8,3.1,0.9,4.1l-5.9,6.9c-0.9,1-2.9,1.7-4.3,0.5l-0.4-0.3
							c-1.4-1.2-1.2-3.5-0.3-4.6l5.9-6.9C137.5,275.2,139.3,275.3,140.7,276.5z"/>
						<path class="st11" d="M135.1,285.8l1.6,0.5c-0.9,1.7-2.8,2.8-3.7,2.7l-6.2-0.7c-0.9-0.1-2.4-0.1-2.1-1.9l0.1-0.5
							c0.2-1.8,3.6-3,4.6-2.9l4.5-0.6C134.7,282.4,135.3,284,135.1,285.8z"/>
						<path class="st11" d="M124,258.5L124,258.5c1.6-1.8,3.9-2.5,5.1-1.4l7.9,6.9c1.2,1,3.9,5.9,2.3,7.7l-2.5-1.8
							c-1.6,1.8-3.2,1.9-4.4,0.8l-4.4-2.4C126.8,267.2,122.4,260.3,124,258.5z"/>
					</g>
					<g>
						<path class="st11" d="M142.1,267.7l1.3,0.9c0,0,3.3,1.7,4.5,2.8l7.5,5.6c1.2,1.1,2,3.3,0.6,4.5l-0.4,0.4
							c-1.3,1.2-3,1.8-4.1,0.7l-12.6-5.4C137.6,276.1,140.8,268.9,142.1,267.7z"/>
						<path class="st11" d="M150.5,278.1L150.5,278.1c1-1.6,2.8-2.4,4-1.7l7.8,4.6c1.2,0.7,2.2,2.6,1.1,4.2l-0.3,0.5
							c-1,1.6-2.8,0.8-3.9,0.1l-8.4-3.5C149.6,281.6,149.5,279.7,150.5,278.1z"/>
						<path class="st11" d="M160.1,283.1l-1.1-1.4c1.7-1,3.9-0.8,4.6-0.1l5.2,3.6c0.7,0.7,1.9,1.5,0.7,3l-0.3,0.5
							c-1.2,1.5-4.7,0.4-5.4-0.3l-3.9-2.5C159.1,285.3,158.9,284.6,160.1,283.1z"/>
						<path class="st11" d="M118.8,271.7l-0.7-5.3c0.3-2.4,7.3-11.1,9-10.9l17.9,14.3c1.7,0.2,4.8,3.7,4.5,6.1l-3.6-2.4
							c-0.3,2.4-1.7,3.3-3.5,3.1L137,277C118.7,274.4,117.3,274.4,118.8,271.7z"/>
					</g>
					<path class="st11" d="M130.3,272.1c1.7,0.2,7.1,2.9,6.9,5.3l-3.4-0.2c-0.3,2.4-1.7,3.3-3.5,3.1l-5.4,0.3
						c-1.7-0.2-9.9-3.7-9.6-6.1v0"/>
					<g>
						<path class="st11" d="M141.1,269.5L141.1,269.5c1.3,1.2-0.2,3.6-1.3,4.8l-5.2,7.8c-1,1.2-3.2,2.1-4.4,0.9l-0.4-0.4
							c-1.3-1.2-0.9-3.8,0.2-5.1l2.9-8.7C134,267.7,139.9,268.3,141.1,269.5z"/>
						<path class="st11" d="M134.4,280.4L134.4,280.4c-0.2,2-1.4,3.6-2.8,3.5l-9.1-0.5c-1.4-0.1-3.1-1.3-2.9-3.3l0-0.6
							c0.2-2,2.1-3.4,3.5-3.4l9.1,0.5C133.6,276.6,134.6,278.3,134.4,280.4z"/>
						<path class="st11" d="M123.6,281.7l0.6,1.7c-1.9,0.4-3.9-0.5-4.4-1.4l-3.1-5.8c-0.5-0.9-1.3-2.1,0.3-3.1l0.5-0.3
							c1.6-1,4.5,1.1,5,2l3.2,3.5C126.1,279.1,125.2,280.7,123.6,281.7z"/>
					</g>
				</g>
				<path class="st48" d="M104.5,243.5c-2.8-1.5-4.7-4-7.2-4.7c-0.9-0.4-1.9-0.8-2.8-1.2c-3.8-1.6-7.7-3-11.7-4.7
					c-1.1-0.4-2.2-0.8-3.2-1.2c-7.5-2.9-14.7-5.7-23-1.5c-0.6,0.6-1,1.5-1.3,2.5c-1,4.1,0.7,10.6,3.9,13.9c5,4.4,11.1,9.5,17.4,14
					c1,0.8,2.1,1.5,3.2,2.2c6,4.2,16.2,9.3,22.1,2.3c0.7-0.8,1.5-1.6,2.1-2.5c3.4-4.4,5.6-10.2,3.1-15.7
					C106.1,245.1,106,244.8,104.5,243.5z"/>
				<path class="st9" d="M105.5,244.6c-0.9-1.1-1.8-2.1-2.8-3c-0.8-0.7-1.7-1.4-2.6-2c-0.9-0.6-1.8-1.2-2.8-1.7
					c-3.5-1.2-7-2.3-10.5-3.5c-1.2-0.4-2.3-0.8-3.5-1.3c-6.5-3.1-14.2-6.3-17.4-13.3c1.3,8.3,9,12.2,15.4,15.1
					c1.2,0.5,2.4,0.9,3.7,1.3c3.7,1.2,7.5,2.3,11,3.4c1.2,0.5,2.3,1,3.4,1.6c1.1,0.6,2.2,1.2,3.3,1.8
					C104.3,244,105.2,244.6,105.5,244.6z"/>
				<path class="st9" d="M105,244.2c2.7,0.7,12,6,12.7,6.7c-4.6,3.7-9.4,10-10.2,17.9c-2.9-1.7-9.9-6.1-10.7-7.1
					C98.5,253.9,100,250,105,244.2z"/>
			</g>
		</g>
		<path class="st9" d="M77.2,264.9c-8.5-7.7-20.2-13.2-29.5-20.6c0.1,1,0.2,2,0.2,3c7.7,6.5,16.3,11.1,25.5,15.5
			C75.7,264.2,76.9,264.8,77.2,264.9z"/>
		<polyline class="st124" points="101.1,208.7 97.8,192.1 107.3,202.4 162.4,203.1 174.4,199.7 165.8,213.4 		"/>
		<g>
			<path class="st12" d="M117,249.7c6,0.8,10.1,5,14.2,9c4.4,4.3,9,8.3,13.8,12.1c9,7.1,18.7,13.3,28.8,18.6c-0.1-0.5-0.3-1-0.4-1.5
				c-4.2,5.8-14.5-2.2-18.8-4.6c-4.8-2.7-9.5-5.5-14.2-8.4c-0.9-0.6-2.3-0.1-2.6,1c-0.8,3.4-1.5,6.9-2.3,10.3c0.9-0.3,1.7-0.6,2.6-1
				c-2.2-1.5-5.5-3.1-8.1-1.6c-1,0.6-1.1,1.8-1.9,2.3c-2.7,1.7-8.3-1.5-11-3.1c-1.2-0.7-3.7,0.9-2.2,1.7c3.5,2,8.7,4.9,12.9,4.4
				c3.6-0.4,3.3-5.2,8.1-2c0.9,0.6,2.3,0.1,2.6-1c0.8-3.4,1.5-6.9,2.3-10.3c-0.9,0.3-1.7,0.6-2.6,1c7.8,4.7,15.6,9.6,23.8,13.7
				c4.7,2.3,10.4,3.3,13.9-1.5c0.4-0.6,0.2-1.2-0.4-1.5c-11.5-6-22.4-13.2-32.3-21.6c-7.5-6.3-14.8-16.9-25.2-18.3
				C116.5,247.3,115.1,249.5,117,249.7L117,249.7z"/>
		</g>
		<g>
			<path class="st12" d="M209.9,253.1c8.4,1.1,14.4,9.6,20.4,14.9c5.9,5.3,12.2,10.1,18.8,14.6c3.4,2.3,6.8,4.4,10.4,6.5
				c0.6,0.4,5.3,2.4,5.4,3c0.2,4.3-7.8,0.3-8.7-0.2c-7.8-4-15.4-8.6-22.9-13.2c-0.8-0.5-2.4,0-2.6,0.9c-0.8,3.4-1.5,6.9-2.3,10.3
				c0.9-0.3,1.7-0.6,2.6-0.9c-2.2-1.5-5.5-2.9-8.1-1.5c-1.1,0.6-1.1,1.6-1.9,2.2c-2.9,2-8.4-1.6-11-3c-1-0.6-3.6,0.8-2.3,1.5
				c3.4,2,8.9,5,13.1,4.4c3.8-0.6,3.2-5.1,7.9-1.9c0.7,0.5,2.4,0,2.6-0.9c0.8-3.4,1.5-6.9,2.3-10.3c-0.9,0.3-1.7,0.6-2.6,0.9
				c8.1,4.9,16.3,10.4,25,14.2c4.6,2,9.7,2,12.9-2.3c0.2-0.3,0.1-0.7-0.2-0.9c-11.8-6.2-22.9-13.5-33.1-22.2
				c-7.4-6.3-14.4-16.5-24.7-17.9C209.7,251,208,252.8,209.9,253.1L209.9,253.1z"/>
		</g>
	</g>
</g>
<g id="Layer_2">
</g>
</svg>
