<svg xmlns="http://www.w3.org/2000/svg" xmlns:xlink="http://www.w3.org/1999/xlink" viewBox="0 0 300 450"><defs><clipPath id="8dd6ff46-ed83-4509-84f8-3301e83af1cf"><path d="M249.63,218a99.73,99.73,0,0,1-199.47,0c0-55.08-18.24-171.13,112.17-162.62C217.3,58.95,249.63,162.9,249.63,218Z" style="fill:none"/></clipPath></defs><title>juego2_ilust</title><g id="34fc2b65-6993-489f-95b2-8f1218c90eaa" data-name="Layer 1"><circle cx="150" cy="217.41" r="99.73" style="fill:#dcffc5"/></g><g id="0aa08a00-4c24-40ff-a116-d8b45ce084c7" data-name="Layer 2"><circle cx="149.9" cy="217.98" r="99.73" style="fill:#dcffc5"/><g style="clip-path:url(#8dd6ff46-ed83-4509-84f8-3301e83af1cf)"><path d="M207.24,268.32c0-13.15-.33-22.23-10.85-26.72-6.31-2.69-20.54-4.82-28.7-4.45l-32.13,1.47c-9.84.45-25.5,3.34-32.44,8-8.4,5.63-7.11,14-7.11,25.5v90.58a35.8,35.8,0,0,0,3.64,15.8c33.9.86,68.22-1.13,102.33-1.65a38.28,38.28,0,0,0,5.27-19.24Z" style="fill:#f1f3f7"/><path d="M110.6,247.83l3.82,1.31c6.39,1.75,6.26,15.62-.29,30.81l-11.08,30.44L91.59,346c-3.58,8.32-5.82,15.13-9.92,18.24-3.39,2.57-8.66,2.88-11.55,2.09l-9.44-2.59c-2.4-.66-6.11-2.88-7-5.54-1.55-4.43,1.18-11,5.27-20.52,0,0,19.12-48.18,14.69-36s7.61-19.74,15.22-35.94S104.22,246.08,110.6,247.83Z" style="fill:#f1f3f7"/><polygon points="151.73 272.76 151.73 237.92 166.76 244.92 151.73 272.76" style="fill:#dcdde0;opacity:0.400000005960465"/><polygon points="151.73 272.76 151.73 237.92 136.71 244.92 151.73 272.76" style="fill:#dcdde0;opacity:0.400000005960465"/><polygon points="162.71 243.52 151.44 238.12 142.42 244.96 148.3 254 155.95 254.13 162.71 243.52" style="fill:#0076b7"/><polygon points="151.73 237.92 151.73 238.54 166.21 251.1 172.49 238.07 169.57 232.47 151.73 237.92" style="fill:#fff"/><polygon points="151.73 237.92 151.73 238.54 137.26 251.1 130.98 238.07 133.9 232.47 151.73 237.92" style="fill:#fff"/><path d="M166.26,298.78c.36-.22.79-.1,1.26.18s1,.7,1.47,1.05l1.72.87,8.18,4.15,13-6.41V279.55H168.62a6.6,6.6,0,0,0-1.56-.21c-.58,0-1.08,0-1.08,0,0,6,0,12,.28,18.34Z" style="fill:#fff"/><path d="M191.88,271.47H166.26v4.41c-.28,1.44-.28,1.44,1.1,1.55h24.52Z" style="fill:#fff"/><path d="M56.91,206.88c0,.27,0,.53,0,.81C56.89,207.43,56.9,207.15,56.91,206.88Z" style="fill:#f7cfa2"/></g><path d="M171.92,233.08A138,138,0,0,0,156.69,214l-8.57,6.14a10.31,10.31,0,0,0-2.37,14.35l2.24,3.12a10.31,10.31,0,0,0,14.34,2.37Z" style="fill:#f7cfa2"/><path d="M56.94,206.2c0,.23,0,.45,0,.68Q56.93,206.53,56.94,206.2Z" style="fill:#f7cfa2"/><path d="M214.36,168.75l.81,0Z" style="fill:#f7cfa2"/><path d="M213.68,168.78l.68,0Z" style="fill:#f7cfa2"/><path d="M211.23,170c-.49.72-1.34,2.3-1,3.19l5-4.44-.81,0-.68,0A2.82,2.82,0,0,0,211.23,170Z" style="fill:#f7cfa2"/><rect x="138.21" y="128.6" width="43.26" height="62.36" rx="16.9" ry="16.9" transform="translate(19.46 -17.34) rotate(6.61)" style="fill:#f0ba7a"/><circle cx="97.2" cy="150.69" r="16.79" transform="translate(-63.67 229.89) rotate(-83.39)" style="fill:#f7cfa2"/><circle cx="97.2" cy="150.69" r="11.06" transform="translate(-63.67 229.89) rotate(-83.39)" style="fill:#f0ba7a"/><circle cx="232.71" cy="166.39" r="16.79" transform="translate(40.62 378.39) rotate(-83.39)" style="fill:#f7cfa2"/><circle cx="232.71" cy="166.39" r="11.06" transform="translate(40.62 378.39) rotate(-83.39)" style="fill:#f0ba7a"/><path d="M235.4,151.83c18.48-74.92-24.28-59.88-62.29-64.29s-71.74,17.23-75.34,48.33l-4.58,39.51c-3.6,31.1,38.77,61.56,62.29,64.29,20.73,2.4,71.74-17.23,75.34-48.33C231.63,184.39,233.73,158.62,235.4,151.83Z" style="fill:#f7cfa2"/><path d="M213,132.35c-1.46-1.84,2.22-4.75,2.22-4.75,10.08-.5,9.81,16.16,20.27,12.37,3.49-1.27,2.6-8,3.18-13,2.72,10.94,6.57,3,12.92.7,1.19-5.4,2.27-9.9,2.58-12.56C258.52,78,229.11,51.22,192,46.92c-36.22-4.2-59,16-64.64,51.68,29.39-6.27,46.7,9.92,63.31,29C198.3,128.43,205,131.41,213,132.35Z" style="fill:#601515"/><path d="M170.87,76.94a1.8,1.8,0,0,0-.09-2.61h0a46.77,46.77,0,0,0-74.48,51.79,1.81,1.81,0,0,0,2.54,1C124.89,113.35,150.45,97.66,170.87,76.94Z" style="fill:#601515"/><path d="M221.64,164.83c-1.6,13.83-9,24.34-22.87,22.73s-21.21-13.82-19.6-27.66,11.58-24,25.41-22.44S223.25,151,221.64,164.83Z" style="fill:#601515;opacity:0.100000001490116"/><circle cx="200.37" cy="163.55" r="21.89" transform="translate(14.84 343.76) rotate(-83.39)" style="fill:#fff"/><circle cx="199.51" cy="169.45" r="10.47" transform="translate(8.22 348.12) rotate(-83.39)" style="fill:#601515"/><circle cx="199.51" cy="169.45" r="4.06" transform="translate(8.22 348.12) rotate(-83.39)"/><circle cx="197.45" cy="164.41" r="2.99" transform="translate(11.39 341.61) rotate(-83.39)" style="fill:#f9f9f9"/><path d="M222.12,166.07a21.89,21.89,0,0,0-43.2-6.88c14.37,2.33,28.81,4.48,43.18,7Z" style="fill:#f7cfa2"/><path d="M187.51,220.9s-15-1.4-29.34-3.06-22.07-5.58-22.07-5.58,9.54-2.51,23.84-.85S187.51,220.9,187.51,220.9Z" style="fill:#ea6d50"/><rect x="153.18" y="141.11" width="20.08" height="56.37" rx="10.04" ry="10.04" transform="translate(20.58 -17.67) rotate(6.61)" style="fill:#f0ba7a"/><rect x="151.89" y="134.95" width="20.08" height="56.37" rx="10.04" ry="10.04" transform="translate(19.86 -17.56) rotate(6.61)" style="fill:#f7cfa2"/><path d="M123.88,97.31s16.91,10,24.78,16.61c10.88,9.11,35.78,13,35.78,13s-15.24-26.48-26.94-31.41S123.88,97.31,123.88,97.31Z" style="fill:#601515"/><path d="M120.56,62.9a92.91,92.91,0,0,1,10.82,1.43c5,1.22,13.84-1.55,13.84-1.55s-9.29-6.21-13.93-5.93S120.56,62.9,120.56,62.9Z" style="fill:#601515"/><path d="M154.54,44.44a92.92,92.92,0,0,0-3.68,10.27c-1.22,5-7.71,11.59-7.71,11.59s-1.27-11.1,1.1-15.1S154.54,44.44,154.54,44.44Z" style="fill:#601515"/><ellipse cx="112.2" cy="177.83" rx="1.25" ry="2.5" transform="translate(-77.36 268.81) rotate(-83.39)" style="fill:#f0ba7a"/><ellipse cx="122.09" cy="178.97" rx="1.25" ry="2.5" transform="translate(-69.75 279.64) rotate(-83.39)" style="fill:#f0ba7a"/><ellipse cx="116.57" cy="183.34" rx="1.25" ry="2.5" transform="translate(-78.97 278.03) rotate(-83.39)" style="fill:#f0ba7a"/><ellipse cx="200.83" cy="188.1" rx="1.25" ry="2.5" transform="translate(-9.14 365.94) rotate(-83.39)" style="fill:#f0ba7a"/><ellipse cx="210.72" cy="189.24" rx="1.25" ry="2.5" transform="translate(-1.53 376.77) rotate(-83.39)" style="fill:#f0ba7a"/><ellipse cx="205.2" cy="193.61" rx="1.25" ry="2.5" transform="translate(-10.75 375.16) rotate(-83.39)" style="fill:#f0ba7a"/><path d="M101.08,109.6l-5.81,57.77,6.11-4.38,8.31-34.37s11.29-21.54,23.06-24.73,34.1-1.82,34.1-1.82L149.42,90.68Z" style="fill:#601515;opacity:0.300000011920929"/><path d="M240.89,123l-9.29,52.66-4.86,1.88-.23-35.36s-6.06-23.55-16.79-29.35-32.78-9.57-32.78-9.57l19.57-7.11Z" style="fill:#601515;opacity:0.300000011920929"/><path d="M193.49,142.52l27.91-9.94a7.51,7.51,0,0,0,4.53-9.63h0a7.65,7.65,0,0,0-9.71-4.56l-27.91,9.94a7.51,7.51,0,0,0-4.53,9.63h0A7.65,7.65,0,0,0,193.49,142.52Z" style="fill:#5b1010"/><path d="M161.64,154.83c-1.6,13.83-9,24.34-22.87,22.73s-21.21-13.82-19.6-27.66,11.58-24,25.41-22.44S163.25,141,161.64,154.83Z" style="fill:#601515;opacity:0.100000001490116"/><circle cx="140.37" cy="153.55" r="21.89" transform="translate(-28.32 275.31) rotate(-83.39)" style="fill:#fff"/><circle cx="139.51" cy="159.45" r="10.47" transform="translate(-34.94 279.67) rotate(-83.39)" style="fill:#601515"/><circle cx="139.51" cy="159.45" r="4.06" transform="translate(-34.94 279.67) rotate(-83.39)"/><circle cx="137.45" cy="154.41" r="2.99" transform="translate(-31.76 273.16) rotate(-83.39)" style="fill:#f9f9f9"/><path d="M162.12,156.07a21.89,21.89,0,0,0-43.2-6.88c14.37,2.33,28.81,4.48,43.18,7Z" style="fill:#f7cfa2"/><rect x="125.39" y="119.07" width="44.7" height="15.1" rx="7.55" ry="7.55" transform="translate(253.23 290.12) rotate(-163.43)" style="fill:#5b1010"/><g style="opacity:0.600000023841858"><path d="M179.77,57.29c4.86,2.22,10.61,1.55,15.74,2.75,4.66,1.09,8.69,3.79,13.42,4.68a.69.69,0,0,0,.37-1.34c-4.65-1.81-9-4.55-14-5.54-4.74-1-10.75-2-15.49-1a.27.27,0,0,0-.06.48Z" style="fill:#f7cfa2"/></g><path d="M153.85,287.88a5.13,5.13,0,0,1,1.37.73,6.88,6.88,0,0,1,1.08,1c1.68.7,1.68,3.7,3.68,4.7,8,1,4-10,4.83-14.9a11.91,11.91,0,0,1,.24-1.61,9.16,9.16,0,0,1,.5-1.55l.29-1.56.29-1.55a78.78,78.78,0,0,1-9-4.16q-.91,3.9-1.63,7.84-.14.79-.28,1.58c.75,2.93-2.25,4.93-1.18,7.91Q153.94,287.08,153.85,287.88Z" style="fill:#fff"/><polygon points="243.04 266.38 199.43 243.02 206.12 288.46 243.46 283.53 243.04 266.38" style="fill:#f1f3f7"/><path d="M188,256.2a13.21,13.21,0,0,1-6.75-9.86c-.33-2.71-.21-6.19-2.71-7.3a4.39,4.39,0,0,0-3-.06,7.79,7.79,0,0,0-5.5,7.32" style="fill:#f0ba7a"/><path d="M243,266.38c5.78,1.86,10.59,11.12,8.2,22.53a28.62,28.62,0,0,1-1.63,5.25,26.09,26.09,0,0,1-2.69,4.89q-1.07,1.57-2.21,3a53,53,0,0,1-9.49,9.44c-13.66,9.72-26.22,6.48-38.79,3.24-4.45-1.92-17.35-16.49-14.69-21.68,6.85-13.38,26.13-16,43.29-19.89l2.32-.55c4.65-.56,9.12-4.17,13.24-4.75A24.79,24.79,0,0,0,243,266.38Z" style="fill:#f1f3f7"/><path d="M202.17,266c2.66.7,5.67-.63,7.53.78.82.33,1.63.69,2.45,1.07,3.26,1.51,6.55,3.23,10,4.79.91.49,1.83.94,2.74,1.4,6.39,3.18,12.49,6.25,13.83,18.68a14,14,0,0,1-1.21,4.1c-2.55,5.7-8.46,11.86-12.7,13a124,124,0,0,1-20.25,1.09c-1.15,0-2.29-.1-3.41-.21-6.53-.31-16.08-3.31-14-16.78.17-1.54.4-3.15.7-4.79,1.49-8.19,4.67-17,10.23-21.29C200,266.52,200.32,266.24,202.17,266Z" style="fill:#f1f3f7"/><path d="M200.74,266.52a13.93,13.93,0,0,1,3.79-1,15.46,15.46,0,0,1,3-.13,16.49,16.49,0,0,1,2.84.4c2.83,1.61,5.63,3.49,8.49,5.13,1,.55,1.92,1.07,2.9,1.55,5.92,2.09,12.59,5.1,19.72-.4-7,8.72-14.2,6.46-20,4.17-1-.51-2-1.08-3.05-1.69-3-1.82-5.89-4-8.68-5.68a28.15,28.15,0,0,0-3.1-1.16,21.19,21.19,0,0,0-3.2-.72A10.69,10.69,0,0,1,200.74,266.52Z" style="fill:#fff"/><path d="M201.37,266.38c-2-1.59-11.21-3.55-12.13-3.28-.3,8.51-2.19,23.39-7.77,33.41,2.91.48,8.92,5.12,10.11,4.69C196.54,290.39,199.7,277.73,201.37,266.38Z" style="fill:#fff"/><path d="M196.82,263.42c-6.85-8.1-12.85-17.1-23.11-22a19.26,19.26,0,0,0-4.73-1.29,21.38,21.38,0,0,0-5.4,0,38,38,0,0,0-6.6,1.23c-1,1-3,2-3,4,0,2.5,1.5,4.5,3.25,6.25s3.75,3.25,4.75,4.75a25.94,25.94,0,0,1,2.61,3.65,31.17,31.17,0,0,1,1.95,3.9c1.44,5.44,3.44,11.44,4.55,16.45q.5,2.06.9,4.12.13.69.25,1.38c-.26,1.5-.26,2.5.43,2.74q.09.69.17,1.37t.14,1.37c0,1.51,1.25,2.51,3.05,3.11a18.77,18.77,0,0,0,6.33.74,22.25,22.25,0,0,1,5.55,2.09" style="fill:#f7cfa2"/><path d="M166.26,331.28l-12.62,14L139,332.9,148.3,254l7.65.13,3,22.36c.06.51.13,1,.19,1.51l.18,1.78c.06.59.12,1.18.19,1.78.47,5.76,1.47,10.76,2.29,17.22l.28,1.68q.14.84.29,1.68l.17,1.29Z" style="fill:#0076b7"/><path d="M75.1,257.66c-5.66,2.18-11.95,16.81-10.88,28.42a28.62,28.62,0,0,0,1,5.41,26.09,26.09,0,0,0,2.12,5.16q.88,1.68,1.85,3.25a53,53,0,0,0,8.35,10.45c12.47,11.2,25.32,9.41,38.17,7.62,4.64-1.4,19.11-14.42,17.06-19.87-5.29-14.07-24.15-18.84-40.75-24.68l-2.25-.81c-4.56-1.09,20.12-25.66,16.09-26.7C105.08,245.33,88.53,252.48,75.1,257.66Z" style="fill:#f1f3f7"/><path d="M125.59,300.45c1.23-.55,2.48-.82,2.45-.22a19.92,19.92,0,0,1,4.74,0c.77-.25,1.54-.46,2.33-.64s1.58-.34,2.39-.48c3-1,6.54-.85,9.9-1l1.43-.07A30.5,30.5,0,0,0,153,298q.71-.07,1.42-.18c1.09-.08,2.16-.21,3.21-.39q.79-.14,1.55-.31c5.77-.8,11.77-5.8,11.85-13.12,0-.43,0-.85-.06-1.27a21.55,21.55,0,0,0-.67-3.68c-.14-.53-.3-1.06-.47-1.58a40.16,40.16,0,0,1-1.31-4.58l-.35-1.52c-2.21-6-5.21-14-11.83-15a9.72,9.72,0,0,0-1.16-.08,10.71,10.71,0,0,0-1.22.05c-4.5.5-8,3.75-11.7,6.89-1.23,1-2.49,2.08-3.81,3a20,20,0,0,1-4.22,2.29,14,14,0,0,1-4.88.95c-2,.36-3.9.61-5.84.87-1.55,9,.45,19,1.82,27.93C125.51,299.62,125.59,300.45,125.59,300.45Z" style="fill:#f7cfa2"/><path d="M115.58,268.89c-2.72.39-5.56-1.27-7.57-.08-.85.23-1.7.5-2.55.78-3.41,1.13-6.87,2.46-10.51,3.62-1,.38-1.93.73-2.88,1.08-6.71,2.44-13.12,4.79-15.86,17a14,14,0,0,0,.73,4.21c1.89,6,7.06,12.74,11.14,14.39a124,124,0,0,0,20,3.38c1.15.09,2.29.16,3.41.18,6.52.44,16.35-1.47,15.78-15.08,0-1.55,0-3.17-.15-4.83-.55-8.3-2.7-17.46-7.75-22.32C117.66,269.65,117.4,269.34,115.58,268.89Z" style="fill:#f1f3f7"/><path d="M116.95,269.57a13.93,13.93,0,0,0-3.65-1.44,15.46,15.46,0,0,0-2.94-.47,16.49,16.49,0,0,0-2.86.08c-3,1.28-6,2.83-9,4.13-1,.44-2,.84-3.06,1.21-6.12,1.4-13.09,3.64-19.55-2.63,6,9.46,13.38,8,19.38,6.41,1.08-.39,2.16-.84,3.22-1.33,3.19-1.47,6.31-3.27,9.27-4.66a28.15,28.15,0,0,1,3.21-.8,21.19,21.19,0,0,1,3.26-.36A10.69,10.69,0,0,0,116.95,269.57Z" style="fill:#fff"/><path d="M116.34,269.35c2.14-1.35,11.54-2.25,12.42-1.88-.67,8.49-.48,23.49,3.93,34.07-2.94.15-9.44,4.07-10.58,3.51C118.41,293.76,116.71,280.82,116.34,269.35Z" style="fill:#fff"/><path d="M161.67,296.75a5.64,5.64,0,0,0,4.31-.87,16.17,16.17,0,0,0,2.88-3.1c1.18-1.39-1.58-1.83-2.42-.83-.61.72-1.15,1.52-1.83,2.18a1.82,1.82,0,0,1-1.93.55c-1.41-.26-2.94,1.73-1,2.08Z" style="fill:#f0ba7a"/><path d="M158.88,264.65c5.78,1.05,8,6.18,8.73,11.44l1.26-1.08c-1.25.34-3.59-.57-4.86-.81-.85-.16-3.43,1.15-1.79,1.53,7.48,1.72,11.58,18.43.41,18-1.07,0-3.09,1.51-1.14,1.59,5,.2,9.92-2.17,10.84-7.57,1-5.65-2.64-12.22-8.33-13.52l-1.79,1.53c2.32.43,4.69,1.29,7,.66.45-.12,1.35-.48,1.26-1.08-.86-5.89-3.59-11.05-9.85-12.19-.89-.16-3.4,1.23-1.79,1.53Z" style="fill:#f0ba7a"/><path d="M165.51,265.83c-1.74-3.53-4-8.72-8-10-3.38-1.09-6.4.84-8.83,3-1.23,1.09,1.63,1,2.31.42,1.72-1.53,4.08-2.63,6.14-1a9.89,9.89,0,0,1,1.65,1.78,39.85,39.85,0,0,1,3.88,6.62c.47,1,3.29,0,2.9-.78Z" style="fill:#f0ba7a"/><path d="M183,260.86c-4.15-7.06-10-13.52-17.25-17.49-3.26-1.78-9.71-4-12.37.1-3.41,5.32,7.06,12.86,10,15.37.87.75,3.59-.4,2.67-1.2-2.87-2.48-10.84-8.18-10.31-12.74.57-4.89,11.13,2.09,13.14,3.69a48,48,0,0,1,11.48,13.46c.56,1,3.36,0,2.67-1.2Z" style="fill:#f0ba7a"/><path d="M160.11,242.27c5.46-3.35,11.41,2.53,15.15,6,.86.79,3.59-.36,2.67-1.21-5.5-5.05-12.27-10.42-19.69-5.86-1.67,1,.79,1.77,1.86,1.11Z" style="fill:#f0ba7a"/></g></svg>