<svg id="e325d853-b705-4143-b59a-2ac808f63ba8" data-name="Layer 1" xmlns="http://www.w3.org/2000/svg" xmlns:xlink="http://www.w3.org/1999/xlink" viewBox="0 0 300 450"><defs><clipPath id="e39bdd87-1370-4700-af9a-06e3e2f98219"><path d="M249.44,217.93a99.73,99.73,0,0,1-199.47,0C50,162.85,31.74,46.81,162.14,55.31,217.11,58.89,249.44,162.85,249.44,217.93Z" style="fill:none"/></clipPath><clipPath id="84bc721b-d88b-44b9-a037-b85b49000be8"><path d="M257.75,205.84c0,35.25-28.92,87.36-64,102.59-13.58,5.9-35.57,13.1-39.2,3.39-9-24.21-24.47-85.53-24.47-106,0-35.25,28.58-106.07,63.83-106.07S257.75,170.59,257.75,205.84Z" style="fill:none"/></clipPath></defs><title>juego2_ilust</title><path d="M56.75,206.15c0,.23,0,.45,0,.68Q56.74,206.48,56.75,206.15Z" style="fill:#f7cfa2"/><circle cx="149.71" cy="217.93" r="99.73" style="fill:#f2c85f"/><g style="clip-path:url(#e39bdd87-1370-4700-af9a-06e3e2f98219)"><rect x="65.59" y="179.47" width="33.84" height="47.81" rx="12.54" ry="12.54" transform="translate(-9.26 4.01) rotate(-2.64)" style="fill:#f0ba7a"/><path d="M144.76,233.44c-1.59-13.34-3-22.5-14.52-25.74-6.89-1.95-21.95-2.34-30.39-1L66.6,212.21c-10.18,1.68-28.52.49-35.17,6.07-8.06,6.75-3.31,21.12-1.92,32.8l10.94,91.85a35.8,35.8,0,0,0,5.7,15.57c35.36-3.33,70.83-9.6,106.25-14.35A38.34,38.34,0,0,0,155.54,324Z" style="fill:#f1f3f7"/><path d="M41.76,224.64l4.13.85c6.86,1,8.4,15.06,3.43,31.28L41.46,289l-7.63,37.52c-2.72,8.88-4.23,16.06-8.11,19.73-3.21,3-8.66,4-11.76,3.55L3.83,348.35c-2.57-.37-6.7-2.17-8-4.75-2.14-4.3-.1-11.32,3-21.46,0,0,14.07-51.23,10.93-38.34s5.53-21,11.49-38.33S34.9,223.66,41.76,224.64Z" style="fill:#f1f3f7"/><path d="M123.78,208.28l-3.81,1.8c-6.43,2.57-4.62,16.61,4,31.21l15.2,29.49,16.23,34.68c4.73,8,7.88,14.62,12.52,17.27,3.83,2.19,9.36,1.85,12.27.69l9.5-3.79c2.41-1,6-3.68,6.65-6.49,1.07-4.69-2.56-11-8-20.15,0,0-25.71-46.49-19.64-34.7s-10.3-19.08-20.18-34.56S130.21,205.71,123.78,208.28Z" style="fill:#f1f3f7"/><polygon points="87.55 244.82 83.34 209.49 99.82 214.72 87.55 244.82" style="fill:#dcdde0;opacity:0.400000005960465"/><polygon points="87.55 244.82 83.34 209.49 68.56 218.45 87.55 244.82" style="fill:#dcdde0;opacity:0.400000005960465"/><polygon points="95.44 213.81 83.06 209.73 74.51 217.78 81.71 226.22 89.69 225.41 95.44 213.81" style="fill:#0076b7"/><polygon points="109.73 302.36 98.3 318.16 81.55 307.38 81.71 226.22 89.69 225.41 109.73 302.36" style="fill:#0076b7"/><polygon points="83.34 209.49 83.42 210.13 99.99 221.06 104.95 207.07 101.23 201.75 83.34 209.49" style="fill:#fff"/><polygon points="83.34 209.49 83.42 210.13 69.88 224.65 61.77 212.22 64.13 206.17 83.34 209.49" style="fill:#fff"/><polygon points="102.28 263.86 114.9 270.26 127.9 263.86 127.9 244.78 102.28 244.78 102.28 263.86" style="fill:#fff"/><rect x="102.28" y="236.69" width="25.62" height="5.95" style="fill:#fff"/><path d="M56.73,206.83c0,.27,0,.53,0,.81C56.71,207.38,56.72,207.1,56.73,206.83Z" style="fill:#f7cfa2"/></g><path d="M110.43,139.26l.46-.24Z" style="fill:#f7cfa2"/><path d="M110,139.46l.39-.2Z" style="fill:#f7cfa2"/><path d="M108.92,140.79c-.1.55-.17,1.69.24,2.13l1.73-3.9-.46.24-.39.2A1.81,1.81,0,0,0,108.92,140.79Z" style="fill:#f7cfa2"/><rect x="62.44" y="128.51" width="27.69" height="39.91" rx="10.82" ry="10.82" transform="translate(-41.77 30.46) rotate(-17.82)" style="fill:#f0ba7a"/><circle cx="37.38" cy="159.75" r="10.75" transform="translate(-47.09 19.1) rotate(-17.82)" style="fill:#f7cfa2"/><circle cx="37.38" cy="159.75" r="7.08" transform="translate(-47.09 19.1) rotate(-17.82)" style="fill:#f0ba7a"/><circle cx="120.5" cy="133.03" r="10.75" transform="translate(-34.93 43.25) rotate(-17.82)" style="fill:#f7cfa2"/><circle cx="120.5" cy="133.03" r="7.08" transform="matrix(0.95, -0.31, 0.31, 0.95, -34.93, 43.25)" style="fill:#f0ba7a"/><path d="M118.21,123.83c-9.06-48.54-30-28.47-53.31-21s-37.24,29-31.11,48.11l7.79,24.24c6.13,19.08,38.88,25.61,53.31,21,12.72-4.09,37.24-29,31.11-48.11C124.63,143.8,119,128.23,118.21,123.83Z" style="fill:#f7cfa2"/><path d="M100,118.4c-1.34-.69,0-3.36,0-3.36,5.74-3,10,6.82,15.08,1.84,1.7-1.66-.61-5.38-1.59-8.41,4.48,5.66,4.62,0,7.71-3-.73-3.46-1.3-6.37-1.82-8C112.13,74.68,87.91,66.87,65.13,74.2c-22.22,7.14-30.17,24.94-24,47.22,15.46-11.43,29.84-6.58,44.57.15C90.39,120,95.09,120,100,118.4Z" style="fill:#601515"/><path d="M60.79,97.28a1.15,1.15,0,0,0-.74-1.5h0a29.94,29.94,0,0,0-29.69,49.89,1.16,1.16,0,0,0,1.73-.11C43.63,130.66,54.37,114.75,60.79,97.28Z" style="fill:#601515"/><path d="M113.64,135.05c2.73,8.49,1.18,16.57-7.31,19.3s-16-2.44-18.74-10.93.38-17.07,8.87-19.8S110.91,126.57,113.64,135.05Z" style="fill:#601515;opacity:0.100000001490116"/><circle cx="100.9" cy="139.94" r="14.01" transform="translate(-37.98 37.59) rotate(-17.82)" style="fill:#fff"/><circle cx="105.9" cy="145.4" r="6.7" transform="translate(-39.41 39.38) rotate(-17.82)" style="fill:#601515"/><circle cx="105.9" cy="145.4" r="2.6" transform="translate(-39.41 39.38) rotate(-17.82)"/><circle cx="103.36" cy="143.01" r="1.91" transform="translate(-38.8 38.49) rotate(-17.82)" style="fill:#f9f9f9"/><path d="M43.92,157.46c2.73,8.49,8.7,14.15,17.18,11.43S72.7,157.57,70,149.09s-10.26-13.65-18.74-10.93S41.19,149,43.92,157.46Z" style="fill:#601515;opacity:0.100000001490116"/><circle cx="57.11" cy="154.01" r="14.01" transform="translate(-44.38 24.86) rotate(-17.82)" style="fill:#fff"/><circle cx="63.51" cy="156.57" r="6.7" transform="translate(-44.86 26.94) rotate(-17.82)" style="fill:#601515"/><circle cx="63.51" cy="156.57" r="2.6" transform="translate(-44.86 26.94) rotate(-17.82)"/><circle cx="61.07" cy="154.15" r="1.91" transform="translate(-44.24 26.08) rotate(-17.82)" style="fill:#f9f9f9"/><rect x="74.34" y="135.08" width="12.85" height="36.08" rx="6.43" ry="6.43" transform="matrix(0.95, -0.31, 0.31, 0.95, -42.98, 32.06)" style="fill:#f0ba7a"/><rect x="71.96" y="131.83" width="12.85" height="36.08" rx="6.43" ry="6.43" transform="translate(-42.1 31.17) rotate(-17.82)" style="fill:#f7cfa2"/><path d="M38.79,121.58s12.5,1.36,18.84,3.12c8.75,2.43,24.28-1.91,24.28-1.91s-15.89-11.4-24-11.17S38.79,121.58,38.79,121.58Z" style="fill:#601515"/><path d="M27.75,102.41a59.46,59.46,0,0,1,6.68-2c3.26-.62,7.65-4.57,7.65-4.57S35,94.65,32.4,96,27.75,102.41,27.75,102.41Z" style="fill:#601515"/><path d="M42.67,82.66a59.47,59.47,0,0,0,.57,7c.62,3.26-1.42,8.8-1.42,8.8s-3.68-6.13-3.35-9.09S42.67,82.66,42.67,82.66Z" style="fill:#601515"/><ellipse cx="53.3" cy="171.59" rx="1.6" ry="0.8" transform="translate(-49.95 24.54) rotate(-17.82)" style="fill:#f0ba7a"/><ellipse cx="59.37" cy="169.64" rx="1.6" ry="0.8" transform="translate(-49.06 26.3) rotate(-17.82)" style="fill:#f0ba7a"/><ellipse cx="57.31" cy="173.65" rx="1.6" ry="0.8" transform="translate(-50.38 25.86) rotate(-17.82)" style="fill:#f0ba7a"/><ellipse cx="107.67" cy="154.12" rx="1.6" ry="0.8" transform="translate(-41.99 40.34) rotate(-17.82)" style="fill:#f0ba7a"/><ellipse cx="113.73" cy="152.17" rx="1.6" ry="0.8" transform="translate(-41.11 42.1) rotate(-17.82)" style="fill:#f0ba7a"/><ellipse cx="111.67" cy="156.17" rx="1.6" ry="0.8" transform="translate(-42.43 41.66) rotate(-17.82)" style="fill:#f0ba7a"/><path d="M28.76,134.78,40.67,170l2.4-4.17-4.25-22.23s.88-15.54,6.89-20.51S65.09,113,65.09,113l-13.17-2Z" style="fill:#601515;opacity:0.300000011920929"/><path d="M116.13,114.72l6.17,24L120,141.1l-9.49-20.54s-9.77-12.12-17.55-12.66S71.29,111,71.29,111l9.52-9.32,33,3.89,2.35,9.15" style="fill:#601515;opacity:0.300000011920929"/><rect x="83.66" y="123.76" width="28.61" height="9.66" rx="4.83" ry="4.83" transform="translate(222.49 231.68) rotate(166.92)" style="fill:#5b1010"/><rect x="37.41" y="135.62" width="28.62" height="9.67" rx="4.83" ry="4.83" transform="translate(145.28 257.29) rotate(161.53)" style="fill:#5b1010"/><g style="opacity:0.600000023841858"><path d="M60.79,83.57C64,84,67,82.2,70.06,81.45c3.24-.79,6.56-.23,9.79-1.14A.7.7,0,0,0,79.66,79c-3.39,0-6.84-.36-10.16.48-2.94.75-6.65,1.58-8.9,3.69a.27.27,0,0,0,.19.45Z" style="fill:#f7cfa2"/></g><path d="M90.32,186.8a10.83,10.83,0,0,1-10.82-4.72c6.53-2.62,13-5.45,19.68-7.78A10.93,10.93,0,0,1,90.32,186.8Z" style="fill:#ea6d50"/><path d="M172.82,128.08c-5.59,1.89-10.94,6.64-17.72,8.06l.24-.59c-2.38,2.49-5.94,1.06-8.44,2.13-1.9,1.3,3.44,3.45.11,4.87,12.79.5,24.3-5.14,33.4-13.59a11.2,11.2,0,0,0-.86-4.42c-.67-1.67-1.15-4-2-5.62C176.76,123,175.54,126.62,172.82,128.08Z" style="fill:#fff"/><path d="M219.13,231.72c.07-.49,35.68-45.6,35.77-46.09a28.35,28.35,0,0,1,1.67-4.41,62,62,0,0,0,2.28-6.79A61.34,61.34,0,0,0,142.74,135.5c-6.21,15.46-7.23,63.09-7.84,64.91,15.64-2.75,26.34,15.39,42,13.55C199,211.43,197,229.65,219.13,231.72Z" style="fill:#393d47"/><g style="clip-path:url(#84bc721b-d88b-44b9-a037-b85b49000be8)"><path d="M216.77,241.57c0-9.85,4.19-17.63-2.1-21-3.77-2-10.66-2.85-15.48-2.87l-19.2,1.1c-5.88.34-15.23,2.5-19.38,6-5,4.21.74,11.09.74,19.72l8.82,52.9c0,4.26-.13,21.21,1.26,24.77,20.25.64,16.15-2.13,36.53-2.52,2-4.31.84-9.11.84-14.28Z" style="fill:#f1f3f7"/><path d="M164.88,223.49l2.48,3.19c3.82,1.31,3.74,11.69-.17,23.07l-6.62,22.78-6.85,26.65c-2.14,6.23-3.48,11.33-5.92,13.66a7.38,7.38,0,0,1-6.9,1.56l-5.64-1.94a7.2,7.2,0,0,1-4.2-4.15c-.92-3.32.71-8.25,3.15-15.36,0,0,11.42-36.07,8.78-27s4.55-14.78,9.09-26.91S161.06,222.18,164.88,223.49Z" style="fill:#f1f3f7"/><path d="M212.63,220.9l-2.28,1c-3.82,1.31-3.74,11.69.17,23.07l6.62,22.78L224,294.38c2.14,6.23,3.48,11.33,5.92,13.66a7.38,7.38,0,0,0,6.9,1.56l5.64-1.94a7.2,7.2,0,0,0,4.2-4.15c.92-3.32-.71-8.25-3.15-15.36,0,0-11.42-36.07-8.78-27s-4.55-14.78-9.09-26.91S216.45,219.59,212.63,220.9Z" style="fill:#f1f3f7"/><rect x="179.5" y="192.52" width="20.18" height="29.09" rx="7.88" ry="7.88" style="fill:#f0ba7a"/><polygon points="189.66 244.36 189.66 218.56 198.63 223.8 189.66 244.36" style="fill:#dcdde0;opacity:0.400000005960465"/><polygon points="189.66 244.36 189.66 218.28 180.68 223.52 189.66 244.36" style="fill:#dcdde0;opacity:0.400000005960465"/><polygon points="196.22 222.47 189.75 218.69 184.09 223.55 187.6 230.32 192.18 230.42 196.22 222.47" style="fill:#0076b7"/><polygon points="198.33 288.17 190.79 298.68 182.03 289.38 187.6 230.32 192.18 230.42 198.33 288.17" style="fill:#0076b7"/><path d="M189.66,218.28v.47s-4.15,10.8-8.5,7.52a9.35,9.35,0,0,1-3.9-7.87l1.74-4.2Z" style="fill:#fff"/><path d="M189.84,218.28v.47s4.15,10.8,8.5,7.52a9.35,9.35,0,0,0,3.9-7.87l-1.74-4.2Z" style="fill:#fff"/><g style="opacity:0.300000011920929"><polygon points="198.33 263.72 205.87 268.52 213.64 263.72 213.64 249.44 198.33 249.44 198.33 263.72" style="fill:#dcdde0"/><rect x="198.33" y="243.39" width="15.31" height="4.45" style="fill:#dcdde0"/></g><path d="M216.2,257.64c.9-4.5,1.56-8.84,2.32-13.1q-1.21-1.09-2.32-2.3c-5.47-6.38-6.67-15-5.72-23.24a50.91,50.91,0,0,0-6.93-1.17,94.78,94.78,0,0,1-.79,11.53c0,2.24-1.4,4.2-2.52,6.44a9,9,0,0,1-5.6,3.92c-13.17,3.24-20.05-8.41-21.42-20-3.61.75-4.6.73-7.42,2.25,1.31,6.34-.59,16.16-5.23,22.77,5.6,26.41,9.84,52.27,3,78.86,16.46.25,33.06-.72,49.61-1.19A201.7,201.7,0,0,1,216.2,257.64Z" style="fill:#004868"/></g><circle cx="157.89" cy="145.24" r="10.53" transform="translate(-35.73 237.63) rotate(-68.12)" style="fill:#f7cfa2"/><circle cx="157.89" cy="145.24" r="6.94" transform="translate(-35.73 237.63) rotate(-68.12)" style="fill:#f0ba7a"/><circle cx="237.24" cy="177.11" r="10.53" transform="translate(-15.53 331.26) rotate(-68.12)" style="fill:#f7cfa2"/><circle cx="237.24" cy="177.11" r="6.94" transform="translate(-15.53 331.26) rotate(-68.12)" style="fill:#f0ba7a"/><path d="M241.28,168.75c7.31-18.21-4.8-40.22-27.06-49.16s-46.23-1.42-53.54,16.79l-9.29,23.14c-7.31,18.21,13.28,43.63,27.06,49.16,12.14,4.88,46.23,1.42,53.54-16.79Z" style="fill:#f7cfa2"/><path d="M209.82,115.81a1.13,1.13,0,0,0,.38-1.59h0a29.32,29.32,0,0,0-53.6,19,1.14,1.14,0,0,0,1.37,1C176,130.24,194.05,125,209.82,115.81Z" style="fill:#393d47"/><path d="M247,143.87a1.13,1.13,0,0,0,1.39-.86h0a29.32,29.32,0,0,0-51.35-24.44,1.14,1.14,0,0,0,.27,1.68C212.9,130.16,229.39,139.19,247,143.87Z" style="fill:#393d47"/><path d="M242.3,171c.21.38.84.41,1.38,0h0c13.41-9.07,12-29.86,7.46-41.29-2.78-7-15.76-22.64-25.25-20.26-.62.16,7.26,23.63,7.3,24.12C234.19,147,236.33,160.16,242.3,171Z" style="fill:#393d47"/><path d="M230.56,175.06c-3.25,8.1-9.48,13.23-17.58,10s-10.54-11.86-7.29-20,11-12.63,19.07-9.37S233.82,167,230.56,175.06Z" style="fill:#601515;opacity:0.100000001490116"/><circle cx="217.91" cy="170.77" r="13.72" transform="translate(-21.77 309.34) rotate(-68.12)" style="fill:#fff"/><rect x="207.48" y="154.97" width="28.02" height="9.46" rx="4.73" ry="4.73" transform="translate(86.11 -77.43) rotate(24.49)" style="fill:#393d47"/><circle cx="221.03" cy="177.08" r="6.57" transform="translate(-25.67 316.19) rotate(-68.12)" style="fill:#601515"/><circle cx="221.03" cy="177.08" r="2.54" transform="translate(-25.67 316.19) rotate(-68.12)"/><circle cx="220.61" cy="173.69" r="1.87" transform="translate(-22.78 313.68) rotate(-68.12)" style="fill:#f9f9f9"/><path d="M163.93,148.3c-3.25,8.1-2.3,16.11,5.8,19.36s15.82-1.27,19.07-9.37.81-16.71-7.29-20S167.18,140.19,163.93,148.3Z" style="fill:#601515;opacity:0.100000001490116"/><circle cx="176.03" cy="153.95" r="13.72" transform="translate(-32.43 259.93) rotate(-68.12)" style="fill:#fff"/><rect x="166.7" y="136.27" width="28.02" height="9.46" rx="4.73" ry="4.73" transform="translate(295.85 339.2) rotate(-158.12)" style="fill:#393d47"/><circle cx="181.6" cy="158.26" r="6.57" transform="translate(-32.94 267.8) rotate(-68.12)" style="fill:#601515"/><circle cx="181.6" cy="158.26" r="2.54" transform="translate(-32.94 267.8) rotate(-68.12)"/><circle cx="181.27" cy="154.91" r="1.87" transform="translate(-30.04 265.39) rotate(-68.12)" style="fill:#f9f9f9"/><rect x="190.76" y="156.24" width="7.95" height="22.31" rx="3.97" ry="3.97" transform="translate(76.41 -60.52) rotate(21.88)" style="fill:#f0ba7a"/><rect x="191.35" y="153.11" width="7.95" height="22.31" rx="3.97" ry="3.97" transform="translate(75.29 -60.96) rotate(21.88)" style="fill:#f7cfa2"/><path d="M176.29,109.79l-8.07,20.09,45.54,18.29,7.8-14.31L218.27,150a115.74,115.74,0,0,0,11.57,5.62c4.26,1.67,11.75,12.17,11.75,12.17L251.68,136l-54-32.16Z" style="fill:#393d47"/><g style="opacity:0.600000023841858"><path d="M218.24,106.27c2,1,3.7,2.27,5.7,3.15a40.06,40.06,0,0,1,5.65,2.66c3.38,2.15,6.12,4.81,9.19,7.27.84.67,3.47-.56,2.28-1.51-3.07-2.46-5.79-5.11-9.19-7.27a25.26,25.26,0,0,0-4.19-2.12c-2.59-1-4.69-2.45-7.16-3.69-1-.48-3.57.86-2.28,1.51Z" style="fill:#f7cfa2"/></g><path d="M188.49,196.8a10.83,10.83,0,0,0,10.82-4.72c-6.53-2.62-13-5.45-19.68-7.78A10.93,10.93,0,0,0,188.49,196.8Z" style="fill:#ea6d50"/><path d="M164.9,220.94c-6.22-3.08-15.82-2.44-20.24,3.89a10.91,10.91,0,0,0-1.56,3.27,11.41,11.41,0,0,0-.4,3.83c0,.91.12,1.82.24,2.73a36.09,36.09,0,0,0,3,10.25c6.61,13.15,18.73,22.33,32.74,27.22,13.36,4.67,21.61-.47,22.21-4.4,1.56-10.13-10.82-18.88-23.88-32L175.3,234c-3.83-3.34-5.75-7.82-9.08-10.81A25,25,0,0,1,164.9,220.94Z" style="fill:#f1f3f7"/><path d="M226.54,261.94c-4.44-3.61-12.49-9.27-18.2-4.73-2.32,1.41-4.17,3.6-4.15,6.24-.59,5.13.69,10.71,4.43,14.57.6.92,1.24,1.85,1.89,2.77a25.86,25.86,0,0,0,5.58,4,15.67,15.67,0,0,1,2.54,1.21c2.59-2.61,5.2-7.54,7-14.36,1.69-7.3,3.85-4.07.69-9.29C226.08,262.17,226.76,262,226.54,261.94Z" style="fill:#f7cfa2"/><path d="M234.08,270.07h0c1.71-.34,4,2.42,4.31,3.91l1.1,8c.27,1.49-.34,3.65-2,4l-.51.13c-1.71.34-3.37-1.39-3.65-2.88l-3.4-8.15C229.61,273.56,232.38,270.41,234.08,270.07Z" style="fill:#f7cfa2"/><path d="M238,281.18h0c1.39,1.21,1.78,3.05.88,4.1l-5.95,6.86a3.13,3.13,0,0,1-4.28.51l-.43-.35a3.49,3.49,0,0,1-.34-4.56l5.95-6.86C234.73,279.84,236.61,280,238,281.18Z" style="fill:#f7cfa2"/><path d="M232.36,290.46l1.59.45c-.9,1.71-2.78,2.78-3.72,2.66l-6.19-.74c-.94-.11-2.35-.07-2.13-1.89l.05-.55c.23-1.83,3.63-3,4.57-2.85l4.52-.6C232,287,232.59,288.63,232.36,290.46Z" style="fill:#f7cfa2"/><path d="M221.29,263.16h0c1.6-1.84,3.89-2.5,5.1-1.45l7.91,6.87c1.2,1,3.89,5.88,2.29,7.72l-2.48-1.83c-1.6,1.84-3.24,1.89-4.44.84l-4.4-2.39C224.06,271.87,219.69,265,221.29,263.16Z" style="fill:#f7cfa2"/><path d="M239.35,272.35l1.3.89a26.73,26.73,0,0,1,4.46,2.78l7.48,5.64c1.17,1.12,2,3.28.64,4.49l-.38.38c-1.32,1.21-3,1.82-4.14.7l-12.65-5.37C234.9,280.74,238,273.56,239.35,272.35Z" style="fill:#f7cfa2"/><path d="M247.8,282.75h0c1-1.65,2.83-2.42,4-1.71l7.82,4.62a3.12,3.12,0,0,1,1.15,4.22l-.29.5c-1,1.65-2.76.85-3.95.14L248.11,287C246.92,286.32,246.78,284.4,247.8,282.75Z" style="fill:#f7cfa2"/><path d="M257.33,287.8l-1.09-1.4c1.69-1,3.85-.76,4.58-.07L266,290c.73.69,1.93,1.53.74,3l-.35.46c-1.2,1.5-4.67.4-5.4-.29l-3.94-2.5C256.38,290,256.14,289.3,257.33,287.8Z" style="fill:#f7cfa2"/><path d="M216.06,276.38l-.75-5.29c.28-2.43,7.29-11.1,9-10.86l17.93,14.28c1.73.24,4.82,3.69,4.53,6.12l-3.59-2.44c-.28,2.43-1.73,3.35-3.45,3.11l-5.43.34C216,279.12,214.55,279.08,216.06,276.38Z" style="fill:#f7cfa2"/><path d="M227.53,276.75c1.73.24,7.14,2.89,6.86,5.32l-3.36-.21c-.28,2.43-1.73,3.35-3.45,3.11l-5.43.34c-1.73-.24-9.91-3.72-9.62-6.14h0" style="fill:#f7cfa2"/><path d="M238.42,274.21h0c1.28,1.24-.21,3.61-1.26,4.84l-5.2,7.8c-1,1.24-3.16,2.15-4.44.9l-.4-.35c-1.28-1.24-.86-3.84.19-5.08l2.94-8.71C231.28,272.37,237.13,273,238.42,274.21Z" style="fill:#f7cfa2"/><path d="M231.71,285h0c-.16,2-1.42,3.58-2.8,3.5l-9.07-.53a3.17,3.17,0,0,1-2.94-3.35l0-.6a3.75,3.75,0,0,1,3.5-3.35l9.07.53C230.88,281.32,231.87,283,231.71,285Z" style="fill:#f7cfa2"/><path d="M220.86,286.4l.57,1.68c-1.91.37-3.89-.53-4.36-1.42L214,280.82c-.46-.89-1.34-2.07.28-3.1l.48-.32c1.62-1,4.55,1.14,5,2l3.16,3.49C223.42,283.8,222.48,285.37,220.86,286.4Z" style="fill:#f7cfa2"/><path d="M201.77,248.14c-2.77-1.48-4.69-4-7.16-4.7-.92-.41-1.85-.8-2.8-1.19-3.77-1.55-7.69-3-11.69-4.7-1.09-.41-2.17-.83-3.25-1.25-7.52-2.94-14.72-5.73-23-1.46a5.36,5.36,0,0,0-1.28,2.51c-1,4.07.75,10.57,3.85,13.89a219.54,219.54,0,0,0,17.43,14c1,.75,2.1,1.49,3.16,2.18,6,4.23,16.24,9.35,22.08,2.35a27.15,27.15,0,0,0,2.12-2.45c3.36-4.4,5.61-10.2,3.08-15.68A8,8,0,0,0,201.77,248.14Z" style="fill:#f1f3f7"/><path d="M202.75,249.31a20.56,20.56,0,0,0-2.8-3,27.57,27.57,0,0,0-2.58-2,32.07,32.07,0,0,0-2.76-1.72c-3.45-1.22-7-2.3-10.52-3.54-1.17-.41-2.33-.84-3.48-1.29-6.48-3.08-14.16-6.28-17.36-13.32,1.28,8.32,9,12.16,15.43,15.07,1.21.48,2.45.92,3.69,1.33,3.72,1.25,7.53,2.28,11,3.43,1.16.49,2.31,1,3.43,1.58s2.21,1.17,3.27,1.84A21,21,0,0,0,202.75,249.31Z" style="fill:#fff"/><path d="M178.24,271.91c-9.8-8.85-23.8-14.85-33.45-24-1.18-1.07-2.32-2.17-3.41-3.32a49.37,49.37,0,0,1-5.94-7.55,37.14,37.14,0,0,0,3,5.68,42.31,42.31,0,0,0,3.8,5.06c9.23,10.27,20.23,16.27,32.28,22.09A35.39,35.39,0,0,0,178.24,271.91Z" style="fill:#fff"/><path d="M202.27,248.83c2.67.66,12,6,12.7,6.73-4.61,3.74-9.82,9.4-10.59,17.28-2.87-1.74-9.89-6.09-10.7-7.06C195.46,258,197.25,254.66,202.27,248.83Z" style="fill:#fff"/><ellipse cx="132.59" cy="218.72" rx="35.31" ry="29.08" style="fill:#f4f0a6"/><path d="M67.61,216.26c-6.22-3.08-15.82-2.44-20.24,3.89a10.91,10.91,0,0,0-1.56,3.27,11.41,11.41,0,0,0-.4,3.83c0,.91.12,1.82.24,2.73a36.09,36.09,0,0,0,3,10.25c6.61,13.15,19.67,20.19,32.74,27.22,5.07,2.17,24.93,4.72,25.53.79,1.56-10.13-14.14-24.07-27.2-37.15L78,229.32c-3.83-3.34-5.75-7.82-9.08-10.81A25,25,0,0,1,67.61,216.26Z" style="fill:#f1f3f7"/><path d="M129.26,257.26c-4.44-3.61-12.49-9.27-18.2-4.73-2.32,1.41-4.17,3.6-4.15,6.24-.59,5.13.69,10.71,4.43,14.57.6.92,1.24,1.85,1.89,2.77a25.86,25.86,0,0,0,5.58,4,15.67,15.67,0,0,1,2.54,1.21c2.59-2.61,5.2-7.54,7-14.36,1.69-7.3,3.85-4.07.69-9.29C128.8,257.49,129.48,257.33,129.26,257.26Z" style="fill:#f7cfa2"/><path d="M136.8,265.39h0c1.71-.34,4,2.42,4.31,3.91l1.1,8c.27,1.49-.34,3.65-2,4l-.51.13c-1.71.34-3.37-1.39-3.65-2.88l-3.4-8.15C132.33,268.87,135.09,265.72,136.8,265.39Z" style="fill:#f7cfa2"/><path d="M140.72,276.5h0c1.39,1.21,1.78,3.05.88,4.1l-5.95,6.86a3.13,3.13,0,0,1-4.28.51l-.43-.35a3.49,3.49,0,0,1-.34-4.56l5.95-6.86C137.45,275.16,139.33,275.29,140.72,276.5Z" style="fill:#f7cfa2"/><path d="M135.08,285.78l1.59.45c-.9,1.71-2.78,2.78-3.72,2.66l-6.19-.74c-.94-.11-2.35-.07-2.13-1.89l.05-.55c.23-1.83,3.63-3,4.57-2.85l4.52-.6C134.72,282.36,135.31,284,135.08,285.78Z" style="fill:#f7cfa2"/><path d="M124,258.47h0c1.6-1.84,3.89-2.5,5.1-1.45L137,263.9c1.2,1,3.89,5.88,2.29,7.72l-2.48-1.83c-1.6,1.84-3.24,1.89-4.44.84l-4.4-2.39C126.78,267.19,122.41,260.32,124,258.47Z" style="fill:#f7cfa2"/><path d="M142.07,267.67l1.3.89a26.73,26.73,0,0,1,4.46,2.78l7.48,5.64c1.17,1.12,2,3.28.64,4.49l-.38.38c-1.32,1.21-3,1.82-4.14.7l-12.65-5.37C137.62,276.06,140.75,268.88,142.07,267.67Z" style="fill:#f7cfa2"/><path d="M150.52,278.07h0c1-1.65,2.83-2.42,4-1.71l7.82,4.62a3.12,3.12,0,0,1,1.15,4.22l-.29.5c-1,1.65-2.76.85-3.95.14l-8.45-3.51C149.64,281.64,149.5,279.72,150.52,278.07Z" style="fill:#f7cfa2"/><path d="M160.05,283.12l-1.09-1.4c1.69-1,3.85-.76,4.58-.07l5.22,3.64c.73.69,1.93,1.53.74,3l-.35.46c-1.2,1.5-4.67.4-5.4-.29l-3.94-2.5C159.1,285.29,158.86,284.61,160.05,283.12Z" style="fill:#f7cfa2"/><path d="M118.77,271.7l-.75-5.29c.28-2.43,7.29-11.1,9-10.86L145,269.83c1.73.24,4.82,3.69,4.53,6.12l-3.59-2.44c-.28,2.43-1.73,3.35-3.45,3.11L137,277C118.71,274.44,117.27,274.4,118.77,271.7Z" style="fill:#f7cfa2"/><path d="M130.25,272.07c1.73.24,7.14,2.89,6.86,5.32l-3.36-.21c-.28,2.43-1.73,3.35-3.45,3.11l-5.43.34c-1.73-.24-9.91-3.72-9.62-6.14h0" style="fill:#f7cfa2"/><path d="M141.13,269.53h0c1.28,1.24-.21,3.61-1.26,4.84l-5.2,7.8c-1,1.24-3.16,2.15-4.44.9l-.4-.35c-1.28-1.24-.86-3.84.19-5.08l2.94-8.71C134,267.69,139.85,268.28,141.13,269.53Z" style="fill:#f7cfa2"/><path d="M134.43,280.35h0c-.16,2-1.42,3.58-2.8,3.5l-9.07-.53a3.17,3.17,0,0,1-2.94-3.35l0-.6a3.75,3.75,0,0,1,3.5-3.35l9.07.53C133.6,276.64,134.59,278.35,134.43,280.35Z" style="fill:#f7cfa2"/><path d="M123.58,281.72l.57,1.68c-1.91.37-3.89-.53-4.36-1.42l-3.05-5.84c-.46-.89-1.34-2.07.28-3.1l.48-.32c1.62-1,4.55,1.14,5,2l3.16,3.49C126.14,279.12,125.19,280.69,123.58,281.72Z" style="fill:#f7cfa2"/><path d="M104.49,243.46c-2.77-1.48-4.69-4-7.16-4.7-.92-.41-1.85-.8-2.8-1.19-3.77-1.55-7.69-3-11.69-4.7-1.09-.41-2.17-.83-3.25-1.25-7.52-2.94-14.72-5.73-23-1.46a5.36,5.36,0,0,0-1.28,2.51c-1,4.07.75,10.57,3.85,13.89a219.54,219.54,0,0,0,17.43,14c1,.75,2.1,1.49,3.16,2.18,6,4.23,16.24,9.35,22.08,2.35a27.15,27.15,0,0,0,2.12-2.45c3.36-4.4,5.61-10.2,3.08-15.68A8,8,0,0,0,104.49,243.46Z" style="fill:#f1f3f7"/><path d="M105.47,244.63a20.56,20.56,0,0,0-2.8-3,27.57,27.57,0,0,0-2.58-2,32.07,32.07,0,0,0-2.76-1.72c-3.45-1.22-7-2.3-10.52-3.54-1.17-.41-2.33-.84-3.48-1.29C76.86,230,69.18,226.81,66,219.77c1.28,8.32,9,12.16,15.43,15.07,1.21.48,2.45.92,3.69,1.33,3.72,1.25,7.53,2.28,11,3.43,1.16.49,2.31,1,3.43,1.58s2.21,1.17,3.27,1.84A21,21,0,0,0,105.47,244.63Z" style="fill:#fff"/><path d="M105,244.15c2.67.66,12,6,12.7,6.73-4.61,3.74-9.44,10-10.22,17.89-2.87-1.74-9.89-6.09-10.7-7.06C98.55,253.91,100,250,105,244.15Z" style="fill:#fff"/><path d="M77.24,264.91c-8.53-7.7-20.23-13.24-29.48-20.57.09,1,.17,2,.24,3,7.67,6.49,16.27,11.06,25.48,15.51A35.4,35.4,0,0,0,77.24,264.91Z" style="fill:#fff"/><polyline points="101.1 208.73 97.77 192.06 107.34 202.39 162.43 203.06 174.43 199.73 165.77 213.4" style="fill:#f4f0a6"/></svg>