<svg id="fe05813c-7a72-429a-aee7-75b5cff2ee38" data-name="Layer 1" xmlns="http://www.w3.org/2000/svg" xmlns:xlink="http://www.w3.org/1999/xlink" viewBox="0 0 300 450"><defs><clipPath id="31f6298f-8594-4f27-9ea9-1d44aa6e72de"><path d="M247.49,218.21a99.73,99.73,0,0,1-199.47,0C48,163.12,29.78,47.08,160.19,55.58,215.15,59.17,247.49,163.12,247.49,218.21Z" style="fill:none"/></clipPath></defs><title>juego2_ilust</title><circle cx="147.75" cy="218.21" r="99.73" style="fill:#eaa56c"/><g style="clip-path:url(#31f6298f-8594-4f27-9ea9-1d44aa6e72de)"><path d="M197.87,262.87c-.32-3.27-.64-6.29-1.1-9a33.18,33.18,0,0,0-2-7.36,40.31,40.31,0,0,0-3.68-4,72.75,72.75,0,0,0-5.81-4.45q-3-2.05-6.11-3.77a78.6,78.6,0,0,0-39.9-9.22,69.31,69.31,0,0,0-10.22,1.17c-19.58,4.06-56.58,3.06-53.58,31.06,2,11,7,21,12.77,29.65.49,2.86.83,6.28,1.2,10.06l6.93,70.68A35.8,35.8,0,0,0,101.54,383c33.82-2.45,67.78-7.78,101.68-11.62a38.28,38.28,0,0,0,3.36-19.66Z" style="fill:#f1f3f7"/><path d="M156.88,225.13c-1.7-11,2.18-23.17-4.77-32.69a9.08,9.08,0,0,0-6.45-4c-16.8-2.62-23,17.66-24.41,30.78a42.92,42.92,0,0,0-.09,6.5c0,.44,0,.89,0,1.33C133,230.17,145.45,230.33,156.88,225.13Z" style="fill:#f0ba7a"/><path d="M178.29,237.77l-3.67,1.67c-6.19,2.37-4.71,16.15,3.29,30.64l14,29.21,14.89,34.31c4.38,7.93,7.27,14.49,11.65,17.19,3.62,2.23,8.9,2,11.7,1l9.14-3.5c2.32-.89,5.8-3.47,6.46-6.2,1.11-4.56-2.25-10.86-7.25-19.91,0,0-23.73-46.09-18.14-34.41s-9.5-18.91-18.66-34.28S184.47,235.4,178.29,237.77Z" style="fill:#f1f3f7"/><polygon points="137.57 263.67 138.59 228.85 153.4 236.28 137.57 263.67" style="fill:#dcdde0;opacity:0.400000005960465"/><polygon points="137.57 263.67 138.59 228.85 123.36 235.4 137.57 263.67" style="fill:#dcdde0;opacity:0.400000005960465"/><polygon points="149.4 234.76 138.29 229.04 129.07 235.61 134.68 244.82 142.33 245.18 149.4 234.76" style="fill:#0076b7"/><polygon points="160.39 321.2 149.2 336.4 133.4 325.47 134.7 244.82 142.61 245.43 160.39 321.2" style="fill:#0076b7"/><polygon points="138.59 228.85 138.57 229.47 152.67 242.44 159.32 229.6 156.57 223.91 138.59 228.85" style="fill:#fff"/><polygon points="138.84 228.83 138.82 229.49 122.91 242.42 116.59 228.34 119.89 222.45 138.84 228.83" style="fill:#fff"/><polygon points="160.04 297.03 173.22 302.18 185.54 294.53 183.68 275.55 158.18 278.05 160.04 297.03" style="fill:#fff"/><rect x="157.62" y="268.74" width="25.62" height="5.95" transform="translate(-25.7 17.92) rotate(-5.6)" style="fill:#fff"/><path d="M54.77,207.1c0,.27,0,.53,0,.81C54.75,207.65,54.76,207.38,54.77,207.1Z" style="fill:#f7cfa2"/></g><path d="M54.79,206.42c0,.23,0,.45,0,.68Q54.79,206.75,54.79,206.42Z" style="fill:#f7cfa2"/><path d="M182,156.21l.81-.06Z" style="fill:#f7cfa2"/><path d="M181.37,156.25l.68,0Z" style="fill:#f7cfa2"/><path d="M178.93,157.45c-.48.72-1.31,2.31-1,3.2l4.92-4.5-.81.06-.68,0A2.82,2.82,0,0,0,178.93,157.45Z" style="fill:#f7cfa2"/><rect x="105.79" y="116.73" width="43.26" height="62.36" rx="16.9" ry="16.9" transform="translate(15.88 -12.32) rotate(5.9)" style="fill:#f0ba7a"/><circle cx="64.68" cy="139.6" r="16.79" transform="translate(-80.83 189.59) rotate(-84.1)" style="fill:#f7cfa2"/><circle cx="64.68" cy="139.6" r="11.06" transform="translate(-80.83 189.59) rotate(-84.1)" style="fill:#f0ba7a"/><circle cx="200.37" cy="153.62" r="16.79" transform="translate(26.96 337.14) rotate(-84.1)" style="fill:#f7cfa2"/><circle cx="200.37" cy="153.62" r="11.06" transform="translate(26.96 337.14) rotate(-84.1)" style="fill:#f0ba7a"/><path d="M202.88,139c17.55-75.14-25-59.57-63.08-63.51S68.28,93.64,65.06,124.78L61,164.34c-3.22,31.14,39.53,61.07,63.08,63.51,20.76,2.15,71.52-18.12,74.74-49.26C199.51,171.63,201.29,145.84,202.88,139Z" style="fill:#f7cfa2"/><path d="M180.29,119.82c-1.48-1.82,2.16-4.78,2.16-4.78,10.07-.63,10,16,20.42,12.11,3.47-1.31,2.5-8.08,3-13,2.85,10.91,6.61,2.91,12.93.54,1.13-5.41,2.15-9.93,2.43-12.59,3.84-37.19-25.9-63.57-63.09-67.42-36.27-3.75-58.84,16.71-64,52.48,29.31-6.63,46.82,9.34,63.67,28.23C165.49,116.08,172.23,119,180.29,119.82Z" style="fill:#601515"/><path d="M137.43,64.95a1.8,1.8,0,0,0-.12-2.61h0A46.77,46.77,0,0,0,63.46,115,1.81,1.81,0,0,0,66,116C91.9,101.92,117.27,85.91,137.43,64.95Z" style="fill:#601515"/><path d="M189.28,152.2c-1.43,13.85-8.73,24.45-22.59,23s-21.38-13.56-19.95-27.41,11.28-24.18,25.13-22.75S190.72,138.35,189.28,152.2Z" style="fill:#601515;opacity:0.100000001490116"/><circle cx="168" cy="151.18" r="21.89" transform="translate(0.35 302.75) rotate(-84.1)" style="fill:#fff"/><circle cx="156.9" cy="149.8" r="10.47" transform="translate(-8.23 290.47) rotate(-84.1)" style="fill:#601515"/><circle cx="156.9" cy="149.8" r="4.06" transform="translate(-8.23 290.47) rotate(-84.1)"/><circle cx="154.78" cy="144.79" r="2.99" transform="translate(-5.15 283.86) rotate(-84.1)" style="fill:#f9f9f9"/><path d="M75.47,140.44C74,154.29,79,166.15,92.87,167.58s23.7-8.9,25.13-22.75-6.09-26-19.95-27.41S76.91,126.58,75.47,140.44Z" style="fill:#601515;opacity:0.100000001490116"/><circle cx="96.52" cy="143.79" r="21.89" transform="matrix(0.1, -0.99, 0.99, 0.1, -56.44, 225.02)" style="fill:#fff"/><circle cx="108.05" cy="146.31" r="10.47" transform="translate(-48.59 238.74) rotate(-84.1)" style="fill:#601515"/><circle cx="108.05" cy="146.31" r="4.06" transform="translate(-48.59 238.74) rotate(-84.1)"/><circle cx="106.07" cy="141.31" r="2.99" transform="translate(-45.4 232.29) rotate(-84.1)" style="fill:#f9f9f9"/><rect x="120.88" y="129.2" width="20.08" height="56.37" rx="10.04" ry="10.04" transform="translate(16.87 -12.62) rotate(5.9)" style="fill:#f0ba7a"/><rect x="119.51" y="123.06" width="20.08" height="56.37" rx="10.04" ry="10.04" transform="translate(16.23 -12.52) rotate(5.9)" style="fill:#f7cfa2"/><path d="M90.69,85.89s17,9.81,25,16.31c11,9,35.94,12.53,35.94,12.53s-15.56-26.29-27.33-31.08S90.69,85.89,90.69,85.89Z" style="fill:#601515"/><path d="M86.95,51.52a92.91,92.91,0,0,1,10.84,1.29C102.84,54,111.6,51.1,111.6,51.1s-9.37-6.09-14-5.76S86.95,51.52,86.95,51.52Z" style="fill:#601515"/><path d="M120.7,32.65A92.92,92.92,0,0,0,117.14,43C116,48,109.58,54.65,109.58,54.65s-1.41-11.09.91-15.11S120.7,32.65,120.7,32.65Z" style="fill:#601515"/><ellipse cx="80.02" cy="166.55" rx="1.25" ry="2.5" transform="translate(-93.88 229.02) rotate(-84.1)" style="fill:#f0ba7a"/><ellipse cx="89.91" cy="167.57" rx="1.25" ry="2.5" transform="translate(-86.01 239.78) rotate(-84.1)" style="fill:#f0ba7a"/><ellipse cx="84.45" cy="172.01" rx="1.25" ry="2.5" transform="translate(-95.33 238.33) rotate(-84.1)" style="fill:#f0ba7a"/><ellipse cx="168.77" cy="175.72" rx="1.25" ry="2.5" transform="translate(-23.37 325.53) rotate(-84.1)" style="fill:#f0ba7a"/><ellipse cx="178.66" cy="176.74" rx="1.25" ry="2.5" transform="translate(-15.51 336.29) rotate(-84.1)" style="fill:#f0ba7a"/><ellipse cx="173.2" cy="181.18" rx="1.25" ry="2.5" transform="translate(-24.82 334.84) rotate(-84.1)" style="fill:#f0ba7a"/><path d="M68,98.46,63,156.3,69,151.85l7.88-34.47s11-21.67,22.75-25,34.08-2.24,34.08-2.24L116.14,79Z" style="fill:#601515;opacity:0.300000011920929"/><path d="M208,110.11l-8.64,52.77-4.84,1.94-.67-35.35s-6.36-23.47-17.15-29.14-32.9-9.16-32.9-9.16l19.48-7.35Z" style="fill:#601515;opacity:0.300000011920929"/><rect x="143.1" y="124.04" width="44.7" height="15.1" rx="7.55" ry="7.55" transform="translate(316.5 279.49) rotate(-174.1)" style="fill:#5b1010"/><rect x="74.98" y="113.46" width="44.7" height="15.1" rx="7.55" ry="7.55" transform="translate(222.21 213.31) rotate(165.28)" style="fill:#5b1010"/><g style="opacity:0.600000023841858"><path d="M146.08,45.18c4.9,2.17,10.6,1.41,15.77,2.56,4.67,1,8.74,3.68,13.49,4.51a.69.69,0,0,0,.37-1.34c-4.67-1.75-9.1-4.42-14-5.36-4.7-.89-10.82-1.84-15.51-.85a.27.27,0,0,0-.06.48Z" style="fill:#f7cfa2"/></g><path d="M96.59,230.58c1.27,4.59,3.62,9.11,5.83,13.58,1.17,2.71,2.34,5.38,3.5,8a33.87,33.87,0,0,1,1.75,5c1.73,6.76.85,13.6-5.4,18.91-6.73,5.7-14.32,5-21.5,1.35A41.76,41.76,0,0,1,76.5,275C69.2,269,61.77,263,55.26,256.38q-2.44-2.5-4.7-5.14c-11.63-14.64-24.89-38.91-8.74-55,1.64-1.52,5.76-1.67,8-1.26,14.71,4.07,21.76,17.65,34.09,25,1.65,1.29,3.34,2.52,5.07,3.71S92.45,226,94.29,227A21.47,21.47,0,0,1,96.59,230.58Z" style="fill:#fff"/><path d="M108.13,253.9a48.61,48.61,0,0,0-4-10.45,46.21,46.21,0,0,1-4-10.46c-1.16-2.67-3-5-8.14-8.7-1-.86-9.28,2.58-10.34,1.83a23.13,23.13,0,0,1-5.59-3.4,31.41,31.41,0,0,1-4.36-4.43c-3.84,2.11-8.25,3.52-12.34,5.17,4.49-3.07,5.92-9,5.27-14.81-1-1.28-2-2.55-3.08-3.81-3.85-3.51-5.44-7.41-10.31-7.49a24.6,24.6,0,0,0-7.12.94c-11.41,5.11-10.89,14.37-6.78,24.32a98.2,98.2,0,0,0,5,10.05c1.23,3.14,2.58,6.31,4.07,9.44s3.12,6.21,4.9,9.17c9.61,18.52,30.22,36.18,50.69,21,3.74-3.31,5.61-6.14,5.8-11.15C108,257.93,108.18,254.83,108.13,253.9Z" style="fill:#f1f3f7"/><path d="M207.67,279.11c1.26-2,2.56-4,3.87-6.07a64.43,64.43,0,0,1,6.64-10.24,15.59,15.59,0,0,0,1.31-3.12c-.27-1.57-.44-3.14-.56-4.71s-.16-3.14-.15-4.73c-1.6-10.64,4.35-21.56-1-31.84-.95-1.43-3.39-3.65-5.43-3.78-20.93-.67-31.19,19.21-35.32,33.22-.44,1.74-.8,3.5-1.1,5.26s-.55,3.7-.75,5.57c8.32,9.6,17.25,19.1,29.17,24.64l.6-.65A28.63,28.63,0,0,0,207.67,279.11Z" style="fill:#fff"/><path d="M217.19,230c.39-3.95,2.35-6.84-.35-9.59a19.12,19.12,0,0,0-4.72-3.47c-13.58-5-20.58,5.7-26.15,16.73-1.39,2.76-2.7,5.54-4,8.12-5,7.28-3.12,16.07-5.19,24.18-.91.19-3.64.78-3.49,1.51,6.59,8.55,15,16.71,27.48,17.11,11.72,1.32,18.64-10.88,19.64-19.53.1-8.45-6.78-13.88-8.51-21.94-1.7-3.47-5.65-4.15-9.58-4.74a13.65,13.65,0,0,0,7.25-.76" style="fill:#f1f3f7"/><path d="M207.82,210.55a48.16,48.16,0,0,1,.95-11.63c1.51-5.78,6.76-7.88,9.9-12.52,4-5.9,5.34-13.38,2.41-19.94-1.84-4.13-7.41-9.34.34-11.09,5.89-1.34,12.21,2.8,15.24,7.37s0,10.3,2.22,14.28" style="fill:none"/><path d="M247.22,158.2c-.69-3.09-3.43-5.92-6.58-5.69a2.71,2.71,0,0,0-1.64.75,11.63,11.63,0,0,0-.07-4.27c-.69-3.09-3.43-5.92-6.58-5.69-3.45.26-4.18,7.13-5.81,10.19s-3.08,6-4.78,8.83c1.78-6.66,1.11-13-5.64-18a17,17,0,0,0-5.81-.56c-2.28.23-3.93,1-3.82,2.11,4.06,11.27.26,22.1-5.16,31.3-.29.29-.58.58-.85.89-3.38,6.75-13,12.1-11.34,20.06,0,.73,0,1.44,0,2.15a1.77,1.77,0,0,0,.22.74c-8.85-6.87-18.39-13.34-27.31-4.31-2.68,2,1,3.93,2.86,5.47A124,124,0,0,1,188,218.87c.09,4.07,1.52,7.8,5.4,10.41a11.53,11.53,0,0,0,2.43,1.86c4.3,2.24,9.54,1.44,13.35-1.11a13.73,13.73,0,0,0,1.22-.91,46.33,46.33,0,0,0,4.77-8.74,64.17,64.17,0,0,0,14.52-22.68,19.65,19.65,0,0,0,1.52-7.4,64.17,64.17,0,0,0,14.67-22.84C247,164.5,247.91,161.29,247.22,158.2ZM192.3,203.26l-1.33-1C192.83,202.16,192.82,202.59,192.3,203.26Z" style="fill:#f7cfa2"/><path d="M223.18,161.95c1.23-5.38.84-10.61-2.86-15.19a9.71,9.71,0,0,0-9.21-4.06c-2,.12-5.32.58-5.53,3.15s1.61,6,1.74,8.59a47.62,47.62,0,0,1-1,9.73c-2,12.58-8.12,14.43-11.79,19.81-.7,1-1.58,3.57,4.51-1.46,6.35-5.25,8.29-14.65,9.62-22.86.59-3.65-.07-7-.33-10.58-.09-1.29-.77-3.13.63-4.17.95-.7,4.44-.21,5.52.13,2.34.73,4.24,3,5.38,5.08,2.61,4.69,1.7,10-.08,15A36.91,36.91,0,0,0,223.18,161.95Z" style="fill:#f0ba7a"/><path d="M195.35,184.77c-3,2.76-6.15,6-6.29,10.11a11.89,11.89,0,0,0,1.57,5.81,22.89,22.89,0,0,0,4.69,6.16" style="fill:#f7cfa2"/><path d="M194.55,184c-3.63,2.83-7,6.79-6.76,11.66.23,4.65,3.44,9,6.9,11.84a.89.89,0,0,0,1.26-1.26c-2.38-2.8-5.08-6.22-5.4-10-.4-4.63,2.78-7.48,5.6-10.63a1.13,1.13,0,0,0-1.6-1.6Z" style="fill:#f0ba7a"/><path d="M198.47,207.46c-6.21-5.23-12.74-11.83-20.37-14.91-5.28-2.13-14.73-1.94-17.64,4.31-2.05,4.42,7.47,8,10.14,9.65,7.53,4.78,15.17,10,20.55,17.23a1,1,0,1,0,1.52-1.18c-7.3-9.44-18.57-14.83-27.93-21.8-4.41-3.28,1-6.4,4.73-7.2,3.92-.84,7.77.72,11.15,2.56,6.19,3.37,11.31,8.47,17.55,11.71.24.13.54-.2.31-.4Z" style="fill:#f0ba7a"/><path d="M246.08,153.85c-4.53-4.74-8.56-1.31-10.26,3.56-3.34,9.59-8.1,20-17.6,24.83-1.11.56-.13,2.27,1,1.68,5.51-2.95,8.82-7.66,11.93-13a85.64,85.64,0,0,0,4.82-8.68c.89-2,1.16-5.06,2.54-6.78,4.8-6,7.93,3,7.81,5.81a20.79,20.79,0,0,1-1.45,5.85,62.23,62.23,0,0,1-5.45,11.17,65.26,65.26,0,0,1-7.47,9.94q-.91,1-1.86,2c-1.92,2-3.92,4-6,5.9a.25.25,0,0,0,.31.4,46.12,46.12,0,0,0,5.69-4.17c-.51,6.21-5,13.23-7.69,17.53-4,6.36-9,11.43-14.5,16.49a.25.25,0,0,0,.31.4A56.41,56.41,0,0,0,227,206.21c2.5-4.6,5.56-10.44,5.22-15.8a59.85,59.85,0,0,0,11-14.44C246.48,170,251.87,159.91,246.08,153.85Z" style="fill:#f0ba7a"/><path d="M237.78,144.64c-4.53-4.74-8.56-1.31-10.26,3.56-3.34,9.59-8.1,20-17.6,24.83-1.11.56-.13,2.27,1,1.68,5.51-2.95,8.82-7.66,11.93-13a85.69,85.69,0,0,0,4.82-8.68c.89-2,1.16-5.06,2.54-6.78,4.8-6,7.93,3,7.81,5.81a13.14,13.14,0,0,1-.45,2.72c.91-.77,1.79-1.57,2.74-2.3A9.79,9.79,0,0,0,237.78,144.64Z" style="fill:#f0ba7a"/><path d="M42.59,178.52C38.8,164,20,144.8,36.23,132.62a16.94,16.94,0,0,1,5.81-.56c2.28.23,3.93,1,3.82,2.11-4.81,13.33,3.76,28.53,10.64,38.66" style="fill:#f7cfa2"/><path d="M42.83,178.45c-2.37-12.65-19.62-30.55-8.38-42.72a7.84,7.84,0,0,1,7.43-2.57c3.24.8,2.34,2.75,2,5.51a29,29,0,0,0,.87,11.69,82.7,82.7,0,0,0,10.94,23c.69,1,2.38.05,1.68-1C50.41,162.25,43,150.22,45.86,137.4c.62-2.81,1.72-4.46-1.38-5.79-3.37-1.45-8-.9-10.69,1.57C20,146,37.45,165.79,42.35,178.59a.25.25,0,0,0,.49-.13Z" style="fill:#f0ba7a"/><path d="M58.32,217.2c8.49-5.69,5.86-16.31,2.59-24.58-1-1.23-2.29-2.2.65-2.06.7,0,1.63-1.27,1.62-2s0-1.42,0-2.15c1.66-8-8-13.31-11.34-20.06a26.13,26.13,0,0,0-2-1.93q-1-.93-2.1-1.81a20.63,20.63,0,0,1-4.8-4.76c-1.1-1.78-1.56-4-2.93-5.54-4.36-5-11.57-1.57-14,3.33a39.81,39.81,0,0,0-3.19,10.85c-.08.47-.17.94-.24,1.41a25.83,25.83,0,0,1-.13,6.11c-.05.49-.1,1-.14,1.48a15.69,15.69,0,0,0,0,2.64q.06.64.17,1.27c0,4.85,3.39,8.33,5.85,12.1.27.42.54.84.78,1.27.68,1.22,1.32,2.5,1.93,3.81l.61,1.32c4.09,6.11,5.68,13.41,10.17,19.54a13.79,13.79,0,0,0,1.22.91c3.82,2.55,9,3.35,13.35,1.11A23,23,0,0,1,58.32,217.2Z" style="fill:#f7cfa2"/><path d="M36.4,175.48a64.15,64.15,0,0,1-21.67-28.9c-1.1-3-2-6.17-1.31-9.26s3.43-5.92,6.58-5.69c3.45.26,4.18,7.13,5.81,10.19,4.2,7.9,10.58,20.62,18.67,24.45" style="fill:#f7cfa2"/><path d="M36.58,175.3c-6.27-5.8-11.87-11.74-16.15-19.21a50.32,50.32,0,0,1-5.61-12.84c-.6-2.47-1-5.69.62-7.89,5.24-7,7.17.2,8.05,2.75,2,5.71,5.18,10.86,8.44,15.94s6.64,10.15,12,13.06c1.1.59,2.09-1.11,1-1.68-9-4.62-14.4-15.18-18.42-24-2-4.35-3.16-13.84-10.21-9.84-7.92,4.48-3,15.44,0,21.43,4.43,8.95,11.44,17.41,20,22.73a.25.25,0,0,0,.31-.4Z" style="fill:#f0ba7a"/><path d="M20.64,183.39a64.17,64.17,0,0,1-1-36.12c.81-3.06,1.94-6.19,4.28-8.32s6.22-2.86,8.66-.85c2.67,2.2-.7,8.24-1.14,11.67-1.13,8.88-3,18.16,1.41,26" style="fill:#f7cfa2"/><path d="M20.88,183.32c-1.65-8.16-2.84-16-2.15-24.32a57,57,0,0,1,2.39-13c.73-2.24,1.71-4.72,3.56-6.29,2.87-2.43,8.62-1.85,7.75,2.89-1,5.3-2.23,10.06-2.73,15.52-.57,6.34-.6,12.26,2.27,18.06.55,1.11,2.25.13,1.68-1-5.1-9.78-2.51-20.86.17-30.93,1.32-5-.55-9.46-6.59-8.23C19.51,137.64,18,148,17.09,154.3c-1.34,9.6-.49,20.23,3.32,29.21.12.28.51.07.46-.19Z" style="fill:#f0ba7a"/><path d="M51.31,163.6c3,2.76,7.86,9.09,8,13.17.07,2,3.34,10.45,2.41,12.25A22.89,22.89,0,0,1,57,195.18" style="fill:#f7cfa2"/><path d="M50.51,164.4a30.22,30.22,0,0,1,7.84,14.36c.48,2.09,1.26,4.1,1.75,6.19,1,4.18-.88,6.4-3.7,9.6a.89.89,0,0,0,1.26,1.26c2-1.74,4.93-4.49,5.4-7.27s-1-6-1.67-8.6-.89-5.34-2.08-7.85a28.4,28.4,0,0,0-7.19-9.28,1.13,1.13,0,0,0-1.6,1.6Z" style="fill:#f0ba7a"/><path d="M55,185.81l3.92,5.77c3.3,4.86,6.77,10.54,5.32,16.24-1.32,5.17-6.21,8.45-9.68,12.49" style="fill:#f7cfa2"/><path d="M54.37,186.19c3,5.81,8.82,11.62,8.9,18.53.08,6.55-6.18,10.18-9.21,15.29-.29.48.32,1.19.82.82,5-3.76,10.85-8.51,11-15.34.19-7.5-5.69-14.86-10.34-20.22-.59-.68-1.57.19-1.19.92Z" style="fill:#f0ba7a"/><path d="M51.81,189.27c8.5-.17,26.45-16.42,38.45-4.26,2.68,2-1,3.93-2.86,5.47-4.07,2.15-14.68,4.6-19.16,12.1-4.1,6.86-6.77,10-12.93,11.19" style="fill:#f7cfa2"/><path d="M51.81,189.52c5.42.2,11-3.38,15.89-5.23a36.53,36.53,0,0,1,10.68-2.68c2.55-.14,12.69,1.54,11,5.92-.9,2.33-6.5,3.85-8.46,4.7a36.42,36.42,0,0,0-8.79,4.88c-6.52,5.31-7.8,13.78-17.08,15.73-1.22.26-.7,2.15.52,1.87,10-2.34,11.79-13,20.07-17.95,3.24-1.94,16.88-5,16.66-10.37-.11-2.75-4.67-5.09-6.89-5.94A19,19,0,0,0,74.63,180c-8.1,1.72-14.78,7.66-22.89,9.06-.29.05-.21.49.07.5Z" style="fill:#f0ba7a"/><path d="M44.3,214.93c-9.79-7.29-16-18.09-21.67-28.9-3.81-7.26-4.71-17.7-5-19.26" style="fill:#f7cfa2"/><path d="M44.48,214.75c-8.19-7.25-13.91-16-19-25.57-3.9-7.38-5.54-14.55-6.75-22.72-.21-1.45-2.43-.84-2.2.61,1.34,8.65,3.21,16.22,7.55,23.89,5.15,9.11,11.26,18.25,20.08,24.18.24.16.52-.21.31-.4Z" style="fill:#f0ba7a"/><ellipse cx="127.3" cy="201.78" rx="13.33" ry="17.33" transform="translate(-76.38 326.02) rotate(-89.13)" style="fill:#a85848"/><path d="M136.74,204.78l.05,0c7.71,2.88,5.84,14,4.49,20.14a7.44,7.44,0,0,1-.42,1.41c-1,2.33-4.24,3.82-6.54,4.52-4.21,1.28-9.53,1.88-13.54-.34-5.62-3.11-4.22-10.24-4-15.57.09-1.82-.09-3.59-.16-5.41-.06-1.41-.18-2.94.82-4.08a4.12,4.12,0,0,1,2.21-1.2,14.32,14.32,0,0,1,3.88-.33c.36,0,4.3,3,4.67,3.18s2.78-1.5,3.09-1.65a7.33,7.33,0,0,1,4.59-.93A5.71,5.71,0,0,1,136.74,204.78Z" style="fill:#e85646"/><path d="M127.76,208.1c1,4.56-.19,9.34.94,13.91.14.58,1.1.47,1.06-.14-.32-4.57,1.48-10-.93-14.21a.59.59,0,0,0-1.07.45Z" style="fill:#ea4e39"/></svg>