<svg xmlns="http://www.w3.org/2000/svg" xmlns:xlink="http://www.w3.org/1999/xlink" viewBox="0 0 300 450"><defs><clipPath id="4914db8d-75e9-4332-8d89-d1e92cc304d2"><path d="M248.07,218A99.73,99.73,0,0,1,48.6,218c0-55.08,44.65-165.73,99.73-165.73S248.07,162.95,248.07,218Z" style="fill:none"/></clipPath></defs><title>juego2_ilust</title><g id="a9141280-40a2-45b7-91be-d8fa9a5ebc36" data-name="Layer 1"><circle cx="150" cy="217.41" r="99.73" style="fill:#dcffc5"/></g><g id="3553b09f-f9e6-4808-a7dd-6c4fe8d03797" data-name="Layer 2"><circle cx="147.11" cy="216.88" r="99.73" style="fill:#1f74c9"/><path d="M218.06,287.46a26.94,26.94,0,0,0-3.27-8.82c-.64-1.76-1.26-3.47-1.89-5.18-.52-1.43-1.05-2.85-1.58-4.28s-1-2.86-1.55-4.29c-4.94-11-3.94-22-3.86-33.56.19-2.3.43-4.61.71-6.92.56-4.61,1.26-9.22,1.94-13.79q.38-3,.76-6.1a21.1,21.1,0,0,0,1.5-7c.5-11.84-8.67-23.64-22-23.64-6,0-13-3-16,2-4.5,5.5-6.5,11.5-8,17.62-.49,2-.92,4.1-1.37,6.17A39.9,39.9,0,0,0,161.08,211a46.54,46.54,0,0,0,0,5.63c.78,14.23,1.88,20.89,6.15,34.39,2.71,8.58,16.56,51.81,20.39,57C203.5,300.78,216.11,289.19,218.06,287.46Z" style="fill:#8baa77"/><path d="M48.1,229.07c.06.26.12.52.2.79C48.23,229.61,48.17,229.34,48.1,229.07Z" style="fill:#f7cfa2"/><path d="M47.94,228.42c.05.23.11.44.16.66Q48,228.74,47.94,228.42Z" style="fill:#f7cfa2"/><path d="M98.09,216c1.06,5.84,5.63,5.47,9.57,7.59,1.42.51,2.88,1,4.35,1.43a33,33,0,0,1,8.37,3.61,21.32,21.32,0,0,1,4.88,3.52c2.49,2.55,3.18,5.49.57,8.93-3.62,5.61-9.57,5.53-15.23,4.05a56.32,56.32,0,0,1-5.46-1.79c-7.69-3.3-16.85-4.18-24.26-7.1a27.45,27.45,0,0,1-5.18-2.65c-5-5.42-5.88-11.14-4.3-16.89a27.45,27.45,0,0,1,2.33-5.7c9-10.68,19.73-28.73,34.45-26.39a9.65,9.65,0,0,1,3.22,4.7c1.86,9.77-6.92,15.08-11.53,22A29.22,29.22,0,0,0,98.09,216Z" style="fill:#8baa77"/><path d="M95,231a12.27,12.27,0,0,1-1,4.14,19.08,19.08,0,0,1-2.1,3.66c-4.43,5.63-14,15.85-6.52,18.7,7.69,3.62,12-7.59,17.47-12.95,1-1.07,2-2.14,3-3.19,2.39-2.48,4.81-4.53,5.56-8.07a10.9,10.9,0,0,0-2-9,16.4,16.4,0,0,0-7.81-4.79c-4.87-1.59-30.6-7.57-27.13,4.56a4.85,4.85,0,0,0,2.5,3c3.84,2.72,9.44,1.95,14.73,2.13A9.09,9.09,0,0,1,95,231Z" style="fill:#595959"/><path d="M212.64,144.76a6.87,6.87,0,0,0-7.42-5.14c2.93-6.64,2.61-14.57-2.21-22.24a25.87,25.87,0,0,0-2.79-3.4,28.07,28.07,0,0,0-3.41-3c-8.61-6.24-20.75-5.51-30.28-2.31-2.92.67-4.21,4-6.91,5.68a12.74,12.74,0,0,0-2.51,4.16c-.18.45-.36.9-.53,1.35a19.14,19.14,0,0,0-8.7,31,.74.74,0,0,0,1.11,0l.16-.18.23.85a19.21,19.21,0,0,0,.32,2.08,6.87,6.87,0,0,0,3.34,13.3l.83,3.28c3.14,12.43,23.8,17.93,33.2,15.55,8.29-2.1,25-17,21.81-29.47-.18-.7-.49-1.86-.88-3.26A6.87,6.87,0,0,0,212.64,144.76Z" style="fill:#8baa77"/><path d="M114.52,203.72a15.34,15.34,0,0,1-1.22,5.18,23.85,23.85,0,0,1-2.62,4.57c-5.54,7-17.49,19.81-8.15,23.38,6.21,2.93,11-2.45,14.47-7,2-2.59,3.8-5.34,5.95-7.79,2.33-2.66,5.06-4.95,7.43-7.58,3-3.27,5.42-7.38,5.19-11.79-.25-4.69-3.61-8.77-7.66-11.15-5.75-3.38-43.73-12.83-39.08,3.42.86,3,4.22,4.65,7,5.44a29.32,29.32,0,0,0,7.23.88c2.1.05,5.33-.65,7.31,0A11.36,11.36,0,0,1,114.52,203.72Z" style="fill:#8baa77"/><path d="M221.47,201a17.67,17.67,0,0,1-1.72,5.88,27.48,27.48,0,0,1-3.3,5.1c-6.81,7.75-21.34,21.71-10.82,26.39,10.78,5.81,17.81-10,26.12-17.27,1.5-1.46,3-2.92,4.55-4.36,3.63-3.38,7.27-6.15,8.62-11.17a15.7,15.7,0,0,0-2.24-13.15c-2.63-3.6-6.7-5.88-10.86-7.49-6.88-2.67-43.41-13.25-39.36,4.46a7,7,0,0,0,3.36,4.44c5.31,4.21,13.43,3.53,21,4.19A13.09,13.09,0,0,1,221.47,201Z" style="fill:#8baa77"/><path d="M242.85,111.58c-7-.44-12.61,1.27-16.81,4.69a4.46,4.46,0,0,0,.17-.61,38.07,38.07,0,0,1,1.28-4.28s-3.18,1.31-4.06,3a9.12,9.12,0,0,0-.36,4.15c-1.29-.68-3.53-1.71-4.82-1.57-1.89.21-4.26,2.71-4.26,2.71s2.23.05,3.8.25A19.12,19.12,0,0,0,205.42,146a.74.74,0,0,0,1.06.34l.21-.13,0,.88a19.2,19.2,0,0,0-.33,2.07,6.87,6.87,0,0,0-.88,13.68l-.21,3.38c-.8,12.8,17.19,24.34,26.87,24.95,8.53.54,29-8.6,29.77-21.4,0-.72.1-1.93.16-3.37a6.87,6.87,0,0,0,1.12-13.66l.37-3q.19-1.36.32-2.61l.32-2.62c1.22,2.5,2.58-.23,4.84-1.18.37-2.23.72-4.1.78-5.19C270.74,122.85,258.13,112.54,242.85,111.58Z" style="fill:#595959"/><path d="M198.49,232.05c1-10.84,2-20.84,7-30.61a24.65,24.65,0,0,1,2.65-4.06A13.94,13.94,0,0,1,220.49,192a24.18,24.18,0,0,1,6,1.26c27,11,22.46,40.49,11.92,61.8-.92,2.27-3,6.76-4.12,9-5,10.84-13.95,22.15-21.74,27.84-2.72,2-12.62,10.27-12.88,9.51-.59-1.71-.9-20.31-.68-22.15.41-3.29-.64-15.76.11-25.14.19-2.34.32-4.7.29-7.07a40.32,40.32,0,0,0-.68-7.14C198.55,237.18,198.47,234.52,198.49,232.05Z" style="fill:#595959"/><path d="M251.14,221.66a15.34,15.34,0,0,1-2.59,4.64,23.85,23.85,0,0,1-3.78,3.68c-7.26,5.24-22.26,14.24-14.26,20.24,5.17,4.52,11.26.67,15.83-2.71,2.62-1.94,5.12-4.09,7.86-5.86,3-1.92,6.23-3.36,9.23-5.24,3.74-2.34,7.25-5.61,8.23-9.9,1-4.58-1.06-9.42-4.3-12.83-4.6-4.83-38.51-24.37-38.51-7.46,0,3.12,2.78,5.63,5.24,7.15a29.32,29.32,0,0,0,6.71,2.83c2,.63,5.31.84,7,2A11.36,11.36,0,0,1,251.14,221.66Z" style="fill:#595959"/><path d="M196.67,196.67c-.9,1.64-1.86,3.66-2.83,5.8s-1.91,4.5-2.82,6.6c-.75,2.07-1.55,4.12-2.38,6.16-4.15,10.19-9.1,20.07-12.92,30.81a62.93,62.93,0,0,0-1.63,6.54c-2,10.6,0,19.29,11.42,19.29,4.58,0,6.56-5.38,7.85-12.82.32-1.86.6-3.85.87-5.9,1.31-11.64,5.71-22.21,10.28-32.75.92-2.11,1.84-4.21,2.72-6.3a33.6,33.6,0,0,0,4.28-11.2c.41-1.89.74-3.77,1.1-5.62.23-2.41.23-3.41,1.23-5.41a42.57,42.57,0,0,0-12.71,2.28C199.75,194.84,198.26,195.68,196.67,196.67Z" style="fill:#595959"/><path d="M224.56,165.51c-3,6.7-6,13.43-8.52,20.54a62.92,62.92,0,0,0-1.63,6.54c-2,10.6,0,19.29,11.42,19.29,4.58,0,6.56-5.38,7.85-12.82.32-1.86.6-3.85.87-5.9.94-8.41,3.51-16.26,6.58-23.95C235.52,168.18,230,167,224.56,165.51Z" style="fill:#595959"/><path d="M110.9,226.42a12.27,12.27,0,0,0,3,3,19.08,19.08,0,0,0,3.72,2c6.74,2.43,20.26,6.05,15.42,12.43-4.61,7.14-14.18-.11-21.67-1.75-1.4-.38-2.81-.77-4.23-1.13-3.34-.84-6.48-1.3-9-3.91a10.9,10.9,0,0,1-3-8.75,16.4,16.4,0,0,1,4.09-8.19c3.29-3.93,22-22.6,25.44-10.48a4.85,4.85,0,0,1-.56,3.83c-1.82,4.34-7,6.65-11.38,9.59A9.09,9.09,0,0,0,110.9,226.42Z" style="fill:#595959"/><path d="M271.83,200.54c0,5.4-5.57,10.12-13.87,12.66a65.47,65.47,0,0,1-6.69,1.6C240.5,216.2,234.5,227.2,223.5,227.2a7.58,7.58,0,0,1-4-2c-6-12,5-25,13-33,5-4,12-7,18.78-5.77a39.8,39.8,0,0,1,6.69,1.44C266.26,190.42,271.83,195.14,271.83,200.54Z" style="fill:#8baa77"/><path d="M164.48,180.53c-15.11,10.74-30.68,24.82-32.22,44.46a43.51,43.51,0,0,0-.46,6.13c0,6,1.89,11.4,8.47,14.22,3.5.88,8.62-2.4,9.5-5.89a35.3,35.3,0,0,0,1.12-5.6c.24-1.89.36-3.8.52-5.7-1.55-18.43,18.65-25.91,24.35-40.49.14-2.82-1.66-9.29-6.58-7.85A10.74,10.74,0,0,0,164.48,180.53Z" style="fill:#8baa77"/><path d="M145.18,258.62c-.2-.35.16-46.32,0-46.68a22.68,22.68,0,0,1-1.11-3.61,49.58,49.58,0,0,0-1.89-5.41,49.07,49.07,0,0,0-92.47,32.4c3.66,12.81,26.4,43.41,26.9,44.85,8.53-9.41,24.19-3.2,33.16-12C122.49,255.69,130.16,268.18,145.18,258.62Z" style="fill:#393d47"/><g style="clip-path:url(#4914db8d-75e9-4332-8d89-d1e92cc304d2)"><path d="M133.94,286.16C132,276.5,134.62,268,127.8,266c-4.09-1.24-11-.73-15.75.19L93.43,271c-5.7,1.47-14.46,5.42-17.85,9.64-4.1,5.11,2.88,10.74,4.56,19.2L99.08,350c.83,4.18,4,20.83,6.05,24.05,20-3.31,15.43-5.23,35.34-9.57,1.12-4.62-.95-9.1-2-14.17Z" style="fill:#f1f3f7"/><path d="M79.52,278.51l3.06,2.64c4,.55,5.94,10.74,4.32,22.66l-2.06,23.64-1.54,27.47c-.89,6.53-1.21,11.79-3.16,14.55a7.38,7.38,0,0,1-6.47,2.88l-5.91-.81a7.21,7.21,0,0,1-4.93-3.25c-1.55-3.08-.91-8.23.11-15.68,0,0,4.2-37.6,3.37-28.15s1.59-15.38,3.69-28.16S75.52,278,79.52,278.51Z" style="fill:#f1f3f7"/><path d="M144,282c-1-1.68-1.94-3.27-2.81-4.68-6.82-11-11.87-12.63-15.36-10.6l-2,1.4c-3.49,2-1.4,12.2,4.65,22.59l4.21,8.11C135.59,292.33,139,286.49,144,282Z" style="fill:#f1f3f7"/><rect x="90.48" y="243.05" width="20.18" height="29.09" rx="7.88" ry="7.88" transform="translate(-48.15 24.46) rotate(-11.21)" style="fill:#f0ba7a"/><polygon points="107.88 294.16 102.87 268.86 112.69 272.25 107.88 294.16" style="fill:#dcdde0;opacity:0.400000005960465"/><polygon points="107.88 294.16 102.81 268.58 95.02 275.46 107.88 294.16" style="fill:#dcdde0;opacity:0.400000005960465"/><polygon points="110.06 271.42 102.99 268.96 98.38 274.83 103.14 280.79 107.64 280 110.06 271.42" style="fill:#0076b7"/><polygon points="124.91 335.45 119.56 347.22 109.16 339.81 103.14 280.79 107.64 280 124.91 335.45" style="fill:#0076b7"/><path d="M102.81,268.58l.09.46s-2,11.4-6.88,9a9.35,9.35,0,0,1-5.35-7l.89-4.46Z" style="fill:#fff"/><path d="M103,268.54l.09.46s6.17,9.79,9.8,5.73a9.35,9.35,0,0,0,2.29-8.48l-2.53-3.78Z" style="fill:#fff"/><g style="opacity:0.300000011920929"><polygon points="120.16 311.47 128.48 314.71 135.17 308.5 132.4 294.49 117.38 297.46 120.16 311.47" style="fill:#dcdde0"/><rect x="116.49" y="289.99" width="15.31" height="4.45" transform="translate(-54.43 29.7) rotate(-11.21)" style="fill:#dcdde0"/></g><path d="M136.5,302c0-4.59-.19-9-.27-13.3q-1.39-.83-2.72-1.8c-6.6-5.19-9.45-13.39-10.13-21.68a50.91,50.91,0,0,0-7,.2,94.78,94.78,0,0,1,1.47,11.46c.44,2.2-.56,4.39-1.22,6.81a9,9,0,0,1-4.73,4.93c-12.29,5.73-21.3-4.36-24.89-15.44-3.4,1.44-4.37,1.61-6.84,3.65,2.51,6,2.56,16-.7,23.35C90.07,325,99.26,349.57,97.69,377c16.19-3,32.29-7.13,48.43-10.81A201.7,201.7,0,0,1,136.5,302Z" style="fill:#004868"/></g><circle cx="64.04" cy="234.04" r="8.42" transform="translate(-61.89 26.63) rotate(-15.96)" style="fill:#f7cfa2"/><circle cx="64.04" cy="234.04" r="5.55" transform="translate(-61.89 26.63) rotate(-15.96)" style="fill:#f0ba7a"/><circle cx="129.82" cy="215.23" r="8.42" transform="translate(-54.18 44) rotate(-15.96)" style="fill:#f7cfa2"/><circle cx="129.82" cy="215.23" r="5.55" transform="translate(-54.18 44) rotate(-15.96)" style="fill:#f0ba7a"/><path d="M128.26,208c-4.32-15.1-22.77-23.06-41.22-17.78S57.14,212,61.45,227.07l5.49,19.18c4.32,15.1,29.8,21,41.22,17.78,10.06-2.88,29.9-21.79,25.59-36.89Z" style="fill:#f7cfa2"/><path d="M90.53,247.13a4.5,4.5,0,0,0,8.65-2.47c-.68-2.39-7.29-9.14-7.29-9.14S89.85,244.74,90.53,247.13Z" style="fill:#7bcddb;opacity:0.7000000000000001"/><path d="M82.41,190a.9.9,0,0,0-.54-1.19h0a23.46,23.46,0,0,0-24.52,38.32.91.91,0,0,0,1.36,0C68.13,215.67,76.94,203.48,82.41,190Z" style="fill:#393d47"/><path d="M119.68,189.43a.9.9,0,0,0,.46-1.23h0A23.46,23.46,0,0,0,75.7,198a.91.91,0,0,0,1,.93C91.4,197.51,106.25,195.12,119.68,189.43Z" style="fill:#393d47"/><path d="M130,208.87c.32.14.73-.16.89-.65h0c4-12.31-7.09-24.74-15.55-29.74-5.2-3.07-21.07-6.57-25.9-.41-.31.4,16.19,11.36,16.45,11.66C113.1,197.69,120.93,205,130,208.87Z" style="fill:#393d47"/><path d="M124.59,217.21c1.92,6.71.5,13-6.21,14.93s-12.48-2.32-14.4-9,.73-13.36,7.45-15.28S122.67,210.49,124.59,217.21Z" style="fill:#601515;opacity:0.100000001490116"/><circle cx="114.49" cy="220.71" r="10.98" transform="translate(-56.28 39.99) rotate(-15.96)" style="fill:#fff"/><circle cx="118.42" cy="217.38" r="5.25" transform="translate(-55.21 40.94) rotate(-15.96)" style="fill:#601515"/><circle cx="118.42" cy="217.38" r="2.03" transform="translate(-55.21 40.94) rotate(-15.96)"/><circle cx="116.49" cy="215.45" r="1.5" transform="translate(-54.75 40.34) rotate(-15.96)" style="fill:#f9f9f9"/><rect x="102.2" y="207.89" width="22.42" height="7.57" rx="3.79" ry="3.79" transform="translate(-18.68 11.13) rotate(-5.19)" style="fill:#393d47"/><path d="M69.36,233c1.92,6.71,6.45,11.31,13.17,9.39s9.37-8.57,7.45-15.28-7.69-11-14.4-9S67.44,226.29,69.36,233Z" style="fill:#601515;opacity:0.100000001490116"/><circle cx="79.78" cy="230.64" r="10.98" transform="translate(-60.35 30.83) rotate(-15.96)" style="fill:#fff"/><rect x="62.23" y="220.31" width="22.42" height="7.57" rx="3.79" ry="3.79" transform="translate(284.59 329.14) rotate(134.6)" style="fill:#393d47"/><circle cx="84.71" cy="227.2" r="5.25" transform="translate(-59.21 32.05) rotate(-15.96)" style="fill:#601515"/><circle cx="84.71" cy="227.2" r="2.03" transform="translate(-59.21 32.05) rotate(-15.96)"/><circle cx="82.86" cy="225.24" r="1.5" transform="translate(-58.74 31.47) rotate(-15.96)" style="fill:#f9f9f9"/><path d="M79.64,236.27c-4.49-.31-2.57,3.21-5.52,1.36a2.51,2.51,0,0,0-3.16-.47,11,11,0,0,0,19.76-5.69C87.26,230.29,84.12,236.58,79.64,236.27Z" style="fill:#7bcddb;opacity:0.7000000000000001"/><path d="M92.35,258.59s4.78-5.67,11.84-7.17,13.74,1.74,13.74,1.74a79.18,79.18,0,0,0-13.55,1.6A60.9,60.9,0,0,0,92.35,258.59Z" style="fill:#ea6d50"/><rect x="95.02" y="221.03" width="6.36" height="17.85" rx="3.18" ry="3.18" transform="translate(-59.45 35.87) rotate(-15.96)" style="fill:#f0ba7a"/><rect x="93.85" y="218.76" width="6.36" height="17.85" rx="3.18" ry="3.18" transform="translate(-58.87 35.46) rotate(-15.96)" style="fill:#f7cfa2"/><path d="M58.27,202.61,63,219.27l37.74-10.79-2.1-12.87,5.84,11.8a92.59,92.59,0,0,0,10.07-2.13c3.51-1,13.4,1.92,13.4,1.92l-9.2-25-49.91,6.19Z" style="fill:#393d47"/><g style="opacity:0.600000023841858"><path d="M83.3,179.23c6.54-1.16,12.51-2.35,19.21-1.81.64.05,1.55-.86.55-.94-6.87-.56-12.85.62-19.59,1.82-.74.13-1.19,1.11-.17.93Z" style="fill:#f7cfa2"/></g><path d="M121.23,223.62c-4.26-2-4.67,2.3-7.23,2.77-1,.18-2.21-2.5-3.38-.8-1.74,2.53-2.34,2.42-4.28,2.44a11,11,0,0,0,19.14-7c-.82-.1-1.81-.45-2.34-.09C122.19,221.59,122.9,224.42,121.23,223.62Z" style="fill:#7bcddb;opacity:0.7000000000000001"/><path d="M90.53,247.13a4.5,4.5,0,0,0,8.65-2.47c-.68-2.39-7.29-9.14-7.29-9.14S89.85,244.74,90.53,247.13Z" style="fill:#7bcddb;opacity:0.7000000000000001"/><path d="M79.64,236.27c-4.49-.31-2.57,3.21-5.52,1.36a2.51,2.51,0,0,0-3.16-.47,11,11,0,0,0,19.76-5.69C87.26,230.29,84.12,236.58,79.64,236.27Z" style="fill:#7bcddb;opacity:0.7000000000000001"/><path d="M121.23,223.62c-4.26-2-4.67,2.3-7.23,2.77-1,.18-2.21-2.5-3.38-.8-1.74,2.53-2.34,2.42-4.28,2.44a11,11,0,0,0,19.14-7c-.82-.1-1.81-.45-2.34-.09C122.19,221.59,122.9,224.42,121.23,223.62Z" style="fill:#7bcddb;opacity:0.7000000000000001"/><path d="M158.5,228.93c0,2.68-1.77,4.86-4,4.86s-4-2.18-4-4.86-.88-4.9,4-4.86C156.73,224.09,158.5,226.24,158.5,228.93Z" style="fill:#f7cfa2"/><path d="M131.64,280.77c-.26,4,3.1,8.87,8.86,9.75a11,11,0,0,0,2.75.07,10.8,10.8,0,0,0,2.79-.66q.93-.34,1.83-.75a27,27,0,0,0,6.22-3.95c7.16-6.48,8.1-15,9-23.44,0-3.16-4.28-14.18-7.2-13.6-7.54,1.5-12.48,12.94-17.64,22.8l-.7,1.33c-1.17,2.78-3.7,4.81-4.78,7.25A15.3,15.3,0,0,1,131.64,280.77Z" style="fill:#f1f3f7"/><path d="M139.4,255.29c-.19,1.8-1.39,3.39-1.1,4.84,0,.58,0,1.16,0,1.74.06,2.34.22,4.74.27,7.22,0,.67.08,1.33.12,2,.23,4.63.47,9.05,6,12.45a5.35,5.35,0,0,0,2.14.1c3.14-.41,7.14-2.81,8.51-5.2a102.47,102.47,0,0,0,4.44-12.36c.21-.72.4-1.44.56-2.16,1.13-4.12,1.59-10.68-5.07-12.14-.75-.21-1.54-.4-2.35-.55-4.09-.76-8.81-.61-11.86,2A4.5,4.5,0,0,0,139.4,255.29Z" style="fill:#f1f3f7"/><path d="M139.92,254.51a10.48,10.48,0,0,0-1.21,2.15,12.82,12.82,0,0,0-.64,1.82,14.22,14.22,0,0,0-.36,1.84c.2,2.09.52,4.22.73,6.34.07.71.12,1.41.16,2.12-.18,4.11-.08,8.88-4,12.17,5.41-2.58,5.76-7.49,5.82-11.56,0-.75-.1-1.5-.19-2.24-.26-2.24-.7-4.48-.95-6.57,0-.72,0-1.45.06-2.16a18.33,18.33,0,0,1,.29-2.14A9.24,9.24,0,0,0,139.92,254.51Z" style="fill:#fff"/><path d="M139.73,254.87c-.35-1.55.53-7.7.84-8.21,4,1.57,11.27,3.46,17,2.06-.34,1.91.64,6.6.21,7.25A50.52,50.52,0,0,1,139.73,254.87Z" style="fill:#fff"/><path d="M146.24,226.75c-1.6.7-2.32,2.52-2.88,4.17a42.26,42.26,0,0,0-2.24,9.16,16.39,16.39,0,0,0,1.5,9.19l12.31.75a5.9,5.9,0,0,0,4.3-3.88,11.82,11.82,0,0,0,.32-6.75,35.23,35.23,0,0,0-2.29-6.45Z" style="fill:#f7cfa2"/><path d="M145.66,226.68c-3,2.08-3.79,6.25-4.59,9.64-1.07,4.52-1.11,8.85.81,13.15a.31.31,0,0,0,.27.15c5.38.33,14.5,3.14,17.54-3,2.11-4.28.77-11.93-3.06-14.65-3-2.11-6.52-3.66-9.71-5.45-.41-.23-1.68.38-1.39.54l8.83,5c2.53,1.42,3.14,3,4,5.95,1,3.57,1.63,10.46-3.19,11.72-1.38.36-3.6-.22-5-.3-1.68-.1-4.51.28-6.06-.37-5.37-2.27-1.6-19.21,2.72-22.16C147.46,226.38,146,226.46,145.66,226.68Z" style="fill:#f7cfa2"/><path d="M151.4,225.75q.17-7,.84-14c.16-1.7.24-3.71-1.08-4.8s-3.52-.55-4.69.75a9.88,9.88,0,0,0-1.94,4.81c-1.73,8.59-2.51,17.92,1.37,25.77" style="fill:#f7cfa2"/><path d="M152.15,225.68c.1-3.5.26-7,.53-10.49.16-2,1-5.49,0-7.45-1.32-2.4-4.2-2.22-6.14-.73-3.4,2.61-3.49,9.15-3.87,13-.65,6.39-.15,12.62,2.53,18.53.27.61,1.74.17,1.48-.4-3.35-7.4-3.19-15.34-1.82-23.21.21-1.21.55-5.38,1.6-6.06l5.09.5a25.54,25.54,0,0,1-.18,4.24c-.26,4.08-.56,8.14-.68,12.23,0,.72,1.48.47,1.5-.14Z" style="fill:#f0ba7a"/><path d="M151.41,224.44a20.49,20.49,0,0,0,.78,9.87,5.44,5.44,0,0,0,1.19,2.19,2.24,2.24,0,0,0,2.29.63,2.89,2.89,0,0,0,1.45-1.68c1.2-2.81.94-6,.46-9a3.45,3.45,0,0,0-.38-1.29,2.61,2.61,0,0,0-1-.88,4.06,4.06,0,0,0-4.72.27,5.91,5.91,0,0,1,4.82-.6,8.22,8.22,0,0,0,1.83.41c.66,0,1.31-.22,2-.16,1.31.12,2.23,1.32,2.83,2.49a9.54,9.54,0,0,1,1,6.63,3.73,3.73,0,0,1-1.92,2.59,3,3,0,0,1-3.14-.35c-.91-.72-.61-.37-1.1-1.41" style="fill:#f7cfa2"/><path d="M150.67,224.54c-.5,3.45-.8,9.63,2,12.25a3.12,3.12,0,0,0,4.77-.65c1.64-2.39,2-8.66.48-11.22s-4.94-1.86-6.93-.62c-.78.49.28.74.75.51,2.2-1.09,3.77-.19,6-.09,2.06.1,3.4.19,4.44,2.12a10.51,10.51,0,0,1,1.23,4.1c0,.52.06,2.46-.41,3.07l-3.91.83a2.21,2.21,0,0,1-.57-.95c-.23-.5-1.68,0-1.48.4a3.87,3.87,0,0,0,5.08,1.93c2.44-.95,3-3.74,2.71-6.11s-1.59-6-4.38-6.37c-.93-.12-1.86.14-2.81,0-.79-.11-1.54-.43-2.35-.49a7.66,7.66,0,0,0-4.12.94l.75.51c4.44-2.77,5.07,2.11,5.24,4.63a16.31,16.31,0,0,1-.08,3.56,11,11,0,0,1-.4,1.77q0,1.86-1.62,1.48c-3.69.23-3.26-9.51-2.93-11.81.08-.57-1.41-.31-1.48.19Z" style="fill:#f0ba7a"/><path d="M144.77,248.74c0-.94,1-1.51,1.79-2a14.66,14.66,0,0,0,5-4.7c1.16-1.78,1.86-4.32.43-5.89a4,4,0,0,0-4.63-.51,11.63,11.63,0,0,0-3.62,3.4" style="fill:#f7cfa2"/><path d="M145.51,248.63c.35-1.4,3.07-2.64,4.14-3.58a14.61,14.61,0,0,0,2.4-2.69c1.11-1.62,2.17-4,1.06-5.91-2.6-4.44-8.14.28-10,2.63-.36.45,1.1.3,1.36,0a12.62,12.62,0,0,1,2.15-2.38c2-1.48,4.57-1.47,5.33.87.62,1.9-.6,4.05-1.7,5.47a17.09,17.09,0,0,1-4.43,3.77c-.89.6-1.5,1-1.77,2.06-.11.45,1.36.23,1.47-.22Z" style="fill:#f0ba7a"/><path d="M151.69,242.6a6.2,6.2,0,0,0-5.81-3.44c-.85,0-1.13,1.14-.12,1.12A4.94,4.94,0,0,1,150.2,243c.32.66,1.78.23,1.48-.4Z" style="fill:#f0ba7a"/></g></svg>