<?xml version="1.0" encoding="utf-8"?>
<!-- Generator: Adobe Illustrator 21.1.0, SVG Export Plug-In . SVG Version: 6.00 Build 0)  -->
<svg version="1.1" id="Layer_1" xmlns="http://www.w3.org/2000/svg" xmlns:xlink="http://www.w3.org/1999/xlink" x="0px" y="0px"
	 viewBox="0 0 871.2 598.1" enable-background="new 0 0 871.2 598.1" xml:space="preserve">
<g>
	<polygon fill="#E86767" points="557.7,555.7 305.3,552.8 291.2,31.3 520.2,52.6 	"/>
	<polygon fill="#DCFFC5" points="532.4,564.8 725.2,566.8 673,74.2 497.1,58.1 	"/>
	<path fill="#3EBA50" d="M565.4,342.7c4.8-6,7.2-12.4,7.8-19c0.2-2.2,0.2-4.4,0-6.6c-0.5-4.9-1.5-9.5-3.1-13.9
		c-1.6-4.4-3.7-8.5-6.3-12.2c-2.3-3.8-5.4-6.7-9-9.1c-1.2-0.8-2.4-1.6-3.6-2.3c-2.1-1.1-4.2-1.8-6.4-2.3c-2.1-0.4-4.3-0.6-6.4-0.5
		c-7.1,0.6-13.4,3.3-19.7,5.1c7.2-15.3,5.4-33.3-2.3-48.5c-1.3-1.6-3-3.1-5.4-4.4c-1.8-0.9-3.7-1.6-5.9-2.1
		c-5.4-0.9-10.8,0-16.2,0.9c-1.8,0.9-3.6,2.7-4.5,4.5c0-1.8-1.8-3.6-2.5-5.6c-1-2.2-2-4.4-3.1-6.6c-7.7-15.5-18.4-30.5-37.6-22
		c-3.6,0.9-6.3,1.8-7.2,6.3c-0.9-1.8-0.9-4.5-1.9-6.2c-0.9-1.9-1.8-3.6-2.9-5.4c-1-1.9-2.2-3.9-3.4-5.7c-6.3-9.1-16-15.2-27.8-10.7
		c-5.4,2.7-9.9,6.3-14.8,10.8c-1.7,1.7-3.4,3.4-5.3,5c-1.6,1.7-2.9,3.5-3.4,5.7c-0.9,1.4-1.8,2.9-2.6,4.5s-1.5,3.2-1.9,4.5
		c0,2.7-1.8,5.4-0.9,8c-1.8-1.2-3.6-2.4-5.5-3.6c-14.1-9.6-30.6-19.9-47.3-24.3c-2.4-0.6-4.8-1.1-7.2-1.5
		c-14.5-3.7-28.6,0.1-38.7,8.6c-1.7,1.4-3.3,2.9-4.7,4.6c-13.6,14.6-10,36.2-14.5,54.1c-0.5,1.8-1.1,3.6-1.8,5.4
		c-2.7,5.4-6.3,10.8-13,13c-3.6,1.8-7.6,3-11.7,3.9c-4.1,0.9-8.4,1.4-12.6,1.8c-3,0.8-7.1,1.2-10.6,2.5c-3.5,1.3-6.4,3.3-6.8,7.2
		c-0.5,5,4.8,15.3,6.6,20.2c4.9,13.8,10.4,27,24.9,33"/>
	<polyline fill="#6BA8B2" points="614.7,360.5 260.6,450.5 347.1,310.7 614.7,310.7 	"/>
	<path fill="#393D47" d="M626.9,237.2c0-0.5,24-51.7,24-52.2c-0.1-1.5,0.4-3.1,0.6-4.6c0.4-2.4,0.6-4.7,0.7-7
		c1.1-30.2-20.6-57.1-51.2-61.8c-33-5.1-63.8,17.5-68.9,50.5c-2.5,16.2,7.2,62.1,7,64c14.4-6.1,28.7,8.9,43.2,3.6
		C603,222.3,605.1,240.2,626.9,237.2z"/>
	<g>
		<g>
			<path fill="#F1F3F7" d="M605.1,253.1c1.5-9.6,6.7-16.5,1.1-20.7c-3.4-2.5-9.9-4.4-14.6-5.1l-18.8-1.8c-5.8-0.6-15.2,0.2-19.8,2.9
				c-5.5,3.4-0.9,10.9-2.2,19.3l0.7,52.8c-0.6,4.1-3.3,20.6-2.5,24.3c19.6,3.7,16,0.3,35.9,3c2.6-3.9,2.2-8.7,3-13.8L605.1,253.1z"
				/>
			<path fill="#F1F3F7" d="M604.7,237.1c-4.6-0.1-7.3,4.4-5.5,8c9,18.9,23.4,32.4,29.7,54c0,1.8,3.6,0.9,6.2,1.1
				c4.4-0.6,9.1-3.4,10.9-7.4c1.8-4.5,2.7-9,1.8-13.5c-3.6-8.1-5.4-16.2-10.8-23.4c0.9,0.9,0.9,1.8,1.8,2.7
				c-4.5-6.3-9.9-12.6-15.8-16.8C615.5,235.4,609.4,235.1,604.7,237.1z"/>
			<path fill="#F0BA7A" d="M583.8,229.9l-4.3-0.7c-4.2-0.6-7.1-4.6-6.5-8.9l2-13c0.6-4.2,4.6-7.1,8.9-6.5l4.3,0.7
				c4.2,0.6,7.1,4.6,6.5,8.9l-2,13C592,227.7,588,230.6,583.8,229.9z"/>
			<polygon opacity="0.4" fill="#DCDDE0" points="578.3,251.7 582.1,226.6 590.1,233.1 			"/>
			<polygon opacity="0.4" fill="#DCDDE0" points="578.3,251.7 582.2,226.4 572.6,230.1 			"/>
			<polygon fill="#0076B7" points="587.9,231.4 582.2,226.8 576,230.7 578.4,237.8 582.8,238.5 			"/>
			<polygon fill="#0076B7" points="580.2,295.7 571.2,304.8 564.1,294.4 578.4,237.8 582.8,238.5 			"/>
			<path fill="#FFFFFF" d="M582.2,226.4l-0.1,0.5c0,0-5.7,9.9-9.4,6c-3.7-3.8-2.6-8.2-2.6-8.2l2.3-3.8L582.2,226.4z"/>
			<path fill="#FFFFFF" d="M582.3,226.4l-0.1,0.5c0,0,2.4,11.1,7.1,8.6c4.7-2.5,5-7.1,5-7.1l-1.1-4.3L582.3,226.4z"/>
			<g opacity="0.3">
				<polygon fill="#DCDDE0" points="583.8,271.9 590.4,277.7 598.7,274.2 600.8,260.3 585.9,258 				"/>
				
					<rect x="591.8" y="247.9" transform="matrix(0.152 -0.9884 0.9884 0.152 251.253 803.6486)" fill="#DCDDE0" width="4.4" height="15.1"/>
			</g>
			<path fill="#004868" d="M602.1,268.6c1.5-4.2,2.8-8.4,4.2-12.4c-0.7-0.8-1.3-1.7-1.9-2.6c-4.4-7-4.2-15.6-2.1-23.5
				c-2.1-0.9-4.4-1.6-6.6-2.2c-0.6,3.7-1.4,7.4-2.5,11.1c-0.3,2.2-2,3.9-3.4,5.9c-1.4,1.7-3.8,2.8-6,3
				c-13.3,1.2-18.2-11.2-17.8-22.6c-3.6,0.2-4.6,0-7.6,1.1c0.3,6.4-3,15.6-8.5,21.4c1.5,26.5,1.8,52.3-8.9,77.2
				c16,2.7,32.3,4.3,48.4,6.3C590.4,309.9,594.3,289.3,602.1,268.6z"/>
		</g>
	</g>
	
		<ellipse transform="matrix(0.152 -0.9884 0.9884 0.152 299.3293 684.8893)" fill="#F7CFA2" cx="548.8" cy="168" rx="10.4" ry="10.4"/>
	
		<ellipse transform="matrix(0.152 -0.9884 0.9884 0.152 299.3293 684.8893)" fill="#F0BA7A" cx="548.8" cy="168" rx="6.8" ry="6.8"/>
	
		<ellipse transform="matrix(0.152 -0.9884 0.9884 0.152 358.596 781.8035)" fill="#F7CFA2" cx="634.9" cy="181.9" rx="10.4" ry="10.4"/>
	
		<ellipse transform="matrix(0.152 -0.9884 0.9884 0.152 358.596 781.8035)" fill="#F0BA7A" cx="634.9" cy="181.9" rx="6.8" ry="6.8"/>
	<path fill="#F7CFA2" d="M634,171.9c2.9-19.1-13.6-37.5-36.9-41.1c-23.3-3.6-44.6,9-47.6,28.1c-0.7,4.3-3.1,20-3.7,24.3
		c-2.9,19.1,22.5,38.9,36.9,41.1c12.7,2,44.6-9,47.6-28.1C630.9,191.9,633.3,176.1,634,171.9z"/>
	<path fill="#393D47" d="M592,128.2c0.5-0.4,0.5-1.2,0-1.6c0,0,0,0,0,0c-11.6-10.9-29.9-10.3-40.8,1.3c-7.5,8-9.6,19.2-6.3,29
		c0.2,0.6,0.9,0.9,1.5,0.6C562.8,149.6,578.9,140.5,592,128.2z"/>
	<path fill="#393D47" d="M633.9,146.7c0.6,0,1.2-0.5,1.1-1.1c0,0,0,0,0,0c-0.5-15.9-13.8-28.4-29.8-27.9c-11,0.3-20.4,6.8-24.9,16
		c-0.3,0.6,0,1.3,0.6,1.5C598.2,141.2,616,146.2,633.9,146.7z"/>
	<path fill="#393D47" d="M635.5,173.8c0.3,0.3,0.9,0.2,1.3-0.3c0,0,0,0,0,0c10.8-11.7,4.8-31.3-2.1-41.2
		c-4.2-6.1-20.2-18.2-28.7-13.8c-0.6,0.3,12.3,21,12.4,21.5C622.3,152.6,627.3,164.8,635.5,173.8z"/>
	<g>
		<path opacity="0.1" fill="#601515" d="M625.1,180.3c-1.3,8.5-6.1,14.8-14.6,13.5c-8.5-1.3-12.8-9-11.5-17.5s7.7-14.6,16.2-13.3
			S626.4,171.8,625.1,180.3z"/>
		
			<ellipse transform="matrix(0.152 -0.9884 0.9884 0.152 342.0563 756.7671)" fill="#FFFFFF" cx="612" cy="179" rx="13.5" ry="13.5"/>
		<ellipse transform="matrix(0.152 -0.9884 0.9884 0.152 342.0563 756.767)" fill="#601515" cx="612" cy="179" rx="6.5" ry="6.5"/>
		<ellipse transform="matrix(0.152 -0.9884 0.9884 0.152 342.0563 756.767)" cx="612" cy="179" rx="2.5" ry="2.5"/>
		
			<ellipse transform="matrix(0.152 -0.9884 0.9884 0.152 344.1916 752.9506)" fill="#F9F9F9" cx="610.9" cy="175.9" rx="1.8" ry="1.8"/>
	</g>
	<g>
		<path opacity="0.1" fill="#601515" d="M555.3,166.9c-1.3,8.5,1.4,16,9.9,17.3c8.5,1.3,14.9-4.8,16.2-13.3
			c1.3-8.5-3-16.2-11.5-17.5C561.4,152.1,556.6,158.4,555.3,166.9z"/>
		
			<ellipse transform="matrix(0.152 -0.9884 0.9884 0.152 314.1628 705.3525)" fill="#FFFFFF" cx="568.1" cy="169.6" rx="13.5" ry="13.5"/>
		<path fill="#393D47" d="M558.5,129.9l-3.2,21.1l47.7,7.3l4.3-15.5l0.5,16.2c0,0,7,2,12.3,2.8c4.5,0.6,14,9,14,9l2.6-32.7l-59-18.7
			L558.5,129.9z"/>
		<path fill="#24272D" d="M562.8,151.2l17.8-4c2.5-0.6,4.1-3.1,3.5-5.6v0c-0.6-2.5-3.1-4.1-5.6-3.5l-17.8,4
			c-2.5,0.6-4.1,3.1-3.5,5.6v0C557.8,150.2,560.3,151.8,562.8,151.2z"/>
		
			<ellipse transform="matrix(0.152 -0.9884 0.9884 0.152 314.1628 705.3525)" fill="#601515" cx="568.1" cy="169.6" rx="6.5" ry="6.5"/>
		<ellipse transform="matrix(0.152 -0.9884 0.9884 0.152 314.1628 705.3525)" cx="568.1" cy="169.6" rx="2.5" ry="2.5"/>
		
			<ellipse transform="matrix(0.152 -0.9884 0.9884 0.152 316.3584 701.633)" fill="#F9F9F9" cx="567.1" cy="166.5" rx="1.8" ry="1.8"/>
	</g>
	<path fill="#EA6D50" d="M601.6,207.7c0,0-8,4.4-16.8,3.1s-15-8-15-8s7.5,2.7,16.3,4.1C594.9,208.2,601.6,207.7,601.6,207.7z"/>
	<path fill="#F0BA7A" d="M587.4,191.8L587.4,191.8c-2.1-0.3-3.6-2.3-3.3-4.5l2.1-14c0.3-2.1,2.3-3.6,4.5-3.3l0,0
		c2.1,0.3,3.6,2.3,3.3,4.5l-2.1,14C591.5,190.7,589.5,192.2,587.4,191.8z"/>
	<path fill="#F7CFA2" d="M587.3,188.7L587.3,188.7c-2.1-0.3-3.6-2.3-3.3-4.5l2.1-14c0.3-2.1,2.3-3.6,4.5-3.3l0,0
		c2.1,0.3,3.6,2.3,3.3,4.5l-2.1,14C591.4,187.6,589.4,189,587.3,188.7z"/>
	<g opacity="0.6">
		<g>
			<path fill="#F7CFA2" d="M598,117c3.6,0.9,7.4,1.6,10.9,2.6c4.2,1.2,7.6,3.4,11.4,5.2c1,0.5,3.6-0.9,2.3-1.5
				c-3.5-1.7-6.7-3.6-10.4-4.9c-4-1.4-8.4-2.1-12.5-3.1C598.7,115,596.3,116.6,598,117L598,117z"/>
		</g>
	</g>
	<g>
		<path fill="#F7CFA2" d="M224.7,251.7c0,0.1,0,0.3,0,0.4C224.7,252,224.7,251.8,224.7,251.7z"/>
	</g>
	<g>
		<path fill="#F7CFA2" d="M224.1,250.1c-0.4-0.3-1.4-1-1.9-0.8l2.5,3.4c0-0.2,0-0.3,0-0.5c0-0.1,0-0.3,0-0.4
			C224.7,251.1,224.7,250.5,224.1,250.1z"/>
	</g>
	<g>
		<path fill="#004868" d="M409.7,245.7c0,3.4,0.3,7,0.6,10.6c-0.7,6.5-0.5,14.1-0.1,22.2c0.2,2.7,0.3,5.4,0.5,8.2
			c0.2,2.9,0.5,6.1,0.7,9.5c0.2,3.4,0.4,7,0.4,10.7c1.9,27.2-5.3,73.1-41.3,66.8c-3.8-0.8-7-2.1-9.7-3.8c-2.7-1.7-4.8-3.8-6.6-6.3
			c-1.8-2.2-2.9-4.6-3.5-7.1c-0.7-2.5-0.9-4.9-0.9-7.2c0.9-3.4,1.4-7.2,1.6-11.2c0.2-4.4,0.1-8.9-0.1-13.9
			c1.2-26.2-15.9-61.3,8.4-80.2c8.1-7.2,19.8-0.9,31-2.5c3-0.1,5,0.7,6.9,1.8c1.9,1.1,3.7,2.5,6.2,3.6
			C405.7,247.9,407.8,247.9,409.7,245.7z"/>
		<g>
			<path fill="#F1F3F7" d="M414.5,188.1c0-8.3-0.2-14-6.8-16.8c-4-1.7-12.9-3-18.1-2.8l-20.2,0.9c-6.2,0.3-16.1,2.1-20.4,5
				c-5.3,3.5-4.5,8.8-4.5,16.1l0,57.1c0,3.6,0.8,7,2.3,10c21.4,0.5,43-0.7,64.5-1c2.1-3.6,3.3-7.8,3.3-12.1L414.5,188.1z"/>
			<path fill="#F1F3F7" d="M403.7,171.1l-2.4,0.8c-4,1.1-3.9,9.8,0.2,19.4l7,19.2l7.2,22.4c2.3,5.2,3.7,9.5,6.2,11.5
				c2.1,1.6,5.5,1.8,7.3,1.3l5.9-1.6c1.5-0.4,3.8-1.8,4.4-3.5c1-2.8-0.7-6.9-3.3-12.9c0,0-12-30.4-9.3-22.7
				c2.8,7.7-4.8-12.4-9.6-22.6C412.6,172.2,407.7,170,403.7,171.1z"/>
			<polygon opacity="0.4" fill="#DCDDE0" points="379.5,190.9 379.5,168.9 389,173.3 			"/>
			<polygon opacity="0.4" fill="#DCDDE0" points="379.5,190.9 379.5,168.9 370,173.3 			"/>
			<polygon fill="#0076B7" points="386.4,172.4 379.3,169 373.6,173.4 377.3,179.1 382.1,179.1 			"/>
			<polygon fill="#0076B7" points="388.6,227.7 380.7,236.6 371.4,228.8 377.3,179.1 382.1,179.1 			"/>
			<polygon fill="#FFFFFF" points="379.5,168.9 379.5,169.3 388.6,177.2 392.6,169 390.7,165.5 			"/>
			<polygon fill="#FFFFFF" points="379.5,168.9 379.5,169.3 370.4,177.2 366.4,169 368.2,165.5 			"/>
			<g>
				<polygon fill="#FFFFFF" points="388.6,207.2 396.6,211.2 404.8,207.2 404.8,195.1 388.6,195.1 				"/>
				<rect x="388.6" y="190.1" fill="#FFFFFF" width="16.1" height="3.7"/>
			</g>
			<g>
				<path fill="#F7CFA2" d="M319.7,149.4c0,0.2,0,0.3,0,0.5C319.7,149.7,319.7,149.5,319.7,149.4z"/>
			</g>
		</g>
		<path fill="#F0BA7A" d="M380.1,140.3h-6c-5.9,0-10.6-4.8-10.6-10.6v-18c0-5.9,4.8-10.6,10.6-10.6l6,0c5.9,0,10.6,4.8,10.6,10.6v18
			C390.8,135.5,386,140.3,380.1,140.3z"/>
		<circle fill="#F7CFA2" cx="337.3" cy="119.5" r="10.6"/>
		<circle fill="#F0BA7A" cx="337.3" cy="119.5" r="7"/>
		<circle fill="#F7CFA2" cx="423.2" cy="119.5" r="10.6"/>
		<circle fill="#F0BA7A" cx="423.2" cy="119.5" r="7"/>
		<path fill="#F7CFA2" d="M423.9,110.2c6.1-48.2-19.5-35.7-43.6-35.7s-43.6,16-43.6,35.7c0,4.4,0,20.6,0,25.1
			c0,19.7,28.7,35.7,43.6,35.7c13.1,0,43.6-16,43.6-35.7C423.9,130.8,423.3,114.5,423.9,110.2z"/>
		<path fill="#601515" d="M408.5,99.6c-1-1,1-3.1,1-3.1c6.3-1,7.3,9.4,13.6,6.3c2.1-1,1-5.2,1-8.4c2.5,6.7,4.3,1.4,8.1-0.5
			c0.4-3.5,0.7-6.4,0.7-8c0-23.6-20.3-38.2-43.9-38.2c-23,0-35.8,14.3-36.7,37c17.9-6.1,29.9,2.8,41.7,13.6
			C399,98.2,403.4,99.6,408.5,99.6z"/>
		<path fill="#601515" d="M378.1,68c0.4-0.5,0.3-1.3-0.2-1.6c0,0,0,0,0,0c-13.4-9.2-31.8-5.8-41,7.6c-6.4,9.3-6.7,20.9-1.9,30.2
			c0.3,0.6,1.1,0.8,1.7,0.4C351.9,94.1,366.8,82.4,378.1,68z"/>
		<g>
			<path opacity="0.1" fill="#601515" d="M416.2,119.3c0,8.8-3.9,15.9-12.7,15.9c-8.8,0-14.3-7.1-14.3-15.9
				c0-8.8,5.5-15.9,14.3-15.9C412.3,103.4,416.2,110.5,416.2,119.3z"/>
			<circle fill="#FFFFFF" cx="402.8" cy="120" r="13.8"/>
			<circle fill="#601515" cx="402.8" cy="120" r="6.6"/>
			<circle cx="402.8" cy="120" r="2.6"/>
			<circle fill="#F9F9F9" cx="401.1" cy="117" r="1.9"/>
		</g>
		<g>
			<path opacity="0.1" fill="#601515" d="M344.1,119.3c0,8.8,3.9,15.9,12.7,15.9c8.8,0,14.3-7.1,14.3-15.9c0-8.8-5.5-15.9-14.3-15.9
				C348,103.4,344.1,110.5,344.1,119.3z"/>
			<circle fill="#FFFFFF" cx="357.5" cy="120" r="13.8"/>
			<circle fill="#601515" cx="357.5" cy="120" r="6.6"/>
			<circle cx="357.5" cy="120" r="2.6"/>
			<circle fill="#F9F9F9" cx="356" cy="117" r="1.9"/>
		</g>
		<path fill="#EA6D50" d="M396.8,151.4c0,0-7.4,5.7-16.4,5.7s-16.4-5.7-16.4-5.7s8,1.6,17.1,1.6S396.8,151.4,396.8,151.4z"/>
		<path fill="#F0BA7A" d="M380,144.1L380,144.1c-3.5,0-6.3-2.8-6.3-6.3l0-22.9c0-3.5,2.8-6.3,6.3-6.3l0,0c3.5,0,6.3,2.8,6.3,6.3
			v22.9C386.3,141.2,383.4,144.1,380,144.1z"/>
		<path fill="#F7CFA2" d="M378.7,140.3L378.7,140.3c-3.5,0-6.3-2.8-6.3-6.3v-22.9c0-3.5,2.8-6.3,6.3-6.3h0c3.5,0,6.3,2.8,6.3,6.3
			V134C385,137.5,382.2,140.3,378.7,140.3z"/>
		<path fill="#601515" d="M350.1,84.1c0,0,11.3,5,16.7,8.6c7.5,4.9,23.3,5.5,23.3,5.5S378.7,82.8,371,80.6S350.1,84.1,350.1,84.1z"
			/>
		<path fill="#601515" d="M345.6,62.8c0,0,4.5-0.2,6.9,0.1c3.2,0.4,8.5-2,8.5-2s-6.3-3.2-9.1-2.7S345.6,62.8,345.6,62.8z"/>
		<path fill="#601515" d="M365.5,48.8c0,0-1.3,4.3-1.6,6.7c-0.4,3.2-4,7.8-4,7.8s-1.6-6.9-0.4-9.5C360.7,51.1,365.5,48.8,365.5,48.8
			z"/>
		<ellipse fill="#F0BA7A" cx="348.7" cy="135.4" rx="1.6" ry="0.8"/>
		<ellipse fill="#F0BA7A" cx="354.9" cy="135.4" rx="1.6" ry="0.8"/>
		<ellipse fill="#F0BA7A" cx="351.8" cy="138.5" rx="1.6" ry="0.8"/>
		<ellipse fill="#F0BA7A" cx="404.9" cy="135.4" rx="1.6" ry="0.8"/>
		<ellipse fill="#F0BA7A" cx="411.1" cy="135.4" rx="1.6" ry="0.8"/>
		<ellipse fill="#F0BA7A" cx="408" cy="138.5" rx="1.6" ry="0.8"/>
		<path opacity="0.3" fill="#601515" d="M336.7,93.5l0.6,36.6l3.5-3.2l2.7-22.1c0,0,5.5-14.3,12.6-17.1c7.1-2.9,21.2-3.6,21.2-3.6
			l-11.7-5.9L336.7,93.5z"/>
		<path opacity="0.3" fill="#601515" d="M425.2,91.7l-2,33.6l-2.9,1.5l-2.7-22.1c0,0-5.5-14.3-12.6-17.1c-7.1-2.9-21.2-3.6-21.2-3.6
			l11.7-5.9L425.2,91.7z"/>
		<path fill="#601515" d="M394.3,109.4h18.6c2.6,0,4.8-2.1,4.8-4.8v0c0-2.6-2.1-4.8-4.8-4.8h-18.6c-2.6,0-4.8,2.1-4.8,4.8v0
			C389.5,107.3,391.6,109.4,394.3,109.4z"/>
		<path fill="#601515" d="M347.2,110.5h18.6c2.6,0,4.8-2.1,4.8-4.8v0c0-2.6-2.1-4.8-4.8-4.8h-18.6c-2.6,0-4.8,2.1-4.8,4.8v0
			C342.5,108.3,344.6,110.5,347.2,110.5z"/>
		<g opacity="0.6">
			<g>
				<path fill="#F7CFA2" d="M382.1,55.1c3,1.5,6.5,0.6,9.8,0.9c3.1,0.3,6,1.7,9.1,1.8c0.8,0,0.9-1.1,0.2-1.4c-3-1-6-2.3-9.2-2.6
					c-3.1-0.3-7.1-0.6-10,0.8C382,54.7,382,55,382.1,55.1L382.1,55.1z"/>
			</g>
		</g>
	</g>
	<polyline fill="#BAE8F2" points="320.5,368.6 674.5,278.6 588,418.4 320.5,418.4 	"/>
	<g>
		<path fill="#FFFFFF" d="M349,171c0.7,1.7,1.7,3.2,2.7,4.6c1.2,0.9,2.3,1.8,3.4,3c1.1,1.1,2.1,2.3,3,3.6c4.8,6,6.7,13.5,2.3,19.8
			c-2.5,3.8-6.3,5-10.1,5c-7.6,0-15.1-4.4-20.6-9.2c-1.7-1.5-3.3-2.9-4.6-4.2c-8.7-8.3-40.9-43.4-17.2-52.6
			c4.7-1.8,10.6,1.1,14.7,2.5c4.8,1.6,5.9,9.3,7.2,10c1,0.6,2.2,1.2,3.5,1.9c5.7,3,10.1,6.8,13.8,12.2
			C347.8,168.7,348.5,169.9,349,171z"/>
		<path fill="#F1F3F7" d="M347.8,184.8c-1.9-11.2-8.8-19.4-16.3-27c-0.6,1.9-2.5,2.5-4.2,3.4c-1.8,0.8-3.6,1.6-5.2,2.9
			c1.6-1.3,2.7-2.8,3.3-4.6c0.6-1.7,0.8-3.7,0.4-5.6c-0.1-1.3-0.3-2.6-0.6-3.8c-1-1-2.1-2-3.2-3c-3.9-2.6-5.8-5.9-10.1-5.3
			c-2.2,0.3-4.3,0.9-6.2,1.8c-15.1,9.7-1.8,24.8,7.9,37.1c1.2,1.5,5.8,7.5,7.3,9c1.3,1,2.6,1.9,4,2.7c8.7,5,26.9,15.1,31.3,1.3
			c0.6-1.9-3.1-3.8-5.2-5.6C349.4,186.8,348.1,185.4,347.8,184.8z"/>
		<path fill="#F0BA7A" d="M319.1,162l-2.4,2.5c-3.5,3.6-9.4,3.7-13.1,0.2l-15.5-15c-3.6-3.5-3.7-9.4-0.2-13.1l2.4-2.5
			c3.5-3.6,9.4-3.7,13.1-0.2l15.5,15C322.6,152.5,322.7,158.4,319.1,162z"/>
		<path fill="#F7CFA2" d="M307.3,139.7c-3.7,3.5-7.1,7.4-10.1,11.6l4.8,4.6c2.6,2.5,6.7,2.4,9.2-0.1l1.7-1.7
			c2.5-2.6,2.4-6.7-0.1-9.2L307.3,139.7z"/>
		<g>
			<path fill="#F7CFA2" d="M302.6,132.7L302.6,132.7c3.4-1.8,4.8-6.1,3-9.5l-15.6-29c-1.8-3.4-6.1-4.8-9.5-3v0
				c-3.4,1.8-4.8,6.1-3,9.5l15.6,29C294.9,133.1,299.2,134.5,302.6,132.7z"/>
			<path fill="#F7CFA2" d="M305.3,137.5L305.3,137.5c3.8,0.6,7.5-2,8.1-5.8l7.1-37c0.6-3.8-2-7.5-5.8-8.1l0,0
				c-3.8-0.6-7.5,2-8.1,5.8l-7.1,37C298.9,133.2,301.5,136.9,305.3,137.5z"/>
			<path fill="#F0BA7A" d="M278.7,156.8L278.7,156.8c3.9-0.4,6.7-3.9,6.3-7.8l-2.7-25.4c-0.4-3.9-3.9-6.7-7.8-6.3l0,0
				c-3.9,0.4-6.7,3.9-6.3,7.8l2.7,25.4C271.3,154.4,274.8,157.2,278.7,156.8z"/>
			<g>
				<path fill="#F7CFA2" d="M318.6,143.3c-1.6,8.4-4.6,23.4-16.3,20.4c1-0.1-9.1,0-12.8-1.6c-3.7-1.6-2.7-1.3-4.7-14.1
					c-0.3-1.7,1-6.9,0.8-8.5c-2-11.9,9.5-20.6,21.4-15.6c7.7,3.5,9.2,12.2,11.7,18.6C318.7,142.7,318.7,143,318.6,143.3z"/>
			</g>
			<path fill="#F7EA72" d="M290.5,156.1L290.5,156.1c3.9-0.4,6.7-3.9,6.3-7.8L294,123c-0.4-3.9-3.9-6.7-7.8-6.3v0
				c-3.9,0.4-6.7,3.9-6.3,7.8l2.7,25.4C283.1,153.7,286.6,156.5,290.5,156.1z"/>
		</g>
		<path fill="#F0BA7A" d="M321,151.5L321,151.5c-0.2,2.7-2.5,4.8-5.3,4.6l-17.9-1.2c-2.7-0.2-4.8-2.5-4.6-5.3v0
			c0.2-2.7,2.5-4.8,5.3-4.6l17.9,1.2C319.1,146.4,321.2,148.7,321,151.5z"/>
	</g>
	<g>
		<path fill="#FFFFFF" d="M555.3,208.1c0.5,1.8,1.2,3.4,2,5c1,1,2,2.2,2.9,3.4c0.9,1.3,1.7,2.6,2.4,4c3.9,6.6,4.6,14.4-0.7,19.9
			c-3.1,3.4-7,4-10.7,3.4c-7.5-1.1-14.3-6.7-19-12.2c-1.5-1.7-2.8-3.3-3.9-4.8c-7.3-9.5-33.8-49.1-9-54.6c4.9-1.1,10.3,2.7,14.2,4.7
			c4.5,2.3,4.4,10.1,5.6,11c0.9,0.7,2,1.5,3.2,2.4c5.1,3.9,8.9,8.3,11.8,14.1C554.5,205.8,554.9,207,555.3,208.1z"/>
		<path fill="#F1F3F7" d="M552,221.7c-0.1-11.4-5.7-20.5-12.1-29.2c-0.9,1.8-2.9,2.1-4.7,2.7c-1.9,0.6-3.8,1-5.6,2
			c1.7-1,3.1-2.4,3.9-4c0.9-1.6,1.3-3.5,1.2-5.5c0.1-1.3,0.1-2.6-0.1-3.9c-0.9-1.2-1.8-2.3-2.7-3.4c-3.4-3.2-4.8-6.7-9.2-6.8
			c-2.2,0-4.4,0.2-6.4,0.8c-16.4,7.2-5.5,24.2,2.2,37.9c1,1.7,1.9,3.4,2.7,5c0.9,1.7,1.9,3.4,3.2,5c1.1,1.2,2.3,2.2,3.5,3.3
			c7.8,6.3,24.3,19,30.8,6c0.9-1.8-2.5-4.2-4.3-6.3C553.3,223.9,552.2,222.3,552,221.7z"/>
		<path fill="#F0BA7A" d="M527.1,194.8l-2.7,2.1c-4.1,3.1-9.9,2.3-12.9-1.8l-13-17.2c-3.1-4-2.3-9.9,1.8-12.9l2.7-2.1
			c4.1-3.1,9.9-2.3,12.9,1.8l13,17.2C532,185.9,531.2,191.7,527.1,194.8z"/>
		<path fill="#F7CFA2" d="M518.8,171c-4.2,2.9-8.1,6.3-11.8,9.9l4,5.3c2.1,2.8,6.2,3.4,9.1,1.3l1.9-1.5c2.8-2.1,3.4-6.2,1.3-9.1
			L518.8,171z"/>
		<g>
			<path fill="#F7CFA2" d="M515.2,163.3L515.2,163.3c3.7-1.3,5.6-5.3,4.4-9l-11.1-31c-1.3-3.7-5.3-5.6-9-4.4v0
				c-3.7,1.3-5.6,5.3-4.4,9l11.1,31C507.5,162.6,511.6,164.5,515.2,163.3z"/>
			<path fill="#F7CFA2" d="M517.2,168.5L517.2,168.5c3.7,1.2,7.7-0.8,8.9-4.5l12.6-35.5c1.2-3.7-0.8-7.7-4.5-8.9l0,0
				c-3.7-1.2-7.7,0.8-8.9,4.5l-12.6,35.5C511.5,163.2,513.5,167.3,517.2,168.5z"/>
			<path fill="#F0BA7A" d="M487.9,183.5L487.9,183.5c3.9,0.2,7.2-2.8,7.4-6.7l1.2-25.5c0.2-3.9-2.8-7.2-6.7-7.4l0,0
				c-3.9-0.2-7.2,2.8-7.4,6.7l-1.2,25.5C481,179.9,484,183.3,487.9,183.5z"/>
			<g>
				<path fill="#F7CFA2" d="M529.5,176.2c-2.9,8.1-8.1,22.4-19.2,17.7c1,0-9-1.4-12.4-3.6c-3.4-2.2-2.5-1.7-2.5-14.6
					c0-1.7,2.1-6.7,2.1-8.3c-0.2-12.1,12.5-18.9,23.5-12.2c7.1,4.6,7.2,13.5,8.8,20.2C529.7,175.6,529.6,175.9,529.5,176.2z"/>
			</g>
			<path fill="#F7EA72" d="M499.7,184.6L499.7,184.6c3.9,0.2,7.2-2.8,7.4-6.7l1.2-25.5c0.2-3.9-2.8-7.2-6.7-7.4l0,0
				c-3.9-0.2-7.2,2.8-7.4,6.7l-1.2,25.5C492.8,181.1,495.8,184.4,499.7,184.6z"/>
		</g>
		<path fill="#F0BA7A" d="M530.6,184.6L530.6,184.6c-0.6,2.7-3.2,4.4-5.9,3.8l-17.5-3.9c-2.7-0.6-4.4-3.2-3.8-5.9v0
			c0.6-2.7,3.2-4.4,5.9-3.8l17.5,3.9C529.5,179.3,531.2,182,530.6,184.6z"/>
	</g>
	<g>
		<path fill="#674C91" d="M353.3,309c-0.3-1.6-1-3.1-2.2-4.7c-10.1-13.9-31.5-10.7-48.5-11.3c-7.6-0.6-16.4-5-17.3-13.8
			c-0.5-1.9-0.9-3.9-1.1-6c-3.2-27.5,12.6-72.1-28.3-72.1c-29.6,0-55.6,14-77.7,32.9c-4.4,3.8-8.7,7.8-12.8,11.9
			c-3.7,3.3-7.2,6.7-10.4,10.2c-3.3,3.6-6.3,7.2-9.2,11c-3.4,4.2-6.2,8.6-8.5,13.2c-2.3,4.7-4.1,9.5-5.6,14.6c-1.2,4-2.2,8-3.1,12
			c-1.8,9.7-2.6,19.4-2.7,29c-0.1,9.6,0.6,19.2,1.5,28.8c1.9,28.8,12.7,56.7,3.7,85.5c-3.4,11.2,3.8,19.7,13.4,23.8
			c1.9,0.8,3.9,1.5,6,2.5c6.7,6.1,7.6,17.8,14.8,19.6c9.9,4.5,9.9-14.4,12.6-22.5c0.9-3.6,0-7.2,0.4-10.9c0-1.7,0.1-3.5,0.1-5.2
			c0-1.7,0.1-3.4,0.1-5c0-1.7,0-3.3,0-5c0-1.7,0-3.3,0.1-4.9c0-2.2,0-4.4-0.1-6.6c-0.9-28.6-6.6-58.9,22-73.2
			c4.5-2.7,11.7,3.6,18,3.6c5.4,0,9-3.6,11.3-7.2c5.3-3.7,11-6.8,17.9-5.9c2.1,0,4.2,0,6.3,0c13.3,0.6,11.4,18.2,15.8,27.1
			c2.5,3.8,7.6,3.8,10.1,0.6c9.6-14.2,21.3-22.2,34.5-30.1c1.5-0.9,3-1.7,4.5-2.6c1.6,0.1,3.3,0.2,5,0.3c1.8,0.1,3.5,0.1,5.3,0
			c1.7,0.1,3.5,0.1,5.4,0.1c2-0.1,4-0.2,6.1-0.5c1.5-0.3,3.1-0.6,4.8-1c2-0.3,4-0.7,6.1-1.1c1.8-0.2,3.6-0.4,5.4-0.7
			c9.8-1.5,27.8-5.1,24.2-17.7c-1.8-6.3-10.8-8.1-17.8-9.9c-1.6-0.6-3.2-1.2-4.6-1.9c-1.4-0.7-2.6-1.5-3.6-2.3
			C354.4,312.1,353.8,310.6,353.3,309z"/>
		<g>
			<circle opacity="0.1" fill="#3C2813" cx="205.9" cy="232.2" r="24.6"/>
			<circle fill="#EEEBE7" cx="204.1" cy="230.3" r="24.6"/>
			<ellipse fill="#FFFFFF" cx="202.7" cy="227" rx="20.4" ry="21.3"/>
			<g>
				<circle fill="#3C2813" cx="193.4" cy="229.8" r="8.6"/>
				<ellipse fill="#EEEBE7" cx="190.5" cy="226.7" rx="2.5" ry="2.5"/>
				<ellipse fill="#EEEBE7" cx="192" cy="230.8" rx="1.3" ry="1.2"/>
				<ellipse fill="#EEEBE7" cx="194.4" cy="228.3" rx="1.3" ry="1.2"/>
			</g>
		</g>
		<g>
			<circle opacity="0.1" fill="#3C2813" cx="262" cy="232.9" r="24.6"/>
			<circle fill="#EEEBE7" cx="260.1" cy="231" r="24.6"/>
			<ellipse fill="#FFFFFF" cx="258.7" cy="227.7" rx="20.4" ry="21.3"/>
			<g>
				<circle fill="#3C2813" cx="245.2" cy="230.7" r="8.6"/>
				<ellipse fill="#EEEBE7" cx="242.3" cy="227.6" rx="2.5" ry="2.5"/>
				<ellipse fill="#EEEBE7" cx="243.9" cy="231.7" rx="1.3" ry="1.2"/>
				<ellipse fill="#EEEBE7" cx="246.3" cy="229.1" rx="1.3" ry="1.2"/>
			</g>
		</g>
		<path fill="#3C2813" d="M280.4,285.3c0,19-13.7,34.3-30.6,34.3h-25.4c-16.9,0-30.6-15.4-30.6-34.3l0-18c0,0,38.5,0,64.1,0
			c12.8,0,22.5,0,22.5,0L280.4,285.3z"/>
		<path fill="#674C91" d="M213.7,292.8c0-7.7,7.7-13.9,17.1-13.9l7.1,4.8l7.1-4.8c9.4,0,17.1,6.2,17.1,13.9v7.3l-48.4,0V292.8z"/>
		<g>
			<defs>
				<path id="SVGID_1_" d="M280.4,285.3c0,19-13.7,34.3-30.6,34.3h-25.4c-16.9,0-30.6-15.4-30.6-34.3l0-18c0,0,38.5,0,64.1,0
					c12.8,0,22.5,0,22.5,0L280.4,285.3z"/>
			</defs>
			<clipPath id="SVGID_2_">
				<use xlink:href="#SVGID_1_"  overflow="visible"/>
			</clipPath>
			<path clip-path="url(#SVGID_2_)" fill="#F7EFDF" d="M213.6,265c0,6.1-3,8.8-6.6,8.8h-5.5c-3.6,0-6.6-2.7-6.6-8.8v-5.8h18.6V265z"
				/>
			<path clip-path="url(#SVGID_2_)" fill="#F7EFDF" d="M234.1,265c0,6.1-3,8.8-6.6,8.8H222c-3.6,0-6.6-2.7-6.6-8.8v-5.8l18.6,0V265z
				"/>
			<path clip-path="url(#SVGID_2_)" fill="#F7EFDF" d="M254.5,265c0,6.1-3,8.8-6.6,8.8h-5.5c-3.6,0-6.6-2.7-6.6-8.8v-5.8h18.6V265z"
				/>
			<path clip-path="url(#SVGID_2_)" fill="#F7EFDF" d="M244.8,315.4c0-6.1,3-8.8,6.6-8.8h5.5c3.6,0,6.6,2.7,6.6,8.8v5.8l-18.6,0
				V315.4z"/>
			<path clip-path="url(#SVGID_2_)" fill="#F7EFDF" d="M224.3,315.4c0-6.1,3-8.8,6.6-8.8h5.5c3.6,0,6.6,2.7,6.6,8.8v5.8h-18.6V315.4
				z"/>
			<path clip-path="url(#SVGID_2_)" fill="#F7EFDF" d="M203.8,315.4c0-6.1,3-8.8,6.6-8.8h5.5c3.6,0,6.6,2.7,6.6,8.8v5.8l-18.6,0
				V315.4z"/>
			<path clip-path="url(#SVGID_2_)" fill="#F7EFDF" d="M275,265c0,6.1-3,8.8-6.6,8.8H263c-3.6,0-6.6-2.7-6.6-8.8v-5.8l18.6,0V265z"
				/>
		</g>
	</g>
	<path fill="#F1F3F7" d="M364.6,179.3c-0.9,0-1.8,0.1-2.7,0.5c-1.3,1-1.5,1.5-2.9,2.6c1.3,3.9,3.4,6.9,3.5,12.2
		c-0.1-4.2-8-2.7-10.7-5.5c-4.6,4-6.7,6.5-7,10.6c3.2,0.9,15.3,4.9,18.2,2.6c-1.1,3.9-11.5,6.1-12.4,6.8c2.8,0.2,6.2-0.2,9-0.2
		c2.7,0,4.5-0.9,6.3-2.7C373.1,199.9,376.7,184.6,364.6,179.3z"/>
	<path fill="#F7CFA2" d="M422.6,243.9c-2.8,2-4.6,9.4-5,12.7c1.2-0.6,2.4-0.4,3.4,0.6c-1.7,5.9-4.5,13.6-2.8,19.7
		c1.7,6.2,7.8,9.9,12.6,4.8c1.6-1.7,2.6-3.9,3.7-5.8c8.9,7.6,11.4-7.9,12.2-13.8c1.2-9.4-3.5-20.9-11.1-26.5"/>
	<g>
		<g>
			<polygon fill="#6BA8B2" points="626,468.3 172.5,489.7 174.5,329.4 626,349.1 			"/>
			<path fill="#674C91" d="M185.2,456.6c21.5,9.4,7.9,44.6,8.9,61.4c0.4,7,2,15.9,10.7,15.3c10.2-0.7,10-14.9,10.8-22.9
				c0.8-7.5,6.6-30.2,12.6-11.4c3.8,11.6-0.1,23.8,10,34c19.2,19.5,18.4-14.9,18.9-27.7c0.3-7.7,1-16.9,6.6-22.9
				c10.1-10.9,9.8,0.1,18.3,3.4c13.1,5.1,26.1-19.5,29.9-29.3c4.9-12.7,3.1-30.3-0.8-43.1"/>
			<path fill="#FFFF00" d="M231.6,428.2c0,3.3-0.5,6.3-1.4,9.1c-0.9,2.7-2.6,5-4.9,6.9c-2.4,1.9-5.6,3.4-9.7,4.5
				c-4.1,1.1-9.4,1.6-15.7,1.6c-6.3,0-11.5-0.5-15.6-1.6c-4.1-1.1-7.3-2.6-9.7-4.5c-2.4-1.9-4-4.2-4.9-6.9c-0.9-2.7-1.4-5.7-1.4-9.1
				v-17.6c0-1.4,0.3-2.4,0.9-3c0.6-0.6,1.6-0.9,3-0.9h15.7c1.4,0,2.4,0.3,3,0.9c0.6,0.6,0.9,1.6,0.9,3v13.2c0,1.4,0.5,2.7,1.4,3.6
				c0.9,1,3,1.5,6.3,1.5c3.1,0,5.1-0.5,5.9-1.5c0.8-1,1.2-2.2,1.2-3.6l0-49.4c0-1.4,0.3-2.4,0.9-3c0.6-0.6,1.6-0.9,3-0.9h17
				c1.4,0,2.4,0.3,3,0.9c0.6,0.6,0.9,1.6,0.9,3V428.2z"/>
			<path fill="#594EEA" d="M312.5,428.2c0,3.3-0.5,6.3-1.5,9.1c-1,2.7-2.7,5-5.2,6.9c-2.5,1.9-5.9,3.4-10.3,4.5
				c-4.3,1.1-9.9,1.6-16.6,1.6c-6.7,0-12.3-0.5-16.6-1.6c-4.3-1.1-7.8-2.6-10.3-4.5c-2.5-1.9-4.2-4.2-5.2-6.9
				c-1-2.7-1.5-5.7-1.5-9.1v-53.7c0-1.4,0.3-2.4,0.9-3c0.6-0.6,1.6-0.9,3-0.9h17c1.4,0,2.4,0.3,3,0.9c0.6,0.6,0.9,1.6,0.9,3V424
				c0,1.4,0.5,2.7,1.6,3.6c1.1,1,3.5,1.5,7.3,1.5c3.8,0,6.3-0.5,7.4-1.5c1.1-1,1.6-2.2,1.6-3.6l0-49.5c0-1.4,0.3-2.4,0.9-3
				c0.6-0.6,1.6-0.9,3-0.9h16.5c1.4,0,2.4,0.3,3,0.9c0.6,0.6,0.9,1.6,0.9,3V428.2z"/>
			<path fill="#3FBA51" d="M381.2,448.7h-50.4c-1.4,0-2.4-0.3-3-0.9c-0.6-0.6-0.9-1.6-0.9-3v-70.3c0-1.4,0.3-2.4,0.9-3
				c0.6-0.6,1.6-0.9,3-0.9h50.4c1.4,0,2.4,0.3,3,0.9c0.6,0.6,0.9,1.6,0.9,3v12.7c0,1.4-0.3,2.4-0.9,3c-0.6,0.6-1.6,0.9-3,0.9h-30
				v8.4h21.2c1.4,0,2.4,0.3,3,0.9c0.6,0.6,0.9,1.6,0.9,3V415c0,1.4-0.3,2.4-0.9,3c-0.6,0.6-1.6,0.9-3,0.9h-21.2v9.3h30
				c1.4,0,2.4,0.3,3,0.9c0.6,0.6,0.9,1.6,0.9,3v12.7c0,1.4-0.3,2.4-0.9,3C383.6,448.4,382.6,448.7,381.2,448.7z"/>
			<path fill="#FF0B0B" d="M449.4,448.7l-26.5,0c-9,0-15.8-1.8-20.1-5.4c-4.4-3.6-6.6-9.2-6.6-16.7v-33.7c0-7.5,2.2-13.1,6.6-16.8
				s11.1-5.5,20.1-5.5h26.5c1.4,0,2.4,0.3,3,0.9c0.6,0.6,0.9,1.6,0.9,3v13.1c0,1.4-0.3,2.4-0.9,3c-0.6,0.6-1.6,0.9-3,0.9h-21.8
				c-2.2,0-3.9,0.5-5,1.4c-1.1,0.9-1.6,2.3-1.6,4.1v25.8c0,1.8,0.5,3.1,1.6,4c1.1,0.8,2.7,1.2,5,1.2h21.8c1.4,0,2.4,0.3,3,0.9
				c0.6,0.6,0.9,1.6,0.9,3v12.9c0,1.4-0.3,2.4-0.9,3C451.7,448.4,450.7,448.7,449.4,448.7z"/>
			<path fill="#3FBA51" d="M531.2,428.2c0,3.3-0.5,6.3-1.5,9.1c-1,2.7-2.7,5-5.2,6.9c-2.5,1.9-5.9,3.4-10.3,4.5
				c-4.4,1.1-9.9,1.6-16.7,1.6c-6.7,0-12.3-0.5-16.7-1.6c-4.4-1.1-7.9-2.6-10.4-4.5c-2.5-1.9-4.2-4.2-5.2-6.9
				c-1-2.7-1.5-5.7-1.5-9.1l0-37c0-3.3,0.5-6.3,1.5-9.1c1-2.7,2.7-5,5.2-7c2.5-2,6-3.5,10.4-4.6c4.4-1.1,10-1.6,16.7-1.6
				s12.3,0.5,16.7,1.6c4.4,1.1,7.8,2.6,10.3,4.6c2.5,2,4.2,4.3,5.2,7c1,2.7,1.5,5.7,1.5,9.1V428.2z M486.6,427.2
				c0,1.7,0.7,3.2,2,4.4c1.3,1.2,4.3,1.8,9,1.8c4.7,0,7.7-0.6,9-1.8c1.3-1.2,2-2.6,2-4.4v-35c0-1.6-0.7-3.1-2-4.2
				c-1.3-1.2-4.3-1.8-9-1.8s-7.7,0.6-9,1.8c-1.3,1.2-2,2.6-2,4.2V427.2z"/>
			<path fill="#3FBA51" d="M611.2,428.2c0,3.3-0.5,6.3-1.5,9.1c-1,2.7-2.7,5-5.2,6.9c-2.5,1.9-5.9,3.4-10.3,4.5
				c-4.4,1.1-9.9,1.6-16.7,1.6s-12.3-0.5-16.7-1.6c-4.4-1.1-7.9-2.6-10.4-4.5c-2.5-1.9-4.2-4.2-5.2-6.9c-1-2.7-1.5-5.7-1.5-9.1v-37
				c0-3.3,0.5-6.3,1.5-9.1c1-2.7,2.7-5,5.2-7c2.5-2,6-3.5,10.4-4.6c4.4-1.1,10-1.6,16.7-1.6s12.3,0.5,16.7,1.6
				c4.4,1.1,7.8,2.6,10.3,4.6c2.5,2,4.2,4.3,5.2,7c1,2.7,1.5,5.7,1.5,9.1V428.2z M568.4,424.3c0,1.4,0.5,2.7,1.6,3.6
				c1.1,1,3.6,1.5,7.5,1.5s6.4-0.5,7.5-1.5c1.1-1,1.6-2.2,1.6-3.6v-29.2c0-1.4-0.5-2.5-1.6-3.5c-1.1-1-3.6-1.5-7.5-1.5
				s-6.4,0.5-7.5,1.5c-1.1,1-1.6,2.2-1.6,3.5V424.3z"/>
			<line fill="none" stroke="#3FBA51" stroke-width="8" stroke-miterlimit="10" x1="518" y1="409.8" x2="560.2" y2="409.8"/>
			<g>
				<polyline fill="none" stroke="#3FBA51" stroke-width="8" stroke-linecap="round" stroke-miterlimit="10" points="477.7,389.1 
					455.7,386.6 449.3,392.9 				"/>
			</g>
		</g>
		<g id="XMLID_6_">
			<g>
				<g>
					<polygon fill="#6BA8B2" points="609.8,463.5 201.7,482.8 203.5,338.5 613.5,337 					"/>
				</g>
				<circle fill="#F7CFA2" cx="682.7" cy="408.8" r="17"/>
				<circle fill="#F0BA7A" cx="682.7" cy="408.8" r="11.2"/>
				<polygon fill="#BBE8F2" points="635.1,491 159.8,467.1 160.6,348.3 630.3,327.8 				"/>
				<path opacity="0.3" fill="#F2F8F9" d="M506.1,333.2c34.9,43.5,56.2,97.1,83.8,146.8c1.6,3,3.2,5.9,4.8,8.9l40.4,2l-4.8-163.2"/>
				<path opacity="0.3" fill="#F2F8F9" d="M195.1,346.8c25.4,38.6,42.5,81.6,59.3,125l58.4,2.9c-24.6-43.3-50-86.3-73.7-129.9
					L195.1,346.8z"/>
				<path opacity="0.3" fill="#F2F8F9" d="M436.9,336.2l-74.9,3.3c29.5,44.2,51.3,93.2,74.1,141.5l70.4,3.5
					C485,434.2,462.8,384.5,436.9,336.2z"/>
				<path fill="#F0BA7A" d="M604.6,456.2L604.6,456.2c-6.3,0-11.5-5.2-11.5-11.5v-41.6c0-6.3,5.2-11.5,11.5-11.5h0
					c6.3,0,11.5,5.2,11.5,11.5v41.6C616.1,451,611,456.2,604.6,456.2z"/>
				<ellipse fill="#F7CFA2" cx="604" cy="391.6" rx="64.9" ry="43.5"/>
				<polygon fill="#BBE8F2" points="537.3,533.1 173.3,537.7 175.2,503.1 				"/>
				<polygon fill="#6BA8B2" points="635.5,515.3 172.6,537.2 174.7,501.2 639.6,481.2 				"/>
				<ellipse opacity="0.2" fill="#601515" cx="604" cy="434.2" rx="64.9" ry="43.5"/>
				<ellipse fill="#F7CFA2" cx="604" cy="431.8" rx="64.9" ry="43.5"/>
				<path fill="#F7CFA2" d="M602.3,449.4L602.3,449.4c-6.3,0-11.5-5.2-11.5-11.5v-41.6c0-6.3,5.2-11.5,11.5-11.5l0,0
					c6.3,0,11.5,5.2,11.5,11.5v41.6C613.9,444.2,608.7,449.4,602.3,449.4z"/>
				<path opacity="0.2" fill="#601515" d="M232.6,361.1c0-2-0.4-3.4-1.3-4.3c-0.9-0.9-2.3-1.3-4.3-1.3h-24.5c-2,0-3.4,0.4-4.3,1.3
					c-0.9,0.9-1.3,2.3-1.3,4.3v30.1c11.8-2,23.7-3.8,35.8-4.5V361.1z"/>
				<path opacity="0.2" fill="#601515" d="M208.7,396.6v36.5c0,1.4-0.4,2.7-1.2,3.6c-0.8,1-2.8,1.5-5.9,1.5c-3.3,0-5.4-0.5-6.3-1.5
					c-0.9-1-1.4-2.2-1.4-3.6v-13.2c0-1.4-0.3-2.4-0.9-3c-0.6-0.6-1.6-0.9-3-0.9h-15.7c-1.4,0-2.4,0.3-3,0.9c-0.6,0.6-0.9,1.6-0.9,3
					v17.6c0,3.3,0.5,6.3,1.4,9.1c0.9,2.7,2.5,5,4.9,6.9c2.4,1.9,5.6,3.4,9.7,4.5c4.1,1.1,9.3,1.6,15.6,1.6c6.4,0,11.6-0.5,15.7-1.6
					c4.1-1.1,7.4-2.6,9.7-4.5c2.4-1.9,4-4.2,4.9-6.9c0.9-2.7,1.4-5.7,1.4-9.1v-44C225.2,394,216.9,395.2,208.7,396.6z"/>
				<path opacity="0.2" fill="#601515" d="M314.5,429.4c0,3.3-0.5,6.3-1.5,9.1c-1,2.7-2.7,5-5.2,6.9c-2.5,1.9-5.9,3.4-10.3,4.5
					c-4.3,1.1-9.9,1.6-16.6,1.6c-6.7,0-12.3-0.5-16.6-1.6c-4.3-1.1-7.8-2.6-10.3-4.5c-2.5-1.9-4.2-4.2-5.2-6.9
					c-1-2.7-1.5-5.7-1.5-9.1v-53.7c0-1.4,0.3-2.4,0.9-3c0.6-0.6,1.6-0.9,3-0.9h17c1.4,0,2.4,0.3,3,0.9c0.6,0.6,0.9,1.6,0.9,3v49.5
					c0,1.4,0.5,2.7,1.6,3.6c1.1,1,3.5,1.5,7.3,1.5c3.8,0,6.3-0.5,7.4-1.5c1.1-1,1.6-2.2,1.6-3.6v-49.5c0-1.4,0.3-2.4,0.9-3
					c0.6-0.6,1.6-0.9,3-0.9h16.5c1.4,0,2.4,0.3,3,0.9c0.6,0.6,0.9,1.6,0.9,3V429.4z"/>
				<path opacity="0.2" fill="#601515" d="M380.8,449.9h-50.4c-1.4,0-2.4-0.3-3-0.9c-0.6-0.6-0.9-1.6-0.9-3v-70.3
					c0-1.4,0.3-2.4,0.9-3c0.6-0.6,1.6-0.9,3-0.9h50.4c1.4,0,2.4,0.3,3,0.9c0.6,0.6,0.9,1.6,0.9,3v12.7c0,1.4-0.3,2.4-0.9,3
					c-0.6,0.6-1.6,0.9-3,0.9h-30v8.4H372c1.4,0,2.4,0.3,3,0.9c0.6,0.6,0.9,1.6,0.9,3v11.6c0,1.4-0.3,2.4-0.9,3
					c-0.6,0.6-1.6,0.9-3,0.9h-21.2v9.3h30c1.4,0,2.4,0.3,3,0.9c0.6,0.6,0.9,1.6,0.9,3V446c0,1.4-0.3,2.4-0.9,3
					C383.2,449.6,382.2,449.9,380.8,449.9z"/>
				<path opacity="0.2" fill="#601515" d="M441.7,401.6c-0.6-0.6-1.6-0.9-3-0.9h-12.6c0,0,0,0,0,0h-16.6c-1.4,0-2.4,0.3-3,0.9
					c-0.6,0.6-0.9,1.6-0.9,3v11.6c0,1.4,0.3,2.4,0.9,3c0.6,0.6,1.6,0.9,3,0.9h12.6c0,0,0,0,0,0h16.6c1.4,0,2.4-0.3,3-0.9
					c0.6-0.6,0.9-1.6,0.9-3v-11.6C442.6,403.2,442.3,402.2,441.7,401.6z"/>
				<path opacity="0.2" fill="#601515" d="M513.3,449.9h-26.5c-9,0-15.8-1.8-20.1-5.4s-6.6-9.2-6.6-16.7V394
					c0-7.5,2.2-13.1,6.6-16.8c4.4-3.7,11.1-5.5,20.1-5.5h26.5c1.4,0,2.4,0.3,3,0.9c0.6,0.6,0.9,1.6,0.9,3v13.1c0,1.4-0.3,2.4-0.9,3
					c-0.6,0.6-1.6,0.9-3,0.9h-21.8c-2.2,0-3.9,0.5-5,1.4c-1.1,0.9-1.6,2.3-1.6,4.1V424c0,1.8,0.5,3.1,1.6,4c1.1,0.8,2.7,1.2,5,1.2
					h21.8c1.4,0,2.4,0.3,3,0.9c0.6,0.6,0.9,1.6,0.9,3V446c0,1.4-0.3,2.4-0.9,3C515.6,449.6,514.6,449.9,513.3,449.9z"/>
				<path opacity="0.2" fill="#601515" d="M595.1,429.4c0,3.3-0.5,6.3-1.5,9.1c-1,2.7-2.7,5-5.2,6.9c-2.5,1.9-5.9,3.4-10.3,4.5
					c-4.4,1.1-9.9,1.6-16.7,1.6c-6.7,0-12.3-0.5-16.7-1.6c-4.4-1.1-7.9-2.6-10.4-4.5c-2.5-1.9-4.2-4.2-5.2-6.9
					c-1-2.7-1.5-5.7-1.5-9.1v-37c0-3.3,0.5-6.3,1.5-9.1c1-2.7,2.7-5,5.2-7c2.5-2,6-3.5,10.4-4.6c4.4-1.1,10-1.6,16.7-1.6
					c6.7,0,12.3,0.5,16.7,1.6c4.4,1.1,7.8,2.6,10.3,4.6c2.5,2,4.2,4.3,5.2,7c1,2.7,1.5,5.7,1.5,9.1V429.4z M550.5,428.4
					c0,1.7,0.7,3.2,2,4.4c1.3,1.2,4.3,1.8,9,1.8c4.7,0,7.7-0.6,9-1.8c1.3-1.2,2-2.6,2-4.4v-35c0-1.6-0.7-3.1-2-4.2
					c-1.3-1.2-4.3-1.8-9-1.8c-4.7,0-7.7,0.6-9,1.8c-1.3,1.2-2,2.6-2,4.2V428.4z"/>
				<path opacity="0.2" fill="#601515" d="M679.9,429.4c0,3.3-0.5,6.3-1.5,9.1c-1,2.7-2.7,5-5.2,6.9c-2.5,1.9-5.9,3.4-10.3,4.5
					c-4.4,1.1-9.9,1.6-16.7,1.6s-12.3-0.5-16.7-1.6c-4.4-1.1-7.9-2.6-10.4-4.5c-2.5-1.9-4.2-4.2-5.2-6.9c-1-2.7-1.5-5.7-1.5-9.1v-37
					c0-3.3,0.5-6.3,1.5-9.1c1-2.7,2.7-5,5.2-7c2.5-2,6-3.5,10.4-4.6c4.4-1.1,10-1.6,16.7-1.6s12.3,0.5,16.7,1.6
					c4.4,1.1,7.8,2.6,10.3,4.6c2.5,2,4.2,4.3,5.2,7c1,2.7,1.5,5.7,1.5,9.1V429.4z M637.1,425.5c0,1.4,0.5,2.7,1.6,3.6
					c1.1,1,3.6,1.5,7.5,1.5s6.4-0.5,7.5-1.5c1.1-1,1.6-2.2,1.6-3.6v-29.2c0-1.4-0.5-2.5-1.6-3.5c-1.1-1-3.6-1.5-7.5-1.5
					s-6.4,0.5-7.5,1.5c-1.1,1-1.6,2.2-1.6,3.5V425.5z"/>
				<line opacity="0.2" fill="#601515" x1="584.3" y1="411" x2="626.5" y2="411"/>
				<path fill="#FFFF00" d="M230.2,358.7c0-2-0.4-3.4-1.3-4.3c-0.9-0.9-2.3-1.3-4.3-1.3H200c-2,0-3.4,0.4-4.3,1.3
					c-0.9,0.9-1.3,2.3-1.3,4.3v25.6c0.1,2.2,1.5,3.6,3.2,4c10.7-1.8,21.6-3.3,32.6-3.9V358.7z"/>
				<path fill="#FFFF00" d="M206.3,394.2v36.5c0,1.4-0.4,2.7-1.2,3.6c-0.8,1-2.8,1.5-5.9,1.5c-3.3,0-5.4-0.5-6.3-1.5
					c-0.9-1-1.4-2.2-1.4-3.6v-13.2c0-1.4-0.3-2.4-0.9-3c-0.6-0.6-1.6-0.9-3-0.9h-15.7c-1.4,0-2.4,0.3-3,0.9c-0.6,0.6-0.9,1.6-0.9,3
					V435c0,3.3,0.5,6.3,1.4,9.1c0.9,2.7,2.5,5,4.9,6.9c2.4,1.9,5.6,3.4,9.7,4.5c4.1,1.1,9.3,1.6,15.6,1.6c6.4,0,11.6-0.5,15.7-1.6
					c4.1-1.1,7.4-2.6,9.7-4.5c2.4-1.9,4-4.2,4.9-6.9c0.9-2.7,1.4-5.7,1.4-9.1v-44C222.8,391.6,214.5,392.8,206.3,394.2z"/>
				<path fill="#594EEA" d="M313.7,427c0,3.3-0.5,6.3-1.5,9.1c-1,2.7-2.7,5-5.2,6.9c-2.5,1.9-5.9,3.4-10.3,4.5
					c-4.3,1.1-9.9,1.6-16.6,1.6c-6.7,0-12.3-0.5-16.6-1.6c-4.3-1.1-7.8-2.6-10.3-4.5c-2.5-1.9-4.2-4.2-5.2-6.9
					c-1-2.7-1.5-5.7-1.5-9.1v-53.7c0-1.4,0.3-2.4,0.9-3c0.6-0.6,1.6-0.9,3-0.9h17c1.4,0,2.4,0.3,3,0.9c0.6,0.6,0.9,1.6,0.9,3v49.5
					c0,1.4,0.5,2.7,1.6,3.6c1.1,1,3.5,1.5,7.3,1.5c3.8,0,6.3-0.5,7.4-1.5c1.1-1,1.6-2.2,1.6-3.6v-49.5c0-1.4,0.3-2.4,0.9-3
					c0.6-0.6,1.6-0.9,3-0.9h16.5c1.4,0,2.4,0.3,3,0.9c0.6,0.6,0.9,1.6,0.9,3V427z"/>
				<path fill="#3FBA51" d="M380.8,447.5h-50.4c-1.4,0-2.4-0.3-3-0.9c-0.6-0.6-0.9-1.6-0.9-3v-70.3c0-1.4,0.3-2.4,0.9-3
					c0.6-0.6,1.6-0.9,3-0.9h50.4c1.4,0,2.4,0.3,3,0.9c0.6,0.6,0.9,1.6,0.9,3V386c0,1.4-0.3,2.4-0.9,3c-0.6,0.6-1.6,0.9-3,0.9h-30
					v8.4H372c1.4,0,2.4,0.3,3,0.9c0.6,0.6,0.9,1.6,0.9,3v11.6c0,1.4-0.3,2.4-0.9,3c-0.6,0.6-1.6,0.9-3,0.9h-21.2v9.3h30
					c1.4,0,2.4,0.3,3,0.9c0.6,0.6,0.9,1.6,0.9,3v12.7c0,1.4-0.3,2.4-0.9,3C383.2,447.2,382.2,447.5,380.8,447.5z"/>
				<path fill="#FFFF00" d="M439.3,399.2c-0.6-0.6-1.6-0.9-3-0.9h-12.6c0,0,0,0,0,0h-16.6c-1.4,0-2.4,0.3-3,0.9
					c-0.6,0.6-0.9,1.6-0.9,3v11.6c0,1.4,0.3,2.4,0.9,3c0.6,0.6,1.6,0.9,3,0.9h12.6c0,0,0,0,0,0h16.6c1.4,0,2.4-0.3,3-0.9
					c0.6-0.6,0.9-1.6,0.9-3v-11.6C440.2,400.8,439.9,399.8,439.3,399.2z"/>
				<path fill="#FF0B0B" d="M510.9,447.5h-26.5c-9,0-15.8-1.8-20.1-5.4s-6.6-9.2-6.6-16.7v-33.7c0-7.5,2.2-13.1,6.6-16.8
					c4.4-3.7,11.1-5.5,20.1-5.5h26.5c1.4,0,2.4,0.3,3,0.9c0.6,0.6,0.9,1.6,0.9,3v13.1c0,1.4-0.3,2.4-0.9,3c-0.6,0.6-1.6,0.9-3,0.9
					H489c-2.2,0-3.9,0.5-5,1.4c-1.1,0.9-1.6,2.3-1.6,4.1v25.8c0,1.8,0.5,3.1,1.6,4c1.1,0.8,2.7,1.2,5,1.2h21.8c1.4,0,2.4,0.3,3,0.9
					c0.6,0.6,0.9,1.6,0.9,3v12.9c0,1.4-0.3,2.4-0.9,3C513.2,447.2,512.2,447.5,510.9,447.5z"/>
				<circle fill="#F7CFA2" cx="523" cy="409.3" r="17"/>
				<circle fill="#F0BA7A" cx="523" cy="409.3" r="11.2"/>
				<g>
					<circle fill="#FFFFFF" cx="558" cy="409.7" r="28.3"/>
					<circle fill="#601515" cx="555.8" cy="409.7" r="8.5"/>
					<circle cx="555.8" cy="409.7" r="3.3"/>
					<circle fill="#F9F9F9" cx="553.7" cy="405.9" r="2.4"/>
				</g>
				<path fill="#3FBA51" d="M595.1,427c0,3.3-0.5,6.3-1.5,9.1c-1,2.7-2.7,5-5.2,6.9c-2.5,1.9-5.9,3.4-10.3,4.5
					c-4.4,1.1-9.9,1.6-16.7,1.6c-6.7,0-12.3-0.5-16.7-1.6c-4.4-1.1-7.9-2.6-10.4-4.5c-2.5-1.9-4.2-4.2-5.2-6.9
					c-1-2.7-1.5-5.7-1.5-9.1v-37c0-3.3,0.5-6.3,1.5-9.1c1-2.7,2.7-5,5.2-7c2.5-2,6-3.5,10.4-4.6c4.4-1.1,10-1.6,16.7-1.6
					c6.7,0,12.3,0.5,16.7,1.6c4.4,1.1,7.8,2.6,10.3,4.6c2.5,2,4.2,4.3,5.2,7c1,2.7,1.5,5.7,1.5,9.1V427z M550.5,426
					c0,1.7,0.7,3.2,2,4.4c1.3,1.2,4.3,1.8,9,1.8c4.7,0,7.7-0.6,9-1.8c1.3-1.2,2-2.6,2-4.4v-35c0-1.6-0.7-3.1-2-4.2
					c-1.3-1.2-4.3-1.8-9-1.8c-4.7,0-7.7,0.6-9,1.8c-1.3,1.2-2,2.6-2,4.2V426z"/>
				<g>
					<circle fill="#FFFFFF" cx="648.3" cy="409.7" r="28"/>
					<circle fill="#601515" cx="641.8" cy="409.7" r="8.5"/>
					<circle cx="641.8" cy="409.7" r="3.3"/>
					<circle fill="#F9F9F9" cx="639.7" cy="405.9" r="2.4"/>
				</g>
				<path fill="#3FBA51" d="M679.9,427c0,3.3-0.5,6.3-1.5,9.1c-1,2.7-2.7,5-5.2,6.9c-2.5,1.9-5.9,3.4-10.3,4.5
					c-4.4,1.1-9.9,1.6-16.7,1.6s-12.3-0.5-16.7-1.6c-4.4-1.1-7.9-2.6-10.4-4.5c-2.5-1.9-4.2-4.2-5.2-6.9c-1-2.7-1.5-5.7-1.5-9.1v-37
					c0-3.3,0.5-6.3,1.5-9.1c1-2.7,2.7-5,5.2-7c2.5-2,6-3.5,10.4-4.6c4.4-1.1,10-1.6,16.7-1.6s12.3,0.5,16.7,1.6
					c4.4,1.1,7.8,2.6,10.3,4.6c2.5,2,4.2,4.3,5.2,7c1,2.7,1.5,5.7,1.5,9.1V427z M637.1,423.1c0,1.4,0.5,2.7,1.6,3.6
					c1.1,1,3.6,1.5,7.5,1.5s6.4-0.5,7.5-1.5c1.1-1,1.6-2.2,1.6-3.6v-29.2c0-1.4-0.5-2.5-1.6-3.5c-1.1-1-3.6-1.5-7.5-1.5
					s-6.4,0.5-7.5,1.5c-1.1,1-1.6,2.2-1.6,3.5V423.1z"/>
				<line fill="none" stroke="#3FBA51" stroke-width="8" stroke-miterlimit="10" x1="581.9" y1="408.6" x2="624.1" y2="408.6"/>
				<path fill="#601515" d="M592.5,362.3c-5-1.9-17.3-8.4-16.1-15.3c0.8-4.4,3-3,6.4-1.2c-0.9-2.1-2-9.5,1-10.7
					c3.2-1.3,6.1,4.8,6.2,7.4c-0.4-2.6,2.2-6.2,5.2-5.2c2.7,0.9,1.7,5.4,1.6,7.9c3.5-1.3,7,1.9,6.1,5.7c-0.7,3.3-5.8,6.5-7.6,9.6
					C593.4,364,593.5,364.6,592.5,362.3z"/>
				<path fill="#EA6D50" d="M646.8,461.9c0,0-19.4,14-43.3,14c-23.9,0-43.3-14-43.3-14s21.1,3.8,45,3.8
					C629.2,465.8,646.8,461.9,646.8,461.9z"/>
				<g>
					<g>
						<path fill="#601515" d="M198.7,505.3c0.3,0,0.6,0.2,0.6,0.5l0.7,17.3c0.1,1.8-0.5,3.5-1.6,4.9c-1.5,1.9-4,3.5-7,3.6l-0.1,0
							c-0.3,0-0.6-0.2-0.6-0.5l0-0.6c0-0.3,0.2-0.6,0.6-0.6c2-0.1,3.8-1,5.1-2.2c1.2-1.2,2-2.8,1.9-4.4l-0.6-16.1l-5.9,0.2
							c-0.3,0-0.6-0.2-0.6-0.6l0-0.6c0-0.3,0.2-0.6,0.6-0.6L198.7,505.3z"/>
						<path fill="#601515" d="M227.8,504.2c0.3,0,0.6,0.2,0.6,0.5l0.7,16.7c0.2,4.5-3.3,8.6-8.1,8.8c-5,0.2-8.7-3.8-8.8-8.1
							l-0.7-16.7c0-0.3,0.2-0.6,0.6-0.6l0.6,0c0.3,0,0.6,0.2,0.6,0.5l0.7,16.7c0.1,3.6,3.3,6.5,6.9,6.4c4.2-0.2,6.5-3.7,6.3-6.9
							l-0.7-16.7c0-0.3,0.3-0.6,0.6-0.6L227.8,504.2z"/>
						<path fill="#601515" d="M243,514.3l9-0.4c0.3,0,0.6,0.2,0.6,0.6l0,0.6c0,0.3-0.2,0.6-0.6,0.6l-9,0.4l0.4,11l9-0.4
							c0.3,0,0.6,0.2,0.6,0.6l0,0.6c0,0.3-0.2,0.6-0.6,0.6l-10.2,0.4c-0.3,0-0.6-0.2-0.6-0.6l-1-24.2c0-0.3,0.2-0.6,0.6-0.6
							l10.2-0.4c0.3,0,0.6,0.2,0.6,0.5l0,0.6c0,0.3-0.2,0.6-0.6,0.6l-9,0.4L243,514.3z"/>
						<path fill="#601515" d="M282.1,504c0.4,0.3,0.3,0.6,0.1,0.8l-0.4,0.6c-0.3,0.4-0.7,0.2-0.8,0.1c-1.8-1.2-3.9-1.8-6.5-1.7
							c-7.1,0.3-11,6.6-10.8,11.7c0.3,7.2,6.6,11,11.7,10.8c2.6-0.1,4.2-1,5.8-2c0.4-0.2,0.6-0.4,0.6-0.4l-0.2-6.2l-7.3,0.3
							c-0.3,0-0.6-0.2-0.6-0.6l0-0.6c0-0.3,0.2-0.6,0.6-0.6l8.5-0.3c0.3,0,0.6,0.2,0.6,0.5l0.3,8c0,0.3-0.2,0.5-0.3,0.6
							c-0.5,0.4-1,0.7-1,0.7c-1.9,1.3-4.3,2.2-6.9,2.3c-7.2,0.3-13.3-5.3-13.6-12.6c-0.3-7.2,5.3-13.3,12.5-13.6
							c2.8-0.1,5.3,0.7,7.5,2L282.1,504z"/>
						<path fill="#601515" d="M319.5,513.2c0.3,7.2-5.3,13.3-12.5,13.6c-7.2,0.3-13.3-5.3-13.6-12.6c-0.3-7.2,5.3-13.3,12.5-13.6
							C313.1,500.4,319.2,506,319.5,513.2z M295.2,514.2c0.2,5.2,4.7,11.1,11.7,10.8c5.2-0.2,11.1-4.7,10.8-11.7
							c-0.2-5.2-4.7-11.1-11.7-10.8C298.9,502.8,295,509.1,295.2,514.2z"/>
						<path fill="#601515" d="M364.2,521.3c0.2,0.3,0.3,0.5-0.2,0.8c-2,1.5-4.6,2.5-7.3,2.6c-7.2,0.3-13.3-5.3-13.6-12.6
							c-0.3-7.2,5.3-13.3,12.5-13.6c2.8-0.1,5.3,0.7,7.5,2l0.1,0.1c0.4,0.3,0.3,0.6,0.1,0.8l-0.4,0.6c-0.3,0.4-0.7,0.2-0.8,0.1
							c-1.8-1.2-3.9-1.8-6.5-1.7c-5.2,0.2-11.1,4.7-10.8,11.7c0.3,7.2,6.6,11,11.7,10.8c2.6-0.1,4.8-1.1,6.3-2.2
							c0.3-0.2,0.6-0.3,0.9,0L364.2,521.3z"/>
						<path fill="#601515" d="M398.4,510c0.3,7.2-5.3,13.3-12.5,13.6c-7.2,0.3-13.3-5.3-13.6-12.6c-0.3-7.2,5.3-13.3,12.5-13.6
							C392.1,497.2,398.2,502.8,398.4,510z M374.2,511c0.2,5.2,4.7,11.1,11.7,10.8c5.2-0.2,11.1-4.7,10.8-11.7
							c-0.2-5.2-4.7-11.1-11.7-10.8C377.8,499.6,374,506,374.2,511z"/>
						<path fill="#601515" d="M433.5,508.6c0.3,7.2-5.3,13.3-12.5,13.6c-7.2,0.3-13.3-5.3-13.6-12.6c-0.3-7.2,5.3-13.3,12.5-13.6
							C427.1,495.8,433.2,501.4,433.5,508.6z M409.2,509.6c0.2,5.2,4.7,11.1,11.7,10.8c5.2-0.2,11.1-4.7,10.8-11.7
							c-0.2-5.2-4.7-11.1-11.7-10.8C412.9,498.2,409,504.5,409.2,509.6z"/>
						<path fill="#601515" d="M446.2,495.4c7.2-0.3,10.2,1.9,10.4,7.1c0.2,5-3.3,8.3-10,8.6l-0.3,0l0.4,9.1c0,0.3-0.2,0.6-0.6,0.6
							l-0.6,0c-0.3,0-0.6-0.2-0.6-0.6l-1-24.2c0-0.3,0.2-0.6,0.6-0.6L446.2,495.4z M446.5,509.4c5-0.2,8.5-2.3,8.3-6.8
							c-0.2-4.7-3.2-5.7-9.1-5.5l0.5,12.3L446.5,509.4z"/>
						<path fill="#601515" d="M469.2,505.2l9-0.4c0.3,0,0.6,0.2,0.6,0.6l0,0.6c0,0.3-0.2,0.6-0.6,0.6l-9,0.4l0.4,11l9-0.4
							c0.3,0,0.6,0.2,0.6,0.6l0,0.6c0,0.3-0.2,0.6-0.6,0.6l-10.2,0.4c-0.3,0-0.6-0.2-0.6-0.6l-1-24.2c0-0.3,0.2-0.6,0.6-0.6
							l10.2-0.4c0.3,0,0.6,0.2,0.6,0.5l0,0.6c0,0.3-0.2,0.6-0.6,0.6l-9,0.4L469.2,505.2z"/>
						<path fill="#601515" d="M504.2,517.6c0.4,0.4,0.1,1-0.4,1l-0.9,0c-0.2,0-0.4-0.1-0.5-0.2l-9.8-9.9c-0.3-0.4-0.1-1,0.5-1.1
							c4.5-0.2,8.1-2.2,7.9-6.7c-0.2-4.9-4-5.6-7.3-5.5l-1.7,0.1l0.9,23c0,0.3-0.2,0.6-0.6,0.6l-0.6,0c-0.3,0-0.6-0.2-0.6-0.6
							l-1-24.2c0-0.3,0.2-0.6,0.6-0.6l2.9-0.1c5-0.2,9,1.7,9.2,7.2c0.2,4.2-2.3,7.3-7.1,8.3L504.2,517.6L504.2,517.6z"/>
						<path fill="#601515" d="M529,516.8c0.1,0.4-0.1,0.8-0.5,0.8l-0.7,0c-0.2,0-0.5-0.2-0.6-0.4l-2-5.7l-9.8,0.4l-1.6,5.8
							c-0.1,0.2-0.3,0.4-0.5,0.4l-0.7,0c-0.4,0-0.7-0.4-0.6-0.7l6.9-25.2c0.1-0.3,0.3-0.5,0.6-0.5c0.3,0,0.5,0.2,0.6,0.4L529,516.8z
							 M519.6,496.2l-3.8,13.8l8.7-0.3L519.6,496.2z"/>
						<path fill="#601515" d="M546.7,491.3c0.3,0,0.6,0.2,0.6,0.5l0,0.6c0,0.3-0.2,0.6-0.6,0.6l-5.6,0.2l0.9,23
							c0,0.3-0.2,0.6-0.5,0.6l-0.6,0c-0.3,0-0.6-0.2-0.6-0.6l-0.9-23l-5.6,0.2c-0.3,0-0.6-0.2-0.6-0.5l0-0.6c0-0.3,0.2-0.6,0.6-0.6
							L546.7,491.3z"/>
						<path fill="#601515" d="M558.3,490.9c0.3,0,0.6,0.2,0.6,0.6l1,24.2c0,0.3-0.2,0.6-0.5,0.6l-0.6,0c-0.3,0-0.6-0.2-0.6-0.6
							l-1-24.2c0-0.3,0.2-0.6,0.6-0.6L558.3,490.9z"/>
						<path fill="#601515" d="M568.7,491.3c-0.2-0.5,0.1-0.8,0.5-0.8l0.7,0c0.3,0,0.5,0.1,0.6,0.4l7.5,20.7l5.9-21.2
							c0.1-0.3,0.3-0.4,0.6-0.4l0.7,0c0.3,0,0.7,0.3,0.5,0.7l-6.9,25.2c-0.1,0.2-0.3,0.4-0.6,0.4c-0.3,0-0.5-0.1-0.6-0.4
							L568.7,491.3z"/>
						<path fill="#601515" d="M619.4,501.1c0.3,7.2-5.3,13.3-12.5,13.6c-7.2,0.3-13.3-5.3-13.6-12.6c-0.3-7.2,5.3-13.3,12.5-13.6
							C613,488.3,619.1,494,619.4,501.1z M595.1,502.1c0.2,5.2,4.7,11.1,11.7,10.8c5.2-0.2,11.1-4.7,10.8-11.7
							c-0.2-5.2-4.7-11.1-11.7-10.8C598.7,490.7,594.9,497.1,595.1,502.1z"/>
					</g>
				</g>
				<g>
					<g>
						<path fill="#FFFFFF" d="M198.7,503.2c0.3,0,0.6,0.2,0.6,0.5L200,521c0.1,1.8-0.5,3.5-1.6,4.9c-1.5,1.9-4,3.5-7,3.6l-0.1,0
							c-0.3,0-0.6-0.2-0.6-0.5l0-0.6c0-0.3,0.2-0.6,0.6-0.6c2-0.1,3.8-1,5.1-2.2c1.2-1.2,2-2.8,1.9-4.4l-0.6-16.1l-5.9,0.2
							c-0.3,0-0.6-0.2-0.6-0.5l0-0.6c0-0.3,0.2-0.6,0.6-0.6L198.7,503.2z"/>
						<path fill="#FFFFFF" d="M227.8,502c0.3,0,0.6,0.2,0.6,0.5l0.7,16.7c0.2,4.5-3.3,8.6-8.1,8.8c-5,0.2-8.7-3.8-8.8-8.2l-0.7-16.7
							c0-0.3,0.2-0.6,0.6-0.6l0.6,0c0.3,0,0.6,0.2,0.6,0.5l0.7,16.7c0.1,3.6,3.3,6.5,6.9,6.4c4.2-0.2,6.5-3.7,6.3-6.9l-0.7-16.7
							c0-0.3,0.3-0.6,0.6-0.6L227.8,502z"/>
						<path fill="#FFFFFF" d="M243,512.1l9-0.4c0.3,0,0.6,0.2,0.6,0.6l0,0.6c0,0.3-0.2,0.6-0.6,0.6l-9,0.4l0.4,11l9-0.4
							c0.3,0,0.6,0.2,0.6,0.6l0,0.6c0,0.3-0.2,0.6-0.6,0.6l-10.2,0.4c-0.3,0-0.6-0.2-0.6-0.6l-1-24.2c0-0.3,0.2-0.6,0.6-0.6
							l10.2-0.4c0.3,0,0.6,0.2,0.6,0.5l0,0.6c0,0.3-0.2,0.6-0.6,0.6l-9,0.4L243,512.1z"/>
						<path fill="#FFFFFF" d="M282.1,501.8c0.4,0.3,0.3,0.6,0.1,0.8l-0.4,0.6c-0.3,0.4-0.7,0.2-0.8,0.1c-1.8-1.2-3.9-1.8-6.5-1.7
							c-7.1,0.3-11,6.6-10.8,11.7c0.3,7.2,6.6,11,11.7,10.8c2.6-0.1,4.2-1,5.8-2c0.4-0.2,0.6-0.4,0.6-0.4l-0.2-6.2l-7.3,0.3
							c-0.3,0-0.6-0.2-0.6-0.6l0-0.6c0-0.3,0.2-0.6,0.6-0.6l8.5-0.3c0.3,0,0.6,0.2,0.6,0.5l0.3,8c0,0.3-0.2,0.5-0.3,0.6
							c-0.5,0.4-1,0.7-1,0.7c-1.9,1.3-4.3,2.2-6.9,2.3c-7.2,0.3-13.3-5.3-13.6-12.6c-0.3-7.2,5.3-13.3,12.5-13.6
							c2.8-0.1,5.3,0.7,7.5,2L282.1,501.8z"/>
						<path fill="#FFFFFF" d="M319.5,511c0.3,7.2-5.3,13.3-12.5,13.6c-7.2,0.3-13.3-5.3-13.6-12.6c-0.3-7.2,5.3-13.3,12.5-13.6
							C313.1,498.2,319.2,503.8,319.5,511z M295.2,512c0.2,5.2,4.7,11.1,11.7,10.8c5.2-0.2,11.1-4.7,10.8-11.7
							c-0.2-5.2-4.7-11.1-11.7-10.8C298.9,500.6,295,507,295.2,512z"/>
						<path fill="#FFFFFF" d="M364.2,519.1c0.2,0.3,0.3,0.5-0.2,0.9c-2,1.5-4.6,2.5-7.3,2.6c-7.2,0.3-13.3-5.3-13.6-12.6
							c-0.3-7.2,5.3-13.3,12.5-13.6c2.8-0.1,5.3,0.7,7.5,2l0.1,0.1c0.4,0.3,0.3,0.6,0.1,0.8l-0.4,0.6c-0.3,0.4-0.7,0.2-0.8,0.1
							c-1.8-1.2-3.9-1.8-6.5-1.7c-5.2,0.2-11.1,4.7-10.8,11.7c0.3,7.2,6.6,11,11.7,10.8c2.6-0.1,4.8-1.1,6.3-2.2
							c0.3-0.2,0.6-0.3,0.9,0L364.2,519.1z"/>
						<path fill="#FFFFFF" d="M398.4,507.9c0.3,7.2-5.3,13.3-12.5,13.6c-7.2,0.3-13.3-5.3-13.6-12.6c-0.3-7.2,5.3-13.3,12.5-13.6
							C392.1,495,398.2,500.7,398.4,507.9z M374.2,508.8c0.2,5.2,4.7,11.1,11.7,10.8c5.2-0.2,11.1-4.7,10.8-11.7
							c-0.2-5.2-4.7-11.1-11.7-10.8C377.8,497.4,374,503.8,374.2,508.8z"/>
						<path fill="#FFFFFF" d="M433.5,506.4c0.3,7.2-5.3,13.3-12.5,13.6c-7.2,0.3-13.3-5.3-13.6-12.6c-0.3-7.2,5.3-13.3,12.5-13.6
							C427.1,493.6,433.2,499.3,433.5,506.4z M409.2,507.4c0.2,5.2,4.7,11.1,11.7,10.8c5.2-0.2,11.1-4.7,10.8-11.7
							c-0.2-5.2-4.7-11.1-11.7-10.8C412.9,496,409,502.4,409.2,507.4z"/>
						<path fill="#FFFFFF" d="M446.2,493.2c7.2-0.3,10.2,1.9,10.4,7.1c0.2,5-3.3,8.3-10,8.6l-0.3,0l0.4,9.1c0,0.3-0.2,0.6-0.6,0.6
							l-0.6,0c-0.3,0-0.6-0.2-0.6-0.6l-1-24.2c0-0.3,0.2-0.6,0.6-0.6L446.2,493.2z M446.5,507.2c5-0.2,8.5-2.3,8.3-6.8
							c-0.2-4.7-3.2-5.7-9.1-5.5l0.5,12.3L446.5,507.2z"/>
						<path fill="#FFFFFF" d="M469.2,503.1l9-0.4c0.3,0,0.6,0.2,0.6,0.6l0,0.6c0,0.3-0.2,0.6-0.6,0.6l-9,0.4l0.4,11l9-0.4
							c0.3,0,0.6,0.2,0.6,0.6l0,0.6c0,0.3-0.2,0.6-0.6,0.6l-10.2,0.4c-0.3,0-0.6-0.2-0.6-0.6l-1-24.2c0-0.3,0.2-0.6,0.6-0.6
							l10.2-0.4c0.3,0,0.6,0.2,0.6,0.5l0,0.6c0,0.3-0.2,0.6-0.6,0.6l-9,0.4L469.2,503.1z"/>
						<path fill="#FFFFFF" d="M504.2,515.4c0.4,0.4,0.1,1-0.4,1l-0.9,0c-0.2,0-0.4-0.1-0.5-0.2l-9.8-9.9c-0.3-0.4-0.1-1,0.5-1.1
							c4.5-0.2,8.1-2.2,7.9-6.7c-0.2-4.9-4-5.6-7.3-5.5l-1.7,0.1l0.9,23c0,0.3-0.2,0.6-0.6,0.6l-0.6,0c-0.3,0-0.6-0.2-0.6-0.6
							l-1-24.2c0-0.3,0.2-0.6,0.6-0.6l2.9-0.1c5-0.2,9,1.7,9.2,7.2c0.2,4.2-2.3,7.3-7.1,8.3L504.2,515.4L504.2,515.4z"/>
						<path fill="#FFFFFF" d="M529,514.6c0.1,0.4-0.1,0.8-0.5,0.8l-0.7,0c-0.2,0-0.5-0.2-0.6-0.4l-2-5.7l-9.8,0.4l-1.6,5.8
							c-0.1,0.2-0.3,0.4-0.5,0.4l-0.7,0c-0.4,0-0.7-0.4-0.6-0.7l6.9-25.2c0.1-0.3,0.3-0.5,0.6-0.5c0.3,0,0.5,0.2,0.6,0.4L529,514.6z
							 M519.6,494l-3.8,13.8l8.7-0.3L519.6,494z"/>
						<path fill="#FFFFFF" d="M546.7,489.2c0.3,0,0.6,0.2,0.6,0.5l0,0.6c0,0.3-0.2,0.6-0.6,0.6l-5.6,0.2l0.9,23
							c0,0.3-0.2,0.6-0.5,0.6l-0.6,0c-0.3,0-0.6-0.2-0.6-0.6l-0.9-23l-5.6,0.2c-0.3,0-0.6-0.2-0.6-0.6l0-0.6c0-0.3,0.2-0.6,0.6-0.6
							L546.7,489.2z"/>
						<path fill="#FFFFFF" d="M558.3,488.7c0.3,0,0.6,0.2,0.6,0.5l1,24.2c0,0.3-0.2,0.6-0.5,0.6l-0.6,0c-0.3,0-0.6-0.2-0.6-0.6
							l-1-24.2c0-0.3,0.2-0.6,0.6-0.6L558.3,488.7z"/>
						<path fill="#FFFFFF" d="M568.7,489.1c-0.2-0.5,0.1-0.8,0.5-0.8l0.7,0c0.3,0,0.5,0.1,0.6,0.4l7.5,20.7l5.9-21.2
							c0.1-0.3,0.3-0.4,0.6-0.4l0.7,0c0.3,0,0.7,0.3,0.5,0.7l-6.9,25.2c-0.1,0.2-0.3,0.4-0.6,0.4c-0.3,0-0.5-0.1-0.6-0.4
							L568.7,489.1z"/>
						<path fill="#FFFFFF" d="M619.4,499c0.3,7.2-5.3,13.3-12.5,13.6c-7.2,0.3-13.3-5.3-13.6-12.6c-0.3-7.2,5.3-13.3,12.5-13.6
							C613,486.2,619.1,491.8,619.4,499z M595.1,500c0.2,5.2,4.7,11.1,11.7,10.8c5.2-0.2,11.1-4.7,10.8-11.7
							c-0.2-5.2-4.7-11.1-11.7-10.8C598.7,488.5,594.9,494.9,595.1,500z"/>
					</g>
				</g>
			</g>
		</g>
	</g>
	<path fill="#24272D" d="M622.1,169.9l-17.7-4.5c-2.5-0.6-4-3.2-3.4-5.7v0c0.6-2.5,3.2-4,5.7-3.4l17.7,4.5c2.5,0.6,4,3.2,3.4,5.7
		l0,0C627.1,169,624.6,170.5,622.1,169.9z"/>
	<g>
		
			<radialGradient id="SVGID_3_" cx="1230.9236" cy="4548.168" r="15.3179" gradientTransform="matrix(2.0403 0 0 2.0355 -2125.0474 -8955.1162)" gradientUnits="userSpaceOnUse">
			<stop  offset="0" style="stop-color:#FFFFFF"/>
			<stop  offset="1" style="stop-color:#D8D7D7;stop-opacity:0"/>
		</radialGradient>
		<ellipse fill="url(#SVGID_3_)" cx="386.4" cy="302.8" rx="39.6" ry="39.3"/>
		<g>
			<circle fill="#EFEA35" cx="385.8" cy="300.8" r="24.1"/>
			<linearGradient id="SVGID_4_" gradientUnits="userSpaceOnUse" x1="378.2845" y1="336.1042" x2="391.972" y2="292.5049">
				<stop  offset="0.1227" style="stop-color:#F1A100"/>
				<stop  offset="0.4163" style="stop-color:#DCA54D;stop-opacity:0.366"/>
				<stop  offset="1" style="stop-color:#E6BF80;stop-opacity:0.2"/>
			</linearGradient>
			<path fill="url(#SVGID_4_)" d="M385.8,324.9c13.3,0,24.1-10.8,24.1-24.1c0-1.9-0.2-3.7-0.6-5.4c-13.6,8.4-35.1,4-45.1,16.1
				C368.2,319.5,376.4,324.9,385.8,324.9z"/>
			
				<linearGradient id="SVGID_5_" gradientUnits="userSpaceOnUse" x1="641.7561" y1="1069.583" x2="668.8994" y2="1096.959" gradientTransform="matrix(1.1692 -9.563129e-06 0 1.1692 -388.8086 -974.2247)">
				<stop  offset="0" style="stop-color:#FFFFFF"/>
				<stop  offset="1" style="stop-color:#D8D7D7;stop-opacity:0"/>
			</linearGradient>
			<circle fill="url(#SVGID_5_)" cx="385.3" cy="300.3" r="22.5"/>
			<g>
				
					<linearGradient id="SVGID_6_" gradientUnits="userSpaceOnUse" x1="643.2551" y1="1068.0968" x2="670.3984" y2="1095.4728" gradientTransform="matrix(1.1692 -9.563129e-06 0 1.1692 -388.8086 -974.2247)">
					<stop  offset="0" style="stop-color:#FFFFFF"/>
					<stop  offset="1" style="stop-color:#D8D7D7;stop-opacity:0"/>
				</linearGradient>
				<path fill="url(#SVGID_6_)" d="M385.3,277.8c-0.9,0-1.7,0.1-2.6,0.2c11.2,1.3,19.9,10.8,19.9,22.4c0,11.6-8.7,21.1-19.9,22.4
					c0.9,0.1,1.7,0.2,2.6,0.2c12.4,0,22.5-10.1,22.5-22.5C407.9,287.9,397.8,277.8,385.3,277.8z"/>
			</g>
			
				<radialGradient id="SVGID_7_" cx="385.3453" cy="289.1064" r="15.3179" gradientTransform="matrix(1 0 0 0.4982 0 145.084)" gradientUnits="userSpaceOnUse">
				<stop  offset="0" style="stop-color:#FFFFFF"/>
				<stop  offset="1" style="stop-color:#D8D7D7;stop-opacity:0"/>
			</radialGradient>
			<ellipse fill="url(#SVGID_7_)" cx="385.3" cy="289.1" rx="19.4" ry="9.6"/>
			
				<radialGradient id="SVGID_8_" cx="393.8035" cy="316.32" r="15.2017" gradientTransform="matrix(0.8737 -0.4864 0.2423 0.4353 -26.9215 370.1985)" gradientUnits="userSpaceOnUse">
				<stop  offset="0" style="stop-color:#FFFFFF"/>
				<stop  offset="6.120825e-02" style="stop-color:#FAFAFA;stop-opacity:0.9388"/>
				<stop  offset="0.3689" style="stop-color:#E7E7E7;stop-opacity:0.6311"/>
				<stop  offset="0.6806" style="stop-color:#DCDBDB;stop-opacity:0.3194"/>
				<stop  offset="1" style="stop-color:#D8D7D7;stop-opacity:0"/>
			</radialGradient>
			<path fill="url(#SVGID_8_)" d="M406.7,308.8c0,5.3-9.5,15.1-20.2,15.1c-10.7,0-19.4-4.3-19.4-9.6s7.4-0.8,18.1-0.8
				S406.7,303.5,406.7,308.8z"/>
		</g>
	</g>
	<g>
		
			<radialGradient id="SVGID_9_" cx="1289.8091" cy="4550.1499" r="15.3179" gradientTransform="matrix(2.0403 0 0 2.0355 -2125.0474 -8951.0518)" gradientUnits="userSpaceOnUse">
			<stop  offset="0" style="stop-color:#FFFFFF"/>
			<stop  offset="1" style="stop-color:#D8D7D7;stop-opacity:0"/>
		</radialGradient>
		<ellipse fill="url(#SVGID_9_)" cx="506.5" cy="310.9" rx="39.6" ry="39.3"/>
		<g>
			<circle fill="#EFEA35" cx="506" cy="308.9" r="24.1"/>
			<linearGradient id="SVGID_10_" gradientUnits="userSpaceOnUse" x1="498.4285" y1="344.2038" x2="512.116" y2="300.6045">
				<stop  offset="0.1227" style="stop-color:#F1A100"/>
				<stop  offset="0.4163" style="stop-color:#DCA54D;stop-opacity:0.366"/>
				<stop  offset="1" style="stop-color:#E6BF80;stop-opacity:0.2"/>
			</linearGradient>
			<path fill="url(#SVGID_10_)" d="M506,333c13.3,0,24.1-10.8,24.1-24.1c0-1.9-0.2-3.7-0.6-5.4c-13.6,8.4-35.1,4-45.1,16.1
				C488.3,327.6,496.5,333,506,333z"/>
			
				<linearGradient id="SVGID_11_" gradientUnits="userSpaceOnUse" x1="744.5135" y1="1076.5114" x2="771.6568" y2="1103.8872" gradientTransform="matrix(1.1692 -9.563129e-06 0 1.1692 -388.8086 -974.2247)">
				<stop  offset="0" style="stop-color:#FFFFFF"/>
				<stop  offset="1" style="stop-color:#D8D7D7;stop-opacity:0"/>
			</linearGradient>
			<circle fill="url(#SVGID_11_)" cx="505.5" cy="308.4" r="22.5"/>
			<g>
				
					<linearGradient id="SVGID_12_" gradientUnits="userSpaceOnUse" x1="746.0125" y1="1075.025" x2="773.1558" y2="1102.401" gradientTransform="matrix(1.1692 -9.563129e-06 0 1.1692 -388.8086 -974.2247)">
					<stop  offset="0" style="stop-color:#FFFFFF"/>
					<stop  offset="1" style="stop-color:#D8D7D7;stop-opacity:0"/>
				</linearGradient>
				<path fill="url(#SVGID_12_)" d="M505.5,285.9c-0.9,0-1.7,0.1-2.6,0.2c11.2,1.3,19.9,10.8,19.9,22.4c0,11.6-8.7,21.1-19.9,22.4
					c0.9,0.1,1.7,0.2,2.6,0.2c12.4,0,22.5-10.1,22.5-22.5C528,296,517.9,285.9,505.5,285.9z"/>
			</g>
			
				<radialGradient id="SVGID_13_" cx="505.4893" cy="297.2061" r="15.3179" gradientTransform="matrix(1 0 0 0.4982 0 149.1487)" gradientUnits="userSpaceOnUse">
				<stop  offset="0" style="stop-color:#FFFFFF"/>
				<stop  offset="1" style="stop-color:#D8D7D7;stop-opacity:0"/>
			</radialGradient>
			<ellipse fill="url(#SVGID_13_)" cx="505.5" cy="297.2" rx="19.4" ry="9.6"/>
			
				<radialGradient id="SVGID_14_" cx="513.9474" cy="324.4196" r="15.2017" gradientTransform="matrix(0.8737 -0.4864 0.2423 0.4353 -13.7123 433.2145)" gradientUnits="userSpaceOnUse">
				<stop  offset="0" style="stop-color:#FFFFFF"/>
				<stop  offset="6.120825e-02" style="stop-color:#FAFAFA;stop-opacity:0.9388"/>
				<stop  offset="0.3689" style="stop-color:#E7E7E7;stop-opacity:0.6311"/>
				<stop  offset="0.6806" style="stop-color:#DCDBDB;stop-opacity:0.3194"/>
				<stop  offset="1" style="stop-color:#D8D7D7;stop-opacity:0"/>
			</radialGradient>
			<path fill="url(#SVGID_14_)" d="M526.9,316.9c0,5.3-9.5,15.1-20.2,15.1c-10.7,0-19.4-4.3-19.4-9.6s7.4-0.8,18.1-0.8
				C516.1,321.6,526.9,311.6,526.9,316.9z"/>
		</g>
	</g>
	<g>
		
			<radialGradient id="SVGID_15_" cx="1264.667" cy="4536.2744" r="15.3179" gradientTransform="matrix(2.0403 0 0 2.0355 -2125.0474 -8979.5039)" gradientUnits="userSpaceOnUse">
			<stop  offset="0" style="stop-color:#FFFFFF"/>
			<stop  offset="1" style="stop-color:#D8D7D7;stop-opacity:0"/>
		</radialGradient>
		<ellipse fill="url(#SVGID_15_)" cx="455.3" cy="254.2" rx="39.6" ry="39.3"/>
		<g>
			<circle fill="#EFEA35" cx="454.7" cy="252.3" r="24.1"/>
			<linearGradient id="SVGID_16_" gradientUnits="userSpaceOnUse" x1="447.131" y1="287.5067" x2="460.8186" y2="243.9073">
				<stop  offset="0.1227" style="stop-color:#F1A100"/>
				<stop  offset="0.4163" style="stop-color:#DCA54D;stop-opacity:0.366"/>
				<stop  offset="1" style="stop-color:#E6BF80;stop-opacity:0.2"/>
			</linearGradient>
			<path fill="url(#SVGID_16_)" d="M454.7,276.3c13.3,0,24.1-10.8,24.1-24.1c0-1.9-0.2-3.7-0.6-5.4c-13.6,8.4-35.1,4-45.1,16.1
				C437,270.9,445.2,276.3,454.7,276.3z"/>
			
				<linearGradient id="SVGID_17_" gradientUnits="userSpaceOnUse" x1="700.6395" y1="1028.0188" x2="727.7829" y2="1055.3948" gradientTransform="matrix(1.1692 -9.563129e-06 0 1.1692 -388.8086 -974.2247)">
				<stop  offset="0" style="stop-color:#FFFFFF"/>
				<stop  offset="1" style="stop-color:#D8D7D7;stop-opacity:0"/>
			</linearGradient>
			<circle fill="url(#SVGID_17_)" cx="454.2" cy="251.7" r="22.5"/>
			<g>
				
					<linearGradient id="SVGID_18_" gradientUnits="userSpaceOnUse" x1="702.1385" y1="1026.5326" x2="729.2819" y2="1053.9086" gradientTransform="matrix(1.1692 -9.563129e-06 0 1.1692 -388.8086 -974.2247)">
					<stop  offset="0" style="stop-color:#FFFFFF"/>
					<stop  offset="1" style="stop-color:#D8D7D7;stop-opacity:0"/>
				</linearGradient>
				<path fill="url(#SVGID_18_)" d="M454.2,229.2c-0.9,0-1.7,0.1-2.6,0.2c11.2,1.3,19.9,10.8,19.9,22.4s-8.7,21.1-19.9,22.4
					c0.9,0.1,1.7,0.2,2.6,0.2c12.4,0,22.5-10.1,22.5-22.5C476.7,239.3,466.6,229.2,454.2,229.2z"/>
			</g>
			
				<radialGradient id="SVGID_19_" cx="454.1918" cy="240.5089" r="15.3179" gradientTransform="matrix(1 0 0 0.4982 0 120.696)" gradientUnits="userSpaceOnUse">
				<stop  offset="0" style="stop-color:#FFFFFF"/>
				<stop  offset="1" style="stop-color:#D8D7D7;stop-opacity:0"/>
			</radialGradient>
			<ellipse fill="url(#SVGID_19_)" cx="454.2" cy="240.5" rx="19.4" ry="9.6"/>
			
				<radialGradient id="SVGID_20_" cx="462.65" cy="267.7224" r="15.2017" gradientTransform="matrix(0.8737 -0.4864 0.2423 0.4353 -6.4512 376.2424)" gradientUnits="userSpaceOnUse">
				<stop  offset="0" style="stop-color:#FFFFFF"/>
				<stop  offset="6.120825e-02" style="stop-color:#FAFAFA;stop-opacity:0.9388"/>
				<stop  offset="0.3689" style="stop-color:#E7E7E7;stop-opacity:0.6311"/>
				<stop  offset="0.6806" style="stop-color:#DCDBDB;stop-opacity:0.3194"/>
				<stop  offset="1" style="stop-color:#D8D7D7;stop-opacity:0"/>
			</radialGradient>
			<path fill="url(#SVGID_20_)" d="M475.6,260.2c0,5.3-9.5,15.1-20.2,15.1S436,271,436,265.7s7.4-0.8,18.1-0.8
				S475.6,254.9,475.6,260.2z"/>
		</g>
	</g>
	<g>
		
			<radialGradient id="SVGID_21_" cx="1201.15" cy="4535.9438" r="15.3179" gradientTransform="matrix(2.0403 0 0 2.0355 -2125.0474 -8980.1816)" gradientUnits="userSpaceOnUse">
			<stop  offset="0" style="stop-color:#FFFFFF"/>
			<stop  offset="1" style="stop-color:#D8D7D7;stop-opacity:0"/>
		</radialGradient>
		<ellipse fill="url(#SVGID_21_)" cx="325.7" cy="252.8" rx="39.6" ry="39.3"/>
		<g>
			<circle fill="#EFEA35" cx="325.1" cy="250.9" r="24.1"/>
			<linearGradient id="SVGID_22_" gradientUnits="userSpaceOnUse" x1="317.5375" y1="286.1567" x2="331.225" y2="242.5574">
				<stop  offset="0.1227" style="stop-color:#F1A100"/>
				<stop  offset="0.4163" style="stop-color:#DCA54D;stop-opacity:0.366"/>
				<stop  offset="1" style="stop-color:#E6BF80;stop-opacity:0.2"/>
			</linearGradient>
			<path fill="url(#SVGID_22_)" d="M325.1,275c13.3,0,24.1-10.8,24.1-24.1c0-1.9-0.2-3.7-0.6-5.4c-13.6,8.4-35.1,4-45.1,16.1
				C307.4,269.5,315.6,275,325.1,275z"/>
			
				<linearGradient id="SVGID_23_" gradientUnits="userSpaceOnUse" x1="589.8001" y1="1026.8634" x2="616.9435" y2="1054.2393" gradientTransform="matrix(1.1692 -9.563129e-06 0 1.1692 -388.8086 -974.2247)">
				<stop  offset="0" style="stop-color:#FFFFFF"/>
				<stop  offset="1" style="stop-color:#D8D7D7;stop-opacity:0"/>
			</linearGradient>
			<circle fill="url(#SVGID_23_)" cx="324.6" cy="250.4" r="22.5"/>
			<g>
				
					<linearGradient id="SVGID_24_" gradientUnits="userSpaceOnUse" x1="591.2991" y1="1025.3772" x2="618.4424" y2="1052.7531" gradientTransform="matrix(1.1692 -9.563129e-06 0 1.1692 -388.8086 -974.2247)">
					<stop  offset="0" style="stop-color:#FFFFFF"/>
					<stop  offset="1" style="stop-color:#D8D7D7;stop-opacity:0"/>
				</linearGradient>
				<path fill="url(#SVGID_24_)" d="M324.6,227.8c-0.9,0-1.7,0.1-2.6,0.2c11.2,1.3,19.9,10.8,19.9,22.4c0,11.6-8.7,21.1-19.9,22.4
					c0.9,0.1,1.7,0.2,2.6,0.2c12.4,0,22.5-10.1,22.5-22.5C347.1,237.9,337,227.8,324.6,227.8z"/>
			</g>
			
				<radialGradient id="SVGID_25_" cx="324.5983" cy="239.159" r="15.3179" gradientTransform="matrix(1 0 0 0.4982 0 120.0185)" gradientUnits="userSpaceOnUse">
				<stop  offset="0" style="stop-color:#FFFFFF"/>
				<stop  offset="1" style="stop-color:#D8D7D7;stop-opacity:0"/>
			</radialGradient>
			<ellipse fill="url(#SVGID_25_)" cx="324.6" cy="239.2" rx="19.4" ry="9.6"/>
			
				<radialGradient id="SVGID_26_" cx="333.0565" cy="266.3725" r="15.2017" gradientTransform="matrix(0.8737 -0.4864 0.2423 0.4353 -22.4893 312.4417)" gradientUnits="userSpaceOnUse">
				<stop  offset="0" style="stop-color:#FFFFFF"/>
				<stop  offset="6.120825e-02" style="stop-color:#FAFAFA;stop-opacity:0.9388"/>
				<stop  offset="0.3689" style="stop-color:#E7E7E7;stop-opacity:0.6311"/>
				<stop  offset="0.6806" style="stop-color:#DCDBDB;stop-opacity:0.3194"/>
				<stop  offset="1" style="stop-color:#D8D7D7;stop-opacity:0"/>
			</radialGradient>
			<path fill="url(#SVGID_26_)" d="M346,258.9c0,5.3-9.5,15.1-20.2,15.1s-19.4-4.3-19.4-9.6s7.4-0.8,18.1-0.8S346,253.6,346,258.9z"
				/>
		</g>
	</g>
	<g>
		
			<radialGradient id="SVGID_27_" cx="1298.4103" cy="4530.9883" r="15.3179" gradientTransform="matrix(2.0403 0 0 2.0355 -2125.0474 -8990.3428)" gradientUnits="userSpaceOnUse">
			<stop  offset="0" style="stop-color:#FFFFFF"/>
			<stop  offset="1" style="stop-color:#D8D7D7;stop-opacity:0"/>
		</radialGradient>
		<ellipse fill="url(#SVGID_27_)" cx="524.1" cy="232.6" rx="39.6" ry="39.3"/>
		<g>
			<circle fill="#EFEA35" cx="523.5" cy="230.7" r="24.1"/>
			<linearGradient id="SVGID_28_" gradientUnits="userSpaceOnUse" x1="515.9776" y1="265.9077" x2="529.6652" y2="222.3084">
				<stop  offset="0.1227" style="stop-color:#F1A100"/>
				<stop  offset="0.4163" style="stop-color:#DCA54D;stop-opacity:0.366"/>
				<stop  offset="1" style="stop-color:#E6BF80;stop-opacity:0.2"/>
			</linearGradient>
			<path fill="url(#SVGID_28_)" d="M523.5,254.7c13.3,0,24.1-10.8,24.1-24.1c0-1.9-0.2-3.7-0.6-5.4c-13.6,8.4-35.1,4-45.1,16.1
				C505.9,249.3,514.1,254.7,523.5,254.7z"/>
			
				<linearGradient id="SVGID_29_" gradientUnits="userSpaceOnUse" x1="759.523" y1="1009.5461" x2="786.6663" y2="1036.9221" gradientTransform="matrix(1.1692 -9.563129e-06 0 1.1692 -388.8086 -974.2247)">
				<stop  offset="0" style="stop-color:#FFFFFF"/>
				<stop  offset="1" style="stop-color:#D8D7D7;stop-opacity:0"/>
			</linearGradient>
			<circle fill="url(#SVGID_29_)" cx="523" cy="230.1" r="22.5"/>
			<g>
				
					<linearGradient id="SVGID_30_" gradientUnits="userSpaceOnUse" x1="761.022" y1="1008.0599" x2="788.1653" y2="1035.4359" gradientTransform="matrix(1.1692 -9.563129e-06 0 1.1692 -388.8086 -974.2247)">
					<stop  offset="0" style="stop-color:#FFFFFF"/>
					<stop  offset="1" style="stop-color:#D8D7D7;stop-opacity:0"/>
				</linearGradient>
				<path fill="url(#SVGID_30_)" d="M523,207.6c-0.9,0-1.7,0.1-2.6,0.2c11.2,1.3,19.9,10.8,19.9,22.4s-8.7,21.1-19.9,22.4
					c0.9,0.1,1.7,0.2,2.6,0.2c12.4,0,22.5-10.1,22.5-22.5C545.6,217.7,535.5,207.6,523,207.6z"/>
			</g>
			
				<radialGradient id="SVGID_31_" cx="523.0384" cy="218.91" r="15.3179" gradientTransform="matrix(1 0 0 0.4982 0 109.8569)" gradientUnits="userSpaceOnUse">
				<stop  offset="0" style="stop-color:#FFFFFF"/>
				<stop  offset="1" style="stop-color:#D8D7D7;stop-opacity:0"/>
			</radialGradient>
			<ellipse fill="url(#SVGID_31_)" cx="523" cy="218.9" rx="19.4" ry="9.6"/>
			
				<radialGradient id="SVGID_32_" cx="531.4966" cy="246.1235" r="15.2017" gradientTransform="matrix(0.8737 -0.4864 0.2423 0.4353 7.4768 397.5337)" gradientUnits="userSpaceOnUse">
				<stop  offset="0" style="stop-color:#FFFFFF"/>
				<stop  offset="6.120825e-02" style="stop-color:#FAFAFA;stop-opacity:0.9388"/>
				<stop  offset="0.3689" style="stop-color:#E7E7E7;stop-opacity:0.6311"/>
				<stop  offset="0.6806" style="stop-color:#DCDBDB;stop-opacity:0.3194"/>
				<stop  offset="1" style="stop-color:#D8D7D7;stop-opacity:0"/>
			</radialGradient>
			<path fill="url(#SVGID_32_)" d="M544.4,238.6c0,5.3-9.5,15.1-20.2,15.1s-19.4-4.3-19.4-9.6s7.4-0.8,18.1-0.8
				S544.4,233.3,544.4,238.6z"/>
		</g>
	</g>
	<g>
		
			<radialGradient id="SVGID_33_" cx="1244.1562" cy="4524.3809" r="15.3179" gradientTransform="matrix(2.0403 0 0 2.0355 -2125.0474 -9003.8926)" gradientUnits="userSpaceOnUse">
			<stop  offset="0" style="stop-color:#FFFFFF"/>
			<stop  offset="1" style="stop-color:#D8D7D7;stop-opacity:0"/>
		</radialGradient>
		<ellipse fill="url(#SVGID_33_)" cx="413.4" cy="205.6" rx="39.6" ry="39.3"/>
		<g>
			<circle fill="#EFEA35" cx="412.8" cy="203.7" r="24.1"/>
			<linearGradient id="SVGID_34_" gradientUnits="userSpaceOnUse" x1="405.2831" y1="238.9091" x2="418.9707" y2="195.3097">
				<stop  offset="0.1227" style="stop-color:#F1A100"/>
				<stop  offset="0.4163" style="stop-color:#DCA54D;stop-opacity:0.366"/>
				<stop  offset="1" style="stop-color:#E6BF80;stop-opacity:0.2"/>
			</linearGradient>
			<path fill="url(#SVGID_34_)" d="M412.8,227.7c13.3,0,24.1-10.8,24.1-24.1c0-1.9-0.2-3.7-0.6-5.4c-13.6,8.4-35.1,4-45.1,16.1
				C395.2,222.3,403.4,227.7,412.8,227.7z"/>
			
				<linearGradient id="SVGID_35_" gradientUnits="userSpaceOnUse" x1="664.8477" y1="986.4539" x2="691.991" y2="1013.8298" gradientTransform="matrix(1.1692 -9.563129e-06 0 1.1692 -388.8086 -974.2247)">
				<stop  offset="0" style="stop-color:#FFFFFF"/>
				<stop  offset="1" style="stop-color:#D8D7D7;stop-opacity:0"/>
			</linearGradient>
			<circle fill="url(#SVGID_35_)" cx="412.3" cy="203.1" r="22.5"/>
			<g>
				
					<linearGradient id="SVGID_36_" gradientUnits="userSpaceOnUse" x1="666.3466" y1="984.9677" x2="693.4899" y2="1012.3436" gradientTransform="matrix(1.1692 -9.563129e-06 0 1.1692 -388.8086 -974.2247)">
					<stop  offset="0" style="stop-color:#FFFFFF"/>
					<stop  offset="1" style="stop-color:#D8D7D7;stop-opacity:0"/>
				</linearGradient>
				<path fill="url(#SVGID_36_)" d="M412.3,180.6c-0.9,0-1.7,0.1-2.6,0.2c11.2,1.3,19.9,10.8,19.9,22.4s-8.7,21.1-19.9,22.4
					c0.9,0.1,1.7,0.2,2.6,0.2c12.4,0,22.5-10.1,22.5-22.5S424.8,180.6,412.3,180.6z"/>
			</g>
			
				<radialGradient id="SVGID_37_" cx="412.3439" cy="191.9113" r="15.3179" gradientTransform="matrix(1 0 0 0.4982 0 96.308)" gradientUnits="userSpaceOnUse">
				<stop  offset="0" style="stop-color:#FFFFFF"/>
				<stop  offset="1" style="stop-color:#D8D7D7;stop-opacity:0"/>
			</radialGradient>
			<ellipse fill="url(#SVGID_37_)" cx="412.3" cy="191.9" rx="19.4" ry="9.6"/>
			
				<radialGradient id="SVGID_38_" cx="420.8021" cy="219.1248" r="15.2017" gradientTransform="matrix(0.8737 -0.4864 0.2423 0.4353 4.052426e-02 328.4411)" gradientUnits="userSpaceOnUse">
				<stop  offset="0" style="stop-color:#FFFFFF"/>
				<stop  offset="6.120825e-02" style="stop-color:#FAFAFA;stop-opacity:0.9388"/>
				<stop  offset="0.3689" style="stop-color:#E7E7E7;stop-opacity:0.6311"/>
				<stop  offset="0.6806" style="stop-color:#DCDBDB;stop-opacity:0.3194"/>
				<stop  offset="1" style="stop-color:#D8D7D7;stop-opacity:0"/>
			</radialGradient>
			<path fill="url(#SVGID_38_)" d="M433.7,211.6c0,5.3-9.5,15.1-20.2,15.1s-19.4-4.3-19.4-9.6s7.4-0.8,18.1-0.8
				S433.7,206.3,433.7,211.6z"/>
		</g>
	</g>
	<path fill="#F7CFA2" d="M598.7,303L598.7,303c3.7,1.2,7.3,0.5,7.9-1.5l7.3-19.2c0.7-2-1.8-4.6-5.5-5.9l0,0
		c-3.7-1.2-7.3-0.5-7.9,1.5l-7.3,19.2C592.5,299.1,595,301.8,598.7,303z"/>
	<path fill="#F7CFA2" d="M611.4,307.4L611.4,307.4c3.7,1.2,7.3,0.3,8.1-1.9l8.2-21.7c0.7-2.3-1.7-5.1-5.4-6.3l0,0
		c-3.7-1.2-7.3-0.3-8.1,1.9l-8.2,21.7C605.3,303.4,607.7,306.2,611.4,307.4z"/>
	<path fill="#F7CFA2" d="M622.8,309.8L622.8,309.8c3.7,1.2,7.3,0.3,8.1-1.9l8.2-21.7c0.7-2.3-1.7-5.1-5.4-6.3l0,0
		c-3.7-1.2-7.3-0.3-8.1,1.9l-8.2,21.7C616.7,305.8,619.1,308.6,622.8,309.8z"/>
	<path fill="#674C91" d="M177.8,553.7c4.3-6.2,6.6-32.6-7-28.2c-6.2,8-7.8,25.8,3.8,30.1c3.3-1.1,5-3.6,5-7.3"/>
</g>
</svg>
