<?xml version="1.0" encoding="utf-8"?>
<!-- Generator: Adobe Illustrator 21.1.0, SVG Export Plug-In . SVG Version: 6.00 Build 0)  -->
<svg version="1.1" id="Layer_1" xmlns="http://www.w3.org/2000/svg" xmlns:xlink="http://www.w3.org/1999/xlink" x="0px" y="0px"
	 viewBox="0 0 792 157.3" style="enable-background:new 0 0 792 157.3;" xml:space="preserve">
<style type="text/css">
	.st0{fill:#6BA8B2;}
	.st1{fill:#F7CFA2;}
	.st2{fill:#F0BA7A;}
	.st3{fill:#BBE8F2;}
	.st4{opacity:0.3;fill:#F2F8F9;}
	.st5{opacity:0.2;fill:#601515;}
	.st6{fill:#FFFF00;}
	.st7{fill:#594EEA;}
	.st8{fill:#3FBA51;}
	.st9{fill:#FF0B0B;}
	.st10{fill:#FFFFFF;}
	.st11{fill:#601515;}
	.st12{fill:#F9F9F9;}
	.st13{fill:none;stroke:#3FBA51;stroke-width:8;stroke-miterlimit:10;}
	.st14{fill:#EA6D50;}
	.st15{fill:none;}
	.st16{font-family:'Bungee-Regular';}
	.st17{font-size:26px;}
	.st18{font-family:'ElegantLux-Mager';}
	.st19{fill:none;stroke:#3FBA51;stroke-width:7.2;stroke-miterlimit:10;}
	.st20{fill:none;stroke:#3FBA51;stroke-width:7.2;stroke-linecap:round;stroke-miterlimit:10;}
</style>
<symbol  id="logo_2" viewBox="-289.8 -185.6 671.6 276.4">
	<g>
		<polygon class="st0" points="270.1,-78.1 -237.6,-102.2 -235.4,77.4 274.7,79.3 		"/>
	</g>
	<circle class="st1" cx="360.7" cy="-10.1" r="21.1"/>
	<circle class="st2" cx="360.7" cy="-10.1" r="13.9"/>
	<polygon class="st3" points="301.6,-112.3 -289.8,-82.5 -288.8,65.2 295.6,90.7 	"/>
	<path class="st4" d="M141.1,84c43.4-54.1,70-120.8,104.2-182.6c2.1-3.7,4-7.4,6-11.1l50.3-2.5l-6,203"/>
	<path class="st4" d="M-245.9,67.1c31.6-48,52.9-101.6,73.7-155.5l72.6-3.7c-30.6,53.9-62.1,107.3-91.7,161.6L-245.9,67.1z"/>
	<path class="st4" d="M55,80.2l-93.2-4.1c36.7-55,63.8-115.9,92.2-176l87.6-4.4C114.9-41.6,87.3,20.2,55,80.2z"/>
	<path class="st2" d="M263.7-69.1L263.7-69.1c-7.9,0-14.3,6.4-14.3,14.3V-3c0,7.9,6.4,14.3,14.3,14.3h0c7.9,0,14.3-6.4,14.3-14.3
		v-51.8C278-62.6,271.6-69.1,263.7-69.1z"/>
	<ellipse class="st1" cx="262.9" cy="11.3" rx="80.7" ry="54.2"/>
	<polygon class="st3" points="179.9,-164.7 -273,-170.4 -270.6,-127.4 	"/>
	<polygon class="st0" points="302.1,-142.6 -273.8,-169.9 -271.2,-125 307.2,-100.2 	"/>
	<ellipse class="st5" cx="262.9" cy="-41.7" rx="80.7" ry="54.2"/>
	<ellipse class="st1" cx="262.9" cy="-38.7" rx="80.7" ry="54.2"/>
	<path class="st1" d="M260.8-60.6L260.8-60.6c-7.9,0-14.3,6.4-14.3,14.3V5.6c0,7.9,6.4,14.3,14.3,14.3h0c7.9,0,14.3-6.4,14.3-14.3
		v-51.8C275.2-54.1,268.7-60.6,260.8-60.6z"/>
	<path class="st5" d="M-199.1,49.3c0,2.5-0.6,4.2-1.7,5.3c-1.1,1.1-2.9,1.7-5.3,1.7h-30.5c-2.5,0-4.2-0.6-5.3-1.7
		c-1.1-1.1-1.7-2.9-1.7-5.3V11.8c14.7,2.5,29.5,4.7,44.5,5.6V49.3z"/>
	<path class="st5" d="M-228.9,5.1v-45.4c0-1.8-0.5-3.3-1.6-4.5c-1-1.2-3.5-1.8-7.4-1.8c-4.1,0-6.8,0.6-7.9,1.8
		c-1.1,1.2-1.7,2.7-1.7,4.5v16.5c0,1.7-0.4,2.9-1.1,3.7c-0.8,0.8-2,1.1-3.7,1.1h-19.6c-1.7,0-2.9-0.4-3.7-1.1
		c-0.8-0.8-1.1-2-1.1-3.7v-21.9c0-4.1,0.6-7.9,1.7-11.3c1.1-3.4,3.2-6.3,6.1-8.6c2.9-2.4,6.9-4.3,12-5.6c5.1-1.3,11.5-2,19.4-2
		c7.9,0,14.4,0.7,19.6,2s9.2,3.2,12.1,5.6c2.9,2.4,5,5.3,6.1,8.6c1.2,3.4,1.8,7.1,1.8,11.3V9C-208.4,8.4-218.7,6.8-228.9,5.1z"/>
	<path class="st5" d="M-97.2-35.7c0-4.1-0.6-7.9-1.8-11.3s-3.4-6.3-6.5-8.6c-3.1-2.4-7.4-4.3-12.8-5.6c-5.4-1.3-12.3-2-20.7-2
		s-15.3,0.7-20.7,2c-5.4,1.3-9.7,3.2-12.8,5.6c-3.1,2.4-5.3,5.3-6.5,8.6c-1.2,3.4-1.8,7.1-1.8,11.3v66.8c0,1.7,0.4,2.9,1.1,3.7
		c0.8,0.8,2,1.1,3.7,1.1h21.2c1.7,0,2.9-0.4,3.7-1.1c0.8-0.8,1.1-2,1.1-3.7v-61.6c0-1.8,0.7-3.3,2-4.5c1.3-1.2,4.4-1.8,9-1.8
		c4.8,0,7.8,0.6,9.2,1.8s2,2.7,2,4.5v61.6c0,1.7,0.4,2.9,1.1,3.7c0.8,0.8,2,1.1,3.7,1.1h20.5c1.7,0,2.9-0.4,3.7-1.1
		c0.8-0.8,1.1-2,1.1-3.7V-35.7z"/>
	<path class="st5" d="M-14.8-61.2h-62.6c-1.7,0-2.9,0.4-3.7,1.1c-0.8,0.8-1.1,2-1.1,3.7v87.5c0,1.7,0.4,2.9,1.1,3.7
		c0.8,0.8,2,1.1,3.7,1.1h62.6c1.7,0,2.9-0.4,3.7-1.1c0.8-0.8,1.1-2,1.1-3.7V15.3c0-1.7-0.4-2.9-1.1-3.7c-0.8-0.8-2-1.1-3.7-1.1H-52
		V0.1h26.3c1.7,0,2.9-0.4,3.7-1.1c0.8-0.8,1.1-2,1.1-3.7v-14.4c0-1.7-0.4-2.9-1.1-3.7c-0.8-0.8-2-1.1-3.7-1.1H-52v-11.6h37.3
		c1.7,0,2.9-0.4,3.7-1.1c0.8-0.8,1.1-2,1.1-3.7v-15.8c0-1.7-0.4-3-1.1-3.7C-11.8-60.9-13.1-61.2-14.8-61.2z"/>
	<path class="st5" d="M61-1.1c-0.8,0.8-2,1.1-3.7,1.1H41.6c0,0,0,0,0,0H20.9c-1.7,0-2.9-0.4-3.7-1.1c-0.8-0.8-1.1-2-1.1-3.7v-14.4
		c0-1.7,0.4-2.9,1.1-3.7c0.8-0.8,2-1.1,3.7-1.1h15.7c0,0,0,0,0,0h20.7c1.7,0,2.9,0.4,3.7,1.1c0.8,0.8,1.1,2,1.1,3.7v14.4
		C62.1-3.1,61.8-1.9,61-1.1z"/>
	<path class="st5" d="M150-61.2h-32.9c-11.3,0-19.6,2.2-25,6.7s-8.2,11.4-8.2,20.8v42c0,9.4,2.7,16.3,8.2,20.9s13.8,6.8,25,6.8H150
		c1.7,0,2.9-0.4,3.7-1.1c0.8-0.8,1.1-2,1.1-3.7V14.8c0-1.7-0.4-2.9-1.1-3.7c-0.8-0.8-2-1.1-3.7-1.1h-27.1c-2.8,0-4.9-0.6-6.2-1.7
		c-1.3-1.1-2-2.8-2-5.1V-29c0-2.3,0.7-3.9,2-4.9c1.4-1,3.4-1.6,6.2-1.6H150c1.7,0,2.9-0.4,3.7-1.1c0.8-0.8,1.1-2,1.1-3.7v-16.1
		c0-1.7-0.4-3-1.1-3.7C153-60.9,151.7-61.2,150-61.2z"/>
	<path class="st5" d="M251.8-35.7c0-4.1-0.6-7.9-1.8-11.3c-1.2-3.4-3.4-6.3-6.5-8.6c-3.1-2.4-7.4-4.3-12.8-5.6
		c-5.4-1.3-12.4-2-20.7-2s-15.3,0.7-20.8,2c-5.5,1.3-9.8,3.2-12.9,5.6c-3.1,2.4-5.3,5.3-6.5,8.6c-1.2,3.4-1.8,7.1-1.8,11.3v46
		c0,4.1,0.6,7.9,1.8,11.3c1.2,3.4,3.4,6.3,6.5,8.7c3.1,2.4,7.4,4.3,12.9,5.7c5.5,1.3,12.4,2,20.8,2s15.3-0.7,20.7-2
		c5.4-1.4,9.7-3.2,12.8-5.7c3.1-2.4,5.3-5.3,6.5-8.7c1.2-3.4,1.8-7.1,1.8-11.3V-35.7z M196.3-34.5c0-2.2,0.8-4,2.4-5.4
		c1.6-1.5,5.3-2.2,11.2-2.2c5.8,0,9.6,0.7,11.2,2.2c1.6,1.5,2.4,3.3,2.4,5.4V9.1c0,2-0.8,3.8-2.4,5.3c-1.6,1.5-5.3,2.2-11.2,2.2
		c-5.8,0-9.6-0.7-11.2-2.2c-1.6-1.5-2.4-3.2-2.4-5.3V-34.5z"/>
	<path class="st5" d="M357.3-35.7c0-4.1-0.6-7.9-1.8-11.3c-1.2-3.4-3.4-6.3-6.5-8.6c-3.1-2.4-7.4-4.3-12.8-5.6
		c-5.4-1.3-12.4-2-20.7-2c-8.4,0-15.3,0.7-20.8,2c-5.5,1.3-9.8,3.2-12.9,5.6c-3.1,2.4-5.3,5.3-6.5,8.6c-1.2,3.4-1.8,7.1-1.8,11.3v46
		c0,4.1,0.6,7.9,1.8,11.3c1.2,3.4,3.4,6.3,6.5,8.7c3.1,2.4,7.4,4.3,12.9,5.7c5.5,1.3,12.4,2,20.8,2c8.4,0,15.3-0.7,20.7-2
		c5.4-1.4,9.7-3.2,12.8-5.7c3.1-2.4,5.3-5.3,6.5-8.7c1.2-3.4,1.8-7.1,1.8-11.3V-35.7z M304.1-30.9c0-1.8,0.7-3.3,2-4.5
		c1.3-1.2,4.5-1.8,9.3-1.8c4.9,0,8,0.6,9.3,1.8c1.3,1.2,2,2.7,2,4.5V5.5c0,1.7-0.7,3.2-2,4.4c-1.4,1.2-4.5,1.8-9.3,1.8
		c-4.9,0-8-0.6-9.3-1.8c-1.4-1.2-2-2.7-2-4.4V-30.9z"/>
	<line class="st5" x1="238.4" y1="-12.8" x2="290.9" y2="-12.8"/>
	<path class="st6" d="M-202.1,52.3c0,2.5-0.6,4.2-1.7,5.3c-1.1,1.1-2.9,1.7-5.3,1.7h-30.5c-2.5,0-4.2-0.6-5.3-1.7
		c-1.1-1.1-1.7-2.9-1.7-5.3V20.5c0.1-2.7,1.9-4.5,4-5c13.4,2.2,26.8,4.1,40.5,4.9V52.3z"/>
	<path class="st6" d="M-231.9,8.1v-45.4c0-1.8-0.5-3.3-1.6-4.5c-1-1.2-3.5-1.8-7.4-1.8c-4.1,0-6.8,0.6-7.9,1.8
		c-1.1,1.2-1.7,2.7-1.7,4.5v16.5c0,1.7-0.4,2.9-1.1,3.7c-0.8,0.8-2,1.1-3.7,1.1h-19.6c-1.7,0-2.9-0.4-3.7-1.1
		c-0.8-0.8-1.1-2-1.1-3.7v-21.9c0-4.1,0.6-7.9,1.7-11.3c1.1-3.4,3.2-6.3,6.1-8.6c2.9-2.4,6.9-4.3,12-5.6c5.1-1.3,11.5-2,19.4-2
		c7.9,0,14.4,0.7,19.6,2s9.2,3.2,12.1,5.6c2.9,2.4,5,5.3,6.1,8.6c1.2,3.4,1.8,7.1,1.8,11.3V12C-211.4,11.4-221.7,9.8-231.9,8.1z"/>
	<path class="st7" d="M-98.2-32.7c0-4.1-0.6-7.9-1.8-11.3s-3.4-6.3-6.5-8.6c-3.1-2.4-7.4-4.3-12.8-5.6c-5.4-1.3-12.3-2-20.7-2
		s-15.3,0.7-20.7,2c-5.4,1.3-9.7,3.2-12.8,5.6c-3.1,2.4-5.3,5.3-6.5,8.6c-1.2,3.4-1.8,7.1-1.8,11.3v66.8c0,1.7,0.4,2.9,1.1,3.7
		c0.8,0.8,2,1.1,3.7,1.1h21.2c1.7,0,2.9-0.4,3.7-1.1c0.8-0.8,1.1-2,1.1-3.7v-61.6c0-1.8,0.7-3.3,2-4.5c1.3-1.2,4.4-1.8,9-1.8
		c4.8,0,7.8,0.6,9.2,1.8s2,2.7,2,4.5v61.6c0,1.7,0.4,2.9,1.1,3.7c0.8,0.8,2,1.1,3.7,1.1h20.5c1.7,0,2.9-0.4,3.7-1.1
		c0.8-0.8,1.1-2,1.1-3.7V-32.7z"/>
	<path class="st8" d="M-14.8-58.2h-62.6c-1.7,0-2.9,0.4-3.7,1.1c-0.8,0.8-1.1,2-1.1,3.7v87.5c0,1.7,0.4,2.9,1.1,3.7
		c0.8,0.8,2,1.1,3.7,1.1h62.6c1.7,0,2.9-0.4,3.7-1.1c0.8-0.8,1.1-2,1.1-3.7V18.3c0-1.7-0.4-2.9-1.1-3.7c-0.8-0.8-2-1.1-3.7-1.1H-52
		V3.1h26.3c1.7,0,2.9-0.4,3.7-1.1c0.8-0.8,1.1-2,1.1-3.7v-14.4c0-1.7-0.4-2.9-1.1-3.7c-0.8-0.8-2-1.1-3.7-1.1H-52v-11.6h37.3
		c1.7,0,2.9-0.4,3.7-1.1c0.8-0.8,1.1-2,1.1-3.7v-15.8c0-1.7-0.4-3-1.1-3.7C-11.8-57.9-13.1-58.2-14.8-58.2z"/>
	<path class="st6" d="M58,1.9c-0.8,0.8-2,1.1-3.7,1.1H38.6c0,0,0,0,0,0H17.9c-1.7,0-2.9-0.4-3.7-1.1c-0.8-0.8-1.1-2-1.1-3.7v-14.4
		c0-1.7,0.4-2.9,1.1-3.7c0.8-0.8,2-1.1,3.7-1.1h15.7c0,0,0,0,0,0h20.7c1.7,0,2.9,0.4,3.7,1.1c0.8,0.8,1.1,2,1.1,3.7v14.4
		C59.1-0.1,58.8,1.1,58,1.9z"/>
	<path class="st9" d="M147-58.2h-32.9c-11.3,0-19.6,2.2-25,6.7s-8.2,11.4-8.2,20.8v42c0,9.4,2.7,16.3,8.2,20.9s13.8,6.8,25,6.8H147
		c1.7,0,2.9-0.4,3.7-1.1c0.8-0.8,1.1-2,1.1-3.7V17.8c0-1.7-0.4-2.9-1.1-3.7c-0.8-0.8-2-1.1-3.7-1.1h-27.1c-2.8,0-4.9-0.6-6.2-1.7
		c-1.3-1.1-2-2.8-2-5.1V-26c0-2.3,0.7-3.9,2-4.9c1.4-1,3.4-1.6,6.2-1.6H147c1.7,0,2.9-0.4,3.7-1.1c0.8-0.8,1.1-2,1.1-3.7v-16.1
		c0-1.7-0.4-3-1.1-3.7C150-57.9,148.7-58.2,147-58.2z"/>
	<circle class="st1" cx="162.1" cy="-10.7" r="21.1"/>
	<circle class="st2" cx="162.1" cy="-10.7" r="13.9"/>
	<g>
		<circle class="st10" cx="205.6" cy="-11.2" r="35.2"/>
		<circle class="st11" cx="203" cy="-11.2" r="10.5"/>
		<circle cx="203" cy="-11.2" r="4.1"/>
		<circle class="st12" cx="200.3" cy="-6.4" r="3"/>
	</g>
	<path class="st8" d="M251.8-32.7c0-4.1-0.6-7.9-1.8-11.3c-1.2-3.4-3.4-6.3-6.5-8.6c-3.1-2.4-7.4-4.3-12.8-5.6
		c-5.4-1.3-12.4-2-20.7-2s-15.3,0.7-20.8,2c-5.5,1.3-9.8,3.2-12.9,5.6c-3.1,2.4-5.3,5.3-6.5,8.6c-1.2,3.4-1.8,7.1-1.8,11.3v46
		c0,4.1,0.6,7.9,1.8,11.3c1.2,3.4,3.4,6.3,6.5,8.7c3.1,2.4,7.4,4.3,12.9,5.7c5.5,1.3,12.4,2,20.8,2s15.3-0.7,20.7-2
		c5.4-1.4,9.7-3.2,12.8-5.7c3.1-2.4,5.3-5.3,6.5-8.7c1.2-3.4,1.8-7.1,1.8-11.3V-32.7z M196.3-31.5c0-2.2,0.8-4,2.4-5.4
		c1.6-1.5,5.3-2.2,11.2-2.2c5.8,0,9.6,0.7,11.2,2.2c1.6,1.5,2.4,3.3,2.4,5.4v43.6c0,2-0.8,3.8-2.4,5.3c-1.6,1.5-5.3,2.2-11.2,2.2
		c-5.8,0-9.6-0.7-11.2-2.2c-1.6-1.5-2.4-3.2-2.4-5.3V-31.5z"/>
	<g>
		<circle class="st10" cx="318" cy="-11.2" r="34.9"/>
		<circle class="st11" cx="310" cy="-11.2" r="10.5"/>
		<circle cx="310" cy="-11.2" r="4.1"/>
		<circle class="st12" cx="307.3" cy="-6.4" r="3"/>
	</g>
	<path class="st8" d="M357.3-32.7c0-4.1-0.6-7.9-1.8-11.3c-1.2-3.4-3.4-6.3-6.5-8.6c-3.1-2.4-7.4-4.3-12.8-5.6
		c-5.4-1.3-12.4-2-20.7-2c-8.4,0-15.3,0.7-20.8,2c-5.5,1.3-9.8,3.2-12.9,5.6c-3.1,2.4-5.3,5.3-6.5,8.6c-1.2,3.4-1.8,7.1-1.8,11.3v46
		c0,4.1,0.6,7.9,1.8,11.3c1.2,3.4,3.4,6.3,6.5,8.7c3.1,2.4,7.4,4.3,12.9,5.7c5.5,1.3,12.4,2,20.8,2c8.4,0,15.3-0.7,20.7-2
		c5.4-1.4,9.7-3.2,12.8-5.7c3.1-2.4,5.3-5.3,6.5-8.7c1.2-3.4,1.8-7.1,1.8-11.3V-32.7z M304.1-27.9c0-1.8,0.7-3.3,2-4.5
		c1.3-1.2,4.5-1.8,9.3-1.8c4.9,0,8,0.6,9.3,1.8c1.3,1.2,2,2.7,2,4.5V8.5c0,1.7-0.7,3.2-2,4.4c-1.4,1.2-4.5,1.8-9.3,1.8
		c-4.9,0-8-0.6-9.3-1.8c-1.4-1.2-2-2.7-2-4.4V-27.9z"/>
	<line class="st13" x1="235.4" y1="-9.8" x2="287.9" y2="-9.8"/>
	<path class="st11" d="M248.6,47.7c-6.3,2.3-21.6,10.4-20,19.1c1,5.5,3.8,3.7,8,1.5c-1.1,2.6-2.5,11.8,1.3,13.3c4,1.6,7.6-6,7.7-9.2
		c-0.5,3.2,2.7,7.7,6.4,6.4c3.3-1.1,2.1-6.7,2-9.9c4.3,1.7,8.7-2.4,7.6-7.1c-0.9-4.1-7.2-8.1-9.4-11.9
		C249.7,45.7,249.8,44.9,248.6,47.7z"/>
	<path class="st14" d="M316.2-76.2c0,0-24.1-17.4-53.8-17.4c-29.7,0-53.8,17.4-53.8,17.4s26.2-4.8,55.9-4.8S316.2-76.2,316.2-76.2z"
		/>
	<g>
		<polygon class="st15" points="302.2,-165.6 -267.8,-185.6 -270,-131.3 300,-111.3 		"/>
		
			<text transform="matrix(0.9992 4.015015e-02 4.015015e-02 -0.9992 -254.6538 -162.3925)" class="st11 st18" style="font-size:47.6278px; letter-spacing:6;">Juego Cooperativo </text>
	</g>
	<g>
		<polygon class="st15" points="302.2,-162.9 -267.8,-182.9 -270,-128.6 300,-108.6 		"/>
		
			<text transform="matrix(0.9992 4.015015e-02 4.015015e-02 -0.9992 -254.6538 -159.6931)" class="st10 st18" style="font-size:47.6278px; letter-spacing:6;">Juego Cooperativo </text>
	</g>
</symbol>
<g id="Layer_1_1_">
	<rect x="327.4" y="40.9" class="st15" width="391.9" height="48.3"/>
	<text transform="matrix(1 0 0 1 327.4094 59.6208)" class="st11 st16 st17">ALUMNOS de la partida</text>
	<rect x="327.4" y="84.9" class="st15" width="391.9" height="48.3"/>
	<text transform="matrix(1 0 0 1 327.4094 102.1911)" class="st11 st18 st17">Selecionar jugador </text>
	<polyline class="st15" points="719.3,28.9 717,77.2 327.4,77.2 	"/>
	<g>
		<g>
			<polygon class="st0" points="262.1,82.4 79.3,91.1 80.1,26.4 262.1,34.4 			"/>
			<path class="st6" d="M103.1,66.2c0,1.3-0.2,2.6-0.6,3.7c-0.4,1.1-1,2-2,2.8c-0.9,0.8-2.3,1.4-3.9,1.8c-1.7,0.4-3.8,0.7-6.3,0.7
				c-2.5,0-4.6-0.2-6.3-0.7c-1.6-0.4-2.9-1-3.9-1.8c-0.9-0.8-1.6-1.7-2-2.8c-0.4-1.1-0.5-2.3-0.5-3.7v-7.1c0-0.6,0.1-1,0.4-1.2
				c0.2-0.2,0.6-0.4,1.2-0.4h6.3c0.6,0,1,0.1,1.2,0.4c0.2,0.2,0.4,0.6,0.4,1.2v5.3c0,0.6,0.2,1.1,0.5,1.5c0.4,0.4,1.2,0.6,2.6,0.6
				c1.3,0,2-0.2,2.4-0.6c0.3-0.4,0.5-0.9,0.5-1.5V44.6c0-0.6,0.1-1,0.4-1.2c0.2-0.2,0.6-0.4,1.2-0.4h6.9c0.6,0,1,0.1,1.2,0.4
				c0.2,0.2,0.4,0.6,0.4,1.2V66.2z"/>
			<path class="st7" d="M135.7,66.2c0,1.3-0.2,2.6-0.6,3.7c-0.4,1.1-1.1,2-2.1,2.8c-1,0.8-2.4,1.4-4.1,1.8c-1.7,0.4-4,0.7-6.7,0.7
				s-4.9-0.2-6.7-0.7c-1.7-0.4-3.1-1-4.1-1.8c-1-0.8-1.7-1.7-2.1-2.8c-0.4-1.1-0.6-2.3-0.6-3.7V44.6c0-0.6,0.1-1,0.4-1.2
				c0.2-0.2,0.6-0.4,1.2-0.4h6.9c0.6,0,1,0.1,1.2,0.4c0.2,0.2,0.4,0.6,0.4,1.2v19.9c0,0.6,0.2,1.1,0.7,1.5c0.4,0.4,1.4,0.6,2.9,0.6
				c1.5,0,2.5-0.2,3-0.6c0.4-0.4,0.7-0.9,0.7-1.5V44.6c0-0.6,0.1-1,0.4-1.2c0.2-0.2,0.6-0.4,1.2-0.4h6.6c0.6,0,1,0.1,1.2,0.4
				c0.2,0.2,0.4,0.6,0.4,1.2V66.2z"/>
			<path class="st8" d="M163.4,74.5h-20.3c-0.6,0-1-0.1-1.2-0.4c-0.2-0.2-0.4-0.6-0.4-1.2V44.6c0-0.6,0.1-1,0.4-1.2
				c0.2-0.2,0.6-0.4,1.2-0.4h20.3c0.6,0,1,0.1,1.2,0.4c0.2,0.2,0.4,0.6,0.4,1.2v5.1c0,0.6-0.1,1-0.4,1.2c-0.2,0.2-0.6,0.4-1.2,0.4
				h-12.1v3.4h8.5c0.6,0,1,0.1,1.2,0.4c0.2,0.2,0.4,0.6,0.4,1.2v4.7c0,0.6-0.1,1-0.4,1.2c-0.2,0.2-0.6,0.4-1.2,0.4h-8.5v3.8h12.1
				c0.6,0,1,0.1,1.2,0.4c0.2,0.2,0.4,0.6,0.4,1.2v5.1c0,0.6-0.1,1-0.4,1.2C164.3,74.4,163.9,74.5,163.4,74.5z"/>
			<path class="st9" d="M190.9,74.5h-10.7c-3.6,0-6.3-0.7-8.1-2.2s-2.6-3.7-2.6-6.7V52c0-3,0.9-5.3,2.6-6.8s4.5-2.2,8.1-2.2h10.7
				c0.6,0,1,0.1,1.2,0.4c0.2,0.2,0.4,0.6,0.4,1.2v5.3c0,0.6-0.1,1-0.4,1.2c-0.2,0.2-0.6,0.4-1.2,0.4h-8.8c-0.9,0-1.6,0.2-2,0.5
				c-0.4,0.4-0.7,0.9-0.7,1.6v10.4c0,0.7,0.2,1.3,0.7,1.6c0.4,0.3,1.1,0.5,2,0.5h8.8c0.6,0,1,0.1,1.2,0.4c0.2,0.2,0.4,0.6,0.4,1.2
				v5.2c0,0.6-0.1,1-0.4,1.2C191.8,74.4,191.4,74.5,190.9,74.5z"/>
			<path class="st8" d="M223.8,66.2c0,1.3-0.2,2.6-0.6,3.7c-0.4,1.1-1.1,2-2.1,2.8c-1,0.8-2.4,1.4-4.2,1.8c-1.8,0.4-4,0.7-6.7,0.7
				s-5-0.2-6.7-0.7c-1.8-0.4-3.2-1-4.2-1.8s-1.7-1.7-2.1-2.8c-0.4-1.1-0.6-2.3-0.6-3.7V51.3c0-1.3,0.2-2.6,0.6-3.7
				c0.4-1.1,1.1-2,2.1-2.8c1-0.8,2.4-1.4,4.2-1.8c1.8-0.4,4-0.7,6.7-0.7s5,0.2,6.7,0.7c1.8,0.4,3.1,1,4.2,1.8c1,0.8,1.7,1.7,2.1,2.8
				c0.4,1.1,0.6,2.3,0.6,3.7V66.2z M205.9,65.8c0,0.7,0.3,1.3,0.8,1.8c0.5,0.5,1.7,0.7,3.6,0.7s3.1-0.2,3.6-0.7
				c0.5-0.5,0.8-1.1,0.8-1.8V51.7c0-0.7-0.3-1.2-0.8-1.7c-0.5-0.5-1.7-0.7-3.6-0.7s-3.1,0.2-3.6,0.7c-0.5,0.5-0.8,1-0.8,1.7V65.8z"
				/>
			<path class="st8" d="M256.1,66.2c0,1.3-0.2,2.6-0.6,3.7c-0.4,1.1-1.1,2-2.1,2.8c-1,0.8-2.4,1.4-4.2,1.8c-1.8,0.4-4,0.7-6.7,0.7
				s-5-0.2-6.7-0.7c-1.8-0.4-3.2-1-4.2-1.8c-1-0.8-1.7-1.7-2.1-2.8c-0.4-1.1-0.6-2.3-0.6-3.7V51.3c0-1.3,0.2-2.6,0.6-3.7
				c0.4-1.1,1.1-2,2.1-2.8c1-0.8,2.4-1.4,4.2-1.8c1.8-0.4,4-0.7,6.7-0.7s5,0.2,6.7,0.7c1.8,0.4,3.1,1,4.2,1.8c1,0.8,1.7,1.7,2.1,2.8
				s0.6,2.3,0.6,3.7V66.2z M238.8,64.7c0,0.6,0.2,1.1,0.7,1.5c0.4,0.4,1.4,0.6,3,0.6c1.6,0,2.6-0.2,3-0.6c0.4-0.4,0.7-0.9,0.7-1.5
				V52.9c0-0.6-0.2-1-0.7-1.4c-0.4-0.4-1.4-0.6-3-0.6c-1.6,0-2.6,0.2-3,0.6c-0.4,0.4-0.7,0.9-0.7,1.4V64.7z"/>
			<line class="st19" x1="218.5" y1="58.8" x2="235.5" y2="58.8"/>
			<g>
				<polyline class="st20" points="202.3,50.5 193.4,49.5 190.8,52 				"/>
			</g>
		</g>
		
			<use xlink:href="#logo_2"  width="671.6" height="276.4" id="XMLID_2_" x="-289.8" y="-185.6" transform="matrix(0.324 0 0 -0.324 168.0113 55.1607)" style="overflow:visible;"/>
	</g>
</g>
<g id="Layer_2">
</g>
</svg>
