<?xml version="1.0" encoding="utf-8"?>
<!-- Generator: Adobe Illustrator 21.1.0, SVG Export Plug-In . SVG Version: 6.00 Build 0)  -->
<svg version="1.1" id="Layer_1" xmlns="http://www.w3.org/2000/svg" xmlns:xlink="http://www.w3.org/1999/xlink" x="0px" y="0px"
	 viewBox="0 0 1066.7 612" style="enable-background:new 0 0 1066.7 612;" xml:space="preserve">
<style type="text/css">
	.st0{fill:#601515;stroke:#8C8779;stroke-width:6;stroke-miterlimit:10;}
	.st1{fill:url(#SVGID_1_);}
	.st2{fill:none;stroke:#4E9FA8;stroke-width:12;stroke-miterlimit:10;}
	.st3{fill:#4E9FA8;}
	.st4{fill:url(#SVGID_2_);}
	.st5{fill:url(#SVGID_3_);}
	.st6{fill:#EFEA35;}
	.st7{fill:url(#SVGID_4_);}
	.st8{fill:url(#SVGID_5_);}
	.st9{fill:url(#SVGID_6_);}
	.st10{fill:url(#SVGID_7_);}
	.st11{fill:url(#SVGID_8_);}
	.st12{fill:#C1C1B8;}
	.st13{fill:#9B9B97;}
	.st14{fill:#D8D8D2;}
	.st15{fill:#601515;}
	.st16{opacity:0.4;}
	.st17{opacity:0.6;}
	.st18{fill:#CEBABA;}
	.st19{fill:#EAEAE5;}
	.st20{fill:url(#SVGID_9_);}
	.st21{opacity:0.5;fill:#302929;}
	.st22{fill:#EF3F50;}
	.st23{fill:url(#SVGID_10_);}
	.st24{fill:url(#SVGID_11_);}
	.st25{fill:url(#SVGID_12_);}
	.st26{fill:url(#SVGID_13_);}
	.st27{opacity:0.6;fill:#302929;}
	.st28{fill:none;stroke:#9B9B97;stroke-miterlimit:10;}
</style>
<path class="st0" d="M660.8,461.4"/>
<radialGradient id="SVGID_1_" cx="524.9821" cy="308.6439" r="443.4723" gradientUnits="userSpaceOnUse">
	<stop  offset="0" style="stop-color:#000000"/>
	<stop  offset="0.8674" style="stop-color:#601515"/>
	<stop  offset="1" style="stop-color:#7F2700"/>
</radialGradient>
<circle class="st1" cx="525" cy="308.6" r="253.8"/>
<g>
	<line class="st2" x1="242.3" y1="310.7" x2="528.5" y2="310.7"/>
	<line class="st2" x1="768.1" y1="136.6" x2="528.5" y2="310.7"/>
	<line class="st2" x1="439.9" y1="38" x2="528.5" y2="310.7"/>
	<line class="st2" x1="764.8" y1="482.3" x2="528.5" y2="310.7"/>
	<line class="st2" x1="437.7" y1="590.1" x2="528.5" y2="310.7"/>
</g>
<circle class="st3" cx="525" cy="308.6" r="103.7"/>
<radialGradient id="SVGID_2_" cx="832.7568" cy="503.2188" r="69.2291" gradientUnits="userSpaceOnUse">
	<stop  offset="0" style="stop-color:#000000"/>
	<stop  offset="0.8674" style="stop-color:#601515"/>
	<stop  offset="1" style="stop-color:#7F2700"/>
</radialGradient>
<circle class="st4" cx="832.8" cy="503.2" r="47"/>
<g>
	
		<radialGradient id="SVGID_3_" cx="1457.7903" cy="4706.311" r="17.0199" gradientTransform="matrix(4.0173 0 0 4.0079 -5021.3237 -18355.2012)" gradientUnits="userSpaceOnUse">
		<stop  offset="0" style="stop-color:#FFFFFF"/>
		<stop  offset="1" style="stop-color:#D8D7D7;stop-opacity:0"/>
	</radialGradient>
	<ellipse class="st5" cx="835.1" cy="507.3" rx="86.6" ry="86"/>
	<g>
		<circle class="st6" cx="833.9" cy="503.1" r="52.7"/>
		<linearGradient id="SVGID_4_" gradientUnits="userSpaceOnUse" x1="817.3342" y1="580.2459" x2="847.2792" y2="484.8607">
			<stop  offset="0.1227" style="stop-color:#F1A100"/>
			<stop  offset="0.4163" style="stop-color:#DCA54D;stop-opacity:0.366"/>
			<stop  offset="1" style="stop-color:#E6BF80;stop-opacity:0.2"/>
		</linearGradient>
		<path class="st7" d="M833.9,555.8c29.1,0,52.7-23.6,52.7-52.7c0-4.1-0.5-8-1.3-11.8c-29.8,18.5-76.8,8.7-98.6,35.2
			C795.2,543.9,813.2,555.8,833.9,555.8z"/>
		
			<linearGradient id="SVGID_5_" gradientUnits="userSpaceOnUse" x1="1009.4857" y1="1218.5181" x2="1068.869" y2="1278.4103" gradientTransform="matrix(1.1692 -9.563129e-06 0 1.1692 -399.6054 -975.2127)">
			<stop  offset="0" style="stop-color:#FFFFFF"/>
			<stop  offset="1" style="stop-color:#D8D7D7;stop-opacity:0"/>
		</linearGradient>
		<circle class="st8" cx="832.7" cy="502" r="49.3"/>
		<g>
			
				<linearGradient id="SVGID_6_" gradientUnits="userSpaceOnUse" x1="1012.7651" y1="1215.2666" x2="1072.1484" y2="1275.1588" gradientTransform="matrix(1.1692 -9.563129e-06 0 1.1692 -399.6054 -975.2127)">
				<stop  offset="0" style="stop-color:#FFFFFF"/>
				<stop  offset="1" style="stop-color:#D8D7D7;stop-opacity:0"/>
			</linearGradient>
			<path class="st9" d="M832.7,452.7c-1.9,0-3.8,0.1-5.7,0.3c24.6,2.8,43.6,23.7,43.6,49s-19.1,46.2-43.6,49
				c1.9,0.2,3.8,0.3,5.7,0.3c27.2,0,49.3-22.1,49.3-49.3C882.1,474.8,860,452.7,832.7,452.7z"/>
		</g>
		
			<radialGradient id="SVGID_7_" cx="781.7216" cy="915.7391" r="17.0199" gradientTransform="matrix(1.969 0 0 0.9809 -706.4207 -420.8049)" gradientUnits="userSpaceOnUse">
			<stop  offset="0" style="stop-color:#FFFFFF"/>
			<stop  offset="1" style="stop-color:#D8D7D7;stop-opacity:0"/>
		</radialGradient>
		<ellipse class="st10" cx="832.8" cy="477.4" rx="42.5" ry="21"/>
		
			<radialGradient id="SVGID_8_" cx="791.1196" cy="945.9764" r="16.8908" gradientTransform="matrix(1.7203 -0.9578 0.4771 0.857 -961.0662 483.9661)" gradientUnits="userSpaceOnUse">
			<stop  offset="0" style="stop-color:#FFFFFF"/>
			<stop  offset="6.120825e-02" style="stop-color:#FAFAFA;stop-opacity:0.9388"/>
			<stop  offset="0.3689" style="stop-color:#E7E7E7;stop-opacity:0.6311"/>
			<stop  offset="0.6806" style="stop-color:#DCDBDB;stop-opacity:0.3194"/>
			<stop  offset="1" style="stop-color:#D8D7D7;stop-opacity:0"/>
		</radialGradient>
		<path class="st11" d="M879.6,520.5c0,11.6-20.8,33-44.3,33c-23.5,0-42.5-9.4-42.5-21c0-11.6,16.2-1.7,39.7-1.7
			C856,530.8,879.6,508.9,879.6,520.5z"/>
	</g>
</g>
<path class="st12" d="M868,138.7H749.6c-6.6,0-12-5.4-12-12V47.2c0-6.6,10.4-14,16.9-17.1l23-12c6.6,0,111.8,90.2,111.8,96.8
	l-7.4,14.1C878.2,135.7,874.6,138.7,868,138.7z"/>
<path class="st13" d="M825.9,55.6c-0.4,1.2-0.8,2.4-1.4,3.6c-13.3,33.2-48.2,69.1-86.8,69.3c0.8,5.8,5.8,10.3,11.9,10.3H868
	c6.6,0,10.1-3,13.8-9.7l7.4-14.1C889.3,111.3,856.2,81.3,825.9,55.6z"/>
<path class="st14" d="M878.7,121.7h-98.1c-6.1,0-11-5-11-11V29.3c0-6.1,5-11,11-11h98.1c6.1,0,11,5,11,11v81.5
	C889.7,116.8,884.8,121.7,878.7,121.7z"/>
<g>
	<g>
		<path class="st15" d="M504.5,128.9c2.2,0,2.2-3.4,0-3.4C502.3,125.5,502.3,128.9,504.5,128.9L504.5,128.9z"/>
	</g>
</g>
<g class="st16">
	<g>
		<path class="st15" d="M622.6,525.3c11-6.7,21.6-13.8,31.8-21.6c2.2-1.6-0.4-4.8-2.2-2.9c-8.9,9.2-18.9,17.4-29.7,24.3
			C622.4,525.2,622.5,525.4,622.6,525.3L622.6,525.3z"/>
	</g>
	<g>
		<path class="st15" d="M739,408.5c6.6-9.8,12.3-19.7,14.2-31.6c0.6-3.9-5-4.7-5.3-0.7c-1.1,11.1-3.5,22.3-9.8,31.7
			C737.6,408.5,738.6,409.1,739,408.5L739,408.5z"/>
	</g>
	<g>
		<path class="st15" d="M669.6,134c6.7,5.3,13.4,10.6,20.2,15.9c2.7,2.1,5.8-1.9,2.9-3.8c-7.2-4.7-14.3-9.4-21.5-14.1
			C670,131.3,668.5,133.1,669.6,134L669.6,134z"/>
	</g>
	<g>
		<path class="st15" d="M723.9,197.5c11.3,18.5,18.7,39.4,23.9,60.4c0.9,3.6,6.6,2,5.5-1.5c-6.5-21.3-16.6-40.6-28.2-59.6
			C724.6,196.1,723.4,196.8,723.9,197.5L723.9,197.5z"/>
	</g>
	<g>
		<path class="st15" d="M693.9,220.2c0.7,8.7,1,17.3,1.6,26c0.2,3.1,4.7,2.5,4.2-0.6c-1.5-8.5-3.2-17-4.5-25.6
			C695.1,219.3,693.9,219.5,693.9,220.2L693.9,220.2z"/>
	</g>
	<g>
		<path class="st15" d="M430.7,93.6c-10.6,5.3-21.5,9.9-32,15.4c-8.2,4.2-16.7,8.2-21.9,16.3c-1.3,1.9,1.8,3.7,3.1,1.8
			c5.5-8.1,15.5-12.3,23.8-17C412.9,104.9,421.6,98.9,430.7,93.6C430.7,93.6,430.7,93.6,430.7,93.6L430.7,93.6z"/>
	</g>
	<g>
		<path class="st15" d="M294.1,259.1c-1.2,7.2-2.3,14.4-3.6,21.6c-0.5,2.7,3.6,3.2,3.7,0.5c0.1-7.3,0.4-14.7,0.7-22
			C294.9,258.7,294.2,258.6,294.1,259.1L294.1,259.1z"/>
	</g>
	<g class="st17">
		<path class="st15" d="M291.8,340.2c0.1,18.3,4.7,35.6,11.5,52.5c6.3,15.9,14.8,30.7,26.6,43.2c1.3,1.4,3.6-0.4,2.6-2
			c-17.9-28.7-36.3-59.2-39.6-93.7C292.9,339.5,291.8,339.4,291.8,340.2L291.8,340.2z"/>
	</g>
	<g>
		<path class="st15" d="M363.2,461.4c8.4,9.7,17.3,18.7,27.3,26.7c1.3,1.1,3.2-0.8,1.9-1.9c-9.9-8-19.6-16.4-28.6-25.4
			C363.4,460.5,362.9,461,363.2,461.4L363.2,461.4z"/>
	</g>
	<g>
		<path class="st15" d="M410.1,448.8c1.6,1,3.1,1.8,4.3,3.2c0.9,1.1,2.1,1.9,3.2,2.7c1.8,1.3,3.9-2,1.8-3.1
			c-1.4-0.7-2.6-1.4-4.1-1.7c-1.7-0.3-3.1-1.5-4.5-2.3C410.1,447.2,409.4,448.3,410.1,448.8L410.1,448.8z"/>
	</g>
	<g>
		<path class="st15" d="M350.7,328.4c2.1,7.9,4,15.7,5.8,23.6c0.8,3.4,6.1,1.5,4.6-1.9c-3.2-7.3-6.4-14.6-9.3-22
			C351.5,327.5,350.5,327.7,350.7,328.4L350.7,328.4z"/>
	</g>
	<g>
		<path class="st15" d="M355.9,271.4c2.1-4.4,4.3-8.8,6.2-13.3c1.1-2.6-2.7-4.1-3.5-1.5c-1.4,4.8-2.5,9.6-3.7,14.4
			C354.8,271.6,355.7,272,355.9,271.4L355.9,271.4z"/>
	</g>
	<g>
		<path class="st15" d="M532.8,65c2.6,0.2,5.1,0.7,7.5,1.3c2.4,0.7,4.8,1.5,7.1,2.4c21,7.5,43,12.5,64,19.5c-5-11-20-12-30-14
			c-12-3-24-2-35-8.3c-2.2-0.8-4.4-1.4-6.7-1.6C537.5,64.1,535.2,64.3,532.8,65L532.8,65z"/>
	</g>
	<g>
		<path class="st15" d="M710.5,343.6c2.2,5.7-5.1,7.4-7.1,11.2c-1.1,2-0.7,3.6-0.2,5.7c1,3.6,0.6,4.1-1.1,7c-0.9,1.6-2,3-3,4.6
			c-2.2,3.6-4.4,7.3-6.6,11c-1.3,2.2,1.9,3.9,3.4,2c2.9-4,6-7.8,8.8-11.8c2.1-3,4.9-6.3,4.5-10.2c-0.1-1.7-1.1-2.5-1.5-4
			c-1-3.2,0.4-5.6,2.1-8.1c1.7-2.5,3.2-4.6,2-7.6C711.5,342.4,710.2,342.8,710.5,343.6L710.5,343.6z"/>
	</g>
	<g>
		<path class="st15" d="M436.4,139.8c-9.1,3.8-16.9,9.5-23.1,17.2c-1.3,1.6,1,3.5,2.3,1.8c5.6-7.7,12.7-13.8,21.2-18.1
			C437.3,140.5,436.9,139.6,436.4,139.8L436.4,139.8z"/>
	</g>
	<g>
		<path class="st15" d="M654.5,179c2.3,0,2.3-3.6,0-3.6C652.2,175.4,652.2,179,654.5,179L654.5,179z"/>
	</g>
	<g>
		<path class="st15" d="M628.8,204.7c-14-6.4-28.9-10.4-44.3-11.7c-1.5-0.1-1.5,2.3,0,2.4c15.1,0.9,29.8,4.4,43.7,10.4
			C628.8,206,629.5,205,628.8,204.7L628.8,204.7z"/>
	</g>
	<g>
		<path class="st15" d="M502.5,520.8c2.1,0,2.1-3.2,0-3.2C500.4,517.6,500.4,520.8,502.5,520.8L502.5,520.8z"/>
	</g>
	<g>
		<path class="st15" d="M488.5,533.8c1.3,0.1,2.7,0.2,4,0.3c1.2,0.1,1.2-1.9,0-1.8c-1.3,0.1-2.7,0.2-4,0.3
			C487.7,532.6,487.7,533.7,488.5,533.8L488.5,533.8z"/>
	</g>
	<g>
		<path class="st15" d="M506,109c0.4,0.1,0.9,0.2,1.3,0.3c-0.3-0.2-0.6-0.4-0.9-0.5c0.1,0.1,0.2,0.2,0.3,0.3
			c0.7,0.8,1.9,0.9,2.8,0.5c0.9-0.4,1.6-1.3,1.6-2.4c0-0.9-0.5-1.8-1.3-2.2c-0.9-0.5-2.4-0.5-3.1,0.4c-0.1,0.1-0.2,0.2-0.3,0.3
			c0.3-0.2,0.6-0.4,0.9-0.5c-0.4,0.1-0.9,0.2-1.3,0.3C504.2,105.7,504.2,108.6,506,109L506,109z"/>
	</g>
	<g>
		<path class="st15" d="M464.5,196.8c2.1,0,2.1-3.3,0-3.3C462.4,193.5,462.4,196.8,464.5,196.8L464.5,196.8z"/>
	</g>
	<g>
		<path class="st15" d="M413.5,264c2.4,0,2.4-3.8,0-3.8C411.1,260.3,411.1,264,413.5,264L413.5,264z"/>
	</g>
	<g>
		<path class="st15" d="M391.5,296.8c2.1,0,2.1-3.2,0-3.2C389.4,293.6,389.4,296.8,391.5,296.8L391.5,296.8z"/>
	</g>
	<g>
		<path class="st15" d="M392.5,351.9c2.2,0,2.2-3.5,0-3.5C390.2,348.4,390.2,351.9,392.5,351.9L392.5,351.9z"/>
	</g>
	<g>
		<path class="st15" d="M452.5,445.5c3,0,3-4.6,0-4.6C449.5,440.9,449.5,445.5,452.5,445.5L452.5,445.5z"/>
	</g>
	<g>
		<path class="st15" d="M511.5,456.6c3.1,0,3.1-4.8,0-4.8C508.4,451.8,508.4,456.6,511.5,456.6L511.5,456.6z"/>
	</g>
	<g>
		<path class="st15" d="M615.5,409.3c2.7,0,2.7-4.2,0-4.2C612.8,405.1,612.8,409.3,615.5,409.3L615.5,409.3z"/>
	</g>
	<g>
		<path class="st15" d="M650.5,341.8c3.4,0,3.4-5.3,0-5.3C647,336.5,647,341.8,650.5,341.8L650.5,341.8z"/>
	</g>
	<g>
		<path class="st15" d="M655.5,268.4c2.8,0,2.8-4.4,0-4.4C652.6,264,652.6,268.4,655.5,268.4L655.5,268.4z"/>
	</g>
	<g>
		<path class="st15" d="M681.5,249.5c3,0,3-4.6,0-4.6C678.5,244.9,678.5,249.5,681.5,249.5L681.5,249.5z"/>
	</g>
	<g>
		<path class="st15" d="M628.5,181.1c2.5,0,2.5-3.8,0-3.8C626,177.3,626,181.1,628.5,181.1L628.5,181.1z"/>
	</g>
	<g>
		<path class="st15" d="M533.5,176.1c2.4,0,2.4-3.8,0-3.8C531,172.3,531,176.1,533.5,176.1L533.5,176.1z"/>
	</g>
	<g>
		<path class="st15" d="M286.5,236c2.3,0,2.3-3.6,0-3.6C284.2,232.4,284.2,236,286.5,236L286.5,236z"/>
	</g>
	<g>
		<path class="st18" d="M373.5,277.7c0.3-0.8,0.3-1.7,0.4-2.6c0.1-1.3-1.2-2.5-2.4-2.4c-1.2,0.1-2.5,1.1-2.4,2.4
			c0.1,0.9,0.1,1.7,0.4,2.6c0.3,0.9,1.1,1.6,2.1,1.6C372.5,279.3,373.2,278.7,373.5,277.7L373.5,277.7z"/>
	</g>
	<g>
		<path class="st18" d="M376.5,347.2c2.6,0,2.6-4,0-4C373.9,343.2,373.9,347.2,376.5,347.2L376.5,347.2z"/>
	</g>
	<g>
		<path class="st18" d="M410.5,359.7c3.3,0,3.3-5.1,0-5.1C407.2,354.6,407.2,359.7,410.5,359.7L410.5,359.7z"/>
	</g>
	<g>
		<path class="st18" d="M405.5,334.7c3.2,0,3.2-5,0-5C402.3,329.7,402.3,334.7,405.5,334.7L405.5,334.7z"/>
	</g>
	<g>
		<path class="st18" d="M472.5,175.4c2.9,0,2.9-4.5,0-4.5C469.6,170.9,469.6,175.4,472.5,175.4L472.5,175.4z"/>
	</g>
	<g>
		<path class="st18" d="M519.5,185.1c2.4,0,2.4-3.8,0-3.8C517,181.3,517,185.1,519.5,185.1L519.5,185.1z"/>
	</g>
	<g>
		<path class="st18" d="M594.5,200.2c2.6,0,2.6-4,0-4C591.9,196.2,591.9,200.2,594.5,200.2L594.5,200.2z"/>
	</g>
	<g>
		<path class="st18" d="M670.5,199.5c3,0,3-4.6,0-4.6C667.5,194.9,667.5,199.5,670.5,199.5L670.5,199.5z"/>
	</g>
	<g>
		<path class="st18" d="M655.5,285.1c2.5,0,2.5-3.9,0-3.9C652.9,281.2,652.9,285.1,655.5,285.1L655.5,285.1z"/>
	</g>
	<g>
		<path class="st18" d="M659.5,373c2.4,0,2.4-3.7,0-3.7C657.1,369.3,657.1,373,659.5,373L659.5,373z"/>
	</g>
	<g>
		<path class="st18" d="M644.5,472.6c3.2,0,3.2-4.9,0-4.9C641.3,467.7,641.3,472.6,644.5,472.6L644.5,472.6z"/>
	</g>
	<g>
		<path class="st18" d="M516.5,505c3.7,0,3.7-5.7,0-5.7C512.8,499.3,512.8,505,516.5,505L516.5,505z"/>
	</g>
	<g>
		<path class="st18" d="M468.5,483.4c4.1,0,4.1-6.4,0-6.4C464.3,477,464.3,483.4,468.5,483.4L468.5,483.4z"/>
	</g>
	<g>
		<path class="st18" d="M390.5,426.6c3.1,0,3.1-4.8,0-4.8C387.4,421.8,387.4,426.6,390.5,426.6L390.5,426.6z"/>
	</g>
	<g>
		<path class="st18" d="M314.5,293.1c3.7,0,3.7-5.8,0-5.8C310.7,287.3,310.7,293.1,314.5,293.1L314.5,293.1z"/>
	</g>
	<g>
		<path class="st18" d="M407.5,155.4c2.9,0,2.9-4.5,0-4.5C404.6,150.9,404.5,155.4,407.5,155.4L407.5,155.4z"/>
	</g>
	<g>
		<path class="st18" d="M459.5,156.8c3.4,0,3.4-5.3,0-5.3C456.1,151.5,456.1,156.8,459.5,156.8L459.5,156.8z"/>
	</g>
	<g>
		<path class="st18" d="M454.5,130.4c2.9,0,2.9-4.5,0-4.5C451.6,125.9,451.6,130.4,454.5,130.4L454.5,130.4z"/>
	</g>
	<g>
		<path class="st18" d="M504.5,115.2c2.6,0,2.6-4.1,0-4.1C501.9,111.1,501.8,115.2,504.5,115.2L504.5,115.2z"/>
	</g>
</g>
<g>
	<g>
		<path class="st15" d="M538.9,531.6c0.6-0.5,0.8-1.2,1.2-1.9c0.4-0.7,0.8-1.4,1.2-2.1c0.5-1-1-1.8-1.5-0.9
			c-0.4,0.8-0.7,1.6-1.1,2.3c-0.3,0.7-0.7,1.3-0.8,2.1C537.9,531.7,538.5,531.8,538.9,531.6L538.9,531.6z"/>
	</g>
</g>
<g>
	<g>
		<path class="st15" d="M541.7,512c-0.3-0.7-0.6-1.3-1-2c-0.2-0.4-0.8,0-0.6,0.3c0.3,0.7,0.7,1.3,1,2
			C541.4,512.6,541.9,512.4,541.7,512L541.7,512z"/>
	</g>
</g>
<g>
	<path class="st12" d="M822.9,130v274.5c0,1.4,1.1,2.5,2.4,2.5h23.7c1.3,0,2.4-1.1,2.4-2.5V133C843.7,126.5,831.9,125.6,822.9,130z"
		/>
	<path class="st14" d="M818.9,132.4v272.3c0,1.2,1,2.3,2.2,2.3h19.6c1.2,0,2.2-1,2.2-2.3V128.4C834.9,126,825.6,127.4,818.9,132.4z"
		/>
	<path class="st19" d="M826,128.7v276.8c0,0.8,0.6,1.4,1.4,1.4h6.9c0.8,0,1.4-0.6,1.4-1.4V127.3C832.4,127.2,829.1,127.7,826,128.7z
		"/>
</g>
<g>
	<path class="st12" d="M776.6,129.9v158c0,1.3,1.1,2.4,2.4,2.4h23.7c1.3,0,2.4-1.1,2.4-2.4v-155
		C797.4,126.5,785.6,125.6,776.6,129.9z"/>
	<path class="st14" d="M772.6,132.3v155.8c0,1.2,1,2.2,2.2,2.2h19.6c1.2,0,2.2-1,2.2-2.2V128.4C788.6,126,779.3,127.4,772.6,132.3z"
		/>
	<path class="st19" d="M779.7,128.7v160.3c0,0.8,0.6,1.4,1.4,1.4h6.9c0.8,0,1.4-0.6,1.4-1.4V127.3
		C786.1,127.2,782.8,127.7,779.7,128.7z"/>
</g>
<g>
	<path class="st12" d="M768.5,302.8l-142.9,8.4c-0.2,0.6-1.1,1.6-1.3,2.1c0,3.4-0.3,9,2.3,12l142,5.3
		C781.4,323.4,777.7,311.5,768.5,302.8z"/>
	<path class="st14" d="M768.5,299.3l-141.8,10.3c-1.2,0.9-1.9,2.7-2.4,3.8c-0.4,2.2-0.6,5.1,0.2,7.8l144,1.4
		C773.4,314.5,778.6,305.3,768.5,299.3z"/>
	<path class="st19" d="M768.5,305.9l-144.2,7.4c0,0,0,0.1,0,0.1c-0.4,1.3-0.7,2.7-0.5,4.3l144.7-2.3
		C768.6,312.1,770.6,308.8,768.5,305.9z"/>
</g>
<path class="st12" d="M764.5,297.5c-1.4,0-6.6,0-8,0c-5.5,0-10,8.1-10,18s4.5,18,10,18c1.4,0,6.6,0,8,0c5.5,0,10-8.1,10-18
	S770,297.5,764.5,297.5z"/>
<path class="st14" d="M757.6,304.2c-2.9,0-5.9,0-8.9,0c-1.4,3.1-2.2,7-2.2,11.3c0,0.9,0,1.8,0.1,2.7c3,0,6,0,9,0
	C755.8,313.5,756.5,308.8,757.6,304.2z"/>
<circle class="st12" cx="788.5" cy="315.5" r="22.5"/>
<rect x="765.6" y="279.2" class="st12" width="46.2" height="12.5"/>
<rect x="778.4" y="279.2" class="st14" width="20.7" height="12.5"/>
<rect x="773.6" y="289.2" class="st12" width="30.2" height="12.5"/>
<rect x="783.2" y="289.4" class="st13" width="11.1" height="11.6"/>
<rect x="755.7" y="309.1" transform="matrix(2.275688e-05 -1 1 2.275688e-05 455.388 1086.1653)" class="st12" width="30.2" height="12.5"/>
<circle class="st19" cx="793.8" cy="313.5" r="5.3"/>
<path class="st13" d="M769.9,307.6c-1.5,0-3,0-4.6,0c-0.7,1.6-1.1,3.6-1.1,5.8c0,0.5,0,0.9,0.1,1.4c1.5,0,3.1,0,4.6,0
	C768.9,312.4,769.3,310,769.9,307.6z"/>
<g>
	
		<radialGradient id="SVGID_9_" cx="1500.6722" cy="4488.6396" r="6.9714" gradientTransform="matrix(2.0403 0 0 2.0355 -2191.4292 -9095.21)" gradientUnits="userSpaceOnUse">
		<stop  offset="0" style="stop-color:#FFFFFF"/>
		<stop  offset="1" style="stop-color:#D8D7D7;stop-opacity:0"/>
	</radialGradient>
	<ellipse class="st20" cx="870.4" cy="41.5" rx="18" ry="17.9"/>
	<g>
		<circle class="st21" cx="868.4" cy="41.2" r="13.1"/>
		<circle class="st22" cx="870.1" cy="40.6" r="11"/>
		<linearGradient id="SVGID_10_" gradientUnits="userSpaceOnUse" x1="866.6954" y1="56.6714" x2="872.9247" y2="36.8289">
			<stop  offset="0.1227" style="stop-color:#F1A100"/>
			<stop  offset="0.4163" style="stop-color:#DCA54D;stop-opacity:0.366"/>
			<stop  offset="1" style="stop-color:#E6BF80;stop-opacity:0.2"/>
		</linearGradient>
		<path class="st23" d="M870.1,51.6c6.1,0,11-4.9,11-11c0-0.8-0.1-1.7-0.3-2.5c-6.2,3.8-16,1.8-20.5,7.3
			C862.1,49.1,865.8,51.6,870.1,51.6z"/>
		<g>
			
				<linearGradient id="SVGID_11_" gradientUnits="userSpaceOnUse" x1="1077.2098" y1="858.6179" x2="1089.5631" y2="871.077" gradientTransform="matrix(1.1692 -9.563129e-06 0 1.1692 -399.6054 -975.2127)">
				<stop  offset="0" style="stop-color:#FFFFFF"/>
				<stop  offset="1" style="stop-color:#D8D7D7;stop-opacity:0"/>
			</linearGradient>
			<path class="st24" d="M869.9,30.1c-0.4,0-0.8,0-1.2,0.1c5.1,0.6,9.1,4.9,9.1,10.2s-4,9.6-9.1,10.2c0.4,0,0.8,0.1,1.2,0.1
				c5.7,0,10.3-4.6,10.3-10.3S875.6,30.1,869.9,30.1z"/>
		</g>
		
			<radialGradient id="SVGID_12_" cx="869.9088" cy="35.2822" r="6.9714" gradientTransform="matrix(1 0 0 0.4982 0 17.7059)" gradientUnits="userSpaceOnUse">
			<stop  offset="0" style="stop-color:#FFFFFF"/>
			<stop  offset="1" style="stop-color:#D8D7D7;stop-opacity:0"/>
		</radialGradient>
		<ellipse class="st25" cx="869.9" cy="35.3" rx="8.8" ry="4.4"/>
		
			<radialGradient id="SVGID_13_" cx="873.7582" cy="47.6674" r="6.9185" gradientTransform="matrix(0.8737 -0.4864 0.2423 0.4353 98.7885 451.9435)" gradientUnits="userSpaceOnUse">
			<stop  offset="0" style="stop-color:#FFFFFF"/>
			<stop  offset="6.120825e-02" style="stop-color:#FAFAFA;stop-opacity:0.9388"/>
			<stop  offset="0.3689" style="stop-color:#E7E7E7;stop-opacity:0.6311"/>
			<stop  offset="0.6806" style="stop-color:#DCDBDB;stop-opacity:0.3194"/>
			<stop  offset="1" style="stop-color:#D8D7D7;stop-opacity:0"/>
		</radialGradient>
		<path class="st26" d="M879.6,44.3c0,2.4-4.3,6.9-9.2,6.9c-4.9,0-8.8-2-8.8-4.4s3.4-0.4,8.3-0.4C874.7,46.4,879.6,41.8,879.6,44.3z
			"/>
		<path class="st27" d="M792.5,106.4l-7-1.7l-3.8,6.1l4.6,5.5l6.6-2.7L792.5,106.4z M788,112.5c-1.2,0-2.2-1-2.2-2.2
			c0-1.2,1-2.2,2.2-2.2c1.2,0,2.2,1,2.2,2.2C790.1,111.6,789.2,112.5,788,112.5z"/>
		<path class="st27" d="M882.5,106.4l-7-1.7l-3.8,6.1l4.6,5.5l6.6-2.7L882.5,106.4z M878,112.5c-1.2,0-2.2-1-2.2-2.2
			c0-1.2,1-2.2,2.2-2.2c1.2,0,2.2,1,2.2,2.2C880.1,111.6,879.2,112.5,878,112.5z"/>
	</g>
</g>
<path class="st27" d="M781.7,84.8L781.7,84.8c-0.9,0-1.6-0.7-1.6-1.6V44.7c0-0.9,0.7-1.6,1.6-1.6l0,0c0.9,0,1.6,0.7,1.6,1.6v38.4
	C783.4,84.1,782.6,84.8,781.7,84.8z"/>
<path class="st27" d="M791.7,84.8L791.7,84.8c-0.9,0-1.6-0.7-1.6-1.6V44.7c0-0.9,0.7-1.6,1.6-1.6l0,0c0.9,0,1.6,0.7,1.6,1.6v38.4
	C793.4,84.1,792.6,84.8,791.7,84.8z"/>
<path class="st27" d="M801.7,84.8L801.7,84.8c-0.9,0-1.6-0.7-1.6-1.6V44.7c0-0.9,0.7-1.6,1.6-1.6l0,0c0.9,0,1.6,0.7,1.6,1.6v38.4
	C803.4,84.1,802.6,84.8,801.7,84.8z"/>
<path class="st27" d="M811.7,84.8L811.7,84.8c-0.9,0-1.6-0.7-1.6-1.6V44.7c0-0.9,0.7-1.6,1.6-1.6l0,0c0.9,0,1.6,0.7,1.6,1.6v38.4
	C813.4,84.1,812.6,84.8,811.7,84.8z"/>
<line class="st28" x1="831.1" y1="18.2" x2="831.1" y2="123.8"/>
</svg>
